<svg xmlns="http://www.w3.org/2000/svg" width="66" height="66" fill="none" xmlns:v="https://vecta.io/nano"><path d="M60.5 8.25h-55a5.52 5.52 0 0 0-5.5 5.5v38.5a5.52 5.52 0 0 0 5.5 5.5h55c3.025 0 5.472-2.475 5.472-5.5L66 13.75a5.52 5.52 0 0 0-5.5-5.5zm0 44h-55v-38.5h55v38.5zm-8.222-2.778L57.75 44l-4.153-5.5h-4.51c-.605-1.733-.962-3.575-.962-5.5s.358-3.767.962-5.5h4.51L57.75 22l-5.472-5.472c-3.603 2.695-6.27 6.518-7.507 10.973A20.28 20.28 0 0 0 44 33a20.28 20.28 0 0 0 .77 5.5c1.237 4.428 3.905 8.278 7.508 10.972zM24.75 33c4.538 0 8.25-3.712 8.25-8.25s-3.712-8.25-8.25-8.25-8.25 3.712-8.25 8.25S20.213 33 24.75 33zm0-11a2.76 2.76 0 0 1 2.75 2.75 2.76 2.76 0 0 1-2.75 2.75A2.76 2.76 0 0 1 22 24.75 2.76 2.76 0 0 1 24.75 22zm16.5 23.623c0-6.875-10.917-9.845-16.5-9.845s-16.5 2.97-16.5 9.845V49.5h33v-3.877zM15.07 44c2.035-1.375 6.105-2.75 9.68-2.75s7.618 1.347 9.68 2.75H15.07z" fill="url(#A)"/><defs><linearGradient id="A" x1="33" y1="8.25" x2="33" y2="57.75" gradientUnits="userSpaceOnUse"><stop stop-color="#f37021"/><stop offset="1" stop-color="#ffa114"/></linearGradient></defs></svg>