<svg width="1464" height="1620" viewBox="0 0 1464 1620" fill="none" xmlns="http://www.w3.org/2000/svg">
<g opacity="0.86">
<mask id="mask0" mask-type="alpha" maskUnits="userSpaceOnUse" x="-2" y="0" width="1466" height="1720">
<rect x="-2" width="1466" height="1720" fill="#F5F7FE"/>
</mask>
<g mask="url(#mask0)">
<g filter="url(#filter0_f)">
<path d="M-637.295 -820.394C-651.248 -1069.26 -290.921 -663.324 -180.956 -653.602C-106.011 -655.159 -226.946 -1013.18 -81.3135 -807.843C64.3188 -602.5 446.229 33.2088 657.612 447.583C868.995 861.957 423.219 363.28 477.488 726.406C531.757 1089.53 648.986 1158.9 584.037 1395.76C519.089 1632.61 166.272 1617.12 13.5856 1444.5C-139.101 1271.89 -337.13 1022.24 -536.739 704.154C-736.348 386.063 -108.185 759.814 -147.066 596.434C-185.947 433.054 -619.854 -509.316 -637.295 -820.394Z" fill="#FEF5E5"/>
<path d="M-637.295 -820.394C-651.248 -1069.26 -290.921 -663.324 -180.956 -653.602C-106.011 -655.159 -226.946 -1013.18 -81.3135 -807.843C64.3188 -602.5 446.229 33.2088 657.612 447.583C868.995 861.957 423.219 363.28 477.488 726.406C531.757 1089.53 648.986 1158.9 584.037 1395.76C519.089 1632.61 166.272 1617.12 13.5856 1444.5C-139.101 1271.89 -337.13 1022.24 -536.739 704.154C-736.348 386.063 -108.185 759.814 -147.066 596.434C-185.947 433.054 -619.854 -509.316 -637.295 -820.394Z" stroke="black"/>
</g>
<g filter="url(#filter1_f)">
<path d="M1063.56 957.147C1159.42 761.505 1247.24 1458.61 1322.64 1588.78C1377.52 1671.57 1442.47 1277.17 1460.39 1588.78C1478.31 1900.39 1483.91 2787.87 1460.39 3324.31C1436.87 3860.75 1326.73 3000.87 1211.38 3324.31C1096.03 3647.75 1151.3 3829.19 1003.47 3927.8C855.646 4026.41 607.029 3620.14 570.072 3324.31C533.116 3028.48 496.159 2626.15 487.2 2172.55C478.241 1718.94 773.503 2692.68 814.939 2530.96C856.375 2369.24 943.728 1201.7 1063.56 957.147Z" fill="#E5E6FE"/>
<path d="M1063.56 957.147C1159.42 761.505 1247.24 1458.61 1322.64 1588.78C1377.52 1671.57 1442.47 1277.17 1460.39 1588.78C1478.31 1900.39 1483.91 2787.87 1460.39 3324.31C1436.87 3860.75 1326.73 3000.87 1211.38 3324.31C1096.03 3647.75 1151.3 3829.19 1003.47 3927.8C855.646 4026.41 607.029 3620.14 570.072 3324.31C533.116 3028.48 496.159 2626.15 487.2 2172.55C478.241 1718.94 773.503 2692.68 814.939 2530.96C856.375 2369.24 943.728 1201.7 1063.56 957.147Z" stroke="black"/>
</g>
</g>
</g>
<defs>
<filter id="filter0_f" x="-838.061" y="-1101.6" width="1753.32" height="2876.14" filterUnits="userSpaceOnUse" color-interpolation-filters="sRGB">
<feFlood flood-opacity="0" result="BackgroundImageFix"/>
<feBlend mode="normal" in="SourceGraphic" in2="BackgroundImageFix" result="shape"/>
<feGaussianBlur stdDeviation="100" result="effect1_foregroundBlur"/>
</filter>
<filter id="filter1_f" x="286.5" y="722.254" width="1390" height="3421.13" filterUnits="userSpaceOnUse" color-interpolation-filters="sRGB">
<feFlood flood-opacity="0" result="BackgroundImageFix"/>
<feBlend mode="normal" in="SourceGraphic" in2="BackgroundImageFix" result="shape"/>
<feGaussianBlur stdDeviation="100" result="effect1_foregroundBlur"/>
</filter>
</defs>
</svg>
