<svg xmlns="http://www.w3.org/2000/svg" width="217" height="199" fill="none" xmlns:v="https://vecta.io/nano"><g stroke-width="8" stroke="#ffc866"><rect x="44.45" y="156.823" width="23.852" height="34.103" rx="6" transform="rotate(348.5 44.45 156.823)"/><rect x="117.288" y="101.654" width="23.852" height="73.643" rx="6" transform="rotate(348.5 117.288 101.654)"/><rect x="154.245" y="73.96" width="23.852" height="93.413" rx="6" transform="rotate(348.5 154.245 73.96)"/><rect x="80.543" y="128.557" width="23.852" height="54.605" rx="6" transform="rotate(348.5 80.543 128.557)"/><path d="M128.954 29.393c-1.386 4.205-44.014 59.686-84.509 86.872 50.59-6.553 94.971-70.509 98.115-76.309s15.844 3.807 17.06 2.438-7.575-32.644-10.993-34.751-32.768 13.392-32.653 15.797 14.366 1.747 12.98 5.952z"/></g><rect x="31.751" y="193.433" width="187.45" height="4.759" rx="2.38" transform="rotate(348.5 31.751 193.433)" fill="#ffc866"/></svg>