<svg xmlns="http://www.w3.org/2000/svg" xmlns:xlink="http://www.w3.org/1999/xlink" width="99" height="99" fill="none" xmlns:v="https://vecta.io/nano"><path d="M52.491 17.221c-4.748 0-8.61-3.863-8.61-8.61S47.744 0 52.491 0A8.62 8.62 0 0 1 61.1 8.61a8.62 8.62 0 0 1-8.608 8.611z" fill="url(#A)"/><path d="M16.074 38.704l6.208-6.208a1.87 1.87 0 0 1 1.33-.549 1.87 1.87 0 0 1 1.33.549l1.818 1.818.231-.256c.778-.779 1.812-1.225 2.929-1.281a3.65 3.65 0 0 1 .219-.337l2.957-4.032a19.48 19.48 0 0 1 3.528-3.549l7.838-5.818c.25-.184 1.088-.718 1.991-.718l11.049.003c1.28.028 2.216.723 2.858 2.126l3.378 7.388a1.6 1.6 0 0 0 .375.308l6.884 1.638a3.62 3.62 0 0 1 2.701 4.388 3.63 3.63 0 0 1-3.542 2.801 3.67 3.67 0 0 1-.846-.1l-6.95-1.653c-2.154-.512-4.301-2.277-5.221-4.29l-.287-.629-1.873 7.357 4.844 4.207c1.878 1.631 2.842 4.472 2.345 6.909l-2.245 11.001c-.364 1.782-1.945 3.074-3.761 3.074-.258 0-.517-.026-.772-.078a3.85 3.85 0 0 1-2.996-4.532l2.193-10.744-5.01-4.351c-.133-.116-.252-.24-.365-.369h-3.686l-2.483 9.266c-.359 1.341-1.128 3.271-1.788 4.49l-5.453 10.071a3.84 3.84 0 0 1-3.382 2.014 4.01 4.01 0 0 1-.208-.006 3.81 3.81 0 0 1-1.618-.458 3.85 3.85 0 0 1-1.55-5.208l5.453-10.071c.38-.703.916-2.047 1.124-2.823l5.21-19.234c-.588.472-1.463 1.361-1.857 1.9l-2.957 4.032c-.256.349-.569.645-.923.879.022 1.238-.432 2.387-1.287 3.242a4.43 4.43 0 0 1-.256.232l1.817 1.817c.734.733.734 1.927 0 2.661l-6.208 6.208a1.87 1.87 0 0 1-1.33.55h0a1.87 1.87 0 0 1-1.33-.55L16.075 41.365c-.734-.734-.734-1.927-.001-2.661zm16.151.586c.292-.292.487-.658.578-1.062-.679-.05-1.324-.288-1.879-.695a3.63 3.63 0 0 1-1.45-2.431 2.15 2.15 0 0 0-.9.536c-.082.083-.155.172-.222.266l3.608 3.608c.093-.067.183-.14.265-.222z" fill="url(#B)"/><g stroke-width="3"><path d="M81.263 57.469H68.722c-.391 0-.712.321-.712.711v38.608c0 .391.32.711.712.711h12.542c.391 0 .712-.321.712-.711V58.181c0-.391-.32-.711-.712-.711z" stroke="url(#C)"/><path d="M61.336 65.838H48.795c-.391 0-.711.321-.711.711v30.239c0 .391.32.711.711.711h12.542c.391 0 .712-.321.712-.711V66.549c0-.391-.32-.711-.712-.711z" stroke="url(#D)"/><path d="M41.41 71.422H28.869c-.391 0-.712.321-.712.711v24.656c0 .39.32.711.712.711H41.41c.391 0 .712-.32.712-.711V72.133c0-.391-.32-.711-.712-.711z" stroke="url(#E)"/></g><defs><linearGradient id="A" x1="52.49" y1="0" x2="52.49" y2="17.221" xlink:href="#F"><stop stop-color="#f37021"/><stop offset="1" stop-color="#ffa114"/></linearGradient><linearGradient id="B" x1="44.661" y1="18.323" x2="44.661" y2="68.618" xlink:href="#F"><stop stop-color="#f37021"/><stop offset="1" stop-color="#ffa114"/></linearGradient><linearGradient id="C" x1="74.992" y1="55.969" x2="74.992" y2="99" xlink:href="#F"><stop stop-color="#f37021"/><stop offset="1" stop-color="#ffa114"/></linearGradient><linearGradient id="D" x1="55.066" y1="64.338" x2="55.066" y2="99" xlink:href="#F"><stop stop-color="#f37021"/><stop offset="1" stop-color="#ffa114"/></linearGradient><linearGradient id="E" x1="35.139" y1="69.922" x2="35.139" y2="99" xlink:href="#F"><stop stop-color="#f37021"/><stop offset="1" stop-color="#ffa114"/></linearGradient><linearGradient id="F" gradientUnits="userSpaceOnUse"/></defs></svg>