<svg width="439" height="387" viewBox="0 0 439 387" fill="none" xmlns="http://www.w3.org/2000/svg">
<g opacity="0.9">
<path d="M231.768 39.7652C230.695 39.7421 229.605 39.7328 228.527 39.7328H228.304V39.2096H228.527C229.608 39.2096 230.702 39.2235 231.778 39.2421L231.768 39.7652ZM221.388 39.8902L221.365 39.367C222.518 39.3161 223.683 39.2791 224.829 39.2513L224.841 39.7745C223.699 39.8023 222.537 39.8393 221.388 39.8902ZM238.688 40.0523C237.537 39.9782 236.373 39.918 235.229 39.8717L235.251 39.3485C236.399 39.3995 237.566 39.4597 238.721 39.5337L238.688 40.0523ZM214.476 40.3439L214.43 39.8254C215.577 39.7235 216.742 39.6356 217.895 39.5615L217.93 40.08C216.781 40.1541 215.619 40.2467 214.476 40.3439ZM245.589 40.6402C244.456 40.5198 243.296 40.4041 242.142 40.3069L242.186 39.7884C243.344 39.8856 244.508 39.9967 245.645 40.1217L245.589 40.6402ZM207.591 41.0986L207.523 40.58C208.657 40.4319 209.817 40.293 210.972 40.168L211.029 40.6865C209.878 40.8115 208.721 40.9504 207.591 41.0986ZM252.46 41.5245C251.319 41.3532 250.165 41.1912 249.029 41.043L249.096 40.5245C250.235 40.6726 251.393 40.8347 252.537 41.006L252.46 41.5245ZM200.746 42.1542L200.655 41.6403C201.788 41.4412 202.941 41.2514 204.083 41.0754L204.163 41.5893C203.024 41.7653 201.875 41.9551 200.746 42.1542ZM259.284 42.7097C258.164 42.4875 257.02 42.2792 255.878 42.0801L255.968 41.5662C257.113 41.7653 258.261 41.9783 259.386 42.1959L259.284 42.7097ZM193.953 43.5079L193.839 42.9968C194.955 42.7514 196.099 42.5107 197.239 42.2838L197.342 42.7931C196.205 43.02 195.065 43.2607 193.953 43.5079ZM266.048 44.1923C264.937 43.9223 263.803 43.6607 262.673 43.4135L262.784 42.9042C263.918 43.1496 265.057 43.4135 266.173 43.6848L266.048 44.1923ZM187.226 45.1575L187.09 44.6529C188.206 44.3533 189.339 44.0621 190.456 43.7881L190.58 44.2955C189.466 44.5686 188.338 44.8585 187.226 45.1575ZM272.743 45.9715C271.641 45.652 270.516 45.3409 269.405 45.045L269.539 44.5404C270.655 44.8367 271.78 45.1492 272.891 45.4696L272.743 45.9715ZM180.578 47.1016L180.42 46.6035C181.517 46.2562 182.635 45.9159 183.744 45.5914L183.891 46.0928C182.786 46.4159 181.671 46.7553 180.578 47.1016ZM279.368 48.0456C278.271 47.6752 277.155 47.3136 276.062 46.9696L276.215 46.4715C277.317 46.8164 278.433 47.1794 279.535 47.5512L279.368 48.0456ZM174.021 49.3345L173.842 48.8447C174.927 48.4475 176.03 48.0586 177.118 47.6873L177.287 48.1818C176.202 48.5517 175.103 48.9396 174.021 49.3345ZM285.901 50.4142C284.836 50.0017 283.739 49.5911 282.646 49.1943L282.827 48.7031C283.924 49.1017 285.021 49.5133 286.091 49.9276L285.901 50.4142ZM167.581 51.8499L167.381 51.368C168.439 50.9277 169.519 50.4915 170.591 50.073L170.781 50.5596C169.712 50.9767 168.636 51.411 167.581 51.8499ZM292.322 53.0681C291.262 52.6023 290.183 52.1439 289.123 51.7064L289.327 51.2235C290.387 51.6629 291.466 52.1227 292.531 52.5898L292.322 53.0681ZM161.268 54.6404L161.046 54.1676C162.083 53.682 163.144 53.1991 164.198 52.7328L164.409 53.2107C163.358 53.675 162.301 54.1565 161.268 54.6404ZM298.614 55.9996C297.582 55.4903 296.531 54.9862 295.484 54.4996L295.707 54.0255C296.753 54.5139 297.809 55.0204 298.846 55.5311L298.614 55.9996ZM155.079 57.7057L154.837 57.2427C155.856 56.7094 156.896 56.1807 157.925 55.6705L158.157 56.139C157.131 56.6469 156.095 57.1742 155.079 57.7057ZM304.772 59.203C303.758 58.6479 302.73 58.0974 301.712 57.5677L301.952 57.1048C302.975 57.6363 304.008 58.1881 305.022 58.7456L304.772 59.203ZM149.026 61.0396L148.765 60.5873C149.753 60.0151 150.768 59.4415 151.783 58.8822L152.034 59.3396C151.023 59.8965 150.011 60.4683 149.026 61.0396ZM310.781 62.6726C309.804 62.0786 308.8 61.4841 307.795 60.9049L308.059 60.4526C309.064 61.0332 310.073 61.6299 311.054 62.2258L310.781 62.6726ZM143.123 64.6342L142.841 64.1939C143.817 63.5708 144.807 62.9531 145.784 62.3577L146.055 62.8036C145.082 63.3971 144.095 64.0129 143.123 64.6342ZM316.629 66.3991C315.675 65.7593 314.698 65.1213 313.726 64.5037L314.008 64.0634C314.981 64.6828 315.962 65.3232 316.92 65.9648L316.629 66.3991ZM137.379 68.4853L137.079 68.0575C138.02 67.3964 138.983 66.7357 139.939 66.0945L140.23 66.5283C139.277 67.1677 138.318 67.826 137.379 68.4853ZM322.31 70.3766C321.388 69.6997 320.439 69.0201 319.495 68.3566L319.791 67.9293C320.745 68.5941 321.694 69.2761 322.62 69.9553L322.31 70.3766ZM131.805 72.5827L131.487 72.1688C132.405 71.4623 133.338 70.7609 134.261 70.0831L134.57 70.5034C133.651 71.1794 132.721 71.879 131.805 72.5827ZM327.81 74.5957C326.912 73.8763 325.995 73.1563 325.083 72.4563L325.402 72.0419C326.319 72.7443 327.236 73.4665 328.138 74.1888L327.81 74.5957ZM126.413 76.9199L126.077 76.5199C126.951 75.7852 127.853 75.0435 128.758 74.3147L129.086 74.7212C128.183 75.4481 127.284 76.187 126.413 76.9199ZM333.12 79.0478C332.259 78.2935 331.375 77.5347 330.49 76.793L330.824 76.3926C331.713 77.1371 332.602 77.8982 333.467 78.6556L333.12 79.0478ZM121.212 81.4886L120.859 81.1034C121.707 80.3256 122.576 79.545 123.443 78.7834L123.788 79.176C122.924 79.9348 122.057 80.7131 121.212 81.4886ZM338.231 83.7262C337.407 82.9386 336.555 82.1423 335.704 81.3594L336.055 80.9742C336.912 81.7595 337.764 82.5581 338.593 83.3489L338.231 83.7262ZM116.213 86.2791L115.843 85.91C116.658 85.0947 117.493 84.2771 118.326 83.4794L118.687 83.8568C117.857 84.6517 117.025 85.4666 116.213 86.2791ZM343.13 88.619C342.338 87.793 341.523 86.9611 340.708 86.1458L341.079 85.7758C341.898 86.5939 342.713 87.4291 343.509 88.2574L343.13 88.619ZM111.424 91.2834L111.039 90.9306C111.814 90.0843 112.613 89.2306 113.414 88.3944L113.791 88.7551C112.994 89.5894 112.197 90.4399 111.424 91.2834ZM347.815 93.7182C347.051 92.8502 346.273 91.9839 345.5 91.1431L345.885 90.7899C346.662 91.6335 347.44 92.5024 348.209 93.3738L347.815 93.7182ZM106.855 96.4924L106.455 96.1568C107.2 95.2697 107.961 94.3822 108.719 93.5187L109.111 93.8632C108.356 94.7238 107.597 95.6086 106.855 96.4924ZM352.269 99.0138C351.556 98.1221 350.815 97.2235 350.07 96.3419L350.473 96.0054C351.218 96.8897 351.959 97.792 352.676 98.6865L352.269 99.0138ZM102.516 101.897L102.102 101.578C102.801 100.668 103.524 99.7477 104.249 98.8434L104.657 99.1707C103.933 100.072 103.213 100.989 102.516 101.897ZM356.491 104.496C355.815 103.574 355.112 102.644 354.413 101.732L354.825 101.414C355.528 102.328 356.232 103.261 356.913 104.187L356.491 104.496ZM98.4142 107.486L97.9864 107.186C98.6411 106.253 99.3231 105.302 100.013 104.359L100.435 104.669C99.7462 105.607 99.0666 106.555 98.4142 107.486ZM360.468 110.155C359.834 109.203 359.172 108.244 358.51 107.303L358.941 107.003C359.603 107.947 360.265 108.909 360.904 109.863L360.468 110.155ZM94.5585 113.25L94.1182 112.969C94.7368 111.999 95.3771 111.019 96.0206 110.056L96.4549 110.347C95.8132 111.306 95.1752 112.283 94.5585 113.25ZM364.195 115.978C363.603 115.001 362.987 114.014 362.367 113.046L362.807 112.764C363.427 113.736 364.047 114.726 364.645 115.707L364.195 115.978ZM90.9565 119.18L90.5047 118.918C91.0825 117.918 91.6797 116.91 92.2788 115.924L92.7251 116.196C92.1279 117.179 91.5329 118.183 90.9565 119.18ZM367.663 121.956C367.112 120.957 366.543 119.945 365.964 118.948L366.413 118.686C366.996 119.686 367.571 120.701 368.122 121.704L367.663 121.956ZM87.6166 125.263L87.1536 125.021C87.6879 123.996 88.2402 122.963 88.7958 121.951L89.2537 122.203C88.7 123.212 88.1495 124.241 87.6166 125.263ZM370.867 128.077C370.358 127.052 369.83 126.016 369.297 124.999L369.76 124.757C370.298 125.777 370.825 126.816 371.335 127.845L370.867 128.077ZM84.5452 131.489L84.072 131.268C84.5609 130.22 85.0679 129.163 85.5785 128.127L86.0471 128.358C85.5378 129.391 85.0327 130.444 84.5452 131.489ZM373.798 134.329C373.335 133.283 372.853 132.226 372.367 131.186L372.839 130.965C373.33 132.007 373.812 133.068 374.275 134.117L373.798 134.329ZM81.7492 137.847L81.2668 137.647C81.7057 136.587 82.1659 135.508 82.6344 134.442L83.1127 134.652C82.6456 135.715 82.1872 136.789 81.7492 137.847ZM376.451 140.698C376.034 139.632 375.599 138.555 375.159 137.499L375.64 137.298C376.085 138.358 376.52 139.438 376.937 140.508L376.451 140.698ZM79.2352 144.323L78.744 144.146C79.1362 143.066 79.5487 141.967 79.97 140.882L80.4566 141.071C80.0371 142.153 79.626 143.247 79.2352 144.323ZM378.835 147.203C378.46 146.115 378.076 145.017 377.677 143.937L378.168 143.758C378.566 144.841 378.955 145.943 379.326 147.034L378.835 147.203ZM77.0074 150.909L76.5087 150.753C76.8551 149.65 77.219 148.534 77.5903 147.437L78.0847 147.604C77.7148 148.699 77.3523 149.81 77.0074 150.909ZM380.928 153.805C380.603 152.703 380.266 151.589 379.914 150.492L380.414 150.335C380.761 151.435 381.104 152.553 381.428 153.659L380.928 153.805ZM75.0791 157.562L74.5744 157.427C74.8707 156.314 75.1842 155.187 75.5045 154.079L76.0064 154.225C75.6865 155.329 75.3744 156.452 75.0791 157.562ZM382.724 160.494C382.451 159.376 382.159 158.248 381.863 157.14L382.367 157.004C382.664 158.115 382.955 159.248 383.233 160.369L382.724 160.494ZM73.4447 164.293L72.9345 164.181C73.1822 163.053 73.4457 161.914 73.717 160.795L74.2249 160.918C73.954 162.033 73.6915 163.169 73.4447 164.293ZM384.229 167.255C384.006 166.135 383.766 164.995 383.516 163.866L384.025 163.753C384.275 164.885 384.52 166.029 384.743 167.153L384.229 167.255ZM72.1072 171.089L71.5928 170.999C71.7901 169.867 72.003 168.717 72.2262 167.583L72.7382 167.684C72.516 168.815 72.3035 169.96 72.1072 171.089ZM385.437 174.076C385.261 172.939 385.071 171.789 384.872 170.659L385.386 170.568C385.585 171.702 385.78 172.855 385.956 173.996L385.437 174.076ZM71.0687 177.937L70.5506 177.87C70.6988 176.727 70.8618 175.57 71.0345 174.429L71.5507 174.508C71.3785 175.644 71.2164 176.798 71.0687 177.937ZM386.344 180.942C386.219 179.798 386.081 178.641 385.928 177.503L386.446 177.435C386.599 178.576 386.738 179.737 386.863 180.885L386.344 180.942ZM70.3298 184.824L69.8094 184.78C69.9071 183.636 70.0191 182.472 70.1423 181.321L70.6618 181.377C70.5386 182.524 70.427 183.683 70.3298 184.824ZM386.956 187.841C386.877 186.692 386.789 185.53 386.687 184.388L387.206 184.342C387.307 185.488 387.4 186.654 387.474 187.807L386.956 187.841ZM69.89 191.736L69.3682 191.715C69.4163 190.567 69.4775 189.4 69.5511 188.245L70.0724 188.278C69.9992 189.429 69.9381 190.593 69.89 191.736ZM387.261 194.762C387.238 193.616 387.196 192.452 387.145 191.3L387.669 191.276C387.72 192.432 387.757 193.6 387.784 194.749L387.261 194.762ZM69.7478 198.662H69.2256V198.513C69.2256 197.403 69.2372 196.284 69.2599 195.187L69.7821 195.198C69.7594 196.292 69.7478 197.407 69.7478 198.513V198.662ZM387.794 201.987L387.27 201.977C387.294 200.826 387.307 199.661 387.307 198.513V198.225L387.826 198.224L387.831 198.512C387.831 199.665 387.817 200.834 387.794 201.987ZM69.3802 205.601C69.3298 204.448 69.2913 203.282 69.2659 202.136L69.7881 202.124C69.8136 203.267 69.852 204.429 69.902 205.578L69.3802 205.601ZM387.493 208.93L386.974 208.896C387.048 207.742 387.108 206.578 387.159 205.437L387.678 205.46C387.632 206.604 387.567 207.771 387.493 208.93ZM69.8339 212.535C69.7344 211.389 69.6455 210.223 69.5701 209.071L70.0914 209.037C70.1664 210.185 70.2548 211.347 70.3544 212.49L69.8339 212.535ZM386.895 215.853L386.377 215.797C386.497 214.66 386.613 213.5 386.71 212.349L387.233 212.395C387.132 213.549 387.02 214.713 386.895 215.853ZM70.5886 219.443C70.4377 218.295 70.2983 217.134 70.1738 215.993L70.6928 215.936C70.8169 217.074 70.9562 218.231 71.1062 219.375L70.5886 219.443ZM385.997 222.744L385.483 222.665C385.655 221.524 385.817 220.369 385.965 219.236L386.483 219.304C386.335 220.441 386.173 221.599 385.997 222.744ZM71.6428 226.312C71.4423 225.173 71.2521 224.02 71.078 222.883L71.5942 222.804C71.7678 223.936 71.9572 225.086 72.1572 226.222L71.6428 226.312ZM384.798 229.589L384.289 229.488C384.511 228.361 384.724 227.216 384.923 226.083L385.437 226.173C385.238 227.31 385.025 228.459 384.798 229.589ZM72.997 233.128C72.747 232 72.5067 230.856 72.2827 229.727L72.7947 229.626C73.0183 230.75 73.2577 231.891 73.5072 233.015L72.997 233.128ZM383.303 236.376L382.793 236.252C383.067 235.139 383.33 234.004 383.576 232.878L384.09 232.99C383.84 234.12 383.576 235.259 383.303 236.376ZM74.649 239.878C74.3494 238.761 74.0591 237.628 73.7859 236.512L74.2934 236.388C74.5656 237.501 74.855 238.629 75.1536 239.742L74.649 239.878ZM381.506 243.089L381.006 242.944C381.326 241.84 381.641 240.718 381.937 239.607L382.442 239.742C382.145 240.856 381.83 241.982 381.506 243.089ZM76.5958 246.549C76.2486 245.449 75.9087 244.331 75.586 243.225L76.0874 243.078C76.4092 244.181 76.7481 245.295 77.0944 246.392L76.5958 246.549ZM379.418 249.73L378.923 249.562C379.293 248.472 379.654 247.36 380.002 246.258L380.502 246.415C380.154 247.521 379.789 248.636 379.418 249.73ZM78.8343 253.128C78.4375 252.042 78.0491 250.939 77.6792 249.851L78.1736 249.683C78.5422 250.767 78.9297 251.866 79.3251 252.949L78.8343 253.128ZM377.029 256.282L376.543 256.093C376.964 255.014 377.376 253.92 377.77 252.841L378.261 253.02C377.867 254.102 377.451 255.2 377.029 256.282ZM81.3548 259.591C80.9131 258.527 80.4779 257.447 80.0617 256.38L80.5483 256.19C80.9635 257.253 81.3969 258.331 81.8372 259.39L81.3548 259.591ZM374.358 262.72L373.881 262.51C374.349 261.45 374.807 260.376 375.247 259.316L375.728 259.516C375.288 260.579 374.83 261.657 374.358 262.72ZM84.1512 265.927C83.6623 264.881 83.1803 263.82 82.7183 262.773L83.196 262.562C83.6562 263.606 84.1368 264.663 84.6243 265.705L84.1512 265.927ZM371.409 269.031L370.941 268.8C371.45 267.773 371.955 266.721 372.446 265.671L372.918 265.893C372.427 266.945 371.918 268.001 371.409 269.031ZM87.223 272.137C86.6902 271.116 86.1619 270.077 85.6531 269.048L86.1212 268.817C86.6281 269.842 87.155 270.878 87.686 271.896L87.223 272.137ZM368.186 275.205L367.728 274.954C368.284 273.945 368.835 272.916 369.367 271.895L369.83 272.136C369.297 273.161 368.742 274.194 368.186 275.205ZM90.5644 278.211C89.9838 277.208 89.4106 276.192 88.8606 275.192L89.318 274.94C89.8667 275.937 90.438 276.949 91.0167 277.95L90.5644 278.211ZM364.7 281.229L364.251 280.958C364.848 279.977 365.446 278.974 366.024 277.975L366.473 278.236C365.895 279.239 365.297 280.246 364.7 281.229ZM94.1692 284.136C93.5483 283.164 92.9312 282.174 92.3344 281.192L92.7807 280.921C93.3751 281.899 93.9904 282.886 94.6094 283.854L94.1692 284.136ZM360.95 287.093L360.515 286.802C361.158 285.846 361.797 284.87 362.418 283.9L362.857 284.181C362.232 285.154 361.594 286.134 360.95 287.093ZM98.0295 289.9C97.3651 288.953 96.7049 287.99 96.0683 287.038L96.5021 286.748C97.1369 287.696 97.7948 288.656 98.4573 289.6L98.0295 289.9ZM356.954 292.785L356.533 292.476C357.214 291.546 357.894 290.599 358.556 289.66L358.982 289.961C358.32 290.902 357.64 291.852 356.954 292.785ZM102.138 295.494C101.434 294.578 100.733 293.645 100.053 292.72L100.475 292.41C101.152 293.333 101.851 294.263 102.552 295.176L102.138 295.494ZM352.714 298.297L352.306 297.97C353.019 297.081 353.741 296.164 354.45 295.246L354.862 295.564C354.153 296.486 353.431 297.405 352.714 298.297ZM106.487 300.906C105.749 300.027 105.007 299.124 104.283 298.224L104.69 297.897C105.412 298.794 106.151 299.693 106.887 300.57L106.487 300.906ZM348.237 303.618L347.843 303.274C348.607 302.405 349.366 301.521 350.102 300.646L350.505 300.982C349.764 301.86 349.005 302.746 348.237 303.618ZM111.068 306.126C110.283 305.27 109.503 304.4 108.749 303.54L109.142 303.196C109.893 304.052 110.671 304.92 111.453 305.773L111.068 306.126ZM343.537 308.739L343.162 308.377C343.954 307.551 344.75 306.701 345.528 305.851L345.917 306.204C345.13 307.058 344.334 307.91 343.537 308.739ZM115.872 311.144C115.054 310.326 114.236 309.491 113.443 308.661L113.82 308.3C114.611 309.126 115.426 309.959 116.241 310.775L115.872 311.144ZM338.62 313.649L338.259 313.272C339.093 312.475 339.926 311.661 340.736 310.851L341.107 311.221C340.292 312.033 339.458 312.85 338.62 313.649ZM120.891 315.951C120.035 315.167 119.182 314.367 118.355 313.575L118.716 313.197C119.541 313.987 120.391 314.784 121.244 315.566L120.891 315.951ZM333.5 318.34L333.153 317.947C334.023 317.187 334.889 316.409 335.731 315.637L336.088 316.022C335.241 316.797 334.37 317.577 333.5 318.34ZM126.115 320.536C125.231 319.794 124.344 319.033 123.478 318.271L123.822 317.879C124.686 318.637 125.57 319.397 126.451 320.137L126.115 320.536ZM328.18 322.803L327.851 322.396C328.754 321.672 329.652 320.933 330.527 320.201L330.865 320.601C329.986 321.335 329.083 322.077 328.18 322.803ZM131.535 324.893C130.62 324.19 129.701 323.467 128.801 322.744L129.128 322.337C130.025 323.058 130.941 323.779 131.853 324.479L131.535 324.893ZM322.675 327.031L322.365 326.609C323.286 325.933 324.217 325.235 325.134 324.533L325.449 324.947C324.532 325.651 323.597 326.352 322.675 327.031ZM137.14 329.011C136.186 328.341 135.236 327.659 134.315 326.982L134.624 326.562C135.542 327.236 136.489 327.916 137.44 328.583L137.14 329.011ZM316.99 331.014L316.703 330.58C317.661 329.937 318.62 329.279 319.555 328.626L319.856 329.053C318.916 329.708 317.958 330.369 316.99 331.014ZM142.922 332.882C141.953 332.263 140.973 331.622 140.01 330.978L140.3 330.543C141.261 331.186 142.237 331.825 143.203 332.441L142.922 332.882ZM311.142 334.744L310.874 334.298C311.851 333.704 312.837 333.089 313.805 332.47L314.087 332.91C313.115 333.531 312.124 334.148 311.142 334.744ZM148.869 336.498C147.862 335.915 146.855 335.318 145.875 334.722L146.147 334.276C147.123 334.869 148.127 335.465 149.13 336.046L148.869 336.498ZM305.142 338.215L304.888 337.757C305.897 337.203 306.911 336.632 307.902 336.06L308.161 336.512C307.17 337.086 306.152 337.658 305.142 338.215ZM154.97 339.852C153.949 339.319 152.916 338.766 151.901 338.208L152.152 337.751C153.165 338.307 154.194 338.858 155.211 339.389L154.97 339.852ZM298.998 341.42L298.767 340.952C299.795 340.442 300.832 339.915 301.846 339.388L302.087 339.851C301.073 340.38 300.031 340.908 298.998 341.42ZM161.215 342.936C160.168 342.447 159.111 341.94 158.075 341.428L158.307 340.96C159.339 341.47 160.392 341.976 161.436 342.463L161.215 342.936ZM292.72 344.351L292.507 343.874C293.554 343.413 294.614 342.933 295.651 342.447L295.873 342.92C294.832 343.407 293.771 343.889 292.72 344.351ZM167.593 345.745C166.525 345.302 165.447 344.841 164.388 344.375L164.599 343.897C165.653 344.362 166.728 344.821 167.792 345.262L167.593 345.745ZM286.327 347.006L286.137 346.519C287.206 346.103 288.28 345.669 289.336 345.232L289.535 345.714C288.48 346.153 287.401 346.587 286.327 347.006ZM174.09 348.271C172.994 347.872 171.896 347.459 170.827 347.043L171.017 346.557C172.082 346.971 173.176 347.382 174.269 347.78L174.09 348.271ZM279.794 349.385L279.627 348.89C280.725 348.518 281.822 348.131 282.896 347.74L283.072 348.231C281.998 348.623 280.896 349.012 279.794 349.385ZM180.697 350.508C179.591 350.161 178.476 349.797 177.38 349.425L177.548 348.931C178.64 349.301 179.751 349.664 180.853 350.01L180.697 350.508ZM273.169 351.475L273.021 350.974C274.141 350.647 275.252 350.309 276.336 349.968L276.493 350.466C275.41 350.808 274.289 351.147 273.169 351.475ZM187.37 352.447C186.247 352.147 185.121 351.834 184.023 351.514L184.168 351.013C185.263 351.331 186.386 351.644 187.505 351.942L187.37 352.447ZM266.456 353.272L266.331 352.764C267.456 352.489 268.585 352.2 269.687 351.906L269.821 352.41C268.719 352.705 267.585 352.995 266.456 353.272ZM194.123 354.09C192.986 353.84 191.847 353.575 190.737 353.305L190.861 352.798C191.967 353.067 193.103 353.33 194.235 353.579L194.123 354.09ZM259.668 354.772L259.566 354.26C260.696 354.035 261.84 353.796 262.955 353.549L263.071 354.059C261.946 354.307 260.803 354.547 259.668 354.772ZM200.94 355.434C199.809 355.237 198.66 355.023 197.525 354.799L197.626 354.286C198.758 354.51 199.903 354.723 201.03 354.92L200.94 355.434ZM252.825 355.973L252.746 355.457C253.878 355.283 255.028 355.094 256.163 354.895L256.254 355.409C255.114 355.609 253.961 355.799 252.825 355.973ZM207.811 356.479C206.665 356.33 205.508 356.167 204.37 355.994L204.448 355.478C205.583 355.651 206.737 355.813 207.878 355.961L207.811 356.479ZM245.935 356.874L245.878 356.355C247.023 356.23 248.18 356.092 249.317 355.943L249.384 356.461C248.244 356.61 247.083 356.749 245.935 356.874ZM214.72 357.224C213.575 357.126 212.411 357.013 211.262 356.889L211.318 356.37C212.463 356.493 213.623 356.606 214.765 356.704L214.72 357.224ZM239.011 357.475L238.978 356.954C240.12 356.88 241.282 356.792 242.431 356.692L242.476 357.212C241.324 357.313 240.158 357.401 239.011 357.475ZM221.654 357.668C220.5 357.619 219.332 357.557 218.185 357.484L218.218 356.963C219.362 357.036 220.525 357.098 221.676 357.147L221.654 357.668ZM232.077 357.776L232.065 357.254C233.221 357.228 234.383 357.19 235.519 357.141L235.541 357.662C234.402 357.712 233.237 357.75 232.077 357.776ZM228.602 357.814H228.527C227.389 357.814 226.245 357.802 225.128 357.778L225.139 357.256C226.253 357.28 227.393 357.292 228.527 357.292H228.602V357.814Z" fill="#2B2B2B"/>
<path d="M215.026 72.0117C215.026 111.784 182.785 144.025 143.013 144.025C103.241 144.025 71 111.784 71 72.0117C71 32.2407 103.241 3.05176e-05 143.013 3.05176e-05C182.785 3.05176e-05 215.026 32.2407 215.026 72.0117Z" fill="#FEF6E9"/>
<path d="M377.368 285.348C377.368 317.523 351.284 343.606 319.107 343.606C286.934 343.606 260.85 317.523 260.85 285.348C260.85 253.173 286.934 227.09 319.107 227.09C351.284 227.09 377.368 253.173 377.368 285.348Z" fill="#EEF1FE"/>
<path d="M228.854 317.927C228.854 355.994 197.994 386.854 159.927 386.854C121.86 386.854 91 355.994 91 317.927C91 279.86 121.86 249 159.927 249C197.994 249 228.854 279.86 228.854 317.927Z" fill="#FEF6E9"/>
<path d="M369.896 70.2997C369.896 100.412 345.483 124.822 315.37 124.822C285.258 124.822 260.85 100.412 260.85 70.2997C260.85 40.1865 285.258 15.7781 315.37 15.7781C345.483 15.7781 369.896 40.1865 369.896 70.2997Z" fill="#EEF1FE"/>
<path d="M108.222 195.111C108.222 224.996 83.9964 249.222 54.1114 249.222C24.2264 249.222 0 224.996 0 195.111C0 165.227 24.2264 141 54.1114 141C83.9964 141 108.222 165.227 108.222 195.111Z" fill="#EEF1FE"/>
<path d="M439.001 173.461C439.001 201.866 415.977 224.893 387.568 224.893C359.164 224.893 336.136 201.866 336.136 173.461C336.136 145.056 359.164 122.029 387.568 122.029C415.977 122.029 439.001 145.056 439.001 173.461Z" fill="#FEF6E9"/>
<path d="M152.365 96.9185C152.446 97.4452 152.064 97.9397 151.512 98.0238L136.602 100.296C136.051 100.38 135.539 100.022 135.459 99.4953L135.251 98.1287C135.17 97.602 135.552 97.1071 136.104 97.0231L151.014 94.7507C151.565 94.6666 152.077 95.0252 152.157 95.5519L152.365 96.9185Z" fill="#3E3E3E"/>
<path d="M151.444 101.878C151.524 102.404 151.229 102.886 150.785 102.954L138.768 104.785C138.323 104.853 137.898 104.481 137.818 103.955L137.61 102.588C137.53 102.062 137.825 101.58 138.269 101.512L150.286 99.6804C150.73 99.6129 151.155 99.9845 151.236 100.511L151.444 101.878Z" fill="#3E3E3E"/>
<path d="M148.174 104.71C148.444 106.475 147.231 108.124 145.465 108.393C143.7 108.662 142.05 107.449 141.781 105.684" fill="#3E3E3E"/>
<path d="M134.072 92.0388L151.772 89.3411C151.775 89.2521 151.771 89.1345 151.749 88.9907C151.718 88.7883 151.676 88.6484 151.642 88.5622L150.974 88.4577L150.908 87.5597C150.511 82.21 153.055 77.477 154.912 74.021C155.543 72.8458 156.089 71.8309 156.377 71.0485L156.389 71.0171C156.498 70.7469 156.603 70.4671 156.702 70.1859L156.706 70.1721C157.79 67.0799 158.097 63.7101 157.597 60.4261C157.194 57.7817 156.301 55.2936 154.943 53.0307C153.633 50.8467 151.946 48.9629 149.93 47.4323C147.917 45.9042 145.678 44.805 143.275 44.1653C140.79 43.5044 138.235 43.3659 135.683 43.7552C133.131 44.1444 130.734 45.0371 128.559 46.4083C126.455 47.7347 124.645 49.4511 123.179 51.5097C121.711 53.5712 120.662 55.8718 120.061 58.3473C119.439 60.9114 119.328 63.5529 119.731 66.1979C120.28 69.8005 121.773 73.1753 124.048 75.9578L124.069 75.9846C124.582 76.6522 125.407 77.4668 126.364 78.4092C129.198 81.2054 133.081 85.0345 134.239 90.2747L134.36 90.8261L134 91.2489C133.979 91.2846 133.921 91.446 133.96 91.7014C133.984 91.8572 134.032 91.9688 134.072 92.0388ZM152.458 91.5304L134.189 94.315C133.025 94.4927 131.94 93.4948 131.719 92.0434C131.626 91.4368 131.702 90.8367 131.922 90.3401C130.787 85.9589 127.323 82.541 124.771 80.0242C123.761 79.0281 122.889 78.1672 122.281 77.3799C119.755 74.2863 118.098 70.5378 117.489 66.5395C117.041 63.6016 117.165 60.6652 117.857 57.8125C118.526 55.0551 119.695 52.4921 121.331 50.1943C122.97 47.8937 124.994 45.9742 127.349 44.4895C129.79 42.9512 132.479 41.9498 135.341 41.5132C138.204 41.077 141.069 41.2317 143.857 41.9738C146.548 42.6895 149.052 43.9183 151.302 45.6262C153.548 47.3324 155.428 49.4306 156.888 51.8636C158.398 54.3808 159.391 57.1466 159.839 60.0848C160.122 61.9393 160.176 63.8157 160 65.6631C159.869 67.0375 159.61 68.3978 159.229 69.7214L159.309 69.7398L158.836 70.9539C158.729 71.2559 158.616 71.5565 158.499 71.8479C158.155 72.7765 157.578 73.8511 156.91 75.0945C155.257 78.1694 153.02 82.3322 153.139 86.7992C153.507 87.1309 153.845 87.6943 153.991 88.6487C154.263 90.4365 153.417 91.3842 152.458 91.5304Z" fill="#3E3E3E"/>
<path d="M134.484 36.3431C133.865 36.4374 133.287 36.0121 133.192 35.3933L131.807 26.3028C131.713 25.6846 132.138 25.1053 132.757 25.0135C133.376 24.9181 133.955 25.342 134.049 25.9637L135.434 35.0513C135.529 35.6705 135.103 36.2488 134.484 36.3431Z" fill="#3E3E3E"/>
<path d="M173.769 57.4168L164.68 58.8018C164.061 58.8962 163.482 58.4709 163.388 57.852C163.294 57.2328 163.719 56.6542 164.338 56.5599L173.427 55.1745C174.046 55.0802 174.624 55.5058 174.719 56.1247C174.813 56.7436 174.388 57.3225 173.769 57.4168Z" fill="#3E3E3E"/>
<path d="M112.39 66.7715L103.301 68.1568C102.682 68.2512 102.104 67.8255 102.009 67.2063C101.915 66.5874 102.34 66.0092 102.959 65.9149L112.048 64.5295C112.667 64.4352 113.245 64.8608 113.34 65.4797C113.434 66.0989 113.009 66.6771 112.39 66.7715Z" fill="#3E3E3E"/>
<path d="M153.718 38.7381C153.462 38.777 153.191 38.7286 152.953 38.5816C152.42 38.2531 152.254 37.5541 152.583 37.0214L157.412 29.1959C157.74 28.666 158.439 28.5 158.972 28.8285C159.505 29.157 159.67 29.8564 159.342 30.3898L154.513 38.2122C154.331 38.5071 154.036 38.6897 153.718 38.7381Z" fill="#3E3E3E"/>
<path d="M116.605 44.394C116.287 44.4428 115.951 44.3569 115.69 44.1294L108.75 38.0994C108.277 37.6889 108.227 36.9726 108.637 36.5C109.048 36.027 109.764 35.9768 110.237 36.3873L117.177 42.4177C117.65 42.8285 117.7 43.5441 117.289 44.0171C117.105 44.2284 116.861 44.3552 116.605 44.394Z" fill="#3E3E3E"/>
<path d="M301.29 92.5103L318.39 95.9553C324.607 94.036 329.263 88.9954 330.58 82.7437C332.175 75.1611 328.414 67.3302 321.436 63.699C321.033 63.4894 320.822 63.0444 320.912 62.6072L324.004 47.9163C324.118 47.3712 324.665 47.0208 325.22 47.1328L325.517 47.1929C326.436 47.3777 327.335 46.7974 327.523 45.8984L327.66 45.2442C327.851 44.349 327.257 43.4691 326.338 43.2817L315.251 41.0476C314.805 40.9596 314.352 41.0437 313.973 41.2886C313.594 41.5334 313.335 41.9083 313.246 42.3406L313.109 42.9948C312.917 43.8938 313.511 44.7736 314.426 44.9573L314.727 45.0185C314.993 45.072 315.228 45.2289 315.38 45.4508C315.529 45.6726 315.583 45.9481 315.529 46.2082L312.436 60.8998C312.346 61.3375 311.967 61.663 311.514 61.7001C303.636 62.3386 297.021 68.08 295.426 75.6623C294.112 81.9144 296.357 88.3458 301.29 92.5103ZM318.441 98C318.371 98 318.304 97.9935 318.234 97.9798L300.618 94.4308C300.45 94.3971 300.297 94.3237 300.164 94.2166C294.515 89.5815 291.927 82.316 293.413 75.256C295.137 67.0533 302.135 60.7832 310.571 59.7706L313.32 46.7209C311.693 46.0552 310.724 44.3375 311.091 42.5893L311.228 41.9351C311.432 40.9749 312.002 40.1447 312.843 39.6053C313.68 39.0659 314.684 38.8785 315.666 39.0774L326.757 41.3115C328.786 41.717 330.095 43.668 329.677 45.6535L329.54 46.3077C329.173 48.0426 327.605 49.2411 325.861 49.2411H325.826L323.082 62.29C330.424 66.4821 334.322 74.9469 332.594 83.1493C331.112 90.2097 325.799 95.8837 318.738 97.9579C318.641 97.9859 318.543 98 318.441 98Z" fill="#3E3E3E"/>
<path d="M383.654 166.554C383.654 166.044 384.956 165.303 386.997 165.303C389.042 165.303 390.344 166.044 390.344 166.554C390.344 167.063 389.042 167.804 386.997 167.804C384.956 167.804 383.654 167.063 383.654 166.554ZM354.4 165.799C362.291 163.337 381.246 156.206 386.418 154.248L419.89 165.673L386.997 179.939L365.279 170.518L383.618 168.098C384.417 168.59 385.615 168.894 386.997 168.894C389.525 168.894 391.434 167.887 391.434 166.554C391.434 165.22 389.525 164.213 386.997 164.213C384.816 164.213 383.103 164.962 382.672 166.025L361.393 168.832L354.4 165.799ZM405.113 191.261C405.113 192.121 404.41 192.82 403.551 192.82H372.803C371.944 192.82 371.241 192.121 371.241 191.261V175.481L386.566 182.127C386.705 182.187 386.849 182.217 386.997 182.217C387.149 182.217 387.292 182.187 387.432 182.127L405.113 174.459V191.261ZM359.504 186.461L360.626 179.806C360.69 179.423 360.546 179.036 360.251 178.788C360.063 178.633 359.959 178.406 359.959 178.165C359.959 177.718 360.322 177.354 360.77 177.354C361.217 177.354 361.58 177.718 361.58 178.165C361.58 178.414 361.473 178.592 361.381 178.698C361.173 178.935 361.077 179.251 361.121 179.563L362.076 186.461H359.504ZM360.143 175.24C358.793 175.529 357.778 176.73 357.778 178.165C357.778 178.826 357.994 179.458 358.385 179.974L357.135 187.37C357.083 187.686 357.171 188.01 357.379 188.255C357.587 188.5 357.89 188.641 358.214 188.641H363.326C363.641 188.641 363.941 188.505 364.148 188.267C364.356 188.029 364.448 187.714 364.408 187.401L363.342 179.691C363.613 179.232 363.761 178.705 363.761 178.165C363.761 177.086 363.186 176.14 362.323 175.614V171.613L369.061 174.535V191.261C369.061 193.323 370.738 195 372.803 195H403.551C405.616 195 407.293 193.323 407.293 191.261V173.514L423.34 166.551C423.756 166.372 424.015 165.957 423.999 165.507C423.979 165.057 423.688 164.665 423.26 164.52L386.753 152.059C386.514 151.976 386.25 151.981 386.014 152.071C373.514 156.803 352.986 164.347 351.081 164.461C350.566 164.466 350.126 164.827 350.022 165.329C349.919 165.835 350.182 166.346 350.653 166.551L360.143 170.667V175.24Z" fill="#3E3E3E"/>
<path d="M323.131 285.89L306.425 305.846L287.69 273.286L323.131 285.89ZM330.661 280.15L331.606 293.523L326.041 284.737L325.971 284.649L325.892 284.553L325.818 284.484L325.755 284.434L325.684 284.383C325.637 284.354 325.59 284.333 325.543 284.312L325.461 284.27L325.457 284.269L298.177 274.566L330.661 280.15ZM343.529 272.604L331.591 277.968L299.079 272.38L343.529 272.604ZM320.892 292.149L321.884 290.962L324.947 287.301L330.293 295.745L320.892 292.149ZM285.141 270L285.126 270.002L285.059 270.009C285.008 270.012 284.957 270.016 284.906 270.026L284.894 270.029L284.867 270.039L284.804 270.056C284.706 270.087 284.612 270.127 284.525 270.182L284.514 270.192C284.427 270.249 284.349 270.319 284.282 270.397L284.259 270.418L284.251 270.433L284.22 270.472L284.208 270.488C284.173 270.541 284.137 270.596 284.11 270.655L284.102 270.678L284.094 270.699L284.071 270.753C284.059 270.788 284.043 270.823 284.035 270.86L284.031 270.865L284.027 270.901C284.016 270.951 284.004 271.001 284 271.054V271.076V271.133C284 271.187 284 271.241 284.004 271.293L284.012 271.326L284.02 271.371L284.031 271.427L284.051 271.502L284.055 271.515C284.074 271.577 284.098 271.638 284.129 271.696L284.137 271.709L284.145 271.716L284.149 271.734L305.26 308.424C305.448 308.75 305.782 308.962 306.15 308.995L306.252 309C306.589 309 306.911 308.851 307.127 308.59L319.323 294.02L332.646 299.115L332.712 299.141C332.846 299.19 332.983 299.214 333.116 299.214C333.457 299.214 333.787 299.063 334.01 298.785C334.258 298.476 334.316 298.068 334.199 297.701L332.94 279.889L349.321 272.531C349.811 272.31 350.086 271.773 349.976 271.24C349.862 270.708 349.399 270.326 348.858 270.323L285.149 270H285.141Z" fill="#3E3E3E"/>
<path d="M189.439 343.741C189.439 345.802 187.736 347.479 185.644 347.479H133.356C131.263 347.479 129.561 345.802 129.561 343.741C129.561 341.68 131.263 340.004 133.356 340.004H185.644C187.736 340.004 189.439 341.68 189.439 343.741ZM132.606 289.26C132.606 288.301 133.398 287.521 134.372 287.521C135.346 287.521 136.137 288.301 136.137 289.26V297.239L136.136 297.258L136.137 297.276V326.728L136.136 326.746L136.137 326.765V337.482H133.356C133.101 337.482 132.853 337.501 132.606 337.53V289.26ZM142.748 322.759C144.981 322.759 146.798 324.548 146.798 326.746C146.798 328.946 144.981 330.735 142.748 330.735C140.514 330.735 138.697 328.946 138.697 326.746C138.697 324.548 140.514 322.759 142.748 322.759ZM142.748 293.27C144.98 293.27 146.796 295.058 146.798 297.255L146.797 297.258L146.798 297.26C146.796 299.458 144.98 301.245 142.748 301.245C140.514 301.245 138.697 299.456 138.697 297.258C138.697 295.059 140.514 293.27 142.748 293.27ZM175.744 315.239C173.512 315.239 171.694 313.451 171.694 311.252C171.694 309.054 173.512 307.266 175.744 307.266C177.978 307.266 179.795 309.054 179.795 311.252C179.795 313.451 177.978 315.239 175.744 315.239ZM160.019 311.252C160.019 309.054 161.836 307.266 164.069 307.266C166.302 307.266 168.118 309.054 168.118 311.252C168.118 313.451 166.302 315.239 164.069 315.239C161.836 315.239 160.019 313.451 160.019 311.252ZM170.647 326.116C170.324 322.823 167.498 320.238 164.069 320.238C160.64 320.238 157.813 322.823 157.491 326.116H149.326C149.003 322.823 146.177 320.238 142.748 320.238C141.222 320.238 139.818 320.755 138.698 321.613V312.094H157.52C157.941 315.286 160.714 317.761 164.069 317.761C166.597 317.761 168.795 316.356 169.906 314.299C171.019 316.356 173.217 317.761 175.744 317.761C177.271 317.761 178.674 317.244 179.795 316.385V326.116H170.647ZM160.019 326.746C160.019 324.548 161.836 322.759 164.069 322.759C166.302 322.759 168.118 324.548 168.118 326.746C168.118 328.946 166.302 330.735 164.069 330.735C161.836 330.735 160.019 328.946 160.019 326.746ZM164.069 333.256C167.498 333.256 170.324 330.672 170.647 327.377H179.795V337.482H138.698V331.881C139.818 332.74 141.222 333.256 142.748 333.256C146.177 333.256 149.003 330.672 149.326 327.377H157.491C157.813 330.672 160.64 333.256 164.069 333.256ZM148.078 301.092C149.282 302.71 151.22 303.767 153.408 303.767C156.763 303.767 159.536 301.291 159.957 298.099H169.195C169.616 301.291 172.389 303.767 175.744 303.767C177.271 303.767 178.674 303.25 179.795 302.391V306.12C178.674 305.261 177.271 304.744 175.744 304.744C173.217 304.744 171.019 306.149 169.906 308.205C168.795 306.149 166.597 304.744 164.069 304.744C160.568 304.744 157.701 307.44 157.48 310.833H138.698V302.392C139.818 303.25 141.222 303.767 142.748 303.767C144.937 303.767 146.874 302.71 148.078 301.092ZM153.408 293.27C155.642 293.27 157.459 295.059 157.459 297.258C157.459 299.456 155.642 301.245 153.408 301.245C151.175 301.245 149.358 299.456 149.358 297.258C149.358 295.059 151.175 293.27 153.408 293.27ZM175.744 293.27C177.978 293.27 179.795 295.059 179.795 297.258C179.795 299.456 177.978 301.245 175.744 301.245C173.512 301.245 171.694 299.456 171.694 297.258C171.694 295.059 173.512 293.27 175.744 293.27ZM182.356 311.252V289.26C182.356 288.301 183.148 287.521 184.122 287.521C185.095 287.521 185.887 288.301 185.887 289.26V337.495C185.805 337.492 185.725 337.482 185.644 337.482H182.356V311.252ZM184.122 285C181.735 285 179.795 286.911 179.795 289.26V292.125C178.674 291.266 177.271 290.749 175.744 290.749C172.243 290.749 169.376 293.445 169.155 296.839H159.997C159.776 293.445 156.909 290.749 153.408 290.749C151.22 290.749 149.282 291.806 148.078 293.424C146.874 291.806 144.937 290.749 142.748 290.749C141.222 290.749 139.818 291.266 138.698 292.124V289.26C138.698 286.911 136.758 285 134.372 285C131.986 285 130.045 286.911 130.045 289.26V338.409C128.222 339.51 127 341.485 127 343.741C127 347.192 129.852 350 133.356 350H185.644C189.148 350 192 347.192 192 343.741C192 341.282 190.548 339.155 188.448 338.132V289.26C188.448 286.911 186.507 285 184.122 285Z" fill="#3E3E3E"/>
<path d="M37.6461 191.066C37.6461 189.205 39.217 187.691 41.1477 187.691H61.8699C63.8003 187.691 65.3712 189.205 65.3712 191.066V191.677C65.3712 191.985 65.5332 192.268 65.7953 192.417C66.7709 192.973 67.3539 193.895 67.3539 194.883V227.336C67.3539 228.975 65.783 230.308 63.8523 230.308H41.1477C39.217 230.308 37.6461 228.795 37.6461 226.934V191.066ZM36 191.066V226.934C36 229.727 38.3092 232 41.1477 232H63.8523C66.6908 232 69 229.908 69 227.336V194.883C69 193.429 68.2674 192.086 67.0173 191.206V191.066C67.0173 188.272 64.7084 186 61.8699 186H41.1477C38.3092 186 36 188.272 36 191.066Z" fill="#3E3E3E"/>
<path d="M42.2669 190.706H62.2572C62.7555 190.822 63.0846 191.029 63.2352 191.321C63.3666 191.576 63.3714 191.899 63.335 192.174H55.1436C54.6894 192.174 54.3214 192.556 54.3214 193.027V206.214L51.5573 203.597C51.4001 203.448 51.2013 203.374 51.0031 203.374C50.7983 203.374 50.5937 203.453 50.4354 203.61L47.8655 206.154V193.027C47.8655 192.556 47.4975 192.174 47.0433 192.174H42.4852C41.6294 191.389 41.6449 191.04 41.6455 191.037C41.6796 190.944 41.9786 190.776 42.2669 190.706ZM41.6598 193.685C41.807 193.811 41.9923 193.879 42.1825 193.879H46.2212V208.147C46.2212 208.489 46.4174 208.797 46.72 208.931C46.8239 208.977 46.934 209 47.0428 209C47.2508 209 47.4547 208.918 47.6111 208.764L51.0151 205.393L54.589 208.777C54.8294 209.005 55.1768 209.064 55.4755 208.927C55.7735 208.791 55.9657 208.485 55.9657 208.147V193.879H63.9627C64.2917 193.879 64.5892 193.676 64.7183 193.363C64.7834 193.206 65.3334 191.795 64.6931 190.532C64.4191 189.991 63.8167 189.289 62.5048 189.017C62.4517 189.006 62.3975 189 62.3433 189H42.1825C42.1349 189 42.087 189.005 42.0397 189.013C41.8698 189.044 40.372 189.354 40.055 190.603C39.6982 192.01 41.1747 193.27 41.6598 193.685Z" fill="#3E3E3E"/>
<path d="M49.9252 199.251C50.0673 199.23 50.19 199.137 50.2533 199.003L50.5001 198.482L50.7464 199.003C50.8097 199.137 50.9324 199.23 51.0745 199.251L51.6263 199.335L51.2276 199.74C51.125 199.844 51.0778 199.994 51.1019 200.142L51.1965 200.714L50.7031 200.444C50.6395 200.409 50.5695 200.392 50.5001 200.392C50.4307 200.392 50.3607 200.409 50.2968 200.444L49.8037 200.714L49.8981 200.142C49.9227 199.995 49.8755 199.844 49.773 199.74L49.3742 199.335L49.9252 199.251ZM48.9992 200.224L48.7941 201.468C48.7658 201.639 48.8334 201.811 48.967 201.913C49.0434 201.971 49.1329 202 49.2239 202C49.2933 202 49.363 201.982 49.4269 201.948L50.5001 201.36L51.5727 201.948C51.7198 202.028 51.8975 202.015 52.0321 201.913C52.1663 201.812 52.2333 201.639 52.2056 201.468L52.0007 200.224L52.8679 199.343C52.9875 199.223 53.0298 199.042 52.9787 198.877C52.9275 198.712 52.7909 198.593 52.6265 198.568L51.4276 198.386L50.8916 197.254C50.8179 197.098 50.6663 197 50.5001 197C50.3339 197 50.1824 197.098 50.1087 197.254L49.5727 198.386L48.3734 198.568C48.2097 198.593 48.073 198.712 48.0213 198.877C47.9701 199.042 48.0127 199.223 48.1321 199.343L48.9992 200.224Z" fill="#3E3E3E"/>
</g>
</svg>
