<svg xmlns="http://www.w3.org/2000/svg" xmlns:xlink="http://www.w3.org/1999/xlink" width="1466" height="787" fill="none" xmlns:v="https://vecta.io/nano"><mask id="A" mask-type="alpha" maskUnits="userSpaceOnUse" x="0" y="0" width="1466" height="787"><path fill="#f5f7fe" d="M0 0h1466v787H0z"/></mask><g mask="url(#A)"><g filter="url(#B)"><use xlink:href="#D" fill="#fef5e5"/><use xlink:href="#D" stroke="#000"/></g><g filter="url(#C)"><use xlink:href="#E" fill="#e5e6fe"/><use xlink:href="#E" stroke="#000"/></g></g><defs><filter id="B" x="-736.5" y="-718.66" width="1390" height="2263.31" filterUnits="userSpaceOnUse" color-interpolation-filters="sRGB"><feFlood flood-opacity="0"/><feBlend in="SourceGraphic"/><feGaussianBlur stdDeviation="100"/></filter><filter id="C" x="288.5" y="-184.5" width="1390" height="2263.31" filterUnits="userSpaceOnUse" color-interpolation-filters="sRGB"><feFlood flood-opacity="0"/><feBlend in="SourceGraphic"/><feGaussianBlur stdDeviation="100"/></filter><path id="D" d="M40.557-496.953c95.863-120.639 183.68 309.221 259.087 389.485 54.875 51.052 119.829-192.147 137.747 0s23.518 739.401 0 1070.185-133.658-199.443-249.008 0-60.084 311.323-207.91 372.133-396.444-189.71-433.401-372.133c-36.956-182.418-73.913-430.506-82.872-710.214s286.303 320.729 327.739 221.008S-79.272-346.154 40.557-496.953z"/><path id="E" d="M1065.56 37.208c95.86-120.639 183.68 309.22 259.08 389.484 54.88 51.052 119.83-192.147 137.75 0s23.52 739.398 0 1070.188c-23.52 330.78-133.66-199.45-249.01 0-115.35 199.44-60.08 311.32-207.91 372.13-147.824 60.81-396.441-189.71-433.398-372.13s-73.913-430.51-82.872-710.216 286.303 320.726 327.739 221.006S945.728 188.006 1065.56 37.208z"/></defs></svg>