<svg xmlns="http://www.w3.org/2000/svg" xmlns:xlink="http://www.w3.org/1999/xlink" width="98" height="98" fill="none" xmlns:v="https://vecta.io/nano"><mask id="A" fill="#fff"><path d="M96.469 14.209l-3.761-1.253 1.773-3.545-5.892-5.892-3.545 1.773-1.253-3.761H75.46l-1.253 3.761-3.545-1.773-5.892 5.892 1.773 3.545-3.762 1.253v8.331l3.761 1.253-1.773 3.545 5.892 5.892 3.545-1.773 1.253 3.762h8.332l1.253-3.761 3.545 1.773 5.892-5.892-1.773-3.545 3.762-1.253v-8.333zm-3.063 6.125l-3.516 1.171-.257.678-.236.579-.297.663 1.655 3.311-2.77 2.77-3.311-1.655-.663.297-.579.236-.678.257-1.171 3.516h-3.918l-1.171-3.516-.678-.257-.579-.236-.663-.297-3.311 1.655-2.77-2.77 1.655-3.311-.297-.663-.236-.579-.257-.678-3.514-1.171v-3.919l3.516-1.171.257-.678.236-.579.297-.663-1.655-3.309 2.77-2.77L74.575 8.9l.663-.297.579-.236.678-.257 1.171-3.516h3.918l1.171 3.516.678.257.579.236.663.297 3.311-1.655 2.77 2.77-1.655 3.31.297.663.236.579.257.678 3.514 1.171v3.917z"/></mask><path d="M96.469 14.209l-3.761-1.253 1.773-3.545-5.892-5.892-3.545 1.773-1.253-3.761H75.46l-1.253 3.761-3.545-1.773-5.892 5.892 1.773 3.545-3.762 1.253v8.331l3.761 1.253-1.773 3.545 5.892 5.892 3.545-1.773 1.253 3.762h8.332l1.253-3.761 3.545 1.773 5.892-5.892-1.773-3.545 3.762-1.253v-8.333zm-3.063 6.125l-3.516 1.171-.257.678-.236.579-.297.663 1.655 3.311-2.77 2.77-3.311-1.655-.663.297-.579.236-.678.257-1.171 3.516h-3.918l-1.171-3.516-.678-.257-.579-.236-.663-.297-3.311 1.655-2.77-2.77 1.655-3.311-.297-.663-.236-.579-.257-.678-3.514-1.171v-3.919l3.516-1.171.257-.678.236-.579.297-.663-1.655-3.309 2.77-2.77L74.575 8.9l.663-.297.579-.236.678-.257 1.171-3.516h3.918l1.171 3.516.678.257.579.236.663.297 3.311-1.655 2.77 2.77-1.655 3.31.297.663.236.579.257.678 3.514 1.171v3.917z" fill="#f37021"/><path d="M96.469 14.209h8V8.441l-5.472-1.823-2.528 7.59zm-3.761-1.253l-7.155-3.579-4.128 8.253 8.755 2.916 2.528-7.59zm1.773-3.545l7.155 3.579 2.58-5.158-4.078-4.078-5.657 5.657zm-5.892-5.892l5.657-5.657-4.078-4.078-5.158 2.58 3.579 7.155zm-3.545 1.773l-7.59 2.528 2.916 8.755 8.253-4.128-3.579-7.155zm-1.253-3.761l7.59-2.528-1.823-5.472h-5.768v8zm-8.332 0v-8h-5.768L67.87-.997l7.59 2.528zm-1.253 3.761l-3.579 7.155 8.253 4.128 2.916-8.755-7.59-2.528zm-3.545-1.773l3.579-7.155-5.158-2.58-4.078 4.078 5.657 5.657zM64.77 9.411l-5.657-5.657-4.078 4.078 2.58 5.158 7.155-3.579zm1.773 3.545l2.527 7.59 8.757-2.915-4.129-8.254-7.155 3.579zm-3.762 1.253l-2.527-7.59-5.473 1.822v5.768h8zm0 8.331h-8v5.768l5.472 1.822 2.528-7.59zm3.761 1.253l7.155 3.579 4.128-8.253-8.755-2.916-2.528 7.59zm-1.773 3.545l-7.155-3.579-2.58 5.158 4.078 4.078 5.657-5.657zm5.892 5.892l-5.657 5.657 4.078 4.078 5.158-2.58-3.579-7.155zm3.545-1.773l7.59-2.527-2.915-8.757-8.254 4.129 3.579 7.155zm1.253 3.762l-7.59 2.527 1.822 5.473h5.768v-8zm8.332 0v8h5.768l1.823-5.472-7.59-2.528zm1.253-3.761l3.579-7.155-8.253-4.128-2.916 8.755 7.59 2.528zm3.545 1.773l-3.579 7.155 5.158 2.58 4.078-4.078-5.657-5.657zm5.892-5.892l5.657 5.657 4.077-4.078-2.58-5.158-7.154 3.579zm-1.773-3.545l-2.527-7.59-8.757 2.915 4.129 8.254 7.155-3.579zm3.762-1.253l2.527 7.59 5.473-1.822v-5.768h-8zm-3.063-2.208l2.529 7.59 5.471-1.823v-5.767h-8zm-3.516 1.171l-2.529-7.59-3.604 1.201-1.347 3.552 7.48 2.837zm-.257.678l7.479 2.841.001-.004-7.48-2.837zm-.236.579l7.301 3.271.017-.038.017-.039-7.335-3.194zm-.297.663L81.8 20.154l-1.55 3.459 1.695 3.39 7.155-3.578zm1.655 3.311l5.657 5.657 4.078-4.077-2.579-5.157-7.155 3.578zm-2.77 2.77l-3.578 7.155 5.157 2.579 4.077-4.077-5.657-5.657zm-3.311-1.655l3.578-7.155L84.863 19l-3.459 1.55 3.271 7.301zm-.663.297l3.244 7.313.014-.006.014-.006-3.271-7.301zm-.579.236l2.837 7.48.004-.002-2.841-7.479zm-.678.257l-2.837-7.48-3.552 1.347-1.201 3.604 7.59 2.529zm-1.171 3.516v8h5.767l1.823-5.471-7.59-2.529zm-3.918 0l-7.59 2.529 1.823 5.471h5.767v-8zm-1.171-3.516l7.59-2.529-1.201-3.604-3.552-1.347-2.837 7.48zm-.678-.257l-2.841 7.479.004.002 2.837-7.48zm-.579-.236l-3.271 7.301.038.017.038.017 3.194-7.335zm-.663-.297l3.271-7.301L74.386 19l-3.39 1.695 3.578 7.155zm-3.311 1.655l-5.657 5.657 4.077 4.077 5.157-2.579-3.578-7.155zm-2.77-2.77l-7.155-3.578-2.579 5.157 4.077 4.077 5.657-5.657zm1.655-3.311l7.155 3.578 1.695-3.39-1.55-3.459-7.301 3.271zm-.297-.663l-7.313 3.244.006.014.006.014 7.301-3.271zm-.236-.579l-7.48 2.837.002.004 7.479-2.841zm-.257-.678l7.48-2.837-1.347-3.551-3.603-1.201-2.53 7.589zm-3.514-1.171h-8V26.1l5.47 1.823 2.53-7.589zm0-3.919l-2.529-7.59-5.471 1.823v5.767h8zm3.516-1.171l2.529 7.59 3.604-1.201 1.347-3.552-7.48-2.837zm.257-.678l-7.479-2.841-.002.004 7.48 2.837zm.236-.579l-7.301-3.271-.017.038-.017.038 7.335 3.194zm.297-.663l7.301 3.271 1.55-3.46-1.696-3.39-7.155 3.579zm-1.655-3.309l-5.657-5.657-4.078 4.078 2.58 5.158 7.155-3.579zm2.77-2.77L74.842.089 69.685-2.49l-4.077 4.077 5.657 5.657zM74.575 8.9l-3.578 7.155 3.39 1.695 3.459-1.55L74.575 8.9zm.663-.297L71.994 1.29l-.014.006-.014.006 3.271 7.301zm.579-.236L72.98.887l-.004.002 2.841 7.479zm.678-.257l2.837 7.48 3.552-1.347 1.201-3.604-7.59-2.529zm1.171-3.516v-8H71.9l-1.823 5.471 7.59 2.529zm3.918 0l7.59-2.529-1.823-5.471h-5.767v8zm1.171 3.516l-7.59 2.529 1.201 3.604 3.552 1.347 2.837-7.48zm.678.257L86.276.888l-.004-.002-2.837 7.48zm.579.236l3.271-7.301-.038-.017-.038-.017-3.194 7.335zm.663.297L81.406 16.2l3.459 1.55 3.39-1.695L84.677 8.9zm3.311-1.655l5.657-5.657-4.077-4.077L84.409.089l3.578 7.155zm2.77 2.77l7.155 3.578 2.578-5.157-4.077-4.077-5.657 5.657zm-1.655 3.31l-7.155-3.578-1.695 3.39 1.55 3.459 7.301-3.271zm.297.663l7.313-3.244-.006-.014-.006-.014-7.301 3.271zm.236.579l7.48-2.837-.002-.004-7.479 2.841zm.257.678l-7.48 2.837 1.347 3.552 3.603 1.201 2.53-7.589zm3.514 1.171h8v-5.766l-5.47-1.823-2.53 7.589zm5.591-9.798l-3.761-1.253-5.056 15.18 3.761 1.253 5.056-15.18zm.866 9.917l1.773-3.545-14.31-7.158-1.773 3.545 14.31 7.158zm.275-12.781l-5.892-5.892L82.932 9.176l5.892 5.892 11.314-11.314zM85.01-3.636l-3.545 1.773 7.158 14.31 3.545-1.773-7.158-14.31zm7.624 6.4L91.382-.997l-15.18 5.056 1.253 3.761 15.18-5.056zm-8.843-9.233H75.46v16h8.332v-16zM67.87-.997l-1.252 3.761 15.18 5.056 1.253-3.761L67.87-.997zm9.917-.866l-3.545-1.773-7.158 14.31 3.545 1.773 7.158-14.31zm-12.781-.275l-5.892 5.892 11.314 11.314 5.892-5.892L65.006-2.138zm-7.39 15.128l1.773 3.545 14.31-7.158-1.773-3.545-14.31 7.158zm6.401-7.624l-3.762 1.253 5.054 15.181 3.762-1.253-5.054-15.181zm-9.235 8.843v8.331h16v-8.331h-16zm5.472 15.922l3.761 1.253 5.056-15.18-3.761-1.253-5.056 15.18zm-.866-9.916l-1.773 3.545 14.31 7.158 1.773-3.545-14.31-7.158zm-.275 12.781l5.892 5.892 11.314-11.314-5.892-5.892-11.314 11.314zm15.128 7.39l3.545-1.773-7.158-14.31-3.545 1.773 7.158 14.31zm-7.624-6.401l1.253 3.762 15.181-5.054-1.253-3.762-15.181 5.054zm8.843 9.235h8.332v-16h-8.332v16zm15.922-5.472l1.252-3.761-15.18-5.056-1.253 3.761 15.18 5.056zm-9.916.866l3.545 1.773 7.158-14.31-3.545-1.773-7.158 14.31zm12.781.275l5.893-5.892-11.314-11.314-5.892 5.892 11.314 11.314zm7.39-15.128l-1.773-3.545-14.31 7.158 1.773 3.545 14.309-7.158zm-6.4 7.624l3.762-1.253-5.054-15.181-3.762 1.253 5.054 15.181zm9.235-8.843v-8.333h-16v8.333h16zm-13.592-9.798l-3.516 1.171 5.058 15.18 3.516-1.171-5.058-15.18zm-8.467 5.924l-.257.678 14.96 5.673.257-.678-14.96-5.673zm-.256.674l-.092.225 14.669 6.388.38-.932-14.957-5.681zm-.058.148l-.297.663 14.602 6.542.297-.663-14.602-6.542zm-.152 7.512l1.655 3.311 14.311-7.155-1.655-3.311-14.311 7.156zm3.154-5.924l-2.77 2.77 11.314 11.314 2.77-2.77-11.314-11.314zm6.465 1.271l-3.311-1.655-7.155 14.311 3.311 1.655 7.155-14.311zm-10.159-1.8l-.663.297 6.542 14.602.663-.297-6.542-14.601zm-.636.285l-.176.07 5.681 14.957.982-.401-6.487-14.626zm-.172.069l-.678.257 5.674 14.96.678-.257-5.673-14.96zm-5.431 5.209l-1.171 3.516 15.18 5.058 1.171-3.516-15.18-5.058zm6.418-1.956h-3.918v16h3.918v-16zm3.671 5.471l-1.171-3.516-15.18 5.058 1.171 3.516 15.18-5.058zM79.33 21.16l-.678-.257-5.674 14.96.678.257 5.673-14.96zm-.674-.256l-.225-.092-6.388 14.669.932.38 5.682-14.957zm-.149-.058l-.663-.297-6.542 14.601.663.297 6.542-14.602zm-7.512-.152l-3.311 1.655 7.155 14.311 3.311-1.655-7.155-14.311zm5.924 3.154l-2.77-2.77-11.314 11.314 2.77 2.77L76.92 23.849zm-1.272 6.465l1.655-3.311-14.311-7.155-1.655 3.311 14.311 7.155zm1.801-10.159l-.297-.663-14.601 6.542.297.663 14.601-6.542zm-.285-.636l-.07-.176-14.957 5.681.401.982 14.626-6.487zm-.069-.172l-.257-.678-14.96 5.674.257.678 14.96-5.674zm-5.208-5.431l-3.514-1.171-5.06 15.179 3.514 1.171 5.06-15.179zm1.956 6.418v-3.919h-16v3.919h16zm-5.471 3.671l3.516-1.171-5.058-15.18-3.516 1.171 5.058 15.18zm8.467-5.924l.257-.678-14.96-5.674-.257.678 14.96 5.673zm.256-.674l.092-.225-14.669-6.388-.38.932 14.957 5.681zm.058-.149l.297-.663-14.601-6.542-.297.663 14.602 6.542zm.151-7.513l-1.655-3.309-14.31 7.158 1.655 3.309 14.31-7.158zm-3.153 5.927l2.77-2.77L65.608 1.587l-2.77 2.77 11.314 11.314zM67.687 14.4l3.311 1.655 7.155-14.311L74.842.089 67.687 14.4zm10.159 1.8l.663-.297-6.542-14.601-.663.297L77.846 16.2zm.636-.285l.176-.07L72.976.888l-.982.402 6.487 14.626zm.172-.069l.678-.257L73.658.629l-.678.257 5.673 14.96zm5.431-5.209l1.171-3.516-15.18-5.058-1.171 3.516 15.18 5.058zm-6.418 1.956h3.918v-16h-3.918v16zm-3.671-5.471l1.171 3.516 15.18-5.058-1.171-3.516-15.18 5.058zm5.925 8.467l.678.257L86.272.887l-.678-.257-5.673 14.96zm.674.256l.225.092 6.388-14.669-.932-.38-5.681 14.957zm.149.058l.663.297 6.542-14.601-.663-.297-6.542 14.601zm7.512.152l3.311-1.655L84.409.089l-3.311 1.655 7.155 14.311zm-5.924-3.154l2.77 2.77L96.414 4.358l-2.77-2.77L82.33 12.901zm1.272-6.465l-1.655 3.311 14.311 7.155 1.655-3.31-14.311-7.155zm-1.801 10.159l.297.663L96.7 10.717l-.297-.663-14.601 6.542zm.285.636l.07.176 14.957-5.681-.401-.982-14.626 6.487zm.069.172l.257.678 14.96-5.674-.257-.678-14.96 5.674zm5.208 5.431l3.514 1.171 5.06-15.179-3.514-1.171-5.06 15.179zm-1.956-6.418v3.917h16v-3.917h-16z" fill="url(#H)" mask="url(#A)"/><mask id="B" fill="#fff"><path d="M79.625 10.719c-4.222 0-7.656 3.435-7.656 7.656s3.435 7.656 7.656 7.656 7.656-3.434 7.656-7.656-3.434-7.656-7.656-7.656zm0 12.25a4.6 4.6 0 0 1-4.594-4.594 4.6 4.6 0 0 1 4.594-4.594 4.6 4.6 0 0 1 4.594 4.594 4.6 4.6 0 0 1-4.594 4.594z"/></mask><use xlink:href="#O" fill="#f37021"/><path d="M79.625 2.719c-8.64 0-15.656 7.016-15.656 15.656h16a.39.39 0 0 1-.031.144c-.02.046-.044.079-.067.102s-.056.047-.102.067a.39.39 0 0 1-.144.031v-16zM63.969 18.375c0 8.64 7.016 15.656 15.656 15.656v-16a.39.39 0 0 1 .144.031c.046.02.079.044.102.067s.047.056.067.102a.39.39 0 0 1 .031.144h-16zm15.656 15.656c8.64 0 15.656-7.016 15.656-15.656h-16a.39.39 0 0 1 .031-.144c.02-.046.044-.079.067-.102s.056-.047.102-.067a.39.39 0 0 1 .144-.031v16zm15.656-15.656c0-8.64-7.016-15.656-15.656-15.656v16a.39.39 0 0 1-.144-.031c-.046-.02-.079-.044-.102-.067s-.047-.056-.067-.102a.39.39 0 0 1-.031-.144h16zm-15.656-3.406a3.4 3.4 0 0 1 3.406 3.406h-16c0 6.951 5.643 12.594 12.594 12.594v-16zm3.406 3.406a3.4 3.4 0 0 1-3.406 3.406v-16c-6.951 0-12.594 5.643-12.594 12.594h16zm-3.406 3.406a3.4 3.4 0 0 1-3.406-3.406h16c0-6.951-5.643-12.594-12.594-12.594v16zm-3.406-3.406a3.4 3.4 0 0 1 3.406-3.406v16c6.951 0 12.594-5.643 12.594-12.594h-16z" fill="url(#I)" mask="url(#B)"/><mask id="C" fill="#fff"><path d="M33.231 70.661l-5.892-5.892-3.545 1.773-1.253-3.761h-8.333l-1.253 3.761-3.545-1.773-5.892 5.892 1.773 3.545-3.761 1.253v8.332l3.761 1.253-1.773 3.545 5.892 5.892 3.545-1.773 1.253 3.762h8.331l1.253-3.761 3.545 1.773 5.892-5.892-1.773-3.545 3.762-1.253V75.46l-3.761-1.253 1.773-3.546zm-1.075 7.005v3.918l-3.516 1.171-.257.678-.236.579-.297.663 1.655 3.311-2.77 2.77-3.311-1.655-.663.297-.579.236-.678.257-1.171 3.514h-3.919l-1.171-3.516-.678-.257-.579-.236-.663-.297-3.309 1.655-2.77-2.77L8.9 84.675l-.297-.663-.236-.579-.257-.678-3.516-1.171v-3.918l3.516-1.171.257-.678.236-.579.297-.663-1.655-3.309 2.77-2.77 3.31 1.655.663-.297.579-.236.678-.257 1.171-3.516h3.919l1.171 3.516.678.257.579.236.663.297 3.311-1.655 2.77 2.77-1.655 3.311.297.663.236.579.257.678 3.514 1.171z"/></mask><path d="M33.231 70.661l-5.892-5.892-3.545 1.773-1.253-3.761h-8.333l-1.253 3.761-3.545-1.773-5.892 5.892 1.773 3.545-3.761 1.253v8.332l3.761 1.253-1.773 3.545 5.892 5.892 3.545-1.773 1.253 3.762h8.331l1.253-3.761 3.545 1.773 5.892-5.892-1.773-3.545 3.762-1.253V75.46l-3.761-1.253 1.773-3.546zm-1.075 7.005v3.918l-3.516 1.171-.257.678-.236.579-.297.663 1.655 3.311-2.77 2.77-3.311-1.655-.663.297-.579.236-.678.257-1.171 3.514h-3.919l-1.171-3.516-.678-.257-.579-.236-.663-.297-3.309 1.655-2.77-2.77L8.9 84.675l-.297-.663-.236-.579-.257-.678-3.516-1.171v-3.918l3.516-1.171.257-.678.236-.579.297-.663-1.655-3.309 2.77-2.77 3.31 1.655.663-.297.579-.236.678-.257 1.171-3.516h3.919l1.171 3.516.678.257.579.236.663.297 3.311-1.655 2.77 2.77-1.655 3.311.297.663.236.579.257.678 3.514 1.171z" fill="#f37021"/><path d="M33.231 70.661l7.155 3.578 2.579-5.157-4.077-4.077-5.657 5.657zm-5.892-5.892l5.657-5.657-4.078-4.078-5.158 2.58 3.579 7.155zm-3.545 1.773l-7.59 2.528 2.916 8.755 8.253-4.128-3.579-7.155zm-1.253-3.761l7.59-2.528-1.822-5.472h-5.768v8zm-8.333 0v-8H8.441l-1.823 5.472 7.59 2.528zm-1.253 3.761l-3.579 7.155 8.253 4.128 2.916-8.755-7.59-2.528zm-3.545-1.773l3.579-7.155-5.158-2.58-4.078 4.078 5.657 5.657zm-5.892 5.892l-5.657-5.657-4.078 4.078 2.58 5.158 7.155-3.579zm1.773 3.545l2.528 7.59 8.755-2.916-4.128-8.253-7.155 3.579zm-3.761 1.253l-2.528-7.59-5.472 1.823v5.768h8zm0 8.332h-8v5.768l5.472 1.823 2.528-7.59zm3.761 1.253l7.155 3.579 4.128-8.253-8.755-2.916-2.528 7.59zm-1.773 3.545l-7.155-3.579-2.58 5.158 4.078 4.078 5.657-5.657zm5.892 5.892l-5.657 5.657 4.078 4.077 5.158-2.58-3.579-7.154zm3.545-1.773l7.59-2.527-2.915-8.757-8.254 4.129 3.579 7.155zm1.253 3.762l-7.59 2.527 1.822 5.473h5.768v-8zm8.331 0v8h5.768l1.822-5.472-7.59-2.528zm1.253-3.761l3.579-7.155-8.253-4.128-2.916 8.755 7.59 2.528zm3.545 1.773l-3.579 7.155 5.158 2.58 4.078-4.078-5.657-5.657zm5.892-5.892l5.657 5.657 4.078-4.078-2.58-5.158-7.155 3.579zm-1.773-3.545l-2.527-7.59-8.757 2.915 4.129 8.254 7.155-3.579zm3.762-1.253l2.527 7.59 5.473-1.822v-5.768h-8zm0-8.332h8v-5.768l-5.472-1.823-2.528 7.59zm-3.761-1.253l-7.155-3.578-4.126 8.252 8.754 2.915 2.528-7.59zm.698 3.459h8v-5.766l-5.47-1.823-2.53 7.589zm0 3.918l2.529 7.59 5.471-1.823v-5.767h-8zm-3.516 1.171l-2.529-7.59-3.604 1.201-1.347 3.552 7.48 2.837zm-.257.678l7.479 2.841.002-.004-7.48-2.837zm-.236.579l7.301 3.271.017-.038.017-.038-7.335-3.194zm-.297.663l-7.301-3.271L19 84.864l1.695 3.39 7.155-3.578zm1.655 3.311l5.657 5.657 4.077-4.077-2.579-5.157-7.155 3.578zm-2.77 2.77l-3.578 7.155 5.157 2.578 4.077-4.077-5.657-5.657zm-3.311-1.655l3.578-7.155-3.39-1.695-3.459 1.55 3.271 7.301zm-.663.297l3.244 7.313.014-.006.014-.006-3.271-7.301zm-.579.236l2.837 7.48.004-.002-2.841-7.479zm-.678.257l-2.837-7.48-3.551 1.347-1.201 3.603 7.589 2.53zm-1.171 3.514v8H26.1l1.823-5.47-7.589-2.53zm-3.919 0l-7.59 2.529 1.823 5.471h5.767v-8zm-1.171-3.516l7.59-2.529-1.201-3.604-3.552-1.347-2.837 7.48zm-.678-.257l-2.841 7.479.004.001 2.837-7.48zm-.579-.236l-3.271 7.301.038.017.038.017 3.194-7.335zm-.663-.297l3.271-7.301-3.46-1.55-3.39 1.696 3.579 7.155zm-3.309 1.655l-5.657 5.657 4.078 4.079 5.158-2.581-3.579-7.155zm-2.77-2.77L.089 84.408-2.49 89.565l4.077 4.077 5.657-5.657zM8.9 84.675l7.155 3.578 1.695-3.39-1.55-3.459L8.9 84.675zm-.297-.663L1.29 87.256l.006.014.006.014 7.301-3.271zm-.236-.579L.887 86.27l.002.004 7.479-2.841zm-.257-.678l7.48-2.837-1.347-3.552-3.604-1.201-2.529 7.59zm-3.516-1.171h-8v5.767l5.471 1.823 2.529-7.59zm0-3.918l-2.529-7.59-5.471 1.823v5.767h8zm3.516-1.171l2.529 7.59 3.604-1.201 1.347-3.552-7.48-2.837zm.257-.678L.888 72.975l-.002.004 7.48 2.837zm.236-.579l-7.301-3.271-.017.038-.017.038 7.335 3.194zm.297-.663l7.301 3.271 1.55-3.46-1.696-3.39L8.9 74.573zm-1.655-3.309l-5.657-5.657-4.078 4.078 2.58 5.158 7.155-3.579zm2.77-2.77l3.578-7.155-5.157-2.579-4.077 4.077 5.657 5.657zm3.31 1.655l-3.578 7.155L13.137 79l3.459-1.55-3.271-7.301zm.663-.297l-3.244-7.313-.014.006-.014.006 3.271 7.301zm.579-.236l-2.837-7.48-.004.002 2.841 7.479zm.678-.257l2.837 7.48 3.552-1.347 1.201-3.604-7.59-2.529zm1.171-3.516v-8H10.65l-1.823 5.471 7.59 2.529zm3.919 0l7.59-2.529-1.823-5.471h-5.767v8zm1.171 3.516l-7.59 2.529 1.201 3.604 3.552 1.347 2.837-7.48zm.678.257l2.841-7.479-.004-.002-2.837 7.48zm.579.236l3.271-7.301-.038-.017-.039-.017-3.194 7.335zm.663.297l-3.271 7.301L23.614 79l3.39-1.695-3.578-7.155zm3.311-1.655l5.657-5.657-4.077-4.077-5.157 2.579 3.578 7.155zm2.77 2.77l7.155 3.578 2.579-5.157-4.077-4.077-5.657 5.657zm-1.655 3.311l-7.155-3.578-1.695 3.39 1.55 3.459 7.301-3.271zm.297.663l7.313-3.244-.006-.014-.006-.014-7.301 3.271zm.236.579l7.48-2.837-.002-.004-7.479 2.841zm.257.678l-7.48 2.837 1.347 3.552 3.604 1.201 2.53-7.59zm10.246-11.491l-5.892-5.892-11.314 11.314 5.892 5.892 11.314-11.314zm-15.128-7.39l-3.545 1.773 7.158 14.31 3.545-1.773-7.158-14.31zm7.624 6.4l-1.253-3.761-15.18 5.056 1.253 3.761 15.18-5.056zm-8.843-9.233h-8.333v16h8.333v-16zM6.618 60.253l-1.253 3.761 15.18 5.056 1.253-3.761-15.18-5.056zm9.917-.866l-3.545-1.773-7.158 14.31 3.545 1.773 7.158-14.31zm-12.781-.275l-5.892 5.892L9.176 76.318l5.892-5.892L3.754 59.112zm-7.39 15.128l1.773 3.545 14.31-7.158-1.773-3.545-14.31 7.158zm6.4-7.624l-3.761 1.253 5.056 15.18 3.761-1.253-5.056-15.18zm-9.233 8.843v8.332h16v-8.332h-16zM-.997 91.38l3.761 1.252 5.056-15.18L4.059 76.2-.997 91.38zm-.866-9.916l-1.773 3.545 14.31 7.158 1.773-3.545-14.31-7.158zm-.275 12.781l5.892 5.893 11.314-11.314-5.892-5.892-11.314 11.314zm15.128 7.39l3.545-1.773-7.158-14.31-3.545 1.773 7.158 14.309zm-7.624-6.4l1.253 3.762 15.181-5.054-1.253-3.762-15.181 5.054zm8.843 9.235h8.331v-16h-8.331v16zm15.922-5.472l1.253-3.761-15.18-5.056-1.253 3.761 15.18 5.056zm-9.916.866l3.545 1.773 7.158-14.31-3.545-1.773-7.158 14.31zm12.781.275l5.892-5.892-11.314-11.314-5.892 5.892 11.314 11.314zm7.39-15.128l-1.773-3.545-14.31 7.158 1.773 3.545 14.31-7.158zm-6.401 7.624l3.762-1.253-5.054-15.181-3.762 1.253 5.054 15.181zm9.235-8.843V75.46h-16v8.332h16zM37.747 67.87l-3.761-1.252-5.056 15.18 3.761 1.253 5.056-15.18zm.867 9.915l1.773-3.546-14.311-7.155-1.773 3.546 14.311 7.155zm-14.457-.119v3.918h16v-3.918h-16zm5.471-3.671l-3.516 1.171 5.058 15.18 3.516-1.171-5.058-15.18zM21.16 79.92l-.257.678 14.96 5.674.257-.678-14.96-5.673zm-.256.674l-.092.225 14.669 6.388.38-.932-14.957-5.681zm-.058.149l-.297.663 14.601 6.542.297-.663-14.602-6.542zm-.152 7.512l1.655 3.311 14.311-7.155-1.655-3.311-14.311 7.155zm3.154-5.924l-2.77 2.77 11.314 11.314 2.77-2.77L23.849 82.33zm6.465 1.272l-3.311-1.655-7.155 14.311 3.311 1.655 7.155-14.311zm-10.159-1.801l-.663.297L26.033 96.7l.663-.297-6.542-14.601zm-.636.285l-.176.07 5.681 14.957.982-.401-6.487-14.626zm-.172.069l-.678.257 5.674 14.96.678-.257-5.674-14.96zm-5.431 5.208l-1.171 3.514 15.179 5.06 1.171-3.514-15.179-5.06zm6.418-1.956h-3.919v16h3.919v-16zm3.671 5.471l-1.171-3.516-15.18 5.058 1.171 3.516 15.18-5.058zM18.08 82.41l-.678-.257-5.674 14.96.678.257 5.673-14.96zm-.674-.256l-.225-.092-6.388 14.669.932.38 5.681-14.957zm-.149-.058l-.663-.297-6.542 14.601.663.297 6.542-14.602zm-7.513-.151l-3.309 1.655 7.158 14.31 3.309-1.655-7.158-14.309zm5.927 3.153l-2.77-2.77L1.587 93.643l2.77 2.77 11.314-11.314zM14.4 91.563l1.655-3.311-14.311-7.155-1.655 3.311L14.4 91.563zm1.8-10.159l-.297-.663-14.601 6.542.297.663L16.2 81.404zm-.285-.636l-.07-.176L.888 86.274l.402.982 14.626-6.487zm-.069-.172l-.257-.678-14.96 5.674.257.678 14.96-5.673zm-5.209-5.431l-3.516-1.171-5.058 15.18 3.516 1.171 5.058-15.18zm1.956 6.418v-3.918h-16v3.918h16zm-5.471 3.671l3.516-1.171-5.058-15.18-3.516 1.171 5.058 15.18zm8.467-5.925l.257-.678-14.96-5.674-.257.678 14.96 5.673zm.256-.674l.092-.225-14.669-6.388-.38.932 14.957 5.682zm.058-.149l.297-.663-14.601-6.542-.297.663 14.601 6.542zm.151-7.513l-1.655-3.309L.09 74.843l1.655 3.309 14.31-7.158zm-3.153 5.927l2.77-2.77L4.358 62.838l-2.77 2.77 11.314 11.314zM6.437 75.65l3.311 1.655 7.155-14.311-3.31-1.655L6.437 75.65zm10.159 1.801l.663-.297-6.542-14.602-.663.297 6.542 14.602zm.636-.285l.176-.07-5.681-14.957-.982.401 6.487 14.626zm.172-.069l.678-.257-5.673-14.96-.678.257 5.673 14.96zm5.431-5.209l1.171-3.516-15.18-5.058-1.171 3.516 15.18 5.058zm-6.418 1.956h3.919v-16h-3.919v16zm-3.671-5.471l1.171 3.516 15.18-5.058-1.171-3.516-15.18 5.058zm5.924 8.467l.678.257 5.674-14.96-.678-.257-5.673 14.96zm.674.256l.225.092 6.388-14.669-.932-.38-5.681 14.957zm.149.058l.663.297 6.542-14.601-.663-.297-6.542 14.602zm7.512.152l3.311-1.655-7.155-14.311-3.311 1.655 7.155 14.311zm-5.924-3.154l2.77 2.77 11.314-11.314-2.77-2.77L21.08 74.151zm1.271-6.465l-1.655 3.311 14.311 7.155 1.655-3.311-14.311-7.155zm-1.801 10.159l.297.663 14.602-6.542-.297-.663-14.601 6.542zm.285.636l.07.176 14.957-5.681-.401-.982-14.626 6.487zm.069.172l.257.678 14.96-5.673-.257-.678-14.96 5.673zm5.208 5.431l3.514 1.171 5.06-15.179-3.514-1.171-5.06 15.179z" fill="url(#J)" mask="url(#C)"/><mask id="D" fill="#fff"><path d="M18.375 71.969c-4.222 0-7.656 3.435-7.656 7.656s3.435 7.656 7.656 7.656 7.656-3.434 7.656-7.656-3.434-7.656-7.656-7.656zm0 12.25a4.6 4.6 0 0 1-4.594-4.594 4.6 4.6 0 0 1 4.594-4.594 4.6 4.6 0 0 1 4.594 4.594 4.6 4.6 0 0 1-4.594 4.594z"/></mask><use xlink:href="#O" x="-61.25" y="61.25" fill="#f37021"/><path d="M18.375 63.969c-8.64 0-15.656 7.016-15.656 15.656h16a.39.39 0 0 1-.031.144c-.02.046-.044.079-.067.102s-.056.047-.102.067a.39.39 0 0 1-.144.031v-16zM2.719 79.625c0 8.64 7.016 15.656 15.656 15.656v-16a.39.39 0 0 1 .144.031c.046.02.079.044.102.067s.047.056.067.102a.39.39 0 0 1 .031.144h-16zm15.656 15.656c8.64 0 15.656-7.016 15.656-15.656h-16a.39.39 0 0 1 .031-.144c.02-.046.044-.079.067-.102s.056-.047.102-.067a.39.39 0 0 1 .144-.031v16zm15.656-15.656c0-8.64-7.016-15.656-15.656-15.656v16a.39.39 0 0 1-.144-.031c-.046-.02-.079-.044-.102-.067s-.047-.056-.067-.102a.39.39 0 0 1-.031-.144h16zm-15.656-3.406a3.4 3.4 0 0 1 3.406 3.406h-16c0 6.951 5.643 12.594 12.594 12.594v-16zm3.406 3.406a3.4 3.4 0 0 1-3.406 3.406v-16c-6.951 0-12.594 5.643-12.594 12.594h16zm-3.406 3.406a3.4 3.4 0 0 1-3.406-3.406h16c0-6.951-5.643-12.594-12.594-12.594v16zm-3.406-3.406a3.4 3.4 0 0 1 3.406-3.406v16c6.951 0 12.594-5.643 12.594-12.594h-16z" fill="url(#K)" mask="url(#D)"/><mask id="E" fill="#fff"><path d="M42.876 58.57v4.211a4.6 4.6 0 0 0 4.594 4.594h3.063a4.6 4.6 0 0 0 4.594-4.594v-4.274c0-1.041.493-1.98 1.32-2.511 3.967-2.551 6.336-6.885 6.336-11.59a13.8 13.8 0 0 0-4.603-10.281c-2.922-2.611-6.849-3.86-10.778-3.41-6.205.701-11.278 5.701-12.066 11.886-.684 5.375 1.712 10.515 6.254 13.417.795.507 1.288 1.485 1.288 2.553zm9.188 4.211a1.53 1.53 0 0 1-1.531 1.531h-3.062a1.53 1.53 0 0 1-1.531-1.531V61.25h6.125v1.531zm-4.594-18.375a1.53 1.53 0 1 1 3.063 0 1.53 1.53 0 1 1-3.062 0zm-9.096-1.418c.611-4.802 4.554-8.685 9.371-9.229.426-.049.85-.074 1.269-.074a10.59 10.59 0 0 1 7.123 2.723 10.74 10.74 0 0 1 3.582 7.998 10.68 10.68 0 0 1-4.929 9.014c-1.62 1.041-2.609 2.807-2.707 4.767h-1.551v-9.469c1.778-.634 3.063-2.318 3.063-4.312a4.6 4.6 0 0 0-4.594-4.594 4.6 4.6 0 0 0-4.594 4.594c0 1.994 1.285 3.678 3.063 4.312v9.469h-1.554c-.113-1.978-1.089-3.735-2.678-4.751-3.534-2.257-5.398-6.26-4.863-10.448z"/></mask><path d="M42.876 58.57v4.211a4.6 4.6 0 0 0 4.594 4.594h3.063a4.6 4.6 0 0 0 4.594-4.594v-4.274c0-1.041.493-1.98 1.32-2.511 3.967-2.551 6.336-6.885 6.336-11.59a13.8 13.8 0 0 0-4.603-10.281c-2.922-2.611-6.849-3.86-10.778-3.41-6.205.701-11.278 5.701-12.066 11.886-.684 5.375 1.712 10.515 6.254 13.417.795.507 1.288 1.485 1.288 2.553zm9.188 4.211a1.53 1.53 0 0 1-1.531 1.531h-3.062a1.53 1.53 0 0 1-1.531-1.531V61.25h6.125v1.531zm-4.594-18.375a1.53 1.53 0 1 1 3.063 0 1.53 1.53 0 1 1-3.062 0zm-9.096-1.418c.611-4.802 4.554-8.685 9.371-9.229.426-.049.85-.074 1.269-.074a10.59 10.59 0 0 1 7.123 2.723 10.74 10.74 0 0 1 3.582 7.998 10.68 10.68 0 0 1-4.929 9.014c-1.62 1.041-2.609 2.807-2.707 4.767h-1.551v-9.469c1.778-.634 3.063-2.318 3.063-4.312a4.6 4.6 0 0 0-4.594-4.594 4.6 4.6 0 0 0-4.594 4.594c0 1.994 1.285 3.678 3.063 4.312v9.469h-1.554c-.113-1.978-1.089-3.735-2.678-4.751-3.534-2.257-5.398-6.26-4.863-10.448z" fill="#f37021"/><path d="M56.446 55.996l4.325 6.73.002-.001-4.327-6.729zm1.733-21.871l-5.331 5.965.001.001 5.329-5.967zM47.4 30.715l.899 7.949.012-.001-.911-7.948zM35.334 42.601l-7.936-1.012v.001l7.936 1.011zm6.254 13.417l-4.307 6.742.005.004 4.302-6.745zm4.35 5.232v-8h-8v8h8zm6.125 0h8v-8h-8v8zm-4.318-27.491l.897 7.95.009-.001.009-.001-.915-7.948zm8.393 2.649l-5.331 5.965h0l5.331-5.965zM54.79 53.421l4.325 6.73.002-.001-4.328-6.728zm-2.707 4.767v8h7.61l.38-7.6-7.99-.399zm-1.551 0h-8v8h8v-8zm0-9.469l-2.687-7.535-5.313 1.895v5.641h8zm-3.062 0h8v-5.641l-5.313-1.895-2.687 7.535zm0 9.469v8h8v-8h-8zm-1.554 0l-7.987.457.432 7.543h7.555v-8zm-2.678-4.751l4.311-6.739-.005-.003-4.306 6.742zm-8.361 5.134v4.211h16V58.57h-16zm0 4.211c0 6.951 5.643 12.594 12.594 12.594v-16a3.4 3.4 0 0 1 3.406 3.406h-16zm12.594 12.594h3.063v-16h-3.062v16zm3.063 0c6.951 0 12.594-5.643 12.594-12.594h-16a3.4 3.4 0 0 1 3.406-3.406v16zm12.594-12.594v-4.274h-16v4.274h16zm0-4.274c0 1.484-.731 3.175-2.355 4.219l-8.65-13.461c-3.278 2.107-4.995 5.675-4.995 9.242h16zm-2.353 4.218c6.251-4.019 10.01-10.884 10.01-18.319h-16c0 1.976-.979 3.778-2.663 4.861l8.654 13.458zm10.01-18.319a21.8 21.8 0 0 0-7.274-16.247L52.85 40.092a5.8 5.8 0 0 1 1.932 4.314h16zM63.509 28.16c-4.63-4.138-10.831-6.102-17.02-5.393l1.821 15.896c1.67-.191 3.324.344 4.537 1.427L63.509 28.16zm-17.008-5.394c-9.864 1.115-17.848 8.976-19.103 18.823l15.872 2.024c.322-2.522 2.484-4.66 5.029-4.948l-1.797-15.899zM27.398 41.59c-1.073 8.423 2.717 16.591 9.882 21.169l8.614-13.483c-1.918-1.226-2.921-3.338-2.625-5.665L27.398 41.59zm9.888 21.173c-1.851-1.181-2.41-2.959-2.41-4.192h16c0-3.368-1.546-7.103-4.986-9.298l-8.603 13.49zm6.777.018a6.47 6.47 0 0 1 6.469-6.469v16c5.264 0 9.531-4.268 9.531-9.531h-16zm6.469-6.469h-3.062v16h3.063v-16zm-3.062 0a6.47 6.47 0 0 1 6.469 6.469h-16c0 5.264 4.268 9.531 9.531 9.531v-16zm6.469 6.469V61.25h-16v1.531h16zm-8 6.469h6.125v-16h-6.125v16zm-1.875-8v1.531h16V61.25h-16zm11.406-16.844a6.47 6.47 0 0 1-6.469 6.469v-16c-5.264 0-9.531 4.268-9.531 9.531h16zm-6.469 6.469a6.47 6.47 0 0 1-6.469-6.469h16c0-5.264-4.268-9.531-9.531-9.531v16zm-6.469-6.469a6.47 6.47 0 0 1 6.469-6.469v16c5.264 0 9.531-4.268 9.531-9.531h-16zm6.469-6.469a6.47 6.47 0 0 1 6.469 6.469h-16c0 5.264 4.268 9.531 9.531 9.531v-16zm-2.691 6.06c.144-1.135 1.173-2.158 2.332-2.289L46.848 25.81c-8.476.956-15.333 7.7-16.41 16.169l15.872 2.019zm2.35-2.291a3.1 3.1 0 0 1 .355-.021v-16c-.731 0-1.46.043-2.184.126l1.83 15.895zm.355-.021c.678 0 1.273.223 1.792.687l10.662-11.93a18.59 18.59 0 0 0-12.455-4.758v16zm1.793.688a2.74 2.74 0 0 1 .912 2.033h16a18.74 18.74 0 0 0-6.251-13.963l-10.662 11.93zm.912 2.033a2.68 2.68 0 0 1-1.257 2.286l8.655 13.457a18.68 18.68 0 0 0 8.602-15.743h-16zm-1.255 2.285c-3.889 2.5-6.151 6.678-6.372 11.097l15.98.799c-.025.499-.308 1.146-.957 1.564l-8.651-13.46zm1.618 3.497h-1.551v16h1.551v-16zm6.449 8v-9.469h-16v9.469h16zm-5.313-1.934c4.8-1.712 8.375-6.301 8.375-11.847h-16c0-1.559 1.006-2.779 2.251-3.223l5.374 15.071zm8.375-11.847c0-6.951-5.643-12.594-12.594-12.594v16a3.4 3.4 0 0 1-3.406-3.406h16zM49.001 31.812c-6.951 0-12.594 5.643-12.594 12.594h16a3.4 3.4 0 0 1-3.406 3.406v-16zM36.407 44.406c0 5.546 3.575 10.136 8.376 11.847l5.374-15.071c1.245.444 2.25 1.664 2.25 3.223h-16zm3.063 4.312v9.469h16v-9.469h-16zm8 1.469h-1.554v16h1.554v-16zm6.433 7.542c-.248-4.323-2.425-8.52-6.354-11.033l-8.622 13.478c-.75-.48-.977-1.164-.998-1.53l15.974-.915zm-6.359-11.036c-.904-.577-1.38-1.548-1.234-2.693l-15.871-2.025c-.923 7.231 2.329 14.266 8.493 18.203l8.612-13.485z" fill="url(#L)" mask="url(#E)"/><mask id="F" fill="#fff"><path d="M84.28 48.299a4.39 4.39 0 0 0-7.31 0l-7.944 11.915c-.426.642-.651 1.386-.651 2.154a3.89 3.89 0 0 0 3.882 3.882H74.5V78.5H48.469v3.063H74.5c1.689 0 3.063-1.374 3.063-3.062V63.188h-5.306a.82.82 0 0 1-.819-.819c0-.162.047-.32.138-.455l7.944-11.915c.493-.741 1.72-.741 2.213 0l7.944 11.915a.81.81 0 0 1 .138.455c-.001.452-.369.819-.821.819h-5.306v18.375c0 3.378-2.747 6.125-6.125 6.125H48.469v3.063h29.094a9.2 9.2 0 0 0 9.188-9.187V66.25h2.243a3.89 3.89 0 0 0 3.882-3.882c0-.769-.225-1.513-.652-2.153L84.28 48.299z"/></mask><path d="M84.28 48.299a4.39 4.39 0 0 0-7.31 0l-7.944 11.915c-.426.642-.651 1.386-.651 2.154a3.89 3.89 0 0 0 3.882 3.882H74.5V78.5H48.469v3.063H74.5c1.689 0 3.063-1.374 3.063-3.062V63.188h-5.306a.82.82 0 0 1-.819-.819c0-.162.047-.32.138-.455l7.944-11.915c.493-.741 1.72-.741 2.213 0l7.944 11.915a.81.81 0 0 1 .138.455c-.001.452-.369.819-.821.819h-5.306v18.375c0 3.378-2.747 6.125-6.125 6.125H48.469v3.063h29.094a9.2 9.2 0 0 0 9.188-9.187V66.25h2.243a3.89 3.89 0 0 0 3.882-3.882c0-.769-.225-1.513-.652-2.153L84.28 48.299z" fill="#f37021"/><path d="M84.28 48.299l6.657-4.437-.005-.008-6.651 4.445zm-7.31 0l-6.651-4.445-.005.007 6.656 4.438zm-7.944 11.915l-6.656-4.438-.005.008-.005.008 6.666 4.423zM74.5 66.25h8v-8h-8v8zm0 12.25v8h8v-8h-8zm-26.031 0v-8h-8v8h8zm0 3.063h-8v8h8v-8zm29.094-18.375h8v-8h-8v8zm-5.987-1.274l6.645 4.455.006-.008.006-.008-6.656-4.438zm7.944-11.915l6.656 4.438.004-.007-6.661-4.431zm2.213 0l-6.661 4.431.004.007 6.656-4.438zm7.944 11.915l-6.656 4.438.006.008.006.008 6.645-4.455zm.138.455l8 .027v-.014-.014h-8zm-6.126.819v-8h-8v8h8zm-35.219 24.5v-8h-8v8h8zm0 3.063h-8v8h8v-8zm38.281-24.5v-8h-8v8h8zm5.473-6.035l-6.657 4.437.003.004 6.654-4.441zm-1.291-16.361a12.39 12.39 0 0 0-10.306-5.51v16a3.61 3.61 0 0 1-2.996-1.599l13.303-8.89zm-10.306-5.51a12.39 12.39 0 0 0-10.306 5.51l13.303 8.89a3.61 3.61 0 0 1-2.996 1.599v-16zm-10.311 5.517L62.37 55.776l13.312 8.876 7.944-11.915-13.312-8.876zm-7.954 11.93c-1.292 1.948-1.985 4.229-1.985 6.577h16c0 .811-.242 1.604-.683 2.268L62.36 55.791zm-1.985 6.577A11.89 11.89 0 0 0 72.257 74.25v-16c2.279 0 4.118 1.839 4.118 4.118h-16zM72.257 74.25H74.5v-16h-2.243v16zm-5.757-8V78.5h16V66.25h-16zm8 4.25H48.469v16H74.5v-16zm-34.031 8v3.063h16V78.5h-16zm8 11.063H74.5v-16H48.469v16zm26.031 0A11.07 11.07 0 0 0 85.563 78.5h-16c0-2.729 2.208-4.937 4.938-4.937v16zM85.563 78.5V63.188h-16V78.5h16zm-8-23.312h-5.306v16h5.306v-16zm-5.306 0a7.18 7.18 0 0 1 7.181 7.181h-16a8.82 8.82 0 0 0 8.819 8.819v-16zm7.181 7.181c0 1.407-.415 2.803-1.217 4l-13.29-8.91c-.983 1.467-1.493 3.178-1.493 4.91h16zm-1.206 3.983l7.944-11.915-13.312-8.876-7.944 11.915 13.312 8.876zM86.18 54.43a6.69 6.69 0 0 1-5.554 3.013 6.69 6.69 0 0 1-5.554-3.013l13.321-8.863c-2.002-3.01-5.193-4.125-7.767-4.125s-5.765 1.115-7.767 4.125L86.18 54.43zm-11.104.007l7.944 11.915 13.312-8.876-7.944-11.915-13.312 8.876zm7.956 11.932a7.19 7.19 0 0 1-1.218-4h16a8.81 8.81 0 0 0-1.493-4.91l-13.29 8.91zm-1.217-4.027a7.18 7.18 0 0 1 7.179-7.154v16c4.875 0 8.804-3.948 8.821-8.792l-16-.054zm7.179-7.154h-5.306v16h5.306v-16zm-13.306 8v18.375h16V63.188h-16zm0 18.375a1.87 1.87 0 0 1 1.875-1.875v16c7.796 0 14.125-6.329 14.125-14.125h-16zm1.875-1.875H48.469v16h29.094v-16zm-37.094 8v3.063h16v-3.062h-16zm8 11.063h29.094v-16H48.469v16zm29.094 0A17.2 17.2 0 0 0 94.75 81.563h-16a1.2 1.2 0 0 1-1.187 1.188v16zM94.75 81.563V66.25h-16v15.313h16zm-8-7.312h2.243v-16H86.75v16zm2.243 0a11.89 11.89 0 0 0 11.882-11.882h-16c0-2.279 1.839-4.118 4.118-4.118v16zm11.882-11.882a11.86 11.86 0 0 0-1.998-6.594l-13.308 8.883c-.452-.677-.694-1.478-.694-2.288h16zm-1.996-6.59l-7.943-11.916-13.314 8.874 7.943 11.916 13.314-8.874z" fill="url(#M)" mask="url(#F)"/><mask id="G" fill="#fff"><path d="M10.72 50.701a4.39 4.39 0 0 0 7.31 0l7.944-11.915c.426-.642.651-1.386.651-2.154a3.89 3.89 0 0 0-3.882-3.882H20.5V20.5h26.031v-3.062H20.5c-1.689 0-3.062 1.374-3.062 3.063v15.313h5.306a.82.82 0 0 1 .819.819c0 .162-.047.32-.138.455l-7.944 11.915c-.493.741-1.72.741-2.213 0L5.325 37.087a.81.81 0 0 1-.138-.455.82.82 0 0 1 .819-.819h5.306V17.438c0-3.378 2.747-6.125 6.125-6.125h29.094V8.25H17.438a9.2 9.2 0 0 0-9.187 9.188V32.75H6.007a3.89 3.89 0 0 0-3.882 3.882c0 .769.225 1.513.652 2.153l7.943 11.916z"/></mask><path d="M10.72 50.701a4.39 4.39 0 0 0 7.31 0l7.944-11.915c.426-.642.651-1.386.651-2.154a3.89 3.89 0 0 0-3.882-3.882H20.5V20.5h26.031v-3.062H20.5c-1.689 0-3.062 1.374-3.062 3.063v15.313h5.306a.82.82 0 0 1 .819.819c0 .162-.047.32-.138.455l-7.944 11.915c-.493.741-1.72.741-2.213 0L5.325 37.087a.81.81 0 0 1-.138-.455.82.82 0 0 1 .819-.819h5.306V17.438c0-3.378 2.747-6.125 6.125-6.125h29.094V8.25H17.438a9.2 9.2 0 0 0-9.187 9.188V32.75H6.007a3.89 3.89 0 0 0-3.882 3.882c0 .769.225 1.513.652 2.153l7.943 11.916z" fill="#f37021"/><path d="M10.72 50.701l-6.657 4.437.006.008 6.651-4.445zm7.31 0l6.651 4.445.005-.007-6.656-4.438zm7.944-11.915l6.656 4.438.005-.008.005-.008-6.666-4.423zM20.5 32.75h-8v8h8v-8zm0-12.25v-8h-8v8h8zm26.031 0v8h8v-8h-8zm0-3.062h8v-8h-8v8zM17.438 35.813h-8v8h8v-8zm5.987 1.274l-6.645-4.455-.006.008-.006.008 6.656 4.438zm-7.944 11.915l-6.656-4.438-.004.007 6.661 4.431zm-2.213 0l6.661-4.431-.004-.006-6.656 4.437zM5.325 37.087l6.656-4.437-.006-.009-.006-.009-6.645 4.455zm5.987-1.274v8h8v-8h-8zm35.219-24.5v8h8v-8h-8zm0-3.062h8v-8h-8v8zM8.25 32.75v8h8v-8h-8zm-5.473 6.035l6.657-4.437-.003-.004-6.654 4.441zm1.291 16.361a12.39 12.39 0 0 0 10.306 5.51v-16a3.61 3.61 0 0 1 2.996 1.599l-13.303 8.89zm10.306 5.51a12.39 12.39 0 0 0 10.306-5.51l-13.303-8.89a3.61 3.61 0 0 1 2.996-1.599v16zm10.311-5.517l7.944-11.915-13.312-8.876-7.944 11.915 13.312 8.876zm7.954-11.93c1.292-1.948 1.985-4.229 1.985-6.577h-16c0-.811.242-1.604.683-2.268l13.332 8.846zm1.985-6.577A11.89 11.89 0 0 0 22.743 24.75v16c-2.279 0-4.118-1.839-4.118-4.118h16zM22.743 24.75H20.5v16h2.243v-16zm5.757 8V20.5h-16v12.25h16zm-8-4.25h26.031v-16H20.5v16zm34.031-8v-3.062h-16V20.5h16zm-8-11.062H20.5v16h26.031v-16zm-26.031 0A11.07 11.07 0 0 0 9.438 20.5h16c0 2.729-2.208 4.938-4.937 4.938v-16zM9.438 20.5v15.313h16V20.5h-16zm8 23.313h5.306v-16h-5.306v16zm5.306 0a7.18 7.18 0 0 1-7.181-7.181h16a8.82 8.82 0 0 0-8.819-8.819v16zm-7.181-7.181c0-1.407.415-2.803 1.217-4l13.29 8.91c.984-1.467 1.493-3.178 1.493-4.91h-16zm1.206-3.983L8.824 44.563l13.312 8.876 7.944-11.915-13.312-8.876zM8.82 44.57a6.69 6.69 0 0 1 5.554-3.013 6.69 6.69 0 0 1 5.554 3.013L6.607 53.432c2.002 3.01 5.193 4.125 7.767 4.125s5.765-1.115 7.767-4.125L8.82 44.57zm11.104-.006l-7.943-11.915-13.313 8.875 7.943 11.915 13.313-8.875zM11.97 32.632a7.19 7.19 0 0 1 1.217 4h-16a8.81 8.81 0 0 0 1.493 4.91l13.29-8.91zm1.217 4a7.18 7.18 0 0 1-7.181 7.181v-16a8.82 8.82 0 0 0-8.819 8.819h16zm-7.181 7.181h5.306v-16H6.007v16zm13.306-8V17.438h-16v18.375h16zm0-18.375a1.87 1.87 0 0 1-1.875 1.875v-16c-7.796 0-14.125 6.329-14.125 14.125h16zm-1.875 1.875h29.094v-16H17.438v16zm37.094-8V8.25h-16v3.063h16zm-8-11.062H17.438v16h29.094v-16zm-29.094 0A17.2 17.2 0 0 0 .25 17.438h16a1.2 1.2 0 0 1 1.188-1.187v-16zM.25 17.438V32.75h16V17.438h-16zm8 7.313H6.007v16H8.25v-16zm-2.243 0A11.89 11.89 0 0 0-5.875 36.632h16c0 2.279-1.839 4.118-4.118 4.118v-16zM-5.875 36.632c0 2.347.692 4.637 1.998 6.594l13.308-8.882c.452.677.694 1.478.694 2.288h-16zm1.996 6.59l7.943 11.916 13.314-8.874-7.943-11.916-13.314 8.874z" fill="url(#N)" mask="url(#G)"/><defs><linearGradient id="H" x1="79.625" y1="1.531" x2="79.625" y2="35.219" xlink:href="#P"><stop stop-color="#f37021"/><stop offset="1" stop-color="#ffa114"/></linearGradient><linearGradient id="I" x1="79.625" y1="10.719" x2="79.625" y2="26.031" xlink:href="#P"><stop stop-color="#f37021"/><stop offset="1" stop-color="#ffa114"/></linearGradient><linearGradient id="J" x1="18.375" y1="62.781" x2="18.375" y2="96.469" xlink:href="#P"><stop stop-color="#f37021"/><stop offset="1" stop-color="#ffa114"/></linearGradient><linearGradient id="K" x1="18.375" y1="71.969" x2="18.375" y2="87.281" xlink:href="#P"><stop stop-color="#f37021"/><stop offset="1" stop-color="#ffa114"/></linearGradient><linearGradient id="L" x1="49" y1="30.625" x2="49" y2="67.375" xlink:href="#P"><stop stop-color="#f37021"/><stop offset="1" stop-color="#ffa114"/></linearGradient><linearGradient id="M" x1="70.672" y1="46.344" x2="70.672" y2="90.75" xlink:href="#P"><stop stop-color="#f37021"/><stop offset="1" stop-color="#ffa114"/></linearGradient><linearGradient id="N" x1="24.328" y1="8.25" x2="24.328" y2="52.656" xlink:href="#P"><stop stop-color="#f37021"/><stop offset="1" stop-color="#ffa114"/></linearGradient><path id="O" d="M79.625 10.719c-4.222 0-7.656 3.435-7.656 7.656s3.435 7.656 7.656 7.656 7.656-3.434 7.656-7.656-3.434-7.656-7.656-7.656zm0 12.25a4.6 4.6 0 0 1-4.594-4.594 4.6 4.6 0 0 1 4.594-4.594 4.6 4.6 0 0 1 4.594 4.594 4.6 4.6 0 0 1-4.594 4.594z"/><linearGradient id="P" gradientUnits="userSpaceOnUse"/></defs></svg>