<svg xmlns="http://www.w3.org/2000/svg" width="66" height="66" fill="none" xmlns:v="https://vecta.io/nano"><path d="M63.84 13.035L55.13.423a.98.98 0 0 0-1.613.001l-8.708 12.612a.98.98 0 0 0 .806 1.537h2.21v1.843c-2.394.792-5.448.48-8.627.155l-3.422-.303c-3.383-.206-6.469 1.606-7.931 4.574-1.234-.155-2.476.159-3.511.905-1.276.921-2.026 2.351-2.056 3.924-.061 3.198 1.244 6.502 2.055 8.237-1.715.559-2.946 2.063-2.946 3.827 0 2.002 1.586 3.669 3.664 3.999.464 2.422 1.637 4.648 3.419 6.43 1.207 1.208 2.62 2.135 4.159 2.752v1.902h-4.328a5.87 5.87 0 0 0-3.019.833v-1.729h2.21a.98.98 0 0 0 .807-1.537L19.591 37.77a.98.98 0 0 0-1.47-.163V22.422h2.212a.98.98 0 0 0 .806-1.537L12.429 8.273a.98.98 0 0 0-1.613 0L2.108 20.885a.98.98 0 0 0 .807 1.537h2.21v9.829a.98.98 0 1 0 1.96 0V21.442a.98.98 0 0 0-.98-.98H4.782l6.84-9.907 6.842 9.907H17.14a.98.98 0 0 0-.98.98v18.96l-6.892 9.981a.98.98 0 0 0 .807 1.537h2.21V64.04h-5.2V36.172a.98.98 0 1 0-1.96 0V65.02a.98.98 0 0 0 .98.98h53.737a.98.98 0 0 0 .98-.98v-6.368a.98.98 0 1 0-1.96 0v5.388H52.12v-5.317c0-1.87-.864-3.588-2.334-4.7V41.674c1.923-.44 3.353-2.039 3.353-3.94s-1.43-3.5-3.353-3.94v-3.806c1.222-.987 2.148-2.199 2.767-3.63 2.207-5.109-.345-11.104-.455-11.356a.98.98 0 0 0-1.626-.267 5.67 5.67 0 0 1-.686.643v-1.785a.98.98 0 0 0-.98-.98h-1.322l6.84-9.907 6.841 9.907h-1.323a.98.98 0 0 0-.98.98V54.73a.98.98 0 1 0 1.96 0V14.572h2.211a.98.98 0 0 0 .807-1.537zM23.349 37.734c0-.861.61-1.601 1.48-1.925v3.56l.004.291c-.872-.323-1.483-1.064-1.483-1.926zm3.44 1.635v-3.826c1.552-.289 2.868-1.275 3.844-2.898.345-.574.597-1.147.775-1.625 2.398 1.092 8.406 3.233 14.804.928a13.97 13.97 0 0 0 1.527-.654v8.074a10.49 10.49 0 0 1-10.475 10.476c-2.798 0-5.428-1.09-7.407-3.068s-3.068-4.609-3.068-7.408zm19.426 13.448h-4.326v-1.904a12.51 12.51 0 0 0 5.938-4.988v7.116c-.521-.148-1.063-.224-1.612-.224zm-.85 7.799l-2.411.603a.98.98 0 0 0-.455 1.644l1.212 1.213h-2.29l2.649-9.297h1.065l.23 5.838zm-13.093 1.292a.98.98 0 0 0-.707-.689l-2.411-.603.23-5.838h1.066l2.649 9.297h-2.291l1.213-1.213a.98.98 0 0 0 .252-.955zm1.08-7.13l2.301 1.297-2.176 2.176-.99-3.473h.865zm7.815 0h.864l-.989 3.473-2.176-2.176 2.302-1.297zm-3.908 2.463l1.155 1.154-1.218 1.505-1.14-1.455 1.203-1.203zm-2.6 2.6l1.336 1.706-1.169 1.443-.736-2.582.568-.567zm5.148-.052l.62.619-.72 2.528-1.203-1.536 1.304-1.611zm-2.504 3.258l.806 1.029H36.47l.833-1.029zm-.039-11.242c.914 0 1.806-.1 2.664-.288v1.709l-2.669 1.504-2.669-1.504v-1.708a12.55 12.55 0 0 0 2.674.287zM14.246 64.04v-13.1a.98.98 0 0 0-.98-.98h-1.322l6.841-9.908 6.84 9.908h-1.322a.98.98 0 0 0-.98.98v4.613a5.87 5.87 0 0 0-.927 3.17v5.317h-8.15zm10.111-5.317c0-1.871 1.31-3.441 3.06-3.844l-.255 6.455a.98.98 0 0 0 .742.99l1.505.376-1.375 1.375h-3.678v-5.352zm25.804 5.352h-3.678L45.107 62.7l1.505-.376a.98.98 0 0 0 .742-.99l-.255-6.455c.419.096.822.259 1.19.488 1.171.726 1.87 1.98 1.87 3.356v5.352zm1.019-26.341c0 .831-.57 1.549-1.393 1.889v-3.778c.822.34 1.393 1.058 1.393 1.889zm-.416-20.631c.567 1.882 1.302 5.441-.01 8.478-.899 2.081-2.651 3.603-5.206 4.523-7.228 2.605-14.181-1.289-14.249-1.328a.98.98 0 0 0-1.448.648c-.009.04-.825 3.729-3.473 4.2-.654-1.312-2.198-4.758-2.138-7.917a2.97 2.97 0 0 1 1.243-2.372c.522-.377 1.132-.572 1.753-.572.3 0 .603.045.9.138a.98.98 0 0 0 1.21-.594 6.28 6.28 0 0 1 6.312-4.085c1.099.067 2.238.184 3.34.297 4.254.436 8.635.885 11.764-1.417z" fill="url(#A)"/><path d="M41.338 39.465a.98.98 0 0 0 .98-.98v-1.592a.98.98 0 1 0-1.961 0v1.592a.98.98 0 0 0 .98.98z" fill="url(#B)"/><path d="M34.168 38.485v-1.592a.98.98 0 1 0-1.96 0v1.592a.98.98 0 1 0 1.96 0z" fill="url(#C)"/><path d="M40.766 42.717a.98.98 0 0 0-1.386 0c-.566.566-1.317.877-2.117.877s-1.551-.311-2.117-.877a.98.98 0 1 0-1.386 1.386 4.94 4.94 0 0 0 7.007 0 .98.98 0 0 0 0-1.386z" fill="url(#D)"/><defs><linearGradient id="A" x1="32.974" y1="0" x2="32.974" y2="66" gradientUnits="userSpaceOnUse"><stop stop-color="#f37021"/><stop offset="1" stop-color="#ffa114"/></linearGradient><linearGradient id="B" x1="41.338" y1="35.912" x2="41.338" y2="39.465" gradientUnits="userSpaceOnUse"><stop stop-color="#f37021"/><stop offset="1" stop-color="#ffa114"/></linearGradient><linearGradient id="C" x1="33.188" y1="35.912" x2="33.188" y2="39.465" gradientUnits="userSpaceOnUse"><stop stop-color="#f37021"/><stop offset="1" stop-color="#ffa114"/></linearGradient><linearGradient id="D" x1="37.263" y1="42.43" x2="37.263" y2="45.552" gradientUnits="userSpaceOnUse"><stop stop-color="#f37021"/><stop offset="1" stop-color="#ffa114"/></linearGradient></defs></svg>