<svg xmlns="http://www.w3.org/2000/svg" width="117" height="116" fill="none" xmlns:v="https://vecta.io/nano"><ellipse cx="58.5" cy="58" rx="58.5" ry="58" fill="url(#A)"/><g opacity=".5" fill="#fff"><path d="M77.016 57.248l-7.135 2.848c-.936 4.034-3.86 7.237-7.603 8.543l-.234-2.254c2.339-.949 4.328-2.966 5.264-5.339.468-1.187.702-2.492.702-3.797s-.234-2.61-.702-3.797c-.936-2.373-2.924-4.39-5.264-5.339-.585-.237-1.053-.356-1.638-.475-.702-.119-1.404-.237-2.105-.237s-1.404.119-2.105.237a8.52 8.52 0 0 0-1.638.475 9.75 9.75 0 0 0-5.264 5.339c-.468 1.186-.702 2.492-.702 3.797s.234 2.61.702 3.797c.936 2.373 2.807 4.271 5.147 5.339l-.234 2.254c-3.743-1.424-6.55-4.509-7.486-8.543l-7.252-2.848 7.252-2.847c1.053-4.39 4.445-7.831 8.773-8.898l1.053-2.729 1.755-4.509 1.638 4.153 1.17 2.966c4.328 1.068 7.837 4.509 8.773 8.898l7.135 2.966z"/><path d="M69.533 45.976l-3.275 1.542 1.755 1.78 1.521-3.322zm0 22.544l-1.521-3.322-1.755 1.898 3.275 1.424zm-22.344.119l3.275-1.542-1.755-1.898-1.521 3.441zm0-22.663l1.521 3.322 1.755-1.898-3.275-1.424zm14.622 26.576l-3.509 3.797-3.509-3.797.585-7.119 1.287-14.119-1.871-2.373c.702-.356 1.404-.475 2.222-.593.468-.119.819-.119 1.287-.119s.819 0 1.287.119c.819.119 1.521.356 2.222.593l-1.871 2.373 1.287 14.119.585 7.119z"/></g><defs><linearGradient id="A" x1="58.5" y1="0" x2="58.5" y2="116" gradientUnits="userSpaceOnUse"><stop stop-color="#f37021"/><stop offset="1" stop-color="#ffa114"/></linearGradient></defs></svg>