<svg xmlns="http://www.w3.org/2000/svg" width="94" height="94" fill="none" xmlns:v="https://vecta.io/nano"><g clip-path="url(#C)"><path d="M87.352 14.535l-.326.354.34.339 5.468 5.451c1.42 1.416.412 3.85-1.591 3.85H69.821h-.5v.5 9.854.5h.5 10.405c1.244 0 2.254 1.009 2.254 2.254v53.609c0 1.245-1.009 2.254-2.254 2.254H3.609c-1.245 0-2.254-1.009-2.254-2.254V74.59c0-1.245 1.009-2.254 2.254-2.254h22.629.5v-.5-12.668c0-1.245 1.009-2.254 2.254-2.254h22.629.5v-.5-18.778c0-1.245 1.009-2.254 2.254-2.254h9.938.5v-.5V2.754C64.813 1.509 65.822.5 67.067.5s2.254 1.009 2.254 2.254V4.23v.5h.5 21.424c1.957 0 2.986 2.339 1.657 3.781l-5.549 6.024zM6.363 76.844h-.5v.5 11.148.5h.5 19.875.5v-.5-11.148-.5h-.5H6.363zm25.383-15.422h-.5v.5.004.004.005.005.006.006.007.008.008.009.009.01.01.011.011.012.012.013.013.014.014.015.016.016.017.017.017.018.019.019.02.02.02.021.021.022.023.023.024.024.025.025.025.026.026.027.027.028.028.029.029.03.03.031.031.031.032.032.033.033.034.034.034.035.035.036.036.037.037.037.038.038.039.039.039.04.04.041.041.041.042.042.043.043.043.044.044.044.045.045.046.046.046.047.047.047.048.048.049.049.049.05.05.05.051.051.051.052.052.052.053.053.053.054.054.054.055.055.055.055.056.056.056.057.057.057.058.058.058.058.059.059.059.059.06.06.06.061.061.061.061.061.062.062.062.063.063.063.063.063.064.064.064.064.065.065.065.065.066.066.066.066.066.067.067.067.067.067.068.068.068.068.068.069.069.069.069.069.069.07.07.07.07.07.07.071.071.071.071.071.071.072.072.072.072.072.072.072.073.073.073.073.073.073.073.073.073.074.074.074.074.074.074.074.074.074.075.075.075.075.075.075.075.075.075.075.075.075.075.075.076.075.076.076.076.076.076.076.076.076.076.076.076.076.076.076.076.076.076.076.076.076.076.076.076.076.076.076.076.076.076.076.076.076.076.076.076.076.076.076.076.076.076.076.076.076.076.076.076.076.076.076.075.075.075.075.075.075.075.075.075.075.075.075.075.074.074.074.074.074.074.074.074.074.074.073.073.073.073.073.073.073.073.073.072.072.072.072.072.072.072.071.071.071.071.071.071.071.07.07.07.07.07.07.069.069.069.069.069.069.068.068.068.068.068.067.067.067.067.067.066.066.066.066.066.065.065.065.065.064.064.064.064.063.063.063.063.062.062.062.062.061.061.061.061.06.06.06.06.059.059.059.058.058.058.058.057.057.057.056.056.056.055.055.055.055.054.054.054.053.053.053.052.052.052.051.051.051.05.05.05.049.049.049.048.048.048.047.047.046.046.046.045.045.045.044.044.044.043.043.042.042.042.041.041.04.04.04.039.039.038.038.037.037.037.036.036.035.035.035.034.034.033.033.032.032.032.031.031.03.03.029.029.028.028.028.027.026.026.026.025.025.024.024.023.023.022.022.021.021.02.02.019.019.018.018.017.017.016.016.015.015.014.014.013.013.012.011.011.01.01.009.009.008.008.007.007.006.005.005.004.004.5h.5 19.875.5v-.5-26.57-.5h-.5-19.875zm45.726 27.57h.5v-.5-48.102-.5h-.5-20.343-.5v.5.004.005.005.007.008.009.01.011.012.013.014.015.016.017.018.019.02.021.022.023.024.025.026.026.028.028.029.03.031.032.033.034.035.036.037.038.039.04.04.041.042.043.044.045.046.047.047.048.049.05.051.052.053.053.054.055.056.057.057.058.059.06.061.062.062.063.064.065.065.066.067.068.068.069.07.071.072.072.073.074.074.075.076.077.077.078.079.079.08.081.081.082.083.083.084.085.085.086.087.087.088.089.089.09.091.091.092.092.093.094.094.095.095.096.097.097.098.098.099.099.1.101.101.102.102.103.103.104.104.105.105.106.106.107.107.108.108.109.109.11.11.111.111.112.112.113.113.114.114.115.115.115.116.116.117.117.117.118.118.119.119.119.12.12.121.121.121.122.122.123.123.123.124.124.124.125.125.125.126.126.126.127.127.127.128.128.128.128.129.129.129.13.13.13.13.13.131.131.131.132.132.132.132.133.133.133.133.133.134.134.134.134.134.135.135.135.135.135.135.136.136.136.136.136.136.136.136.137.137.137.137.137.137.137.137.137.138.138.138.138.138.138.138.138.138.138.138.138.138.138.138.138.139.138.138.138.138.139.138.138.139.138.138.138.138.138.138.138.138.138.138.138.138.138.138.138.138.138.138.137.138.137.137.137.137.137.137.137.137.136.136.136.136.136.136.136.135.135.135.135.135.135.134.134.134.134.134.133.133.133.133.133.132.132.132.132.131.131.131.131.13.13.13.13.129.129.129.129.128.128.128.127.127.127.127.126.126.126.125.125.124.124.124.124.123.123.123.122.122.121.121.121.12.12.119.119.119.118.118.117.117.117.116.116.115.115.114.114.114.113.113.112.112.111.111.11.11.109.109.108.108.107.107.106.106.105.105.104.104.103.103.102.102.101.1.1.099.099.098.098.097.096.096.095.095.094.093.093.092.092.091.09.09.089.089.088.087.087.086.085.085.084.083.083.082.081.081.08.079.079.078.077.076.076.075.074.073.073.072.071.071.07.069.068.067.067.066.065.064.064.063.062.061.061.06.059.058.057.056.056.055.054.053.052.052.051.05.049.048.047.046.045.045.044.043.042.041.04.039.038.037.037.036.035.034.033.032.031.03.029.028.027.026.025.024.023.022.022.02.02.019.017.016.016.015.013.013.011.01.009.008.007.5h.5 20.343zm4.837-72.442l-.353.354.353-.354c-.857-.854-.886-2.233-.066-3.123l3.087-3.351.773-.839h-1.141H69.82h-.5v.5 9.784.5h.5 14.76 1.21l-.857-.854-2.624-2.617z" fill="url(#A)" stroke="#fff"/><path d="M3.634 57.294h0c-1.145.485-2.468-.051-2.953-1.198h0c-.485-1.146.051-2.469 1.198-2.954 9.094-3.846 17.275-9.367 24.315-16.408 5.744-5.745 10.475-12.247 14.111-19.383l.475-.931-1.023.215-2.36.498-1.798.377c-.297.06-.436.084-.52.094-.062.008-.089.008-.163.007h-.035c-1.043 0-1.979-.729-2.203-1.79-.256-1.218.523-2.414 1.741-2.67l-.103-.489.103.489 9.795-2.061a2.26 2.26 0 0 1 2.483 1.204h0l4.525 9.125h0c.553 1.115.098 2.468-1.018 3.021s-2.468.097-3.021-1.018l-.448.222.448-.222-1.98-3.993-.442-.891-.452.886c-3.847 7.546-8.852 14.422-14.928 20.498l.354.353-.354-.353c-7.454 7.455-16.116 13.299-25.747 17.372z" fill="url(#B)" stroke="#e7e8fe"/></g><defs><linearGradient id="A" x1="47.428" y1="0" x2="47.428" y2="94" gradientUnits="userSpaceOnUse"><stop stop-color="#f37021"/><stop offset="1" stop-color="#ffa114"/></linearGradient><linearGradient id="B" x1="25.979" y1="10.542" x2="25.979" y2="57.973" gradientUnits="userSpaceOnUse"><stop stop-color="#f37021"/><stop offset="1" stop-color="#ffa114"/></linearGradient><clipPath id="C"><path fill="#fff" d="M0 0h94v94H0z"/></clipPath></defs></svg>