<svg xmlns="http://www.w3.org/2000/svg" xmlns:xlink="http://www.w3.org/1999/xlink" width="67" height="67" fill="none" xmlns:v="https://vecta.io/nano"><path d="M23.031 15.703c.578 0 1.047-.469 1.047-1.047s-.469-1.047-1.047-1.047-1.047.469-1.047 1.047.469 1.047 1.047 1.047z" fill="url(#A)"/><path d="M38.734 35.594c0-6.765-3.608-12.958-9.444-16.323-.151-3.482-1.516-6.434-2.455-8.066 2.044-.713 3.524-2.639 3.524-4.923a5.24 5.24 0 0 0-5.234-5.234c-1.168 0-2.236.398-3.108 1.047h-3.522A12.23 12.23 0 0 0 6.281 14.308c0 2.328.685 4.589 1.905 6.522-4.487 3.563-7.14 9.006-7.14 14.764a18.87 18.87 0 0 0 18.844 18.844 18.71 18.71 0 0 0 8.86-2.222l13.738 13.738h.433a7.34 7.34 0 0 0 7.328-7.328v-.433L36.512 44.454c1.415-2.643 2.223-5.658 2.223-8.86zm-23.031-1.447v13.276c-1.562-.555-2.979-1.407-4.188-2.494l.001-11.027c0-2.767 1.546-5.227 3.974-6.464l4.401 4.401 2.307-2.307c2.428 1.237 3.974 3.698 3.974 6.465v10.459a12.47 12.47 0 0 1-6.281 1.7c-.715 0-1.411-.074-2.094-.189V32.853l-2.673-1.336-.937 1.873 1.516.757zm-2.939-8.87l.987.74a9.31 9.31 0 0 0-4.33 7.886l-.001 8.618c-1.319-1.987-2.093-4.367-2.093-6.927 0-4.171 2.031-7.967 5.436-10.317zm10.267 2.309V25.91a4.59 4.59 0 0 0 1.787-1.091c.177-.177.328-.371.472-.569a12.48 12.48 0 0 1 7.163 11.344c0 3.708-1.625 7.035-4.187 9.337v-8.934c0-3.613-2.032-6.841-5.234-8.411zm1.047-7.404v1.368a2.51 2.51 0 0 1-2.527 2.527h-2.707v2.094h2.094v1.66l-1.047 1.047-3.141-3.141v-4.98c0-.839-.328-1.628-.92-2.222l-.867-.867a1.04 1.04 0 0 1-.307-.741v-.179a1.05 1.05 0 0 1 1.047-1.047h1.047v-3.141a1.05 1.05 0 0 1 1.047-1.047h5.234 1.542c.69 1.064 2.406 4.041 2.624 7.629l-3.119 1.038zM18.495 4.188h1.839a5.18 5.18 0 0 0-.444 2.094h2.094c0-1.732 1.409-3.141 3.141-3.141s3.141 1.409 3.141 3.141-1.409 3.141-3.141 3.141h-2.094-5.234c-1.732 0-3.141 1.409-3.141 3.141v1.226c-1.219.432-2.094 1.597-2.094 2.962v.179c0 .839.328 1.628.92 2.222l.867.867a1.04 1.04 0 0 1 .307.741v3.321l-2.234-1.675c-2.534-1.902-4.047-4.929-4.047-8.097 0-5.581 4.54-10.12 10.12-10.12zM3.141 35.594a16.79 16.79 0 0 1 6.318-13.103 11.98 11.98 0 0 0 1.549 1.451c-3.638 2.765-5.774 7.016-5.774 11.652 0 8.082 6.574 14.656 14.656 14.656s14.656-6.574 14.656-14.656a14.56 14.56 0 0 0-8.455-13.278c.035-.206.071-.411.077-.624l1.985-.662a16.73 16.73 0 0 1 8.486 14.563c0 9.236-7.514 16.75-16.75 16.75s-16.75-7.514-16.75-16.75zM48.14 59.042c-.202 2.554-2.247 4.599-4.801 4.801L30.586 51.09a18.99 18.99 0 0 0 4.801-4.801L48.14 59.042z" fill="url(#B)"/><path d="M49.203 55.484h14.656V40.828H49.203v14.656zm2.094-12.562h10.469v10.469H51.297V42.922z" fill="url(#C)"/><path d="M55.484 48.77l-1.354-1.354-1.48 1.48 2.834 2.834 5.974-5.974-1.48-1.48-4.494 4.494z" fill="url(#D)"/><path d="M49.203 38.734h14.656V24.078H49.203v14.656zm2.094-12.562h10.469v10.469H51.297V26.172z" fill="url(#E)"/><path d="M55.484 32.02l-1.354-1.354-1.48 1.48 2.834 2.834 5.974-5.974-1.48-1.48-4.494 4.494z" fill="url(#F)"/><path d="M38.734 11.516h18.844v2.094H38.734v-2.094z" fill="url(#G)"/><path d="M38.734 15.703h18.844v2.094H38.734v-2.094z" fill="url(#H)"/><defs><linearGradient id="A" x1="23.031" y1="13.609" x2="23.031" y2="15.703" xlink:href="#I"><stop stop-color="#f37021"/><stop offset="1" stop-color="#ffa114"/></linearGradient><linearGradient id="B" x1="25.648" y1="1.047" x2="25.648" y2="65.953" xlink:href="#I"><stop stop-color="#f37021"/><stop offset="1" stop-color="#ffa114"/></linearGradient><linearGradient id="C" x1="56.531" y1="40.828" x2="56.531" y2="55.484" xlink:href="#I"><stop stop-color="#f37021"/><stop offset="1" stop-color="#ffa114"/></linearGradient><linearGradient id="D" x1="57.055" y1="44.276" x2="57.055" y2="51.731" xlink:href="#I"><stop stop-color="#f37021"/><stop offset="1" stop-color="#ffa114"/></linearGradient><linearGradient id="E" x1="56.531" y1="24.078" x2="56.531" y2="38.734" xlink:href="#I"><stop stop-color="#f37021"/><stop offset="1" stop-color="#ffa114"/></linearGradient><linearGradient id="F" x1="57.055" y1="27.526" x2="57.055" y2="34.981" xlink:href="#I"><stop stop-color="#f37021"/><stop offset="1" stop-color="#ffa114"/></linearGradient><linearGradient id="G" x1="48.156" y1="11.516" x2="48.156" y2="13.609" xlink:href="#I"><stop stop-color="#f37021"/><stop offset="1" stop-color="#ffa114"/></linearGradient><linearGradient id="H" x1="48.156" y1="15.703" x2="48.156" y2="17.797" xlink:href="#I"><stop stop-color="#f37021"/><stop offset="1" stop-color="#ffa114"/></linearGradient><linearGradient id="I" gradientUnits="userSpaceOnUse"/></defs></svg>