<svg xmlns="http://www.w3.org/2000/svg" width="56" height="56" fill="none" xmlns:v="https://vecta.io/nano"><path d="M29.37 22.5c0-4.538-3.712-8.25-8.25-8.25s-8.25 3.713-8.25 8.25 3.712 8.25 8.25 8.25 8.25-3.713 8.25-8.25zm-8.25 2.75a2.76 2.76 0 0 1-2.75-2.75 2.76 2.76 0 0 1 2.75-2.75 2.76 2.76 0 0 1 2.75 2.75 2.76 2.76 0 0 1-2.75 2.75zm17.875 5.5a5.48 5.48 0 0 0 5.5-5.5 5.48 5.48 0 0 0-5.5-5.5c-3.053 0-5.528 2.447-5.5 5.5a5.48 5.48 0 0 0 5.5 5.5zM27.968.527c-15.18 0-27.5 12.32-27.5 27.5s12.32 27.5 27.5 27.5 27.5-12.32 27.5-27.5-12.32-27.5-27.5-27.5zM11.055 42.08c1.87-1.485 6.242-3.053 10.065-3.053.192 0 .413.028.633.028.66-1.76 1.843-3.547 3.575-5.115-1.54-.275-2.997-.44-4.207-.44-3.575 0-9.322 1.237-13.008 3.932A21.68 21.68 0 0 1 5.968 28c0-12.128 9.873-22 22-22s22 9.872 22 22c0 3.3-.742 6.435-2.062 9.267-2.75-1.623-6.49-2.392-8.91-2.392-4.18 0-12.375 2.227-12.375 7.425v7.645a21.82 21.82 0 0 1-15.565-7.865z" fill="url(#A)"/><defs><linearGradient id="A" x1="27.968" y1=".527" x2="27.968" y2="55.527" gradientUnits="userSpaceOnUse"><stop stop-color="#f37021"/><stop offset="1" stop-color="#ffa114"/></linearGradient></defs></svg>