<svg xmlns="http://www.w3.org/2000/svg" width="55" height="55" fill="none" xmlns:v="https://vecta.io/nano"><path d="M55 32.106v-9.211l-7.287-1.215c-.435-1.514-1.04-2.972-1.806-4.355l4.295-6.014-6.513-6.513-6.014 4.296c-1.383-.766-2.841-1.371-4.355-1.806L32.106 0h-9.211L21.68 7.287c-1.514.435-2.972 1.04-4.355 1.806l-6.014-4.295-6.513 6.513 4.296 6.014c-.766 1.383-1.371 2.841-1.806 4.355L0 22.894v9.211l7.287 1.215c.435 1.514 1.04 2.973 1.806 4.355l-4.295 6.014 6.513 6.513 6.014-4.295a20.86 20.86 0 0 0 4.355 1.806L22.894 55h9.211l1.214-7.287c1.514-.435 2.973-1.04 4.355-1.806l6.014 4.296 6.513-6.513-4.296-6.014c.766-1.383 1.371-2.841 1.806-4.355L55 32.106zm-9.024 11.233l-2.637 2.637-5.518-3.941c-.541.291-2.702 1.969-6.289 2.8l-1.053.244-1.114 6.685h-3.73l-1.114-6.685c-.614-.185-3.287-.514-6.425-2.472l-.917-.572-5.518 3.941-2.638-2.637 3.941-5.518c-.296-.55-1.97-2.704-2.8-6.289l-.244-1.053-6.685-1.114v-3.73l6.685-1.114c.185-.614.514-3.287 2.472-6.425l.572-.917-3.941-5.518 2.638-2.638 5.518 3.941c.55-.296 2.704-1.97 6.289-2.8l1.053-.244 1.114-6.685h3.73l1.114 6.685c.614.185 3.287.514 6.425 2.472l.917.572 5.518-3.941 2.637 2.638-3.941 5.518c.296.55 1.97 2.704 2.8 6.289l.244 1.053 6.685 1.114v3.73l-6.685 1.114c-.185.614-.514 3.287-2.472 6.425l-.572.917 3.941 5.518z" fill="url(#A)"/><path d="M27.5 13.75A13.77 13.77 0 0 0 13.75 27.5 13.77 13.77 0 0 0 27.5 41.25 13.77 13.77 0 0 0 41.25 27.5 13.77 13.77 0 0 0 27.5 13.75zm-4.721 23.144a4.86 4.86 0 0 1 9.441 0c-2.963 1.495-6.477 1.496-9.441 0zm2.294-9.394a2.43 2.43 0 0 1 2.427-2.427 2.43 2.43 0 0 1 2.427 2.427 2.43 2.43 0 0 1-2.427 2.427 2.43 2.43 0 0 1-2.427-2.427zm9.89 7.399c-.646-1.543-1.759-2.843-3.159-3.727.845-.989 1.357-2.272 1.357-3.672a5.67 5.67 0 0 0-5.662-5.662 5.67 5.67 0 0 0-5.662 5.662c0 1.4.512 2.683 1.357 3.672-1.4.884-2.512 2.184-3.159 3.727a10.48 10.48 0 0 1-3.051-7.399A10.53 10.53 0 0 1 27.5 16.985 10.53 10.53 0 0 1 38.015 27.5a10.48 10.48 0 0 1-3.051 7.399z" fill="url(#B)"/><defs><linearGradient id="A" x1="27.5" y1="0" x2="27.5" y2="55" gradientUnits="userSpaceOnUse"><stop stop-color="#f37021"/><stop offset="1" stop-color="#ffa114"/></linearGradient><linearGradient id="B" x1="27.5" y1="13.75" x2="27.5" y2="41.25" gradientUnits="userSpaceOnUse"><stop stop-color="#f37021"/><stop offset="1" stop-color="#ffa114"/></linearGradient></defs></svg>