<svg xmlns="http://www.w3.org/2000/svg" width="195" height="212" fill="#ffc866" xmlns:v="https://vecta.io/nano"><path d="M170.058 75.585L41.459 101.749c-.609.124-1.219.248-1.462.614l-20.68 16.902c-.79.795-1.214 1.834-.966 3.053s1.043 2.009 2.082 2.432l25.64 7.478c.671.18.976.118 1.586-.006l128.599-26.163c1.828-.372 2.799-1.839 2.427-3.668l-4.96-24.379c-.372-1.828-1.839-2.799-3.667-2.427zM43.309 107.719L149.966 86.02l1.24 6.095-94.468 19.22 1.24 6.095 94.468-19.22 1.24 6.095-103.61 21.08-2.48-12.19-6.095 1.24 2.17 10.666-15.873-4.704 15.51-12.677zm128.662-7.135l-12.19 2.48-3.72-18.284 12.19-2.48 3.72 18.284zM23.008 54.727c-.372-1.828.599-3.295 2.427-3.667L77.24 40.52c1.828-.372 3.295.599 3.667 2.427l6.82 33.521 6.095-1.24-6.82-33.521c-1.054-5.18-5.822-8.336-11.002-7.282l-51.805 10.54c-5.18 1.054-8.336 5.822-7.282 11.002l6.82 33.521 6.095-1.24-6.82-33.521zm148.555 106.237c.372 1.828-.599 3.295-2.427 3.667l-51.805 10.54c-1.829.372-3.296-.599-3.668-2.427l-8.059-39.616-6.095 1.24 8.06 39.616c1.054 5.18 5.821 8.336 11.002 7.282l51.805-10.54c5.18-1.054 8.336-5.822 7.282-11.002l-8.06-39.616-6.095 1.24 8.06 39.616zM48.116 178.145l-7.75-38.092-6.095 1.24 7.75 38.092c-6.394 2.888-10.092 9.67-8.604 16.983 1.674 8.228 9.742 13.569 17.97 11.895s13.568-9.743 11.894-17.97c-1.488-7.314-7.909-12.355-15.166-12.148zm2.031 24.023a9.03 9.03 0 0 1-10.635-7.04 9.03 9.03 0 0 1 7.039-10.635 9.03 9.03 0 0 1 10.635 7.04 9.03 9.03 0 0 1-7.039 10.635zm95.437-168.889l6.138 30.169 6.095-1.24-6.138-30.169c6.761-2.645 10.701-9.794 9.213-17.107-1.674-8.228-9.742-13.568-17.97-11.894s-13.568 9.742-11.894 17.97c1.426 7.009 7.542 12.112 14.556 12.271zm-1.422-24.147a9.03 9.03 0 0 1 10.636 7.039 9.03 9.03 0 0 1-7.04 10.635c-4.876.992-9.643-2.164-10.635-7.039a9.03 9.03 0 0 1 7.039-10.635z"/></svg>