<svg xmlns="http://www.w3.org/2000/svg" width="283" height="252" fill="#ffc866" xmlns:v="https://vecta.io/nano"><path d="M193.73 186.283c34.155-10.77 53.179-47.32 42.408-81.475s-47.32-53.18-81.475-42.409-53.18 47.321-42.409 81.476 47.321 53.179 81.476 42.408zm-66.7-50.716l-9.084 2.864c-3.263-12.994-1.822-26.205 3.324-37.716l8.424 4.385c.852.444 1.804.5 2.653.232s1.597-.859 2.04-1.712a3.48 3.48 0 0 0-1.48-4.692l-8.424-4.385c6.476-10.818 16.471-19.577 28.986-24.358l2.865 9.084a3.48 3.48 0 0 0 4.365 2.272 3.48 3.48 0 0 0 2.271-4.365l-2.864-9.084c12.994-3.263 26.205-1.823 37.716 3.323l-4.385 8.424a3.48 3.48 0 0 0 1.479 4.693c.853.443 1.805.5 2.654.232a3.47 3.47 0 0 0 2.04-1.712l4.384-8.424c10.818 6.476 19.577 16.471 24.358 28.986l-9.084 2.865a3.48 3.48 0 0 0-2.272 4.365 3.48 3.48 0 0 0 4.365 2.271l9.084-2.864c3.263 12.994 1.822 26.205-3.324 37.716l-8.424-4.385a3.48 3.48 0 0 0-4.693 1.48 3.48 3.48 0 0 0 1.48 4.692l8.425 4.385c-6.477 10.818-16.471 19.577-28.987 24.358l-2.864-9.083a3.48 3.48 0 0 0-4.365-2.272 3.48 3.48 0 0 0-2.272 4.365l2.865 9.083c-12.994 3.264-26.206 1.823-37.716-3.323l4.385-8.424a3.48 3.48 0 0 0-1.48-4.693 3.48 3.48 0 0 0-4.692 1.48l-4.386 8.424c-10.818-6.476-19.577-16.471-24.358-28.987l9.084-2.864a3.48 3.48 0 0 0 2.272-4.365 3.48 3.48 0 0 0-4.365-2.271zm107.539 39.954c-9.632 11.386-22.279 19.787-36.574 24.295-41.617 13.124-86.151-10.057-99.275-51.673-5.313-16.849-4.91-34.497 1.166-51.036a3.48 3.48 0 0 0-2.066-4.466 3.48 3.48 0 0 0-4.466 2.066c-6.612 17.997-7.05 37.198-1.27 55.527 14.278 45.276 62.729 70.495 108.005 56.217 15.551-4.904 29.311-14.046 39.794-26.437a3.48 3.48 0 0 0-5.313-4.494zM169.1 38.389l-3.967-12.578a6.54 6.54 0 0 0-8.192-4.264l-27.57 8.694a6.54 6.54 0 0 0-4.264 8.192l3.966 12.575c-12.153 7.467-22.328 17.887-29.555 30.494a3.48 3.48 0 0 0 1.288 4.749 3.48 3.48 0 0 0 4.749-1.288c9.907-17.282 25.834-30.102 44.846-36.097 41.616-13.124 86.151 10.057 99.275 51.673a79.29 79.29 0 0 1-7.306 64 3.48 3.48 0 0 0 1.231 4.764c.885.522 1.906.607 2.813.32.791-.249 1.497-.78 1.951-1.551 12.379-21.009 15.276-46.386 7.947-69.626C244.211 60.071 207.56 36.11 169.1 38.389zm-33.825 9.147l-3.402-10.788 26.753-8.436 3.404 10.794a86.29 86.29 0 0 0-13.721 3.123 86.55 86.55 0 0 0-13.034 5.307zm39.653 79.13c1.245-.393 2.112-1.421 2.36-2.614l7.837-15.056a3.48 3.48 0 0 0-6.173-3.213l-4.335 8.327-5.096-16.159a3.48 3.48 0 0 0-4.365-2.272 3.48 3.48 0 0 0-2.272 4.365l7.679 24.349a3.48 3.48 0 0 0 4.365 2.273zm-94.68 28.125a3.48 3.48 0 0 0-4.365-2.272l-42.33 13.349a3.48 3.48 0 0 0-2.272 4.365 3.48 3.48 0 0 0 4.365 2.272l42.33-13.349a3.48 3.48 0 0 0 2.272-4.365zm-37.462-5.784l33.52-10.57a3.48 3.48 0 0 0 2.272-4.365 3.48 3.48 0 0 0-4.365-2.272l-33.52 10.571a3.48 3.48 0 0 0-2.272 4.364 3.48 3.48 0 0 0 4.365 2.272zm29.759-37.928l-27.49 8.669a3.48 3.48 0 0 0-2.272 4.365 3.48 3.48 0 0 0 4.365 2.271l27.49-8.669a3.48 3.48 0 0 0 2.272-4.364 3.48 3.48 0 0 0-4.365-2.272zm17.747 60.145a3.48 3.48 0 0 0-4.365-2.272l-33.52 10.571a3.48 3.48 0 0 0-2.272 4.364 3.48 3.48 0 0 0 4.365 2.272l33.52-10.57a3.48 3.48 0 0 0 2.271-4.365zm6.157 15.658l-27.49 8.669a3.48 3.48 0 0 0-2.272 4.364 3.48 3.48 0 0 0 4.365 2.272l27.49-8.669a3.48 3.48 0 0 0 2.272-4.365 3.48 3.48 0 0 0-4.365-2.271z"/></svg>