<svg width="36" height="35" viewBox="0 0 36 35" fill="none" xmlns="http://www.w3.org/2000/svg">
<path d="M35.2223 9.05718L35.2226 9.05774C35.2779 9.16381 35.2472 9.3156 35.0921 9.39001C35.092 9.39003 35.092 9.39004 35.092 9.39006L30.876 11.4106C30.8757 11.4107 30.8755 11.4109 30.8752 11.411C30.7001 11.4937 30.5131 11.4135 30.4473 11.2882C30.392 11.182 30.4215 11.0313 30.5785 10.9556C30.5786 10.9556 30.5787 10.9555 30.5788 10.9555L34.7954 8.93565C34.7955 8.9356 34.7956 8.93555 34.7957 8.9355C34.9696 8.85269 35.158 8.93365 35.2223 9.05718Z" stroke="#E39549" stroke-width="1.5"/>
<path d="M30.5777 19.496L30.5782 19.4962L34.7937 21.5165C34.794 21.5167 34.7944 21.5168 34.7947 21.517C34.9711 21.6 35.1577 21.5186 35.2226 21.3952C35.2783 21.2874 35.2464 21.136 35.0922 21.062L30.5777 19.496ZM30.5777 19.496C30.4223 19.4216 30.3914 19.2705 30.4474 19.1634C30.513 19.0379 30.7002 18.9583 30.8742 19.0415C30.8743 19.0415 30.8743 19.0415 30.8743 19.0415L35.092 21.0619L30.5777 19.496Z" stroke="#E39549" stroke-width="1.5"/>
<path d="M7.68744 16.3036V17.0536H8.43744H24.2561C25.617 17.0536 26.6703 18.1073 26.6703 19.3355V31.4618C26.6703 32.689 25.6168 33.7436 24.2561 33.7436H3.16419C1.80349 33.7436 0.75 32.689 0.75 31.4618V19.3355C0.75 18.373 1.39892 17.5253 2.35187 17.1992L2.85906 17.0257V16.4896V11.1161C2.85906 5.43096 7.69715 0.75 13.7096 0.75C19.7231 0.75 24.5601 5.43091 24.5601 11.1161V13.1377C24.5601 13.2521 24.4546 13.3979 24.2561 13.3979H20.038C19.8378 13.3979 19.7329 13.2516 19.7329 13.1377V11.1161C19.7329 7.88644 17.0006 5.31374 13.7096 5.31374C10.4184 5.31374 7.68744 7.88663 7.68744 11.1161V16.3036ZM15.5147 29.4402V26.7196C16.7502 26.0965 17.6238 24.8518 17.6238 23.3776C17.6238 21.2611 15.8389 19.5957 13.7096 19.5957C11.5813 19.5957 9.7965 21.2613 9.7965 23.3776C9.7965 24.8518 10.6701 26.0965 11.9056 26.7196V29.4402C11.9056 30.4426 12.7424 31.2015 13.7096 31.2015C14.6774 31.2015 15.5147 30.4431 15.5147 29.4402Z" stroke="#E39549" stroke-width="1.5"/>
<path d="M30.7258 14.9648H34.9439C35.1435 14.9648 35.249 15.1117 35.249 15.2251C35.249 15.3385 35.1435 15.4853 34.9439 15.4853H30.7258C30.5262 15.4853 30.4207 15.3385 30.4207 15.2251C30.4207 15.1117 30.5262 14.9648 30.7258 14.9648Z" stroke="#E39549" stroke-width="1.5"/>
</svg>
