<svg width="99" height="68" viewBox="0 0 99 68" fill="none" xmlns="http://www.w3.org/2000/svg">
<path d="M42.9025 35.8359L0 46.3592C5.66636 48.7876 2.42844 56.073 0 59.3109C3.88551 59.3109 39.3947 64.7074 56.6636 67.4057C65.8377 65.5169 86.2906 61.2536 94.7092 59.3109C102.48 54.7778 97.9471 48.7876 94.7092 46.3592L42.9025 35.8359Z" fill="#F8E7CE"/>
<path d="M56.664 56.8825L3.23828 46.3593L42.9028 36.6455L94.7095 47.1688L56.664 56.8825Z" fill="#3E464B"/>
<path d="M56.6644 56.0731C57.9596 45.0642 46.9506 38.8042 42.0938 37.4551L92.2815 47.1688C82.0281 49.3275 62.4927 54.778 56.6644 56.0731Z" fill="#152633"/>
<ellipse cx="63.425" cy="13.9362" rx="24.175" ry="13.9362" fill="#F47221"/>
<path d="M65.1114 32.7488C64.333 33.5148 63.0841 33.5148 62.3057 32.7488L56.3517 26.8894C55.0762 25.6342 55.965 23.4639 57.7546 23.4639L69.6625 23.4639C71.452 23.4639 72.3408 25.6342 71.0653 26.8894L65.1114 32.7488Z" fill="#F47221"/>
<path d="M56.8828 14.3627L61.5395 18.2023L69.9658 9.66992" stroke="white" stroke-opacity="0.64" stroke-width="5" stroke-linecap="round"/>
</svg>
