<svg width="39" height="37" viewBox="0 0 39 37" fill="none" xmlns="http://www.w3.org/2000/svg">
<path d="M13 1L20 8L27 1" stroke="#E39549" stroke-width="1.5"/>
<path d="M35.4545 33.9999H35.9545V33.4999V12.4999V11.9999H35.4545H3.54545H3.04545V12.4999V33.4999V33.9999H3.54545H35.4545ZM21.9995 9.49986H35.4545C36.2643 9.49986 37.0396 9.81748 37.6103 10.3808C38.1807 10.9439 38.5 11.7063 38.5 12.4999V33.4999C38.5 35.1427 37.1345 36.4999 35.4545 36.4999H3.54545C1.86549 36.4999 0.5 35.1427 0.5 33.4999V12.4999C0.5 11.7063 0.819271 10.9439 1.3897 10.3808C1.96036 9.81748 2.73568 9.49986 3.54545 9.49986H17H21.9995ZM25.5732 22.9999L14.6818 29.1437V16.856L25.5732 22.9999Z" fill="#E39549" stroke="white"/>
</svg>
