<svg width="469" height="333" viewBox="0 0 469 333" fill="none" xmlns="http://www.w3.org/2000/svg">
<path d="M190.676 18H186.438V4.90909H190.81C192.093 4.90909 193.195 5.17116 194.115 5.69531C195.036 6.2152 195.741 6.96307 196.231 7.93892C196.725 8.91051 196.972 10.076 196.972 11.4354C196.972 12.799 196.723 13.9709 196.224 14.951C195.73 15.9311 195.014 16.6854 194.077 17.2138C193.139 17.7379 192.006 18 190.676 18ZM188.413 16.2741H190.567C191.565 16.2741 192.393 16.0866 193.054 15.7116C193.714 15.3324 194.209 14.7848 194.537 14.0689C194.865 13.3487 195.029 12.4709 195.029 11.4354C195.029 10.4084 194.865 9.53693 194.537 8.82102C194.213 8.10511 193.729 7.56179 193.086 7.19105C192.442 6.82031 191.643 6.63494 190.689 6.63494H188.413V16.2741ZM203.507 18.1982C202.539 18.1982 201.706 17.9915 201.007 17.5781C200.313 17.1605 199.776 16.5746 199.396 15.8203C199.021 15.0618 198.834 14.1733 198.834 13.1548C198.834 12.1491 199.021 11.2628 199.396 10.4957C199.776 9.72869 200.304 9.12997 200.982 8.69957C201.664 8.26918 202.46 8.05398 203.372 8.05398C203.926 8.05398 204.463 8.1456 204.983 8.32884C205.503 8.51207 205.97 8.79972 206.383 9.19176C206.796 9.58381 207.122 10.093 207.361 10.7195C207.6 11.3416 207.719 12.098 207.719 12.9886V13.6662H199.914V12.2344H205.846C205.846 11.7315 205.744 11.2862 205.539 10.8984C205.335 10.5064 205.047 10.1974 204.676 9.97159C204.31 9.74574 203.879 9.63281 203.385 9.63281C202.848 9.63281 202.379 9.76491 201.979 10.0291C201.583 10.2891 201.276 10.63 201.058 11.0518C200.845 11.4695 200.739 11.9233 200.739 12.4134V13.532C200.739 14.1882 200.854 14.7464 201.084 15.2067C201.318 15.6669 201.644 16.0185 202.062 16.2614C202.48 16.5 202.968 16.6193 203.526 16.6193C203.888 16.6193 204.218 16.5682 204.517 16.4659C204.815 16.3594 205.073 16.2017 205.29 15.9929C205.507 15.7841 205.673 15.5263 205.789 15.2195L207.597 15.5455C207.453 16.0781 207.193 16.5447 206.818 16.9453C206.447 17.3416 205.98 17.6506 205.418 17.8722C204.86 18.0895 204.222 18.1982 203.507 18.1982ZM217.197 10.5788L215.464 10.8857C215.392 10.6641 215.277 10.4531 215.119 10.2528C214.966 10.0526 214.757 9.88849 214.493 9.76065C214.229 9.63281 213.898 9.56889 213.502 9.56889C212.961 9.56889 212.509 9.69034 212.147 9.93324C211.785 10.1719 211.604 10.4808 211.604 10.8601C211.604 11.1882 211.725 11.4524 211.968 11.6527C212.211 11.853 212.603 12.017 213.144 12.1449L214.704 12.5028C215.607 12.7116 216.281 13.0334 216.724 13.468C217.167 13.9027 217.388 14.4673 217.388 15.1619C217.388 15.75 217.218 16.2741 216.877 16.7344C216.54 17.1903 216.07 17.5483 215.464 17.8082C214.864 18.0682 214.167 18.1982 213.374 18.1982C212.275 18.1982 211.378 17.9638 210.683 17.495C209.989 17.022 209.563 16.3509 209.405 15.4815L211.252 15.2003C211.367 15.6818 211.604 16.0462 211.962 16.2933C212.32 16.5362 212.786 16.6577 213.362 16.6577C213.988 16.6577 214.489 16.5277 214.864 16.2678C215.239 16.0036 215.426 15.6818 215.426 15.3026C215.426 14.9957 215.311 14.7379 215.081 14.5291C214.855 14.3203 214.508 14.1626 214.039 14.0561L212.377 13.6918C211.461 13.483 210.783 13.1506 210.344 12.6946C209.91 12.2386 209.692 11.6612 209.692 10.9624C209.692 10.3828 209.854 9.87571 210.178 9.44105C210.502 9.00639 210.95 8.66761 211.521 8.42472C212.092 8.17756 212.746 8.05398 213.483 8.05398C214.544 8.05398 215.379 8.28409 215.989 8.74432C216.598 9.20028 217.001 9.81179 217.197 10.5788ZM219.49 18V8.18182H221.401V18H219.49ZM220.455 6.6669C220.123 6.6669 219.837 6.55611 219.599 6.33452C219.364 6.10866 219.247 5.8402 219.247 5.52912C219.247 5.21378 219.364 4.94531 219.599 4.72372C219.837 4.49787 220.123 4.38494 220.455 4.38494C220.787 4.38494 221.071 4.49787 221.305 4.72372C221.544 4.94531 221.663 5.21378 221.663 5.52912C221.663 5.8402 221.544 6.10866 221.305 6.33452C221.071 6.55611 220.787 6.6669 220.455 6.6669ZM228.089 21.8864C227.309 21.8864 226.638 21.7841 226.075 21.5795C225.517 21.375 225.061 21.1044 224.707 20.7678C224.354 20.4311 224.089 20.0625 223.915 19.6619L225.558 18.9844C225.673 19.1719 225.826 19.37 226.018 19.5788C226.214 19.7919 226.478 19.973 226.81 20.1222C227.147 20.2713 227.58 20.3459 228.108 20.3459C228.832 20.3459 229.431 20.169 229.904 19.8153C230.377 19.4659 230.614 18.9077 230.614 18.1406V16.2102H230.492C230.377 16.419 230.211 16.6513 229.994 16.907C229.781 17.1626 229.487 17.3842 229.112 17.5717C228.737 17.7592 228.249 17.853 227.648 17.853C226.872 17.853 226.173 17.6719 225.551 17.3097C224.933 16.9432 224.443 16.4041 224.081 15.6925C223.723 14.9766 223.544 14.0966 223.544 13.0526C223.544 12.0085 223.721 11.1136 224.075 10.3679C224.433 9.62216 224.923 9.05114 225.545 8.65483C226.167 8.25426 226.872 8.05398 227.661 8.05398C228.27 8.05398 228.762 8.15625 229.137 8.3608C229.512 8.56108 229.804 8.79545 230.013 9.06392C230.226 9.33239 230.39 9.56889 230.505 9.77344H230.646V8.18182H232.518V18.2173C232.518 19.0611 232.322 19.7536 231.93 20.2947C231.538 20.8359 231.008 21.2365 230.339 21.4964C229.674 21.7564 228.924 21.8864 228.089 21.8864ZM228.07 16.2678C228.619 16.2678 229.084 16.1399 229.463 15.8842C229.847 15.6243 230.136 15.2536 230.332 14.772C230.533 14.2862 230.633 13.7045 230.633 13.027C230.633 12.3665 230.535 11.7848 230.339 11.282C230.143 10.7791 229.855 10.3871 229.476 10.1058C229.097 9.82031 228.628 9.67756 228.07 9.67756C227.494 9.67756 227.015 9.8267 226.631 10.125C226.248 10.419 225.958 10.8196 225.762 11.3267C225.57 11.8338 225.474 12.4006 225.474 13.027C225.474 13.6705 225.572 14.2351 225.768 14.7209C225.964 15.2067 226.254 15.5859 226.638 15.8587C227.026 16.1314 227.503 16.2678 228.07 16.2678ZM236.993 12.1705V18H235.082V8.18182H236.916V9.77983H237.038C237.263 9.25994 237.617 8.84233 238.099 8.52699C238.585 8.21165 239.196 8.05398 239.933 8.05398C240.602 8.05398 241.188 8.1946 241.691 8.47585C242.194 8.75284 242.584 9.16619 242.861 9.71591C243.138 10.2656 243.276 10.9453 243.276 11.755V18H241.365V11.9851C241.365 11.2734 241.18 10.7173 240.809 10.3168C240.438 9.91193 239.929 9.70952 239.281 9.70952C238.838 9.70952 238.444 9.8054 238.099 9.99716C237.758 10.1889 237.487 10.4702 237.287 10.8409C237.091 11.2074 236.993 11.6506 236.993 12.1705Z" fill="#545454"/>
<path d="M30.5811 152.348C30.5129 151.743 30.2316 151.274 29.7373 150.942C29.243 150.605 28.6208 150.437 27.8708 150.437C27.3339 150.437 26.8694 150.522 26.4774 150.692C26.0853 150.859 25.7806 151.089 25.5633 151.383C25.3502 151.673 25.2437 152.003 25.2437 152.374C25.2437 152.685 25.3161 152.953 25.461 153.179C25.6102 153.405 25.8041 153.594 26.0427 153.748C26.2856 153.897 26.5455 154.023 26.8225 154.125C27.0995 154.223 27.3659 154.304 27.6215 154.368L28.8999 154.7C29.3176 154.803 29.7458 154.941 30.1847 155.116C30.6237 155.29 31.0306 155.521 31.4056 155.806C31.7806 156.092 32.0832 156.445 32.3133 156.867C32.5477 157.289 32.6649 157.794 32.6649 158.382C32.6649 159.124 32.4731 159.782 32.0896 160.357C31.7103 160.933 31.1585 161.386 30.434 161.719C29.7139 162.051 28.8424 162.217 27.8197 162.217C26.8396 162.217 25.9916 162.062 25.2757 161.751C24.5597 161.44 23.9994 160.999 23.5945 160.428C23.1897 159.852 22.966 159.17 22.9234 158.382H24.9049C24.9433 158.855 25.0967 159.249 25.3651 159.565C25.6379 159.876 25.9852 160.108 26.407 160.261C26.8332 160.411 27.2998 160.485 27.8069 160.485C28.3651 160.485 28.8616 160.398 29.2963 160.223C29.7352 160.044 30.0803 159.797 30.3318 159.482C30.5832 159.162 30.7089 158.789 30.7089 158.363C30.7089 157.975 30.5981 157.658 30.3765 157.411C30.1592 157.163 29.863 156.959 29.488 156.797C29.1173 156.635 28.6975 156.492 28.2288 156.369L26.6819 155.947C25.6336 155.661 24.8026 155.241 24.189 154.688C23.5796 154.134 23.2749 153.401 23.2749 152.489C23.2749 151.734 23.4795 151.076 23.8886 150.513C24.2977 149.951 24.8517 149.514 25.5505 149.203C26.2494 148.888 27.0377 148.73 27.9156 148.73C28.8019 148.73 29.5839 148.886 30.2615 149.197C30.9433 149.508 31.4802 149.936 31.8722 150.482C32.2643 151.023 32.4688 151.645 32.4859 152.348H30.5811ZM39.0074 162.198C38.0869 162.198 37.2836 161.987 36.5976 161.565C35.9115 161.143 35.3788 160.553 34.9996 159.795C34.6203 159.036 34.4307 158.15 34.4307 157.136C34.4307 156.117 34.6203 155.227 34.9996 154.464C35.3788 153.701 35.9115 153.109 36.5976 152.687C37.2836 152.265 38.0869 152.054 39.0074 152.054C39.9278 152.054 40.7311 152.265 41.4172 152.687C42.1032 153.109 42.6359 153.701 43.0152 154.464C43.3944 155.227 43.5841 156.117 43.5841 157.136C43.5841 158.15 43.3944 159.036 43.0152 159.795C42.6359 160.553 42.1032 161.143 41.4172 161.565C40.7311 161.987 39.9278 162.198 39.0074 162.198ZM39.0138 160.594C39.6104 160.594 40.1047 160.436 40.4967 160.121C40.8888 159.805 41.1785 159.386 41.366 158.862C41.5578 158.337 41.6537 157.76 41.6537 157.129C41.6537 156.503 41.5578 155.928 41.366 155.403C41.1785 154.875 40.8888 154.451 40.4967 154.131C40.1047 153.812 39.6104 153.652 39.0138 153.652C38.4129 153.652 37.9143 153.812 37.518 154.131C37.126 154.451 36.8341 154.875 36.6423 155.403C36.4548 155.928 36.3611 156.503 36.3611 157.129C36.3611 157.76 36.4548 158.337 36.6423 158.862C36.8341 159.386 37.126 159.805 37.518 160.121C37.9143 160.436 38.4129 160.594 39.0138 160.594ZM50.39 152.182V153.716H44.8417V152.182H50.39ZM46.363 162V151.044C46.363 150.43 46.4972 149.921 46.7657 149.516C47.0342 149.107 47.39 148.803 47.8332 148.602C48.2764 148.398 48.7579 148.295 49.2778 148.295C49.6613 148.295 49.9894 148.327 50.2622 148.391C50.5349 148.451 50.7373 148.506 50.8694 148.558L50.422 150.104C50.3325 150.079 50.2174 150.049 50.0768 150.015C49.9362 149.977 49.7657 149.957 49.5654 149.957C49.1009 149.957 48.7686 150.072 48.5683 150.303C48.3722 150.533 48.2742 150.865 48.2742 151.3V162H46.363ZM56.945 152.182V153.716H51.5821V152.182H56.945ZM53.0203 149.83H54.9316V159.117C54.9316 159.488 54.9869 159.767 55.0977 159.955C55.2085 160.138 55.3513 160.263 55.526 160.332C55.705 160.396 55.8989 160.428 56.1077 160.428C56.2611 160.428 56.3953 160.417 56.5104 160.396C56.6254 160.374 56.7149 160.357 56.7789 160.344L57.124 161.923C57.0132 161.966 56.8556 162.009 56.651 162.051C56.4465 162.098 56.1908 162.124 55.884 162.128C55.3811 162.136 54.9124 162.047 54.4777 161.859C54.0431 161.672 53.6915 161.382 53.423 160.99C53.1546 160.598 53.0203 160.106 53.0203 159.513V149.83ZM61.1878 162L58.2986 152.182H60.2737L62.1977 159.392H62.2936L64.224 152.182H66.1991L68.1167 159.36H68.2126L70.1238 152.182H72.099L69.2162 162H67.2666L65.2723 154.911H65.1253L63.1309 162H61.1878ZM76.77 162.217C76.1478 162.217 75.5853 162.102 75.0825 161.872C74.5796 161.638 74.1812 161.299 73.8872 160.856C73.5974 160.413 73.4525 159.869 73.4525 159.226C73.4525 158.672 73.559 158.216 73.7721 157.858C73.9852 157.5 74.2728 157.217 74.635 157.008C74.9972 156.799 75.4021 156.641 75.8495 156.535C76.297 156.428 76.7529 156.347 77.2174 156.292C77.8055 156.224 78.2828 156.168 78.6492 156.126C79.0157 156.079 79.282 156.004 79.4482 155.902C79.6144 155.8 79.6975 155.634 79.6975 155.403V155.359C79.6975 154.8 79.5399 154.368 79.2245 154.061C78.9134 153.754 78.449 153.601 77.8311 153.601C77.1876 153.601 76.6805 153.744 76.3097 154.029C75.9433 154.31 75.6897 154.624 75.5491 154.969L73.7529 154.56C73.966 153.963 74.2771 153.482 74.6862 153.115C75.0995 152.744 75.5747 152.476 76.1116 152.31C76.6485 152.139 77.2132 152.054 77.8055 152.054C78.1975 152.054 78.613 152.101 79.0519 152.195C79.4951 152.284 79.9085 152.45 80.292 152.693C80.6798 152.936 80.9972 153.283 81.2444 153.735C81.4916 154.183 81.6151 154.764 81.6151 155.48V162H79.7487V160.658H79.672C79.5484 160.905 79.363 161.148 79.1159 161.386C78.8687 161.625 78.5512 161.823 78.1634 161.981C77.7757 162.138 77.3112 162.217 76.77 162.217ZM77.1855 160.683C77.7139 160.683 78.1656 160.579 78.5406 160.37C78.9198 160.161 79.2075 159.888 79.4035 159.552C79.6038 159.211 79.7039 158.847 79.7039 158.459V157.193C79.6357 157.261 79.5036 157.325 79.3076 157.385C79.1159 157.44 78.8964 157.489 78.6492 157.532C78.4021 157.57 78.1613 157.607 77.9269 157.641C77.6926 157.67 77.4965 157.696 77.3389 157.717C76.9681 157.764 76.6294 157.843 76.3225 157.954C76.02 158.065 75.7771 158.224 75.5938 158.433C75.4149 158.638 75.3254 158.911 75.3254 159.251C75.3254 159.724 75.5001 160.082 75.8495 160.325C76.199 160.564 76.6443 160.683 77.1855 160.683ZM84.1608 162V152.182H86.0081V153.741H86.1104C86.2893 153.213 86.6047 152.798 87.0564 152.495C87.5123 152.188 88.028 152.035 88.6032 152.035C88.7226 152.035 88.8632 152.039 89.0251 152.048C89.1913 152.056 89.3213 152.067 89.415 152.08V153.908C89.3383 153.886 89.202 153.863 89.0059 153.837C88.8099 153.808 88.6139 153.793 88.4179 153.793C87.9662 153.793 87.5635 153.888 87.2098 154.08C86.8604 154.268 86.5834 154.53 86.3788 154.866C86.1743 155.199 86.072 155.578 86.072 156.004V162H84.1608ZM94.949 162.198C93.9816 162.198 93.1485 161.991 92.4497 161.578C91.7551 161.161 91.2181 160.575 90.8389 159.82C90.4639 159.062 90.2764 158.173 90.2764 157.155C90.2764 156.149 90.4639 155.263 90.8389 154.496C91.2181 153.729 91.7465 153.13 92.4241 152.7C93.1059 152.269 93.9028 152.054 94.8147 152.054C95.3687 152.054 95.9056 152.146 96.4255 152.329C96.9454 152.512 97.412 152.8 97.8254 153.192C98.2387 153.584 98.5647 154.093 98.8034 154.719C99.042 155.342 99.1613 156.098 99.1613 156.989V157.666H91.3566V156.234H97.2884C97.2884 155.732 97.1862 155.286 96.9816 154.898C96.7771 154.506 96.4894 154.197 96.1187 153.972C95.7522 153.746 95.3218 153.633 94.8275 153.633C94.2906 153.633 93.8218 153.765 93.4213 154.029C93.0249 154.289 92.7181 154.63 92.5008 155.052C92.2877 155.469 92.1812 155.923 92.1812 156.413V157.532C92.1812 158.188 92.2963 158.746 92.5264 159.207C92.7607 159.667 93.0867 160.018 93.5044 160.261C93.922 160.5 94.4099 160.619 94.9681 160.619C95.3303 160.619 95.6606 160.568 95.9589 160.466C96.2572 160.359 96.515 160.202 96.7323 159.993C96.9497 159.784 97.1159 159.526 97.2309 159.219L99.0399 159.545C98.895 160.078 98.635 160.545 98.26 160.945C97.8893 161.342 97.4227 161.651 96.8602 161.872C96.3019 162.089 95.6649 162.198 94.949 162.198ZM9.64391 184H5.40598V170.909H9.77814C11.0608 170.909 12.1624 171.171 13.0828 171.695C14.0033 172.215 14.7085 172.963 15.1986 173.939C15.6929 174.911 15.9401 176.076 15.9401 177.435C15.9401 178.799 15.6908 179.971 15.1922 180.951C14.6979 181.931 13.982 182.685 13.0445 183.214C12.107 183.738 10.9735 184 9.64391 184ZM7.38113 182.274H9.53525C10.5324 182.274 11.3612 182.087 12.0218 181.712C12.6823 181.332 13.1766 180.785 13.5047 180.069C13.8328 179.349 13.9969 178.471 13.9969 177.435C13.9969 176.408 13.8328 175.537 13.5047 174.821C13.1808 174.105 12.6972 173.562 12.0537 173.191C11.4102 172.82 10.6112 172.635 9.65669 172.635H7.38113V182.274ZM22.4743 184.198C21.507 184.198 20.6739 183.991 19.9751 183.578C19.2805 183.161 18.7435 182.575 18.3643 181.82C17.9893 181.062 17.8018 180.173 17.8018 179.155C17.8018 178.149 17.9893 177.263 18.3643 176.496C18.7435 175.729 19.2719 175.13 19.9495 174.7C20.6313 174.269 21.4282 174.054 22.3401 174.054C22.8941 174.054 23.431 174.146 23.9509 174.329C24.4708 174.512 24.9374 174.8 25.3508 175.192C25.7641 175.584 26.0901 176.093 26.3287 176.719C26.5674 177.342 26.6867 178.098 26.6867 178.989V179.666H18.882V178.234H24.8138C24.8138 177.732 24.7116 177.286 24.507 176.898C24.3025 176.506 24.0148 176.197 23.6441 175.972C23.2776 175.746 22.8472 175.633 22.3529 175.633C21.816 175.633 21.3472 175.765 20.9466 176.029C20.5503 176.289 20.2435 176.63 20.0262 177.052C19.8131 177.469 19.7066 177.923 19.7066 178.413V179.532C19.7066 180.188 19.8216 180.746 20.0518 181.207C20.2861 181.667 20.6121 182.018 21.0297 182.261C21.4474 182.5 21.9353 182.619 22.4935 182.619C22.8557 182.619 23.186 182.568 23.4843 182.466C23.7826 182.359 24.0404 182.202 24.2577 181.993C24.4751 181.784 24.6412 181.526 24.7563 181.219L26.5653 181.545C26.4204 182.078 26.1604 182.545 25.7854 182.945C25.4147 183.342 24.9481 183.651 24.3856 183.872C23.8273 184.089 23.1903 184.198 22.4743 184.198ZM36.9252 174.182L33.3648 184H31.3193L27.7526 174.182H29.8044L32.2909 181.737H32.3932L34.8733 174.182H36.9252ZM42.6189 184.198C41.6515 184.198 40.8184 183.991 40.1196 183.578C39.425 183.161 38.8881 182.575 38.5088 181.82C38.1338 181.062 37.9463 180.173 37.9463 179.155C37.9463 178.149 38.1338 177.263 38.5088 176.496C38.8881 175.729 39.4165 175.13 40.094 174.7C40.7758 174.269 41.5727 174.054 42.4846 174.054C43.0386 174.054 43.5756 174.146 44.0954 174.329C44.6153 174.512 45.0819 174.8 45.4953 175.192C45.9086 175.584 46.2346 176.093 46.4733 176.719C46.7119 177.342 46.8312 178.098 46.8312 178.989V179.666H39.0265V178.234H44.9584C44.9584 177.732 44.8561 177.286 44.6515 176.898C44.447 176.506 44.1594 176.197 43.7886 175.972C43.4221 175.746 42.9917 175.633 42.4974 175.633C41.9605 175.633 41.4917 175.765 41.0912 176.029C40.6949 176.289 40.3881 176.63 40.1707 177.052C39.9577 177.469 39.8511 177.923 39.8511 178.413V179.532C39.8511 180.188 39.9662 180.746 40.1963 181.207C40.4307 181.667 40.7567 182.018 41.1743 182.261C41.5919 182.5 42.0798 182.619 42.6381 182.619C43.0003 182.619 43.3305 182.568 43.6288 182.466C43.9271 182.359 44.1849 182.202 44.4023 181.993C44.6196 181.784 44.7858 181.526 44.9008 181.219L46.7098 181.545C46.5649 182.078 46.305 182.545 45.93 182.945C45.5592 183.342 45.0926 183.651 44.5301 183.872C43.9719 184.089 43.3348 184.198 42.6189 184.198ZM50.863 170.909V184H48.9518V170.909H50.863ZM57.5699 184.198C56.6494 184.198 55.8461 183.987 55.1601 183.565C54.474 183.143 53.9413 182.553 53.5621 181.795C53.1828 181.036 52.9932 180.15 52.9932 179.136C52.9932 178.117 53.1828 177.227 53.5621 176.464C53.9413 175.701 54.474 175.109 55.1601 174.687C55.8461 174.265 56.6494 174.054 57.5699 174.054C58.4903 174.054 59.2936 174.265 59.9797 174.687C60.6657 175.109 61.1984 175.701 61.5777 176.464C61.9569 177.227 62.1466 178.117 62.1466 179.136C62.1466 180.15 61.9569 181.036 61.5777 181.795C61.1984 182.553 60.6657 183.143 59.9797 183.565C59.2936 183.987 58.4903 184.198 57.5699 184.198ZM57.5763 182.594C58.1729 182.594 58.6672 182.436 59.0592 182.121C59.4513 181.805 59.741 181.386 59.9285 180.862C60.1203 180.337 60.2162 179.76 60.2162 179.129C60.2162 178.503 60.1203 177.928 59.9285 177.403C59.741 176.875 59.4513 176.451 59.0592 176.131C58.6672 175.812 58.1729 175.652 57.5763 175.652C56.9754 175.652 56.4768 175.812 56.0805 176.131C55.6885 176.451 55.3966 176.875 55.2048 177.403C55.0173 177.928 54.9236 178.503 54.9236 179.129C54.9236 179.76 55.0173 180.337 55.2048 180.862C55.3966 181.386 55.6885 181.805 56.0805 182.121C56.4768 182.436 56.9754 182.594 57.5763 182.594ZM64.2799 187.682V174.182H66.1464V175.773H66.3062C66.417 175.569 66.5768 175.332 66.7856 175.064C66.9944 174.795 67.2842 174.561 67.6549 174.361C68.0257 174.156 68.5157 174.054 69.1251 174.054C69.9177 174.054 70.6251 174.254 71.2472 174.655C71.8694 175.055 72.3573 175.633 72.711 176.387C73.069 177.141 73.248 178.049 73.248 179.11C73.248 180.171 73.0711 181.081 72.7174 181.839C72.3637 182.594 71.8779 183.175 71.26 183.585C70.6421 183.989 69.9369 184.192 69.1443 184.192C68.5477 184.192 68.0597 184.092 67.6805 183.891C67.3055 183.691 67.0115 183.457 66.7984 183.188C66.5853 182.92 66.4213 182.681 66.3062 182.472H66.1911V187.682H64.2799ZM66.1528 179.091C66.1528 179.781 66.2529 180.386 66.4532 180.906C66.6535 181.426 66.9433 181.833 67.3225 182.127C67.7018 182.417 68.1663 182.562 68.716 182.562C69.287 182.562 69.7643 182.411 70.1478 182.108C70.5313 181.801 70.8211 181.386 71.0171 180.862C71.2174 180.337 71.3176 179.747 71.3176 179.091C71.3176 178.443 71.2195 177.862 71.0235 177.346C70.8318 176.83 70.542 176.423 70.1542 176.125C69.7707 175.827 69.2913 175.678 68.716 175.678C68.162 175.678 67.6933 175.82 67.3097 176.106C66.9305 176.391 66.6428 176.79 66.4468 177.301C66.2508 177.812 66.1528 178.409 66.1528 179.091ZM75.3893 184V174.182H77.2238V175.78H77.3453C77.5498 175.239 77.8843 174.817 78.3488 174.514C78.8133 174.207 79.3694 174.054 80.0171 174.054C80.6734 174.054 81.2231 174.207 81.6663 174.514C82.1137 174.821 82.444 175.243 82.657 175.78H82.7593C82.9937 175.256 83.3666 174.838 83.8779 174.527C84.3893 174.212 84.9987 174.054 85.7061 174.054C86.5967 174.054 87.3232 174.333 87.8857 174.891C88.4525 175.45 88.7359 176.291 88.7359 177.416V184H86.8247V177.595C86.8247 176.93 86.6436 176.449 86.2813 176.151C85.9191 175.852 85.4866 175.703 84.9838 175.703C84.3616 175.703 83.8779 175.895 83.5328 176.278C83.1876 176.658 83.015 177.146 83.015 177.742V184H81.1102V177.474C81.1102 176.941 80.944 176.513 80.6116 176.189C80.2792 175.865 79.8467 175.703 79.314 175.703C78.9518 175.703 78.6173 175.799 78.3105 175.991C78.0079 176.178 77.7629 176.44 77.5754 176.777C77.3921 177.114 77.3005 177.504 77.3005 177.947V184H75.3893ZM95.529 184.198C94.5617 184.198 93.7286 183.991 93.0297 183.578C92.3351 183.161 91.7982 182.575 91.4189 181.82C91.0439 181.062 90.8564 180.173 90.8564 179.155C90.8564 178.149 91.0439 177.263 91.4189 176.496C91.7982 175.729 92.3266 175.13 93.0042 174.7C93.686 174.269 94.4829 174.054 95.3948 174.054C95.9488 174.054 96.4857 174.146 97.0056 174.329C97.5255 174.512 97.9921 174.8 98.4055 175.192C98.8188 175.584 99.1448 176.093 99.3834 176.719C99.6221 177.342 99.7414 178.098 99.7414 178.989V179.666H91.9367V178.234H97.8685C97.8685 177.732 97.7662 177.286 97.5617 176.898C97.3572 176.506 97.0695 176.197 96.6988 175.972C96.3323 175.746 95.9019 175.633 95.4076 175.633C94.8706 175.633 94.4019 175.765 94.0013 176.029C93.605 176.289 93.2982 176.63 93.0809 177.052C92.8678 177.469 92.7613 177.923 92.7613 178.413V179.532C92.7613 180.188 92.8763 180.746 93.1064 181.207C93.3408 181.667 93.6668 182.018 94.0844 182.261C94.502 182.5 94.99 182.619 95.5482 182.619C95.9104 182.619 96.2407 182.568 96.539 182.466C96.8373 182.359 97.0951 182.202 97.3124 181.993C97.5297 181.784 97.6959 181.526 97.811 181.219L99.6199 181.545C99.4751 182.078 99.2151 182.545 98.8401 182.945C98.4694 183.342 98.0028 183.651 97.4403 183.872C96.882 184.089 96.2449 184.198 95.529 184.198ZM103.773 178.17V184H101.862V174.182H103.696V175.78H103.818C104.044 175.26 104.397 174.842 104.879 174.527C105.365 174.212 105.976 174.054 106.714 174.054C107.383 174.054 107.968 174.195 108.471 174.476C108.974 174.753 109.364 175.166 109.641 175.716C109.918 176.266 110.057 176.945 110.057 177.755V184H108.145V177.985C108.145 177.273 107.96 176.717 107.589 176.317C107.218 175.912 106.709 175.71 106.062 175.71C105.618 175.71 105.224 175.805 104.879 175.997C104.538 176.189 104.267 176.47 104.067 176.841C103.871 177.207 103.773 177.651 103.773 178.17ZM117.203 174.182V175.716H111.84V174.182H117.203ZM113.278 171.83H115.189V181.117C115.189 181.488 115.245 181.767 115.356 181.955C115.466 182.138 115.609 182.263 115.784 182.332C115.963 182.396 116.157 182.428 116.366 182.428C116.519 182.428 116.653 182.417 116.768 182.396C116.883 182.374 116.973 182.357 117.037 182.344L117.382 183.923C117.271 183.966 117.113 184.009 116.909 184.051C116.704 184.098 116.449 184.124 116.142 184.128C115.639 184.136 115.17 184.047 114.736 183.859C114.301 183.672 113.949 183.382 113.681 182.99C113.412 182.598 113.278 182.106 113.278 181.513V171.83Z" fill="#545454"/>
<path d="M189.34 307H185.102V293.909H189.474C190.757 293.909 191.859 294.171 192.779 294.695C193.7 295.215 194.405 295.963 194.895 296.939C195.389 297.911 195.636 299.076 195.636 300.435C195.636 301.799 195.387 302.971 194.888 303.951C194.394 304.931 193.678 305.685 192.741 306.214C191.803 306.738 190.67 307 189.34 307ZM187.077 305.274H189.232C190.229 305.274 191.058 305.087 191.718 304.712C192.379 304.332 192.873 303.785 193.201 303.069C193.529 302.349 193.693 301.471 193.693 300.435C193.693 299.408 193.529 298.537 193.201 297.821C192.877 297.105 192.393 296.562 191.75 296.191C191.107 295.82 190.308 295.635 189.353 295.635H187.077V305.274ZM200.796 307.217C200.174 307.217 199.612 307.102 199.109 306.872C198.606 306.638 198.208 306.299 197.914 305.856C197.624 305.413 197.479 304.869 197.479 304.226C197.479 303.672 197.585 303.216 197.798 302.858C198.012 302.5 198.299 302.217 198.661 302.008C199.024 301.799 199.428 301.641 199.876 301.535C200.323 301.428 200.779 301.347 201.244 301.292C201.832 301.224 202.309 301.168 202.676 301.126C203.042 301.079 203.308 301.004 203.475 300.902C203.641 300.8 203.724 300.634 203.724 300.403V300.359C203.724 299.8 203.566 299.368 203.251 299.061C202.94 298.754 202.475 298.601 201.857 298.601C201.214 298.601 200.707 298.744 200.336 299.029C199.97 299.31 199.716 299.624 199.575 299.969L197.779 299.56C197.992 298.963 198.303 298.482 198.713 298.115C199.126 297.744 199.601 297.476 200.138 297.31C200.675 297.139 201.24 297.054 201.832 297.054C202.224 297.054 202.639 297.101 203.078 297.195C203.521 297.284 203.935 297.45 204.318 297.693C204.706 297.936 205.024 298.283 205.271 298.735C205.518 299.183 205.642 299.764 205.642 300.48V307H203.775V305.658H203.698C203.575 305.905 203.389 306.148 203.142 306.386C202.895 306.625 202.578 306.823 202.19 306.981C201.802 307.138 201.338 307.217 200.796 307.217ZM201.212 305.683C201.74 305.683 202.192 305.579 202.567 305.37C202.946 305.161 203.234 304.888 203.43 304.552C203.63 304.211 203.73 303.847 203.73 303.459V302.193C203.662 302.261 203.53 302.325 203.334 302.385C203.142 302.44 202.923 302.489 202.676 302.532C202.428 302.57 202.188 302.607 201.953 302.641C201.719 302.67 201.523 302.696 201.365 302.717C200.994 302.764 200.656 302.843 200.349 302.954C200.046 303.065 199.803 303.224 199.62 303.433C199.441 303.638 199.352 303.911 199.352 304.251C199.352 304.724 199.526 305.082 199.876 305.325C200.225 305.564 200.671 305.683 201.212 305.683ZM212.77 297.182V298.716H207.407V297.182H212.77ZM208.846 294.83H210.757V304.117C210.757 304.488 210.812 304.767 210.923 304.955C211.034 305.138 211.176 305.263 211.351 305.332C211.53 305.396 211.724 305.428 211.933 305.428C212.086 305.428 212.221 305.417 212.336 305.396C212.451 305.374 212.54 305.357 212.604 305.344L212.949 306.923C212.838 306.966 212.681 307.009 212.476 307.051C212.272 307.098 212.016 307.124 211.709 307.128C211.206 307.136 210.738 307.047 210.303 306.859C209.868 306.672 209.517 306.382 209.248 305.99C208.98 305.598 208.846 305.106 208.846 304.513V294.83ZM217.742 307.217C217.119 307.217 216.557 307.102 216.054 306.872C215.551 306.638 215.153 306.299 214.859 305.856C214.569 305.413 214.424 304.869 214.424 304.226C214.424 303.672 214.531 303.216 214.744 302.858C214.957 302.5 215.244 302.217 215.607 302.008C215.969 301.799 216.374 301.641 216.821 301.535C217.269 301.428 217.725 301.347 218.189 301.292C218.777 301.224 219.254 301.168 219.621 301.126C219.987 301.079 220.254 301.004 220.42 300.902C220.586 300.8 220.669 300.634 220.669 300.403V300.359C220.669 299.8 220.512 299.368 220.196 299.061C219.885 298.754 219.421 298.601 218.803 298.601C218.159 298.601 217.652 298.744 217.281 299.029C216.915 299.31 216.661 299.624 216.521 299.969L214.725 299.56C214.938 298.963 215.249 298.482 215.658 298.115C216.071 297.744 216.546 297.476 217.083 297.31C217.62 297.139 218.185 297.054 218.777 297.054C219.169 297.054 219.585 297.101 220.024 297.195C220.467 297.284 220.88 297.45 221.264 297.693C221.651 297.936 221.969 298.283 222.216 298.735C222.463 299.183 222.587 299.764 222.587 300.48V307H220.72V305.658H220.644C220.52 305.905 220.335 306.148 220.088 306.386C219.84 306.625 219.523 306.823 219.135 306.981C218.747 307.138 218.283 307.217 217.742 307.217ZM218.157 305.683C218.686 305.683 219.137 305.579 219.512 305.37C219.892 305.161 220.179 304.888 220.375 304.552C220.575 304.211 220.676 303.847 220.676 303.459V302.193C220.607 302.261 220.475 302.325 220.279 302.385C220.088 302.44 219.868 302.489 219.621 302.532C219.374 302.57 219.133 302.607 218.899 302.641C218.664 302.67 218.468 302.696 218.311 302.717C217.94 302.764 217.601 302.843 217.294 302.954C216.992 303.065 216.749 303.224 216.566 303.433C216.387 303.638 216.297 303.911 216.297 304.251C216.297 304.724 216.472 305.082 216.821 305.325C217.171 305.564 217.616 305.683 218.157 305.683ZM233.706 307.185C232.828 307.185 232.072 307.026 231.437 306.706C230.806 306.386 230.32 305.952 229.979 305.402C229.638 304.848 229.468 304.222 229.468 303.523C229.468 302.99 229.579 302.517 229.8 302.104C230.022 301.686 230.331 301.3 230.727 300.947C231.123 300.593 231.581 300.237 232.101 299.879L234.211 298.39C234.569 298.156 234.848 297.908 235.048 297.648C235.248 297.384 235.349 297.058 235.349 296.67C235.349 296.364 235.216 296.07 234.952 295.788C234.688 295.507 234.334 295.366 233.891 295.366C233.584 295.366 233.314 295.441 233.079 295.59C232.849 295.739 232.668 295.931 232.536 296.165C232.408 296.396 232.344 296.638 232.344 296.894C232.344 297.192 232.425 297.493 232.587 297.795C232.753 298.098 232.966 298.411 233.226 298.735C233.486 299.055 233.759 299.387 234.045 299.732L240.123 307H237.963L232.932 301.087C232.51 300.589 232.118 300.12 231.756 299.681C231.394 299.238 231.1 298.79 230.874 298.339C230.653 297.883 230.542 297.391 230.542 296.862C230.542 296.261 230.678 295.729 230.951 295.264C231.228 294.795 231.613 294.429 232.108 294.165C232.602 293.901 233.182 293.768 233.846 293.768C234.52 293.768 235.097 293.901 235.579 294.165C236.064 294.425 236.437 294.772 236.697 295.207C236.961 295.637 237.094 296.108 237.094 296.619C237.094 297.241 236.938 297.791 236.627 298.268C236.32 298.741 235.896 299.176 235.355 299.572L232.728 301.509C232.216 301.884 231.861 302.255 231.66 302.621C231.464 302.984 231.366 303.267 231.366 303.472C231.366 303.847 231.462 304.194 231.654 304.513C231.85 304.833 232.123 305.089 232.472 305.281C232.826 305.472 233.239 305.568 233.712 305.568C234.198 305.568 234.671 305.464 235.131 305.255C235.596 305.042 236.015 304.737 236.39 304.341C236.77 303.945 237.07 303.469 237.292 302.915C237.513 302.362 237.624 301.741 237.624 301.055H239.35C239.35 301.899 239.254 302.613 239.062 303.197C238.871 303.776 238.638 304.249 238.366 304.616C238.097 304.978 237.844 305.261 237.605 305.466C237.528 305.534 237.456 305.602 237.388 305.67C237.319 305.739 237.247 305.807 237.17 305.875C236.727 306.322 236.19 306.653 235.559 306.866C234.933 307.079 234.315 307.185 233.706 307.185ZM174.879 329H172.782L177.493 315.909H179.775L184.486 329H182.39L178.689 318.287H178.586L174.879 329ZM175.231 323.874H182.032V325.536H175.231V323.874ZM188.134 323.17V329H186.223V319.182H188.058V320.78H188.179C188.405 320.26 188.759 319.842 189.24 319.527C189.726 319.212 190.338 319.054 191.075 319.054C191.744 319.054 192.33 319.195 192.833 319.476C193.335 319.753 193.725 320.166 194.002 320.716C194.279 321.266 194.418 321.945 194.418 322.755V329H192.507V322.985C192.507 322.273 192.321 321.717 191.951 321.317C191.58 320.912 191.071 320.71 190.423 320.71C189.98 320.71 189.585 320.805 189.24 320.997C188.899 321.189 188.629 321.47 188.429 321.841C188.233 322.207 188.134 322.651 188.134 323.17ZM199.838 329.217C199.216 329.217 198.654 329.102 198.151 328.872C197.648 328.638 197.25 328.299 196.956 327.856C196.666 327.413 196.521 326.869 196.521 326.226C196.521 325.672 196.627 325.216 196.84 324.858C197.054 324.5 197.341 324.217 197.703 324.008C198.066 323.799 198.47 323.641 198.918 323.535C199.365 323.428 199.821 323.347 200.286 323.292C200.874 323.224 201.351 323.168 201.718 323.126C202.084 323.079 202.35 323.004 202.517 322.902C202.683 322.8 202.766 322.634 202.766 322.403V322.359C202.766 321.8 202.608 321.368 202.293 321.061C201.982 320.754 201.517 320.601 200.899 320.601C200.256 320.601 199.749 320.744 199.378 321.029C199.012 321.31 198.758 321.624 198.617 321.969L196.821 321.56C197.034 320.963 197.345 320.482 197.755 320.115C198.168 319.744 198.643 319.476 199.18 319.31C199.717 319.139 200.282 319.054 200.874 319.054C201.266 319.054 201.681 319.101 202.12 319.195C202.563 319.284 202.977 319.45 203.36 319.693C203.748 319.936 204.066 320.283 204.313 320.735C204.56 321.183 204.684 321.764 204.684 322.48V329H202.817V327.658H202.74C202.617 327.905 202.431 328.148 202.184 328.386C201.937 328.625 201.62 328.823 201.232 328.981C200.844 329.138 200.38 329.217 199.838 329.217ZM200.254 327.683C200.782 327.683 201.234 327.579 201.609 327.37C201.988 327.161 202.276 326.888 202.472 326.552C202.672 326.211 202.772 325.847 202.772 325.459V324.193C202.704 324.261 202.572 324.325 202.376 324.385C202.184 324.44 201.965 324.489 201.718 324.532C201.47 324.57 201.23 324.607 200.995 324.641C200.761 324.67 200.565 324.696 200.407 324.717C200.036 324.764 199.698 324.843 199.391 324.954C199.088 325.065 198.845 325.224 198.662 325.433C198.483 325.638 198.394 325.911 198.394 326.251C198.394 326.724 198.568 327.082 198.918 327.325C199.267 327.564 199.713 327.683 200.254 327.683ZM209.14 315.909V329H207.229V315.909H209.14ZM212.92 332.682C212.634 332.682 212.374 332.658 212.14 332.612C211.905 332.569 211.731 332.522 211.616 332.471L212.076 330.905C212.425 330.999 212.736 331.039 213.009 331.026C213.282 331.013 213.523 330.911 213.731 330.719C213.945 330.528 214.132 330.214 214.294 329.78L214.53 329.128L210.938 319.182H212.984L215.47 326.801H215.572L218.059 319.182H220.111L216.065 330.31C215.877 330.822 215.638 331.254 215.349 331.608C215.059 331.966 214.714 332.234 214.313 332.413C213.913 332.592 213.448 332.682 212.92 332.682ZM226.49 319.182V320.716H221.127V319.182H226.49ZM222.565 316.83H224.476V326.117C224.476 326.488 224.532 326.767 224.643 326.955C224.753 327.138 224.896 327.263 225.071 327.332C225.25 327.396 225.444 327.428 225.653 327.428C225.806 327.428 225.94 327.417 226.055 327.396C226.17 327.374 226.26 327.357 226.324 327.344L226.669 328.923C226.558 328.966 226.4 329.009 226.196 329.051C225.991 329.098 225.736 329.124 225.429 329.128C224.926 329.136 224.457 329.047 224.023 328.859C223.588 328.672 223.236 328.382 222.968 327.99C222.699 327.598 222.565 327.106 222.565 326.513V316.83ZM228.604 329V319.182H230.515V329H228.604ZM229.569 317.667C229.237 317.667 228.951 317.556 228.713 317.335C228.478 317.109 228.361 316.84 228.361 316.529C228.361 316.214 228.478 315.945 228.713 315.724C228.951 315.498 229.237 315.385 229.569 315.385C229.902 315.385 230.185 315.498 230.419 315.724C230.658 315.945 230.777 316.214 230.777 316.529C230.777 316.84 230.658 317.109 230.419 317.335C230.185 317.556 229.902 317.667 229.569 317.667ZM237.222 329.198C236.272 329.198 235.454 328.983 234.768 328.553C234.086 328.118 233.562 327.519 233.195 326.756C232.829 325.994 232.646 325.12 232.646 324.136C232.646 323.138 232.833 322.259 233.208 321.496C233.583 320.729 234.111 320.13 234.793 319.7C235.475 319.269 236.278 319.054 237.203 319.054C237.949 319.054 238.614 319.192 239.197 319.469C239.781 319.742 240.252 320.126 240.61 320.62C240.972 321.114 241.187 321.692 241.256 322.352H239.396C239.293 321.892 239.059 321.496 238.692 321.163C238.33 320.831 237.844 320.665 237.235 320.665C236.702 320.665 236.236 320.805 235.835 321.087C235.439 321.364 235.13 321.76 234.908 322.276C234.687 322.787 234.576 323.392 234.576 324.091C234.576 324.807 234.685 325.425 234.902 325.945C235.119 326.464 235.426 326.867 235.822 327.153C236.223 327.438 236.694 327.581 237.235 327.581C237.597 327.581 237.925 327.515 238.219 327.383C238.518 327.246 238.767 327.053 238.967 326.801C239.172 326.55 239.315 326.247 239.396 325.893H241.256C241.187 326.528 240.981 327.095 240.636 327.594C240.29 328.092 239.828 328.484 239.248 328.77C238.673 329.055 237.998 329.198 237.222 329.198ZM250.657 321.579L248.924 321.886C248.852 321.664 248.737 321.453 248.579 321.253C248.426 321.053 248.217 320.888 247.953 320.761C247.689 320.633 247.358 320.569 246.962 320.569C246.421 320.569 245.969 320.69 245.607 320.933C245.245 321.172 245.064 321.481 245.064 321.86C245.064 322.188 245.185 322.452 245.428 322.653C245.671 322.853 246.063 323.017 246.604 323.145L248.164 323.503C249.067 323.712 249.741 324.033 250.184 324.468C250.627 324.903 250.848 325.467 250.848 326.162C250.848 326.75 250.678 327.274 250.337 327.734C250 328.19 249.53 328.548 248.924 328.808C248.324 329.068 247.627 329.198 246.834 329.198C245.735 329.198 244.838 328.964 244.143 328.495C243.449 328.022 243.022 327.351 242.865 326.482L244.712 326.2C244.827 326.682 245.064 327.046 245.422 327.293C245.78 327.536 246.246 327.658 246.821 327.658C247.448 327.658 247.949 327.528 248.324 327.268C248.699 327.004 248.886 326.682 248.886 326.303C248.886 325.996 248.771 325.738 248.541 325.529C248.315 325.32 247.968 325.163 247.499 325.056L245.837 324.692C244.921 324.483 244.243 324.151 243.804 323.695C243.37 323.239 243.152 322.661 243.152 321.962C243.152 321.383 243.314 320.876 243.638 320.441C243.962 320.006 244.41 319.668 244.981 319.425C245.552 319.178 246.206 319.054 246.943 319.054C248.004 319.054 248.839 319.284 249.449 319.744C250.058 320.2 250.461 320.812 250.657 321.579Z" fill="#545454"/>
<path d="M353.67 66.9091H356.067L360.234 77.0852H360.388L364.555 66.9091H366.952V80H365.073V70.527H364.952L361.091 79.9808H359.531L355.67 70.5206H355.549V80H353.67V66.9091ZM372.528 80.2173C371.906 80.2173 371.343 80.1023 370.84 79.8722C370.337 79.6378 369.939 79.299 369.645 78.8558C369.355 78.4126 369.21 77.8693 369.21 77.2259C369.21 76.6719 369.317 76.2159 369.53 75.858C369.743 75.5 370.031 75.2166 370.393 75.0078C370.755 74.799 371.16 74.6413 371.607 74.5348C372.055 74.4283 372.511 74.3473 372.975 74.2919C373.563 74.2237 374.041 74.1683 374.407 74.1257C374.774 74.0788 375.04 74.0043 375.206 73.902C375.372 73.7997 375.455 73.6335 375.455 73.4034V73.3587C375.455 72.8004 375.298 72.3679 374.982 72.0611C374.671 71.7543 374.207 71.6009 373.589 71.6009C372.945 71.6009 372.438 71.7436 372.068 72.0291C371.701 72.3104 371.448 72.6236 371.307 72.9688L369.511 72.5597C369.724 71.9631 370.035 71.4815 370.444 71.1151C370.857 70.7443 371.332 70.4759 371.869 70.3097C372.406 70.1392 372.971 70.054 373.563 70.054C373.955 70.054 374.371 70.1009 374.81 70.1946C375.253 70.2841 375.666 70.4503 376.05 70.6932C376.438 70.9361 376.755 71.2834 377.002 71.7351C377.249 72.1825 377.373 72.7642 377.373 73.4801V80H375.506V78.6577H375.43C375.306 78.9048 375.121 79.1477 374.874 79.3864C374.627 79.625 374.309 79.8232 373.921 79.9808C373.533 80.1385 373.069 80.2173 372.528 80.2173ZM372.943 78.6832C373.472 78.6832 373.923 78.5788 374.298 78.37C374.678 78.1612 374.965 77.8885 375.161 77.5518C375.362 77.2109 375.462 76.8466 375.462 76.4588V75.1932C375.394 75.2614 375.261 75.3253 375.065 75.3849C374.874 75.4403 374.654 75.4893 374.407 75.532C374.16 75.5703 373.919 75.6065 373.685 75.6406C373.45 75.6705 373.254 75.696 373.097 75.7173C372.726 75.7642 372.387 75.843 372.08 75.9538C371.778 76.0646 371.535 76.2244 371.352 76.4332C371.173 76.6378 371.083 76.9105 371.083 77.2514C371.083 77.7244 371.258 78.0824 371.607 78.3253C371.957 78.5639 372.402 78.6832 372.943 78.6832ZM379.919 80V70.1818H381.766V71.7415H381.868C382.047 71.2131 382.362 70.7976 382.814 70.495C383.27 70.1882 383.786 70.0348 384.361 70.0348C384.48 70.0348 384.621 70.0391 384.783 70.0476C384.949 70.0561 385.079 70.0668 385.173 70.0795V71.9077C385.096 71.8864 384.96 71.8629 384.764 71.8374C384.568 71.8075 384.372 71.7926 384.176 71.7926C383.724 71.7926 383.321 71.8885 382.968 72.0803C382.618 72.2678 382.341 72.5298 382.137 72.8665C381.932 73.1989 381.83 73.5781 381.83 74.0043V80H379.919ZM388.585 76.6697L388.572 74.3366H388.904L392.816 70.1818H395.104L390.643 74.9119H390.342L388.585 76.6697ZM386.827 80V66.9091H388.738V80H386.827ZM393.027 80L389.511 75.3338L390.828 73.9979L395.373 80H393.027ZM400.674 80.1982C399.706 80.1982 398.873 79.9915 398.174 79.5781C397.48 79.1605 396.943 78.5746 396.563 77.8203C396.188 77.0618 396.001 76.1733 396.001 75.1548C396.001 74.1491 396.188 73.2628 396.563 72.4957C396.943 71.7287 397.471 71.13 398.149 70.6996C398.831 70.2692 399.627 70.054 400.539 70.054C401.093 70.054 401.63 70.1456 402.15 70.3288C402.67 70.5121 403.137 70.7997 403.55 71.1918C403.963 71.5838 404.289 72.093 404.528 72.7195C404.767 73.3416 404.886 74.098 404.886 74.9886V75.6662H397.081V74.2344H403.013C403.013 73.7315 402.911 73.2862 402.706 72.8984C402.502 72.5064 402.214 72.1974 401.843 71.9716C401.477 71.7457 401.046 71.6328 400.552 71.6328C400.015 71.6328 399.546 71.7649 399.146 72.0291C398.75 72.2891 398.443 72.63 398.225 73.0518C398.012 73.4695 397.906 73.9233 397.906 74.4134V75.532C397.906 76.1882 398.021 76.7464 398.251 77.2067C398.485 77.6669 398.811 78.0185 399.229 78.2614C399.647 78.5 400.134 78.6193 400.693 78.6193C401.055 78.6193 401.385 78.5682 401.684 78.4659C401.982 78.3594 402.24 78.2017 402.457 77.9929C402.674 77.7841 402.84 77.5263 402.956 77.2195L404.764 77.5455C404.62 78.0781 404.36 78.5447 403.985 78.9453C403.614 79.3416 403.147 79.6506 402.585 79.8722C402.027 80.0895 401.389 80.1982 400.674 80.1982ZM411.59 70.1818V71.7159H406.227V70.1818H411.59ZM407.665 67.8295H409.576V77.1172C409.576 77.4879 409.631 77.767 409.742 77.9545C409.853 78.1378 409.996 78.2635 410.171 78.3317C410.35 78.3956 410.543 78.4276 410.752 78.4276C410.906 78.4276 411.04 78.4169 411.155 78.3956C411.27 78.3743 411.359 78.3572 411.423 78.3445L411.769 79.9233C411.658 79.9659 411.5 80.0085 411.296 80.0511C411.091 80.098 410.835 80.1236 410.528 80.1278C410.026 80.1364 409.557 80.0469 409.122 79.8594C408.688 79.6719 408.336 79.3821 408.068 78.9901C407.799 78.598 407.665 78.1058 407.665 77.5135V67.8295ZM413.704 80V70.1818H415.615V80H413.704ZM414.669 68.6669C414.337 68.6669 414.051 68.5561 413.812 68.3345C413.578 68.1087 413.461 67.8402 413.461 67.5291C413.461 67.2138 413.578 66.9453 413.812 66.7237C414.051 66.4979 414.337 66.3849 414.669 66.3849C415.001 66.3849 415.285 66.4979 415.519 66.7237C415.758 66.9453 415.877 67.2138 415.877 67.5291C415.877 67.8402 415.758 68.1087 415.519 68.3345C415.285 68.5561 415.001 68.6669 414.669 68.6669ZM420.097 74.1705V80H418.186V70.1818H420.021V71.7798H420.142C420.368 71.2599 420.722 70.8423 421.203 70.527C421.689 70.2116 422.301 70.054 423.038 70.054C423.707 70.054 424.293 70.1946 424.796 70.4759C425.298 70.7528 425.688 71.1662 425.965 71.7159C426.242 72.2656 426.381 72.9453 426.381 73.755V80H424.47V73.9851C424.47 73.2734 424.284 72.7173 423.913 72.3168C423.543 71.9119 423.033 71.7095 422.386 71.7095C421.943 71.7095 421.548 71.8054 421.203 71.9972C420.862 72.1889 420.592 72.4702 420.391 72.8409C420.195 73.2074 420.097 73.6506 420.097 74.1705ZM433.06 83.8864C432.281 83.8864 431.609 83.7841 431.047 83.5795C430.489 83.375 430.033 83.1044 429.679 82.7678C429.325 82.4311 429.061 82.0625 428.886 81.6619L430.529 80.9844C430.644 81.1719 430.798 81.37 430.989 81.5788C431.185 81.7919 431.45 81.973 431.782 82.1222C432.119 82.2713 432.551 82.3459 433.08 82.3459C433.804 82.3459 434.403 82.169 434.876 81.8153C435.349 81.4659 435.585 80.9077 435.585 80.1406V78.2102H435.464C435.349 78.419 435.183 78.6513 434.965 78.907C434.752 79.1626 434.458 79.3842 434.083 79.5717C433.708 79.7592 433.22 79.853 432.619 79.853C431.844 79.853 431.145 79.6719 430.523 79.3097C429.905 78.9432 429.415 78.4041 429.053 77.6925C428.695 76.9766 428.516 76.0966 428.516 75.0526C428.516 74.0085 428.693 73.1136 429.046 72.3679C429.404 71.6222 429.894 71.0511 430.516 70.6548C431.139 70.2543 431.844 70.054 432.632 70.054C433.242 70.054 433.734 70.1562 434.109 70.3608C434.484 70.5611 434.776 70.7955 434.984 71.0639C435.198 71.3324 435.362 71.5689 435.477 71.7734H435.617V70.1818H437.49V80.2173C437.49 81.0611 437.294 81.7536 436.902 82.2947C436.51 82.8359 435.979 83.2365 435.31 83.4964C434.646 83.7564 433.896 83.8864 433.06 83.8864ZM433.041 78.2678C433.591 78.2678 434.055 78.1399 434.435 77.8842C434.818 77.6243 435.108 77.2536 435.304 76.772C435.504 76.2862 435.604 75.7045 435.604 75.027C435.604 74.3665 435.506 73.7848 435.31 73.282C435.114 72.7791 434.827 72.3871 434.448 72.1058C434.068 71.8203 433.6 71.6776 433.041 71.6776C432.466 71.6776 431.987 71.8267 431.603 72.125C431.22 72.419 430.93 72.8196 430.734 73.3267C430.542 73.8338 430.446 74.4006 430.446 75.027C430.446 75.6705 430.544 76.2351 430.74 76.7209C430.936 77.2067 431.226 77.5859 431.609 77.8587C431.997 78.1314 432.475 78.2678 433.041 78.2678Z" fill="#545454"/>
<path d="M378.039 241V227.909H382.705C383.723 227.909 384.567 228.094 385.236 228.465C385.905 228.836 386.406 229.343 386.738 229.987C387.071 230.626 387.237 231.346 387.237 232.147C387.237 232.952 387.069 233.677 386.732 234.32C386.4 234.96 385.897 235.467 385.223 235.842C384.554 236.212 383.713 236.398 382.699 236.398H379.49V234.723H382.52C383.163 234.723 383.685 234.612 384.086 234.391C384.486 234.165 384.78 233.858 384.968 233.47C385.155 233.082 385.249 232.641 385.249 232.147C385.249 231.653 385.155 231.214 384.968 230.83C384.78 230.447 384.484 230.146 384.079 229.929C383.679 229.712 383.15 229.603 382.494 229.603H380.014V241H378.039ZM389.399 241V231.182H391.246V232.741H391.349C391.528 232.213 391.843 231.798 392.295 231.495C392.751 231.188 393.266 231.035 393.842 231.035C393.961 231.035 394.101 231.039 394.263 231.048C394.43 231.056 394.56 231.067 394.653 231.08V232.908C394.577 232.886 394.44 232.863 394.244 232.837C394.048 232.808 393.852 232.793 393.656 232.793C393.204 232.793 392.802 232.888 392.448 233.08C392.099 233.268 391.822 233.53 391.617 233.866C391.413 234.199 391.31 234.578 391.31 235.004V241H389.399ZM400.091 241.198C399.171 241.198 398.368 240.987 397.682 240.565C396.995 240.143 396.463 239.553 396.084 238.795C395.704 238.036 395.515 237.15 395.515 236.136C395.515 235.117 395.704 234.227 396.084 233.464C396.463 232.701 396.995 232.109 397.682 231.687C398.368 231.265 399.171 231.054 400.091 231.054C401.012 231.054 401.815 231.265 402.501 231.687C403.187 232.109 403.72 232.701 404.099 233.464C404.478 234.227 404.668 235.117 404.668 236.136C404.668 237.15 404.478 238.036 404.099 238.795C403.72 239.553 403.187 240.143 402.501 240.565C401.815 240.987 401.012 241.198 400.091 241.198ZM400.098 239.594C400.694 239.594 401.189 239.436 401.581 239.121C401.973 238.805 402.263 238.386 402.45 237.862C402.642 237.337 402.738 236.76 402.738 236.129C402.738 235.503 402.642 234.928 402.45 234.403C402.263 233.875 401.973 233.451 401.581 233.131C401.189 232.812 400.694 232.652 400.098 232.652C399.497 232.652 398.998 232.812 398.602 233.131C398.21 233.451 397.918 233.875 397.726 234.403C397.539 234.928 397.445 235.503 397.445 236.129C397.445 236.76 397.539 237.337 397.726 237.862C397.918 238.386 398.21 238.805 398.602 239.121C398.998 239.436 399.497 239.594 400.098 239.594ZM410.477 241.192C409.684 241.192 408.977 240.989 408.355 240.585C407.737 240.175 407.251 239.594 406.897 238.839C406.548 238.081 406.373 237.171 406.373 236.11C406.373 235.049 406.55 234.141 406.904 233.387C407.262 232.633 407.752 232.055 408.374 231.655C408.996 231.254 409.701 231.054 410.49 231.054C411.099 231.054 411.589 231.156 411.96 231.361C412.335 231.561 412.625 231.795 412.829 232.064C413.038 232.332 413.2 232.569 413.315 232.773H413.43V227.909H415.341V241H413.475V239.472H413.315C413.2 239.681 413.034 239.92 412.816 240.188C412.603 240.457 412.309 240.691 411.934 240.891C411.559 241.092 411.073 241.192 410.477 241.192ZM410.899 239.562C411.448 239.562 411.913 239.417 412.292 239.127C412.676 238.833 412.965 238.426 413.161 237.906C413.362 237.386 413.462 236.781 413.462 236.091C413.462 235.409 413.364 234.812 413.168 234.301C412.972 233.79 412.684 233.391 412.305 233.106C411.926 232.82 411.457 232.678 410.899 232.678C410.323 232.678 409.844 232.827 409.46 233.125C409.077 233.423 408.787 233.83 408.591 234.346C408.399 234.862 408.304 235.443 408.304 236.091C408.304 236.747 408.402 237.337 408.598 237.862C408.794 238.386 409.083 238.801 409.467 239.108C409.855 239.411 410.332 239.562 410.899 239.562ZM424.288 236.928V231.182H426.206V241H424.327V239.3H424.225C423.999 239.824 423.636 240.261 423.138 240.61C422.644 240.955 422.028 241.128 421.291 241.128C420.66 241.128 420.102 240.989 419.616 240.712C419.134 240.431 418.755 240.016 418.478 239.466C418.205 238.916 418.069 238.237 418.069 237.427V231.182H419.98V237.197C419.98 237.866 420.166 238.398 420.536 238.795C420.907 239.191 421.389 239.389 421.981 239.389C422.339 239.389 422.695 239.3 423.048 239.121C423.406 238.942 423.703 238.671 423.937 238.309C424.176 237.947 424.293 237.487 424.288 236.928ZM432.91 241.198C431.959 241.198 431.141 240.983 430.455 240.553C429.773 240.118 429.249 239.519 428.883 238.756C428.516 237.994 428.333 237.12 428.333 236.136C428.333 235.138 428.521 234.259 428.896 233.496C429.271 232.729 429.799 232.13 430.481 231.7C431.163 231.269 431.966 231.054 432.891 231.054C433.636 231.054 434.301 231.192 434.885 231.469C435.469 231.742 435.94 232.126 436.297 232.62C436.66 233.114 436.875 233.692 436.943 234.352H435.083C434.981 233.892 434.746 233.496 434.38 233.163C434.018 232.831 433.532 232.665 432.922 232.665C432.39 232.665 431.923 232.805 431.523 233.087C431.126 233.364 430.817 233.76 430.596 234.276C430.374 234.787 430.263 235.392 430.263 236.091C430.263 236.807 430.372 237.425 430.589 237.945C430.807 238.464 431.114 238.867 431.51 239.153C431.91 239.438 432.381 239.581 432.922 239.581C433.285 239.581 433.613 239.515 433.907 239.383C434.205 239.246 434.454 239.053 434.655 238.801C434.859 238.55 435.002 238.247 435.083 237.893H436.943C436.875 238.528 436.668 239.095 436.323 239.594C435.978 240.092 435.516 240.484 434.936 240.77C434.361 241.055 433.685 241.198 432.91 241.198ZM443.57 231.182V232.716H438.207V231.182H443.57ZM439.645 228.83H441.557V238.117C441.557 238.488 441.612 238.767 441.723 238.955C441.834 239.138 441.976 239.263 442.151 239.332C442.33 239.396 442.524 239.428 442.733 239.428C442.886 239.428 443.02 239.417 443.135 239.396C443.25 239.374 443.34 239.357 443.404 239.344L443.749 240.923C443.638 240.966 443.481 241.009 443.276 241.051C443.071 241.098 442.816 241.124 442.509 241.128C442.006 241.136 441.537 241.047 441.103 240.859C440.668 240.672 440.316 240.382 440.048 239.99C439.78 239.598 439.645 239.106 439.645 238.513V228.83ZM355.433 249.909H357.83L361.998 260.085H362.151L366.319 249.909H368.716V263H366.837V253.527H366.715L362.854 262.981H361.295L357.434 253.521H357.313V263H355.433V249.909ZM374.291 263.217C373.669 263.217 373.107 263.102 372.604 262.872C372.101 262.638 371.703 262.299 371.409 261.856C371.119 261.413 370.974 260.869 370.974 260.226C370.974 259.672 371.081 259.216 371.294 258.858C371.507 258.5 371.794 258.217 372.157 258.008C372.519 257.799 372.924 257.641 373.371 257.535C373.818 257.428 374.274 257.347 374.739 257.292C375.327 257.224 375.804 257.168 376.171 257.126C376.537 257.079 376.804 257.004 376.97 256.902C377.136 256.8 377.219 256.634 377.219 256.403V256.359C377.219 255.8 377.061 255.368 376.746 255.061C376.435 254.754 375.97 254.601 375.353 254.601C374.709 254.601 374.202 254.744 373.831 255.029C373.465 255.31 373.211 255.624 373.071 255.969L371.274 255.56C371.487 254.963 371.799 254.482 372.208 254.115C372.621 253.744 373.096 253.476 373.633 253.31C374.17 253.139 374.735 253.054 375.327 253.054C375.719 253.054 376.134 253.101 376.573 253.195C377.017 253.284 377.43 253.45 377.813 253.693C378.201 253.936 378.519 254.283 378.766 254.735C379.013 255.183 379.137 255.764 379.137 256.48V263H377.27V261.658H377.193C377.07 261.905 376.884 262.148 376.637 262.386C376.39 262.625 376.073 262.823 375.685 262.981C375.297 263.138 374.833 263.217 374.291 263.217ZM374.707 261.683C375.235 261.683 375.687 261.579 376.062 261.37C376.441 261.161 376.729 260.888 376.925 260.552C377.125 260.211 377.225 259.847 377.225 259.459V258.193C377.157 258.261 377.025 258.325 376.829 258.385C376.637 258.44 376.418 258.489 376.171 258.532C375.924 258.57 375.683 258.607 375.448 258.641C375.214 258.67 375.018 258.696 374.86 258.717C374.49 258.764 374.151 258.843 373.844 258.954C373.541 259.065 373.299 259.224 373.115 259.433C372.936 259.638 372.847 259.911 372.847 260.251C372.847 260.724 373.022 261.082 373.371 261.325C373.72 261.564 374.166 261.683 374.707 261.683ZM383.593 257.17V263H381.682V253.182H383.517V254.78H383.638C383.864 254.26 384.218 253.842 384.699 253.527C385.185 253.212 385.797 253.054 386.534 253.054C387.203 253.054 387.789 253.195 388.292 253.476C388.794 253.753 389.184 254.166 389.461 254.716C389.738 255.266 389.877 255.945 389.877 256.755V263H387.966V256.985C387.966 256.273 387.78 255.717 387.41 255.317C387.039 254.912 386.53 254.71 385.882 254.71C385.439 254.71 385.044 254.805 384.699 254.997C384.358 255.189 384.088 255.47 383.888 255.841C383.691 256.207 383.593 256.651 383.593 257.17ZM395.297 263.217C394.675 263.217 394.113 263.102 393.61 262.872C393.107 262.638 392.709 262.299 392.415 261.856C392.125 261.413 391.98 260.869 391.98 260.226C391.98 259.672 392.086 259.216 392.299 258.858C392.513 258.5 392.8 258.217 393.162 258.008C393.525 257.799 393.929 257.641 394.377 257.535C394.824 257.428 395.28 257.347 395.745 257.292C396.333 257.224 396.81 257.168 397.177 257.126C397.543 257.079 397.809 257.004 397.976 256.902C398.142 256.8 398.225 256.634 398.225 256.403V256.359C398.225 255.8 398.067 255.368 397.752 255.061C397.441 254.754 396.976 254.601 396.358 254.601C395.715 254.601 395.208 254.744 394.837 255.029C394.471 255.31 394.217 255.624 394.076 255.969L392.28 255.56C392.493 254.963 392.804 254.482 393.214 254.115C393.627 253.744 394.102 253.476 394.639 253.31C395.176 253.139 395.741 253.054 396.333 253.054C396.725 253.054 397.14 253.101 397.579 253.195C398.022 253.284 398.436 253.45 398.819 253.693C399.207 253.936 399.525 254.283 399.772 254.735C400.019 255.183 400.142 255.764 400.142 256.48V263H398.276V261.658H398.199C398.076 261.905 397.89 262.148 397.643 262.386C397.396 262.625 397.079 262.823 396.691 262.981C396.303 263.138 395.839 263.217 395.297 263.217ZM395.713 261.683C396.241 261.683 396.693 261.579 397.068 261.37C397.447 261.161 397.735 260.888 397.931 260.552C398.131 260.211 398.231 259.847 398.231 259.459V258.193C398.163 258.261 398.031 258.325 397.835 258.385C397.643 258.44 397.424 258.489 397.177 258.532C396.929 258.57 396.689 258.607 396.454 258.641C396.22 258.67 396.024 258.696 395.866 258.717C395.495 258.764 395.157 258.843 394.85 258.954C394.547 259.065 394.304 259.224 394.121 259.433C393.942 259.638 393.853 259.911 393.853 260.251C393.853 260.724 394.027 261.082 394.377 261.325C394.726 261.564 395.172 261.683 395.713 261.683ZM406.805 266.886C406.025 266.886 405.354 266.784 404.791 266.58C404.233 266.375 403.777 266.104 403.423 265.768C403.07 265.431 402.805 265.063 402.631 264.662L404.273 263.984C404.388 264.172 404.542 264.37 404.734 264.579C404.93 264.792 405.194 264.973 405.526 265.122C405.863 265.271 406.295 265.346 406.824 265.346C407.548 265.346 408.147 265.169 408.62 264.815C409.093 264.466 409.329 263.908 409.329 263.141V261.21H409.208C409.093 261.419 408.927 261.651 408.709 261.907C408.496 262.163 408.202 262.384 407.827 262.572C407.452 262.759 406.964 262.853 406.364 262.853C405.588 262.853 404.889 262.672 404.267 262.31C403.649 261.943 403.159 261.404 402.797 260.692C402.439 259.977 402.26 259.097 402.26 258.053C402.26 257.009 402.437 256.114 402.79 255.368C403.148 254.622 403.638 254.051 404.261 253.655C404.883 253.254 405.588 253.054 406.376 253.054C406.986 253.054 407.478 253.156 407.853 253.361C408.228 253.561 408.52 253.795 408.729 254.064C408.942 254.332 409.106 254.569 409.221 254.773H409.361V253.182H411.234V263.217C411.234 264.061 411.038 264.754 410.646 265.295C410.254 265.836 409.724 266.237 409.055 266.496C408.39 266.756 407.64 266.886 406.805 266.886ZM406.785 261.268C407.335 261.268 407.8 261.14 408.179 260.884C408.562 260.624 408.852 260.254 409.048 259.772C409.248 259.286 409.349 258.705 409.349 258.027C409.349 257.366 409.251 256.785 409.055 256.282C408.859 255.779 408.571 255.387 408.192 255.106C407.812 254.82 407.344 254.678 406.785 254.678C406.21 254.678 405.731 254.827 405.347 255.125C404.964 255.419 404.674 255.82 404.478 256.327C404.286 256.834 404.19 257.401 404.19 258.027C404.19 258.67 404.288 259.235 404.484 259.721C404.68 260.207 404.97 260.586 405.354 260.859C405.741 261.131 406.219 261.268 406.785 261.268ZM418.029 263.198C417.062 263.198 416.229 262.991 415.53 262.578C414.835 262.161 414.298 261.575 413.919 260.82C413.544 260.062 413.356 259.173 413.356 258.155C413.356 257.149 413.544 256.263 413.919 255.496C414.298 254.729 414.827 254.13 415.504 253.7C416.186 253.269 416.983 253.054 417.895 253.054C418.449 253.054 418.986 253.146 419.506 253.329C420.025 253.512 420.492 253.8 420.905 254.192C421.319 254.584 421.645 255.093 421.883 255.719C422.122 256.342 422.241 257.098 422.241 257.989V258.666H414.437V257.234H420.369C420.369 256.732 420.266 256.286 420.062 255.898C419.857 255.506 419.57 255.197 419.199 254.972C418.832 254.746 418.402 254.633 417.908 254.633C417.371 254.633 416.902 254.765 416.501 255.029C416.105 255.289 415.798 255.63 415.581 256.052C415.368 256.469 415.261 256.923 415.261 257.413V258.532C415.261 259.188 415.376 259.746 415.606 260.207C415.841 260.667 416.167 261.018 416.584 261.261C417.002 261.5 417.49 261.619 418.048 261.619C418.41 261.619 418.741 261.568 419.039 261.466C419.337 261.359 419.595 261.202 419.812 260.993C420.03 260.784 420.196 260.526 420.311 260.219L422.12 260.545C421.975 261.078 421.715 261.545 421.34 261.945C420.969 262.342 420.503 262.651 419.94 262.872C419.382 263.089 418.745 263.198 418.029 263.198ZM424.362 263V253.182H426.196V254.78H426.318C426.522 254.239 426.857 253.817 427.321 253.514C427.786 253.207 428.342 253.054 428.99 253.054C429.646 253.054 430.196 253.207 430.639 253.514C431.086 253.821 431.417 254.243 431.63 254.78H431.732C431.966 254.256 432.339 253.838 432.851 253.527C433.362 253.212 433.971 253.054 434.679 253.054C435.569 253.054 436.296 253.333 436.858 253.891C437.425 254.45 437.709 255.291 437.709 256.416V263H435.797V256.595C435.797 255.93 435.616 255.449 435.254 255.151C434.892 254.852 434.459 254.703 433.956 254.703C433.334 254.703 432.851 254.895 432.505 255.278C432.16 255.658 431.988 256.146 431.988 256.742V263H430.083V256.474C430.083 255.941 429.917 255.513 429.584 255.189C429.252 254.865 428.819 254.703 428.287 254.703C427.924 254.703 427.59 254.799 427.283 254.991C426.981 255.178 426.736 255.44 426.548 255.777C426.365 256.114 426.273 256.504 426.273 256.947V263H424.362ZM444.502 263.198C443.534 263.198 442.701 262.991 442.002 262.578C441.308 262.161 440.771 261.575 440.392 260.82C440.017 260.062 439.829 259.173 439.829 258.155C439.829 257.149 440.017 256.263 440.392 255.496C440.771 254.729 441.299 254.13 441.977 253.7C442.659 253.269 443.456 253.054 444.367 253.054C444.921 253.054 445.458 253.146 445.978 253.329C446.498 253.512 446.965 253.8 447.378 254.192C447.791 254.584 448.117 255.093 448.356 255.719C448.595 256.342 448.714 257.098 448.714 257.989V258.666H440.909V257.234H446.841C446.841 256.732 446.739 256.286 446.534 255.898C446.33 255.506 446.042 255.197 445.671 254.972C445.305 254.746 444.875 254.633 444.38 254.633C443.843 254.633 443.375 254.765 442.974 255.029C442.578 255.289 442.271 255.63 442.054 256.052C441.84 256.469 441.734 256.923 441.734 257.413V258.532C441.734 259.188 441.849 259.746 442.079 260.207C442.313 260.667 442.639 261.018 443.057 261.261C443.475 261.5 443.963 261.619 444.521 261.619C444.883 261.619 445.213 261.568 445.512 261.466C445.81 261.359 446.068 261.202 446.285 260.993C446.502 260.784 446.669 260.526 446.784 260.219L448.593 260.545C448.448 261.078 448.188 261.545 447.813 261.945C447.442 262.342 446.975 262.651 446.413 262.872C445.855 263.089 445.218 263.198 444.502 263.198ZM452.746 257.17V263H450.835V253.182H452.669V254.78H452.791C453.016 254.26 453.37 253.842 453.852 253.527C454.337 253.212 454.949 253.054 455.686 253.054C456.355 253.054 456.941 253.195 457.444 253.476C457.947 253.753 458.337 254.166 458.614 254.716C458.891 255.266 459.029 255.945 459.029 256.755V263H457.118V256.985C457.118 256.273 456.933 255.717 456.562 255.317C456.191 254.912 455.682 254.71 455.034 254.71C454.591 254.71 454.197 254.805 453.852 254.997C453.511 255.189 453.24 255.47 453.04 255.841C452.844 256.207 452.746 256.651 452.746 257.17ZM466.176 253.182V254.716H460.813V253.182H466.176ZM462.251 250.83H464.162V260.117C464.162 260.488 464.217 260.767 464.328 260.955C464.439 261.138 464.582 261.263 464.756 261.332C464.935 261.396 465.129 261.428 465.338 261.428C465.492 261.428 465.626 261.417 465.741 261.396C465.856 261.374 465.945 261.357 466.009 261.344L466.354 262.923C466.244 262.966 466.086 263.009 465.881 263.051C465.677 263.098 465.421 263.124 465.114 263.128C464.612 263.136 464.143 263.047 463.708 262.859C463.274 262.672 462.922 262.382 462.653 261.99C462.385 261.598 462.251 261.106 462.251 260.513V250.83Z" fill="#545454"/>
<path d="M274.019 269.177C252.877 275.851 230.146 275.637 209.135 268.564C188.124 261.492 169.931 247.93 157.203 229.855L211.251 192.17C215.916 198.794 222.583 203.764 230.283 206.356C237.983 208.948 246.313 209.027 254.061 206.581L274.019 269.177Z" fill="#F37021"/>
<path d="M275.922 63.8621C300.047 70.781 321.144 85.6112 335.822 105.968C350.501 126.326 357.908 151.027 356.852 176.102L286.042 173.121C286.429 163.932 283.715 154.879 278.335 147.419C272.956 139.959 265.224 134.524 256.383 131.988L275.922 63.8621Z" fill="#FF8942"/>
<path d="M145.875 241.205C132.952 219.737 126.438 195.021 127.101 169.973C127.764 144.924 135.577 120.588 149.618 99.8345L214.69 143.86C209.046 152.202 205.905 161.984 205.638 172.052C205.372 182.121 207.99 192.055 213.185 200.684L145.875 241.205Z" fill="#FFA114"/>
<path d="M132.754 89.8318C151.079 67.6626 175.555 51.4118 203.099 43.1259C230.643 34.84 260.022 34.8897 287.538 43.2686L260.641 131.594C250.558 128.523 239.791 128.505 229.697 131.541C219.603 134.578 210.633 140.533 203.917 148.658L132.754 89.8318Z" fill="#F37021"/>
<path d="M364.135 166.265C364.135 193.883 355.294 220.775 338.905 243.004L272.963 194.388C278.969 186.242 282.209 176.386 282.209 166.265H364.135Z" fill="#C4C4C4"/>
<path d="M364.135 166.265C364.135 192.722 356.02 218.543 340.886 240.243C325.751 261.943 304.324 278.479 279.496 287.62L251.191 210.739C260.29 207.389 268.142 201.329 273.689 193.376C279.235 185.424 282.209 175.961 282.209 166.265H364.135Z" fill="#FEAD34"/>
<ellipse cx="242.516" cy="169.345" rx="44.6454" ry="44.1322" fill="white"/>
<line x1="339.363" y1="91.5114" x2="329.765" y2="100.78" stroke="#FF8942" stroke-width="1.1" stroke-dasharray="2.2 0"/>
<line x1="127.944" y1="165.643" x2="114.785" y2="163.441" stroke="#FFA114" stroke-width="1.1" stroke-dasharray="2.2 0"/>
<line x1="360.712" y1="231.149" x2="347.855" y2="227.583" stroke="#FEAD34" stroke-width="1.1" stroke-dasharray="2.2 0"/>
<line x1="210.543" y1="46.2643" x2="208.456" y2="33.0862" stroke="#F37021" stroke-width="1.1" stroke-dasharray="2.2 0"/>
<line x1="219.771" y1="285.209" x2="221.559" y2="271.986" stroke="#F37021" stroke-width="1.1" stroke-dasharray="2.2 0"/>
<circle cx="339.519" cy="91.1053" r="4.10532" fill="#FF8942"/>
<circle cx="219.592" cy="282.777" r="3.59216" fill="#F37021"/>
<circle cx="359.288" cy="230.132" r="5.13165" fill="#FEAD34"/>
<circle cx="208.592" cy="32.5922" r="3.59216" fill="#F37021"/>
<circle cx="113.132" cy="163.132" r="5.13165" fill="#FFA114"/>
</svg>
