<svg width="685" height="172" viewBox="0 0 685 172" fill="none" xmlns="http://www.w3.org/2000/svg">
<path d="M49.944 39.8094C49.944 47.2223 49.0181 53.8941 47.5457 58.6795C46.8076 61.0783 45.9491 62.9468 45.0421 64.1936C44.1192 65.4623 43.283 65.9117 42.6048 65.9117C41.9266 65.9117 41.0904 65.4623 40.1675 64.1936C39.2605 62.9468 38.402 61.0783 37.6639 58.6795C36.1915 53.8941 35.2656 47.2223 35.2656 39.8094C35.2656 32.3964 36.1915 25.7246 37.6639 20.9392C38.402 18.5404 39.2605 16.6719 40.1675 15.4251C41.0904 14.1564 41.9266 13.707 42.6048 13.707C43.283 13.707 44.1192 14.1564 45.0421 15.4251C45.9491 16.6719 46.8076 18.5404 47.5457 20.9392C49.0181 25.7246 49.944 32.3964 49.944 39.8094Z" stroke="#768189" stroke-width="2"/>
<path d="M40.7086 46.8981C33.5483 44.9795 27.3434 42.3584 23.1022 39.6976C20.9761 38.3638 19.3935 37.0509 18.424 35.8522C17.4374 34.6323 17.2197 33.7082 17.3952 33.0532C17.5708 32.3982 18.2213 31.7067 19.6856 31.1436C21.1247 30.5902 23.1517 30.2446 25.6598 30.1525C30.6632 29.9688 37.3473 30.8013 44.5077 32.7199C51.668 34.6385 57.8729 37.2596 62.1141 39.9204C64.2402 41.2542 65.8227 42.567 66.7923 43.7658C67.7789 44.9857 67.9966 45.9097 67.821 46.5648C67.6455 47.2198 66.995 47.9112 65.5307 48.4744C64.0916 49.0278 62.0646 49.3734 59.5565 49.4655C54.5531 49.6492 47.869 48.8167 40.7086 46.8981Z" stroke="#768189" stroke-width="2"/>
<path d="M44.5079 46.898C37.3476 48.8166 30.6635 49.6491 25.6601 49.4654C23.1519 49.3733 21.125 49.0277 19.6859 48.4743C18.2216 47.9111 17.571 47.2197 17.3955 46.5647C17.22 45.9096 17.4377 44.9855 18.4242 43.7657C19.3938 42.5669 20.9764 41.2541 23.1024 39.9203C27.3437 37.2595 33.5486 34.6384 40.7089 32.7198C47.8692 30.8012 54.5533 29.9687 59.5568 30.1524C62.0649 30.2445 64.0919 30.5901 65.5309 31.1435C66.9953 31.7066 67.6458 32.3981 67.8213 33.0531C67.9968 33.7081 67.7792 34.6322 66.7926 35.8521C65.823 37.0508 64.2404 38.3637 62.1144 39.6975C57.8731 42.3583 51.6683 44.9794 44.5079 46.898Z" stroke="#768189" stroke-width="2"/>
<path d="M48.9642 43.4789C45.2577 49.8987 41.12 55.2138 37.4522 58.6218C35.6135 60.3302 33.9358 61.5191 32.527 62.1453C31.0933 62.7826 30.1444 62.7537 29.5571 62.4146C28.9698 62.0755 28.4703 61.2682 28.3054 59.708C28.1433 58.1748 28.3341 56.1274 28.8943 53.6809C30.0118 48.8004 32.5459 42.5595 36.2524 36.1398C39.9588 29.72 44.0965 24.4049 47.7644 20.9969C49.603 19.2885 51.2807 18.0996 52.6896 17.4733C54.1232 16.8361 55.0721 16.865 55.6594 17.2041C56.2467 17.5431 56.7462 18.3505 56.9112 19.9107C57.0733 21.4439 56.8825 23.4913 56.3223 25.9378C55.2048 30.8183 52.6706 37.0592 48.9642 43.4789Z" stroke="#768189" stroke-width="2"/>
<path d="M47.7974 34.6195C53.0391 39.8612 57.1021 45.2335 59.4448 49.6585C60.6191 51.8766 61.3332 53.8049 61.5735 55.3278C61.818 56.8776 61.5444 57.7867 61.0649 58.2662C60.5854 58.7457 59.6763 59.0192 58.1266 58.7747C56.6036 58.5345 54.6754 57.8203 52.4573 56.646C48.0323 54.3034 42.6599 50.2404 37.4182 44.9986C32.1765 39.7569 28.1135 34.3846 25.7708 29.9596C24.5965 27.7415 23.8824 25.8132 23.6421 24.2903C23.3976 22.7405 23.6711 21.8314 24.1507 21.3519C24.6302 20.8724 25.5393 20.5989 27.089 20.8434C28.612 21.0836 30.5402 21.7978 32.7583 22.9721C37.1833 25.3147 42.5557 29.3777 47.7974 34.6195Z" stroke="#768189" stroke-width="2"/>
<path d="M19.3294 48.6041C15.7872 48.2668 7.69078 52.8547 3.64258 73.9054C-1.41768 100.219 0.1004 100.725 14.2691 103.761C25.6041 106.19 41.2573 108.146 47.667 108.821C48.3417 108.821 49.5899 108.315 49.1851 106.291M49.1851 106.291C47.9706 106.291 46.655 106.291 46.1489 106.291C46.655 101.905 48.0718 92.7294 49.6911 91.1102M49.1851 106.291C56.2694 104.401 61.3297 107.303 67.402 107.303C72.2598 107.303 72.7996 105.904 72.4622 105.205M49.6911 91.1102C46.8574 90.3005 29.6188 88.074 21.3537 87.062L25.4019 68.8451M49.6911 91.1102C51.6654 91.1891 54.7416 91.3938 57.7875 91.7554M73.9803 100.219C79.5466 100.219 70.4381 95.6644 66.3899 93.6403C64.6677 92.7792 61.2471 92.1661 57.7875 91.7554M73.9803 100.219C71.1466 99.409 67.0646 97.8572 65.3779 97.1825L73.9803 100.219ZM73.9803 100.219C74.963 100.755 76.1823 101.603 76.5104 102.343M74.4863 103.761C71.6526 102.951 66.5586 101.062 64.3658 100.219M74.4863 103.761C74.7689 104.185 74.6491 104.963 72.4622 105.205M74.4863 103.761C76.3905 103.57 76.8019 102.999 76.5104 102.343M63.3538 103.255C64.8719 103.761 68.5152 104.874 70.9442 105.279C71.5361 105.279 72.038 105.252 72.4622 105.205M57.7875 91.7554L52.7273 74.4113C52.5586 73.9053 52.6261 72.7921 54.2453 72.3872C54.0767 68.8451 54.1441 61.3559 55.7634 59.7366C57.7875 57.7125 65.8839 51.1342 64.3658 46.5799C62.8478 42.0257 66.3899 40.5076 66.896 41.5197M66.896 41.5197C67.3008 42.3293 67.0646 47.9292 66.896 50.6279V41.5197ZM66.896 41.5197C67.2333 40.5075 68.2116 38.7868 69.4261 40.0014M69.4261 40.0014C69.4261 42.4302 69.4261 47.7602 69.4261 50.1217M69.4261 40.0014C69.9321 38.9894 71.0454 37.5726 71.4502 40.0014M71.4502 40.0014C71.855 42.4302 71.9562 47.0854 71.9562 49.1095M71.4502 40.0014C71.9562 38.6521 73.1707 36.7631 73.9803 40.0014C74.9924 44.0492 74.9924 50.6273 74.4863 53.1574C74.3326 53.9263 73.6648 54.7886 72.8096 55.6876M76.0044 88.5792C75.4984 87.5672 67.908 64.29 67.908 61.7599C67.908 59.9986 70.8506 57.7469 72.8096 55.6876M72.8096 55.6876C74.8866 57.2056 78.9394 66.2129 78.5345 90.0973C77.7249 101.432 76.8478 102.984 76.5104 102.343" stroke="#768189" stroke-width="2"/>
<path d="M630.001 47.376C637.243 50.2628 625.656 50.2622 627.104 54.5925C627.555 55.9397 628.566 57.4265 629.702 58.9227M630.001 47.376C625.435 45.556 621.445 48.3254 619.12 51.706M630.001 47.376C630.304 46.471 630.758 45.3959 631.311 44.4884M634.346 67.5834C635.344 65.5947 632.217 62.2358 629.702 58.9227M635.795 44.4884C638.112 49.1074 636.76 56.0359 635.795 58.9227M635.795 44.4884C638.691 42.0827 644.485 39.0033 644.485 45.9318M635.795 44.4884C634.204 41.3172 632.521 42.5007 631.311 44.4884M644.485 45.9318C644.485 52.8603 642.554 58.4419 641.588 60.3666M644.485 45.9318C646.416 44.4887 649.989 43.3345 648.831 50.2626M648.831 50.2626C647.672 57.1907 646.416 60.8476 645.934 61.8101M648.831 50.2626C649.835 49.5949 651.538 48.8809 652.486 49.6634M648.831 63.2535C650.279 60.8478 653.176 55.1703 653.176 51.706C653.176 50.6454 652.904 50.0087 652.486 49.6634M648.831 63.2535C644.286 61.3286 634.098 57.7676 629.702 58.9227M648.831 63.2535C648.831 64.1935 648.789 65.1573 648.709 66.1404M652.486 49.6634C654.251 48.0294 662.372 47.4574 666.212 47.3757L667.66 41.602C671.523 42.5643 680.117 45.0663 683.593 47.376C685.91 50.8404 676.834 71.9143 672.005 82.0182L657.521 77.6879C657.521 77.2067 657.521 75.6671 657.521 73.3578C657.521 72.2032 651.647 68.0651 648.709 66.1404M648.709 66.1404C647.521 80.8559 637.876 99.8817 632.898 108H607.176C612.487 98.8582 625.366 76.822 624.207 73.3578C622.759 69.0275 616.965 61.8103 616.965 57.48C616.965 55.8796 617.756 53.6878 619.12 51.706M619.12 51.706H615.517C614.047 53.7975 611.611 57.0164 608.755 60.3666M576.409 63.2535C569.456 65.563 570.615 72.8764 572.064 76.2444C577.375 76.7256 589.734 76.5331 596.687 71.9141C600.617 69.303 605.041 64.7236 608.755 60.3666M576.409 63.2535C576.409 58.9227 582.202 22.8373 587.995 14.1767M576.409 63.2535C584.248 64.2159 601.692 64.9859 608.755 60.3666M587.995 14.1767C587.995 6.95952 586.547 -0.257652 592.341 1.18578C597.035 2.35538 611.24 13.0027 615.691 30.0548M587.995 14.1767C595.354 16.1014 611.196 21.9715 615.691 30.0548M631.311 44.4884C628.46 44.4884 621.599 44.1999 616.965 43.0457C617.24 38.3906 616.733 34.0471 615.691 30.0548" stroke="#768189" stroke-width="2"/>
<rect x="40.9648" y="105" width="600" height="6" rx="3" fill="#768189"/>
<rect x="187.965" y="102" width="3" height="12" rx="1.5" fill="#FFBD14"/>
<rect x="485.965" y="102" width="5" height="12" rx="2.5" fill="#FFBD14"/>
<rect x="635.965" y="102" width="7" height="12" rx="3.5" fill="#F47221"/>
<path d="M59.7272 136.2V133.878H64.0652V147H61.4732V136.2H59.7272ZM67.9586 147.126C67.5026 147.126 67.1246 146.988 66.8246 146.712C66.5366 146.424 66.3926 146.07 66.3926 145.65C66.3926 145.23 66.5366 144.882 66.8246 144.606C67.1246 144.318 67.5026 144.174 67.9586 144.174C68.4026 144.174 68.7686 144.318 69.0566 144.606C69.3446 144.882 69.4886 145.23 69.4886 145.65C69.4886 146.07 69.3446 146.424 69.0566 146.712C68.7686 146.988 68.4026 147.126 67.9586 147.126ZM80.0384 136.47V139.62H84.2684V141.618H80.0384V144.948H84.8084V147H77.5184V134.418H84.8084V136.47H80.0384ZM94.6224 147L91.9044 142.77L89.4384 147H86.5944L90.5544 140.664L86.5404 134.436H89.4384L92.1564 138.648L94.6044 134.436H97.4484L93.5064 140.754L97.5204 147H94.6224ZM108.6 138.324C108.6 138.996 108.438 139.626 108.114 140.214C107.802 140.802 107.304 141.276 106.62 141.636C105.948 141.996 105.096 142.176 104.064 142.176H101.958V147H99.4383V134.436H104.064C105.036 134.436 105.864 134.604 106.548 134.94C107.232 135.276 107.742 135.738 108.078 136.326C108.426 136.914 108.6 137.58 108.6 138.324ZM103.956 140.142C104.652 140.142 105.168 139.986 105.504 139.674C105.84 139.35 106.008 138.9 106.008 138.324C106.008 137.1 105.324 136.488 103.956 136.488H101.958V140.142H103.956ZM112.909 145.002H117.049V147H110.389V134.436H112.909V145.002ZM124.483 147.126C123.307 147.126 122.227 146.85 121.243 146.298C120.259 145.746 119.479 144.984 118.903 144.012C118.327 143.028 118.039 141.918 118.039 140.682C118.039 139.458 118.327 138.36 118.903 137.388C119.479 136.404 120.259 135.636 121.243 135.084C122.227 134.532 123.307 134.256 124.483 134.256C125.671 134.256 126.751 134.532 127.723 135.084C128.707 135.636 129.481 136.404 130.045 137.388C130.621 138.36 130.909 139.458 130.909 140.682C130.909 141.918 130.621 143.028 130.045 144.012C129.481 144.984 128.707 145.746 127.723 146.298C126.739 146.85 125.659 147.126 124.483 147.126ZM124.483 144.876C125.239 144.876 125.905 144.708 126.481 144.372C127.057 144.024 127.507 143.532 127.831 142.896C128.155 142.26 128.317 141.522 128.317 140.682C128.317 139.842 128.155 139.11 127.831 138.486C127.507 137.85 127.057 137.364 126.481 137.028C125.905 136.692 125.239 136.524 124.483 136.524C123.727 136.524 123.055 136.692 122.467 137.028C121.891 137.364 121.441 137.85 121.117 138.486C120.793 139.11 120.631 139.842 120.631 140.682C120.631 141.522 120.793 142.26 121.117 142.896C121.441 143.532 121.891 144.024 122.467 144.372C123.055 144.708 123.727 144.876 124.483 144.876ZM139.264 147L136.492 142.104H135.304V147H132.784V134.436H137.5C138.472 134.436 139.3 134.61 139.984 134.958C140.668 135.294 141.178 135.756 141.514 136.344C141.862 136.92 142.036 137.568 142.036 138.288C142.036 139.116 141.796 139.866 141.316 140.538C140.836 141.198 140.122 141.654 139.174 141.906L142.18 147H139.264ZM135.304 140.214H137.41C138.094 140.214 138.604 140.052 138.94 139.728C139.276 139.392 139.444 138.93 139.444 138.342C139.444 137.766 139.276 137.322 138.94 137.01C138.604 136.686 138.094 136.524 137.41 136.524H135.304V140.214ZM146.835 136.47V139.62H151.065V141.618H146.835V144.948H151.605V147H144.315V134.418H151.605V136.47H146.835Z" fill="#FFBD14"/>
<path d="M284.844 144.156C285.996 143.196 286.914 142.398 287.598 141.762C288.282 141.114 288.852 140.442 289.308 139.746C289.764 139.05 289.992 138.366 289.992 137.694C289.992 137.082 289.848 136.602 289.56 136.254C289.272 135.906 288.828 135.732 288.228 135.732C287.628 135.732 287.166 135.936 286.842 136.344C286.518 136.74 286.35 137.286 286.338 137.982H283.89C283.938 136.542 284.364 135.45 285.168 134.706C285.984 133.962 287.016 133.59 288.264 133.59C289.632 133.59 290.682 133.956 291.414 134.688C292.146 135.408 292.512 136.362 292.512 137.55C292.512 138.486 292.26 139.38 291.756 140.232C291.252 141.084 290.676 141.828 290.028 142.464C289.38 143.088 288.534 143.844 287.49 144.732H292.8V146.82H283.908V144.948L284.844 144.156ZM295.792 147.126C295.336 147.126 294.958 146.988 294.658 146.712C294.37 146.424 294.226 146.07 294.226 145.65C294.226 145.23 294.37 144.882 294.658 144.606C294.958 144.318 295.336 144.174 295.792 144.174C296.236 144.174 296.602 144.318 296.89 144.606C297.178 144.882 297.322 145.23 297.322 145.65C297.322 146.07 297.178 146.424 296.89 146.712C296.602 146.988 296.236 147.126 295.792 147.126ZM307.978 147.126C307.102 147.126 306.31 146.976 305.602 146.676C304.906 146.376 304.354 145.944 303.946 145.38C303.538 144.816 303.328 144.15 303.316 143.382H306.016C306.052 143.898 306.232 144.306 306.556 144.606C306.892 144.906 307.348 145.056 307.924 145.056C308.512 145.056 308.974 144.918 309.31 144.642C309.646 144.354 309.814 143.982 309.814 143.526C309.814 143.154 309.7 142.848 309.472 142.608C309.244 142.368 308.956 142.182 308.608 142.05C308.272 141.906 307.804 141.75 307.204 141.582C306.388 141.342 305.722 141.108 305.206 140.88C304.702 140.64 304.264 140.286 303.892 139.818C303.532 139.338 303.352 138.702 303.352 137.91C303.352 137.166 303.538 136.518 303.91 135.966C304.282 135.414 304.804 134.994 305.476 134.706C306.148 134.406 306.916 134.256 307.78 134.256C309.076 134.256 310.126 134.574 310.93 135.21C311.746 135.834 312.196 136.71 312.28 137.838H309.508C309.484 137.406 309.298 137.052 308.95 136.776C308.614 136.488 308.164 136.344 307.6 136.344C307.108 136.344 306.712 136.47 306.412 136.722C306.124 136.974 305.98 137.34 305.98 137.82C305.98 138.156 306.088 138.438 306.304 138.666C306.532 138.882 306.808 139.062 307.132 139.206C307.468 139.338 307.936 139.494 308.536 139.674C309.352 139.914 310.018 140.154 310.534 140.394C311.05 140.634 311.494 140.994 311.866 141.474C312.238 141.954 312.424 142.584 312.424 143.364C312.424 144.036 312.25 144.66 311.902 145.236C311.554 145.812 311.044 146.274 310.372 146.622C309.7 146.958 308.902 147.126 307.978 147.126ZM323.771 138.324C323.771 138.996 323.609 139.626 323.285 140.214C322.973 140.802 322.475 141.276 321.791 141.636C321.119 141.996 320.267 142.176 319.235 142.176H317.129V147H314.609V134.436H319.235C320.207 134.436 321.035 134.604 321.719 134.94C322.403 135.276 322.913 135.738 323.249 136.326C323.597 136.914 323.771 137.58 323.771 138.324ZM319.127 140.142C319.823 140.142 320.339 139.986 320.675 139.674C321.011 139.35 321.179 138.9 321.179 138.324C321.179 137.1 320.495 136.488 319.127 136.488H317.129V140.142H319.127ZM328.08 136.47V139.62H332.31V141.618H328.08V144.948H332.85V147H325.56V134.418H332.85V136.47H328.08ZM334.528 140.7C334.528 139.464 334.804 138.36 335.356 137.388C335.92 136.404 336.682 135.642 337.642 135.102C338.614 134.55 339.7 134.274 340.9 134.274C342.304 134.274 343.534 134.634 344.59 135.354C345.646 136.074 346.384 137.07 346.804 138.342H343.906C343.618 137.742 343.21 137.292 342.682 136.992C342.166 136.692 341.566 136.542 340.882 136.542C340.15 136.542 339.496 136.716 338.92 137.064C338.356 137.4 337.912 137.88 337.588 138.504C337.276 139.128 337.12 139.86 337.12 140.7C337.12 141.528 337.276 142.26 337.588 142.896C337.912 143.52 338.356 144.006 338.92 144.354C339.496 144.69 340.15 144.858 340.882 144.858C341.566 144.858 342.166 144.708 342.682 144.408C343.21 144.096 343.618 143.64 343.906 143.04H346.804C346.384 144.324 345.646 145.326 344.59 146.046C343.546 146.754 342.316 147.108 340.9 147.108C339.7 147.108 338.614 146.838 337.642 146.298C336.682 145.746 335.92 144.984 335.356 144.012C334.804 143.04 334.528 141.936 334.528 140.7ZM351.477 134.436V147H348.957V134.436H351.477ZM361.671 144.606H356.667L355.839 147H353.193L357.711 134.418H360.645L365.163 147H362.499L361.671 144.606ZM360.987 142.59L359.169 137.334L357.351 142.59H360.987ZM369.371 145.002H373.511V147H366.851V134.436H369.371V145.002ZM377.633 134.436V147H375.113V134.436H377.633ZM382.697 144.876H388.349V147H379.781V145.056L385.397 136.56H379.781V134.436H388.349V136.38L382.697 144.876ZM393.014 136.47V139.62H397.244V141.618H393.014V144.948H397.784V147H390.494V134.418H397.784V136.47H393.014Z" fill="#FFA114"/>
<path d="M516.841 137.334C516.901 136.134 517.321 135.21 518.101 134.562C518.893 133.902 519.931 133.572 521.215 133.572C522.091 133.572 522.841 133.728 523.465 134.04C524.089 134.34 524.557 134.754 524.869 135.282C525.193 135.798 525.355 136.386 525.355 137.046C525.355 137.802 525.157 138.444 524.761 138.972C524.377 139.488 523.915 139.836 523.375 140.016V140.088C524.071 140.304 524.611 140.688 524.995 141.24C525.391 141.792 525.589 142.5 525.589 143.364C525.589 144.084 525.421 144.726 525.085 145.29C524.761 145.854 524.275 146.298 523.627 146.622C522.991 146.934 522.223 147.09 521.323 147.09C519.967 147.09 518.863 146.748 518.011 146.064C517.159 145.38 516.709 144.372 516.661 143.04H519.109C519.133 143.628 519.331 144.102 519.703 144.462C520.087 144.81 520.609 144.984 521.269 144.984C521.881 144.984 522.349 144.816 522.673 144.48C523.009 144.132 523.177 143.688 523.177 143.148C523.177 142.428 522.949 141.912 522.493 141.6C522.037 141.288 521.329 141.132 520.369 141.132H519.847V139.062H520.369C522.073 139.062 522.925 138.492 522.925 137.352C522.925 136.836 522.769 136.434 522.457 136.146C522.157 135.858 521.719 135.714 521.143 135.714C520.579 135.714 520.141 135.87 519.829 136.182C519.529 136.482 519.355 136.866 519.307 137.334H516.841ZM528.984 147.126C528.528 147.126 528.15 146.988 527.85 146.712C527.562 146.424 527.418 146.07 527.418 145.65C527.418 145.23 527.562 144.882 527.85 144.606C528.15 144.318 528.528 144.174 528.984 144.174C529.428 144.174 529.794 144.318 530.082 144.606C530.37 144.882 530.514 145.23 530.514 145.65C530.514 146.07 530.37 146.424 530.082 146.712C529.794 146.988 529.428 147.126 528.984 147.126ZM550.531 134.436V147H548.011V138.828L544.645 147H542.737L539.353 138.828V147H536.833V134.436H539.695L543.691 143.778L547.687 134.436H550.531ZM558.854 147.126C557.678 147.126 556.598 146.85 555.614 146.298C554.63 145.746 553.85 144.984 553.274 144.012C552.698 143.028 552.41 141.918 552.41 140.682C552.41 139.458 552.698 138.36 553.274 137.388C553.85 136.404 554.63 135.636 555.614 135.084C556.598 134.532 557.678 134.256 558.854 134.256C560.042 134.256 561.122 134.532 562.094 135.084C563.078 135.636 563.852 136.404 564.416 137.388C564.992 138.36 565.28 139.458 565.28 140.682C565.28 141.918 564.992 143.028 564.416 144.012C563.852 144.984 563.078 145.746 562.094 146.298C561.11 146.85 560.03 147.126 558.854 147.126ZM558.854 144.876C559.61 144.876 560.276 144.708 560.852 144.372C561.428 144.024 561.878 143.532 562.202 142.896C562.526 142.26 562.688 141.522 562.688 140.682C562.688 139.842 562.526 139.11 562.202 138.486C561.878 137.85 561.428 137.364 560.852 137.028C560.276 136.692 559.61 136.524 558.854 136.524C558.098 136.524 557.426 136.692 556.838 137.028C556.262 137.364 555.812 137.85 555.488 138.486C555.164 139.11 555.002 139.842 555.002 140.682C555.002 141.522 555.164 142.26 555.488 142.896C555.812 143.532 556.262 144.024 556.838 144.372C557.426 144.708 558.098 144.876 558.854 144.876ZM577.901 147H575.381L569.675 138.378V147H567.155V134.418H569.675L575.381 143.058V134.418H577.901V147ZM582.911 136.47V139.62H587.141V141.618H582.911V144.948H587.681V147H580.391V134.418H587.681V136.47H582.911ZM598.521 134.436V136.47H595.173V147H592.653V136.47H589.305V134.436H598.521ZM602.88 134.436V147H600.36V134.436H602.88ZM607.944 144.876H613.596V147H605.028V145.056L610.644 136.56H605.028V134.436H613.596V136.38L607.944 144.876ZM618.261 136.47V139.62H622.491V141.618H618.261V144.948H623.031V147H615.741V134.418H623.031V136.47H618.261Z" fill="#F47221"/>
<path d="M81.7294 163.577V161.51H85.3304V171H83.0164V163.577H81.7294ZM86.8511 166.125C86.8511 164.634 87.1371 163.46 87.7091 162.602C88.2898 161.744 89.2214 161.315 90.5041 161.315C91.7868 161.315 92.7141 161.744 93.2861 162.602C93.8668 163.46 94.1571 164.634 94.1571 166.125C94.1571 167.633 93.8668 168.816 93.2861 169.674C92.7141 170.532 91.7868 170.961 90.5041 170.961C89.2214 170.961 88.2898 170.532 87.7091 169.674C87.1371 168.816 86.8511 167.633 86.8511 166.125ZM91.9731 166.125C91.9731 165.25 91.8778 164.578 91.6871 164.11C91.4964 163.633 91.1021 163.395 90.5041 163.395C89.9061 163.395 89.5118 163.633 89.3211 164.11C89.1304 164.578 89.0351 165.25 89.0351 166.125C89.0351 166.714 89.0698 167.204 89.1391 167.594C89.2084 167.975 89.3471 168.287 89.5551 168.53C89.7718 168.764 90.0881 168.881 90.5041 168.881C90.9201 168.881 91.2321 168.764 91.4401 168.53C91.6568 168.287 91.7998 167.975 91.8691 167.594C91.9384 167.204 91.9731 166.714 91.9731 166.125ZM95.3316 166.125C95.3316 164.634 95.6176 163.46 96.1896 162.602C96.7702 161.744 97.7019 161.315 98.9846 161.315C100.267 161.315 101.195 161.744 101.767 162.602C102.347 163.46 102.638 164.634 102.638 166.125C102.638 167.633 102.347 168.816 101.767 169.674C101.195 170.532 100.267 170.961 98.9846 170.961C97.7019 170.961 96.7702 170.532 96.1896 169.674C95.6176 168.816 95.3316 167.633 95.3316 166.125ZM100.454 166.125C100.454 165.25 100.358 164.578 100.168 164.11C99.9769 163.633 99.5826 163.395 98.9846 163.395C98.3866 163.395 97.9922 163.633 97.8016 164.11C97.6109 164.578 97.5156 165.25 97.5156 166.125C97.5156 166.714 97.5502 167.204 97.6196 167.594C97.6889 167.975 97.8276 168.287 98.0356 168.53C98.2522 168.764 98.5686 168.881 98.9846 168.881C99.4006 168.881 99.7126 168.764 99.9206 168.53C100.137 168.287 100.28 167.975 100.35 167.594C100.419 167.204 100.454 166.714 100.454 166.125ZM111.247 163.668C112.079 163.668 112.746 163.945 113.249 164.5C113.752 165.046 114.003 165.8 114.003 166.762V171H111.793V167.061C111.793 166.576 111.667 166.199 111.416 165.93C111.165 165.661 110.827 165.527 110.402 165.527C109.977 165.527 109.639 165.661 109.388 165.93C109.137 166.199 109.011 166.576 109.011 167.061V171H106.788V161.38H109.011V164.721C109.236 164.4 109.544 164.145 109.934 163.954C110.324 163.763 110.762 163.668 111.247 163.668ZM117.771 164.955C118.031 164.556 118.356 164.244 118.746 164.019C119.136 163.785 119.569 163.668 120.046 163.668V166.021H119.435C118.88 166.021 118.464 166.142 118.187 166.385C117.909 166.619 117.771 167.035 117.771 167.633V171H115.548V163.746H117.771V164.955ZM124.059 171.104C123.427 171.104 122.863 170.996 122.369 170.779C121.875 170.562 121.485 170.268 121.199 169.895C120.913 169.514 120.753 169.089 120.718 168.621H122.915C122.941 168.872 123.058 169.076 123.266 169.232C123.474 169.388 123.73 169.466 124.033 169.466C124.311 169.466 124.523 169.414 124.67 169.31C124.826 169.197 124.904 169.054 124.904 168.881C124.904 168.673 124.796 168.521 124.579 168.426C124.363 168.322 124.012 168.209 123.526 168.088C123.006 167.967 122.573 167.841 122.226 167.711C121.88 167.572 121.581 167.36 121.329 167.074C121.078 166.779 120.952 166.385 120.952 165.891C120.952 165.475 121.065 165.098 121.29 164.76C121.524 164.413 121.862 164.14 122.304 163.941C122.755 163.742 123.288 163.642 123.903 163.642C124.813 163.642 125.528 163.867 126.048 164.318C126.577 164.769 126.88 165.367 126.958 166.112H124.904C124.87 165.861 124.757 165.661 124.566 165.514C124.384 165.367 124.142 165.293 123.838 165.293C123.578 165.293 123.379 165.345 123.24 165.449C123.102 165.544 123.032 165.679 123.032 165.852C123.032 166.06 123.141 166.216 123.357 166.32C123.583 166.424 123.929 166.528 124.397 166.632C124.935 166.771 125.372 166.909 125.71 167.048C126.048 167.178 126.343 167.395 126.594 167.698C126.854 167.993 126.989 168.391 126.997 168.894C126.997 169.319 126.876 169.7 126.633 170.038C126.399 170.367 126.057 170.627 125.606 170.818C125.164 171.009 124.649 171.104 124.059 171.104Z" fill="#FFBD14"/>
<path d="M316.55 164.188C316.584 163.261 316.888 162.546 317.46 162.043C318.032 161.54 318.807 161.289 319.787 161.289C320.437 161.289 320.991 161.402 321.451 161.627C321.919 161.852 322.27 162.16 322.504 162.55C322.746 162.94 322.868 163.378 322.868 163.863C322.868 164.435 322.725 164.903 322.439 165.267C322.153 165.622 321.819 165.865 321.438 165.995V166.047C321.932 166.212 322.322 166.485 322.608 166.866C322.894 167.247 323.037 167.737 323.037 168.335C323.037 168.872 322.911 169.349 322.66 169.765C322.417 170.172 322.057 170.493 321.581 170.727C321.113 170.961 320.554 171.078 319.904 171.078C318.864 171.078 318.032 170.822 317.408 170.311C316.792 169.8 316.467 169.028 316.433 167.997H318.591C318.599 168.378 318.708 168.682 318.916 168.907C319.124 169.124 319.427 169.232 319.826 169.232C320.164 169.232 320.424 169.137 320.606 168.946C320.796 168.747 320.892 168.487 320.892 168.166C320.892 167.75 320.757 167.451 320.489 167.269C320.229 167.078 319.808 166.983 319.228 166.983H318.812V165.176H319.228C319.67 165.176 320.025 165.102 320.294 164.955C320.571 164.799 320.71 164.526 320.71 164.136C320.71 163.824 320.623 163.581 320.45 163.408C320.276 163.235 320.038 163.148 319.735 163.148C319.405 163.148 319.158 163.248 318.994 163.447C318.838 163.646 318.747 163.893 318.721 164.188H316.55ZM324.343 166.125C324.343 164.634 324.629 163.46 325.201 162.602C325.781 161.744 326.713 161.315 327.996 161.315C329.278 161.315 330.206 161.744 330.778 162.602C331.358 163.46 331.649 164.634 331.649 166.125C331.649 167.633 331.358 168.816 330.778 169.674C330.206 170.532 329.278 170.961 327.996 170.961C326.713 170.961 325.781 170.532 325.201 169.674C324.629 168.816 324.343 167.633 324.343 166.125ZM329.465 166.125C329.465 165.25 329.369 164.578 329.179 164.11C328.988 163.633 328.594 163.395 327.996 163.395C327.398 163.395 327.003 163.633 326.813 164.11C326.622 164.578 326.527 165.25 326.527 166.125C326.527 166.714 326.561 167.204 326.631 167.594C326.7 167.975 326.839 168.287 327.047 168.53C327.263 168.764 327.58 168.881 327.996 168.881C328.412 168.881 328.724 168.764 328.932 168.53C329.148 168.287 329.291 167.975 329.361 167.594C329.43 167.204 329.465 166.714 329.465 166.125ZM332.823 166.125C332.823 164.634 333.109 163.46 333.681 162.602C334.262 161.744 335.194 161.315 336.476 161.315C337.759 161.315 338.686 161.744 339.258 162.602C339.839 163.46 340.129 164.634 340.129 166.125C340.129 167.633 339.839 168.816 339.258 169.674C338.686 170.532 337.759 170.961 336.476 170.961C335.194 170.961 334.262 170.532 333.681 169.674C333.109 168.816 332.823 167.633 332.823 166.125ZM337.945 166.125C337.945 165.25 337.85 164.578 337.659 164.11C337.469 163.633 337.074 163.395 336.476 163.395C335.878 163.395 335.484 163.633 335.293 164.11C335.103 164.578 335.007 165.25 335.007 166.125C335.007 166.714 335.042 167.204 335.111 167.594C335.181 167.975 335.319 168.287 335.527 168.53C335.744 168.764 336.06 168.881 336.476 168.881C336.892 168.881 337.204 168.764 337.412 168.53C337.629 168.287 337.772 167.975 337.841 167.594C337.911 167.204 337.945 166.714 337.945 166.125ZM348.739 163.668C349.571 163.668 350.238 163.945 350.741 164.5C351.243 165.046 351.495 165.8 351.495 166.762V171H349.285V167.061C349.285 166.576 349.159 166.199 348.908 165.93C348.656 165.661 348.318 165.527 347.894 165.527C347.469 165.527 347.131 165.661 346.88 165.93C346.628 166.199 346.503 166.576 346.503 167.061V171H344.28V161.38H346.503V164.721C346.728 164.4 347.036 164.145 347.426 163.954C347.816 163.763 348.253 163.668 348.739 163.668ZM355.262 164.955C355.522 164.556 355.847 164.244 356.237 164.019C356.627 163.785 357.061 163.668 357.537 163.668V166.021H356.926C356.372 166.021 355.956 166.142 355.678 166.385C355.401 166.619 355.262 167.035 355.262 167.633V171H353.039V163.746H355.262V164.955ZM361.551 171.104C360.918 171.104 360.355 170.996 359.861 170.779C359.367 170.562 358.977 170.268 358.691 169.895C358.405 169.514 358.245 169.089 358.21 168.621H360.407C360.433 168.872 360.55 169.076 360.758 169.232C360.966 169.388 361.222 169.466 361.525 169.466C361.802 169.466 362.015 169.414 362.162 169.31C362.318 169.197 362.396 169.054 362.396 168.881C362.396 168.673 362.288 168.521 362.071 168.426C361.854 168.322 361.503 168.209 361.018 168.088C360.498 167.967 360.065 167.841 359.718 167.711C359.371 167.572 359.072 167.36 358.821 167.074C358.57 166.779 358.444 166.385 358.444 165.891C358.444 165.475 358.557 165.098 358.782 164.76C359.016 164.413 359.354 164.14 359.796 163.941C360.247 163.742 360.78 163.642 361.395 163.642C362.305 163.642 363.02 163.867 363.54 164.318C364.069 164.769 364.372 165.367 364.45 166.112H362.396C362.361 165.861 362.249 165.661 362.058 165.514C361.876 165.367 361.633 165.293 361.33 165.293C361.07 165.293 360.871 165.345 360.732 165.449C360.593 165.544 360.524 165.679 360.524 165.852C360.524 166.06 360.632 166.216 360.849 166.32C361.074 166.424 361.421 166.528 361.889 166.632C362.426 166.771 362.864 166.909 363.202 167.048C363.54 167.178 363.835 167.395 364.086 167.698C364.346 167.993 364.48 168.391 364.489 168.894C364.489 169.319 364.368 169.7 364.125 170.038C363.891 170.367 363.549 170.627 363.098 170.818C362.656 171.009 362.14 171.104 361.551 171.104Z" fill="#FFA114"/>
<path d="M544.729 163.577V161.51H548.33V171H546.016V163.577H544.729ZM549.851 166.125C549.851 164.634 550.137 163.46 550.709 162.602C551.29 161.744 552.221 161.315 553.504 161.315C554.787 161.315 555.714 161.744 556.286 162.602C556.867 163.46 557.157 164.634 557.157 166.125C557.157 167.633 556.867 168.816 556.286 169.674C555.714 170.532 554.787 170.961 553.504 170.961C552.221 170.961 551.29 170.532 550.709 169.674C550.137 168.816 549.851 167.633 549.851 166.125ZM554.973 166.125C554.973 165.25 554.878 164.578 554.687 164.11C554.496 163.633 554.102 163.395 553.504 163.395C552.906 163.395 552.512 163.633 552.321 164.11C552.13 164.578 552.035 165.25 552.035 166.125C552.035 166.714 552.07 167.204 552.139 167.594C552.208 167.975 552.347 168.287 552.555 168.53C552.772 168.764 553.088 168.881 553.504 168.881C553.92 168.881 554.232 168.764 554.44 168.53C554.657 168.287 554.8 167.975 554.869 167.594C554.938 167.204 554.973 166.714 554.973 166.125ZM558.332 166.125C558.332 164.634 558.618 163.46 559.19 162.602C559.77 161.744 560.702 161.315 561.985 161.315C563.267 161.315 564.195 161.744 564.767 162.602C565.347 163.46 565.638 164.634 565.638 166.125C565.638 167.633 565.347 168.816 564.767 169.674C564.195 170.532 563.267 170.961 561.985 170.961C560.702 170.961 559.77 170.532 559.19 169.674C558.618 168.816 558.332 167.633 558.332 166.125ZM563.454 166.125C563.454 165.25 563.358 164.578 563.168 164.11C562.977 163.633 562.583 163.395 561.985 163.395C561.387 163.395 560.992 163.633 560.802 164.11C560.611 164.578 560.516 165.25 560.516 166.125C560.516 166.714 560.55 167.204 560.62 167.594C560.689 167.975 560.828 168.287 561.036 168.53C561.252 168.764 561.569 168.881 561.985 168.881C562.401 168.881 562.713 168.764 562.921 168.53C563.137 168.287 563.28 167.975 563.35 167.594C563.419 167.204 563.454 166.714 563.454 166.125ZM574.247 163.668C575.079 163.668 575.746 163.945 576.249 164.5C576.752 165.046 577.003 165.8 577.003 166.762V171H574.793V167.061C574.793 166.576 574.667 166.199 574.416 165.93C574.165 165.661 573.827 165.527 573.402 165.527C572.977 165.527 572.639 165.661 572.388 165.93C572.137 166.199 572.011 166.576 572.011 167.061V171H569.788V161.38H572.011V164.721C572.236 164.4 572.544 164.145 572.934 163.954C573.324 163.763 573.762 163.668 574.247 163.668ZM580.771 164.955C581.031 164.556 581.356 164.244 581.746 164.019C582.136 163.785 582.569 163.668 583.046 163.668V166.021H582.435C581.88 166.021 581.464 166.142 581.187 166.385C580.909 166.619 580.771 167.035 580.771 167.633V171H578.548V163.746H580.771V164.955ZM587.059 171.104C586.427 171.104 585.863 170.996 585.369 170.779C584.875 170.562 584.485 170.268 584.199 169.895C583.913 169.514 583.753 169.089 583.718 168.621H585.915C585.941 168.872 586.058 169.076 586.266 169.232C586.474 169.388 586.73 169.466 587.033 169.466C587.311 169.466 587.523 169.414 587.67 169.31C587.826 169.197 587.904 169.054 587.904 168.881C587.904 168.673 587.796 168.521 587.579 168.426C587.363 168.322 587.012 168.209 586.526 168.088C586.006 167.967 585.573 167.841 585.226 167.711C584.88 167.572 584.581 167.36 584.329 167.074C584.078 166.779 583.952 166.385 583.952 165.891C583.952 165.475 584.065 165.098 584.29 164.76C584.524 164.413 584.862 164.14 585.304 163.941C585.755 163.742 586.288 163.642 586.903 163.642C587.813 163.642 588.528 163.867 589.048 164.318C589.577 164.769 589.88 165.367 589.958 166.112H587.904C587.87 165.861 587.757 165.661 587.566 165.514C587.384 165.367 587.142 165.293 586.838 165.293C586.578 165.293 586.379 165.345 586.24 165.449C586.102 165.544 586.032 165.679 586.032 165.852C586.032 166.06 586.141 166.216 586.357 166.32C586.583 166.424 586.929 166.528 587.397 166.632C587.935 166.771 588.372 166.909 588.71 167.048C589.048 167.178 589.343 167.395 589.594 167.698C589.854 167.993 589.989 168.391 589.997 168.894C589.997 169.319 589.876 169.7 589.633 170.038C589.399 170.367 589.057 170.627 588.606 170.818C588.164 171.009 587.649 171.104 587.059 171.104Z" fill="#F47221"/>
</svg>
