<svg xmlns="http://www.w3.org/2000/svg" xmlns:xlink="http://www.w3.org/1999/xlink" width="1466" height="1644" viewBox="0 153 1466 1644" fill="none" xmlns:v="https://vecta.io/nano"><path fill="#172937" d="M0 152h1466v1692H0z"/><g filter="url(#A)"><use xlink:href="#C" fill="#f37021" fill-opacity=".5"/><use xlink:href="#C" stroke="#000"/></g><g filter="url(#B)"><use xlink:href="#D" fill="#49526d"/><use xlink:href="#D" stroke="#000"/></g><defs><filter id="A" x="1024.5" y=".759" width="621" height="737.747" filterUnits="userSpaceOnUse" color-interpolation-filters="sRGB"><feFlood flood-opacity="0"/><feBlend in="SourceGraphic"/><feGaussianBlur stdDeviation="95"/></filter><filter id="B" x="-342.5" y="499.182" width="758" height="940.871" filterUnits="userSpaceOnUse" color-interpolation-filters="sRGB"><feFlood flood-opacity="0"/><feBlend in="SourceGraphic"/><feGaussianBlur stdDeviation="95"/></filter><path id="C" d="M1354.91 195.322c23.27-23.11 44.58 59.235 62.88 74.61 13.31 9.78 29.07-36.808 33.42 0s5.71 141.641 0 205.007c-5.7 63.366-32.43-38.206-60.42 0-28 38.206-14.58 59.638-50.46 71.286-35.87 11.648-96.2-36.342-105.17-71.286s-17.94-82.469-20.11-136.05c-2.18-53.581 69.48 61.439 79.53 42.337 10.06-19.103 31.25-157.017 60.33-185.904z"/><path id="D" d="M67.779 696.058c36.543-36.268 70.018 92.962 98.763 117.092 20.918 15.348 45.678-57.766 52.508 0s8.965 222.29 0 321.73c-8.965 99.45-50.95-59.96-94.92 0s-22.904 93.6-79.254 111.88-151.122-57.04-165.209-111.88-28.176-129.42-31.591-213.511 109.137 96.421 124.932 66.443 49.093-246.419 94.771-291.754z"/></defs></svg>