<svg xmlns="http://www.w3.org/2000/svg" width="77" height="70" fill="none" stroke="#172836" xmlns:v="https://vecta.io/nano"><g stroke-width="3.5" stroke-miterlimit="10"><path d="M53.54 2H23.392a6.23 6.23 0 0 0-3.182.848c-.968.564-1.772 1.379-2.33 2.361L2.847 31.727a6.52 6.52 0 0 0 0 6.433l15.074 26.63c.558.983 1.362 1.798 2.33 2.361a6.23 6.23 0 0 0 3.182.848h30.148a6.24 6.24 0 0 0 3.181-.85 6.38 6.38 0 0 0 2.331-2.359l15.06-26.63a6.52 6.52 0 0 0 0-6.433L59.024 5.168c-.562-.97-1.364-1.773-2.326-2.329A6.24 6.24 0 0 0 53.54 2h0z"/><path d="M46.114 36.774c2.639-6.332-.354-13.604-6.685-16.243s-13.604.354-16.243 6.685.354 13.604 6.685 16.243 13.604-.354 16.243-6.685z"/></g><path d="M48 45l8 8" stroke-width="3" stroke-miterlimit="10"/><path d="M44 41l4 4" stroke-width="2" stroke-miterlimit="10"/></svg>