<svg xmlns="http://www.w3.org/2000/svg" xmlns:xlink="http://www.w3.org/1999/xlink" width="56" height="45" fill="none" xmlns:v="https://vecta.io/nano"><g fill="#f37021"><g stroke="#fff"><use xlink:href="#B"/><use xlink:href="#B"/></g><path d="M25.835 13.778h3.444v15.5h-3.444v-15.5zm0 18.944h3.444v3.444h-3.444v-3.444z"/></g><defs ><path id="B" d="M32.512 3.138h0l21.229 32.639c.579.89.87 1.874.87 2.932 0 3.051-2.595 5.569-5.827 5.569H6.327C3.095 44.278.5 41.76.5 38.709c0-1.058.292-2.042.871-2.932h0L22.599 3.138C23.671 1.49 25.52.5 27.556.5s3.884.99 4.956 2.638zM4.11 37.373v.001c-.263.406-.392.848-.392 1.335 0 1.411 1.19 2.523 2.609 2.523h42.458c1.419 0 2.609-1.112 2.609-2.523a2.39 2.39 0 0 0-.393-1.334h0L29.772 4.735c-.486-.748-1.318-1.189-2.216-1.189a2.63 2.63 0 0 0-2.216 1.188h0L4.11 37.373z"/></defs></svg>