<svg xmlns="http://www.w3.org/2000/svg" xmlns:xlink="http://www.w3.org/1999/xlink" width="1466" height="918" viewBox="0 380 1466 918" fill="none" xmlns:v="https://vecta.io/nano"><style><![CDATA[.B{color-interpolation-filters:sRGB}.C{flood-opacity:0}]]></style><mask id="A" mask-type="alpha" maskUnits="userSpaceOnUse" x="0" y="271" width="1466" height="983"><path fill="#f5f7fe" d="M0 271h1466v983H0z"/></mask><g mask="url(#A)"><g opacity=".5" filter="url(#B)"><use xlink:href="#E" fill="#dee3fa"/><use xlink:href="#E" stroke="#000"/></g></g><g opacity=".3" filter="url(#C)"><use xlink:href="#F" fill="#b9d6f0"/><use xlink:href="#F" stroke="#000"/></g><g filter="url(#D)"><use xlink:href="#G" fill="#fef5e5"/><use xlink:href="#G" stroke="#000"/></g><path d="M512.5 621.89c190.844-27.553 513.57-85.132 482.275 120.5C977.5 855.89 632.004 892.941 562.5 899.89c-72.589 7.257-150.5 51.971-150.5 128 0 184.5 336.5 232.5 582.775 116.59" stroke="#f2762b" stroke-linecap="round" stroke-dasharray="15 15"/><path d="M1046.23 1140.76l3.53-1.87 2.1-18.73 5.92-2.87c3.79-1.9 2.22-5.07 2.22-5.07s-1.76-3.07-5.46-.99l-5.59 3.27-16.87-8.77-3.53 1.88 12.76 11.37-16.68 9.87-5.69-3.79-3.52.9 4.6 5.62.8 1.52.81 1.52 2.1 6.95 2.73-2.43.02-6.84 17.45-8.33 2.3 16.79z" fill="#f2762b"/><g opacity=".5"><path d="M1204.52 668.225l-17.35-13.152a2.35 2.35 0 0 0-1.73-.449c-.61.086-1.17.412-1.54.906s-.54 1.116-.45 1.729c.08.613.4 1.166.89 1.539l15.51 11.747-38.91 51.35-29.84-22.607 5.51-.771c.61-.088 1.16-.415 1.54-.908.37-.494.53-1.114.45-1.725s-.41-1.163-.9-1.536a2.3 2.3 0 0 0-1.71-.453l-11.09 1.55c-.61.086-1.17.412-1.54.906-.38.494-.54 1.116-.46 1.729l1.51 11.092c.09.611.41 1.162.9 1.533a2.32 2.32 0 0 0 1.72.445 2.34 2.34 0 0 0 1.54-.901c.37-.492.54-1.112.46-1.723l-.75-5.512 31.69 24.012a2.31 2.31 0 0 0 3.26-.457l41.74-55.076c.37-.494.54-1.115.45-1.728-.08-.613-.4-1.167-.9-1.54z" fill="#f8af23"/><path d="M1181.88 651.554l-1.51-11.091c-.04-.305-.14-.598-.29-.864s-.36-.497-.6-.683a2.35 2.35 0 0 0-.82-.398c-.3-.078-.61-.096-.91-.053s-.6.145-.86.301a2.22 2.22 0 0 0-.68.608c-.19.246-.33.526-.4.823a2.34 2.34 0 0 0-.06.912l.75 5.513-31.69-24.012a2.31 2.31 0 0 0-1.72-.448 2.33 2.33 0 0 0-1.54.905l-41.73 55.064a2.37 2.37 0 0 0-.45 1.728 2.32 2.32 0 0 0 .9 1.54l17.35 13.147c.49.373 1.11.534 1.72.449a2.36 2.36 0 0 0 1.55-.906 2.37 2.37 0 0 0 .45-1.728c-.08-.613-.41-1.167-.9-1.539l-15.49-11.743 38.9-51.339 29.83 22.607-5.51.77c-.3.042-.6.143-.86.297-.27.155-.5.361-.69.606a2.49 2.49 0 0 0-.4.821 2.16 2.16 0 0 0-.05.912c.04.304.14.597.29.861.16.265.36.496.61.681a2.26 2.26 0 0 0 .82.395c.3.076.61.093.91.049l11.08-1.551c.62-.086 1.17-.411 1.55-.905.37-.494.53-1.116.45-1.729z" fill="#282e35"/><path d="M1092.14 691.93c6.83 5.176 16.57 3.834 21.74-2.996 5.18-6.83 3.84-16.562-2.99-21.737s-16.57-3.834-21.74 2.996c-5.18 6.83-3.84 16.562 2.99 21.737z" fill="#63bce7"/><path d="M1096.24 675.564a15.31 15.31 0 0 1 8.13-5.506c3.26-.901 6.74-.724 9.92.506a16.09 16.09 0 0 0-5.56-4.688c-2.18-1.118-4.59-1.719-7.03-1.755s-4.85.493-7.03 1.547a15.27 15.27 0 0 0-5.52 4.525c-1.46 1.921-2.44 4.161-2.86 6.543-.43 2.383-.29 4.841.41 7.181.69 2.339 1.92 4.496 3.59 6.298s3.73 3.201 6.02 4.085c-2.05-2.733-3.16-6.036-3.17-9.414a15.25 15.25 0 0 1 3.1-9.322z" fill="#6377e7"/><g fill="#f8af23"><path d="M1193.9 682.426c6.83 5.176 16.57 3.834 21.74-2.996 5.18-6.83 3.84-16.562-2.99-21.738s-16.57-3.834-21.74 2.996c-5.18 6.83-3.84 16.563 2.99 21.738z"/><path d="M1212.8 657.807a15.21 15.21 0 0 0-3.81-2.102 15.33 15.33 0 0 1 2.96 9.258c-.03 3.34-1.15 6.589-3.18 9.263a15.62 15.62 0 0 1-8.05 5.566c-3.21.94-6.62.817-9.72-.351a15.08 15.08 0 0 0 4.9 4.296c1.92 1.06 4.06 1.689 6.25 1.846a15.44 15.44 0 0 0 6.49-.938c2.08-.775 3.97-1.987 5.55-3.553s2.8-3.451 3.6-5.525c.79-2.075 1.14-4.292 1-6.5-.13-2.208-.73-4.356-1.77-6.299a15.09 15.09 0 0 0-4.22-4.961z"/><path d="M1184.13 659.307l4.85 3.677c-1.41 2.888-1.94 6.134-1.5 9.321a16.13 16.13 0 0 0 3.97 8.568l-30.4 40.12-28.09-21.284 3.85-.531a3 3 0 0 0 1.12-.388 2.98 2.98 0 0 0 .89-.788 3.06 3.06 0 0 0 .52-1.068c.1-.387.12-.789.07-1.185s-.19-.777-.39-1.122-.47-.646-.79-.888c-.31-.241-.68-.417-1.06-.518a3.08 3.08 0 0 0-1.19-.071l-11.13 1.534c-.8.11-1.52.533-2.01 1.176a3.07 3.07 0 0 0-.58 2.253l1.53 11.127c.05.395.18.776.39 1.121.2.345.47.647.78.888.32.241.69.417 1.07.518a3.08 3.08 0 0 0 1.19.071 3.11 3.11 0 0 0 1.12-.389c.34-.202.64-.469.89-.788a3.02 3.02 0 0 0 .51-1.068c.11-.386.13-.789.08-1.185l-.54-3.851 30.52 23.121c.64.487 1.45.698 2.25.588a3.05 3.05 0 0 0 2.01-1.175l32.24-42.545c2.62 1.294 5.55 1.849 8.46 1.606s5.71-1.275 8.08-2.985 4.23-4.034 5.38-6.722 1.55-5.639 1.15-8.536-1.58-5.63-3.41-7.906c-1.84-2.276-4.26-4.01-7.01-5.015a16.08 16.08 0 0 0-8.58-.689c-2.87.554-5.54 1.88-7.71 3.835l-4.85-3.676a3.07 3.07 0 0 0-2.26-.589c-.8.11-1.52.533-2.01 1.176a3.07 3.07 0 0 0-.58 2.253c.11.799.53 1.522 1.17 2.009zm-21.19 66.937c-.26.346-.65.574-1.08.634s-.87-.055-1.21-.317l-31.87-24.146c-.11-.084-.24-.133-.38-.141s-.28.025-.4.095a.68.68 0 0 0-.27.299c-.06.125-.09.265-.07.403l.77 5.53c.02.214.01.43-.04.638a1.73 1.73 0 0 1-.28.575 1.59 1.59 0 0 1-.48.425c-.19.108-.39.18-.6.209a1.7 1.7 0 0 1-1.21-.33 1.69 1.69 0 0 1-.64-1.069l-1.53-11.127a1.71 1.71 0 0 1 .03-.638 1.73 1.73 0 0 1 .28-.575 1.72 1.72 0 0 1 .48-.425c.19-.108.39-.179.61-.209l11.12-1.533a1.7 1.7 0 0 1 1.21.329c.34.261.57.644.64 1.07a1.53 1.53 0 0 1-.04.638c-.05.208-.15.404-.28.575a1.59 1.59 0 0 1-1.08.633l-5.53.763a.68.68 0 0 0-.37.17c-.11.092-.18.213-.21.348-.04.134-.03.276.01.407.05.131.13.246.24.33l30 22.732c.15.112.34.161.52.136.19-.025.35-.123.46-.272l30.7-40.513a16.44 16.44 0 0 0 2.61 1.978l-32.11 42.378zm49.36-67.851c2.32 1.755 4.06 4.159 5.01 6.906a14.67 14.67 0 0 1 .33 8.527c-.73 2.813-2.28 5.344-4.46 7.274-2.17 1.931-4.87 3.173-7.75 3.57a14.71 14.71 0 0 1-8.43-1.339c-2.61-1.27-4.79-3.287-6.26-5.796s-2.16-5.397-1.99-8.299a14.65 14.65 0 0 1 2.96-8.005c2.36-3.103 5.85-5.145 9.71-5.677a14.71 14.71 0 0 1 10.88 2.839zm-25.34-2.816l4.68 3.551a16.52 16.52 0 0 0-1.97 2.611l-4.69-3.551a1.62 1.62 0 0 1-.63-1.082 1.64 1.64 0 0 1 .31-1.213c.27-.346.66-.574 1.09-.633s.86.055 1.21.317z"/></g><path d="M1087.45 687.485l-2.82-2.138a.7.7 0 0 0-.98.136.74.74 0 0 0-.14.52c.03.184.13.351.27.463l76.18 57.725c.15.112.34.161.52.136.19-.025.36-.123.47-.272s.16-.335.13-.519c-.02-.185-.12-.352-.27-.464l-62.89-47.659a16.13 16.13 0 0 0 7.65-.095c2.51-.645 4.83-1.883 6.76-3.611l4.84 3.672c.64.487 1.46.699 2.25.589.8-.11 1.53-.533 2.01-1.176.49-.643.7-1.454.59-2.253s-.53-1.522-1.17-2.009l-4.85-3.672c1.42-2.888 1.94-6.134 1.5-9.322a16.13 16.13 0 0 0-3.97-8.567l30.41-40.12 28.08 21.284-3.85.53c-.4.052-.78.181-1.13.382a3.11 3.11 0 0 0-.9.787c-.24.32-.42.684-.52 1.073a2.99 2.99 0 0 0-.07 1.191c.05.398.18.782.39 1.128a2.99 2.99 0 0 0 .79.89c.32.241.69.416 1.08.515a3.04 3.04 0 0 0 1.19.062l11.13-1.534a3 3 0 0 0 1.12-.388 2.98 2.98 0 0 0 .89-.788 3.06 3.06 0 0 0 .52-1.068c.1-.387.12-.79.07-1.185l-1.53-11.125c-.06-.396-.19-.777-.39-1.122s-.47-.646-.79-.888a3.04 3.04 0 0 0-1.07-.518 3.03 3.03 0 0 0-1.18-.071c-.4.055-.78.187-1.12.389a2.95 2.95 0 0 0-.89.788c-.24.318-.42.681-.52 1.067s-.12.789-.07 1.185l.53 3.852-30.51-23.121a3.07 3.07 0 0 0-2.26-.588 3.03 3.03 0 0 0-2 1.175l-32.24 42.545a16.1 16.1 0 0 0-9.92-1.419c-3.38.594-6.47 2.249-8.84 4.724s-3.89 5.641-4.33 9.038a16.06 16.06 0 0 0 1.85 9.847v-.001zm32.55 4.165a1.62 1.62 0 0 1 .63 1.082c.06.43-.05.866-.31 1.213-.27.346-.66.574-1.09.633a1.64 1.64 0 0 1-1.21-.317l-4.68-3.547c.75-.801 1.41-1.676 1.98-2.611l4.68 3.547zm22.04-68.052c.26-.346.65-.574 1.08-.634a1.66 1.66 0 0 1 1.22.318l31.86 24.145c.11.084.25.133.39.141.13.009.27-.024.39-.095s.22-.174.28-.299a.7.7 0 0 0 .06-.403l-.76-5.53a1.53 1.53 0 0 1 .04-.638c.05-.209.15-.404.28-.575a1.59 1.59 0 0 1 .48-.425 1.61 1.61 0 0 1 .6-.209 1.66 1.66 0 0 1 1.2.33c.35.26.58.643.65 1.069l1.53 11.128a1.53 1.53 0 0 1-.04.638c-.05.208-.15.404-.28.575s-.29.316-.48.424a1.61 1.61 0 0 1-.6.21l-11.13 1.533a1.66 1.66 0 0 1-1.2-.33 1.61 1.61 0 0 1-.64-1.069 1.71 1.71 0 0 1 .03-.638c.06-.208.15-.404.28-.575a1.72 1.72 0 0 1 .48-.425 1.69 1.69 0 0 1 .6-.209l5.54-.762c.13-.019.26-.078.37-.17.1-.093.17-.214.21-.348.03-.134.03-.276-.02-.407a.67.67 0 0 0-.24-.33l-30-22.732a.69.69 0 0 0-.52-.136.7.7 0 0 0-.46.272l-30.7 40.511a15.95 15.95 0 0 0-2.61-1.979l32.11-42.376zm-31.6 44.42a14.67 14.67 0 0 1 5.34 15.434c-.73 2.813-2.29 5.344-4.46 7.274a14.68 14.68 0 0 1-7.75 3.569 14.71 14.71 0 0 1-8.43-1.339 14.67 14.67 0 0 1-6.26-5.796c-1.47-2.509-2.16-5.397-1.99-8.299a14.65 14.65 0 0 1 2.96-8.005 14.68 14.68 0 0 1 9.71-5.677 14.71 14.71 0 0 1 10.88 2.839z" fill="#282e35"/><path d="M1081.31 689.733l-6.9-5.229c-.15-.113-.34-.162-.52-.136-.19.025-.35.123-.46.271-.12.149-.17.336-.14.52s.12.351.27.464l6.9 5.229c.15.112.34.161.52.136a.72.72 0 0 0 .47-.272.69.69 0 0 0 .13-.52c-.02-.184-.12-.351-.27-.463zm83.08 62.953l-6.9-5.229c-.15-.113-.34-.162-.52-.136a.7.7 0 0 0-.46.271c-.12.149-.17.336-.14.52s.12.351.27.464l6.9 5.229c.15.112.34.161.52.136a.72.72 0 0 0 .47-.272c.11-.148.16-.335.13-.519-.02-.185-.12-.352-.27-.464zm-12.41-9.405l-65.16-49.373a.71.71 0 0 0-.52-.136.7.7 0 0 0-.46.271c-.12.149-.16.336-.14.52a.71.71 0 0 0 .27.464l65.16 49.373c.15.113.34.162.52.136.19-.025.35-.123.46-.271.12-.149.17-.336.14-.52-.02-.185-.12-.351-.27-.464zm-75.1-62.044l2.96 2.246c.15.112.34.161.52.136.19-.026.36-.124.47-.272a.69.69 0 0 0 .13-.52c-.02-.184-.12-.351-.27-.463l-2.96-2.246c-.15-.112-.34-.161-.52-.136a.7.7 0 0 0-.46.272c-.12.148-.17.335-.14.519a.71.71 0 0 0 .27.464zm86.89 64.955c-.12.149-.16.336-.14.52.03.184.12.351.27.464l2.97 2.245a.69.69 0 0 0 .52.136.7.7 0 0 0 .46-.272.74.74 0 0 0 .14-.52c-.03-.184-.13-.351-.28-.463l-2.96-2.245c-.15-.113-.33-.162-.52-.136a.7.7 0 0 0-.46.271z" fill="#3f3679"/></g><g opacity=".3"><path d="M118.887 626.255l-3.073 3.336a1.512 1.512 0 1 1-2.225-2.048l3.074-3.336a1.512 1.512 0 1 1 2.224 2.048zm-19.434-4.15a1.51 1.51 0 0 1-2.623-.962l-.185-4.532a1.512 1.512 0 1 1 3.021-.124l.185 4.531a1.51 1.51 0 0 1-.398 1.087zm-16.797 7.78a1.51 1.51 0 0 1-2.136.088l-3.337-3.072a1.512 1.512 0 1 1 2.048-2.224l3.337 3.072a1.51 1.51 0 0 1 .088 2.136zm-6.376 17.383c-.262.285-.634.47-1.05.487l-4.531.187a1.512 1.512 0 1 1-.125-3.021l4.531-.187a1.51 1.51 0 0 1 1.573 1.448c.016.417-.137.803-.398 1.086zm8.811 15.691l-3.071 3.336a1.512 1.512 0 1 1-2.225-2.049l3.071-3.335a1.512 1.512 0 1 1 2.224 2.048z" fill="#f37021"/><path d="M120.737 671.118l1.96-4.361 4.184-2.313-.176-4.273 4.096-4.449c3.4-3.692 9.138-3.917 12.818-.529l3.337 3.073a3.01 3.01 0 0 1 .176 4.272l-26.626 28.919c-1.127 1.224-3.037 1.314-4.273.176l-3.337-3.072c-3.68-3.389-3.928-9.126-.529-12.818l4.097-4.449 4.273-.176z" fill="#5d9cec"/><path d="M130.8 655.722l-4.096 4.449c3.4-3.692 9.137-3.917 12.818-.529l3.337 3.073a3.01 3.01 0 0 1 .176 4.272l4.096-4.449a3.01 3.01 0 0 0-.176-4.272l-3.337-3.073c-3.68-3.388-9.418-3.163-12.818.529z" fill="#4a89dc"/><path d="M119.361 663.685c1.843-2.002 3.105-4.334 3.786-6.79l3.559 3.277.176 4.272-4.185 2.313-1.96 4.361-4.272.176-3.559-3.276c2.392-.881 4.611-2.331 6.455-4.333z" fill="#f5f7fa"/><path d="M113.94 636.088l4.46 4.107c4.75 4.374 6.367 10.877 4.745 16.7-.679 2.457-1.943 4.788-3.786 6.79s-4.063 3.452-6.454 4.333c-5.67 2.096-12.285 1.02-17.046-3.364l-4.449-4.096-.264-6.409s6.034-2.09 10.418-6.85c4.393-4.772 5.968-10.946 5.968-10.946l6.409-.265z" fill="#eac6bb"/><path d="M107.531 636.353s-.156.609-.502 1.593l7.275 6.698c4.75 4.374 6.367 10.877 4.746 16.7-.421 1.522-1.093 2.984-1.96 4.361.798-.601 1.567-1.257 2.269-2.02a16.53 16.53 0 0 0 3.787-6.79c1.622-5.823.005-12.326-4.746-16.7l-4.459-4.106-6.41.264z" fill="#d3b1a9"/><path d="M91.147 654.149l.264 6.409-5.561-5.121a13.61 13.61 0 0 1-.793-19.227l8.193-8.898 4.449 4.097c2.827-3.07 7.613-3.268 10.682-.441l5.561 5.12-6.409.265s-1.574 6.174-5.968 10.946c-4.383 4.76-10.417 6.85-10.417 6.85z" fill="#965353"/><path d="M97.698 631.409l-4.449-4.097-4.096 4.449 6.674 6.145c2.826-3.07 6.5-4.291 9.57-1.465l1.634 1.505.502-1.593 6.409-.264-5.561-5.121c-3.07-2.826-7.856-2.629-10.682.441z" fill="#844747"/><g fill="#f37021"><path d="M116.132 611.388c3.966-4.308 10.662-4.569 14.954-.617a10.57 10.57 0 0 1 .617 14.955c-3.953 4.293-10.647 4.583-14.954.617a10.6 10.6 0 0 1-.617-14.955z"/><path d="M116.131 611.388a10.58 10.58 0 0 0-1.72 2.524c3.923-2.337 9.057-1.933 12.578 1.308 3.533 3.253 4.35 8.329 2.341 12.428a10.56 10.56 0 0 0 2.372-1.922 10.57 10.57 0 0 0-.617-14.955c-4.292-3.952-10.988-3.691-14.954.617zm-26.135-11.077c3.954-4.294 10.658-4.573 14.955-.617 4.308 3.966 4.571 10.66.628 14.965a10.47 10.47 0 0 1-7.349 3.399c-2.716.113-5.463-.81-7.617-2.792-4.296-3.956-4.571-10.66-.617-14.955z"/><path d="M89.995 600.311c-.712.773-1.281 1.626-1.72 2.527 3.916-2.331 9.054-1.939 12.578 1.305 3.537 3.257 4.342 8.349 2.337 12.451.863-.515 1.671-1.156 2.388-1.935 3.942-4.305 3.679-10.999-.629-14.965-4.296-3.956-11-3.677-14.954.617zM63.748 612.48c3.966-4.308 10.662-4.569 14.954-.617a10.6 10.6 0 0 1 .617 14.954c-3.953 4.293-10.66 4.571-14.954.617a10.6 10.6 0 0 1-.617-14.954z"/><path d="M63.747 612.48a10.54 10.54 0 0 0-1.719 2.523c3.922-2.336 9.057-1.933 12.577 1.309s4.336 8.332 2.337 12.428a10.59 10.59 0 0 0 2.376-1.923c3.953-4.293 3.677-11-.617-14.954s-10.988-3.691-14.954.617zm3.229 52.296a10.6 10.6 0 0 1 14.954-.617c4.308 3.967 4.57 10.662.617 14.955s-10.647 4.583-14.954.617a10.6 10.6 0 0 1-.617-14.955z"/><path d="M66.974 664.776c-.712.773-1.281 1.626-1.72 2.527 3.918-2.328 9.059-1.935 12.578 1.305a10.58 10.58 0 0 1 2.338 12.429 10.5 10.5 0 0 0 2.375-1.923c3.953-4.293 3.691-10.988-.617-14.955a10.6 10.6 0 0 0-14.954.617zm-13.198-25.14a10.59 10.59 0 0 1 14.965-.618 10.58 10.58 0 0 1 .618 14.966c-3.959 4.299-10.654 4.591-14.955.605-4.3-3.958-4.587-10.653-.628-14.953z"/><path d="M53.778 639.636c-.712.773-1.281 1.623-1.719 2.523 3.924-2.339 9.061-1.94 12.588 1.308 3.538 3.258 4.353 8.339 2.342 12.439.859-.513 1.662-1.151 2.372-1.922a10.58 10.58 0 0 0-.618-14.966 10.59 10.59 0 0 0-14.965.618z"/></g><path d="M129.402 672.867c-.566.615-1.526.66-2.141.094s-.66-1.516-.094-2.13l.011-.012a1.512 1.512 0 1 1 2.224 2.048zm-50.162 3.137c-.566.615-1.527.66-2.141.094s-.66-1.516-.094-2.13l.011-.012a1.512 1.512 0 1 1 2.225 2.048zm-3.366-3.037a1.51 1.51 0 0 1-2.136.088l-3.339-3.074a1.512 1.512 0 1 1 2.048-2.225l3.339 3.075a1.51 1.51 0 0 1 .088 2.136zm52.525-50.35a1.52 1.52 0 0 1-2.142.094c-.615-.567-.659-1.516-.094-2.13l.011-.012a1.512 1.512 0 1 1 2.225 2.048zm-3.366-3.038a1.51 1.51 0 0 1-2.137.088l-3.339-3.072a1.51 1.51 0 0 1-.088-2.136c.565-.614 1.521-.655 2.137-.089l3.338 3.073a1.51 1.51 0 0 1 .089 2.136zm-22.77-8.036c-.566.615-1.526.66-2.141.094s-.66-1.516-.094-2.13l.011-.012a1.512 1.512 0 1 1 2.224 2.048zm-3.365-3.038a1.51 1.51 0 0 1-2.135.09l-3.34-3.072a1.51 1.51 0 0 1-.091-2.136l.001-.001a1.51 1.51 0 0 1 2.135-.089l3.34 3.071c.615.566.654 1.523.089 2.137zm-22.885 15.199a1.52 1.52 0 0 1-2.142.094c-.615-.567-.659-1.516-.094-2.13l.011-.012a1.512 1.512 0 1 1 2.224 2.048zm-3.367-3.034a1.51 1.51 0 0 1-2.136.088l-3.339-3.074a1.512 1.512 0 1 1 2.048-2.225l3.339 3.074a1.51 1.51 0 0 1 .088 2.137zm-6.592 30.192c-.566.615-1.526.66-2.141.093s-.66-1.515-.094-2.129l.011-.012a1.512 1.512 0 1 1 2.225 2.048zm-3.37-3.034a1.51 1.51 0 0 1-2.136.088l-3.338-3.073a1.512 1.512 0 1 1 2.048-2.225l3.338 3.073a1.51 1.51 0 0 1 .088 2.137z" fill="#f5f7fa"/></g><defs><filter id="B" x="1025.5" y="131.5" width="842.213" height="687.621" filterUnits="userSpaceOnUse" class="B"><feFlood class="C"/><feBlend in="SourceGraphic"/><feGaussianBlur stdDeviation="95"/></filter><filter id="C" x="379.5" y="885.499" width="774" height="632.039" filterUnits="userSpaceOnUse" class="B"><feFlood class="C"/><feBlend in="SourceGraphic"/><feGaussianBlur stdDeviation="95"/></filter><filter id="D" x="-761.5" y=".5" width="1390" height="1099.69" filterUnits="userSpaceOnUse" class="B"><feFlood class="C"/><feBlend in="SourceGraphic"/><feGaussianBlur stdDeviation="100"/></filter><path id="E" d="M1545.01 416.5c30.73-13.931 58.88 35.707 83.05 44.975 17.59 5.896 38.4-22.188 44.15.001 5.74 22.188 7.54 85.382 0 123.579s-42.84-23.031-79.82 0c-36.97 23.031-19.25 35.95-66.64 42.972-47.38 7.022-318.38-50.048-309.54-72.219 48.5-121.569 169.37-11.588 166.5-43.888s-59.78-177.64-46.5-189.156 170.39 111.149 208.8 93.736z"/><path id="F" d="M799.107 1078.86c38.093-16.26 72.989 41.68 102.954 52.5 21.805 6.88 47.616-25.9 54.736 0s9.346 99.67 0 144.26-53.112-26.88-98.948 0c-45.837 26.89-23.876 41.97-82.618 50.16-58.742 8.2-157.535-25.57-172.221-50.16s-29.371-58.03-32.931-95.74c-3.56-37.7 113.769 43.24 130.235 29.8 16.465-13.45 51.176-110.49 98.793-130.82z"/><path id="G" d="M15.557 208.957c95.863-45.261 183.68 116.011 259.087 146.124 54.875 19.154 119.829-72.088 137.747.001s23.518 277.405 0 401.507-133.658-74.826-249.008 0-60.084 116.802-207.91 139.615-396.444-71.176-433.401-139.615-73.913-161.515-82.872-266.455 286.303 120.33 327.739 82.917 128.789-307.518 248.618-364.094z"/></defs></svg>