<svg xmlns="http://www.w3.org/2000/svg" xmlns:xlink="http://www.w3.org/1999/xlink" width="1466" height="900" fill="none" xmlns:v="https://vecta.io/nano"><style><![CDATA[.B{color-interpolation-filters:sRGB}.C{flood-opacity:0}]]></style><mask id="A" mask-type="alpha" maskUnits="userSpaceOnUse" x="0" y="0" width="1466" height="1055"><path fill="#f5f7fe" d="M0 0h1466v1055H0z"/></mask><g mask="url(#A)"><g filter="url(#B)"><use xlink:href="#E" fill="#fef5e5"/><use xlink:href="#E" stroke="#000"/></g><g opacity=".5" filter="url(#C)"><use xlink:href="#F" fill="#b9d6f0"/><use xlink:href="#F" stroke="#000"/></g><g opacity=".5" filter="url(#D)"><use xlink:href="#G" fill="#dee3fa"/><use xlink:href="#G" stroke="#000"/></g></g><path d="M750 128c3.881 22.304 22.194 65.722 64.396 60.959 52.753-5.953 12.356-60.959-17.822-33.813-22.861 20.564-16.981 51.911-3.326 71.437 21.148 30.241 112.871 54.53 172.752 0" stroke="gray" stroke-dasharray="5 5"/><path d="M1019.38 203.713l3.14-2.656-1.94-19.359 5.34-4.181c3.41-2.751 1.14-5.602 1.14-5.602s-2.45-2.72-5.72.186l-4.94 4.514-18.926-5.183-3.156 2.668 15.352 8.701-14.69 13.588-6.57-2.586-3.353 1.675 5.863 4.671 1.143 1.357 1.142 1.357 3.64 6.556 2.219-3.044-1.469-6.906 15.795-12.205 5.99 16.449z" fill="gray"/><defs><filter id="B" x="-736.5" y="-478.499" width="1390" height="1326.89" filterUnits="userSpaceOnUse" class="B"><feFlood class="C"/><feBlend in="SourceGraphic"/><feGaussianBlur stdDeviation="100"/></filter><filter id="C" x="-268.5" y="506.242" width="774" height="713.668" filterUnits="userSpaceOnUse" class="B"><feFlood class="C"/><feBlend in="SourceGraphic"/><feGaussianBlur stdDeviation="95"/></filter><filter id="D" x="982.5" y="441.105" width="842.212" height="787.326" filterUnits="userSpaceOnUse" class="B"><feFlood class="C"/><feBlend in="SourceGraphic"/><feGaussianBlur stdDeviation="95"/></filter><path id="E" d="M40.557-267.455c95.863-59.978 183.68 153.736 259.087 193.641 54.875 25.382 119.829-95.53 137.747 0s23.518 367.61 0 532.067-133.658-99.158-249.008 0-60.084 154.783-207.91 185.014-396.444-94.321-433.401-185.014-73.913-214.036-82.872-353.099 286.303 159.457 327.739 109.879S-79.272-192.482 40.557-267.455z"/><path id="F" d="M151.107 700.53c38.093-21.55 72.989 55.237 102.954 69.575 21.805 9.119 47.616-34.324 54.736 0s9.346 132.081 0 191.17-53.112-35.628-98.948 0-23.876 55.615-82.618 66.475-157.535-33.89-172.22-66.475-29.371-76.903-32.931-126.868S35.848 891.7 52.314 873.886s51.176-146.418 98.793-173.356z"/><path id="G" d="M1502.01 756.833c30.73-18.461 58.88 47.318 83.05 59.6 17.59 7.813 38.4-29.403 44.15 0 5.74 29.404 7.54 113.147 0 163.765s-42.84-30.52-79.82 0c-36.97 30.522-19.25 47.642-66.64 56.942-47.38 9.31-318.38-66.319-309.54-95.7 48.5-161.1 169.37-15.357 166.5-58.159s-59.78-235.404-46.5-250.664 170.39 147.292 208.8 124.216z"/></defs></svg>