<svg xmlns="http://www.w3.org/2000/svg" width="77" height="70" fill="none" stroke="#172836" xmlns:v="https://vecta.io/nano"><path d="M53.54 2H23.392a6.23 6.23 0 0 0-3.182.848c-.968.564-1.772 1.379-2.33 2.361L2.847 31.727a6.52 6.52 0 0 0 0 6.433l15.074 26.63c.558.983 1.362 1.798 2.33 2.361a6.23 6.23 0 0 0 3.182.848h30.148a6.24 6.24 0 0 0 3.181-.85 6.38 6.38 0 0 0 2.331-2.359l15.06-26.63a6.52 6.52 0 0 0 0-6.433L59.024 5.168c-.562-.97-1.364-1.773-2.326-2.329A6.24 6.24 0 0 0 53.54 2h0z" stroke-width="3.5" stroke-miterlimit="10"/><g stroke-width="2"><path d="M21 42.214v9.58l11.109.127 4.128-4.009c.028-.253.068-1.376 0-5.697s-5.079-6.049-7.576-6.372c-4.971.067-7.179 4.276-7.661 6.372zm16.077-3.858v8.741l4.5-4.439 4.033 3.628c6.198-5.976 5.079-4.045 5.018-7.93s-4.517-5.439-6.737-5.729c-4.421.061-6.384 3.845-6.813 5.729zm-3.409-7.74c0 2.265-2.001 4.225-4.627 4.225s-4.627-1.96-4.627-4.225 2.001-4.225 4.627-4.225 4.627 1.96 4.627 4.226z"/><circle cx="44.313" cy="26.999" r="3.824"/><path d="M32.255 51.92l9.587-9.313 4.023 3.666 16.135-15.255m0 0h-4.194m4.194 0v4.341"/></g></svg>