<svg xmlns="http://www.w3.org/2000/svg" width="84" height="70" fill="none" xmlns:v="https://vecta.io/nano"><g stroke-width="2" stroke-miterlimit="10"><path d="M65.876 32.978l3.54-1.8-1.805-3.592-3.398 1.721-.213-.257a8.62 8.62 0 0 0-2.759-2.218l.789-3.78-3.942-.825-.764 3.628c-1.332-.036-2.656.234-3.867.79l-2.406-2.906-3.107 2.573 2.295 2.772a9.04 9.04 0 0 0-1.76 3.586l-3.716.062.106 4.019 3.688-.096a8.71 8.71 0 0 0 1.716 3.553l-2.316 3.028 3.191 2.444 2.28-2.98a8.88 8.88 0 0 0 3.763.859l.941 3.799 3.914-.961-.935-3.747c.635-.306 1.231-.686 1.776-1.131a9.06 9.06 0 0 0 1.186-1.207l3.636 1.662 1.684-3.655-3.538-1.611c.273-1.227.281-2.499.021-3.729zM54.118 37.23a3.95 3.95 0 0 1-.449-4.363c.365-.69.927-1.256 1.613-1.627s1.468-.53 2.246-.457a3.95 3.95 0 0 1 3.402 2.768c.23.746.233 1.544.01 2.292s-.664 1.413-1.265 1.911c-.806.668-1.845.987-2.887.889s-2.003-.606-2.67-1.413z" stroke="url(#A)"/><path d="M41.221 32.778l3.538-1.78-1.805-3.592-3.408 1.709-.213-.257a8.91 8.91 0 0 0-2.748-2.227l.787-3.76-3.942-.825-.774 3.617a8.95 8.95 0 0 0-3.878.799l-2.387-2.884-3.074 2.545 2.295 2.772a8.85 8.85 0 0 0-1.76 3.586l-3.716.062.085 4.017 3.679-.107c.297 1.304.887 2.522 1.726 3.564L23.3 43.035l3.192 2.444 2.289-2.969a8.97 8.97 0 0 0 3.754.848l.95 3.81 3.905-.972-.935-3.747c.638-.3 1.235-.68 1.776-1.131.435-.361.835-.761 1.195-1.196l3.636 1.662 1.684-3.655-3.536-1.632a8.85 8.85 0 0 0 .01-3.72h0zm-11.769 4.261c-.498-.601-.806-1.337-.886-2.113s.072-1.559.438-2.249.927-1.256 1.613-1.627 1.468-.53 2.246-.457a3.95 3.95 0 0 1 2.121.868c.606.493 1.052 1.154 1.281 1.9s.233 1.544.01 2.291-.664 1.413-1.265 1.911c-.806.668-1.845.987-2.887.889s-2.003-.606-2.67-1.413h0z" stroke="url(#B)"/></g><path d="M58.54 2H28.392a6.23 6.23 0 0 0-3.182.848c-.968.564-1.772 1.379-2.33 2.361L7.847 31.727a6.52 6.52 0 0 0 0 6.433l15.074 26.63c.558.983 1.362 1.798 2.33 2.361a6.23 6.23 0 0 0 3.182.848h30.148a6.24 6.24 0 0 0 3.181-.85 6.38 6.38 0 0 0 2.331-2.359l15.06-26.63a6.52 6.52 0 0 0 0-6.433L64.024 5.168c-.562-.97-1.364-1.773-2.326-2.329A6.24 6.24 0 0 0 58.54 2h0z" stroke="#172836" stroke-width="3.5" stroke-miterlimit="10"/><path d="M81.186 10.61l.805-.593-.593-.805-1.186-1.61-.593-.805-.805.593-76 56-.805.593.593.805 1.186 1.61.593.805.805-.593 76-56z" fill="#172836" stroke="#fff" stroke-width="2"/><defs><linearGradient id="A" x1="49.311" y1="25.177" x2="65.042" y2="44.18" gradientUnits="userSpaceOnUse"><stop stop-color="#172836"/><stop offset="1" stop-color="#455a64"/></linearGradient><linearGradient id="B" x1="24.669" y1="25.004" x2="40.391" y2="43.996" gradientUnits="userSpaceOnUse"><stop stop-color="#172836"/><stop offset="1" stop-color="#455a64"/></linearGradient></defs></svg>