<svg xmlns="http://www.w3.org/2000/svg" width="79" height="79" fill="none" xmlns:v="https://vecta.io/nano"><path d="M20.718 52.825l6.5-6.5 5.455 5.454-6.5 6.501-5.455-5.455z" fill="#eff3f3"/><path d="M49.693 58.615C65.853 58.615 79 45.468 79 29.307S65.853 0 49.693 0 20.385 13.147 20.385 29.307a29.14 29.14 0 0 0 5.128 16.542l-4.794 4.794-.653-.653c-.603-.603-1.58-.603-2.182 0L2.304 65.57A7.82 7.82 0 0 0 0 71.134c0 2.101.818 4.076 2.304 5.562S5.765 79 7.866 79s4.077-.819 5.562-2.304l15.581-15.58a1.54 1.54 0 0 0 .451-1.091c0-.409-.162-.802-.451-1.092l-.653-.653 4.794-4.794a29.14 29.14 0 0 0 16.542 5.129zm0-55.529c14.459 0 26.222 11.763 26.222 26.221S64.151 55.529 49.693 55.529 23.471 43.766 23.471 29.307 35.235 3.086 49.693 3.086zM11.247 74.514a4.75 4.75 0 0 1-3.381 1.4 4.75 4.75 0 0 1-3.38-1.4 4.79 4.79 0 0 1 0-6.761l14.489-14.489.653.652 6.108 6.109-14.489 14.489zm14.928-18.416l-3.272-3.272 4.506-4.506a29.63 29.63 0 0 0 3.272 3.272l-4.506 4.506zm18.461-31.075c.852 0 1.543-.691 1.543-1.543a3.74 3.74 0 0 1 1.246-2.786c.803-.719 1.841-1.049 2.926-.929a3.74 3.74 0 0 1 3.283 3.283c.166 1.51-.577 2.962-1.894 3.699-2.075 1.16-3.364 3.306-3.364 5.599v2.202c0 .852.691 1.543 1.543 1.543s1.543-.691 1.543-1.543v-2.202c0-1.177.683-2.29 1.784-2.906a6.83 6.83 0 0 0 3.455-6.731 6.85 6.85 0 0 0-6.011-6.012 6.86 6.86 0 0 0-5.323 1.697c-1.444 1.293-2.273 3.147-2.273 5.085 0 .852.691 1.543 1.543 1.543zm5.284 13.998a1.55 1.55 0 0 0-1.09.452c-.287.287-.453.685-.453 1.091a1.55 1.55 0 0 0 2.634 1.091c.287-.287.452-.685.452-1.091s-.165-.804-.452-1.091-.685-.452-1.091-.452z" fill="#f37021"/></svg>