<svg xmlns="http://www.w3.org/2000/svg" width="79" height="80" fill="#f37021" xmlns:v="https://vecta.io/nano"><path d="M72.34 9.893C71.378 4.182 66.433 0 60.641 0S49.904 4.182 48.942 9.893a10.43 10.43 0 0 0-6.525 7.777A31.64 31.64 0 0 0 5.54 29.53a31.64 31.64 0 0 0 2.249 38.672 31.64 31.64 0 0 0 54.783-27.41l5.866-5.497c.701-.632 1.01-1.59.811-2.513s-.875-1.668-1.774-1.956l-.62-.198a.67.67 0 0 1-.409-.883l1.977-7c.216-.666.158-1.39-.161-2.014a2.63 2.63 0 0 0-1.539-1.308l-6.274-2.017c-.669-.215-1.397-.153-2.021.171s-1.092.884-1.301 1.556l-3.585 11.969a3.32 3.32 0 0 0 2.096 4.218.66.66 0 0 1 .435.844l-2.9 9.03c-.247.749.049 1.57.718 1.989s1.537.327 2.103-.223l4.297-4.034a29 29 0 1 1-18.033-22.501c.296 4.379 3.272 8.117 7.474 9.385a1.32 1.32 0 0 0 1.635-.896 1.32 1.32 0 0 0-.896-1.635 7.91 7.91 0 0 1 3.388-15.41c.728.109 1.407-.392 1.516-1.12s-.392-1.407-1.12-1.516a10.07 10.07 0 0 0-2.465 0 9.23 9.23 0 0 1 15.47-4.028 9.23 9.23 0 0 1 2.325 8.932 1.32 1.32 0 0 0 .974 1.546 1.32 1.32 0 0 0 1.583-.914 11.86 11.86 0 0 0 .369-1.925 7.91 7.91 0 0 1-1.621 14.5 1.32 1.32 0 0 0-1.015 1.582 1.32 1.32 0 0 0 1.635.883c4.303-1.302 7.307-5.189 7.483-9.682s-2.517-8.602-6.705-10.236h.053zm-15.95 22.91a.46.46 0 0 1-.277-.25c-.224-.422-.356.356 3.533-12.628l6.275 2.056-2.004 6.947c-.269.834-.195 1.74.206 2.52s1.095 1.367 1.93 1.633l.619.198-9.899 9.227 1.819-5.642c.504-1.728-.479-3.539-2.201-4.06zM21.763 46.064c3.276 0 5.932-2.656 5.932-5.932S25.039 34.2 21.763 34.2s-5.932 2.656-5.932 5.932c.007 3.273 2.659 5.925 5.932 5.932zm0-9.227c1.82 0 3.296 1.475 3.296 3.295s-1.476 3.296-3.296 3.296-3.295-1.476-3.295-3.296 1.475-3.295 3.295-3.295zm19.77-2.637c-3.276 0-5.932 2.656-5.932 5.932s2.656 5.932 5.932 5.932 5.932-2.656 5.932-5.932c-.007-3.273-2.659-5.925-5.932-5.932zm0 9.227c-1.82 0-3.295-1.476-3.295-3.296s1.475-3.295 3.295-3.295 3.296 1.475 3.296 3.295-1.475 3.296-3.296 3.296zM20.942 64.269a26.22 26.22 0 0 1 21.407 0c.903.469 1.995.376 2.806-.238s1.197-1.64.991-2.636c-1.538-6.742-7.586-11.487-14.5-11.376-6.918-.121-12.971 4.628-14.5 11.376-.206.996.18 2.022.991 2.636s1.903.707 2.806.238zm2.136-8.212c6.789-6.499 18.455-3.177 20.419 5.813-7.535-3.44-16.192-3.44-23.727 0a11.25 11.25 0 0 1 3.309-5.813z"/></svg>