<svg xmlns="http://www.w3.org/2000/svg" xmlns:xlink="http://www.w3.org/1999/xlink" width="1466" height="710" fill="none" xmlns:v="https://vecta.io/nano"><g clip-path="url(#B)"><path fill="#172937" d="M0 0h1466v1819H0z"/></g><g filter="url(#A)"><use xlink:href="#C" fill="#f37021" fill-opacity=".45"/><use xlink:href="#C" stroke="#000"/></g><defs><filter id="A" x="361.5" y="-496.5" width="1397" height="1320" filterUnits="userSpaceOnUse" color-interpolation-filters="sRGB"><feFlood flood-opacity="0"/><feBlend in="SourceGraphic"/><feGaussianBlur stdDeviation="200"/></filter><clipPath id="B"><path fill="#fff" d="M0 0h1466v779H0z"/></clipPath><path id="C" d="M1109.45-90.09c57.77-33.62 110.69 86.176 156.13 108.544 33.07 14.228 72.22-53.549 83.01 0 10.8 53.549 14.18 206.062 0 298.247-14.17 92.185-80.54-55.582-150.06 0-69.51 55.582-36.2 86.762-125.29 103.708-89.083 16.946-238.907-52.871-261.178-103.708s-44.543-119.977-49.942-197.927 172.535 89.383 197.506 61.591S1037.24-48.064 1109.45-90.09z"/></defs></svg>