<svg width="41" height="44" viewBox="0 0 41 44" fill="none" xmlns="http://www.w3.org/2000/svg">
<g opacity="0.6">
<path opacity="0.6" d="M20.3308 36.55L20.4468 37.138L20.3268 36.551C20.0028 36.617 19.7938 36.934 19.8598 37.258C19.9258 37.583 20.2428 37.792 20.5668 37.726C20.5678 37.726 20.5768 37.724 20.5778 37.724C20.6158 37.715 20.6529 37.704 20.6869 37.69C20.9469 37.581 21.1018 37.3 21.0408 37.013C20.9728 36.689 20.6548 36.482 20.3308 36.55Z" fill="url(#paint0_linear)"/>
<path opacity="0.6" d="M24.634 34.959L24.919 35.486L24.632 34.96C24.341 35.118 24.234 35.482 24.393 35.773C24.541 36.045 24.87 36.157 25.15 36.04C25.169 36.032 25.188 36.023 25.206 36.013L25.22 36.005C25.508 35.843 25.608 35.48 25.448 35.192C25.288 34.904 24.923 34.8 24.634 34.959Z" fill="url(#paint1_linear)"/>
<path opacity="0.6" d="M22.5458 35.914L22.5378 35.917C22.2268 36.031 22.0718 36.374 22.1858 36.685C22.2998 36.996 22.6478 37.154 22.9578 37.04C22.9668 37.037 22.9758 37.034 22.9838 37.03C23.2778 36.907 23.4258 36.573 23.3148 36.271C23.2008 35.96 22.8568 35.8 22.5458 35.914Z" fill="url(#paint2_linear)"/>
<path opacity="0.6" d="M18.0543 36.8421H18.0463C17.7153 36.8591 17.4653 37.1411 17.4823 37.4721C17.4993 37.8021 17.7843 38.0571 18.1153 38.0401C18.1863 38.0361 18.2543 38.0201 18.3163 37.9941C18.5423 37.8991 18.6963 37.6701 18.6833 37.4101C18.6663 37.0801 18.3843 36.8251 18.0543 36.8421Z" fill="url(#paint3_linear)"/>
<path opacity="0.6" d="M26.559 33.6979L26.919 34.1779L26.557 33.6999C26.293 33.8989 26.241 34.2759 26.441 34.5399C26.61 34.7619 26.904 34.8339 27.15 34.7309C27.196 34.7119 27.24 34.687 27.281 34.656C27.283 34.654 27.292 34.6469 27.294 34.6459C27.554 34.4429 27.6 34.0689 27.398 33.8079C27.197 33.5469 26.821 33.4979 26.559 33.6979Z" fill="url(#paint4_linear)"/>
<path opacity="0.6" d="M28.2658 32.1641L28.6968 32.5801L28.2638 32.1661C28.0348 32.4051 28.0438 32.7841 28.2828 33.0141C28.4598 33.1841 28.7158 33.2231 28.9288 33.1341C29.0028 33.1031 29.0708 33.0571 29.1298 32.9961C29.1318 32.9931 29.1388 32.9861 29.1408 32.9841C29.3658 32.7421 29.3528 32.3661 29.1118 32.1401C28.8718 31.9131 28.4928 31.9251 28.2658 32.1641Z" fill="url(#paint5_linear)"/>
<path opacity="0.6" d="M5.24612 12.1609C5.33512 12.1239 5.41611 12.0649 5.48111 11.9859C5.69011 11.7289 5.65211 11.3519 5.39511 11.1419C5.13911 10.9329 4.76112 10.9709 4.55212 11.2279L4.54712 11.2339C4.33812 11.4899 4.37813 11.8649 4.63513 12.0739C4.81213 12.2189 5.04812 12.2439 5.24612 12.1609Z" fill="url(#paint6_linear)"/>
<path opacity="0.6" d="M1.43487 21.016C1.53487 21.025 1.63186 21.009 1.71886 20.973C1.91786 20.889 2.06486 20.701 2.08486 20.471L2.08587 20.448C2.10587 20.117 1.85486 19.832 1.52386 19.813C1.19586 19.792 0.912883 20.04 0.889883 20.368C0.861883 20.697 1.10587 20.988 1.43487 21.016Z" fill="url(#paint7_linear)"/>
<path opacity="0.6" d="M1.52798 23.4229C1.59498 23.4189 1.65797 23.4029 1.71697 23.3789C1.94797 23.2819 2.10198 23.0469 2.08398 22.7839L2.08196 22.7589C2.04896 22.4289 1.75596 22.1879 1.42596 22.2199C1.09996 22.2519 0.859963 22.5419 0.887963 22.8679C0.911963 23.1979 1.19798 23.4469 1.52798 23.4229Z" fill="url(#paint8_linear)"/>
<path opacity="0.6" d="M1.71607 18.6251C1.84407 18.6551 1.97306 18.6421 2.08606 18.5951C2.25606 18.5231 2.39205 18.3741 2.43805 18.1801L2.44107 18.1671C2.51407 17.8441 2.31206 17.5241 1.99006 17.4501C1.66806 17.3761 1.34607 17.5781 1.27207 17.9001L1.85508 18.0411L1.27106 17.9031C1.19506 18.2251 1.39407 18.5481 1.71607 18.6251Z" fill="url(#paint9_linear)"/>
<path opacity="0.6" d="M3.86916 14.142C3.98516 14.093 4.08717 14.008 4.15517 13.89C4.32617 13.606 4.23416 13.238 3.95116 13.067C3.66716 12.895 3.29916 12.987 3.12816 13.27L3.11916 13.286C2.95316 13.573 3.05017 13.941 3.33617 14.107C3.50517 14.205 3.70216 14.211 3.86916 14.142Z" fill="url(#paint10_linear)"/>
<path opacity="0.6" d="M4.54375 32.0201C4.71675 32.2271 4.99873 32.2881 5.23473 32.1901C5.28873 32.1671 5.33974 32.1361 5.38774 32.0971C5.64074 31.8861 5.67575 31.5101 5.46675 31.2551C5.26175 31.0001 4.88975 30.9551 4.62975 31.1571C4.36875 31.3611 4.32275 31.7381 4.52675 31.9991C4.53075 32.0041 4.53975 32.0151 4.54375 32.0201Z" fill="url(#paint11_linear)"/>
<path opacity="0.6" d="M2.80884 16.298C2.95184 16.238 3.07286 16.123 3.13486 15.966C3.25986 15.66 3.11386 15.31 2.80786 15.184C2.50086 15.058 2.15085 15.205 2.02585 15.511L2.01984 15.524C1.89784 15.832 2.04884 16.18 2.35584 16.303C2.50784 16.363 2.66884 16.357 2.80884 16.298Z" fill="url(#paint12_linear)"/>
<path opacity="0.6" d="M4.14624 29.3521C3.98124 29.0681 3.61824 28.9701 3.33224 29.1311C3.04424 29.2941 2.94323 29.6601 3.10623 29.9491L3.11825 29.9691C3.27325 30.2271 3.59224 30.3261 3.86224 30.2131C3.88824 30.2021 3.91425 30.1881 3.94025 30.1731C4.22325 30.0031 4.31424 29.6361 4.14624 29.3521Z" fill="url(#paint13_linear)"/>
<path opacity="0.6" d="M2.78761 28.0591C2.79361 28.0561 2.7996 28.0541 2.8046 28.0521C3.1026 27.9271 3.24961 27.5871 3.13261 27.2841L3.1236 27.2601C2.9956 26.9541 2.6436 26.8101 2.3386 26.9381C2.0356 27.0651 1.89163 27.4111 2.01463 27.7151C2.13363 28.0231 2.47961 28.1771 2.78761 28.0591Z" fill="url(#paint14_linear)"/>
<path opacity="0.6" d="M1.98151 25.789C2.01651 25.781 2.05052 25.77 2.08252 25.757C2.34552 25.647 2.49952 25.361 2.43552 25.073C2.43352 25.065 2.4315 25.056 2.4295 25.048C2.3475 24.727 2.0215 24.533 1.7005 24.615C1.3835 24.695 1.1895 25.018 1.2655 25.336C1.3395 25.658 1.65851 25.861 1.98151 25.789Z" fill="url(#paint15_linear)"/>
<path opacity="0.6" d="M25.5489 8.85907C25.7209 8.97007 25.9279 8.98108 26.1039 8.90808C26.2119 8.86308 26.3079 8.78508 26.3759 8.67908C26.5549 8.40108 26.4739 8.03009 26.1959 7.85009L25.8649 8.35009L26.1929 7.84809C25.9159 7.66709 25.5439 7.74508 25.3639 8.02208C25.1819 8.30008 25.2599 8.67108 25.5379 8.85208L25.5489 8.85907Z" fill="url(#paint16_linear)"/>
<path opacity="0.6" d="M30.7015 13.245C30.4115 13.406 30.3085 13.772 30.4695 14.061L30.4825 14.084C30.6375 14.343 30.9575 14.443 31.2285 14.33C31.2535 14.319 31.2795 14.306 31.3045 14.291C31.5865 14.123 31.6805 13.759 31.5155 13.476C31.3545 13.187 30.9885 13.085 30.7015 13.245Z" fill="url(#paint17_linear)"/>
<path opacity="0.6" d="M29.1149 12.0741L29.1209 12.0811C29.2919 12.2921 29.5779 12.3561 29.8169 12.2561C29.8689 12.2351 29.9179 12.2061 29.9639 12.1681C30.2209 11.9591 30.2599 11.5821 30.0509 11.3241L30.0459 11.3181C29.8369 11.0611 29.4589 11.0221 29.2019 11.2311C28.9449 11.4401 28.9059 11.8171 29.1149 12.0741Z" fill="url(#paint18_linear)"/>
<path opacity="0.6" d="M27.4687 10.3331C27.6467 10.4881 27.8927 10.5201 28.0977 10.4351C28.1787 10.4001 28.2547 10.3481 28.3157 10.2761C28.5337 10.0271 28.5097 9.6501 28.2597 9.4321L27.8567 9.8751L28.2587 9.4311C28.0137 9.2091 27.6347 9.2271 27.4117 9.4731C27.1897 9.7181 27.2087 10.0971 27.4537 10.3201L27.4687 10.3331Z" fill="url(#paint19_linear)"/>
<path opacity="0.6" d="M23.4327 7.71395C23.5877 7.77995 23.7537 7.77494 23.8967 7.71494C24.0367 7.65694 24.1547 7.54595 24.2177 7.39495C24.3457 7.09195 24.2057 6.74395 23.9057 6.61295C23.6047 6.47595 23.2507 6.60794 23.1127 6.90894C22.9757 7.20994 23.1077 7.56594 23.4087 7.70394L23.4327 7.71395Z" fill="url(#paint20_linear)"/>
<path opacity="0.6" d="M31.8479 15.4801C31.5409 15.5991 31.3859 15.9441 31.5029 16.2531C31.6159 16.5611 31.9559 16.7221 32.2659 16.6121C32.2769 16.6081 32.2869 16.6041 32.2979 16.6001C32.5889 16.4781 32.7369 16.148 32.6309 15.846L32.6219 15.8231C32.5029 15.5141 32.1569 15.3611 31.8479 15.4801Z" fill="url(#paint21_linear)"/>
<path opacity="0.6" d="M18.7601 6.4769L18.7771 6.4789C18.8771 6.4879 18.9741 6.4719 19.0611 6.4359C19.2581 6.3529 19.404 6.1679 19.426 5.9399C19.458 5.6109 19.216 5.3179 18.888 5.2849L18.823 5.88089L18.886 5.2849C18.557 5.2499 18.262 5.48889 18.227 5.81789C18.192 6.14689 18.4311 6.4429 18.7601 6.4769Z" fill="url(#paint22_linear)"/>
<path opacity="0.6" d="M21.1376 6.90804L21.1496 6.91103C21.2806 6.94503 21.4136 6.93304 21.5306 6.88404C21.6976 6.81404 21.8306 6.66903 21.8796 6.48003C21.9626 6.16003 21.7696 5.83304 21.4486 5.75004L21.4446 5.74903C21.1236 5.66403 20.7956 5.85404 20.7116 6.17504C20.6266 6.49504 20.8176 6.82304 21.1376 6.90804Z" fill="url(#paint23_linear)"/>
<path opacity="0.6" d="M39.9473 21.933L36.2633 20.417C35.9503 20.288 35.6053 20.289 35.2933 20.42C34.9813 20.551 34.7383 20.795 34.6103 21.109L34.5753 21.194L34.3333 21.095C34.0343 20.972 33.7683 20.794 33.5463 20.573C33.5213 20.542 33.4943 20.512 33.4633 20.487C33.2793 20.284 33.1293 20.049 33.0203 19.789L32.7123 19.053C32.7743 19.059 32.8373 19.055 32.9003 19.04C32.9343 19.033 32.9673 19.022 32.9983 19.009C33.2603 18.899 33.4143 18.615 33.3513 18.328C33.2853 18.005 32.9703 17.795 32.6453 17.86C32.5033 17.889 32.3823 17.966 32.2973 18.071C31.9353 17.299 31.3063 16.7 30.5133 16.373L26.9393 14.903C26.1373 14.573 25.2553 14.576 24.4563 14.91C23.8373 15.169 23.3273 15.603 22.9753 16.158L22.5953 16.001L19.9483 9.67399C19.6293 8.91099 19.0443 8.29099 18.3023 7.92799C17.7743 7.66999 17.3593 7.229 17.1313 6.686L16.9373 6.222L16.9753 6.20599C17.6203 5.93699 17.9253 5.19299 17.6553 4.54699L16.1153 0.867001C15.8463 0.222001 15.1023 -0.0830073 14.4573 0.186993L4.12828 4.50799C3.48328 4.77799 3.17829 5.522 3.44829 6.167L4.9883 9.847C5.2583 10.492 6.00229 10.797 6.64629 10.528L6.73128 10.492L6.8333 10.735C7.0833 11.331 7.08529 11.989 6.84129 12.586L6.19328 14.17C5.85028 15.011 5.85428 15.935 6.20528 16.774L7.69829 20.343C7.90129 20.828 8.2093 21.237 8.5833 21.557C7.8683 21.906 7.31228 22.498 7.00829 23.241L5.54628 26.819C5.20228 27.659 5.2063 28.584 5.5573 29.422L6.21828 31.002C6.46828 31.599 6.4713 32.256 6.2263 32.854L6.12828 33.093C6.12828 33.094 6.1273 33.095 6.1273 33.096L6.04228 33.061C5.72828 32.932 5.3843 32.933 5.0713 33.063C4.7593 33.194 4.51729 33.439 4.38829 33.752L2.8813 37.44C2.6173 38.087 2.92729 38.829 3.57329 39.095L4.83528 39.613C5.14128 39.739 5.49129 39.593 5.61729 39.287C5.74329 38.981 5.5973 38.63 5.2903 38.504L4.02928 37.985C3.99328 37.97 3.97629 37.93 3.99129 37.894L5.49828 34.207C5.51228 34.172 5.55229 34.155 5.58629 34.17L6.22728 34.433L15.9533 38.435C15.9893 38.449 16.0063 38.49 15.9913 38.525L14.4843 42.213C14.4703 42.248 14.4303 42.264 14.3963 42.25L7.51228 39.418C7.20628 39.292 6.8563 39.438 6.7303 39.744C6.6043 40.051 6.75029 40.401 7.05629 40.527L13.9403 43.359C14.2533 43.488 14.5983 43.487 14.9113 43.356C15.2233 43.226 15.4653 42.981 15.5943 42.667L17.1013 38.98C17.3653 38.333 17.0553 37.591 16.4093 37.325L16.3693 37.309L16.5593 36.844C16.7813 36.3 17.1933 35.857 17.7183 35.596C18.4573 35.229 19.0373 34.605 19.3493 33.841L20.7343 30.452C21.3463 29.984 21.6473 29.199 21.4993 28.436C21.7933 28.45 22.0943 28.402 22.3833 28.281C23.4233 27.846 23.9153 26.644 23.4793 25.602L22.9293 24.289C23.2123 24.298 23.5023 24.248 23.7803 24.132C24.8203 23.697 25.3123 22.495 24.8763 21.454L23.2513 17.57L25.6673 18.568C25.8213 18.632 25.9863 18.627 26.1283 18.567C26.2693 18.508 26.3873 18.396 26.4503 18.243C26.5763 17.937 26.4313 17.586 26.1253 17.46L24.1103 16.627C24.3213 16.361 24.5973 16.151 24.9193 16.017C25.4223 15.806 25.9783 15.804 26.4833 16.012L30.0573 17.482C30.6013 17.706 31.0263 18.129 31.2533 18.672L31.9143 20.252C32.2873 21.144 32.9843 21.837 33.8773 22.204L34.1213 22.305L30.8383 30.335L30.4543 30.177C30.4503 30.176 30.4463 30.174 30.4423 30.173L30.3753 30.145C29.5623 29.811 28.6573 29.784 27.8273 30.07C27.3223 30.243 26.7723 30.227 26.2753 30.023L23.7023 28.975C23.3953 28.85 23.0453 28.998 22.9213 29.304C22.7963 29.611 22.9443 29.961 23.2503 30.086L25.8223 31.133C26.5863 31.447 27.4373 31.472 28.2183 31.204C28.7723 31.013 29.3773 31.031 29.9193 31.254L29.9573 31.27C29.9793 31.28 30.0003 31.289 30.0223 31.296L30.3843 31.445L30.3683 31.485C30.1043 32.132 30.4143 32.874 31.0603 33.14L34.7443 34.655C35.0583 34.784 35.4023 34.783 35.7153 34.653C36.0273 34.522 36.2693 34.277 36.3983 33.964L40.6403 23.587C40.9043 22.941 40.5933 22.199 39.9473 21.933ZM32.8843 18.424L32.8733 18.426L32.7643 18.448L32.8843 18.424ZM18.2403 33.386C18.0373 33.881 17.6633 34.285 17.1853 34.522C16.3983 34.913 15.7823 35.576 15.4493 36.389L15.2603 36.853L14.8433 36.681C14.8383 36.679 14.8323 36.676 14.8273 36.674L7.23628 33.552L7.33629 33.308C7.70129 32.414 7.69729 31.431 7.32429 30.54L6.66328 28.959C6.43628 28.416 6.43329 27.817 6.65529 27.273L8.1183 23.696C8.3253 23.19 8.71628 22.795 9.21928 22.585C9.54228 22.45 9.8873 22.401 10.2263 22.438L9.40129 24.456C9.27529 24.762 9.42229 25.113 9.72929 25.238C9.88229 25.301 10.0463 25.295 10.1873 25.236C10.3293 25.177 10.4483 25.063 10.5113 24.91L11.4963 22.5L14.3853 29.407C14.8213 30.448 16.0223 30.942 17.0623 30.507C17.3553 30.384 17.6053 30.201 17.8023 29.977C18.1443 30.478 18.6873 30.794 19.2723 30.859L18.2403 33.386ZM23.7703 21.916C23.9513 22.348 23.7483 22.846 23.3183 23.026C22.8873 23.206 22.3903 23.001 22.2103 22.569L19.6283 16.398C19.5003 16.093 19.1493 15.948 18.8443 16.076C18.5383 16.204 18.3943 16.555 18.5223 16.861L22.3733 26.065C22.5543 26.497 22.3503 26.994 21.9203 27.174C21.5343 27.336 21.0953 27.187 20.8783 26.843L16.9713 17.502C16.8433 17.197 16.4923 17.053 16.1863 17.18C16.0883 17.222 16.0063 17.286 15.9453 17.365C15.8093 17.531 15.7673 17.764 15.8563 17.976L19.7063 27.18C19.7363 27.251 19.7693 27.318 19.8053 27.383L20.2713 28.498C20.4523 28.929 20.2493 29.427 19.8193 29.607C19.3893 29.787 18.8923 29.582 18.7113 29.151L14.3023 18.611C14.1743 18.306 13.8233 18.161 13.5173 18.289C13.2123 18.417 13.0683 18.768 13.1963 19.074L17.0523 28.291C17.2323 28.723 17.0293 29.22 16.5993 29.4C16.1693 29.58 15.6723 29.375 15.4923 28.944L11.1863 18.653C11.0583 18.347 10.7073 18.203 10.4023 18.33C10.0963 18.458 9.95228 18.81 10.0803 19.115L10.8773 21.019C10.8363 21.053 10.8003 21.093 10.7703 21.138C9.94328 21.169 9.14328 20.69 8.80428 19.88L7.31129 16.311C7.08329 15.768 7.0813 15.169 7.3033 14.625L7.95128 13.041C8.31628 12.147 8.31228 11.164 7.93928 10.272L7.8373 10.029L8.94929 9.56399C9.25529 9.43599 9.39829 9.085 9.27129 8.77999C9.14329 8.474 8.79228 8.32999 8.48628 8.45799L6.1833 9.421C6.1483 9.436 6.10828 9.419 6.09428 9.384L4.55427 5.70399C4.54027 5.66899 4.55629 5.62899 4.59129 5.61399L14.9203 1.293C14.9553 1.278 14.9953 1.295 15.0093 1.33L16.5493 5.00999C16.5643 5.04499 16.5473 5.085 16.5123 5.1L11.0823 7.37199C10.7773 7.49899 10.6333 7.851 10.7613 8.156C10.8893 8.462 11.2403 8.60599 11.5453 8.47799L15.8323 6.68499L16.0253 7.149C16.3653 7.96 16.9863 8.61899 17.7763 9.00599C18.2563 9.24099 18.6353 9.642 18.8423 10.136L23.7703 21.916ZM39.5303 23.133L35.2883 33.509C35.2813 33.527 35.2693 33.539 35.2523 33.546C35.2353 33.553 35.2173 33.553 35.2003 33.546L31.5163 32.03C31.4803 32.016 31.4633 31.975 31.4783 31.94L31.7203 31.346L35.7193 21.563C35.7333 21.529 35.7733 21.512 35.8073 21.527L39.4923 23.042C39.5273 23.057 39.5443 23.097 39.5303 23.133Z" fill="url(#paint24_linear)"/>
<path opacity="0.6" d="M6.89065 6.19509C6.56565 6.33109 6.41267 6.70608 6.54867 7.03208C6.68467 7.35708 7.05967 7.51108 7.38467 7.37508C7.70967 7.24008 7.86265 6.86509 7.72665 6.53909C7.59065 6.21409 7.21565 6.05909 6.89065 6.19509Z" fill="url(#paint25_linear)"/>
<path opacity="0.6" d="M36.7286 23.345C36.4036 23.481 36.2506 23.856 36.3866 24.182C36.5226 24.507 36.8976 24.661 37.2226 24.525C37.5466 24.389 37.7006 24.014 37.5646 23.689C37.4286 23.364 37.0536 23.209 36.7286 23.345Z" fill="url(#paint26_linear)"/>
<path opacity="0.6" d="M14.1392 39.4279C14.0032 39.1019 13.6282 38.9479 13.3042 39.0839C12.9792 39.2199 12.8252 39.5949 12.9622 39.9199C13.0982 40.2459 13.4732 40.3999 13.7972 40.2639C14.1222 40.1279 14.2752 39.7529 14.1392 39.4279Z" fill="url(#paint27_linear)"/>
</g>
<defs>
<linearGradient id="paint0_linear" x1="9.87482" y1="2.10418" x2="25.3117" y2="39.0041" gradientUnits="userSpaceOnUse">
<stop stop-color="#F37021"/>
<stop offset="1" stop-color="#FFA114"/>
</linearGradient>
<linearGradient id="paint1_linear" x1="9.875" y1="2.10414" x2="25.3119" y2="39.004" gradientUnits="userSpaceOnUse">
<stop stop-color="#F37021"/>
<stop offset="1" stop-color="#FFA114"/>
</linearGradient>
<linearGradient id="paint2_linear" x1="9.87483" y1="2.10416" x2="25.3117" y2="39.004" gradientUnits="userSpaceOnUse">
<stop stop-color="#F37021"/>
<stop offset="1" stop-color="#FFA114"/>
</linearGradient>
<linearGradient id="paint3_linear" x1="9.87514" y1="2.10417" x2="25.3119" y2="39.0043" gradientUnits="userSpaceOnUse">
<stop stop-color="#F37021"/>
<stop offset="1" stop-color="#FFA114"/>
</linearGradient>
<linearGradient id="paint4_linear" x1="9.87501" y1="2.10388" x2="25.3121" y2="39.0039" gradientUnits="userSpaceOnUse">
<stop stop-color="#F37021"/>
<stop offset="1" stop-color="#FFA114"/>
</linearGradient>
<linearGradient id="paint5_linear" x1="9.87487" y1="2.10397" x2="25.312" y2="39.004" gradientUnits="userSpaceOnUse">
<stop stop-color="#F37021"/>
<stop offset="1" stop-color="#FFA114"/>
</linearGradient>
<linearGradient id="paint6_linear" x1="9.87506" y1="2.10391" x2="25.3122" y2="39.0038" gradientUnits="userSpaceOnUse">
<stop stop-color="#F37021"/>
<stop offset="1" stop-color="#FFA114"/>
</linearGradient>
<linearGradient id="paint7_linear" x1="9.87476" y1="2.10397" x2="25.312" y2="39.0039" gradientUnits="userSpaceOnUse">
<stop stop-color="#F37021"/>
<stop offset="1" stop-color="#FFA114"/>
</linearGradient>
<linearGradient id="paint8_linear" x1="9.87507" y1="2.10384" x2="25.312" y2="39.004" gradientUnits="userSpaceOnUse">
<stop stop-color="#F37021"/>
<stop offset="1" stop-color="#FFA114"/>
</linearGradient>
<linearGradient id="paint9_linear" x1="9.87515" y1="2.10405" x2="25.3121" y2="39.0042" gradientUnits="userSpaceOnUse">
<stop stop-color="#F37021"/>
<stop offset="1" stop-color="#FFA114"/>
</linearGradient>
<linearGradient id="paint10_linear" x1="9.8752" y1="2.10403" x2="25.312" y2="39.004" gradientUnits="userSpaceOnUse">
<stop stop-color="#F37021"/>
<stop offset="1" stop-color="#FFA114"/>
</linearGradient>
<linearGradient id="paint11_linear" x1="9.87475" y1="2.10401" x2="25.3118" y2="39.0041" gradientUnits="userSpaceOnUse">
<stop stop-color="#F37021"/>
<stop offset="1" stop-color="#FFA114"/>
</linearGradient>
<linearGradient id="paint12_linear" x1="9.87498" y1="2.10411" x2="25.3116" y2="39.0042" gradientUnits="userSpaceOnUse">
<stop stop-color="#F37021"/>
<stop offset="1" stop-color="#FFA114"/>
</linearGradient>
<linearGradient id="paint13_linear" x1="9.87528" y1="2.10417" x2="25.3122" y2="39.0042" gradientUnits="userSpaceOnUse">
<stop stop-color="#F37021"/>
<stop offset="1" stop-color="#FFA114"/>
</linearGradient>
<linearGradient id="paint14_linear" x1="9.87452" y1="2.10403" x2="25.3117" y2="39.0039" gradientUnits="userSpaceOnUse">
<stop stop-color="#F37021"/>
<stop offset="1" stop-color="#FFA114"/>
</linearGradient>
<linearGradient id="paint15_linear" x1="9.8746" y1="2.10406" x2="25.3114" y2="39.0041" gradientUnits="userSpaceOnUse">
<stop stop-color="#F37021"/>
<stop offset="1" stop-color="#FFA114"/>
</linearGradient>
<linearGradient id="paint16_linear" x1="9.8749" y1="2.10411" x2="25.3118" y2="39.004" gradientUnits="userSpaceOnUse">
<stop stop-color="#F37021"/>
<stop offset="1" stop-color="#FFA114"/>
</linearGradient>
<linearGradient id="paint17_linear" x1="9.87468" y1="2.10395" x2="25.3119" y2="39.004" gradientUnits="userSpaceOnUse">
<stop stop-color="#F37021"/>
<stop offset="1" stop-color="#FFA114"/>
</linearGradient>
<linearGradient id="paint18_linear" x1="9.8749" y1="2.10414" x2="25.3118" y2="39.0041" gradientUnits="userSpaceOnUse">
<stop stop-color="#F37021"/>
<stop offset="1" stop-color="#FFA114"/>
</linearGradient>
<linearGradient id="paint19_linear" x1="9.87453" y1="2.10414" x2="25.3113" y2="39.0041" gradientUnits="userSpaceOnUse">
<stop stop-color="#F37021"/>
<stop offset="1" stop-color="#FFA114"/>
</linearGradient>
<linearGradient id="paint20_linear" x1="9.87487" y1="2.10396" x2="25.3119" y2="39.0037" gradientUnits="userSpaceOnUse">
<stop stop-color="#F37021"/>
<stop offset="1" stop-color="#FFA114"/>
</linearGradient>
<linearGradient id="paint21_linear" x1="9.87454" y1="2.10401" x2="25.3114" y2="39.0043" gradientUnits="userSpaceOnUse">
<stop stop-color="#F37021"/>
<stop offset="1" stop-color="#FFA114"/>
</linearGradient>
<linearGradient id="paint22_linear" x1="9.875" y1="2.1039" x2="25.312" y2="39.004" gradientUnits="userSpaceOnUse">
<stop stop-color="#F37021"/>
<stop offset="1" stop-color="#FFA114"/>
</linearGradient>
<linearGradient id="paint23_linear" x1="9.87461" y1="2.10402" x2="25.3117" y2="39.0041" gradientUnits="userSpaceOnUse">
<stop stop-color="#F37021"/>
<stop offset="1" stop-color="#FFA114"/>
</linearGradient>
<linearGradient id="paint24_linear" x1="9.8753" y1="2.10399" x2="25.3123" y2="39.004" gradientUnits="userSpaceOnUse">
<stop stop-color="#F37021"/>
<stop offset="1" stop-color="#FFA114"/>
</linearGradient>
<linearGradient id="paint25_linear" x1="9.87463" y1="2.10411" x2="25.3116" y2="39.0038" gradientUnits="userSpaceOnUse">
<stop stop-color="#F37021"/>
<stop offset="1" stop-color="#FFA114"/>
</linearGradient>
<linearGradient id="paint26_linear" x1="9.87444" y1="2.10407" x2="25.3113" y2="39.004" gradientUnits="userSpaceOnUse">
<stop stop-color="#F37021"/>
<stop offset="1" stop-color="#FFA114"/>
</linearGradient>
<linearGradient id="paint27_linear" x1="9.87517" y1="2.10369" x2="25.3123" y2="39.0039" gradientUnits="userSpaceOnUse">
<stop stop-color="#F37021"/>
<stop offset="1" stop-color="#FFA114"/>
</linearGradient>
</defs>
</svg>
