<svg width="42" height="46" viewBox="0 0 42 46" fill="none" xmlns="http://www.w3.org/2000/svg">
<g opacity="0.6">
<path opacity="0.6" d="M26.9176 9.43201C27.3246 9.57701 27.7736 9.363 27.9196 8.954L29.0986 5.64901C29.2446 5.24001 29.0326 4.79001 28.6256 4.64501C28.2176 4.49901 27.7686 4.713 27.6226 5.122L26.4436 8.428C26.2976 8.837 26.5096 9.28701 26.9176 9.43201Z" fill="url(#paint0_linear)"/>
<path opacity="0.6" d="M37.5795 36.5381L36.7415 34.7671C36.4445 34.1371 35.9174 33.6601 35.2584 33.4251C34.8374 33.2751 34.3965 33.2361 33.9675 33.3051L32.3904 29.9651L32.5524 29.8881C33.9064 29.2401 34.4874 27.6111 33.8484 26.2561C33.6194 25.7711 33.2604 25.3731 32.8124 25.1001C32.9614 24.8931 33.0834 24.6631 33.1714 24.4151C33.4174 23.7271 33.3815 22.9871 33.0715 22.3331C32.8425 21.8471 32.4835 21.4501 32.0355 21.1771C32.1845 20.9701 32.3065 20.7401 32.3945 20.4921C32.6405 19.8041 32.6045 19.0631 32.2935 18.4081C32.0595 17.9131 31.6934 17.5211 31.2584 17.2551C31.8214 16.4731 31.9554 15.4151 31.5184 14.4851C31.1524 13.7141 30.4685 13.1941 29.6965 13.0081L25.1594 10.3461C24.4674 9.9401 23.5734 9.51611 22.7974 9.84311C22.7484 9.86411 22.6965 9.88911 22.6445 9.91911C21.8555 9.26411 20.7264 9.08411 19.7394 9.55411C19.0854 9.86511 18.5894 10.4161 18.3444 11.1041C18.2554 11.3511 18.2045 11.6061 18.1885 11.8611C17.6685 11.7891 17.1404 11.8691 16.6584 12.0991C16.0024 12.4101 15.5064 12.9601 15.2604 13.6471C15.1714 13.8951 15.1204 14.1501 15.1044 14.4061C14.5854 14.3341 14.0564 14.4131 13.5724 14.6431C12.9164 14.9561 12.4205 15.5061 12.1755 16.1941C11.9875 16.7211 11.9654 17.2781 12.1044 17.8061C11.6934 17.8001 11.2835 17.8871 10.9025 18.0691C9.54847 18.7141 8.96644 20.3431 9.60645 21.7031L9.68243 21.8651L6.34747 23.4511C5.58847 22.6941 4.40642 22.4541 3.38342 22.9411L1.61243 23.7821C0.982427 24.0821 0.50547 24.6121 0.26947 25.2731C0.0334701 25.9351 0.0674784 26.6471 0.365478 27.2781L1.41046 29.4921C1.59646 29.8841 2.06347 30.0501 2.45447 29.8631C2.84547 29.6771 3.01345 29.2071 2.82745 28.8151L1.78247 26.6021C1.66347 26.3501 1.65042 26.0661 1.74542 25.8001C1.84042 25.5341 2.03046 25.3221 2.28046 25.2031L4.05145 24.3621C4.49345 24.1521 5.01043 24.2811 5.30743 24.6431C5.32043 24.6931 5.33744 24.7421 5.35944 24.7911C5.40044 24.8771 5.45547 24.9511 5.51947 25.0141L10.3234 35.1841C10.3314 35.2751 10.3535 35.3651 10.3945 35.4521C10.4345 35.5361 10.4875 35.6101 10.5505 35.6721C10.6445 35.9081 10.6494 36.1691 10.5624 36.4131C10.4674 36.6791 10.2774 36.8911 10.0264 37.0111L8.25745 37.8531C7.73445 38.1001 7.10845 37.8771 6.86145 37.3561L5.81744 35.1411C5.63244 34.7481 5.16444 34.5821 4.77344 34.7681C4.38244 34.9551 4.21448 35.4241 4.39948 35.8161L5.44446 38.0341C5.75346 38.6841 6.29743 39.1481 6.92743 39.3731C7.55743 39.5981 8.27344 39.5831 8.92444 39.2741L10.6954 38.4311C11.3254 38.1311 11.8025 37.6021 12.0385 36.9401C12.2065 36.4681 12.2374 35.9701 12.1324 35.4941L15.8865 33.7071C15.8905 33.7051 15.8944 33.7031 15.8984 33.7011C16.3324 33.4861 17.1924 33.8621 18.0234 34.2251C18.6144 34.4841 19.2734 34.7721 19.9604 34.9311L21.9045 39.0481C21.5805 39.3371 21.3305 39.7051 21.1805 40.1271C20.9445 40.7891 20.9784 41.5001 21.2764 42.1311L22.1135 43.9041C22.4115 44.5351 22.9384 45.0111 23.5964 45.2461C24.2554 45.4811 24.9644 45.4451 25.5944 45.1461L36.3334 40.0341C36.9624 39.7341 37.4395 39.2051 37.6755 38.5431C37.9115 37.8811 37.8775 37.1691 37.5795 36.5381ZM24.3655 11.7051L27.3484 13.4551L24.7465 14.6951C24.5015 14.4461 24.1905 14.0341 23.8975 13.4471C23.4965 12.6441 23.3015 11.8111 23.4125 11.3751C23.4205 11.3441 23.4284 11.3181 23.4354 11.3001C23.5404 11.3111 23.8065 11.3761 24.3655 11.7051ZM20.4084 10.9741C20.9164 10.7331 21.5125 10.8961 21.8325 11.3341C21.7125 12.4281 22.2424 13.6471 22.4954 14.1541C22.6834 14.5301 23.3055 15.6801 24.1495 16.2351C24.2105 16.4601 24.2014 16.6991 24.1204 16.9251C24.0164 17.2171 23.8074 17.4501 23.5314 17.5821C23.2554 17.7141 22.9435 17.7291 22.6525 17.6251C22.3615 17.5211 22.1295 17.3121 21.9985 17.0341L19.8605 12.5101C19.7305 12.2341 19.7155 11.9221 19.8195 11.6301C19.9245 11.3381 20.1334 11.1051 20.4084 10.9741ZM17.3265 13.5201C17.6025 13.3881 17.9144 13.3731 18.2054 13.4761C18.4964 13.5801 18.7284 13.7901 18.8594 14.0681L20.5814 17.7101C20.8514 18.2851 20.6054 18.9751 20.0334 19.2481C19.7574 19.3801 19.4435 19.3951 19.1525 19.2911C18.8605 19.1871 18.6274 18.9771 18.4974 18.7011L17.1924 15.9351C17.1904 15.9301 17.1885 15.9261 17.1865 15.9221L16.7775 15.0571C16.6465 14.7791 16.6315 14.4661 16.7365 14.1741C16.8405 13.8841 17.0495 13.6521 17.3265 13.5201ZM14.2415 16.0641C14.5175 15.9331 14.8295 15.9181 15.1215 16.0221C15.4105 16.1251 15.6404 16.3321 15.7714 16.6041L17.0804 19.3781C17.2114 19.6541 17.2264 19.9671 17.1224 20.2581C17.0184 20.5491 16.8095 20.7821 16.5325 20.9131C16.2565 21.0451 15.9444 21.0601 15.6534 20.9561C15.3614 20.8521 15.1295 20.6421 14.9985 20.3661L14.5234 19.3611L13.6934 17.6021C13.5624 17.3251 13.5474 17.0121 13.6514 16.7201C13.7554 16.4291 13.9645 16.1961 14.2415 16.0641ZM11.5704 19.4901C11.8474 19.3581 12.1605 19.3421 12.4515 19.4461C12.7425 19.5501 12.9754 19.7601 13.1064 20.0371L13.5814 21.0441C13.7124 21.3201 13.7275 21.6321 13.6235 21.9241C13.5195 22.2151 13.3105 22.4471 13.0325 22.5791C12.7565 22.7111 12.4444 22.7271 12.1534 22.6231C11.8624 22.5191 11.6305 22.3091 11.4995 22.0311L11.4395 21.9051L11.4374 21.9001C11.4364 21.8981 11.4354 21.8961 11.4344 21.8951L11.0234 21.0271C10.7524 20.4521 10.9984 19.7621 11.5704 19.4901ZM23.6035 33.2761C23.4185 32.8841 22.9514 32.7171 22.5604 32.9031L21.6685 33.3281C20.8215 33.7321 19.7194 33.2491 18.6534 32.7831C17.4954 32.2771 16.2985 31.7541 15.2125 32.2891L11.5225 34.0461L7.15643 24.8061L10.4224 23.2521C10.7324 23.6391 11.1445 23.9341 11.6245 24.1051C12.3105 24.3501 13.0485 24.3121 13.7015 24.0001C14.3575 23.6891 14.8534 23.1391 15.0994 22.4501C15.1014 22.4441 15.1035 22.4371 15.1055 22.4311C15.1125 22.4331 15.1185 22.4361 15.1245 22.4381C15.8095 22.6831 16.5465 22.6461 17.1995 22.3351C17.8555 22.0241 18.3524 21.4731 18.5984 20.7851C18.6005 20.7781 18.6024 20.7721 18.6044 20.7661C18.6104 20.7681 18.6175 20.7711 18.6235 20.7731C19.3085 21.0171 20.0465 20.9811 20.7025 20.6691C21.3855 20.3431 21.8714 19.7661 22.1044 19.1001C22.1104 19.1021 22.1175 19.1051 22.1235 19.1071C22.8095 19.3521 23.5475 19.3141 24.2015 19.0021C24.8555 18.6901 25.3514 18.1401 25.5964 17.4521C25.7684 16.9711 25.8025 16.4641 25.7015 15.9791L28.5645 14.6151C28.7775 14.5141 29.0064 14.4851 29.2244 14.5161C29.2474 14.5221 29.2705 14.5261 29.2935 14.5291C29.6355 14.6001 29.9414 14.8231 30.1014 15.1611C30.3714 15.7371 30.1254 16.4271 29.5544 16.7001L28.6835 17.1131C28.6805 17.1151 28.6774 17.1161 28.6744 17.1171L27.6705 17.5951C27.2785 17.7811 27.1115 18.2501 27.2955 18.6421C27.4805 19.0351 27.9475 19.2021 28.3395 19.0151L29.2145 18.5991L29.3475 18.5361C29.9205 18.2661 30.6054 18.5111 30.8774 19.0861C31.0074 19.3621 31.0225 19.6741 30.9185 19.9661C30.8145 20.2571 30.6055 20.4891 30.3275 20.6211L29.4495 21.0411L28.4465 21.5171C28.0545 21.7031 27.8864 22.1711 28.0704 22.5641C28.2544 22.9571 28.7215 23.1241 29.1135 22.9381L30.1204 22.4601C30.3964 22.3291 30.7094 22.3131 31.0004 22.4171C31.2914 22.5211 31.5235 22.7301 31.6545 23.0091C31.7855 23.2851 31.7994 23.5971 31.6954 23.8891C31.5914 24.1801 31.3825 24.4131 31.1055 24.5441L29.3564 25.3781C28.9654 25.5651 28.7974 26.0341 28.9824 26.4261C29.0754 26.6231 29.2384 26.7621 29.4274 26.8291C29.6154 26.8971 29.8304 26.8921 30.0264 26.7981L30.8834 26.3901C30.8884 26.3881 30.8934 26.3861 30.8984 26.3841C31.1734 26.2521 31.4865 26.2361 31.7775 26.3401C32.0685 26.4441 32.3005 26.6541 32.4305 26.9311C32.7015 27.5041 32.4554 28.1941 31.8824 28.4671L31.0115 28.8821H31.0104L31.0095 28.8831L29.6274 29.5411C29.2354 29.7271 29.0684 30.1961 29.2524 30.5891C29.3454 30.7851 29.5084 30.9251 29.6974 30.9921C29.8864 31.0601 30.1004 31.0551 30.2964 30.9621L30.9725 30.6401L32.5054 33.8861L23.2775 38.2781L21.7134 34.9671C21.9224 34.9181 22.1305 34.8471 22.3375 34.7481L23.2285 34.3241C23.6205 34.1381 23.7885 33.6691 23.6035 33.2761ZM35.6644 38.6131L24.9255 43.7251C24.6745 43.8451 24.3904 43.8581 24.1254 43.7641C23.8604 43.6701 23.6495 43.4791 23.5305 43.2271L22.6934 41.4541C22.5744 41.2031 22.5615 40.9191 22.6555 40.6541C22.7505 40.3891 22.9405 40.1771 23.1915 40.0581L33.9305 34.9461C34.1815 34.8271 34.4655 34.8131 34.7305 34.9071C34.9955 35.0021 35.2064 35.1921 35.3254 35.4441L36.1635 37.2151C36.2815 37.4661 36.2954 37.7511 36.2004 38.0161C36.1054 38.2821 35.9154 38.4941 35.6644 38.6131Z" fill="url(#paint1_linear)"/>
<path opacity="0.6" d="M17.3425 5.31207C17.4345 5.50707 17.5975 5.64708 17.7865 5.71408C17.9755 5.78208 18.1905 5.77607 18.3865 5.68307C18.7775 5.49608 18.9445 5.02707 18.7585 4.63507L17.0315 0.980072C16.8465 0.588072 16.3785 0.42207 15.9875 0.60907C15.5965 0.79607 15.4295 1.26507 15.6145 1.65707L17.3425 5.31207Z" fill="url(#paint2_linear)"/>
<path opacity="0.6" d="M36.3396 12.3331C36.5286 12.4011 36.7436 12.3961 36.9386 12.3031L40.5896 10.5661C40.9796 10.3801 41.1496 9.91112 40.9596 9.51812C40.7796 9.12612 40.3096 8.95912 39.9186 9.14512L36.2696 10.8821C35.8786 11.0681 35.7106 11.5371 35.8956 11.9301C35.9876 12.1261 36.1506 12.2661 36.3396 12.3331Z" fill="url(#paint3_linear)"/>
</g>
<defs>
<linearGradient id="paint0_linear" x1="28.6906" y1="4.66801" x2="15.2507" y2="42.3421" gradientUnits="userSpaceOnUse">
<stop stop-color="#F37021"/>
<stop offset="1" stop-color="#FFA114"/>
</linearGradient>
<linearGradient id="paint1_linear" x1="28.6905" y1="4.66811" x2="15.2505" y2="42.3421" gradientUnits="userSpaceOnUse">
<stop stop-color="#F37021"/>
<stop offset="1" stop-color="#FFA114"/>
</linearGradient>
<linearGradient id="paint2_linear" x1="28.6905" y1="4.66808" x2="15.2504" y2="42.3421" gradientUnits="userSpaceOnUse">
<stop stop-color="#F37021"/>
<stop offset="1" stop-color="#FFA114"/>
</linearGradient>
<linearGradient id="paint3_linear" x1="28.6905" y1="4.66814" x2="15.2507" y2="42.3421" gradientUnits="userSpaceOnUse">
<stop stop-color="#F37021"/>
<stop offset="1" stop-color="#FFA114"/>
</linearGradient>
</defs>
</svg>
