<svg xmlns="http://www.w3.org/2000/svg" xmlns:xlink="http://www.w3.org/1999/xlink" width="55" height="54" fill="none" xmlns:v="https://vecta.io/nano"><path d="M50.082 28.33a1.83 1.83 0 0 0-1.797-1.485h-1.767l-.13-.779a1.84 1.84 0 0 0-1.529-1.517l-.523-.069a5.58 5.58 0 0 0-.696-4.081c.394-1.023.321-2.167-.201-3.131s-1.44-1.651-2.512-1.879a7.79 7.79 0 0 0-7.608-6.357c-.092 0-.173.012-.26.015-.596-.936-1.579-1.558-2.681-1.695s-2.207.225-3.015.987a6.28 6.28 0 0 0-3.418-1.015c-1.955.008-3.797.915-4.995 2.46a4.56 4.56 0 0 0-5.827 4.097c-1.397.587-2.306 1.955-2.307 3.471.003.263.034.524.091.781-1.236 1.863-1.559 4.186-.878 6.315l-.732.099a1.84 1.84 0 0 0-1.541 1.516l-.13.782H5.854a1.83 1.83 0 0 0-1.796 1.482L.05 48.9c-.157.806.056 1.64.579 2.272s1.301.999 2.122.997h19.087C22.596 53.42 24.899 54 27.07 54c2.148 0 4.429-.566 5.209-1.831h19.109c.821.002 1.599-.364 2.122-.997s.735-1.466.579-2.272L50.082 28.33zm-36.498-9.324c-.743-.447-1.098-1.334-.868-2.17s.989-1.416 1.856-1.42a1.9 1.9 0 0 1 1.537.776c.195.263.515.401.84.364s.605-.245.735-.545.09-.647-.105-.909a3.7 3.7 0 0 0-2.596-1.464c.273-1.282 1.403-2.199 2.714-2.203.112.006.223.018.333.037a6.05 6.05 0 0 0-.192.573c-.114.485.18.971.662 1.096s.975-.159 1.11-.638c.104-.402.264-.788.475-1.146a4.52 4.52 0 0 1 3.861-2.203c.862.004 1.704.258 2.424.732a3.72 3.72 0 0 0-.215 1.2c0 .506.41.915.915.915s.915-.41.915-.915c0-1.063.862-1.925 1.925-1.925s1.925.862 1.925 1.925c0 .506.41.915.915.915s.915-.41.915-.915c0-.07-.017-.137-.021-.208a5.94 5.94 0 0 1 5.42 4.582c-.427.124-.828.324-1.184.59-.262.196-.399.517-.36.842s.248.604.549.732.647.087.909-.11a1.93 1.93 0 0 1 2.83 2.496 1.95 1.95 0 0 1-.867.802c-.383.185-.587.609-.494 1.024s.459.711.884.715c.134 0 .267-.029.388-.087.242-.118.472-.261.684-.427a3.91 3.91 0 0 1-.774 3.903l-.022.023c-1.192 1.292-3.095 1.641-4.668.857a3.62 3.62 0 0 1-.443-.276c.674-.945.767-2.186.242-3.222-.147-.292-.439-.484-.766-.502s-.638.138-.818.412-.199.622-.052.914c.301.605.113 1.339-.441 1.725a1.38 1.38 0 0 1-1.988-.507c-.146-.293-.437-.485-.764-.504s-.639.137-.819.41-.201.621-.055.914c.537 1.084 1.643 1.768 2.852 1.765a3.14 3.14 0 0 0 1.149-.226 5.42 5.42 0 0 0 1.073.732 5.64 5.64 0 0 0 4.227.391c-.904 1.235-2.258 2.065-3.769 2.311-.47.077-.803.501-.765.975s.433.841.909.843a.97.97 0 0 0 .146-.011 7.52 7.52 0 0 0 1.624-.474 8.19 8.19 0 0 1 .683 1.572c.031.095.047.195.048.296a.99.99 0 0 1-.6.908c-.421.163-.899.034-1.182-.318a5.84 5.84 0 0 0-2.679-1.78c-1.978-.663-2.741-1.255-3.065-1.899.475-.059.944-.157 1.403-.293.313-.096.55-.352.623-.671s-.03-.652-.269-.875-.58-.301-.892-.205c-.514.158-1.044.255-1.58.29a6.79 6.79 0 0 1-3.033-.458c-.361-.141-.773-.039-1.026.255a3.92 3.92 0 0 1-6.321-4.583.92.92 0 0 0-.773-1.39.92.92 0 0 0-.802.446 5.71 5.71 0 0 0-.523 1.178c-.721-.038-1.289-.627-1.301-1.349v-.023c0-.242-.098-.473-.269-.643s-.405-.264-.646-.261c-.508.005-.916.419-.915.926.004 1.623 1.228 2.984 2.842 3.159.003.307.031.613.083.915-2.043.442-4.163-.292-5.495-1.904s-1.653-3.832-.833-5.755c.205.207.433.389.681.543.432.253.988.112 1.247-.317s.124-.986-.302-1.25v.004zm-4.027 7.352l1.291-.174a7.39 7.39 0 0 0 8.027 3.256c.832 1.58 2.354 2.682 4.114 2.98s3.56-.241 4.866-1.458c.622.186 1.263.302 1.91.346.442 1.677 1.72 2.693 4.404 3.592.724.227 1.369.652 1.863 1.227.549.653 1.358 1.033 2.211 1.039a2.78 2.78 0 0 0 1.086-.222 2.82 2.82 0 0 0 1.711-2.591c.001-.294-.046-.587-.139-.866a10 10 0 0 0-.809-1.863c1.556-1.119 2.641-2.777 3.041-4.651a5.74 5.74 0 0 0 .527-.738l.922.125 3.304 19.874c-6.459-2.157-13.443-2.157-19.901 0V34.78c0-.506-.41-.915-.915-.915s-.915.41-.915.915v11.461c-6.458-2.158-13.442-2.161-19.901-.007l3.303-19.875zM2.038 50.002a.91.91 0 0 1-.192-.751l4.008-20.577h1.464L4.446 45.936c-.101.628.13 1.264.611 1.681s1.144.554 1.751.364a30.62 30.62 0 0 1 15.117-.959l-.273 3.318H2.751a.92.92 0 0 1-.713-.337zM27.07 52.17c-2.205 0-3.47-.652-3.655-.942l.315-3.798c1.006.251 1.991.581 2.945.988.123.059.258.091.395.091a.91.91 0 0 0 .396-.091c.953-.409 1.938-.742 2.944-.994l.315 3.804c-.186.291-1.451.943-3.655.943zm25.031-2.167a.92.92 0 0 1-.713.337H32.489l-.275-3.324a30.63 30.63 0 0 1 15.124.968c.607.188 1.268.048 1.747-.37s.709-1.053.607-1.68l-2.869-17.257h1.464l4.009 20.575a.91.91 0 0 1-.195.751z" fill="url(#A)"/><path d="M24.036 20.763c-.375.339-.404.917-.065 1.292a5.52 5.52 0 0 0 2.933 1.691c-.512.722-1.343 1.15-2.228 1.149-.505 0-.915.41-.915.915s.41.915.915.915a4.54 4.54 0 0 0 4.264-2.935c2.276-.377 4.078-2.129 4.519-4.393.068-.324-.044-.659-.293-.877s-.596-.285-.908-.174-.54.381-.596.707a3.65 3.65 0 0 1-1.516 2.324c-1.523 1.026-3.565.793-4.818-.549-.339-.375-.917-.404-1.292-.065z" fill="url(#B)"/><path d="M20.846 19.769c.505 0 .915-.41.915-.915a2.38 2.38 0 0 1 2.38-2.38c.505 0 .915-.41.915-.915s-.41-.915-.915-.915c-2.324.003-4.208 1.886-4.21 4.21 0 .243.096.476.268.647s.404.268.647.268z" fill="url(#C)"/><path d="M27.985 1.831V.915c0-.505-.41-.915-.915-.915s-.915.41-.915.915v.915c0 .505.41.915.915.915s.915-.41.915-.915z" fill="url(#D)"/><path d="M42.089 6.568l-.915.915c-.238.23-.333.57-.25.89s.334.57.654.654.66-.012.89-.25l.915-.915c.238-.23.333-.57.249-.89s-.334-.57-.654-.654-.66.012-.89.25z" fill="url(#E)"/><path d="M12.318 9.046c.37 0 .704-.223.845-.565s.063-.736-.198-.997l-.915-.915c-.23-.238-.57-.333-.89-.25s-.57.334-.654.654.012.66.25.89l.915.915c.172.172.404.268.647.268z" fill="url(#F)"/><path d="M19.364 5.194a.93.93 0 0 0 .351-.07c.224-.093.403-.271.495-.496s.093-.476 0-.701l-1.052-2.537c-.12-.309-.399-.529-.727-.574s-.656.09-.856.355-.241.617-.107.92l1.051 2.537c.142.342.476.565.846.565z" fill="url(#G)"/><path d="M36.176.896c-.467-.193-1.002.029-1.195.495l-1.052 2.537c-.093.224-.093.477-.001.701s.271.403.496.496a.93.93 0 0 0 .351.07c.37 0 .704-.223.846-.565l1.051-2.537c.093-.224.094-.477.001-.701s-.271-.403-.496-.496z" fill="url(#H)"/><path d="M45.672 16.092c.12 0 .239-.024.35-.07l2.536-1.051c.302-.125.515-.402.557-.726s-.091-.646-.35-.846-.605-.245-.907-.12l-2.537 1.051c-.405.166-.635.596-.55 1.025s.463.738.901.737z" fill="url(#I)"/><path d="M8.116 16.022c.467.194 1.003-.028 1.196-.495s-.028-1.003-.495-1.196L6.28 13.28c-.467-.193-1.002.028-1.196.496s.029 1.002.496 1.196l2.536 1.051z" fill="url(#J)"/><defs><linearGradient id="A" x1="27.069" y1="7.322" x2="27.069" y2="54" xlink:href="#K"><stop stop-color="#f37021"/><stop offset="1" stop-color="#ffa114"/></linearGradient><linearGradient id="B" x1="28.607" y1="18.293" x2="28.607" y2="26.725" xlink:href="#K"><stop stop-color="#f37021"/><stop offset="1" stop-color="#ffa114"/></linearGradient><linearGradient id="C" x1="22.493" y1="14.644" x2="22.493" y2="19.769" xlink:href="#K"><stop stop-color="#f37021"/><stop offset="1" stop-color="#ffa114"/></linearGradient><linearGradient id="D" x1="27.07" y1="0" x2="27.07" y2="2.746" xlink:href="#K"><stop stop-color="#f37021"/><stop offset="1" stop-color="#ffa114"/></linearGradient><linearGradient id="E" x1="42.278" y1="6.289" x2="42.278" y2="9.057" xlink:href="#K"><stop stop-color="#f37021"/><stop offset="1" stop-color="#ffa114"/></linearGradient><linearGradient id="F" x1="11.855" y1="6.289" x2="11.855" y2="9.046" xlink:href="#K"><stop stop-color="#f37021"/><stop offset="1" stop-color="#ffa114"/></linearGradient><linearGradient id="G" x1="18.835" y1=".809" x2="18.835" y2="5.194" xlink:href="#K"><stop stop-color="#f37021"/><stop offset="1" stop-color="#ffa114"/></linearGradient><linearGradient id="H" x1="35.3" y1=".826" x2="35.3" y2="5.195" xlink:href="#K"><stop stop-color="#f37021"/><stop offset="1" stop-color="#ffa114"/></linearGradient><linearGradient id="I" x1="46.939" y1="13.21" x2="46.939" y2="16.092" xlink:href="#K"><stop stop-color="#f37021"/><stop offset="1" stop-color="#ffa114"/></linearGradient><linearGradient id="J" x1="7.199" y1="13.21" x2="7.199" y2="16.092" xlink:href="#K"><stop stop-color="#f37021"/><stop offset="1" stop-color="#ffa114"/></linearGradient><linearGradient id="K" gradientUnits="userSpaceOnUse"/></defs></svg>