<svg xmlns="http://www.w3.org/2000/svg" xmlns:xlink="http://www.w3.org/1999/xlink" width="61" height="62" fill="none" xmlns:v="https://vecta.io/nano"><path d="M30.49 52.883c12.337 0 22.374-10.037 22.374-22.374S42.827 8.136 30.49 8.136 8.116 18.173 8.116 30.51 18.154 52.883 30.49 52.883zm0-42.713c11.215 0 20.34 9.124 20.34 20.34s-9.124 20.34-20.339 20.34-20.34-9.124-20.34-20.34S19.275 10.17 30.49 10.17z" fill="url(#A)"/><path d="M30.49 15.255c.561 0 1.017-.455 1.017-1.017v-2.034c0-.562-.456-1.017-1.017-1.017s-1.017.455-1.017 1.017v2.034c0 .562.456 1.017 1.017 1.017z" fill="url(#B)"/><path d="M30.49 45.764c-.561 0-1.017.455-1.017 1.017v2.034c0 .562.456 1.017 1.017 1.017s1.017-.455 1.017-1.017v-2.034c0-.562-.455-1.017-1.017-1.017z" fill="url(#C)"/><path d="M46.761 31.526h2.034c.561 0 1.017-.454 1.017-1.017s-.456-1.017-1.017-1.017h-2.034c-.561 0-1.017.455-1.017 1.017s.456 1.017 1.017 1.017z" fill="url(#D)"/><path d="M14.218 29.492h-2.034c-.561 0-1.017.455-1.017 1.017s.456 1.017 1.017 1.017h2.034c.561 0 1.017-.454 1.017-1.017s-.455-1.017-1.017-1.017z" fill="url(#E)"/><path d="M19.303 41.696c.26 0 .521-.1.719-.298l8.415-8.414c.605.358 1.302.577 2.053.577 2.243 0 4.068-1.825 4.068-4.068 0-1.891-1.302-3.469-3.051-3.924V20.34c0-.562-.456-1.017-1.017-1.017s-1.017.455-1.017 1.017v5.229c-1.749.455-3.051 2.033-3.051 3.924 0 .753.219 1.448.577 2.053l-8.414 8.414c-.398.398-.398 1.04 0 1.438.199.198.46.298.719.298zM30.49 27.458c1.122 0 2.034.912 2.034 2.034s-.912 2.034-2.034 2.034-2.034-.912-2.034-2.034.912-2.034 2.034-2.034z" fill="url(#F)"/><path d="M10.236 10.17h8.051c.561 0 1.017-.455 1.017-1.017s-.456-1.017-1.017-1.017h-5.392a28.31 28.31 0 0 1 17.596-6.102c15.701 0 28.475 12.774 28.475 28.475 0 .562.456 1.017 1.017 1.017S61 31.072 61 30.509C61 13.687 47.314 0 30.491 0c-7.099 0-13.875 2.449-19.323 6.926V1.017C11.168.455 10.713 0 10.151 0S9.134.455 9.134 1.017v9.153h.908a1.02 1.02 0 0 0 .193 0z" fill="url(#G)"/><path d="M4.882 42.946a1.02 1.02 0 0 0-1.363-.468c-.508.244-.712.854-.468 1.363a1.02 1.02 0 0 0 .915.571.97.97 0 0 0 .437-.103 1.02 1.02 0 0 0 .478-1.363z" fill="url(#H)"/><path d="M7.984 47.941a1.01 1.01 0 0 0-1.424-.183 1.01 1.01 0 0 0-.183 1.423c.203.265.508.398.803.398.224 0 .437-.071.631-.213.437-.346.519-.988.173-1.424z" fill="url(#I)"/><path d="M6.306 45.52a1.02 1.02 0 0 0-1.403-.325c-.478.306-.62.925-.325 1.403a1.03 1.03 0 0 0 .864.479c.183 0 .366-.051.539-.152.478-.296.62-.928.325-1.404z" fill="url(#J)"/><path d="M8.472 50.137c-.407.386-.417 1.027-.031 1.434.193.214.468.315.732.315.254 0 .508-.092.702-.284.407-.387.427-1.028.031-1.434-.386-.408-1.027-.418-1.434-.031z" fill="url(#K)"/><path d="M10.618 52.303c-.366.427-.315 1.068.112 1.434.193.163.427.244.661.244.285 0 .569-.122.773-.357.366-.427.315-1.068-.112-1.434s-1.068-.314-1.434.113z" fill="url(#L)"/><path d="M2.126 38.666c.539-.142.875-.692.742-1.241a1.02 1.02 0 0 0-1.241-.732c-.539.132-.875.681-.732 1.23a1.02 1.02 0 0 0 .986.773c.081 0 .163-.01.244-.03z" fill="url(#M)"/><path d="M1.435 35.686c.559-.081.946-.59.864-1.149a1.02 1.02 0 0 0-1.149-.865 1.02 1.02 0 0 0-.864 1.15c.071.509.508.874 1.007.874.051.001.092.001.142-.009z" fill="url(#N)"/><path d="M3.723 40.241c-.183-.529-.773-.802-1.302-.61a1.01 1.01 0 0 0-.6 1.302c.142.417.539.671.946.671.122 0 .234-.021.356-.062.529-.191.793-.771.6-1.301z" fill="url(#O)"/><path d="M1.018 32.666h.041a1.02 1.02 0 0 0 .976-1.058 1.02 1.02 0 0 0-1.058-.976c-.559.02-.997.487-.976 1.058.02.538.478.976 1.017.976z" fill="url(#P)"/><path d="M12.977 54.245c-.325.458-.203 1.088.254 1.414.183.122.376.173.58.173a1 1 0 0 0 .834-.437c.325-.458.203-1.098-.254-1.414-.468-.315-1.098-.203-1.414.264z" fill="url(#Q)"/><path d="M49.751 51.468v-.009c-.417.386-.447 1.027-.061 1.444a1.04 1.04 0 0 0 .753.325c.244 0 .488-.092.681-.264.417-.386.437-1.028.061-1.434-.376-.417-1.027-.448-1.434-.062z" fill="url(#R)"/><path d="M51.816 49.364c-.376.417-.336 1.058.081 1.434.193.173.437.254.671.254a.99.99 0 0 0 .763-.347c.376-.416.336-1.058-.081-1.433-.427-.366-1.068-.336-1.434.092z" fill="url(#S)"/><path d="M53.646 47.056c-.325.458-.224 1.098.234 1.424.183.132.386.192.59.192a1.03 1.03 0 0 0 .834-.427c.325-.457.224-1.087-.234-1.423-.458-.325-1.098-.214-1.424.234z" fill="url(#T)"/><path d="M47.483 53.34a1.02 1.02 0 0 0-.203 1.423c.193.276.498.407.814.407a.99.99 0 0 0 .6-.193 1.01 1.01 0 0 0 .214-1.423c-.336-.458-.976-.549-1.424-.214z" fill="url(#U)"/><path d="M45.033 54.977c-.478.295-.641.915-.346 1.393.183.325.529.498.875.498.173 0 .356-.041.519-.142.478-.285.641-.915.346-1.393a1.02 1.02 0 0 0-1.393-.356z" fill="url(#V)"/><path d="M56.626 44.198a1.03 1.03 0 0 0-1.393.386h.01c-.285.487-.112 1.109.376 1.383.153.092.325.132.498.132.356 0 .702-.184.885-.509.285-.488.112-1.109-.376-1.393z" fill="url(#W)"/><path d="M59.931 32.543c-.559-.062-1.058.346-1.119.905a1.02 1.02 0 0 0 .905 1.12h.112c.508 0 .956-.388 1.007-.915a1.01 1.01 0 0 0-.905-1.109z" fill="url(#X)"/><path d="M59.565 35.573c-.549-.122-1.088.234-1.2.784-.122.549.234 1.087.783 1.2.071.021.142.021.214.021.468 0 .895-.325.986-.803.122-.55-.234-1.089-.783-1.202z" fill="url(#Y)"/><path d="M58.884 38.542c-.529-.173-1.108.122-1.271.661-.173.529.122 1.108.651 1.281a1.12 1.12 0 0 0 .315.041c.427 0 .824-.275.966-.701.173-.539-.122-1.11-.661-1.282z" fill="url(#Z)"/><path d="M57.907 41.431c-.519-.225-1.119.01-1.342.519-.234.519 0 1.119.519 1.341a.97.97 0 0 0 .407.092c.397 0 .763-.234.936-.611.224-.518-.01-1.118-.519-1.341z" fill="url(#a)"/><path d="M42.439 56.361c-.519.233-.732.834-.498 1.342a1.01 1.01 0 0 0 .925.589 1.06 1.06 0 0 0 .427-.092 1.01 1.01 0 0 0 .488-1.353 1 1 0 0 0-1.342-.487z" fill="url(#b)"/><path d="M25.181 58.487c-.549-.102-1.088.254-1.19.813a1.02 1.02 0 0 0 .814 1.19c.061.011.122.011.183.011a1.03 1.03 0 0 0 1.007-.825c.102-.549-.265-1.089-.814-1.19z" fill="url(#c)"/><path d="M28.1 58.882a1.01 1.01 0 0 0-1.098.925c-.051.571.366 1.058.925 1.108h.081a1.02 1.02 0 0 0 1.017-.936c.041-.558-.366-1.046-.925-1.098z" fill="url(#d)"/><path d="M22.323 57.795c-.539-.163-1.109.142-1.271.671-.152.538.142 1.108.681 1.271.102.03.203.041.295.041a1.02 1.02 0 0 0 .976-.723c.163-.538-.142-1.108-.681-1.26z" fill="url(#e)"/><path d="M19.547 56.798a1.01 1.01 0 0 0-1.322.549c-.224.519.02 1.108.539 1.333a1.09 1.09 0 0 0 .397.07c.397 0 .773-.233.936-.619.214-.521-.03-1.12-.549-1.333z" fill="url(#f)"/><path d="M33.978 58.771c-.559.07-.956.579-.885 1.128a1.01 1.01 0 0 0 1.007.896c.041 0 .081 0 .122-.011.559-.06.956-.569.885-1.128-.061-.56-.569-.956-1.129-.885z" fill="url(#g)"/><path d="M39.705 57.459a1.01 1.01 0 0 0-.631 1.292c.142.417.539.681.956.681a1.28 1.28 0 0 0 .336-.051 1.02 1.02 0 0 0 .631-1.292 1.01 1.01 0 0 0-1.292-.631z" fill="url(#h)"/><path d="M36.876 58.262a1.01 1.01 0 0 0-.763 1.22 1.01 1.01 0 0 0 .986.783c.081 0 .153 0 .234-.02.539-.122.885-.671.763-1.22a1.02 1.02 0 0 0-1.22-.763z" fill="url(#i)"/><path d="M31.039 58.975a1.02 1.02 0 0 0-.997 1.037c.01.559.468.997 1.017.997h.02c.559-.011 1.007-.468.997-1.038a1.02 1.02 0 0 0-1.037-.996z" fill="url(#j)"/><path d="M16.893 55.526c-.488-.275-1.109-.092-1.383.407-.264.487-.081 1.108.417 1.373a.92.92 0 0 0 .478.132c.366 0 .712-.192.895-.538a1 1 0 0 0-.407-1.374z" fill="url(#k)"/><defs><linearGradient id="A" x1="53.187" y1="36.762" x2="7.822" y2="35.979" xlink:href="#l"><stop stop-color="#ffa114"/></linearGradient><linearGradient id="B" x1="30.49" y1="11.187" x2="30.49" y2="15.255" xlink:href="#l"><stop stop-color="#f37021"/><stop offset="1" stop-color="#f47221"/></linearGradient><linearGradient id="C" x1="30.49" y1="45.764" x2="30.49" y2="49.832" xlink:href="#l"><stop stop-color="#f37021"/><stop offset="1" stop-color="#f47221"/></linearGradient><linearGradient id="D" x1="47.778" y1="29.492" x2="47.778" y2="31.526" xlink:href="#l"><stop stop-color="#f37021"/><stop offset="1" stop-color="#f47221"/></linearGradient><linearGradient id="E" x1="13.201" y1="29.492" x2="13.201" y2="31.526" xlink:href="#l"><stop stop-color="#f37021"/><stop offset="1" stop-color="#f47221"/></linearGradient><linearGradient id="F" x1="61.009" y1="29.722" x2="9.386" y2="29.722" xlink:href="#l"><stop stop-color="#f37021"/><stop offset="1" stop-color="#ffa114"/></linearGradient><linearGradient id="G" x1="65.701" y1="28.158" x2="-14.079" y2="25.029" xlink:href="#l"><stop stop-color="#f37021"/><stop offset="1" stop-color="#ffa114"/></linearGradient><linearGradient id="H" x1="3.966" y1="42.376" x2="3.966" y2="44.411" xlink:href="#l"><stop stop-color="#f37021"/><stop offset="1" stop-color="#f47221"/></linearGradient><linearGradient id="I" x1="7.181" y1="47.544" x2="7.181" y2="49.578" xlink:href="#l"><stop stop-color="#f37021"/><stop offset="1" stop-color="#f47221"/></linearGradient><linearGradient id="J" x1="5.441" y1="45.041" x2="5.441" y2="47.077" xlink:href="#l"><stop stop-color="#f37021"/><stop offset="1" stop-color="#f47221"/></linearGradient><linearGradient id="K" x1="9.176" y1="49.855" x2="9.176" y2="51.887" xlink:href="#l"><stop stop-color="#f37021"/><stop offset="1" stop-color="#f47221"/></linearGradient><linearGradient id="L" x1="11.391" y1="51.947" x2="11.391" y2="53.981" xlink:href="#l"><stop stop-color="#f37021"/><stop offset="1" stop-color="#f47221"/></linearGradient><linearGradient id="M" x1="1.88" y1="36.66" x2="1.88" y2="38.696" xlink:href="#l"><stop stop-color="#f37021"/><stop offset="1" stop-color="#f47221"/></linearGradient><linearGradient id="N" x1="1.292" y1="33.66" x2="1.292" y2="35.695" xlink:href="#l"><stop stop-color="#f37021"/><stop offset="1" stop-color="#f47221"/></linearGradient><linearGradient id="O" x1="2.772" y1="39.569" x2="2.772" y2="41.604" xlink:href="#l"><stop stop-color="#f37021"/><stop offset="1" stop-color="#f47221"/></linearGradient><linearGradient id="P" x1="1.018" y1="30.631" x2="1.018" y2="32.666" xlink:href="#l"><stop stop-color="#f37021"/><stop offset="1" stop-color="#f47221"/></linearGradient><linearGradient id="Q" x1="13.811" y1="53.802" x2="13.811" y2="55.831" xlink:href="#l"><stop stop-color="#f37021"/><stop offset="1" stop-color="#f47221"/></linearGradient><linearGradient id="R" x1="50.436" y1="51.197" x2="50.436" y2="53.229" xlink:href="#l"><stop stop-color="#f37021"/><stop offset="1" stop-color="#f47221"/></linearGradient><linearGradient id="S" x1="52.573" y1="49.019" x2="52.573" y2="51.053" xlink:href="#l"><stop stop-color="#f37021"/><stop offset="1" stop-color="#f47221"/></linearGradient><linearGradient id="T" x1="54.475" y1="46.635" x2="54.475" y2="48.672" xlink:href="#l"><stop stop-color="#f37021"/><stop offset="1" stop-color="#f47221"/></linearGradient><linearGradient id="U" x1="48.093" y1="53.139" x2="48.093" y2="55.17" xlink:href="#l"><stop stop-color="#f37021"/><stop offset="1" stop-color="#f47221"/></linearGradient><linearGradient id="V" x1="45.556" y1="54.837" x2="45.556" y2="56.869" xlink:href="#l"><stop stop-color="#f37021"/><stop offset="1" stop-color="#f47221"/></linearGradient><linearGradient id="W" x1="56.123" y1="44.067" x2="56.123" y2="46.1" xlink:href="#l"><stop stop-color="#f37021"/><stop offset="1" stop-color="#f47221"/></linearGradient><linearGradient id="X" x1="59.824" y1="32.537" x2="59.824" y2="34.568" xlink:href="#l"><stop stop-color="#f37021"/><stop offset="1" stop-color="#f47221"/></linearGradient><linearGradient id="Y" x1="59.357" y1="35.549" x2="59.357" y2="37.578" xlink:href="#l"><stop stop-color="#f37021"/><stop offset="1" stop-color="#f47221"/></linearGradient><linearGradient id="Z" x1="58.579" y1="38.493" x2="58.579" y2="40.526" xlink:href="#l"><stop stop-color="#f37021"/><stop offset="1" stop-color="#f47221"/></linearGradient><linearGradient id="a" x1="57.493" y1="41.346" x2="57.493" y2="43.384" xlink:href="#l"><stop stop-color="#f37021"/><stop offset="1" stop-color="#f47221"/></linearGradient><linearGradient id="b" x1="42.864" y1="56.262" x2="42.864" y2="58.292" xlink:href="#l"><stop stop-color="#f37021"/><stop offset="1" stop-color="#f47221"/></linearGradient><linearGradient id="c" x1="24.993" y1="58.469" x2="24.993" y2="60.501" xlink:href="#l"><stop stop-color="#f37021"/><stop offset="1" stop-color="#f47221"/></linearGradient><linearGradient id="d" x1="28.013" y1="58.877" x2="28.013" y2="60.916" xlink:href="#l"><stop stop-color="#f37021"/><stop offset="1" stop-color="#f47221"/></linearGradient><linearGradient id="e" x1="22.03" y1="57.752" x2="22.03" y2="59.778" xlink:href="#l"><stop stop-color="#f37021"/><stop offset="1" stop-color="#f47221"/></linearGradient><linearGradient id="f" x1="19.158" y1="56.721" x2="19.158" y2="58.751" xlink:href="#l"><stop stop-color="#f37021"/><stop offset="1" stop-color="#f47221"/></linearGradient><linearGradient id="g" x1="34.1" y1="58.763" x2="34.1" y2="60.795" xlink:href="#l"><stop stop-color="#f37021"/><stop offset="1" stop-color="#f47221"/></linearGradient><linearGradient id="h" x1="40.035" y1="57.402" x2="40.035" y2="59.432" xlink:href="#l"><stop stop-color="#f37021"/><stop offset="1" stop-color="#f47221"/></linearGradient><linearGradient id="i" x1="37.103" y1="58.237" x2="37.103" y2="60.266" xlink:href="#l"><stop stop-color="#f37021"/><stop offset="1" stop-color="#f47221"/></linearGradient><linearGradient id="j" x1="31.059" y1="58.974" x2="31.059" y2="61.009" xlink:href="#l"><stop stop-color="#f37021"/><stop offset="1" stop-color="#f47221"/></linearGradient><linearGradient id="k" x1="16.408" y1="55.399" x2="16.408" y2="57.438" xlink:href="#l"><stop stop-color="#f37021"/><stop offset="1" stop-color="#f47221"/></linearGradient><linearGradient id="l" gradientUnits="userSpaceOnUse"/></defs></svg>