<svg xmlns="http://www.w3.org/2000/svg" width="42" height="42" fill="none" xmlns:v="https://vecta.io/nano"><path d="M21 0C9.394 0 0 9.392 0 21a20.95 20.95 0 0 0 2.785 10.454L.079 39.856a1.64 1.64 0 0 0 .402 1.663 1.64 1.64 0 0 0 1.663.402l8.402-2.706C13.719 41.039 17.317 42 21 42c11.606 0 21-9.392 21-21S32.608 0 21 0zm0 38.719c-3.327 0-6.57-.928-9.379-2.685a1.64 1.64 0 0 0-1.373-.17l-6.066 1.953 1.953-6.065a1.64 1.64 0 0 0-.171-1.373A17.67 17.67 0 0 1 3.281 21C3.281 11.23 11.23 3.281 21 3.281S38.719 11.23 38.719 21 30.77 38.719 21 38.719zM23.051 21a2.05 2.05 0 1 1-4.102 0 2.05 2.05 0 1 1 4.102 0zm8.203 0a2.05 2.05 0 1 1-4.102 0 2.05 2.05 0 1 1 4.102 0zm-16.406 0a2.05 2.05 0 1 1-4.102 0 2.05 2.05 0 1 1 4.102 0z" fill="url(#A)"/><defs><linearGradient id="A" x1="0" y1="21" x2="42" y2="21" gradientUnits="userSpaceOnUse"><stop stop-color="#f37021"/><stop offset="1" stop-color="#ffa114"/></linearGradient></defs></svg>