<svg xmlns="http://www.w3.org/2000/svg" xmlns:xlink="http://www.w3.org/1999/xlink" width="1466" height="773" viewBox="0 20 1466 753" fill="none" xmlns:v="https://vecta.io/nano"><path fill="#f5f7fe" d="M0 9h1466v764H0z"/><g filter="url(#A)"><use xlink:href="#B" fill="#fef5e5"/><use xlink:href="#B" stroke="#000"/></g><path d="M1193 73c3.07 17.657 17.57 52.03 50.98 48.259 41.76-4.712 9.78-48.259-14.11-26.768-18.1 16.28-13.44 41.096-2.63 56.554 16.74 23.941 89.35 43.169 136.76 0" stroke="#f37021" stroke-dasharray="5 5"/><path d="M1406.26 132.939l2.49-2.103-1.54-15.326 4.23-3.31c2.7-2.178.9-4.435.9-4.435s-1.94-2.153-4.53.147l-3.91 3.574-14.98-4.103-2.5 2.112 12.15 6.888-11.63 10.757-5.2-2.047-2.65 1.326 4.64 3.698.9 1.074.91 1.075 2.88 5.19 1.76-2.41-1.17-5.467 12.51-9.662 4.74 13.022z" fill="#f2762b"/><defs><filter id="A" x="-736.221" y="-425.328" width="1419.01" height="1229.53" filterUnits="userSpaceOnUse" color-interpolation-filters="sRGB"><feFlood flood-opacity="0"/><feBlend in="SourceGraphic"/><feGaussianBlur stdDeviation="100"/></filter><path id="B" d="M57.746-215.393c98.675-53.672 189.068 137.571 266.687 173.28 56.484 22.713 123.343-85.485 141.787 0s24.208 328.957 0 476.122-137.578-88.732-256.311 0S148.062 572.517-4.1 599.57s-408.072-84.404-446.113-165.561-76.081-191.531-85.303-315.972 294.701 142.692 337.353 98.326S-65.598-148.303 57.746-215.393z"/></defs></svg>