<svg width="1466" height="902" viewBox="0 -50 1466 832" fill="none" xmlns="http://www.w3.org/2000/svg">
<g filter="url(#filter0_f)">
<path d="M-178.443 208.806C-82.5801 164.4 5.23718 322.626 80.6437 352.171C135.519 370.962 200.473 281.444 218.391 352.171C236.309 422.898 241.909 624.335 218.391 746.093C194.873 867.851 84.7327 672.68 -30.6168 746.093C-145.966 819.506 -90.7008 860.689 -238.527 883.071C-386.354 905.453 -634.971 813.239 -671.928 746.093C-708.884 678.947 -745.841 587.629 -754.8 484.672C-763.759 381.715 -468.497 602.728 -427.061 566.022C-385.625 529.316 -298.272 264.313 -178.443 208.806Z" fill="#FEF5E5"/>
<path d="M-178.443 208.806C-82.5801 164.4 5.23718 322.626 80.6437 352.171C135.519 370.962 200.473 281.444 218.391 352.171C236.309 422.898 241.909 624.335 218.391 746.093C194.873 867.851 84.7327 672.68 -30.6168 746.093C-145.966 819.506 -90.7008 860.689 -238.527 883.071C-386.354 905.453 -634.971 813.239 -671.928 746.093C-708.884 678.947 -745.841 587.629 -754.8 484.672C-763.759 381.715 -468.497 602.728 -427.061 566.022C-385.625 529.316 -298.272 264.313 -178.443 208.806Z" stroke="black"/>
</g>
<g filter="url(#filter1_f)">
<path d="M123.847 744.411C208.951 707.941 286.912 837.893 353.856 862.158C402.572 877.591 460.236 804.069 476.143 862.158C492.05 920.246 497.021 1085.69 476.143 1185.69C455.265 1285.69 357.486 1125.39 255.082 1185.69C152.679 1245.98 201.742 1279.81 70.5066 1298.19C-60.7286 1316.57 -281.443 1240.84 -314.251 1185.69C-347.06 1130.54 -379.869 1055.54 -387.823 970.982C-395.776 886.423 -133.652 1067.94 -96.8669 1037.8C-60.0812 1007.65 17.4669 790 123.847 744.411Z" fill="#92DBFE" fill-opacity="0.09"/>
<path d="M123.847 744.411C208.951 707.941 286.912 837.893 353.856 862.158C402.572 877.591 460.236 804.069 476.143 862.158C492.05 920.246 497.021 1085.69 476.143 1185.69C455.265 1285.69 357.486 1125.39 255.082 1185.69C152.679 1245.98 201.742 1279.81 70.5066 1298.19C-60.7286 1316.57 -281.443 1240.84 -314.251 1185.69C-347.06 1130.54 -379.869 1055.54 -387.823 970.982C-395.776 886.423 -133.652 1067.94 -96.8669 1037.8C-60.0812 1007.65 17.4669 790 123.847 744.411Z" stroke="black"/>
</g>
<g filter="url(#filter2_f)">
<path d="M1184.43 229.479C1336.8 164.181 1476.39 396.849 1596.24 440.293C1683.47 467.925 1786.71 336.291 1815.19 440.293C1843.67 544.295 1852.57 840.504 1815.19 1019.55C1777.81 1198.59 1602.74 911.594 1419.4 1019.55C1236.05 1127.5 1323.89 1188.06 1088.93 1220.97C853.957 1253.88 458.784 1118.28 400.042 1019.55C341.3 920.81 282.558 786.528 268.317 635.133C254.077 483.737 723.392 808.732 789.254 754.756C855.117 700.78 993.961 311.101 1184.43 229.479Z" fill="#92DBFE" fill-opacity="0.2"/>
<path d="M1184.43 229.479C1336.8 164.181 1476.39 396.849 1596.24 440.293C1683.47 467.925 1786.71 336.291 1815.19 440.293C1843.67 544.295 1852.57 840.504 1815.19 1019.55C1777.81 1198.59 1602.74 911.594 1419.4 1019.55C1236.05 1127.5 1323.89 1188.06 1088.93 1220.97C853.957 1253.88 458.784 1118.28 400.042 1019.55C341.3 920.81 282.558 786.528 268.317 635.133C254.077 483.737 723.392 808.732 789.254 754.756C855.117 700.78 993.961 311.101 1184.43 229.479Z" stroke="black"/>
</g>
<path d="M327 665C323.927 682.657 309.43 717.03 276.02 713.259C234.258 708.547 266.238 665 290.129 686.491C308.227 702.771 303.573 727.587 292.762 743.045C276.02 766.986 203.406 786.214 156 743.045" stroke="#F37021" stroke-dasharray="5 5"/>
<path d="M113.743 724.939L111.252 722.836L112.794 707.51C110.715 705.893 109.152 704.672 108.565 704.2C105.862 702.022 107.663 699.765 107.663 699.765C107.663 699.765 109.597 697.612 112.19 699.912C112.749 700.405 114.188 701.731 116.097 703.486L131.083 699.383L133.581 701.495L121.425 708.383C125.544 712.189 130.096 716.393 133.057 719.14L138.259 717.093L140.913 718.419L136.272 722.117L135.367 723.192L134.463 724.266L131.581 729.456L129.825 727.046L130.988 721.579C127.792 719.117 122.908 715.341 118.481 711.917L113.743 724.939Z" fill="#F2762B"/>
<defs>
<filter id="filter0_f" x="-955.5" y="0.499985" width="1390" height="1086.49" filterUnits="userSpaceOnUse" color-interpolation-filters="sRGB">
<feFlood flood-opacity="0" result="BackgroundImageFix"/>
<feBlend mode="normal" in="SourceGraphic" in2="BackgroundImageFix" result="shape"/>
<feGaussianBlur stdDeviation="100" result="effect1_foregroundBlur"/>
</filter>
<filter id="filter1_f" x="-588.5" y="537.499" width="1279" height="964.001" filterUnits="userSpaceOnUse" color-interpolation-filters="sRGB">
<feFlood flood-opacity="0" result="BackgroundImageFix"/>
<feBlend mode="normal" in="SourceGraphic" in2="BackgroundImageFix" result="shape"/>
<feGaussianBlur stdDeviation="100" result="effect1_foregroundBlur"/>
</filter>
<filter id="filter2_f" x="67.5" y="17.4989" width="1973" height="1409" filterUnits="userSpaceOnUse" color-interpolation-filters="sRGB">
<feFlood flood-opacity="0" result="BackgroundImageFix"/>
<feBlend mode="normal" in="SourceGraphic" in2="BackgroundImageFix" result="shape"/>
<feGaussianBlur stdDeviation="100" result="effect1_foregroundBlur"/>
</filter>
</defs>
</svg>
