<svg width="96" height="88" viewBox="0 0 96 88" fill="none" xmlns="http://www.w3.org/2000/svg">
<rect y="13" width="85" height="75" rx="5" fill="white" fill-opacity="0.29"/>
<path d="M47.7152 36.7252C54.9845 33.6098 56.3691 29.802 56.1528 28.2876C62.9028 34.5184 69.7831 30.8838 72.3794 28.2876C72.8121 29.5857 75.365 32.9607 82.1151 36.0761C90.5527 38.0233 92.4998 40.6194 95.096 52.9513C97.6922 65.2831 88.6055 71.7736 86.0094 74.3698C86.5286 75.9275 87.0911 84.1054 87.3075 87.9997H39.2782C39.2782 87.3506 39.408 84.7545 39.9272 79.5621C40.5762 73.0717 39.9272 76.3169 36.0324 76.3169C15.912 75.6678 29.5419 54.2494 33.4362 48.408C37.3305 42.5666 38.6286 40.6194 47.7152 36.7252Z" fill="#172937"/>
<path d="M59.5288 5.55683L70.9765 4.28486C71.041 4.2777 71.1037 4.30061 71.1461 4.34972C72.6358 6.07432 75.1192 10.5482 75.1754 16.6053C78.9715 19.7207 76.2479 22.2303 74.4116 23.0957C72.8069 30.3034 69.3335 32.6747 61.3437 31.5333C55.8089 30.7426 54.9398 25.1356 55.4131 20.4995C54.1321 18.5524 52.6771 14.3985 57.1058 13.3601L59.359 5.69918C59.3817 5.62185 59.4486 5.56573 59.5288 5.55683Z" fill="#FFBB93"/>
<path d="M40.7233 58.506C42.1761 55.8042 44.9515 53.273 46.565 52.0261C46.7189 51.9072 46.7189 51.8845 46.6553 52.0684C46.2533 53.2306 46.6738 56.5642 47.0226 58.5574C47.0441 58.6803 46.9509 58.7932 46.8262 58.7932H40.898C40.7493 58.7932 40.6529 58.6369 40.7233 58.506Z" fill="#FFBB93"/>
<path d="M85.3431 49.06C82.2896 49.5744 71.6526 52.9841 66.3092 54.7584C66.1451 54.8129 66.1237 55.0335 66.2747 55.1176C69.4231 56.8717 75.4936 59.7495 77.5282 58.8131C77.5564 58.8001 77.5866 58.7932 77.6176 58.7932C82.6663 58.8049 85.2453 60.6478 85.3547 57.6982C85.3587 57.5878 85.4503 57.4953 85.5607 57.4933C88.2541 57.4454 88.0011 56.426 86.1041 55.3031C85.9225 55.1956 85.9964 54.8927 86.2073 54.8856C90.0744 54.7545 89.1298 53.667 85.0909 52.0522C84.8842 51.9695 84.9357 51.5661 85.1513 51.5105C87.2608 50.9674 88.6926 49.0642 85.3757 49.0575C85.3647 49.0575 85.354 49.0582 85.3431 49.06Z" fill="#FFBB93"/>
<path d="M55.5049 8.81649C54.5618 6.93027 56.4023 5.97193 57.7206 5.64978C57.8786 5.61116 57.9786 5.37261 57.9942 5.21068C58.0276 4.86492 58.3508 4.32289 59.399 3.62413C61.3461 2.32604 74.327 -1.56822 76.9232 3.62413C79.5193 8.81649 78.2213 9.46553 76.9232 12.7108C75.9832 15.0607 75.3268 19.3606 75.0503 21.7595C75.0274 21.9586 74.7866 21.994 74.7256 21.8031C74.5287 21.1872 74.327 20.2648 74.327 19.2012C74.976 12.7108 73.0289 11.4127 71.7308 8.81649C70.4327 6.22031 62.6442 7.5184 60.048 8.16744C57.4518 8.81649 58.7499 10.7636 58.1011 12.7108C57.7515 13.7598 57.1859 15.6527 56.7215 17.2397C56.6536 17.4718 56.2661 17.4046 56.2757 17.163C56.3886 14.3182 56.3202 10.4471 55.5049 8.81649Z" fill="black" stroke="black" stroke-linecap="round"/>
</svg>
