<svg width="53" height="43" viewBox="0 0 53 43" fill="none" xmlns="http://www.w3.org/2000/svg">
<path d="M4.91925 0.5H47.167C49.6109 0.5 51.5862 2.47534 51.5862 4.91925V30.7887C51.5862 30.82 51.5819 30.8476 51.567 30.9222L51.5653 30.9304C51.5521 30.9965 51.5313 31.1 51.5286 31.2249C51.3114 33.4538 49.4419 35.208 47.167 35.208H4.91925C2.47534 35.208 0.5 33.2327 0.5 30.7887V4.91925C0.5 4.88799 0.504304 4.86043 0.519227 4.78582C0.519761 4.78314 0.520311 4.7804 0.520875 4.7776C0.534147 4.71145 0.554906 4.60798 0.557585 4.48304C0.774844 2.25414 2.64434 0.5 4.91925 0.5ZM6.59759 33.7194H45.0835C47.6702 33.7194 50.2176 31.6424 50.1555 28.9886V6.77121C50.1555 4.18012 48.0218 2.04644 45.4307 2.04644H6.94483C4.40553 2.04644 1.87282 4.13104 1.87282 6.77121V28.9947C1.87282 31.5857 4.0065 33.7194 6.59759 33.7194Z" stroke="#FFE772" stroke-opacity="0.9"/>
<path d="M15.2202 38.8367H36.8649C37.1343 38.8367 37.3965 39.0683 37.4382 39.3894V41.7828C37.4382 42.0692 37.1946 42.2981 36.9228 42.2981H15.2202C14.9338 42.2981 14.7049 42.0546 14.7049 41.7828V39.3521C14.7049 39.0656 14.9484 38.8367 15.2202 38.8367Z" stroke="#FFE772" stroke-opacity="0.9" stroke-width="1.4"/>
<path d="M32.666 25.4343L32.7845 25.5528L33.1606 25.9289L32.783 25.5542L32.666 25.4343ZM32.666 25.4343C32.6756 25.4278 32.7152 25.4026 32.7845 25.4026C32.8538 25.4026 32.8934 25.4278 32.9029 25.4343C32.9044 25.4354 32.9051 25.4359 32.9051 25.4359C32.9052 25.4358 32.9046 25.4353 32.9033 25.434L32.666 25.4343ZM19.304 25.3192L12.014 18.0292L19.2999 10.7432L19.8726 11.3159L13.6253 17.5632L13.1303 18.0581L13.6253 18.5531L19.8678 24.7957L19.304 25.3192ZM29.3119 7.85476L23.397 28.3295L22.7724 28.1458L28.6874 7.67106L29.3119 7.85476ZM38.4591 18.4952L38.9541 18.0003L38.4591 17.5053L32.2118 11.258L32.7845 10.6854L40.0709 17.9718L32.784 25.3147L32.2118 24.7425L38.4591 18.4952Z" stroke="#FFE772" stroke-opacity="0.9" stroke-width="1.4"/>
</svg>
