<svg width="36" height="40" viewBox="0 0 36 40" fill="none" xmlns="http://www.w3.org/2000/svg">
<path d="M35.3003 9.55361C34.6278 7.3012 33.2329 5.32413 31.3245 3.91847C27.5727 1.01823 24.0651 -0.184053 19.962 0.0226252C17.7983 0.169857 15.6484 0.472539 13.5293 0.92829C10.529 1.52352 8.35013 2.56289 6.86677 4.10603C5.69054 5.34041 4.78263 6.79867 4.19884 8.39127C3.95227 9.08918 3.75144 9.80191 3.59744 10.5251L3.54156 10.7623C3.40183 11.2719 3.21308 11.7672 2.97788 12.2413C2.83955 12.5453 2.70192 12.8497 2.5837 13.1591C2.4301 13.5059 2.36845 13.8855 2.40446 14.2622C2.53943 14.848 2.88382 15.3663 3.37471 15.7224C3.7007 16.0168 3.91501 16.2235 3.91696 16.4117C3.89117 16.5097 3.85205 16.6038 3.80069 16.6914C3.00422 18.3459 2.02828 19.9105 0.889923 21.3578C0.412588 21.9322 -0.0881255 22.6023 0.0131863 23.2846C0.158062 23.8014 0.504548 24.2408 0.976973 24.5067C1.19682 24.6574 1.42875 24.79 1.67057 24.9033C1.95759 25.0473 2.4382 25.2889 2.47132 25.4614C2.51512 25.6828 2.48971 25.9119 2.39853 26.1187C2.29979 26.3238 2.19723 26.5011 2.10886 26.655C1.8647 27.0807 1.45555 27.793 2.07247 28.3028C2.21602 28.4279 2.4615 28.618 2.68618 28.7872C2.5198 29.0752 2.44514 29.406 2.47187 29.7364C2.50779 29.9928 2.64947 30.2233 2.86348 30.3735C3.01217 30.4775 3.17131 30.5681 3.32912 30.6571C3.72011 30.8767 3.8727 30.979 3.9253 31.1835C3.96022 31.4504 3.93567 31.7216 3.85321 31.9781C3.81487 32.1499 3.77723 32.3218 3.75385 32.4933C3.68706 33.0894 3.76336 33.6927 3.97666 34.2543C4.32174 35.4988 5.59437 36.2598 6.87379 35.9868C8.77276 35.5355 10.6456 34.9836 12.4842 34.3333C13.9792 35.2034 14.9235 37.8369 15.1696 38.8244C15.243 39.1173 15.5096 39.3233 15.8158 39.3236H32.6297C32.8405 39.3236 33.0388 39.225 33.1642 39.058C33.2896 38.8909 33.3272 38.6752 33.2655 38.4766C33.0879 38.0147 32.835 37.5844 32.5167 37.2029C32.3364 36.9765 32.1761 36.7352 32.0374 36.4819C31.7377 35.8772 31.4865 35.2505 31.286 34.6073C30.9057 33.3416 30.6434 32.0443 30.5021 30.7317C30.267 28.7718 30.5672 26.7857 31.3717 24.9785C31.864 23.9783 32.4696 23.0362 33.1771 22.1703C33.5791 21.6375 33.9941 21.0865 34.3682 20.5053C35.4179 18.8982 35.9824 17.0301 35.9956 15.1189C36.0356 13.2406 35.8014 11.3663 35.3003 9.55361ZM34.6658 15.1003C34.6546 16.7695 34.1615 18.401 33.2442 19.8042C32.8967 20.3438 32.4967 20.875 32.1096 21.389C31.3417 22.3343 30.6852 23.3626 30.1529 24.4541C29.2534 26.4756 28.9181 28.6972 29.1819 30.8893C29.3324 32.2798 29.6113 33.6538 30.0152 34.9944C30.2357 35.7007 30.5114 36.3891 30.8399 37.0533C31.0126 37.3784 31.2146 37.6874 31.4433 37.9769C31.4524 37.9887 31.4615 38.0009 31.4699 38.0131H16.3193C15.8764 36.4576 15.074 35.0243 13.9749 33.8257C14.1489 33.7658 14.3139 33.7089 14.4672 33.6557C14.9652 33.4839 15.3406 33.354 15.5296 33.2953C18.3806 32.4134 19.8068 31.1366 19.7678 29.5C19.7592 29.138 19.4545 28.8514 19.0872 28.86C18.72 28.8685 18.4292 29.1688 18.4378 29.5307C18.454 30.2059 17.8936 31.1902 15.1302 32.0451C14.9341 32.1062 14.5438 32.2403 14.0275 32.4189C13.5508 32.5834 12.9637 32.7859 12.3214 33.0023L12.3175 33.0036C10.4456 33.6711 8.53842 34.2386 6.60445 34.7035C5.98154 34.8226 5.375 34.4338 5.23285 33.8244C5.08891 33.4563 5.03396 33.0602 5.07246 32.6675C5.09062 32.5318 5.12179 32.3961 5.15234 32.2604C5.28872 31.8057 5.30992 31.325 5.21407 30.8604C5.02352 30.2585 4.57596 29.7685 3.98858 29.5185C3.9412 29.492 3.89312 29.4651 3.84636 29.4379C3.91735 29.2946 4.00261 29.1585 4.10096 29.0318C4.21186 28.8926 4.2608 28.7151 4.23672 28.5397C4.21264 28.3643 4.11748 28.206 3.97307 28.1008C3.81331 27.9846 3.43339 27.704 3.16001 27.4889C3.19375 27.4278 3.2321 27.3609 3.26716 27.3005C3.3691 27.1225 3.486 26.9174 3.5997 26.6822C3.81253 26.2238 3.87496 25.7113 3.77832 25.2162C3.62308 24.4127 2.84376 24.0213 2.27485 23.7352C2.08205 23.6452 1.8972 23.5397 1.72216 23.4197C1.58399 23.3251 1.45306 23.2206 1.33055 23.107C1.3325 23.0085 1.43638 22.7688 1.94816 22.1533C3.13671 20.6435 4.15551 19.011 4.98689 17.2846C5.14697 17.0142 5.23643 16.7088 5.24734 16.3959C5.1797 15.7357 4.82417 15.1371 4.27319 14.7556C4.00432 14.513 3.75042 14.2838 3.72182 14.0829C3.72431 13.9237 3.76063 13.7667 3.82835 13.6221C3.93746 13.3363 4.06542 13.0567 4.19206 12.7767C4.46327 12.2264 4.6793 11.6512 4.83695 11.0594L4.89345 10.8204C5.0349 10.1511 5.21968 9.49155 5.44677 8.84556C5.96853 7.41947 6.78019 6.11336 7.83212 5.00731C9.12057 3.6671 11.0702 2.75314 13.792 2.21329C15.847 1.77075 17.932 1.47597 20.0304 1.33135C23.7946 1.1448 27.0235 2.25845 30.5052 4.9504C32.1969 6.18018 33.4321 7.92323 34.0213 9.91189C34.4867 11.6021 34.7039 13.3494 34.6658 15.1003Z" fill="#FFE772" fill-opacity="0.9"/>
<path d="M31.827 10.5988H30.4482C30.2951 10.086 30.0867 9.59073 29.8267 9.12161L30.8022 8.16027C31.0301 7.93569 31.0619 7.5824 30.8775 7.32181C30.2382 6.41775 29.4413 5.63252 28.524 5.00235C28.2599 4.82001 27.9009 4.8512 27.6732 5.07623L26.6977 6.03758C26.2215 5.78128 25.7187 5.57591 25.1981 5.42507V4.06604C25.198 3.74861 24.9671 3.47688 24.65 3.42089C23.5489 3.2295 22.4222 3.2295 21.321 3.42089C21.0039 3.47688 20.7731 3.74861 20.7729 4.06604V5.42515C20.2523 5.57599 19.7496 5.78136 19.2734 6.03765L18.2979 5.07631C18.0702 4.85127 17.7113 4.82009 17.4471 5.00242C16.5298 5.63252 15.7329 6.41783 15.0935 7.32188C14.9092 7.5824 14.9409 7.93577 15.1689 8.16034L16.1444 9.12169C15.8844 9.59081 15.676 10.086 15.5229 10.5988H14.1442C13.822 10.5988 13.5461 10.8264 13.4895 11.139C13.2939 12.2243 13.2939 13.3351 13.4895 14.4204C13.5461 14.733 13.822 14.9607 14.1442 14.9606H15.5229C15.6761 15.4734 15.8845 15.9686 16.1445 16.4377L15.169 17.3991C14.941 17.6237 14.9092 17.977 15.0936 18.2376C15.733 19.1416 16.5298 19.9269 17.4472 20.557C17.7116 20.7384 18.0698 20.7073 18.298 20.4831L19.2734 19.5218C19.7497 19.7781 20.2524 19.9834 20.773 20.1343V21.4934C20.7732 21.8108 21.0041 22.0826 21.3211 22.1385C22.4222 22.331 23.549 22.331 24.6501 22.1385C24.9672 22.0826 25.1981 21.8108 25.1982 21.4934V20.1343C25.7188 19.9834 26.2215 19.7781 26.6978 19.5218L27.6733 20.4831C27.9013 20.7074 28.2596 20.7386 28.5241 20.557C29.4414 19.9269 30.2382 19.1416 30.8776 18.2376C31.062 17.977 31.0303 17.6237 30.8022 17.3991L29.8268 16.4377C30.0868 15.9685 30.2951 15.4734 30.4483 14.9606H31.8271C32.1492 14.9607 32.4251 14.733 32.4817 14.4204C32.6774 13.3351 32.6774 12.2243 32.4817 11.139C32.425 10.8264 32.1491 10.5988 31.827 10.5988ZM31.251 13.6499H29.9325C29.6202 13.6498 29.3501 13.8639 29.2831 14.1644C29.1237 14.8832 28.8355 15.5681 28.4323 16.1873C28.2628 16.4464 28.2998 16.7871 28.5213 17.0049L29.4546 17.9247C29.0849 18.378 28.6663 18.7905 28.2063 19.1548L27.2731 18.2354C27.0521 18.0175 26.7069 17.9807 26.4437 18.1471C25.8153 18.5449 25.1199 18.829 24.3902 18.9862C24.0853 19.0523 23.8681 19.3185 23.8681 19.6262V20.9254C23.2814 20.9875 22.6896 20.9875 22.1029 20.9254V19.6262C22.1029 19.3185 21.8857 19.0522 21.5808 18.9862C20.8511 18.829 20.1557 18.5449 19.5273 18.1471C19.2643 17.98 18.9186 18.0169 18.6979 18.2354L17.7647 19.1548C17.3046 18.7905 16.8861 18.3779 16.5164 17.9247L17.4497 17.0049C17.6711 16.7871 17.7082 16.4465 17.5387 16.1873C17.1354 15.5682 16.8473 14.8832 16.6879 14.1644C16.6209 13.8639 16.3507 13.6498 16.0385 13.6499H14.7202C14.657 13.0715 14.657 12.4881 14.7202 11.9096H16.0385C16.3508 11.9097 16.621 11.6956 16.688 11.3951C16.8474 10.6763 17.1355 9.99141 17.5387 9.37222C17.7082 9.11309 17.6712 8.77247 17.4497 8.55457L16.5165 7.63486C16.8862 7.18149 17.3048 6.76905 17.7647 6.4047L18.698 7.32411C18.9187 7.54254 19.2643 7.5794 19.5273 7.41243C20.1558 7.01459 20.8512 6.7305 21.5808 6.57336C21.8858 6.50723 22.103 6.24103 22.103 5.93336V4.63407C22.6897 4.57202 23.2815 4.57202 23.8682 4.63407V5.93336C23.8682 6.24103 24.0854 6.50731 24.3903 6.57336C25.12 6.7305 25.8154 7.01459 26.4438 7.41243C26.707 7.57871 27.0521 7.54192 27.2732 7.32411L28.2064 6.4047C28.6664 6.76905 29.0849 7.18156 29.4546 7.63486L28.5214 8.55457C28.3 8.77239 28.2629 9.11301 28.4324 9.37222C28.8356 9.99133 29.1237 10.6763 29.2832 11.3951C29.3501 11.6956 29.6204 11.9097 29.9326 11.9096H31.251C31.3142 12.488 31.3142 13.0715 31.251 13.6499Z" fill="#FFE772" fill-opacity="0.9"/>
<path d="M14.0105 19.0035H13.251C13.189 18.7689 13.0939 18.544 12.9685 18.3355L13.5065 17.8051C13.7662 17.5492 13.7662 17.1343 13.5065 16.8783C13.2468 16.6224 12.8258 16.6224 12.5661 16.8783L12.028 17.4087C11.8164 17.2852 11.5883 17.1915 11.3504 17.1304V16.3819C11.3504 16.02 11.0526 15.7266 10.6854 15.7266C10.3181 15.7266 10.0204 16.02 10.0204 16.3819V17.1304C9.78236 17.1915 9.55425 17.2852 9.34275 17.4087L8.8047 16.8783C8.63676 16.7127 8.3919 16.6481 8.16239 16.7087C7.93288 16.7693 7.75371 16.946 7.69222 17.1721C7.63073 17.3982 7.69635 17.6395 7.86429 17.8051L8.40234 18.3355C8.27687 18.544 8.18179 18.7689 8.11983 19.0035H7.36031C6.99301 19.0035 6.69531 19.2969 6.69531 19.6589C6.69531 20.0209 6.99301 20.3143 7.36031 20.3143H8.11983C8.18179 20.5489 8.27687 20.7738 8.40234 20.9823L7.86429 21.5127C7.69635 21.6783 7.63073 21.9195 7.69222 22.1457C7.75371 22.3718 7.93295 22.5485 8.16239 22.6091C8.39182 22.6697 8.63668 22.605 8.8047 22.4395L9.34275 21.9091C9.55433 22.0326 9.78244 22.1263 10.0204 22.1874V22.9359C10.0204 23.2978 10.3181 23.5912 10.6854 23.5912C11.0527 23.5912 11.3504 23.2978 11.3504 22.9359V22.1874C11.5884 22.1263 11.8165 22.0326 12.0281 21.9091L12.5661 22.4395C12.8258 22.6954 13.2468 22.6954 13.5065 22.4395C13.7662 22.1836 13.7662 21.7686 13.5065 21.5127L12.9685 20.9823C13.0939 20.7738 13.189 20.5489 13.251 20.3143H14.0105C14.3778 20.3143 14.6755 20.0209 14.6755 19.6589C14.6755 19.2969 14.3778 19.0035 14.0105 19.0035ZM10.6854 20.9697C9.95077 20.9697 9.35529 20.3828 9.35529 19.6589C9.35529 18.9349 9.95077 18.3481 10.6854 18.3481C11.4199 18.3481 12.0154 18.9349 12.0154 19.6589C12.0146 20.3825 11.4196 20.9688 10.6854 20.9697Z" fill="#FFE772" fill-opacity="0.9"/>
<path d="M7.20327 12.4556C7.24426 12.5871 7.2978 12.7145 7.36311 12.8361L7.00345 13.1907C6.8355 13.3563 6.76989 13.5975 6.83137 13.8237C6.89286 14.0498 7.07211 14.2265 7.30154 14.2871C7.53097 14.3477 7.77583 14.283 7.94386 14.1175L8.30453 13.7619C8.42758 13.8259 8.5564 13.8785 8.68936 13.919V14.4219C8.68936 14.7838 8.98706 15.0772 9.35435 15.0772C9.72164 15.0772 10.0193 14.7838 10.0193 14.4219V13.919C10.1523 13.8786 10.2811 13.826 10.4042 13.7619L10.7649 14.1176C11.0246 14.3735 11.4457 14.3735 11.7053 14.1176C11.965 13.8617 11.965 13.4467 11.7053 13.1908L11.3456 12.8361C11.411 12.7145 11.4645 12.5872 11.5055 12.4557H12.0144C12.3817 12.4557 12.6794 12.1622 12.6794 11.8003C12.6794 11.4384 12.3817 11.145 12.0144 11.145H11.5055C11.4645 11.0135 11.411 10.8861 11.3456 10.7646L11.7053 10.4099C11.8734 10.2443 11.9389 10.0031 11.8774 9.77687C11.8159 9.55076 11.6367 9.37411 11.4072 9.31351C11.1778 9.25292 10.9329 9.31758 10.7649 9.48309L10.4042 9.83877C10.2811 9.77472 10.1523 9.72218 10.0193 9.68178V9.1788C10.0193 8.81683 9.72164 8.52344 9.35435 8.52344C8.98706 8.52344 8.68936 8.81683 8.68936 9.1788V9.68186C8.5564 9.72226 8.42758 9.77479 8.30453 9.83885L7.94378 9.48309C7.68411 9.22719 7.26312 9.22719 7.00337 9.48309C6.7437 9.739 6.7437 10.1539 7.00337 10.4099L7.36311 10.7646C7.29772 10.8861 7.24418 11.0135 7.20319 11.145H6.69429C6.327 11.145 6.0293 11.4384 6.0293 11.8003C6.0293 12.1623 6.32708 12.4557 6.69429 12.4557H7.20327V12.4556ZM9.11323 10.9134C9.52035 10.8058 9.95014 10.9811 10.1609 11.3409C10.3718 11.7006 10.3111 12.1551 10.013 12.4489C9.74682 12.7114 9.34617 12.7901 8.99812 12.6481C8.65008 12.5061 8.42314 12.1714 8.42314 11.8002C8.42306 11.3847 8.70611 11.021 9.11323 10.9134Z" fill="#FFE772" fill-opacity="0.9"/>
<path d="M22.9867 8.52344C20.5994 8.52344 18.6641 10.4307 18.6641 12.7835C18.6668 15.1351 20.6005 17.0408 22.9867 17.0435C25.374 17.0435 27.3094 15.1363 27.3094 12.7835C27.3094 10.4307 25.374 8.52344 22.9867 8.52344ZM22.9867 15.7327C21.3339 15.7327 19.9941 14.4123 19.9941 12.7834C19.9959 11.1553 21.3347 9.83593 22.9867 9.83416C24.6395 9.83416 25.9793 11.1546 25.9793 12.7834C25.9793 14.4123 24.6395 15.7327 22.9867 15.7327Z" fill="#FFE772" fill-opacity="0.9"/>
</svg>
