<svg width="133" height="133" viewBox="0 0 133 133" fill="none" xmlns="http://www.w3.org/2000/svg">
<path d="M39.0007 35.4454C38.3097 33.6354 40.3385 31.9985 41.9615 33.0566L64.3698 47.6662C65.0956 48.1394 66.0436 48.0914 66.718 47.5474L87.537 30.7504C89.0449 29.5338 91.2286 30.9575 90.7238 32.828L83.7539 58.6542C83.5281 59.4907 83.8667 60.3775 84.5925 60.8507L107.001 75.4603C108.624 76.5184 107.945 79.0352 106.01 79.1331L79.2936 80.485C78.4282 80.5288 77.6895 81.1248 77.4637 81.9613L70.4938 107.788C69.989 109.658 67.3855 109.79 66.6944 107.98L57.153 82.9891C56.8439 82.1797 56.0488 81.6613 55.1835 81.7051L28.4674 83.057C26.5325 83.1549 25.6027 80.7195 27.1105 79.503L47.9296 62.706C48.6039 62.1619 48.8513 61.2455 48.5422 60.436L39.0007 35.4454Z" fill="white" fill-opacity="0.4"/>
<path d="M23.7438 59.0047C22.2849 57.5719 24.015 55.6885 25.0625 54.9259L87.8947 87.2524L86.4881 91.6032C77.7375 83.368 25.5676 60.7957 23.7438 59.0047Z" fill="#FFDDC8"/>
<path d="M25.6217 56.9092C24.3409 51.2091 29.1756 46.8454 31.753 45.376C32.4546 45.3696 32.9696 45.5208 33.3267 45.7942C43.1724 49.1527 79.2728 70.4413 88.0512 74.6892C97.4008 79.2136 92.1218 75.1042 93.874 78.9743C94.5726 84.2458 89.9494 88.0173 87.5506 89.2441L27.1332 57.6983C26.3455 58.0476 25.7684 57.8735 25.6217 56.9092Z" fill="#FFBB93"/>
<path d="M31.753 45.376C29.1756 46.8454 24.3409 51.2091 25.6217 56.9092M31.753 45.376C38.9822 45.3104 26.3906 61.9632 25.6217 56.9092M31.753 45.376C38.3587 46.3101 78.7016 70.1649 88.0512 74.6892C97.4008 79.2136 92.1218 75.1042 93.874 78.9743C94.5726 84.2458 89.9494 88.0173 87.5506 89.2441L25.6217 56.9092" stroke="#F37021" stroke-width="0.3"/>
<path d="M51.697 71.9464C54.1471 71.0566 57.2688 61.8342 58.2596 58.15C58.3475 57.8781 58.6337 57.5502 59.0754 58.4138C59.6274 59.4932 65.4338 61.9711 66.7935 62.4106C66.2505 66.3197 61.8991 74.1434 60.055 76.7508C58.6607 75.7995 55.0369 73.5067 51.697 71.9464Z" fill="#FFA114"/>
</svg>
