<svg width="390" height="303" viewBox="0 0 390 303" fill="none" xmlns="http://www.w3.org/2000/svg">
<g filter="url(#filter0_d)">
<rect x="16" y="117.008" width="358" height="168" rx="8" fill="url(#paint0_linear)"/>
</g>
<path d="M62.136 168.832V171.712H66.216V176.704H61.848C61.336 179.552 60.088 181.728 58.104 183.232C56.12 184.704 53.224 185.44 49.416 185.44V187.36C49.416 188.608 49.656 189.584 50.136 190.288C50.616 190.96 51.448 191.296 52.632 191.296C53.752 191.296 54.552 190.96 55.032 190.288C55.512 189.616 55.752 188.608 55.752 187.264H63.336C63.208 190.496 62.248 193.008 60.456 194.8C58.696 196.592 56.152 197.488 52.824 197.488C49.24 197.488 46.488 196.56 44.568 194.704C42.68 192.816 41.736 190 41.736 186.256V180.064C45.064 180.064 47.512 180 49.08 179.872C50.68 179.712 51.864 179.408 52.632 178.96C53.432 178.48 53.96 177.728 54.216 176.704H40.824V171.712H54.456V168.832H40.824V163.312H66.216V168.832H62.136ZM79.7314 190.432C80.8194 189.568 81.3154 189.168 81.2194 189.232C84.3554 186.64 86.8194 184.512 88.6114 182.848C90.4354 181.184 91.9714 179.44 93.2194 177.616C94.4674 175.792 95.0914 174.016 95.0914 172.288C95.0914 170.976 94.7874 169.952 94.1794 169.216C93.5714 168.48 92.6594 168.112 91.4434 168.112C90.2274 168.112 89.2674 168.576 88.5634 169.504C87.8914 170.4 87.5554 171.68 87.5554 173.344H79.6354C79.6994 170.624 80.2754 168.352 81.3634 166.528C82.4834 164.704 83.9394 163.36 85.7314 162.496C87.5554 161.632 89.5714 161.2 91.7794 161.2C95.5874 161.2 98.4514 162.176 100.371 164.128C102.323 166.08 103.299 168.624 103.299 171.76C103.299 175.184 102.131 178.368 99.7954 181.312C97.4594 184.224 94.4834 187.072 90.8674 189.856H103.827V196.528H79.7314V190.432ZM132.113 169.12H117.137V175.744C117.777 175.04 118.673 174.464 119.825 174.016C120.977 173.568 122.225 173.344 123.569 173.344C125.969 173.344 127.953 173.888 129.521 174.976C131.121 176.064 132.289 177.472 133.025 179.2C133.761 180.928 134.129 182.8 134.129 184.816C134.129 188.56 133.073 191.536 130.961 193.744C128.849 195.92 125.873 197.008 122.033 197.008C119.473 197.008 117.249 196.576 115.361 195.712C113.473 194.816 112.017 193.584 110.993 192.016C109.969 190.448 109.409 188.64 109.313 186.592H117.329C117.521 187.584 117.985 188.416 118.721 189.088C119.457 189.728 120.465 190.048 121.745 190.048C123.249 190.048 124.369 189.568 125.105 188.608C125.841 187.648 126.209 186.368 126.209 184.768C126.209 183.2 125.825 182 125.057 181.168C124.289 180.336 123.169 179.92 121.697 179.92C120.609 179.92 119.713 180.192 119.009 180.736C118.305 181.248 117.841 181.936 117.617 182.8H109.697V161.92H132.113V169.12ZM148.308 189.424L142.98 203.2H137.748L140.532 189.424H148.308ZM152.441 179.008C152.441 173.504 153.497 169.168 155.609 166C157.753 162.832 161.193 161.248 165.929 161.248C170.665 161.248 174.089 162.832 176.201 166C178.345 169.168 179.417 173.504 179.417 179.008C179.417 184.576 178.345 188.944 176.201 192.112C174.089 195.28 170.665 196.864 165.929 196.864C161.193 196.864 157.753 195.28 155.609 192.112C153.497 188.944 152.441 184.576 152.441 179.008ZM171.353 179.008C171.353 175.776 171.001 173.296 170.297 171.568C169.593 169.808 168.137 168.928 165.929 168.928C163.721 168.928 162.265 169.808 161.561 171.568C160.857 173.296 160.505 175.776 160.505 179.008C160.505 181.184 160.633 182.992 160.889 184.432C161.145 185.84 161.657 186.992 162.425 187.888C163.225 188.752 164.393 189.184 165.929 189.184C167.465 189.184 168.617 188.752 169.385 187.888C170.185 186.992 170.713 185.84 170.969 184.432C171.225 182.992 171.353 181.184 171.353 179.008ZM183.754 179.008C183.754 173.504 184.81 169.168 186.922 166C189.066 162.832 192.506 161.248 197.242 161.248C201.978 161.248 205.402 162.832 207.514 166C209.658 169.168 210.73 173.504 210.73 179.008C210.73 184.576 209.658 188.944 207.514 192.112C205.402 195.28 201.978 196.864 197.242 196.864C192.506 196.864 189.066 195.28 186.922 192.112C184.81 188.944 183.754 184.576 183.754 179.008ZM202.666 179.008C202.666 175.776 202.314 173.296 201.61 171.568C200.906 169.808 199.45 168.928 197.242 168.928C195.034 168.928 193.578 169.808 192.874 171.568C192.17 173.296 191.818 175.776 191.818 179.008C191.818 181.184 191.946 182.992 192.202 184.432C192.458 185.84 192.97 186.992 193.738 187.888C194.538 188.752 195.706 189.184 197.242 189.184C198.778 189.184 199.93 188.752 200.698 187.888C201.498 186.992 202.026 185.84 202.282 184.432C202.538 182.992 202.666 181.184 202.666 179.008ZM215.066 179.008C215.066 173.504 216.122 169.168 218.234 166C220.378 162.832 223.818 161.248 228.554 161.248C233.29 161.248 236.714 162.832 238.826 166C240.97 169.168 242.042 173.504 242.042 179.008C242.042 184.576 240.97 188.944 238.826 192.112C236.714 195.28 233.29 196.864 228.554 196.864C223.818 196.864 220.378 195.28 218.234 192.112C216.122 188.944 215.066 184.576 215.066 179.008ZM233.978 179.008C233.978 175.776 233.626 173.296 232.922 171.568C232.218 169.808 230.762 168.928 228.554 168.928C226.346 168.928 224.89 169.808 224.186 171.568C223.482 173.296 223.13 175.776 223.13 179.008C223.13 181.184 223.258 182.992 223.514 184.432C223.77 185.84 224.282 186.992 225.05 187.888C225.85 188.752 227.018 189.184 228.554 189.184C230.09 189.184 231.242 188.752 232.01 187.888C232.81 186.992 233.338 185.84 233.594 184.432C233.85 182.992 233.978 181.184 233.978 179.008ZM260.32 186.208V186.548H262.9V187.868H260.22C260.1 188.788 259.833 189.508 259.42 190.028C259.02 190.548 258.433 190.921 257.66 191.148C256.9 191.374 255.887 191.488 254.62 191.488V193.068C254.62 194.868 255.407 195.768 256.98 195.768C258.527 195.768 259.3 194.901 259.3 193.168H260.98C260.967 194.501 260.613 195.508 259.92 196.188C259.227 196.868 258.24 197.208 256.96 197.208C255.64 197.208 254.633 196.841 253.94 196.108C253.26 195.374 252.92 194.348 252.92 193.028V190.208C254.44 190.208 255.56 190.161 256.28 190.068C257.013 189.961 257.547 189.748 257.88 189.428C258.213 189.094 258.427 188.574 258.52 187.868H252.02V186.548H258.6V186.188V184.388H252.02V183.048H262.9V184.388H260.32V186.208ZM279.487 184.128H272.467V188.688C272.774 188.261 273.227 187.914 273.827 187.648C274.427 187.368 275.074 187.228 275.767 187.228C276.874 187.228 277.774 187.461 278.467 187.928C279.161 188.381 279.654 188.974 279.947 189.708C280.254 190.428 280.407 191.194 280.407 192.008C280.407 192.968 280.227 193.828 279.867 194.588C279.507 195.348 278.954 195.948 278.207 196.388C277.474 196.828 276.561 197.048 275.467 197.048C274.067 197.048 272.934 196.688 272.067 195.968C271.201 195.248 270.674 194.288 270.487 193.088H272.267C272.441 193.848 272.807 194.441 273.367 194.868C273.927 195.294 274.634 195.508 275.487 195.508C276.541 195.508 277.334 195.194 277.867 194.568C278.401 193.928 278.667 193.088 278.667 192.048C278.667 191.008 278.401 190.208 277.867 189.648C277.334 189.074 276.547 188.788 275.507 188.788C274.801 188.788 274.181 188.961 273.647 189.308C273.127 189.641 272.747 190.101 272.507 190.688H270.787V182.528H279.487V184.128ZM282.826 189.628C282.826 187.334 283.199 185.548 283.946 184.268C284.693 182.974 285.999 182.328 287.866 182.328C289.719 182.328 291.019 182.974 291.766 184.268C292.513 185.548 292.886 187.334 292.886 189.628C292.886 191.961 292.513 193.774 291.766 195.068C291.019 196.361 289.719 197.008 287.866 197.008C285.999 197.008 284.693 196.361 283.946 195.068C283.199 193.774 282.826 191.961 282.826 189.628ZM291.086 189.628C291.086 188.468 291.006 187.488 290.846 186.688C290.699 185.874 290.386 185.221 289.906 184.728C289.439 184.234 288.759 183.988 287.866 183.988C286.959 183.988 286.266 184.234 285.786 184.728C285.319 185.221 285.006 185.874 284.846 186.688C284.699 187.488 284.626 188.468 284.626 189.628C284.626 190.828 284.699 191.834 284.846 192.648C285.006 193.461 285.319 194.114 285.786 194.608C286.266 195.101 286.959 195.348 287.866 195.348C288.759 195.348 289.439 195.101 289.906 194.608C290.386 194.114 290.699 193.461 290.846 192.648C291.006 191.834 291.086 190.828 291.086 189.628ZM297.565 194.488L295.325 199.868H294.105L295.565 194.488H297.565ZM299.349 189.628C299.349 187.334 299.723 185.548 300.469 184.268C301.216 182.974 302.523 182.328 304.389 182.328C306.243 182.328 307.543 182.974 308.289 184.268C309.036 185.548 309.409 187.334 309.409 189.628C309.409 191.961 309.036 193.774 308.289 195.068C307.543 196.361 306.243 197.008 304.389 197.008C302.523 197.008 301.216 196.361 300.469 195.068C299.723 193.774 299.349 191.961 299.349 189.628ZM307.609 189.628C307.609 188.468 307.529 187.488 307.369 186.688C307.223 185.874 306.909 185.221 306.429 184.728C305.963 184.234 305.283 183.988 304.389 183.988C303.483 183.988 302.789 184.234 302.309 184.728C301.843 185.221 301.529 185.874 301.369 186.688C301.223 187.488 301.149 188.468 301.149 189.628C301.149 190.828 301.223 191.834 301.369 192.648C301.529 193.461 301.843 194.114 302.309 194.608C302.789 195.101 303.483 195.348 304.389 195.348C305.283 195.348 305.963 195.101 306.429 194.608C306.909 194.114 307.223 193.461 307.369 192.648C307.529 191.834 307.609 190.828 307.609 189.628ZM311.908 189.628C311.908 187.334 312.281 185.548 313.028 184.268C313.775 182.974 315.081 182.328 316.948 182.328C318.801 182.328 320.101 182.974 320.848 184.268C321.595 185.548 321.968 187.334 321.968 189.628C321.968 191.961 321.595 193.774 320.848 195.068C320.101 196.361 318.801 197.008 316.948 197.008C315.081 197.008 313.775 196.361 313.028 195.068C312.281 193.774 311.908 191.961 311.908 189.628ZM320.168 189.628C320.168 188.468 320.088 187.488 319.928 186.688C319.781 185.874 319.468 185.221 318.988 184.728C318.521 184.234 317.841 183.988 316.948 183.988C316.041 183.988 315.348 184.234 314.868 184.728C314.401 185.221 314.088 185.874 313.928 186.688C313.781 187.488 313.708 188.468 313.708 189.628C313.708 190.828 313.781 191.834 313.928 192.648C314.088 193.461 314.401 194.114 314.868 194.608C315.348 195.101 316.041 195.348 316.948 195.348C317.841 195.348 318.521 195.101 318.988 194.608C319.468 194.114 319.781 193.461 319.928 192.648C320.088 191.834 320.168 190.828 320.168 189.628ZM324.467 189.628C324.467 187.334 324.84 185.548 325.587 184.268C326.333 182.974 327.64 182.328 329.507 182.328C331.36 182.328 332.66 182.974 333.407 184.268C334.153 185.548 334.527 187.334 334.527 189.628C334.527 191.961 334.153 193.774 333.407 195.068C332.66 196.361 331.36 197.008 329.507 197.008C327.64 197.008 326.333 196.361 325.587 195.068C324.84 193.774 324.467 191.961 324.467 189.628ZM332.727 189.628C332.727 188.468 332.647 187.488 332.487 186.688C332.34 185.874 332.027 185.221 331.547 184.728C331.08 184.234 330.4 183.988 329.507 183.988C328.6 183.988 327.907 184.234 327.427 184.728C326.96 185.221 326.647 185.874 326.487 186.688C326.34 187.488 326.267 188.468 326.267 189.628C326.267 190.828 326.34 191.834 326.487 192.648C326.647 193.461 326.96 194.114 327.427 194.608C327.907 195.101 328.6 195.348 329.507 195.348C330.4 195.348 331.08 195.101 331.547 194.608C332.027 194.114 332.34 193.461 332.487 192.648C332.647 191.834 332.727 190.828 332.727 189.628ZM50.18 219.388H43.94V222.148C44.2067 221.854 44.58 221.614 45.06 221.428C45.54 221.241 46.06 221.148 46.62 221.148C47.62 221.148 48.4467 221.374 49.1 221.828C49.7667 222.281 50.2533 222.868 50.56 223.588C50.8667 224.308 51.02 225.088 51.02 225.928C51.02 227.488 50.58 228.728 49.7 229.648C48.82 230.554 47.58 231.008 45.98 231.008C44.9133 231.008 43.9867 230.828 43.2 230.468C42.4133 230.094 41.8067 229.581 41.38 228.928C40.9533 228.274 40.72 227.521 40.68 226.668H44.02C44.1 227.081 44.2933 227.428 44.6 227.708C44.9067 227.974 45.3267 228.108 45.86 228.108C46.4867 228.108 46.9533 227.908 47.26 227.508C47.5667 227.108 47.72 226.574 47.72 225.908C47.72 225.254 47.56 224.754 47.24 224.408C46.92 224.061 46.4533 223.888 45.84 223.888C45.3867 223.888 45.0133 224.001 44.72 224.228C44.4267 224.441 44.2333 224.728 44.14 225.088H40.84V216.388H50.18V219.388ZM52.9078 223.508C52.9078 221.214 53.3478 219.408 54.2278 218.088C55.1211 216.768 56.5545 216.108 58.5278 216.108C60.5011 216.108 61.9278 216.768 62.8078 218.088C63.7011 219.408 64.1478 221.214 64.1478 223.508C64.1478 225.828 63.7011 227.648 62.8078 228.968C61.9278 230.288 60.5011 230.948 58.5278 230.948C56.5545 230.948 55.1211 230.288 54.2278 228.968C53.3478 227.648 52.9078 225.828 52.9078 223.508ZM60.7878 223.508C60.7878 222.161 60.6411 221.128 60.3478 220.408C60.0545 219.674 59.4478 219.308 58.5278 219.308C57.6078 219.308 57.0011 219.674 56.7078 220.408C56.4145 221.128 56.2678 222.161 56.2678 223.508C56.2678 224.414 56.3211 225.168 56.4278 225.768C56.5345 226.354 56.7478 226.834 57.0678 227.208C57.4011 227.568 57.8878 227.748 58.5278 227.748C59.1678 227.748 59.6478 227.568 59.9678 227.208C60.3011 226.834 60.5211 226.354 60.6278 225.768C60.7345 225.168 60.7878 224.414 60.7878 223.508ZM65.6747 220.088C65.6747 219.008 65.9814 218.174 66.5947 217.588C67.2214 217.001 68.028 216.708 69.0147 216.708C70.0014 216.708 70.8014 217.001 71.4147 217.588C72.028 218.174 72.3347 219.008 72.3347 220.088C72.3347 221.168 72.028 222.001 71.4147 222.588C70.8014 223.174 70.0014 223.468 69.0147 223.468C68.028 223.468 67.2214 223.174 66.5947 222.588C65.9814 222.001 65.6747 221.168 65.6747 220.088ZM79.2547 216.928L71.5547 231.008H68.2547L75.9547 216.928H79.2547ZM68.9947 218.708C68.3547 218.708 68.0347 219.168 68.0347 220.088C68.0347 220.994 68.3547 221.448 68.9947 221.448C69.3014 221.448 69.5414 221.334 69.7147 221.108C69.888 220.881 69.9747 220.541 69.9747 220.088C69.9747 219.168 69.648 218.708 68.9947 218.708ZM75.1947 227.848C75.1947 226.768 75.5014 225.934 76.1147 225.348C76.728 224.761 77.528 224.468 78.5147 224.468C79.5014 224.468 80.3014 224.761 80.9147 225.348C81.528 225.934 81.8347 226.768 81.8347 227.848C81.8347 228.928 81.528 229.761 80.9147 230.348C80.3014 230.934 79.5014 231.228 78.5147 231.228C77.528 231.228 76.728 230.934 76.1147 230.348C75.5014 229.761 75.1947 228.928 75.1947 227.848ZM78.4947 226.468C78.188 226.468 77.948 226.581 77.7747 226.808C77.6147 227.034 77.5347 227.381 77.5347 227.848C77.5347 228.754 77.8547 229.208 78.4947 229.208C78.8014 229.208 79.0414 229.094 79.2147 228.868C79.388 228.641 79.4747 228.301 79.4747 227.848C79.4747 227.394 79.388 227.054 79.2147 226.828C79.0414 226.588 78.8014 226.468 78.4947 226.468ZM92.4753 231.168C91.502 231.168 90.6353 231.001 89.8753 230.668C89.1153 230.334 88.5153 229.881 88.0753 229.308C87.6353 228.721 87.3886 228.068 87.3353 227.348H90.7153C90.7553 227.734 90.9353 228.048 91.2553 228.288C91.5753 228.528 91.9686 228.648 92.4353 228.648C92.862 228.648 93.1886 228.568 93.4153 228.408C93.6553 228.234 93.7753 228.014 93.7753 227.748C93.7753 227.428 93.6086 227.194 93.2753 227.048C92.942 226.888 92.402 226.714 91.6553 226.528C90.8553 226.341 90.1886 226.148 89.6553 225.948C89.122 225.734 88.662 225.408 88.2753 224.968C87.8886 224.514 87.6953 223.908 87.6953 223.148C87.6953 222.508 87.8686 221.928 88.2153 221.408C88.5753 220.874 89.0953 220.454 89.7753 220.148C90.4686 219.841 91.2886 219.688 92.2353 219.688C93.6353 219.688 94.7353 220.034 95.5353 220.728C96.3486 221.421 96.8153 222.341 96.9353 223.488H93.7753C93.722 223.101 93.5486 222.794 93.2553 222.568C92.9753 222.341 92.602 222.228 92.1353 222.228C91.7353 222.228 91.4286 222.308 91.2153 222.468C91.002 222.614 90.8953 222.821 90.8953 223.088C90.8953 223.408 91.062 223.648 91.3953 223.808C91.742 223.968 92.2753 224.128 92.9953 224.288C93.822 224.501 94.4953 224.714 95.0153 224.928C95.5353 225.128 95.9886 225.461 96.3753 225.928C96.7753 226.381 96.982 226.994 96.9953 227.768C96.9953 228.421 96.8086 229.008 96.4353 229.528C96.0753 230.034 95.5486 230.434 94.8553 230.728C94.1753 231.021 93.382 231.168 92.4753 231.168ZM105.308 228.108V231.008H103.568C102.328 231.008 101.361 230.708 100.668 230.108C99.9743 229.494 99.6277 228.501 99.6277 227.128V222.688H98.2677V219.848H99.6277V217.128H103.048V219.848H105.288V222.688H103.048V227.168C103.048 227.501 103.128 227.741 103.288 227.888C103.448 228.034 103.714 228.108 104.088 228.108H105.308ZM118.233 219.848V231.008H114.813V229.488C114.466 229.981 113.993 230.381 113.393 230.688C112.806 230.981 112.153 231.128 111.433 231.128C110.579 231.128 109.826 230.941 109.173 230.568C108.519 230.181 108.013 229.628 107.653 228.908C107.293 228.188 107.113 227.341 107.113 226.368V219.848H110.513V225.908C110.513 226.654 110.706 227.234 111.093 227.648C111.479 228.061 111.999 228.268 112.653 228.268C113.319 228.268 113.846 228.061 114.233 227.648C114.619 227.234 114.813 226.654 114.813 225.908V219.848H118.233ZM120.009 225.408C120.009 224.261 120.223 223.254 120.649 222.388C121.089 221.521 121.683 220.854 122.429 220.388C123.176 219.921 124.009 219.688 124.929 219.688C125.663 219.688 126.329 219.841 126.929 220.148C127.543 220.454 128.023 220.868 128.369 221.388V216.208H131.789V231.008H128.369V229.408C128.049 229.941 127.589 230.368 126.989 230.688C126.403 231.008 125.716 231.168 124.929 231.168C124.009 231.168 123.176 230.934 122.429 230.468C121.683 229.988 121.089 229.314 120.649 228.448C120.223 227.568 120.009 226.554 120.009 225.408ZM128.369 225.428C128.369 224.574 128.129 223.901 127.649 223.408C127.183 222.914 126.609 222.668 125.929 222.668C125.249 222.668 124.669 222.914 124.189 223.408C123.723 223.888 123.489 224.554 123.489 225.408C123.489 226.261 123.723 226.941 124.189 227.448C124.669 227.941 125.249 228.188 125.929 228.188C126.609 228.188 127.183 227.941 127.649 227.448C128.129 226.954 128.369 226.281 128.369 225.428ZM144.783 225.248C144.783 225.568 144.763 225.901 144.723 226.248H136.983C137.037 226.941 137.257 227.474 137.643 227.848C138.043 228.208 138.53 228.388 139.103 228.388C139.957 228.388 140.55 228.028 140.883 227.308H144.523C144.337 228.041 143.997 228.701 143.503 229.288C143.023 229.874 142.417 230.334 141.683 230.668C140.95 231.001 140.13 231.168 139.223 231.168C138.13 231.168 137.157 230.934 136.303 230.468C135.45 230.001 134.783 229.334 134.303 228.468C133.823 227.601 133.583 226.588 133.583 225.428C133.583 224.268 133.817 223.254 134.283 222.388C134.763 221.521 135.43 220.854 136.283 220.388C137.137 219.921 138.117 219.688 139.223 219.688C140.303 219.688 141.263 219.914 142.103 220.368C142.943 220.821 143.597 221.468 144.063 222.308C144.543 223.148 144.783 224.128 144.783 225.248ZM141.283 224.348C141.283 223.761 141.083 223.294 140.683 222.948C140.283 222.601 139.783 222.428 139.183 222.428C138.61 222.428 138.123 222.594 137.723 222.928C137.337 223.261 137.097 223.734 137.003 224.348H141.283ZM153.388 219.728C154.694 219.728 155.734 220.154 156.508 221.008C157.294 221.848 157.688 223.008 157.688 224.488V231.008H154.288V224.948C154.288 224.201 154.094 223.621 153.708 223.208C153.321 222.794 152.801 222.588 152.148 222.588C151.494 222.588 150.974 222.794 150.588 223.208C150.201 223.621 150.008 224.201 150.008 224.948V231.008H146.588V219.848H150.008V221.328C150.354 220.834 150.821 220.448 151.408 220.168C151.994 219.874 152.654 219.728 153.388 219.728ZM166.284 228.108V231.008H164.544C163.304 231.008 162.338 230.708 161.644 230.108C160.951 229.494 160.604 228.501 160.604 227.128V222.688H159.244V219.848H160.604V217.128H164.024V219.848H166.264V222.688H164.024V227.168C164.024 227.501 164.104 227.741 164.264 227.888C164.424 228.034 164.691 228.108 165.064 228.108H166.284ZM171.748 225.408C171.748 224.261 171.961 223.254 172.388 222.388C172.828 221.521 173.421 220.854 174.168 220.388C174.914 219.921 175.748 219.688 176.668 219.688C177.401 219.688 178.068 219.841 178.668 220.148C179.281 220.454 179.761 220.868 180.108 221.388V216.208H183.528V231.008H180.108V229.408C179.788 229.941 179.328 230.368 178.728 230.688C178.141 231.008 177.454 231.168 176.668 231.168C175.748 231.168 174.914 230.934 174.168 230.468C173.421 229.988 172.828 229.314 172.388 228.448C171.961 227.568 171.748 226.554 171.748 225.408ZM180.108 225.428C180.108 224.574 179.868 223.901 179.388 223.408C178.921 222.914 178.348 222.668 177.668 222.668C176.988 222.668 176.408 222.914 175.928 223.408C175.461 223.888 175.228 224.554 175.228 225.408C175.228 226.261 175.461 226.941 175.928 227.448C176.408 227.941 176.988 228.188 177.668 228.188C178.348 228.188 178.921 227.941 179.388 227.448C179.868 226.954 180.108 226.281 180.108 225.428ZM187.722 218.688C187.122 218.688 186.628 218.514 186.242 218.168C185.868 217.808 185.682 217.368 185.682 216.848C185.682 216.314 185.868 215.874 186.242 215.528C186.628 215.168 187.122 214.988 187.722 214.988C188.308 214.988 188.788 215.168 189.162 215.528C189.548 215.874 189.742 216.314 189.742 216.848C189.742 217.368 189.548 217.808 189.162 218.168C188.788 218.514 188.308 218.688 187.722 218.688ZM189.422 219.848V231.008H186.002V219.848H189.422ZM196.44 231.168C195.467 231.168 194.6 231.001 193.84 230.668C193.08 230.334 192.48 229.881 192.04 229.308C191.6 228.721 191.353 228.068 191.3 227.348H194.68C194.72 227.734 194.9 228.048 195.22 228.288C195.54 228.528 195.933 228.648 196.4 228.648C196.827 228.648 197.153 228.568 197.38 228.408C197.62 228.234 197.74 228.014 197.74 227.748C197.74 227.428 197.573 227.194 197.24 227.048C196.907 226.888 196.367 226.714 195.62 226.528C194.82 226.341 194.153 226.148 193.62 225.948C193.087 225.734 192.627 225.408 192.24 224.968C191.853 224.514 191.66 223.908 191.66 223.148C191.66 222.508 191.833 221.928 192.18 221.408C192.54 220.874 193.06 220.454 193.74 220.148C194.433 219.841 195.253 219.688 196.2 219.688C197.6 219.688 198.7 220.034 199.5 220.728C200.313 221.421 200.78 222.341 200.9 223.488H197.74C197.687 223.101 197.513 222.794 197.22 222.568C196.94 222.341 196.567 222.228 196.1 222.228C195.7 222.228 195.393 222.308 195.18 222.468C194.967 222.614 194.86 222.821 194.86 223.088C194.86 223.408 195.027 223.648 195.36 223.808C195.707 223.968 196.24 224.128 196.96 224.288C197.787 224.501 198.46 224.714 198.98 224.928C199.5 225.128 199.953 225.461 200.34 225.928C200.74 226.381 200.947 226.994 200.96 227.768C200.96 228.421 200.773 229.008 200.4 229.528C200.04 230.034 199.513 230.434 198.82 230.728C198.14 231.021 197.347 231.168 196.44 231.168ZM202.373 225.428C202.373 224.268 202.606 223.254 203.073 222.388C203.553 221.521 204.213 220.854 205.053 220.388C205.906 219.921 206.879 219.688 207.973 219.688C209.373 219.688 210.539 220.054 211.473 220.788C212.419 221.521 213.039 222.554 213.333 223.888H209.693C209.386 223.034 208.793 222.608 207.913 222.608C207.286 222.608 206.786 222.854 206.413 223.348C206.039 223.828 205.853 224.521 205.853 225.428C205.853 226.334 206.039 227.034 206.413 227.528C206.786 228.008 207.286 228.248 207.913 228.248C208.793 228.248 209.386 227.821 209.693 226.968H213.333C213.039 228.274 212.419 229.301 211.473 230.048C210.526 230.794 209.359 231.168 207.973 231.168C206.879 231.168 205.906 230.934 205.053 230.468C204.213 230.001 203.553 229.334 203.073 228.468C202.606 227.601 202.373 226.588 202.373 225.428ZM220.242 231.168C219.149 231.168 218.162 230.934 217.282 230.468C216.415 230.001 215.729 229.334 215.222 228.468C214.729 227.601 214.482 226.588 214.482 225.428C214.482 224.281 214.735 223.274 215.242 222.408C215.749 221.528 216.442 220.854 217.322 220.388C218.202 219.921 219.189 219.688 220.282 219.688C221.375 219.688 222.362 219.921 223.242 220.388C224.122 220.854 224.815 221.528 225.322 222.408C225.829 223.274 226.082 224.281 226.082 225.428C226.082 226.574 225.822 227.588 225.302 228.468C224.795 229.334 224.095 230.001 223.202 230.468C222.322 230.934 221.335 231.168 220.242 231.168ZM220.242 228.208C220.895 228.208 221.449 227.968 221.902 227.488C222.369 227.008 222.602 226.321 222.602 225.428C222.602 224.534 222.375 223.848 221.922 223.368C221.482 222.888 220.935 222.648 220.282 222.648C219.615 222.648 219.062 222.888 218.622 223.368C218.182 223.834 217.962 224.521 217.962 225.428C217.962 226.321 218.175 227.008 218.602 227.488C219.042 227.968 219.589 228.208 220.242 228.208ZM238.916 219.848V231.008H235.496V229.488C235.15 229.981 234.676 230.381 234.076 230.688C233.49 230.981 232.836 231.128 232.116 231.128C231.263 231.128 230.51 230.941 229.856 230.568C229.203 230.181 228.696 229.628 228.336 228.908C227.976 228.188 227.796 227.341 227.796 226.368V219.848H231.196V225.908C231.196 226.654 231.39 227.234 231.776 227.648C232.163 228.061 232.683 228.268 233.336 228.268C234.003 228.268 234.53 228.061 234.916 227.648C235.303 227.234 235.496 226.654 235.496 225.908V219.848H238.916ZM248.173 219.728C249.479 219.728 250.519 220.154 251.293 221.008C252.079 221.848 252.473 223.008 252.473 224.488V231.008H249.073V224.948C249.073 224.201 248.879 223.621 248.493 223.208C248.106 222.794 247.586 222.588 246.933 222.588C246.279 222.588 245.759 222.794 245.373 223.208C244.986 223.621 244.793 224.201 244.793 224.948V231.008H241.373V219.848H244.793V221.328C245.139 220.834 245.606 220.448 246.193 220.168C246.779 219.874 247.439 219.728 248.173 219.728ZM261.069 228.108V231.008H259.329C258.089 231.008 257.123 230.708 256.429 230.108C255.736 229.494 255.389 228.501 255.389 227.128V222.688H254.029V219.848H255.389V217.128H258.809V219.848H261.049V222.688H258.809V227.168C258.809 227.501 258.889 227.741 259.049 227.888C259.209 228.034 259.476 228.108 259.849 228.108H261.069Z" fill="#483C09"/>
<path d="M251 190.448H335.787V191.448H251V190.448Z" fill="#483C09"/>
<path d="M179.63 253.25V251.794H182.542V262H180.932V253.25H179.63ZM184.735 256.764C184.735 255.149 185.005 253.889 185.547 252.984C186.097 252.069 187.04 251.612 188.375 251.612C189.709 251.612 190.647 252.069 191.189 252.984C191.739 253.889 192.015 255.149 192.015 256.764C192.015 258.397 191.739 259.676 191.189 260.6C190.647 261.515 189.709 261.972 188.375 261.972C187.04 261.972 186.097 261.515 185.547 260.6C185.005 259.676 184.735 258.397 184.735 256.764ZM190.447 256.764C190.447 256.008 190.395 255.369 190.293 254.846C190.199 254.323 190.003 253.899 189.705 253.572C189.406 253.236 188.963 253.068 188.375 253.068C187.787 253.068 187.343 253.236 187.045 253.572C186.746 253.899 186.545 254.323 186.443 254.846C186.349 255.369 186.303 256.008 186.303 256.764C186.303 257.548 186.349 258.206 186.443 258.738C186.536 259.27 186.732 259.699 187.031 260.026C187.339 260.353 187.787 260.516 188.375 260.516C188.963 260.516 189.406 260.353 189.705 260.026C190.013 259.699 190.213 259.27 190.307 258.738C190.4 258.206 190.447 257.548 190.447 256.764ZM193.703 256.764C193.703 255.149 193.974 253.889 194.515 252.984C195.066 252.069 196.009 251.612 197.343 251.612C198.678 251.612 199.616 252.069 200.157 252.984C200.708 253.889 200.983 255.149 200.983 256.764C200.983 258.397 200.708 259.676 200.157 260.6C199.616 261.515 198.678 261.972 197.343 261.972C196.009 261.972 195.066 261.515 194.515 260.6C193.974 259.676 193.703 258.397 193.703 256.764ZM199.415 256.764C199.415 256.008 199.364 255.369 199.261 254.846C199.168 254.323 198.972 253.899 198.673 253.572C198.375 253.236 197.931 253.068 197.343 253.068C196.755 253.068 196.312 253.236 196.013 253.572C195.715 253.899 195.514 254.323 195.411 254.846C195.318 255.369 195.271 256.008 195.271 256.764C195.271 257.548 195.318 258.206 195.411 258.738C195.505 259.27 195.701 259.699 195.999 260.026C196.307 260.353 196.755 260.516 197.343 260.516C197.931 260.516 198.375 260.353 198.673 260.026C198.981 259.699 199.182 259.27 199.275 258.738C199.369 258.206 199.415 257.548 199.415 256.764ZM202.42 254.258C202.42 253.577 202.616 253.045 203.008 252.662C203.409 252.27 203.923 252.074 204.548 252.074C205.173 252.074 205.682 252.27 206.074 252.662C206.475 253.045 206.676 253.577 206.676 254.258C206.676 254.939 206.475 255.476 206.074 255.868C205.682 256.26 205.173 256.456 204.548 256.456C203.923 256.456 203.409 256.26 203.008 255.868C202.616 255.476 202.42 254.939 202.42 254.258ZM210.96 252.256L205.374 262H203.806L209.392 252.256H210.96ZM204.548 253.04C203.96 253.04 203.666 253.446 203.666 254.258C203.666 255.079 203.96 255.49 204.548 255.49C204.828 255.49 205.043 255.392 205.192 255.196C205.351 254.991 205.43 254.678 205.43 254.258C205.43 253.446 205.136 253.04 204.548 253.04ZM208.118 259.984C208.118 259.303 208.314 258.771 208.706 258.388C209.107 257.996 209.621 257.8 210.246 257.8C210.862 257.8 211.366 257.996 211.758 258.388C212.159 258.771 212.36 259.303 212.36 259.984C212.36 260.665 212.159 261.202 211.758 261.594C211.366 261.986 210.862 262.182 210.246 262.182C209.621 262.182 209.107 261.986 208.706 261.594C208.314 261.202 208.118 260.665 208.118 259.984ZM210.232 258.766C209.644 258.766 209.35 259.172 209.35 259.984C209.35 260.796 209.644 261.202 210.232 261.202C210.82 261.202 211.114 260.796 211.114 259.984C211.114 259.172 210.82 258.766 210.232 258.766ZM219.23 252.27V262H217.634V252.27H219.23ZM225.217 254.16C225.824 254.16 226.365 254.286 226.841 254.538C227.327 254.79 227.705 255.163 227.975 255.658C228.246 256.153 228.381 256.75 228.381 257.45V262H226.799V257.688C226.799 256.997 226.627 256.47 226.281 256.106C225.936 255.733 225.465 255.546 224.867 255.546C224.27 255.546 223.794 255.733 223.439 256.106C223.094 256.47 222.921 256.997 222.921 257.688V262H221.325V254.286H222.921V255.168C223.183 254.851 223.514 254.603 223.915 254.426C224.326 254.249 224.76 254.16 225.217 254.16ZM233.217 262.126C232.611 262.126 232.065 262.019 231.579 261.804C231.103 261.58 230.725 261.281 230.445 260.908C230.165 260.525 230.016 260.101 229.997 259.634H231.649C231.677 259.961 231.831 260.236 232.111 260.46C232.401 260.675 232.76 260.782 233.189 260.782C233.637 260.782 233.983 260.698 234.225 260.53C234.477 260.353 234.603 260.129 234.603 259.858C234.603 259.569 234.463 259.354 234.183 259.214C233.913 259.074 233.479 258.92 232.881 258.752C232.303 258.593 231.831 258.439 231.467 258.29C231.103 258.141 230.786 257.912 230.515 257.604C230.254 257.296 230.123 256.89 230.123 256.386C230.123 255.975 230.245 255.602 230.487 255.266C230.73 254.921 231.075 254.65 231.523 254.454C231.981 254.258 232.503 254.16 233.091 254.16C233.969 254.16 234.673 254.384 235.205 254.832C235.747 255.271 236.036 255.873 236.073 256.638H234.477C234.449 256.293 234.309 256.017 234.057 255.812C233.805 255.607 233.465 255.504 233.035 255.504C232.615 255.504 232.293 255.583 232.069 255.742C231.845 255.901 231.733 256.111 231.733 256.372C231.733 256.577 231.808 256.75 231.957 256.89C232.107 257.03 232.289 257.142 232.503 257.226C232.718 257.301 233.035 257.399 233.455 257.52C234.015 257.669 234.473 257.823 234.827 257.982C235.191 258.131 235.504 258.355 235.765 258.654C236.027 258.953 236.162 259.349 236.171 259.844C236.171 260.283 236.05 260.675 235.807 261.02C235.565 261.365 235.219 261.636 234.771 261.832C234.333 262.028 233.815 262.126 233.217 262.126ZM244.882 254.286V262H243.286V261.09C243.034 261.407 242.702 261.659 242.292 261.846C241.89 262.023 241.461 262.112 241.004 262.112C240.397 262.112 239.851 261.986 239.366 261.734C238.89 261.482 238.512 261.109 238.232 260.614C237.961 260.119 237.826 259.522 237.826 258.822V254.286H239.408V258.584C239.408 259.275 239.58 259.807 239.926 260.18C240.271 260.544 240.742 260.726 241.34 260.726C241.937 260.726 242.408 260.544 242.754 260.18C243.108 259.807 243.286 259.275 243.286 258.584V254.286H244.882ZM248.584 255.406C248.817 255.014 249.125 254.711 249.508 254.496C249.9 254.272 250.362 254.16 250.894 254.16V255.812H250.488C249.862 255.812 249.386 255.971 249.06 256.288C248.742 256.605 248.584 257.156 248.584 257.94V262H246.988V254.286H248.584V255.406ZM259.431 257.954C259.431 258.243 259.412 258.505 259.375 258.738H253.481C253.527 259.354 253.756 259.849 254.167 260.222C254.577 260.595 255.081 260.782 255.679 260.782C256.537 260.782 257.144 260.423 257.499 259.704H259.221C258.987 260.413 258.563 260.997 257.947 261.454C257.34 261.902 256.584 262.126 255.679 262.126C254.941 262.126 254.279 261.963 253.691 261.636C253.112 261.3 252.655 260.833 252.319 260.236C251.992 259.629 251.829 258.929 251.829 258.136C251.829 257.343 251.987 256.647 252.305 256.05C252.631 255.443 253.084 254.977 253.663 254.65C254.251 254.323 254.923 254.16 255.679 254.16C256.407 254.16 257.055 254.319 257.625 254.636C258.194 254.953 258.637 255.401 258.955 255.98C259.272 256.549 259.431 257.207 259.431 257.954ZM257.765 257.45C257.755 256.862 257.545 256.391 257.135 256.036C256.724 255.681 256.215 255.504 255.609 255.504C255.058 255.504 254.587 255.681 254.195 256.036C253.803 256.381 253.569 256.853 253.495 257.45H257.765ZM260.469 258.108C260.469 257.333 260.628 256.647 260.945 256.05C261.272 255.453 261.711 254.991 262.261 254.664C262.821 254.328 263.442 254.16 264.123 254.16C264.627 254.16 265.122 254.272 265.607 254.496C266.102 254.711 266.494 255 266.783 255.364V251.64H268.393V262H266.783V260.838C266.522 261.211 266.158 261.519 265.691 261.762C265.234 262.005 264.707 262.126 264.109 262.126C263.437 262.126 262.821 261.958 262.261 261.622C261.711 261.277 261.272 260.801 260.945 260.194C260.628 259.578 260.469 258.883 260.469 258.108ZM266.783 258.136C266.783 257.604 266.671 257.142 266.447 256.75C266.233 256.358 265.948 256.059 265.593 255.854C265.239 255.649 264.856 255.546 264.445 255.546C264.035 255.546 263.652 255.649 263.297 255.854C262.943 256.05 262.653 256.344 262.429 256.736C262.215 257.119 262.107 257.576 262.107 258.108C262.107 258.64 262.215 259.107 262.429 259.508C262.653 259.909 262.943 260.217 263.297 260.432C263.661 260.637 264.044 260.74 264.445 260.74C264.856 260.74 265.239 260.637 265.593 260.432C265.948 260.227 266.233 259.928 266.447 259.536C266.671 259.135 266.783 258.668 266.783 258.136ZM280.412 252.27V253.572H277.822V262H276.226V253.572H273.622V252.27H280.412ZM283.625 255.406C283.858 255.014 284.166 254.711 284.549 254.496C284.941 254.272 285.403 254.16 285.935 254.16V255.812H285.529C284.903 255.812 284.427 255.971 284.101 256.288C283.783 256.605 283.625 257.156 283.625 257.94V262H282.029V254.286H283.625V255.406ZM288.214 253.264C287.924 253.264 287.682 253.166 287.486 252.97C287.29 252.774 287.192 252.531 287.192 252.242C287.192 251.953 287.29 251.71 287.486 251.514C287.682 251.318 287.924 251.22 288.214 251.22C288.494 251.22 288.732 251.318 288.928 251.514C289.124 251.71 289.222 251.953 289.222 252.242C289.222 252.531 289.124 252.774 288.928 252.97C288.732 253.166 288.494 253.264 288.214 253.264ZM288.998 254.286V262H287.402V254.286H288.998ZM292.689 255.42C292.96 255.065 293.328 254.767 293.795 254.524C294.262 254.281 294.789 254.16 295.377 254.16C296.049 254.16 296.66 254.328 297.211 254.664C297.771 254.991 298.21 255.453 298.527 256.05C298.844 256.647 299.003 257.333 299.003 258.108C299.003 258.883 298.844 259.578 298.527 260.194C298.21 260.801 297.771 261.277 297.211 261.622C296.66 261.958 296.049 262.126 295.377 262.126C294.789 262.126 294.266 262.009 293.809 261.776C293.352 261.533 292.978 261.235 292.689 260.88V265.668H291.093V254.286H292.689V255.42ZM297.379 258.108C297.379 257.576 297.267 257.119 297.043 256.736C296.828 256.344 296.539 256.05 296.175 255.854C295.82 255.649 295.438 255.546 295.027 255.546C294.626 255.546 294.243 255.649 293.879 255.854C293.524 256.059 293.235 256.358 293.011 256.75C292.796 257.142 292.689 257.604 292.689 258.136C292.689 258.668 292.796 259.135 293.011 259.536C293.235 259.928 293.524 260.227 293.879 260.432C294.243 260.637 294.626 260.74 295.027 260.74C295.438 260.74 295.82 260.637 296.175 260.432C296.539 260.217 296.828 259.909 297.043 259.508C297.267 259.107 297.379 258.64 297.379 258.108Z" fill="#483C09"/>
<g filter="url(#filter1_d)">
<rect x="28" y="14.0078" width="334" height="55" rx="8" fill="url(#paint1_linear)"/>
</g>
<path d="M105.36 36.0678V32.3878H111.52V47.0078H107.42V36.0678H105.36ZM124.154 35.8478H118.154V38.0678C118.408 37.8011 118.754 37.5878 119.194 37.4278C119.634 37.2678 120.121 37.1878 120.654 37.1878C121.614 37.1878 122.414 37.4078 123.054 37.8478C123.708 38.2878 124.188 38.8678 124.494 39.5878C124.801 40.3078 124.954 41.0945 124.954 41.9478C124.954 43.5211 124.508 44.7611 123.614 45.6678C122.721 46.5611 121.481 47.0078 119.894 47.0078C118.788 47.0078 117.828 46.8211 117.014 46.4478C116.214 46.0611 115.601 45.5278 115.174 44.8478C114.748 44.1678 114.528 43.3878 114.514 42.5078H118.334C118.374 42.8145 118.508 43.0811 118.734 43.3078C118.961 43.5345 119.294 43.6478 119.734 43.6478C120.201 43.6478 120.554 43.4878 120.794 43.1678C121.034 42.8478 121.154 42.4211 121.154 41.8878C121.154 41.3678 121.028 40.9745 120.774 40.7078C120.521 40.4278 120.154 40.2878 119.674 40.2878C119.314 40.2878 119.021 40.3811 118.794 40.5678C118.581 40.7411 118.454 40.9611 118.414 41.2278H114.594V32.3878H124.154V35.8478ZM135.62 38.4478V41.7078H126.56V38.4478H135.62ZM137.882 41.3878C137.882 40.2278 138.089 39.2145 138.502 38.3478C138.929 37.4811 139.509 36.8145 140.242 36.3478C140.976 35.8811 141.789 35.6478 142.682 35.6478C143.402 35.6478 144.042 35.8011 144.602 36.1078C145.176 36.4011 145.622 36.8078 145.942 37.3278V32.2078H149.882V47.0078H145.942V45.4478C145.636 45.9678 145.202 46.3811 144.642 46.6878C144.082 46.9945 143.422 47.1478 142.662 47.1478C141.769 47.1478 140.956 46.9145 140.222 46.4478C139.502 45.9811 138.929 45.3145 138.502 44.4478C138.089 43.5678 137.882 42.5478 137.882 41.3878ZM145.962 41.3878C145.962 40.6678 145.762 40.1011 145.362 39.6878C144.976 39.2745 144.496 39.0678 143.922 39.0678C143.336 39.0678 142.849 39.2745 142.462 39.6878C142.076 40.0878 141.882 40.6545 141.882 41.3878C141.882 42.1078 142.076 42.6811 142.462 43.1078C142.849 43.5211 143.336 43.7278 143.922 43.7278C144.496 43.7278 144.976 43.5211 145.362 43.1078C145.762 42.6945 145.962 42.1211 145.962 41.3878ZM151.476 41.3878C151.476 40.2278 151.683 39.2145 152.096 38.3478C152.523 37.4811 153.096 36.8145 153.816 36.3478C154.549 35.8811 155.363 35.6478 156.256 35.6478C157.029 35.6478 157.696 35.8011 158.256 36.1078C158.816 36.4145 159.249 36.8278 159.556 37.3478V35.7878H163.476V47.0078H159.556V45.4478C159.249 45.9678 158.809 46.3811 158.236 46.6878C157.676 46.9945 157.016 47.1478 156.256 47.1478C155.363 47.1478 154.549 46.9145 153.816 46.4478C153.096 45.9811 152.523 45.3145 152.096 44.4478C151.683 43.5678 151.476 42.5478 151.476 41.3878ZM159.556 41.3878C159.556 40.6678 159.356 40.1011 158.956 39.6878C158.569 39.2745 158.089 39.0678 157.516 39.0678C156.929 39.0678 156.443 39.2745 156.056 39.6878C155.669 40.0878 155.476 40.6545 155.476 41.3878C155.476 42.1078 155.669 42.6811 156.056 43.1078C156.443 43.5211 156.929 43.7278 157.516 43.7278C158.089 43.7278 158.569 43.5211 158.956 43.1078C159.356 42.6945 159.556 42.1211 159.556 41.3878ZM177.79 35.7878L170.67 52.3478H166.41L169.09 46.5278L164.49 35.7878H168.85L171.21 42.1478L173.49 35.7878H177.79ZM192.203 32.9078V36.0278H186.563V38.5078H190.723V41.4878H186.563V47.0078H182.643V32.9078H192.203ZM197.774 37.7678C198.214 37.1278 198.748 36.6211 199.374 36.2478C200.001 35.8745 200.674 35.6878 201.394 35.6878V39.8678H200.294C199.441 39.8678 198.808 40.0345 198.394 40.3678C197.981 40.7011 197.774 41.2811 197.774 42.1078V47.0078H193.854V35.7878H197.774V37.7678ZM213.52 41.2678C213.52 41.5745 213.5 41.8811 213.46 42.1878H206.04C206.08 42.8011 206.246 43.2611 206.54 43.5678C206.846 43.8611 207.233 44.0078 207.7 44.0078C208.353 44.0078 208.82 43.7145 209.1 43.1278H213.28C213.106 43.9011 212.766 44.5945 212.26 45.2078C211.766 45.8078 211.14 46.2811 210.38 46.6278C209.62 46.9745 208.78 47.1478 207.86 47.1478C206.753 47.1478 205.766 46.9145 204.9 46.4478C204.046 45.9811 203.373 45.3145 202.88 44.4478C202.4 43.5811 202.16 42.5611 202.16 41.3878C202.16 40.2145 202.4 39.2011 202.88 38.3478C203.36 37.4811 204.026 36.8145 204.88 36.3478C205.746 35.8811 206.74 35.6478 207.86 35.6478C208.966 35.6478 209.946 35.8745 210.8 36.3278C211.653 36.7811 212.32 37.4345 212.8 38.2878C213.28 39.1278 213.52 40.1211 213.52 41.2678ZM209.52 40.2878C209.52 39.8078 209.36 39.4345 209.04 39.1678C208.72 38.8878 208.32 38.7478 207.84 38.7478C207.36 38.7478 206.966 38.8811 206.66 39.1478C206.353 39.4011 206.153 39.7811 206.06 40.2878H209.52ZM225.844 41.2678C225.844 41.5745 225.824 41.8811 225.784 42.1878H218.364C218.404 42.8011 218.571 43.2611 218.864 43.5678C219.171 43.8611 219.557 44.0078 220.024 44.0078C220.677 44.0078 221.144 43.7145 221.424 43.1278H225.604C225.431 43.9011 225.091 44.5945 224.584 45.2078C224.091 45.8078 223.464 46.2811 222.704 46.6278C221.944 46.9745 221.104 47.1478 220.184 47.1478C219.077 47.1478 218.091 46.9145 217.224 46.4478C216.371 45.9811 215.697 45.3145 215.204 44.4478C214.724 43.5811 214.484 42.5611 214.484 41.3878C214.484 40.2145 214.724 39.2011 215.204 38.3478C215.684 37.4811 216.351 36.8145 217.204 36.3478C218.071 35.8811 219.064 35.6478 220.184 35.6478C221.291 35.6478 222.271 35.8745 223.124 36.3278C223.977 36.7811 224.644 37.4345 225.124 38.2878C225.604 39.1278 225.844 40.1211 225.844 41.2678ZM221.844 40.2878C221.844 39.8078 221.684 39.4345 221.364 39.1678C221.044 38.8878 220.644 38.7478 220.164 38.7478C219.684 38.7478 219.291 38.8811 218.984 39.1478C218.677 39.4011 218.477 39.7811 218.384 40.2878H221.844ZM241.896 32.9078V36.0278H238.136V47.0078H234.216V36.0278H230.496V32.9078H241.896ZM247.267 37.7678C247.707 37.1278 248.24 36.6211 248.867 36.2478C249.493 35.8745 250.167 35.6878 250.887 35.6878V39.8678H249.787C248.933 39.8678 248.3 40.0345 247.887 40.3678C247.473 40.7011 247.267 41.2811 247.267 42.1078V47.0078H243.347V35.7878H247.267V37.7678ZM254.272 34.7478C253.579 34.7478 253.019 34.5611 252.592 34.1878C252.179 33.8011 251.972 33.3211 251.972 32.7478C251.972 32.1611 252.179 31.6745 252.592 31.2878C253.019 30.9011 253.579 30.7078 254.272 30.7078C254.952 30.7078 255.499 30.9011 255.912 31.2878C256.339 31.6745 256.552 32.1611 256.552 32.7478C256.552 33.3211 256.339 33.8011 255.912 34.1878C255.499 34.5611 254.952 34.7478 254.272 34.7478ZM256.212 35.7878V47.0078H252.292V35.7878H256.212ZM257.804 41.3878C257.804 40.2278 258.011 39.2145 258.424 38.3478C258.851 37.4811 259.424 36.8145 260.144 36.3478C260.878 35.8811 261.691 35.6478 262.584 35.6478C263.358 35.6478 264.024 35.8011 264.584 36.1078C265.144 36.4145 265.578 36.8278 265.884 37.3478V35.7878H269.804V47.0078H265.884V45.4478C265.578 45.9678 265.138 46.3811 264.564 46.6878C264.004 46.9945 263.344 47.1478 262.584 47.1478C261.691 47.1478 260.878 46.9145 260.144 46.4478C259.424 45.9811 258.851 45.3145 258.424 44.4478C258.011 43.5678 257.804 42.5478 257.804 41.3878ZM265.884 41.3878C265.884 40.6678 265.684 40.1011 265.284 39.6878C264.898 39.2745 264.418 39.0678 263.844 39.0678C263.258 39.0678 262.771 39.2745 262.384 39.6878C261.998 40.0878 261.804 40.6545 261.804 41.3878C261.804 42.1078 261.998 42.6811 262.384 43.1078C262.771 43.5211 263.258 43.7278 263.844 43.7278C264.418 43.7278 264.898 43.5211 265.284 43.1078C265.684 42.6945 265.884 42.1211 265.884 41.3878ZM275.958 32.2078V47.0078H272.038V32.2078H275.958Z" fill="#483C09"/>
<path d="M57.463 118.359L60.2141 118.316C62.4002 118.283 64.3357 116.332 64.3687 114.129L64.4835 106.687C64.5005 105.586 64.091 104.557 63.33 103.79C62.569 103.024 61.5486 102.611 60.456 102.628L60.4374 102.628L60.4487 101.832L60.4693 101.832C62.6535 101.797 64.5894 99.8468 64.6234 97.6448L64.7388 90.2025C64.7738 87.9289 62.9671 86.1083 60.7109 86.1435L60.6907 86.1444L60.703 85.3436L60.7236 85.3433C62.9097 85.31 64.8452 83.3596 64.8782 81.1566L64.9925 73.7155C65.0095 72.6143 64.5996 71.5855 63.839 70.8191C63.0784 70.0526 62.0576 69.6396 60.9649 69.6567L58.2148 69.6988C57.1217 69.7154 56.0883 70.1602 55.3032 70.9513C54.5181 71.7425 54.0768 72.784 54.0602 73.8854L53.945 81.3277C53.9276 82.4301 54.3374 83.4588 55.098 84.2253C55.8586 84.9918 56.8794 85.4048 57.9738 85.3877L57.9893 85.3879L57.977 86.1869L57.9598 86.1865C56.8667 86.2033 55.8331 86.6479 55.048 87.4391C54.263 88.2301 53.8216 89.2719 53.8051 90.3732L53.69 97.8154C53.6729 98.9165 54.0819 99.9461 54.8429 100.713C55.604 101.48 56.6257 101.892 57.7178 101.874L57.736 101.874L57.7238 102.671L57.7055 102.671C56.6124 102.688 55.5789 103.133 54.7938 103.924C54.0087 104.715 53.5674 105.757 53.5509 106.858L53.4357 114.3C53.4186 115.401 53.8284 116.43 54.589 117.197C55.3501 117.963 56.3709 118.377 57.463 118.359ZM58.0156 82.6527C57.6519 82.6584 57.2991 82.5157 57.0468 82.2614C56.7945 82.0072 56.6529 81.6517 56.6586 81.2851L56.7738 73.843C56.786 73.1112 57.4465 72.4457 58.1727 72.4333L60.9228 72.3913C61.6823 72.3798 62.2901 72.9924 62.2788 73.7577L62.1646 81.1991C62.1593 81.5697 62.0105 81.9203 61.7459 82.1869C61.4814 82.4534 61.1336 82.6034 60.7653 82.6082L60.7446 82.6085L60.7582 81.7285C60.7697 80.973 60.1715 80.3701 59.4224 80.3824C59.0476 80.3883 58.706 80.5466 58.4567 80.7977C58.2074 81.049 58.0504 81.3932 58.0445 81.771L58.0311 82.6529L58.0156 82.6527ZM57.7594 99.1395C57.3921 99.1453 57.0476 99.0071 56.7917 98.7491C56.5352 98.4907 56.3981 98.1436 56.4033 97.7729L56.5186 90.3308C56.5309 89.5989 57.1912 88.9335 57.9175 88.9211L57.9348 88.9214L57.9217 89.8C57.9101 90.5554 58.5083 91.1582 59.2574 91.146C60.0071 91.1343 60.6236 90.5129 60.6352 89.7576L60.6483 88.8789L60.6686 88.8781C61.428 88.8667 62.0364 89.4797 62.0251 90.2451L61.9094 97.6868C61.9041 98.0576 61.7553 98.408 61.4908 98.6746C61.2262 98.9412 60.8782 99.0912 60.511 99.097L60.4917 99.0968L60.5049 98.2144C60.5165 97.4589 59.9187 96.8566 59.1692 96.8684C58.7945 96.8742 58.4528 97.0324 58.2035 97.2837C57.9541 97.535 57.7972 97.8793 57.7913 98.2569L57.7781 99.1392L57.7594 99.1395ZM56.1491 114.258L56.2644 106.816C56.2749 106.075 56.9278 105.417 57.6633 105.406L57.6815 105.405L57.6675 106.287C57.656 107.042 58.2537 107.645 59.0032 107.633C59.7529 107.621 60.3694 107 60.3812 106.244L60.3951 105.363L60.414 105.363C60.7813 105.357 61.1247 105.496 61.3812 105.754C61.6377 106.013 61.7757 106.359 61.77 106.729L61.6552 114.172C61.649 114.538 61.4964 114.898 61.2366 115.16C60.9768 115.421 60.6193 115.575 60.2564 115.581L57.5048 115.624C57.1374 115.63 56.7939 115.491 56.5379 115.233C56.2818 114.975 56.1439 114.628 56.1491 114.258Z" fill="#CCCCCC"/>
<path d="M328.584 118.998L331.386 118.954C333.612 118.92 335.583 116.934 335.617 114.69L335.734 107.111C335.751 105.99 335.334 104.943 334.559 104.162C333.784 103.381 332.745 102.961 331.632 102.978L331.613 102.978L331.625 102.168L331.646 102.167C333.87 102.132 335.842 100.146 335.876 97.9035L335.994 90.3246C336.029 88.0092 334.189 86.1552 331.892 86.1911L331.871 86.192L331.884 85.3766L331.905 85.3762C334.131 85.3424 336.102 83.3561 336.136 81.1127L336.252 73.5351C336.269 72.4137 335.852 71.366 335.077 70.5855C334.303 69.805 333.263 69.3844 332.151 69.4018L329.35 69.4446C328.237 69.4616 327.184 69.9145 326.385 70.7202C325.585 71.5258 325.136 72.5865 325.119 73.7081L325.002 81.287C324.984 82.4096 325.401 83.4572 326.176 84.2377C326.95 85.0182 327.99 85.4388 329.105 85.4214L329.12 85.4217L329.108 86.2353L329.09 86.2349C327.977 86.252 326.925 86.7048 326.125 87.5105C325.326 88.316 324.876 89.3769 324.859 90.4984L324.742 98.0772C324.725 99.1985 325.141 100.247 325.916 101.028C326.691 101.809 327.732 102.229 328.844 102.211L328.862 102.21L328.85 103.022L328.831 103.022C327.718 103.039 326.666 103.492 325.866 104.298C325.067 105.103 324.617 106.164 324.6 107.286L324.483 114.865C324.466 115.986 324.883 117.033 325.658 117.814C326.433 118.595 327.472 119.016 328.584 118.998ZM329.147 82.6362C328.777 82.642 328.417 82.4967 328.16 82.2378C327.904 81.9789 327.759 81.6168 327.765 81.2436L327.883 73.6649C327.895 72.9197 328.567 72.2419 329.307 72.2294L332.108 72.1866C332.881 72.1749 333.5 72.7987 333.489 73.5781L333.372 81.156C333.367 81.5334 333.215 81.8904 332.946 82.1619C332.676 82.4333 332.322 82.586 331.947 82.5909L331.926 82.5913L331.94 81.6951C331.952 80.9257 331.343 80.3118 330.58 80.3243C330.198 80.3303 329.85 80.4915 329.596 80.7473C329.342 81.0032 329.183 81.3537 329.177 81.7384L329.163 82.6365L329.147 82.6362ZM328.886 99.4256C328.512 99.4315 328.161 99.2907 327.901 99.028C327.64 98.7648 327.5 98.4114 327.505 98.0339L327.623 90.4552C327.635 89.7099 328.308 89.0323 329.047 89.0197L329.065 89.0199L329.052 89.9147C329.04 90.684 329.649 91.2979 330.412 91.2854C331.175 91.2734 331.803 90.6407 331.815 89.8715L331.828 88.9767L331.849 88.9759C332.622 88.9642 333.242 89.5885 333.23 90.3679L333.112 97.9462C333.107 98.3238 332.955 98.6807 332.686 98.9522C332.417 99.2237 332.062 99.3764 331.688 99.3823L331.669 99.3821L331.682 98.4835C331.694 97.7141 331.085 97.1007 330.322 97.1128C329.94 97.1187 329.592 97.2799 329.338 97.5357C329.084 97.7916 328.925 98.1422 328.919 98.5268L328.905 99.4252L328.886 99.4256ZM327.246 114.821L327.364 107.243C327.374 106.488 328.039 105.818 328.788 105.807L328.807 105.806L328.793 106.704C328.781 107.473 329.39 108.087 330.153 108.075C330.916 108.063 331.544 107.43 331.556 106.661L331.57 105.763L331.589 105.763C331.964 105.757 332.313 105.899 332.574 106.162C332.836 106.425 332.976 106.777 332.97 107.154L332.853 114.734C332.847 115.106 332.692 115.473 332.427 115.74C332.163 116.006 331.799 116.163 331.429 116.169L328.627 116.213C328.253 116.218 327.903 116.077 327.642 115.814C327.382 115.551 327.241 115.199 327.246 114.821Z" fill="#CCCCCC"/>
<path d="M326.5 31.0078L328.408 36.5357H334.584L329.588 39.9521L331.496 45.4799L326.5 42.0635L321.504 45.4799L323.412 39.9521L318.416 36.5357H324.592L326.5 31.0078Z" fill="url(#paint2_linear)"/>
<path d="M69.5 31.0078L71.4084 36.5357H77.584L72.5878 39.9521L74.4962 45.4799L69.5 42.0635L64.5038 45.4799L66.4122 39.9521L61.416 36.5357H67.5916L69.5 31.0078Z" fill="url(#paint3_linear)"/>
<path d="M57.936 260.712H61.226V262H56.34V252.27H57.936V260.712ZM63.3727 253.264C63.0834 253.264 62.8407 253.166 62.6447 252.97C62.4487 252.774 62.3507 252.531 62.3507 252.242C62.3507 251.953 62.4487 251.71 62.6447 251.514C62.8407 251.318 63.0834 251.22 63.3727 251.22C63.6527 251.22 63.8907 251.318 64.0867 251.514C64.2827 251.71 64.3807 251.953 64.3807 252.242C64.3807 252.531 64.2827 252.774 64.0867 252.97C63.8907 253.166 63.6527 253.264 63.3727 253.264ZM64.1567 254.286V262H62.5607V254.286H64.1567ZM75.5901 254.16C76.1968 254.16 76.7381 254.286 77.2141 254.538C77.6995 254.79 78.0775 255.163 78.3481 255.658C78.6281 256.153 78.7681 256.75 78.7681 257.45V262H77.1861V257.688C77.1861 256.997 77.0135 256.47 76.6681 256.106C76.3228 255.733 75.8515 255.546 75.2541 255.546C74.6568 255.546 74.1808 255.733 73.8261 256.106C73.4808 256.47 73.3081 256.997 73.3081 257.688V262H71.7261V257.688C71.7261 256.997 71.5535 256.47 71.2081 256.106C70.8628 255.733 70.3915 255.546 69.7941 255.546C69.1968 255.546 68.7208 255.733 68.3661 256.106C68.0208 256.47 67.8481 256.997 67.8481 257.688V262H66.2521V254.286H67.8481V255.168C68.1095 254.851 68.4408 254.603 68.8421 254.426C69.2435 254.249 69.6728 254.16 70.1301 254.16C70.7461 254.16 71.2968 254.291 71.7821 254.552C72.2675 254.813 72.6408 255.191 72.9021 255.686C73.1355 255.219 73.4995 254.851 73.9941 254.58C74.4888 254.3 75.0208 254.16 75.5901 254.16ZM81.611 253.264C81.3217 253.264 81.079 253.166 80.883 252.97C80.687 252.774 80.589 252.531 80.589 252.242C80.589 251.953 80.687 251.71 80.883 251.514C81.079 251.318 81.3217 251.22 81.611 251.22C81.891 251.22 82.129 251.318 82.325 251.514C82.521 251.71 82.619 251.953 82.619 252.242C82.619 252.531 82.521 252.774 82.325 252.97C82.129 253.166 81.891 253.264 81.611 253.264ZM82.395 254.286V262H80.799V254.286H82.395ZM86.3524 255.588V259.858C86.3524 260.147 86.4178 260.357 86.5484 260.488C86.6884 260.609 86.9218 260.67 87.2484 260.67H88.2284V262H86.9684C86.2498 262 85.6991 261.832 85.3164 261.496C84.9338 261.16 84.7424 260.614 84.7424 259.858V255.588H83.8324V254.286H84.7424V252.368H86.3524V254.286H88.2284V255.588H86.3524ZM96.7694 257.954C96.7694 258.243 96.7507 258.505 96.7134 258.738H90.8194C90.8661 259.354 91.0947 259.849 91.5054 260.222C91.9161 260.595 92.4201 260.782 93.0174 260.782C93.8761 260.782 94.4827 260.423 94.8374 259.704H96.5594C96.3261 260.413 95.9014 260.997 95.2854 261.454C94.6787 261.902 93.9227 262.126 93.0174 262.126C92.2801 262.126 91.6174 261.963 91.0294 261.636C90.4507 261.3 89.9934 260.833 89.6574 260.236C89.3307 259.629 89.1674 258.929 89.1674 258.136C89.1674 257.343 89.3261 256.647 89.6434 256.05C89.9701 255.443 90.4227 254.977 91.0014 254.65C91.5894 254.323 92.2614 254.16 93.0174 254.16C93.7454 254.16 94.3941 254.319 94.9634 254.636C95.5327 254.953 95.9761 255.401 96.2934 255.98C96.6107 256.549 96.7694 257.207 96.7694 257.954ZM95.1034 257.45C95.0941 256.862 94.8841 256.391 94.4734 256.036C94.0627 255.681 93.5541 255.504 92.9474 255.504C92.3967 255.504 91.9254 255.681 91.5334 256.036C91.1414 256.381 90.9081 256.853 90.8334 257.45H95.1034ZM97.808 258.108C97.808 257.333 97.9667 256.647 98.284 256.05C98.6107 255.453 99.0494 254.991 99.6 254.664C100.16 254.328 100.781 254.16 101.462 254.16C101.966 254.16 102.461 254.272 102.946 254.496C103.441 254.711 103.833 255 104.122 255.364V251.64H105.732V262H104.122V260.838C103.861 261.211 103.497 261.519 103.03 261.762C102.573 262.005 102.045 262.126 101.448 262.126C100.776 262.126 100.16 261.958 99.6 261.622C99.0494 261.277 98.6107 260.801 98.284 260.194C97.9667 259.578 97.808 258.883 97.808 258.108ZM104.122 258.136C104.122 257.604 104.01 257.142 103.786 256.75C103.571 256.358 103.287 256.059 102.932 255.854C102.577 255.649 102.195 255.546 101.784 255.546C101.373 255.546 100.991 255.649 100.636 255.854C100.281 256.05 99.992 256.344 99.768 256.736C99.5534 257.119 99.446 257.576 99.446 258.108C99.446 258.64 99.5534 259.107 99.768 259.508C99.992 259.909 100.281 260.217 100.636 260.432C101 260.637 101.383 260.74 101.784 260.74C102.195 260.74 102.577 260.637 102.932 260.432C103.287 260.227 103.571 259.928 103.786 259.536C104.01 259.135 104.122 258.668 104.122 258.136ZM114.265 262.126C113.658 262.126 113.112 262.019 112.627 261.804C112.151 261.58 111.773 261.281 111.493 260.908C111.213 260.525 111.064 260.101 111.045 259.634H112.697C112.725 259.961 112.879 260.236 113.159 260.46C113.448 260.675 113.808 260.782 114.237 260.782C114.685 260.782 115.03 260.698 115.273 260.53C115.525 260.353 115.651 260.129 115.651 259.858C115.651 259.569 115.511 259.354 115.231 259.214C114.96 259.074 114.526 258.92 113.929 258.752C113.35 258.593 112.879 258.439 112.515 258.29C112.151 258.141 111.834 257.912 111.563 257.604C111.302 257.296 111.171 256.89 111.171 256.386C111.171 255.975 111.292 255.602 111.535 255.266C111.778 254.921 112.123 254.65 112.571 254.454C113.028 254.258 113.551 254.16 114.139 254.16C115.016 254.16 115.721 254.384 116.253 254.832C116.794 255.271 117.084 255.873 117.121 256.638H115.525C115.497 256.293 115.357 256.017 115.105 255.812C114.853 255.607 114.512 255.504 114.083 255.504C113.663 255.504 113.341 255.583 113.117 255.742C112.893 255.901 112.781 256.111 112.781 256.372C112.781 256.577 112.856 256.75 113.005 256.89C113.154 257.03 113.336 257.142 113.551 257.226C113.766 257.301 114.083 257.399 114.503 257.52C115.063 257.669 115.52 257.823 115.875 257.982C116.239 258.131 116.552 258.355 116.813 258.654C117.074 258.953 117.21 259.349 117.219 259.844C117.219 260.283 117.098 260.675 116.855 261.02C116.612 261.365 116.267 261.636 115.819 261.832C115.38 262.028 114.862 262.126 114.265 262.126ZM126.014 257.954C126.014 258.243 125.995 258.505 125.958 258.738H120.064C120.11 259.354 120.339 259.849 120.75 260.222C121.16 260.595 121.664 260.782 122.262 260.782C123.12 260.782 123.727 260.423 124.082 259.704H125.804C125.57 260.413 125.146 260.997 124.53 261.454C123.923 261.902 123.167 262.126 122.262 262.126C121.524 262.126 120.862 261.963 120.274 261.636C119.695 261.3 119.238 260.833 118.902 260.236C118.575 259.629 118.412 258.929 118.412 258.136C118.412 257.343 118.57 256.647 118.888 256.05C119.214 255.443 119.667 254.977 120.246 254.65C120.834 254.323 121.506 254.16 122.262 254.16C122.99 254.16 123.638 254.319 124.208 254.636C124.777 254.953 125.22 255.401 125.538 255.98C125.855 256.549 126.014 257.207 126.014 257.954ZM124.348 257.45C124.338 256.862 124.128 256.391 123.718 256.036C123.307 255.681 122.798 255.504 122.192 255.504C121.641 255.504 121.17 255.681 120.778 256.036C120.386 256.381 120.152 256.853 120.078 257.45H124.348ZM127.052 258.108C127.052 257.333 127.211 256.647 127.528 256.05C127.855 255.453 128.294 254.991 128.844 254.664C129.404 254.328 130.02 254.16 130.692 254.16C131.299 254.16 131.826 254.281 132.274 254.524C132.732 254.757 133.096 255.051 133.366 255.406V254.286H134.976V262H133.366V260.852C133.096 261.216 132.727 261.519 132.26 261.762C131.794 262.005 131.262 262.126 130.664 262.126C130.002 262.126 129.395 261.958 128.844 261.622C128.294 261.277 127.855 260.801 127.528 260.194C127.211 259.578 127.052 258.883 127.052 258.108ZM133.366 258.136C133.366 257.604 133.254 257.142 133.03 256.75C132.816 256.358 132.531 256.059 132.176 255.854C131.822 255.649 131.439 255.546 131.028 255.546C130.618 255.546 130.235 255.649 129.88 255.854C129.526 256.05 129.236 256.344 129.012 256.736C128.798 257.119 128.69 257.576 128.69 258.108C128.69 258.64 128.798 259.107 129.012 259.508C129.236 259.909 129.526 260.217 129.88 260.432C130.244 260.637 130.627 260.74 131.028 260.74C131.439 260.74 131.822 260.637 132.176 260.432C132.531 260.227 132.816 259.928 133.03 259.536C133.254 259.135 133.366 258.668 133.366 258.136ZM138.934 255.588V259.858C138.934 260.147 139 260.357 139.13 260.488C139.27 260.609 139.504 260.67 139.83 260.67H140.81V262H139.55C138.832 262 138.281 261.832 137.898 261.496C137.516 261.16 137.324 260.614 137.324 259.858V255.588H136.414V254.286H137.324V252.368H138.934V254.286H140.81V255.588H138.934ZM145.081 262.126C144.475 262.126 143.929 262.019 143.443 261.804C142.967 261.58 142.589 261.281 142.309 260.908C142.029 260.525 141.88 260.101 141.861 259.634H143.513C143.541 259.961 143.695 260.236 143.975 260.46C144.265 260.675 144.624 260.782 145.053 260.782C145.501 260.782 145.847 260.698 146.089 260.53C146.341 260.353 146.467 260.129 146.467 259.858C146.467 259.569 146.327 259.354 146.047 259.214C145.777 259.074 145.343 258.92 144.745 258.752C144.167 258.593 143.695 258.439 143.331 258.29C142.967 258.141 142.65 257.912 142.379 257.604C142.118 257.296 141.987 256.89 141.987 256.386C141.987 255.975 142.109 255.602 142.351 255.266C142.594 254.921 142.939 254.65 143.387 254.454C143.845 254.258 144.367 254.16 144.955 254.16C145.833 254.16 146.537 254.384 147.069 254.832C147.611 255.271 147.9 255.873 147.937 256.638H146.341C146.313 256.293 146.173 256.017 145.921 255.812C145.669 255.607 145.329 255.504 144.899 255.504C144.479 255.504 144.157 255.583 143.933 255.742C143.709 255.901 143.597 256.111 143.597 256.372C143.597 256.577 143.672 256.75 143.821 256.89C143.971 257.03 144.153 257.142 144.367 257.226C144.582 257.301 144.899 257.399 145.319 257.52C145.879 257.669 146.337 257.823 146.691 257.982C147.055 258.131 147.368 258.355 147.629 258.654C147.891 258.953 148.026 259.349 148.035 259.844C148.035 260.283 147.914 260.675 147.671 261.02C147.429 261.365 147.083 261.636 146.635 261.832C146.197 262.028 145.679 262.126 145.081 262.126Z" fill="#483C09"/>
<circle cx="44" cy="257" r="4" fill="#483C09"/>
<circle cx="169" cy="258" r="4" fill="#483C09"/>
<defs>
<filter id="filter0_d" x="0" y="102.008" width="390" height="200" filterUnits="userSpaceOnUse" color-interpolation-filters="sRGB">
<feFlood flood-opacity="0" result="BackgroundImageFix"/>
<feColorMatrix in="SourceAlpha" type="matrix" values="0 0 0 0 0 0 0 0 0 0 0 0 0 0 0 0 0 0 127 0" result="hardAlpha"/>
<feOffset dy="1"/>
<feGaussianBlur stdDeviation="8"/>
<feColorMatrix type="matrix" values="0 0 0 0 0.0583333 0 0 0 0 0.0583333 0 0 0 0 0.0583333 0 0 0 0.25 0"/>
<feBlend mode="normal" in2="BackgroundImageFix" result="effect1_dropShadow"/>
<feBlend mode="normal" in="SourceGraphic" in2="effect1_dropShadow" result="shape"/>
</filter>
<filter id="filter1_d" x="14" y="0.0078125" width="366" height="87" filterUnits="userSpaceOnUse" color-interpolation-filters="sRGB">
<feFlood flood-opacity="0" result="BackgroundImageFix"/>
<feColorMatrix in="SourceAlpha" type="matrix" values="0 0 0 0 0 0 0 0 0 0 0 0 0 0 0 0 0 0 127 0" result="hardAlpha"/>
<feOffset dx="2" dy="2"/>
<feGaussianBlur stdDeviation="8"/>
<feColorMatrix type="matrix" values="0 0 0 0 0 0 0 0 0 0 0 0 0 0 0 0 0 0 0.25 0"/>
<feBlend mode="normal" in2="BackgroundImageFix" result="effect1_dropShadow"/>
<feBlend mode="normal" in="SourceGraphic" in2="effect1_dropShadow" result="shape"/>
</filter>
<linearGradient id="paint0_linear" x1="29" y1="274.438" x2="374.422" y2="152.072" gradientUnits="userSpaceOnUse">
<stop stop-color="#FFE772"/>
<stop offset="1" stop-color="#F2E041"/>
</linearGradient>
<linearGradient id="paint1_linear" x1="362" y1="42.0077" x2="32" y2="39.0078" gradientUnits="userSpaceOnUse">
<stop offset="0.178064" stop-color="#FFE243"/>
<stop offset="1" stop-color="#FFE56A"/>
</linearGradient>
<linearGradient id="paint2_linear" x1="326.5" y1="31.0078" x2="326.5" y2="47.0078" gradientUnits="userSpaceOnUse">
<stop stop-color="#003563"/>
<stop offset="1" stop-color="#B8BEC2"/>
</linearGradient>
<linearGradient id="paint3_linear" x1="69.5" y1="31.0078" x2="69.5" y2="47.0078" gradientUnits="userSpaceOnUse">
<stop stop-color="#003563"/>
<stop offset="1" stop-color="#B8BEC2"/>
</linearGradient>
</defs>
</svg>
