<svg width="43" height="41" viewBox="0 0 43 41" fill="none" xmlns="http://www.w3.org/2000/svg">
<path d="M36.0946 12.898L36.0946 12.898L41.0782 10.5352C41.0785 10.5351 41.0787 10.535 41.0789 10.5349C41.3299 10.4171 41.6056 10.5305 41.7019 10.7133L42.4096 10.3401L41.7019 10.7133C41.7857 10.8721 41.7373 11.0949 41.5094 11.2029L41.5094 11.2029L36.526 13.5655C36.5257 13.5657 36.5255 13.5658 36.5252 13.5659C36.2725 13.6844 35.9996 13.5715 35.9018 13.3872C35.8184 13.2284 35.8668 13.0059 36.0946 12.898Z" stroke="#FFE772" stroke-opacity="0.9" stroke-width="1.6"/>
<path d="M35.1944 22.1532L35.9017 22.527C35.9997 22.3416 36.2738 22.2298 36.5248 22.348C36.525 22.348 36.5251 22.3481 36.5252 22.3482L41.5094 24.7108L41.5095 24.7108C41.7372 24.8188 41.7855 25.0412 41.7021 25.1997C41.6046 25.3835 41.3318 25.497 41.0787 25.3783C41.0785 25.3782 41.0782 25.3781 41.078 25.378L36.0945 23.0158L36.0945 23.0158C35.8666 22.9077 35.8184 22.685 35.902 22.5264L35.1944 22.1532ZM35.1944 22.1532C34.8865 22.7371 35.136 23.4467 35.7519 23.7387L36.8668 21.6248C36.2509 21.334 35.5036 21.5682 35.1944 22.1532Z" stroke="#FFE772" stroke-opacity="0.9" stroke-width="1.6"/>
<path d="M9.17076 19.2182V20.0182H9.97076H28.6658C30.3266 20.0182 31.6048 21.2897 31.6048 22.7627V36.941C31.6048 38.414 30.3266 39.6856 28.6658 39.6856H3.73898C2.07828 39.6856 0.8 38.414 0.8 36.941V22.7627C0.8 21.6067 1.58763 20.5863 2.74892 20.1937L3.29271 20.0098V19.4358V13.153C3.29271 6.46814 9.04393 0.95625 16.2025 0.95625C23.361 0.95625 29.1122 6.46814 29.1122 13.153V15.5161C29.1122 15.6876 28.9537 15.8976 28.6658 15.8976H23.6805C23.3926 15.8976 23.2341 15.6876 23.2341 15.5161V13.153C23.2341 9.4142 20.0394 6.4454 16.2025 6.4454C12.3655 6.4454 9.17076 9.41412 9.17076 13.153V19.2182ZM18.2488 34.5779V31.3507C19.7042 30.6438 20.7414 29.2028 20.7414 27.4889C20.7414 25.0528 18.6653 23.1442 16.2025 23.1442C13.7396 23.1442 11.6634 25.0527 11.6634 27.4889C11.6634 29.2027 12.7007 30.6438 14.1561 31.3507V34.5779C14.1561 35.7126 15.1125 36.5595 16.2025 36.5595C17.2924 36.5595 18.2488 35.7126 18.2488 34.5779Z" stroke="#FFE772" stroke-opacity="0.9" stroke-width="1.6"/>
<path d="M36.3089 17.5734H41.2942C41.5821 17.5734 41.7405 17.7835 41.7405 17.9549C41.7405 18.1263 41.5821 18.3364 41.2942 18.3364H36.3089C36.0209 18.3364 35.8625 18.1263 35.8625 17.9549C35.8625 17.7835 36.0209 17.5734 36.3089 17.5734Z" stroke="#FFE772" stroke-opacity="0.9" stroke-width="1.6"/>
</svg>
