<svg width="249" height="119" viewBox="0 0 249 119" fill="none" xmlns="http://www.w3.org/2000/svg">
<path d="M248 1C244.532 20.92 228.169 59.6999 190.461 55.4399C143.326 50.1299 179.42 0.99999 206.385 25.24C226.812 43.61 221.558 71.61 209.358 89.05C190.461 116.06 108.505 137.75 55 89.05" stroke="white" stroke-dasharray="5 5"/>
<path d="M7.61731 68.66L4.80932 66.29L6.54832 49.02C4.20432 47.19 2.44332 45.82 1.78032 45.29C-1.26588 42.83 0.764318 40.29 0.764318 40.29C0.764318 40.29 2.94431 37.8599 5.86731 40.4499C6.49831 41.0099 8.11932 42.5 10.2703 44.48L27.1643 39.86L29.9793 42.24L16.2773 50C20.9203 54.29 26.0513 59.03 29.3883 62.13L35.2513 59.8199L38.2433 61.3101L33.0123 65.48L31.9923 66.6899L30.9723 67.9L27.7243 73.75L25.7443 71.04L27.0563 64.88C23.4533 62.1 17.9483 57.84 12.9583 53.98L7.61731 68.66Z" fill="white"/>
</svg>
