<svg width="1170" height="233" viewBox="0 0 1170 233" fill="none" xmlns="http://www.w3.org/2000/svg">
<path d="M115 85.9697L977 85.9697" stroke="#F37021" stroke-dasharray="8 8"/>
<path d="M35.994 168.926C35.994 167.158 36.3926 165.572 37.19 164.168C37.9873 162.747 39.0706 161.637 40.44 160.84C41.8266 160.043 43.3606 159.644 45.042 159.644C47.018 159.644 48.7426 160.121 50.216 161.074C51.6893 162.027 52.764 163.379 53.44 165.13H50.606C50.1033 164.038 49.3753 163.197 48.422 162.608C47.486 162.019 46.3593 161.724 45.042 161.724C43.7766 161.724 42.6413 162.019 41.636 162.608C40.6306 163.197 39.842 164.038 39.27 165.13C38.698 166.205 38.412 167.47 38.412 168.926C38.412 170.365 38.698 171.63 39.27 172.722C39.842 173.797 40.6306 174.629 41.636 175.218C42.6413 175.807 43.7766 176.102 45.042 176.102C46.3593 176.102 47.486 175.816 48.422 175.244C49.3753 174.655 50.1033 173.814 50.606 172.722H53.44C52.764 174.455 51.6893 175.799 50.216 176.752C48.7426 177.688 47.018 178.156 45.042 178.156C43.3606 178.156 41.8266 177.766 40.44 176.986C39.0706 176.189 37.9873 175.088 37.19 173.684C36.3926 172.28 35.994 170.694 35.994 168.926ZM59.328 158.76V178H56.962V158.76H59.328ZM64.5824 161.438C64.1317 161.438 63.7504 161.282 63.4384 160.97C63.1264 160.658 62.9704 160.277 62.9704 159.826C62.9704 159.375 63.1264 158.994 63.4384 158.682C63.7504 158.37 64.1317 158.214 64.5824 158.214C65.0157 158.214 65.3797 158.37 65.6744 158.682C65.9864 158.994 66.1424 159.375 66.1424 159.826C66.1424 160.277 65.9864 160.658 65.6744 160.97C65.3797 161.282 65.0157 161.438 64.5824 161.438ZM65.7264 163.752V178H63.3604V163.752H65.7264ZM68.8748 170.85C68.8748 169.377 69.1695 168.094 69.7588 167.002C70.3482 165.893 71.1628 165.035 72.2028 164.428C73.2602 163.821 74.4648 163.518 75.8168 163.518C77.5675 163.518 79.0062 163.943 80.1328 164.792C81.2768 165.641 82.0308 166.82 82.3948 168.328H79.8468C79.6042 167.461 79.1275 166.777 78.4168 166.274C77.7235 165.771 76.8568 165.52 75.8168 165.52C74.4648 165.52 73.3728 165.988 72.5408 166.924C71.7088 167.843 71.2928 169.151 71.2928 170.85C71.2928 172.566 71.7088 173.892 72.5408 174.828C73.3728 175.764 74.4648 176.232 75.8168 176.232C76.8568 176.232 77.7235 175.989 78.4168 175.504C79.1102 175.019 79.5868 174.325 79.8468 173.424H82.3948C82.0135 174.88 81.2508 176.05 80.1068 176.934C78.9628 177.801 77.5328 178.234 75.8168 178.234C74.4648 178.234 73.2602 177.931 72.2028 177.324C71.1628 176.717 70.3482 175.859 69.7588 174.75C69.1695 173.641 68.8748 172.341 68.8748 170.85ZM93.5078 178L87.9178 171.708V178H85.5518V158.76H87.9178V170.07L93.4038 163.752H96.7058L89.9978 170.85L96.7318 178H93.5078ZM112.078 178.234C110.744 178.234 109.53 177.931 108.438 177.324C107.364 176.717 106.514 175.859 105.89 174.75C105.284 173.623 104.98 172.323 104.98 170.85C104.98 169.394 105.292 168.111 105.916 167.002C106.558 165.875 107.424 165.017 108.516 164.428C109.608 163.821 110.83 163.518 112.182 163.518C113.534 163.518 114.756 163.821 115.848 164.428C116.94 165.017 117.798 165.867 118.422 166.976C119.064 168.085 119.384 169.377 119.384 170.85C119.384 172.323 119.055 173.623 118.396 174.75C117.755 175.859 116.88 176.717 115.77 177.324C114.661 177.931 113.43 178.234 112.078 178.234ZM112.078 176.154C112.928 176.154 113.725 175.955 114.47 175.556C115.216 175.157 115.814 174.559 116.264 173.762C116.732 172.965 116.966 171.994 116.966 170.85C116.966 169.706 116.741 168.735 116.29 167.938C115.84 167.141 115.25 166.551 114.522 166.17C113.794 165.771 113.006 165.572 112.156 165.572C111.29 165.572 110.492 165.771 109.764 166.17C109.054 166.551 108.482 167.141 108.048 167.938C107.615 168.735 107.398 169.706 107.398 170.85C107.398 172.011 107.606 172.991 108.022 173.788C108.456 174.585 109.028 175.183 109.738 175.582C110.449 175.963 111.229 176.154 112.078 176.154ZM129.437 163.492C131.17 163.492 132.574 164.021 133.649 165.078C134.724 166.118 135.261 167.626 135.261 169.602V178H132.921V169.94C132.921 168.519 132.566 167.435 131.855 166.69C131.144 165.927 130.174 165.546 128.943 165.546C127.695 165.546 126.698 165.936 125.953 166.716C125.225 167.496 124.861 168.631 124.861 170.122V178H122.495V163.752H124.861V165.78C125.329 165.052 125.962 164.489 126.759 164.09C127.574 163.691 128.466 163.492 129.437 163.492ZM30.2736 212.97H22.3696L20.9136 217H18.4176L24.9696 198.982H27.6996L34.2256 217H31.7296L30.2736 212.97ZM29.5976 211.046L26.3216 201.894L23.0456 211.046H29.5976ZM39.4471 205.378C39.9151 204.563 40.6084 203.887 41.5271 203.35C42.4631 202.795 43.5464 202.518 44.7771 202.518C46.0424 202.518 47.1864 202.821 48.2091 203.428C49.2491 204.035 50.0638 204.893 50.6531 206.002C51.2424 207.094 51.5371 208.368 51.5371 209.824C51.5371 211.263 51.2424 212.545 50.6531 213.672C50.0638 214.799 49.2491 215.674 48.2091 216.298C47.1864 216.922 46.0424 217.234 44.7771 217.234C43.5638 217.234 42.4891 216.965 41.5531 216.428C40.6344 215.873 39.9324 215.189 39.4471 214.374V223.76H37.0811V202.752H39.4471V205.378ZM49.1191 209.824C49.1191 208.749 48.9024 207.813 48.4691 207.016C48.0358 206.219 47.4464 205.612 46.7011 205.196C45.9731 204.78 45.1671 204.572 44.2831 204.572C43.4164 204.572 42.6104 204.789 41.8651 205.222C41.1371 205.638 40.5478 206.253 40.0971 207.068C39.6638 207.865 39.4471 208.793 39.4471 209.85C39.4471 210.925 39.6638 211.869 40.0971 212.684C40.5478 213.481 41.1371 214.097 41.8651 214.53C42.6104 214.946 43.4164 215.154 44.2831 215.154C45.1671 215.154 45.9731 214.946 46.7011 214.53C47.4464 214.097 48.0358 213.481 48.4691 212.684C48.9024 211.869 49.1191 210.916 49.1191 209.824ZM57.0174 205.378C57.4854 204.563 58.1787 203.887 59.0974 203.35C60.0334 202.795 61.1167 202.518 62.3474 202.518C63.6127 202.518 64.7567 202.821 65.7794 203.428C66.8194 204.035 67.6341 204.893 68.2234 206.002C68.8127 207.094 69.1074 208.368 69.1074 209.824C69.1074 211.263 68.8127 212.545 68.2234 213.672C67.6341 214.799 66.8194 215.674 65.7794 216.298C64.7567 216.922 63.6127 217.234 62.3474 217.234C61.1341 217.234 60.0594 216.965 59.1234 216.428C58.2047 215.873 57.5027 215.189 57.0174 214.374V223.76H54.6514V202.752H57.0174V205.378ZM66.6894 209.824C66.6894 208.749 66.4727 207.813 66.0394 207.016C65.6061 206.219 65.0167 205.612 64.2714 205.196C63.5434 204.78 62.7374 204.572 61.8534 204.572C60.9867 204.572 60.1807 204.789 59.4354 205.222C58.7074 205.638 58.1181 206.253 57.6674 207.068C57.2341 207.865 57.0174 208.793 57.0174 209.85C57.0174 210.925 57.2341 211.869 57.6674 212.684C58.1181 213.481 58.7074 214.097 59.4354 214.53C60.1807 214.946 60.9867 215.154 61.8534 215.154C62.7374 215.154 63.5434 214.946 64.2714 214.53C65.0167 214.097 65.6061 213.481 66.0394 212.684C66.4727 211.869 66.6894 210.916 66.6894 209.824ZM74.5877 197.76V217H72.2217V197.76H74.5877ZM90.8922 202.752L82.3122 223.708H79.8682L82.6762 216.844L76.9302 202.752H79.5562L84.0282 214.296L88.4482 202.752H90.8922ZM114.45 217H112.084L102.568 202.57V217H100.202V198.852H102.568L112.084 213.256V198.852H114.45V217ZM124.697 217.234C123.363 217.234 122.149 216.931 121.057 216.324C119.983 215.717 119.133 214.859 118.509 213.75C117.903 212.623 117.599 211.323 117.599 209.85C117.599 208.394 117.911 207.111 118.535 206.002C119.177 204.875 120.043 204.017 121.135 203.428C122.227 202.821 123.449 202.518 124.801 202.518C126.153 202.518 127.375 202.821 128.467 203.428C129.559 204.017 130.417 204.867 131.041 205.976C131.683 207.085 132.003 208.377 132.003 209.85C132.003 211.323 131.674 212.623 131.015 213.75C130.374 214.859 129.499 215.717 128.389 216.324C127.28 216.931 126.049 217.234 124.697 217.234ZM124.697 215.154C125.547 215.154 126.344 214.955 127.089 214.556C127.835 214.157 128.433 213.559 128.883 212.762C129.351 211.965 129.585 210.994 129.585 209.85C129.585 208.706 129.36 207.735 128.909 206.938C128.459 206.141 127.869 205.551 127.141 205.17C126.413 204.771 125.625 204.572 124.775 204.572C123.909 204.572 123.111 204.771 122.383 205.17C121.673 205.551 121.101 206.141 120.667 206.938C120.234 207.735 120.017 208.706 120.017 209.85C120.017 211.011 120.225 211.991 120.641 212.788C121.075 213.585 121.647 214.183 122.357 214.582C123.068 214.963 123.848 215.154 124.697 215.154ZM154.094 202.752L149.648 217H147.204L143.772 205.69L140.34 217H137.896L133.424 202.752H135.842L139.118 214.712L142.654 202.752H145.072L148.53 214.738L151.754 202.752H154.094Z" fill="#494949" fill-opacity="0.92"/>
<path d="M453.317 161.802V167.86H459.921V169.81H453.317V176.05H460.701V178H450.951V159.852H460.701V161.802H453.317ZM471.223 163.492C472.957 163.492 474.361 164.021 475.435 165.078C476.51 166.118 477.047 167.626 477.047 169.602V178H474.707V169.94C474.707 168.519 474.352 167.435 473.641 166.69C472.931 165.927 471.96 165.546 470.729 165.546C469.481 165.546 468.485 165.936 467.739 166.716C467.011 167.496 466.647 168.631 466.647 170.122V178H464.281V163.752H466.647V165.78C467.115 165.052 467.748 164.489 468.545 164.09C469.36 163.691 470.253 163.492 471.223 163.492ZM483.278 166.066C483.694 165.251 484.283 164.619 485.046 164.168C485.826 163.717 486.771 163.492 487.88 163.492V165.936H487.256C484.604 165.936 483.278 167.375 483.278 170.252V178H480.912V163.752H483.278V166.066ZM496.825 178.234C495.491 178.234 494.277 177.931 493.185 177.324C492.111 176.717 491.261 175.859 490.637 174.75C490.031 173.623 489.727 172.323 489.727 170.85C489.727 169.394 490.039 168.111 490.663 167.002C491.305 165.875 492.171 165.017 493.263 164.428C494.355 163.821 495.577 163.518 496.929 163.518C498.281 163.518 499.503 163.821 500.595 164.428C501.687 165.017 502.545 165.867 503.169 166.976C503.811 168.085 504.131 169.377 504.131 170.85C504.131 172.323 503.802 173.623 503.143 174.75C502.502 175.859 501.627 176.717 500.517 177.324C499.408 177.931 498.177 178.234 496.825 178.234ZM496.825 176.154C497.675 176.154 498.472 175.955 499.217 175.556C499.963 175.157 500.561 174.559 501.011 173.762C501.479 172.965 501.713 171.994 501.713 170.85C501.713 169.706 501.488 168.735 501.037 167.938C500.587 167.141 499.997 166.551 499.269 166.17C498.541 165.771 497.753 165.572 496.903 165.572C496.037 165.572 495.239 165.771 494.511 166.17C493.801 166.551 493.229 167.141 492.795 167.938C492.362 168.735 492.145 169.706 492.145 170.85C492.145 172.011 492.353 172.991 492.769 173.788C493.203 174.585 493.775 175.183 494.485 175.582C495.196 175.963 495.976 176.154 496.825 176.154ZM509.608 158.76V178H507.242V158.76H509.608ZM516.007 158.76V178H513.641V158.76H516.007ZM528.193 161.438C527.742 161.438 527.361 161.282 527.049 160.97C526.737 160.658 526.581 160.277 526.581 159.826C526.581 159.375 526.737 158.994 527.049 158.682C527.361 158.37 527.742 158.214 528.193 158.214C528.626 158.214 528.99 158.37 529.285 158.682C529.597 158.994 529.753 159.375 529.753 159.826C529.753 160.277 529.597 160.658 529.285 160.97C528.99 161.282 528.626 161.438 528.193 161.438ZM529.337 163.752V178H526.971V163.752H529.337ZM540.311 163.492C542.045 163.492 543.449 164.021 544.523 165.078C545.598 166.118 546.135 167.626 546.135 169.602V178H543.795V169.94C543.795 168.519 543.44 167.435 542.729 166.69C542.019 165.927 541.048 165.546 539.817 165.546C538.569 165.546 537.573 165.936 536.827 166.716C536.099 167.496 535.735 168.631 535.735 170.122V178H533.369V163.752H535.735V165.78C536.203 165.052 536.836 164.489 537.633 164.09C538.448 163.691 539.341 163.492 540.311 163.492ZM555.918 161.36V159.202H560.806V178H558.414V161.36H555.918ZM576.856 161.256H567.73V167.184C568.128 166.629 568.718 166.179 569.498 165.832C570.278 165.468 571.118 165.286 572.02 165.286C573.458 165.286 574.628 165.589 575.53 166.196C576.431 166.785 577.072 167.557 577.454 168.51C577.852 169.446 578.052 170.443 578.052 171.5C578.052 172.748 577.818 173.866 577.35 174.854C576.882 175.842 576.162 176.622 575.192 177.194C574.238 177.766 573.051 178.052 571.63 178.052C569.81 178.052 568.336 177.584 567.21 176.648C566.083 175.712 565.398 174.464 565.156 172.904H567.47C567.695 173.892 568.172 174.663 568.9 175.218C569.628 175.773 570.546 176.05 571.656 176.05C573.025 176.05 574.056 175.643 574.75 174.828C575.443 173.996 575.79 172.904 575.79 171.552C575.79 170.2 575.443 169.16 574.75 168.432C574.056 167.687 573.034 167.314 571.682 167.314C570.763 167.314 569.957 167.539 569.264 167.99C568.588 168.423 568.094 169.021 567.782 169.784H565.546V159.176H576.856V161.256ZM594.16 159.878C596.136 159.878 597.843 160.251 599.282 160.996C600.738 161.724 601.847 162.773 602.61 164.142C603.39 165.511 603.78 167.123 603.78 168.978C603.78 170.833 603.39 172.445 602.61 173.814C601.847 175.166 600.738 176.206 599.282 176.934C597.843 177.645 596.136 178 594.16 178H588.518V159.878H594.16ZM594.16 176.05C596.5 176.05 598.285 175.435 599.516 174.204C600.746 172.956 601.362 171.214 601.362 168.978C601.362 166.725 600.738 164.965 599.49 163.7C598.259 162.435 596.482 161.802 594.16 161.802H590.884V176.05H594.16ZM606.016 170.824C606.016 169.368 606.311 168.094 606.9 167.002C607.49 165.893 608.296 165.035 609.318 164.428C610.358 163.821 611.511 163.518 612.776 163.518C614.024 163.518 615.108 163.787 616.026 164.324C616.945 164.861 617.63 165.537 618.08 166.352V163.752H620.472V178H618.08V175.348C617.612 176.18 616.91 176.873 615.974 177.428C615.056 177.965 613.981 178.234 612.75 178.234C611.485 178.234 610.341 177.922 609.318 177.298C608.296 176.674 607.49 175.799 606.9 174.672C606.311 173.545 606.016 172.263 606.016 170.824ZM618.08 170.85C618.08 169.775 617.864 168.839 617.43 168.042C616.997 167.245 616.408 166.638 615.662 166.222C614.934 165.789 614.128 165.572 613.244 165.572C612.36 165.572 611.554 165.78 610.826 166.196C610.098 166.612 609.518 167.219 609.084 168.016C608.651 168.813 608.434 169.749 608.434 170.824C608.434 171.916 608.651 172.869 609.084 173.684C609.518 174.481 610.098 175.097 610.826 175.53C611.554 175.946 612.36 176.154 613.244 176.154C614.128 176.154 614.934 175.946 615.662 175.53C616.408 175.097 616.997 174.481 617.43 173.684C617.864 172.869 618.08 171.925 618.08 170.85ZM636.743 163.752L628.163 184.708H625.719L628.527 177.844L622.781 163.752H625.407L629.879 175.296L634.299 163.752H636.743ZM409.252 200.802V206.86H415.856V208.81H409.252V215.05H416.636V217H406.886V198.852H416.636V200.802H409.252ZM427.652 217L424.272 211.696L421.022 217H418.552L423.154 209.928L418.552 202.752H421.23L424.61 208.03L427.834 202.752H430.304L425.728 209.798L430.33 217H427.652ZM435.023 205.378C435.491 204.563 436.185 203.887 437.103 203.35C438.039 202.795 439.123 202.518 440.353 202.518C441.619 202.518 442.763 202.821 443.785 203.428C444.825 204.035 445.64 204.893 446.229 206.002C446.819 207.094 447.113 208.368 447.113 209.824C447.113 211.263 446.819 212.545 446.229 213.672C445.64 214.799 444.825 215.674 443.785 216.298C442.763 216.922 441.619 217.234 440.353 217.234C439.14 217.234 438.065 216.965 437.129 216.428C436.211 215.873 435.509 215.189 435.023 214.374V223.76H432.657V202.752H435.023V205.378ZM444.695 209.824C444.695 208.749 444.479 207.813 444.045 207.016C443.612 206.219 443.023 205.612 442.277 205.196C441.549 204.78 440.743 204.572 439.859 204.572C438.993 204.572 438.187 204.789 437.441 205.222C436.713 205.638 436.124 206.253 435.673 207.068C435.24 207.865 435.023 208.793 435.023 209.85C435.023 210.925 435.24 211.869 435.673 212.684C436.124 213.481 436.713 214.097 437.441 214.53C438.187 214.946 438.993 215.154 439.859 215.154C440.743 215.154 441.549 214.946 442.277 214.53C443.023 214.097 443.612 213.481 444.045 212.684C444.479 211.869 444.695 210.916 444.695 209.824ZM452.594 197.76V217H450.228V197.76H452.594ZM462.84 217.234C461.505 217.234 460.292 216.931 459.2 216.324C458.125 215.717 457.276 214.859 456.652 213.75C456.045 212.623 455.742 211.323 455.742 209.85C455.742 208.394 456.054 207.111 456.678 206.002C457.319 204.875 458.186 204.017 459.278 203.428C460.37 202.821 461.592 202.518 462.944 202.518C464.296 202.518 465.518 202.821 466.61 203.428C467.702 204.017 468.56 204.867 469.184 205.976C469.825 207.085 470.146 208.377 470.146 209.85C470.146 211.323 469.817 212.623 469.158 213.75C468.517 214.859 467.641 215.717 466.532 216.324C465.423 216.931 464.192 217.234 462.84 217.234ZM462.84 215.154C463.689 215.154 464.487 214.955 465.232 214.556C465.977 214.157 466.575 213.559 467.026 212.762C467.494 211.965 467.728 210.994 467.728 209.85C467.728 208.706 467.503 207.735 467.052 206.938C466.601 206.141 466.012 205.551 465.284 205.17C464.556 204.771 463.767 204.572 462.918 204.572C462.051 204.572 461.254 204.771 460.526 205.17C459.815 205.551 459.243 206.141 458.81 206.938C458.377 207.735 458.16 208.706 458.16 209.85C458.16 211.011 458.368 211.991 458.784 212.788C459.217 213.585 459.789 214.183 460.5 214.582C461.211 214.963 461.991 215.154 462.84 215.154ZM475.623 205.066C476.039 204.251 476.628 203.619 477.391 203.168C478.171 202.717 479.116 202.492 480.225 202.492V204.936H479.601C476.949 204.936 475.623 206.375 475.623 209.252V217H473.257V202.752H475.623V205.066ZM482.072 209.824C482.072 208.368 482.367 207.094 482.956 206.002C483.545 204.893 484.351 204.035 485.374 203.428C486.414 202.821 487.567 202.518 488.832 202.518C490.08 202.518 491.163 202.787 492.082 203.324C493.001 203.861 493.685 204.537 494.136 205.352V202.752H496.528V217H494.136V214.348C493.668 215.18 492.966 215.873 492.03 216.428C491.111 216.965 490.037 217.234 488.806 217.234C487.541 217.234 486.397 216.922 485.374 216.298C484.351 215.674 483.545 214.799 482.956 213.672C482.367 212.545 482.072 211.263 482.072 209.824ZM494.136 209.85C494.136 208.775 493.919 207.839 493.486 207.042C493.053 206.245 492.463 205.638 491.718 205.222C490.99 204.789 490.184 204.572 489.3 204.572C488.416 204.572 487.61 204.78 486.882 205.196C486.154 205.612 485.573 206.219 485.14 207.016C484.707 207.813 484.49 208.749 484.49 209.824C484.49 210.916 484.707 211.869 485.14 212.684C485.573 213.481 486.154 214.097 486.882 214.53C487.61 214.946 488.416 215.154 489.3 215.154C490.184 215.154 490.99 214.946 491.718 214.53C492.463 214.097 493.053 213.481 493.486 212.684C493.919 211.869 494.136 210.925 494.136 209.85ZM503.412 204.702V213.1C503.412 213.793 503.56 214.287 503.854 214.582C504.149 214.859 504.66 214.998 505.388 214.998H507.13V217H504.998C503.681 217 502.693 216.697 502.034 216.09C501.376 215.483 501.046 214.487 501.046 213.1V204.702H499.2V202.752H501.046V199.164H503.412V202.752H507.13V204.702H503.412ZM511.219 200.438C510.768 200.438 510.387 200.282 510.075 199.97C509.763 199.658 509.607 199.277 509.607 198.826C509.607 198.375 509.763 197.994 510.075 197.682C510.387 197.37 510.768 197.214 511.219 197.214C511.652 197.214 512.016 197.37 512.311 197.682C512.623 197.994 512.779 198.375 512.779 198.826C512.779 199.277 512.623 199.658 512.311 199.97C512.016 200.282 511.652 200.438 511.219 200.438ZM512.363 202.752V217H509.997V202.752H512.363ZM522.61 217.234C521.275 217.234 520.062 216.931 518.97 216.324C517.895 215.717 517.046 214.859 516.422 213.75C515.815 212.623 515.512 211.323 515.512 209.85C515.512 208.394 515.824 207.111 516.448 206.002C517.089 204.875 517.956 204.017 519.048 203.428C520.14 202.821 521.362 202.518 522.714 202.518C524.066 202.518 525.288 202.821 526.38 203.428C527.472 204.017 528.33 204.867 528.954 205.976C529.595 207.085 529.916 208.377 529.916 209.85C529.916 211.323 529.586 212.623 528.928 213.75C528.286 214.859 527.411 215.717 526.302 216.324C525.192 216.931 523.962 217.234 522.61 217.234ZM522.61 215.154C523.459 215.154 524.256 214.955 525.002 214.556C525.747 214.157 526.345 213.559 526.796 212.762C527.264 211.965 527.498 210.994 527.498 209.85C527.498 208.706 527.272 207.735 526.822 206.938C526.371 206.141 525.782 205.551 525.054 205.17C524.326 204.771 523.537 204.572 522.688 204.572C521.821 204.572 521.024 204.771 520.296 205.17C519.585 205.551 519.013 206.141 518.58 206.938C518.146 207.735 517.93 208.706 517.93 209.85C517.93 211.011 518.138 211.991 518.554 212.788C518.987 213.585 519.559 214.183 520.27 214.582C520.98 214.963 521.76 215.154 522.61 215.154ZM539.968 202.492C541.702 202.492 543.106 203.021 544.18 204.078C545.255 205.118 545.792 206.626 545.792 208.602V217H543.452V208.94C543.452 207.519 543.097 206.435 542.386 205.69C541.676 204.927 540.705 204.546 539.474 204.546C538.226 204.546 537.23 204.936 536.484 205.716C535.756 206.496 535.392 207.631 535.392 209.122V217H533.026V202.752H535.392V204.78C535.86 204.052 536.493 203.489 537.29 203.09C538.105 202.691 538.998 202.492 539.968 202.492ZM555.705 207.926C555.705 206.158 556.104 204.572 556.901 203.168C557.698 201.747 558.782 200.637 560.151 199.84C561.538 199.043 563.072 198.644 564.753 198.644C566.729 198.644 568.454 199.121 569.927 200.074C571.4 201.027 572.475 202.379 573.151 204.13H570.317C569.814 203.038 569.086 202.197 568.133 201.608C567.197 201.019 566.07 200.724 564.753 200.724C563.488 200.724 562.352 201.019 561.347 201.608C560.342 202.197 559.553 203.038 558.981 204.13C558.409 205.205 558.123 206.47 558.123 207.926C558.123 209.365 558.409 210.63 558.981 211.722C559.553 212.797 560.342 213.629 561.347 214.218C562.352 214.807 563.488 215.102 564.753 215.102C566.07 215.102 567.197 214.816 568.133 214.244C569.086 213.655 569.814 212.814 570.317 211.722H573.151C572.475 213.455 571.4 214.799 569.927 215.752C568.454 216.688 566.729 217.156 564.753 217.156C563.072 217.156 561.538 216.766 560.151 215.986C558.782 215.189 557.698 214.088 556.901 212.684C556.104 211.28 555.705 209.694 555.705 207.926ZM583.745 202.492C584.82 202.492 585.79 202.726 586.657 203.194C587.524 203.645 588.2 204.329 588.685 205.248C589.188 206.167 589.439 207.285 589.439 208.602V217H587.099V208.94C587.099 207.519 586.744 206.435 586.033 205.69C585.322 204.927 584.352 204.546 583.121 204.546C581.873 204.546 580.876 204.936 580.131 205.716C579.403 206.496 579.039 207.631 579.039 209.122V217H576.673V197.76H579.039V204.78C579.507 204.052 580.148 203.489 580.963 203.09C581.795 202.691 582.722 202.492 583.745 202.492ZM592.42 209.824C592.42 208.368 592.714 207.094 593.304 206.002C593.893 204.893 594.699 204.035 595.722 203.428C596.762 202.821 597.914 202.518 599.18 202.518C600.428 202.518 601.511 202.787 602.43 203.324C603.348 203.861 604.033 204.537 604.484 205.352V202.752H606.876V217H604.484V214.348C604.016 215.18 603.314 215.873 602.378 216.428C601.459 216.965 600.384 217.234 599.154 217.234C597.888 217.234 596.744 216.922 595.722 216.298C594.699 215.674 593.893 214.799 593.304 213.672C592.714 212.545 592.42 211.263 592.42 209.824ZM604.484 209.85C604.484 208.775 604.267 207.839 603.834 207.042C603.4 206.245 602.811 205.638 602.066 205.222C601.338 204.789 600.532 204.572 599.648 204.572C598.764 204.572 597.958 204.78 597.23 205.196C596.502 205.612 595.921 206.219 595.488 207.016C595.054 207.813 594.838 208.749 594.838 209.824C594.838 210.916 595.054 211.869 595.488 212.684C595.921 213.481 596.502 214.097 597.23 214.53C597.958 214.946 598.764 215.154 599.648 215.154C600.532 215.154 601.338 214.946 602.066 214.53C602.811 214.097 603.4 213.481 603.834 212.684C604.267 211.869 604.484 210.925 604.484 209.85ZM613.24 197.76V217H610.874V197.76H613.24ZM619.639 197.76V217H617.273V197.76H619.639ZM636.671 209.33C636.671 209.781 636.645 210.257 636.593 210.76H625.205C625.292 212.164 625.768 213.265 626.635 214.062C627.519 214.842 628.585 215.232 629.833 215.232C630.856 215.232 631.705 214.998 632.381 214.53C633.074 214.045 633.56 213.403 633.837 212.606H636.385C636.004 213.975 635.241 215.093 634.097 215.96C632.953 216.809 631.532 217.234 629.833 217.234C628.481 217.234 627.268 216.931 626.193 216.324C625.136 215.717 624.304 214.859 623.697 213.75C623.09 212.623 622.787 211.323 622.787 209.85C622.787 208.377 623.082 207.085 623.671 205.976C624.26 204.867 625.084 204.017 626.141 203.428C627.216 202.821 628.446 202.518 629.833 202.518C631.185 202.518 632.381 202.813 633.421 203.402C634.461 203.991 635.258 204.806 635.813 205.846C636.385 206.869 636.671 208.03 636.671 209.33ZM634.227 208.836C634.227 207.935 634.028 207.163 633.629 206.522C633.23 205.863 632.684 205.369 631.991 205.04C631.315 204.693 630.561 204.52 629.729 204.52C628.533 204.52 627.51 204.901 626.661 205.664C625.829 206.427 625.352 207.484 625.231 208.836H634.227ZM646.736 202.492C648.469 202.492 649.873 203.021 650.948 204.078C652.023 205.118 652.56 206.626 652.56 208.602V217H650.22V208.94C650.22 207.519 649.865 206.435 649.154 205.69C648.443 204.927 647.473 204.546 646.242 204.546C644.994 204.546 643.997 204.936 643.252 205.716C642.524 206.496 642.16 207.631 642.16 209.122V217H639.794V202.752H642.16V204.78C642.628 204.052 643.261 203.489 644.058 203.09C644.873 202.691 645.765 202.492 646.736 202.492ZM662.301 202.518C663.532 202.518 664.606 202.787 665.525 203.324C666.461 203.861 667.154 204.537 667.605 205.352V202.752H669.997V217.312C669.997 218.612 669.72 219.765 669.165 220.77C668.61 221.793 667.813 222.59 666.773 223.162C665.75 223.734 664.554 224.02 663.185 224.02C661.313 224.02 659.753 223.578 658.505 222.694C657.257 221.81 656.52 220.605 656.295 219.08H658.635C658.895 219.947 659.432 220.64 660.247 221.16C661.062 221.697 662.041 221.966 663.185 221.966C664.485 221.966 665.542 221.559 666.357 220.744C667.189 219.929 667.605 218.785 667.605 217.312V214.322C667.137 215.154 666.444 215.847 665.525 216.402C664.606 216.957 663.532 217.234 662.301 217.234C661.036 217.234 659.883 216.922 658.843 216.298C657.82 215.674 657.014 214.799 656.425 213.672C655.836 212.545 655.541 211.263 655.541 209.824C655.541 208.368 655.836 207.094 656.425 206.002C657.014 204.893 657.82 204.035 658.843 203.428C659.883 202.821 661.036 202.518 662.301 202.518ZM667.605 209.85C667.605 208.775 667.388 207.839 666.955 207.042C666.522 206.245 665.932 205.638 665.187 205.222C664.459 204.789 663.653 204.572 662.769 204.572C661.885 204.572 661.079 204.78 660.351 205.196C659.623 205.612 659.042 206.219 658.609 207.016C658.176 207.813 657.959 208.749 657.959 209.824C657.959 210.916 658.176 211.869 658.609 212.684C659.042 213.481 659.623 214.097 660.351 214.53C661.079 214.946 661.885 215.154 662.769 215.154C663.653 215.154 664.459 214.946 665.187 214.53C665.932 214.097 666.522 213.481 666.955 212.684C667.388 211.869 667.605 210.925 667.605 209.85ZM686.995 209.33C686.995 209.781 686.969 210.257 686.917 210.76H675.529C675.616 212.164 676.092 213.265 676.959 214.062C677.843 214.842 678.909 215.232 680.157 215.232C681.18 215.232 682.029 214.998 682.705 214.53C683.398 214.045 683.884 213.403 684.161 212.606H686.709C686.328 213.975 685.565 215.093 684.421 215.96C683.277 216.809 681.856 217.234 680.157 217.234C678.805 217.234 677.592 216.931 676.517 216.324C675.46 215.717 674.628 214.859 674.021 213.75C673.414 212.623 673.111 211.323 673.111 209.85C673.111 208.377 673.406 207.085 673.995 205.976C674.584 204.867 675.408 204.017 676.465 203.428C677.54 202.821 678.77 202.518 680.157 202.518C681.509 202.518 682.705 202.813 683.745 203.402C684.785 203.991 685.582 204.806 686.137 205.846C686.709 206.869 686.995 208.03 686.995 209.33ZM684.551 208.836C684.551 207.935 684.352 207.163 683.953 206.522C683.554 205.863 683.008 205.369 682.315 205.04C681.639 204.693 680.885 204.52 680.053 204.52C678.857 204.52 677.834 204.901 676.985 205.664C676.153 206.427 675.676 207.484 675.555 208.836H684.551Z" fill="#494949" fill-opacity="0.92"/>
<path d="M881.1 159.878V161.802H873.222V167.912H879.618V169.836H873.222V178H870.856V159.878H881.1ZM885.179 161.438C884.728 161.438 884.347 161.282 884.035 160.97C883.723 160.658 883.567 160.277 883.567 159.826C883.567 159.375 883.723 158.994 884.035 158.682C884.347 158.37 884.728 158.214 885.179 158.214C885.612 158.214 885.976 158.37 886.271 158.682C886.583 158.994 886.739 159.375 886.739 159.826C886.739 160.277 886.583 160.658 886.271 160.97C885.976 161.282 885.612 161.438 885.179 161.438ZM886.323 163.752V178H883.957V163.752H886.323ZM897.298 163.492C899.031 163.492 900.435 164.021 901.51 165.078C902.584 166.118 903.122 167.626 903.122 169.602V178H900.782V169.94C900.782 168.519 900.426 167.435 899.716 166.69C899.005 165.927 898.034 165.546 896.804 165.546C895.556 165.546 894.559 165.936 893.814 166.716C893.086 167.496 892.722 168.631 892.722 170.122V178H890.356V163.752H892.722V165.78C893.19 165.052 893.822 164.489 894.62 164.09C895.434 163.691 896.327 163.492 897.298 163.492ZM908.208 161.438C907.758 161.438 907.376 161.282 907.064 160.97C906.752 160.658 906.596 160.277 906.596 159.826C906.596 159.375 906.752 158.994 907.064 158.682C907.376 158.37 907.758 158.214 908.208 158.214C908.642 158.214 909.006 158.37 909.3 158.682C909.612 158.994 909.768 159.375 909.768 159.826C909.768 160.277 909.612 160.658 909.3 160.97C909.006 161.282 908.642 161.438 908.208 161.438ZM909.352 163.752V178H906.986V163.752H909.352ZM918.429 178.234C917.337 178.234 916.357 178.052 915.491 177.688C914.624 177.307 913.939 176.787 913.437 176.128C912.934 175.452 912.657 174.681 912.605 173.814H915.049C915.118 174.525 915.447 175.105 916.037 175.556C916.643 176.007 917.432 176.232 918.403 176.232C919.304 176.232 920.015 176.033 920.535 175.634C921.055 175.235 921.315 174.733 921.315 174.126C921.315 173.502 921.037 173.043 920.483 172.748C919.928 172.436 919.07 172.133 917.909 171.838C916.851 171.561 915.985 171.283 915.309 171.006C914.65 170.711 914.078 170.287 913.593 169.732C913.125 169.16 912.891 168.415 912.891 167.496C912.891 166.768 913.107 166.101 913.541 165.494C913.974 164.887 914.589 164.411 915.387 164.064C916.184 163.7 917.094 163.518 918.117 163.518C919.694 163.518 920.968 163.917 921.939 164.714C922.909 165.511 923.429 166.603 923.499 167.99H921.133C921.081 167.245 920.777 166.647 920.223 166.196C919.685 165.745 918.957 165.52 918.039 165.52C917.189 165.52 916.513 165.702 916.011 166.066C915.508 166.43 915.257 166.907 915.257 167.496C915.257 167.964 915.404 168.354 915.699 168.666C916.011 168.961 916.392 169.203 916.843 169.394C917.311 169.567 917.952 169.767 918.767 169.992C919.789 170.269 920.621 170.547 921.263 170.824C921.904 171.084 922.45 171.483 922.901 172.02C923.369 172.557 923.611 173.259 923.629 174.126C923.629 174.906 923.412 175.608 922.979 176.232C922.545 176.856 921.93 177.35 921.133 177.714C920.353 178.061 919.451 178.234 918.429 178.234ZM934.041 163.492C935.115 163.492 936.086 163.726 936.953 164.194C937.819 164.645 938.495 165.329 938.981 166.248C939.483 167.167 939.735 168.285 939.735 169.602V178H937.395V169.94C937.395 168.519 937.039 167.435 936.329 166.69C935.618 165.927 934.647 165.546 933.417 165.546C932.169 165.546 931.172 165.936 930.427 166.716C929.699 167.496 929.335 168.631 929.335 170.122V178H926.969V158.76H929.335V165.78C929.803 165.052 930.444 164.489 931.259 164.09C932.091 163.691 933.018 163.492 934.041 163.492ZM953.417 165.702V174.1C953.417 174.793 953.565 175.287 953.859 175.582C954.154 175.859 954.665 175.998 955.393 175.998H957.135V178H955.003C953.686 178 952.698 177.697 952.039 177.09C951.381 176.483 951.051 175.487 951.051 174.1V165.702H949.205V163.752H951.051V160.164H953.417V163.752H957.135V165.702H953.417ZM967.074 163.492C968.149 163.492 969.119 163.726 969.986 164.194C970.853 164.645 971.529 165.329 972.014 166.248C972.517 167.167 972.768 168.285 972.768 169.602V178H970.428V169.94C970.428 168.519 970.073 167.435 969.362 166.69C968.651 165.927 967.681 165.546 966.45 165.546C965.202 165.546 964.205 165.936 963.46 166.716C962.732 167.496 962.368 168.631 962.368 170.122V178H960.002V158.76H962.368V165.78C962.836 165.052 963.477 164.489 964.292 164.09C965.124 163.691 966.051 163.492 967.074 163.492ZM989.633 170.33C989.633 170.781 989.607 171.257 989.555 171.76H978.167C978.254 173.164 978.73 174.265 979.597 175.062C980.481 175.842 981.547 176.232 982.795 176.232C983.818 176.232 984.667 175.998 985.343 175.53C986.036 175.045 986.522 174.403 986.799 173.606H989.347C988.966 174.975 988.203 176.093 987.059 176.96C985.915 177.809 984.494 178.234 982.795 178.234C981.443 178.234 980.23 177.931 979.155 177.324C978.098 176.717 977.266 175.859 976.659 174.75C976.052 173.623 975.749 172.323 975.749 170.85C975.749 169.377 976.044 168.085 976.633 166.976C977.222 165.867 978.046 165.017 979.103 164.428C980.178 163.821 981.408 163.518 982.795 163.518C984.147 163.518 985.343 163.813 986.383 164.402C987.423 164.991 988.22 165.806 988.775 166.846C989.347 167.869 989.633 169.03 989.633 170.33ZM987.189 169.836C987.189 168.935 986.99 168.163 986.591 167.522C986.192 166.863 985.646 166.369 984.953 166.04C984.277 165.693 983.523 165.52 982.691 165.52C981.495 165.52 980.472 165.901 979.623 166.664C978.791 167.427 978.314 168.484 978.193 169.836H987.189ZM998.804 168.926C998.804 167.158 999.202 165.572 1000 164.168C1000.8 162.747 1001.88 161.637 1003.25 160.84C1004.64 160.043 1006.17 159.644 1007.85 159.644C1009.83 159.644 1011.55 160.121 1013.03 161.074C1014.5 162.027 1015.57 163.379 1016.25 165.13H1013.42C1012.91 164.038 1012.18 163.197 1011.23 162.608C1010.3 162.019 1009.17 161.724 1007.85 161.724C1006.59 161.724 1005.45 162.019 1004.45 162.608C1003.44 163.197 1002.65 164.038 1002.08 165.13C1001.51 166.205 1001.22 167.47 1001.22 168.926C1001.22 170.365 1001.51 171.63 1002.08 172.722C1002.65 173.797 1003.44 174.629 1004.45 175.218C1005.45 175.807 1006.59 176.102 1007.85 176.102C1009.17 176.102 1010.3 175.816 1011.23 175.244C1012.18 174.655 1012.91 173.814 1013.42 172.722H1016.25C1015.57 174.455 1014.5 175.799 1013.03 176.752C1011.55 177.688 1009.83 178.156 1007.85 178.156C1006.17 178.156 1004.64 177.766 1003.25 176.986C1001.88 176.189 1000.8 175.088 1000 173.684C999.202 172.28 998.804 170.694 998.804 168.926ZM1026.84 163.492C1027.92 163.492 1028.89 163.726 1029.76 164.194C1030.62 164.645 1031.3 165.329 1031.78 166.248C1032.29 167.167 1032.54 168.285 1032.54 169.602V178H1030.2V169.94C1030.2 168.519 1029.84 167.435 1029.13 166.69C1028.42 165.927 1027.45 165.546 1026.22 165.546C1024.97 165.546 1023.97 165.936 1023.23 166.716C1022.5 167.496 1022.14 168.631 1022.14 170.122V178H1019.77V158.76H1022.14V165.78C1022.61 165.052 1023.25 164.489 1024.06 164.09C1024.89 163.691 1025.82 163.492 1026.84 163.492ZM1035.52 170.824C1035.52 169.368 1035.81 168.094 1036.4 167.002C1036.99 165.893 1037.8 165.035 1038.82 164.428C1039.86 163.821 1041.01 163.518 1042.28 163.518C1043.53 163.518 1044.61 163.787 1045.53 164.324C1046.45 164.861 1047.13 165.537 1047.58 166.352V163.752H1049.97V178H1047.58V175.348C1047.11 176.18 1046.41 176.873 1045.48 177.428C1044.56 177.965 1043.48 178.234 1042.25 178.234C1040.99 178.234 1039.84 177.922 1038.82 177.298C1037.8 176.674 1036.99 175.799 1036.4 174.672C1035.81 173.545 1035.52 172.263 1035.52 170.824ZM1047.58 170.85C1047.58 169.775 1047.37 168.839 1046.93 168.042C1046.5 167.245 1045.91 166.638 1045.16 166.222C1044.44 165.789 1043.63 165.572 1042.75 165.572C1041.86 165.572 1041.06 165.78 1040.33 166.196C1039.6 166.612 1039.02 167.219 1038.59 168.016C1038.15 168.813 1037.94 169.749 1037.94 170.824C1037.94 171.916 1038.15 172.869 1038.59 173.684C1039.02 174.481 1039.6 175.097 1040.33 175.53C1041.06 175.946 1041.86 176.154 1042.75 176.154C1043.63 176.154 1044.44 175.946 1045.16 175.53C1045.91 175.097 1046.5 174.481 1046.93 173.684C1047.37 172.869 1047.58 171.925 1047.58 170.85ZM1056.34 158.76V178H1053.97V158.76H1056.34ZM1062.74 158.76V178H1060.37V158.76H1062.74ZM1079.77 170.33C1079.77 170.781 1079.74 171.257 1079.69 171.76H1068.3C1068.39 173.164 1068.87 174.265 1069.73 175.062C1070.62 175.842 1071.68 176.232 1072.93 176.232C1073.95 176.232 1074.8 175.998 1075.48 175.53C1076.17 175.045 1076.66 174.403 1076.94 173.606H1079.48C1079.1 174.975 1078.34 176.093 1077.2 176.96C1076.05 177.809 1074.63 178.234 1072.93 178.234C1071.58 178.234 1070.37 177.931 1069.29 177.324C1068.23 176.717 1067.4 175.859 1066.8 174.75C1066.19 173.623 1065.89 172.323 1065.89 170.85C1065.89 169.377 1066.18 168.085 1066.77 166.976C1067.36 165.867 1068.18 165.017 1069.24 164.428C1070.31 163.821 1071.54 163.518 1072.93 163.518C1074.28 163.518 1075.48 163.813 1076.52 164.402C1077.56 164.991 1078.36 165.806 1078.91 166.846C1079.48 167.869 1079.77 169.03 1079.77 170.33ZM1077.33 169.836C1077.33 168.935 1077.13 168.163 1076.73 167.522C1076.33 166.863 1075.78 166.369 1075.09 166.04C1074.41 165.693 1073.66 165.52 1072.83 165.52C1071.63 165.52 1070.61 165.901 1069.76 166.664C1068.93 167.427 1068.45 168.484 1068.33 169.836H1077.33ZM1089.83 163.492C1091.57 163.492 1092.97 164.021 1094.05 165.078C1095.12 166.118 1095.66 167.626 1095.66 169.602V178H1093.32V169.94C1093.32 168.519 1092.96 167.435 1092.25 166.69C1091.54 165.927 1090.57 165.546 1089.34 165.546C1088.09 165.546 1087.1 165.936 1086.35 166.716C1085.62 167.496 1085.26 168.631 1085.26 170.122V178H1082.89V163.752H1085.26V165.78C1085.73 165.052 1086.36 164.489 1087.16 164.09C1087.97 163.691 1088.86 163.492 1089.83 163.492ZM1105.4 163.518C1106.63 163.518 1107.7 163.787 1108.62 164.324C1109.56 164.861 1110.25 165.537 1110.7 166.352V163.752H1113.1V178.312C1113.1 179.612 1112.82 180.765 1112.26 181.77C1111.71 182.793 1110.91 183.59 1109.87 184.162C1108.85 184.734 1107.65 185.02 1106.28 185.02C1104.41 185.02 1102.85 184.578 1101.6 183.694C1100.36 182.81 1099.62 181.605 1099.39 180.08H1101.73C1101.99 180.947 1102.53 181.64 1103.35 182.16C1104.16 182.697 1105.14 182.966 1106.28 182.966C1107.58 182.966 1108.64 182.559 1109.46 181.744C1110.29 180.929 1110.7 179.785 1110.7 178.312V175.322C1110.24 176.154 1109.54 176.847 1108.62 177.402C1107.7 177.957 1106.63 178.234 1105.4 178.234C1104.13 178.234 1102.98 177.922 1101.94 177.298C1100.92 176.674 1100.11 175.799 1099.52 174.672C1098.93 173.545 1098.64 172.263 1098.64 170.824C1098.64 169.368 1098.93 168.094 1099.52 167.002C1100.11 165.893 1100.92 165.035 1101.94 164.428C1102.98 163.821 1104.13 163.518 1105.4 163.518ZM1110.7 170.85C1110.7 169.775 1110.49 168.839 1110.05 168.042C1109.62 167.245 1109.03 166.638 1108.29 166.222C1107.56 165.789 1106.75 165.572 1105.87 165.572C1104.98 165.572 1104.18 165.78 1103.45 166.196C1102.72 166.612 1102.14 167.219 1101.71 168.016C1101.27 168.813 1101.06 169.749 1101.06 170.824C1101.06 171.916 1101.27 172.869 1101.71 173.684C1102.14 174.481 1102.72 175.097 1103.45 175.53C1104.18 175.946 1104.98 176.154 1105.87 176.154C1106.75 176.154 1107.56 175.946 1108.29 175.53C1109.03 175.097 1109.62 174.481 1110.05 173.684C1110.49 172.869 1110.7 171.925 1110.7 170.85ZM1130.09 170.33C1130.09 170.781 1130.07 171.257 1130.02 171.76H1118.63C1118.71 173.164 1119.19 174.265 1120.06 175.062C1120.94 175.842 1122.01 176.232 1123.26 176.232C1124.28 176.232 1125.13 175.998 1125.8 175.53C1126.5 175.045 1126.98 174.403 1127.26 173.606H1129.81C1129.43 174.975 1128.66 176.093 1127.52 176.96C1126.38 177.809 1124.95 178.234 1123.26 178.234C1121.9 178.234 1120.69 177.931 1119.62 177.324C1118.56 176.717 1117.73 175.859 1117.12 174.75C1116.51 173.623 1116.21 172.323 1116.21 170.85C1116.21 169.377 1116.5 168.085 1117.09 166.976C1117.68 165.867 1118.51 165.017 1119.56 164.428C1120.64 163.821 1121.87 163.518 1123.26 163.518C1124.61 163.518 1125.8 163.813 1126.84 164.402C1127.88 164.991 1128.68 165.806 1129.24 166.846C1129.81 167.869 1130.09 169.03 1130.09 170.33ZM1127.65 169.836C1127.65 168.935 1127.45 168.163 1127.05 167.522C1126.65 166.863 1126.11 166.369 1125.41 166.04C1124.74 165.693 1123.98 165.52 1123.15 165.52C1121.96 165.52 1120.93 165.901 1120.08 166.664C1119.25 167.427 1118.78 168.484 1118.65 169.836H1127.65ZM884.279 204.702V213.1C884.279 213.793 884.426 214.287 884.721 214.582C885.015 214.859 885.527 214.998 886.255 214.998H887.997V217H885.865C884.547 217 883.559 216.697 882.901 216.09C882.242 215.483 881.913 214.487 881.913 213.1V204.702H880.067V202.752H881.913V199.164H884.279V202.752H887.997V204.702H884.279ZM897.077 217.234C895.743 217.234 894.529 216.931 893.437 216.324C892.363 215.717 891.513 214.859 890.889 213.75C890.283 212.623 889.979 211.323 889.979 209.85C889.979 208.394 890.291 207.111 890.915 206.002C891.557 204.875 892.423 204.017 893.515 203.428C894.607 202.821 895.829 202.518 897.181 202.518C898.533 202.518 899.755 202.821 900.847 203.428C901.939 204.017 902.797 204.867 903.421 205.976C904.063 207.085 904.383 208.377 904.383 209.85C904.383 211.323 904.054 212.623 903.395 213.75C902.754 214.859 901.879 215.717 900.769 216.324C899.66 216.931 898.429 217.234 897.077 217.234ZM897.077 215.154C897.927 215.154 898.724 214.955 899.469 214.556C900.215 214.157 900.813 213.559 901.263 212.762C901.731 211.965 901.965 210.994 901.965 209.85C901.965 208.706 901.74 207.735 901.289 206.938C900.839 206.141 900.249 205.551 899.521 205.17C898.793 204.771 898.005 204.572 897.155 204.572C896.289 204.572 895.491 204.771 894.763 205.17C894.053 205.551 893.481 206.141 893.047 206.938C892.614 207.735 892.397 208.706 892.397 209.85C892.397 211.011 892.605 211.991 893.021 212.788C893.455 213.585 894.027 214.183 894.737 214.582C895.448 214.963 896.228 215.154 897.077 215.154ZM920.302 202.518C921.532 202.518 922.607 202.787 923.526 203.324C924.462 203.861 925.155 204.537 925.606 205.352V202.752H927.998V217.312C927.998 218.612 927.72 219.765 927.166 220.77C926.611 221.793 925.814 222.59 924.774 223.162C923.751 223.734 922.555 224.02 921.186 224.02C919.314 224.02 917.754 223.578 916.506 222.694C915.258 221.81 914.521 220.605 914.296 219.08H916.636C916.896 219.947 917.433 220.64 918.248 221.16C919.062 221.697 920.042 221.966 921.186 221.966C922.486 221.966 923.543 221.559 924.358 220.744C925.19 219.929 925.606 218.785 925.606 217.312V214.322C925.138 215.154 924.444 215.847 923.526 216.402C922.607 216.957 921.532 217.234 920.302 217.234C919.036 217.234 917.884 216.922 916.844 216.298C915.821 215.674 915.015 214.799 914.426 213.672C913.836 212.545 913.542 211.263 913.542 209.824C913.542 208.368 913.836 207.094 914.426 206.002C915.015 204.893 915.821 204.035 916.844 203.428C917.884 202.821 919.036 202.518 920.302 202.518ZM925.606 209.85C925.606 208.775 925.389 207.839 924.956 207.042C924.522 206.245 923.933 205.638 923.188 205.222C922.46 204.789 921.654 204.572 920.77 204.572C919.886 204.572 919.08 204.78 918.352 205.196C917.624 205.612 917.043 206.219 916.61 207.016C916.176 207.813 915.96 208.749 915.96 209.824C915.96 210.916 916.176 211.869 916.61 212.684C917.043 213.481 917.624 214.097 918.352 214.53C919.08 214.946 919.886 215.154 920.77 215.154C921.654 215.154 922.46 214.946 923.188 214.53C923.933 214.097 924.522 213.481 924.956 212.684C925.389 211.869 925.606 210.925 925.606 209.85ZM944.996 209.33C944.996 209.781 944.97 210.257 944.918 210.76H933.53C933.617 212.164 934.093 213.265 934.96 214.062C935.844 214.842 936.91 215.232 938.158 215.232C939.181 215.232 940.03 214.998 940.706 214.53C941.399 214.045 941.885 213.403 942.162 212.606H944.71C944.329 213.975 943.566 215.093 942.422 215.96C941.278 216.809 939.857 217.234 938.158 217.234C936.806 217.234 935.593 216.931 934.518 216.324C933.461 215.717 932.629 214.859 932.022 213.75C931.415 212.623 931.112 211.323 931.112 209.85C931.112 208.377 931.407 207.085 931.996 205.976C932.585 204.867 933.409 204.017 934.466 203.428C935.541 202.821 936.771 202.518 938.158 202.518C939.51 202.518 940.706 202.813 941.746 203.402C942.786 203.991 943.583 204.806 944.138 205.846C944.71 206.869 944.996 208.03 944.996 209.33ZM942.552 208.836C942.552 207.935 942.353 207.163 941.954 206.522C941.555 205.863 941.009 205.369 940.316 205.04C939.64 204.693 938.886 204.52 938.054 204.52C936.858 204.52 935.835 204.901 934.986 205.664C934.154 206.427 933.677 207.484 933.556 208.836H942.552ZM951.005 204.702V213.1C951.005 213.793 951.153 214.287 951.447 214.582C951.742 214.859 952.253 214.998 952.981 214.998H954.723V217H952.591C951.274 217 950.286 216.697 949.627 216.09C948.969 215.483 948.639 214.487 948.639 213.1V204.702H946.793V202.752H948.639V199.164H951.005V202.752H954.723V204.702H951.005ZM970.32 204.702H967.33V217H964.964V204.702H963.118V202.752H964.964V201.738C964.964 200.143 965.371 198.982 966.186 198.254C967.018 197.509 968.344 197.136 970.164 197.136V199.112C969.124 199.112 968.387 199.32 967.954 199.736C967.538 200.135 967.33 200.802 967.33 201.738V202.752H970.32V204.702ZM985.714 202.752V217H983.348V214.894C982.898 215.622 982.265 216.194 981.45 216.61C980.653 217.009 979.769 217.208 978.798 217.208C977.689 217.208 976.692 216.983 975.808 216.532C974.924 216.064 974.222 215.371 973.702 214.452C973.2 213.533 972.948 212.415 972.948 211.098V202.752H975.288V210.786C975.288 212.19 975.644 213.273 976.354 214.036C977.065 214.781 978.036 215.154 979.266 215.154C980.532 215.154 981.528 214.764 982.256 213.984C982.984 213.204 983.348 212.069 983.348 210.578V202.752H985.714ZM992.075 197.76V217H989.709V197.76H992.075ZM998.473 197.76V217H996.107V197.76H998.473ZM1010.66 200.438C1010.21 200.438 1009.83 200.282 1009.52 199.97C1009.2 199.658 1009.05 199.277 1009.05 198.826C1009.05 198.375 1009.2 197.994 1009.52 197.682C1009.83 197.37 1010.21 197.214 1010.66 197.214C1011.09 197.214 1011.46 197.37 1011.75 197.682C1012.06 197.994 1012.22 198.375 1012.22 198.826C1012.22 199.277 1012.06 199.658 1011.75 199.97C1011.46 200.282 1011.09 200.438 1010.66 200.438ZM1011.8 202.752V217H1009.44V202.752H1011.8ZM1022.78 202.492C1024.51 202.492 1025.92 203.021 1026.99 204.078C1028.06 205.118 1028.6 206.626 1028.6 208.602V217H1026.26V208.94C1026.26 207.519 1025.91 206.435 1025.2 205.69C1024.49 204.927 1023.51 204.546 1022.28 204.546C1021.04 204.546 1020.04 204.936 1019.29 205.716C1018.57 206.496 1018.2 207.631 1018.2 209.122V217H1015.84V202.752H1018.2V204.78C1018.67 204.052 1019.3 203.489 1020.1 203.09C1020.91 202.691 1021.81 202.492 1022.78 202.492ZM1037.77 214.816L1042.19 202.752H1044.71L1039.12 217H1036.37L1030.78 202.752H1033.32L1037.77 214.816ZM1048.26 200.438C1047.81 200.438 1047.43 200.282 1047.12 199.97C1046.81 199.658 1046.65 199.277 1046.65 198.826C1046.65 198.375 1046.81 197.994 1047.12 197.682C1047.43 197.37 1047.81 197.214 1048.26 197.214C1048.7 197.214 1049.06 197.37 1049.36 197.682C1049.67 197.994 1049.82 198.375 1049.82 198.826C1049.82 199.277 1049.67 199.658 1049.36 199.97C1049.06 200.282 1048.7 200.438 1048.26 200.438ZM1049.41 202.752V217H1047.04V202.752H1049.41ZM1056.33 204.702V213.1C1056.33 213.793 1056.47 214.287 1056.77 214.582C1057.06 214.859 1057.57 214.998 1058.3 214.998H1060.04V217H1057.91C1056.59 217 1055.61 216.697 1054.95 216.09C1054.29 215.483 1053.96 214.487 1053.96 213.1V204.702H1052.11V202.752H1053.96V199.164H1056.33V202.752H1060.04V204.702H1056.33ZM1062.03 209.824C1062.03 208.368 1062.32 207.094 1062.91 206.002C1063.5 204.893 1064.31 204.035 1065.33 203.428C1066.37 202.821 1067.52 202.518 1068.79 202.518C1070.03 202.518 1071.12 202.787 1072.04 203.324C1072.95 203.861 1073.64 204.537 1074.09 205.352V202.752H1076.48V217H1074.09V214.348C1073.62 215.18 1072.92 215.873 1071.98 216.428C1071.07 216.965 1069.99 217.234 1068.76 217.234C1067.49 217.234 1066.35 216.922 1065.33 216.298C1064.31 215.674 1063.5 214.799 1062.91 213.672C1062.32 212.545 1062.03 211.263 1062.03 209.824ZM1074.09 209.85C1074.09 208.775 1073.87 207.839 1073.44 207.042C1073.01 206.245 1072.42 205.638 1071.67 205.222C1070.94 204.789 1070.14 204.572 1069.25 204.572C1068.37 204.572 1067.56 204.78 1066.84 205.196C1066.11 205.612 1065.53 206.219 1065.09 207.016C1064.66 207.813 1064.44 208.749 1064.44 209.824C1064.44 210.916 1064.66 211.869 1065.09 212.684C1065.53 213.481 1066.11 214.097 1066.84 214.53C1067.56 214.946 1068.37 215.154 1069.25 215.154C1070.14 215.154 1070.94 214.946 1071.67 214.53C1072.42 214.097 1073.01 213.481 1073.44 212.684C1073.87 211.869 1074.09 210.925 1074.09 209.85ZM1083.37 204.702V213.1C1083.37 213.793 1083.51 214.287 1083.81 214.582C1084.1 214.859 1084.61 214.998 1085.34 214.998H1087.08V217H1084.95C1083.64 217 1082.65 216.697 1081.99 216.09C1081.33 215.483 1081 214.487 1081 213.1V204.702H1079.15V202.752H1081V199.164H1083.37V202.752H1087.08V204.702H1083.37ZM1091.17 200.438C1090.72 200.438 1090.34 200.282 1090.03 199.97C1089.72 199.658 1089.56 199.277 1089.56 198.826C1089.56 198.375 1089.72 197.994 1090.03 197.682C1090.34 197.37 1090.72 197.214 1091.17 197.214C1091.61 197.214 1091.97 197.37 1092.27 197.682C1092.58 197.994 1092.73 198.375 1092.73 198.826C1092.73 199.277 1092.58 199.658 1092.27 199.97C1091.97 200.282 1091.61 200.438 1091.17 200.438ZM1092.32 202.752V217H1089.95V202.752H1092.32ZM1102.56 217.234C1101.23 217.234 1100.02 216.931 1098.92 216.324C1097.85 215.717 1097 214.859 1096.38 213.75C1095.77 212.623 1095.47 211.323 1095.47 209.85C1095.47 208.394 1095.78 207.111 1096.4 206.002C1097.04 204.875 1097.91 204.017 1099 203.428C1100.09 202.821 1101.32 202.518 1102.67 202.518C1104.02 202.518 1105.24 202.821 1106.33 203.428C1107.43 204.017 1108.28 204.867 1108.91 205.976C1109.55 207.085 1109.87 208.377 1109.87 209.85C1109.87 211.323 1109.54 212.623 1108.88 213.75C1108.24 214.859 1107.36 215.717 1106.26 216.324C1105.15 216.931 1103.92 217.234 1102.56 217.234ZM1102.56 215.154C1103.41 215.154 1104.21 214.955 1104.96 214.556C1105.7 214.157 1106.3 213.559 1106.75 212.762C1107.22 211.965 1107.45 210.994 1107.45 209.85C1107.45 208.706 1107.23 207.735 1106.78 206.938C1106.32 206.141 1105.74 205.551 1105.01 205.17C1104.28 204.771 1103.49 204.572 1102.64 204.572C1101.77 204.572 1100.98 204.771 1100.25 205.17C1099.54 205.551 1098.97 206.141 1098.53 206.938C1098.1 207.735 1097.88 208.706 1097.88 209.85C1097.88 211.011 1098.09 211.991 1098.51 212.788C1098.94 213.585 1099.51 214.183 1100.22 214.582C1100.93 214.963 1101.71 215.154 1102.56 215.154ZM1119.92 202.492C1121.66 202.492 1123.06 203.021 1124.13 204.078C1125.21 205.118 1125.75 206.626 1125.75 208.602V217H1123.41V208.94C1123.41 207.519 1123.05 206.435 1122.34 205.69C1121.63 204.927 1120.66 204.546 1119.43 204.546C1118.18 204.546 1117.18 204.936 1116.44 205.716C1115.71 206.496 1115.35 207.631 1115.35 209.122V217H1112.98V202.752H1115.35V204.78C1115.81 204.052 1116.45 203.489 1117.24 203.09C1118.06 202.691 1118.95 202.492 1119.92 202.492Z" fill="#494949" fill-opacity="0.92"/>
<g filter="url(#filter0_d_4290_1230)">
<circle cx="89.5" cy="85.5" r="39.5" fill="white"/>
</g>
<path d="M85.08 77.16V70.8H96.16V100H89.04V77.16H85.08Z" fill="#F37021"/>
<g filter="url(#filter1_d_4290_1230)">
<circle cx="547.5" cy="85.5" r="39.5" fill="white"/>
</g>
<path d="M536.56 94.52C537.467 93.8 537.88 93.4667 537.8 93.52C540.413 91.36 542.467 89.5867 543.96 88.2C545.48 86.8133 546.76 85.36 547.8 83.84C548.84 82.32 549.36 80.84 549.36 79.4C549.36 78.3067 549.107 77.4533 548.6 76.84C548.093 76.2267 547.333 75.92 546.32 75.92C545.307 75.92 544.507 76.3067 543.92 77.08C543.36 77.8267 543.08 78.8933 543.08 80.28H536.48C536.533 78.0133 537.013 76.12 537.92 74.6C538.853 73.08 540.067 71.96 541.56 71.24C543.08 70.52 544.76 70.16 546.6 70.16C549.773 70.16 552.16 70.9733 553.76 72.6C555.387 74.2267 556.2 76.3467 556.2 78.96C556.2 81.8133 555.227 84.4667 553.28 86.92C551.333 89.3467 548.853 91.72 545.84 94.04H556.64V99.6H536.56V94.52Z" fill="#F37021"/>
<g filter="url(#filter2_d_4290_1230)">
<circle cx="1003.5" cy="85.5" r="39.5" fill="white"/>
</g>
<path d="M993.04 79.04C993.147 76.1867 994.08 73.9867 995.84 72.44C997.6 70.8933 999.987 70.12 1003 70.12C1005 70.12 1006.71 70.4667 1008.12 71.16C1009.56 71.8533 1010.64 72.8 1011.36 74C1012.11 75.2 1012.48 76.5467 1012.48 78.04C1012.48 79.8 1012.04 81.24 1011.16 82.36C1010.28 83.4533 1009.25 84.2 1008.08 84.6V84.76C1009.6 85.2667 1010.8 86.1067 1011.68 87.28C1012.56 88.4533 1013 89.96 1013 91.8C1013 93.4533 1012.61 94.92 1011.84 96.2C1011.09 97.4533 1009.99 98.44 1008.52 99.16C1007.08 99.88 1005.36 100.24 1003.36 100.24C1000.16 100.24 997.6 99.4533 995.68 97.88C993.787 96.3067 992.787 93.9333 992.68 90.76H999.32C999.347 91.9333 999.68 92.8667 1000.32 93.56C1000.96 94.2267 1001.89 94.56 1003.12 94.56C1004.16 94.56 1004.96 94.2667 1005.52 93.68C1006.11 93.0667 1006.4 92.2667 1006.4 91.28C1006.4 90 1005.99 89.08 1005.16 88.52C1004.36 87.9333 1003.07 87.64 1001.28 87.64H1000V82.08H1001.28C1002.64 82.08 1003.73 81.8533 1004.56 81.4C1005.41 80.92 1005.84 80.08 1005.84 78.88C1005.84 77.92 1005.57 77.1733 1005.04 76.64C1004.51 76.1067 1003.77 75.84 1002.84 75.84C1001.83 75.84 1001.07 76.1467 1000.56 76.76C1000.08 77.3733 999.8 78.1333 999.72 79.04H993.04Z" fill="#F37021"/>
<defs>
<filter id="filter0_d_4290_1230" x="0" y="0" width="179" height="179" filterUnits="userSpaceOnUse" color-interpolation-filters="sRGB">
<feFlood flood-opacity="0" result="BackgroundImageFix"/>
<feColorMatrix in="SourceAlpha" type="matrix" values="0 0 0 0 0 0 0 0 0 0 0 0 0 0 0 0 0 0 127 0" result="hardAlpha"/>
<feOffset dy="4"/>
<feGaussianBlur stdDeviation="25"/>
<feColorMatrix type="matrix" values="0 0 0 0 0.858824 0 0 0 0 0.870588 0 0 0 0 0.909804 0 0 0 0.5 0"/>
<feBlend mode="normal" in2="BackgroundImageFix" result="effect1_dropShadow_4290_1230"/>
<feBlend mode="normal" in="SourceGraphic" in2="effect1_dropShadow_4290_1230" result="shape"/>
</filter>
<filter id="filter1_d_4290_1230" x="458" y="0" width="179" height="179" filterUnits="userSpaceOnUse" color-interpolation-filters="sRGB">
<feFlood flood-opacity="0" result="BackgroundImageFix"/>
<feColorMatrix in="SourceAlpha" type="matrix" values="0 0 0 0 0 0 0 0 0 0 0 0 0 0 0 0 0 0 127 0" result="hardAlpha"/>
<feOffset dy="4"/>
<feGaussianBlur stdDeviation="25"/>
<feColorMatrix type="matrix" values="0 0 0 0 0.858824 0 0 0 0 0.870588 0 0 0 0 0.909804 0 0 0 0.5 0"/>
<feBlend mode="normal" in2="BackgroundImageFix" result="effect1_dropShadow_4290_1230"/>
<feBlend mode="normal" in="SourceGraphic" in2="effect1_dropShadow_4290_1230" result="shape"/>
</filter>
<filter id="filter2_d_4290_1230" x="914" y="0" width="179" height="179" filterUnits="userSpaceOnUse" color-interpolation-filters="sRGB">
<feFlood flood-opacity="0" result="BackgroundImageFix"/>
<feColorMatrix in="SourceAlpha" type="matrix" values="0 0 0 0 0 0 0 0 0 0 0 0 0 0 0 0 0 0 127 0" result="hardAlpha"/>
<feOffset dy="4"/>
<feGaussianBlur stdDeviation="25"/>
<feColorMatrix type="matrix" values="0 0 0 0 0.858824 0 0 0 0 0.870588 0 0 0 0 0.909804 0 0 0 0.5 0"/>
<feBlend mode="normal" in2="BackgroundImageFix" result="effect1_dropShadow_4290_1230"/>
<feBlend mode="normal" in="SourceGraphic" in2="effect1_dropShadow_4290_1230" result="shape"/>
</filter>
</defs>
</svg>
