<svg width="134" height="147" viewBox="0 0 134 147" fill="none" xmlns="http://www.w3.org/2000/svg">
<path d="M119.95 59.2812C120.391 34.2892 99.6923 13.7133 73.7412 13.3009C47.7416 12.8929 26.3328 32.8247 25.8793 57.7895C25.8119 62.0171 26.3744 66.0742 27.4414 69.9815L27.4211 69.974C27.4211 69.974 31.2536 97.2993 71.2232 140.777C109.547 104.348 117.938 71.5826 117.938 71.5826L117.881 71.6066C119.106 67.6974 119.859 63.5675 119.95 59.2812ZM73.2447 40.6348C83.5164 40.7908 91.7086 48.9481 91.5366 58.8296C91.3646 68.711 82.8771 76.5995 72.6053 76.4435C62.3336 76.2874 54.1414 68.1301 54.3134 58.2487C54.465 48.3597 62.9604 40.4516 73.2447 40.6348Z" fill="#DB8F45"/>
<ellipse cx="72.496" cy="61.6474" rx="29.7284" ry="28.5683" fill="#172937"/>
<path d="M67.756 57.012V52.56H75.512V73H70.528V57.012H67.756Z" fill="#C8C8C8"/>
</svg>
