<svg width="134" height="147" viewBox="0 0 134 147" fill="none" xmlns="http://www.w3.org/2000/svg">
<path d="M119.95 59.2812C120.391 34.2892 99.6923 13.7133 73.7412 13.3009C47.7416 12.8929 26.3328 32.8247 25.8793 57.7895C25.8119 62.0171 26.3744 66.0742 27.4414 69.9815L27.4211 69.974C27.4211 69.974 31.2536 97.2993 71.2232 140.777C109.547 104.348 117.938 71.5826 117.938 71.5826L117.881 71.6066C119.106 67.6974 119.859 63.5675 119.95 59.2812ZM73.2447 40.6348C83.5164 40.7908 91.7086 48.9481 91.5366 58.8296C91.3646 68.711 82.8771 76.5995 72.6053 76.4435C62.3336 76.2874 54.1414 68.1301 54.3134 58.2487C54.465 48.3597 62.9604 40.4516 73.2447 40.6348Z" fill="#C8C8C8"/>
<ellipse cx="72.496" cy="61.6474" rx="29.7284" ry="28.5683" fill="#172937"/>
<path d="M65.7639 69.2646C66.3985 68.7606 66.6879 68.5273 66.6319 68.5646C68.4612 67.0526 69.8985 65.8113 70.9439 64.8406C72.0079 63.8699 72.9039 62.8526 73.6319 61.7886C74.3599 60.7246 74.7239 59.6886 74.7239 58.6806C74.7239 57.9153 74.5465 57.3179 74.1919 56.8886C73.8372 56.4593 73.3052 56.2446 72.5959 56.2446C71.8865 56.2446 71.3265 56.5153 70.9159 57.0566C70.5239 57.5793 70.3279 58.3259 70.3279 59.2966H65.7079C65.7452 57.7099 66.0812 56.3846 66.7159 55.3206C67.3692 54.2566 68.2185 53.4726 69.2639 52.9686C70.3279 52.4646 71.5039 52.2126 72.7919 52.2126C75.0132 52.2126 76.6839 52.7819 77.8039 53.9206C78.9425 55.0593 79.5119 56.5433 79.5119 58.3726C79.5119 60.3699 78.8305 62.2273 77.4679 63.9446C76.1052 65.6433 74.3692 67.3046 72.2599 68.9286H79.8199V72.8206H65.7639V69.2646Z" fill="#C8C8C8"/>
</svg>
