<svg width="134" height="147" viewBox="0 0 134 147" fill="none" xmlns="http://www.w3.org/2000/svg">
<path d="M119.95 59.2812C120.391 34.2892 99.6923 13.7133 73.7412 13.3009C47.7416 12.8929 26.3328 32.8247 25.8793 57.7895C25.8119 62.0171 26.3744 66.0742 27.4414 69.9815L27.4211 69.974C27.4211 69.974 31.2536 97.2993 71.2232 140.777C109.547 104.348 117.938 71.5826 117.938 71.5826L117.881 71.6066C119.106 67.6974 119.859 63.5675 119.95 59.2812ZM73.2447 40.6348C83.5164 40.7908 91.7086 48.9481 91.5366 58.8296C91.3646 68.711 82.8771 76.5995 72.6053 76.4435C62.3336 76.2874 54.1414 68.1301 54.3134 58.2487C54.465 48.3597 62.9604 40.4516 73.2447 40.6348Z" fill="#FFDE4D"/>
<ellipse cx="72.496" cy="61.6474" rx="29.7284" ry="28.5683" fill="#172937"/>
<path d="M65.428 58.328C65.5027 56.3307 66.156 54.7907 67.388 53.708C68.62 52.6253 70.2907 52.084 72.4 52.084C73.8 52.084 74.9947 52.3267 75.984 52.812C76.992 53.2973 77.748 53.96 78.252 54.8C78.7747 55.64 79.036 56.5827 79.036 57.628C79.036 58.86 78.728 59.868 78.112 60.652C77.496 61.4173 76.7773 61.94 75.956 62.22V62.332C77.02 62.6867 77.86 63.2747 78.476 64.096C79.092 64.9173 79.4 65.972 79.4 67.26C79.4 68.4173 79.1293 69.444 78.588 70.34C78.0653 71.2173 77.2907 71.908 76.264 72.412C75.256 72.916 74.052 73.168 72.652 73.168C70.412 73.168 68.62 72.6173 67.276 71.516C65.9507 70.4147 65.2507 68.7533 65.176 66.532H69.824C69.8427 67.3533 70.076 68.0067 70.524 68.492C70.972 68.9587 71.6253 69.192 72.484 69.192C73.212 69.192 73.772 68.9867 74.164 68.576C74.5747 68.1467 74.78 67.5867 74.78 66.896C74.78 66 74.4907 65.356 73.912 64.964C73.352 64.5533 72.4467 64.348 71.196 64.348H70.3V60.456H71.196C72.148 60.456 72.9133 60.2973 73.492 59.98C74.0893 59.644 74.388 59.056 74.388 58.216C74.388 57.544 74.2013 57.0213 73.828 56.648C73.4547 56.2747 72.9413 56.088 72.288 56.088C71.5787 56.088 71.0467 56.3027 70.692 56.732C70.356 57.1613 70.16 57.6933 70.104 58.328H65.428Z" fill="#C8C8C8"/>
</svg>
