<svg width="218" height="156" viewBox="0 0 218 156" fill="none" xmlns="http://www.w3.org/2000/svg">
<path d="M18.6722 99.1298L174.714 18.7181L164.704 4.58626L215.675 0L192.686 41.2706L181.998 27.8964L23.8842 114.743L18.6722 99.1298Z" fill="#FF725E"/>
<path d="M45.7421 156.273H9.79822V225.509H45.7421V156.273Z" fill="#263238"/>
<path d="M35.9439 156.273H0V225.509H35.9439V156.273Z" fill="#627A86"/>
<path d="M101.828 133.18H65.8837V225.508H101.828V133.18Z" fill="#263238"/>
<path d="M90.9676 133.18H55.0237V225.508H90.9676V133.18Z" fill="#627A86"/>
<path d="M159.52 103.93H123.576V225.509H159.52V103.93Z" fill="#263238"/>
<path d="M148.723 103.93H112.78V225.509H148.723V103.93Z" fill="#627A86"/>
<path d="M217.454 78.3125H181.51V225.509H217.454V78.3125Z" fill="#263238"/>
<path d="M203.139 78.3125H167.195V225.509H203.139V78.3125Z" fill="#627A86"/>
<path d="M19.6307 145.304L22.9771 142.548L17.8571 136.234L12.9149 140.195L13.2077 140.608C14.5221 142.428 20.0268 149.764 21.324 150.642C22.7705 151.641 19.6307 145.304 19.6307 145.304Z" fill="#FF725E"/>
<g opacity="0.5">
<path opacity="0.5" d="M14.8207 142.492C15.2804 141.958 15.5276 141.274 15.5152 140.569C15.5088 139.884 15.2444 139.226 14.7748 138.727L13.0126 140.156L14.8207 142.492Z" fill="white"/>
</g>
<g opacity="0.4">
<path opacity="0.4" d="M21.0714 148.476C21.0714 148.476 22.053 150.772 21.5536 150.807C21.0542 150.841 15.2396 143.62 12.9436 140.217L13.0928 140.113L19.8029 148.574C19.8029 148.574 20.7557 148.121 21.0714 148.476Z" fill="white"/>
</g>
<path d="M12.9896 140.012C12.9896 140.012 12.9896 140.058 13.0642 140.132L13.2996 140.459L14.1778 141.648C14.9297 142.641 15.9859 144.007 17.1798 145.488C18.3737 146.969 19.4758 148.283 20.3139 149.224L21.2897 150.332L21.5594 150.631L21.6628 150.728L21.5767 150.613L21.3184 150.309L20.3655 149.161C19.5619 148.208 18.4541 146.865 17.2602 145.407C16.0663 143.949 14.9986 142.572 14.2352 141.584L13.3283 140.436L13.0815 140.121C13.053 140.083 13.0223 140.046 12.9896 140.012Z" fill="#263238"/>
<path d="M19.7054 148.656C19.9366 148.551 20.1794 148.474 20.4287 148.426C20.6798 148.41 20.9321 148.421 21.1806 148.461C20.9511 148.324 20.6793 148.277 20.4172 148.329C20.148 148.348 19.8949 148.464 19.7054 148.656Z" fill="#263238"/>
<path d="M19.1428 146.025C19.1428 146.025 19.3265 146.025 19.5446 146.025C19.7628 146.025 19.9407 145.956 19.935 145.928C19.9292 145.899 19.7513 145.899 19.5332 145.928C19.315 145.956 19.1371 145.997 19.1428 146.025Z" fill="#263238"/>
<path d="M18.9994 145.299C18.9994 145.328 19.1429 145.373 19.3266 145.402C19.4396 145.431 19.558 145.431 19.671 145.402C19.671 145.373 19.5275 145.328 19.3438 145.299C19.1601 145.27 18.9994 145.27 18.9994 145.299Z" fill="#263238"/>
<path d="M19.3323 144.494C19.3323 144.494 19.4126 144.672 19.5561 144.855C19.6996 145.039 19.8374 145.171 19.8604 145.154C19.8099 145.02 19.7339 144.897 19.6365 144.792C19.4873 144.609 19.3552 144.476 19.3323 144.494Z" fill="#263238"/>
<path d="M19.6594 144.04C19.6775 144.207 19.7455 144.365 19.8546 144.493C20.0096 144.723 20.1932 144.849 20.2105 144.832C20.1311 144.691 20.0389 144.559 19.9349 144.436C19.7857 144.212 19.6881 144.028 19.6594 144.04Z" fill="#263238"/>
<path d="M19.8661 145.799C19.9511 145.952 20.064 146.088 20.199 146.2C20.335 146.333 20.4829 146.452 20.641 146.556C20.7353 146.622 20.8375 146.676 20.9452 146.717C20.9778 146.731 21.013 146.739 21.0486 146.739C21.0841 146.739 21.1193 146.731 21.1519 146.717C21.1883 146.697 21.2177 146.667 21.2362 146.63C21.2547 146.593 21.2613 146.551 21.2552 146.51C21.2061 146.295 21.0836 146.103 20.9087 145.968C20.7338 145.833 20.5175 145.763 20.2966 145.77C20.1657 145.772 20.0368 145.802 19.9178 145.856C19.8725 145.874 19.8315 145.902 19.7972 145.936C19.9566 145.875 20.1257 145.842 20.2966 145.839C20.4773 145.846 20.6524 145.903 20.8017 146.005C20.9829 146.122 21.1107 146.306 21.1576 146.516C21.1576 146.614 21.0658 146.654 20.9682 146.614C20.8688 146.576 20.7743 146.525 20.6869 146.465C20.5293 146.368 20.3796 146.258 20.2392 146.137C20.0039 145.936 19.8776 145.787 19.8661 145.799Z" fill="#263238"/>
<path d="M19.9293 145.935C20.0538 145.911 20.1668 145.847 20.2507 145.751C20.3466 145.653 20.4174 145.533 20.4574 145.401C20.4895 145.318 20.5 145.228 20.4879 145.14C20.4759 145.052 20.4417 144.968 20.3885 144.896C20.3698 144.877 20.3475 144.862 20.3228 144.852C20.2982 144.841 20.2717 144.836 20.245 144.836C20.2183 144.836 20.1918 144.841 20.1672 144.852C20.1425 144.862 20.1202 144.877 20.1015 144.896C20.0458 144.958 20.0029 145.03 19.9752 145.109C19.9295 145.235 19.8987 145.366 19.8834 145.499C19.8541 145.62 19.8541 145.746 19.8834 145.866C19.8834 145.866 19.8834 145.729 19.9235 145.51C19.9471 145.385 19.9836 145.261 20.0326 145.143C20.0728 145.017 20.1933 144.856 20.2966 144.942C20.3342 145.002 20.3578 145.07 20.3657 145.141C20.3736 145.211 20.3657 145.283 20.3426 145.35C20.3078 145.469 20.2492 145.581 20.1704 145.677C20.0995 145.771 20.0187 145.858 19.9293 145.935Z" fill="#263238"/>
<path d="M14.8207 138.743C14.8207 138.743 14.9814 138.909 15.1823 139.219C15.4374 139.627 15.5726 140.099 15.5726 140.58C15.5726 141.061 15.4374 141.532 15.1823 141.94C14.9871 142.256 14.8149 142.416 14.8264 142.428C14.8379 142.439 14.8781 142.399 14.9527 142.325C15.0596 142.22 15.1558 142.104 15.2397 141.98C15.5152 141.565 15.6629 141.078 15.6645 140.58C15.6573 140.08 15.5014 139.595 15.2167 139.185C15.1311 139.06 15.033 138.945 14.924 138.84C14.8723 138.772 14.8264 138.737 14.8207 138.743Z" fill="#263238"/>
<path d="M17.9777 137.27C17.5202 137.574 17.0813 137.906 16.6632 138.263C16.2178 138.597 15.7905 138.956 15.3832 139.336C15.8521 139.035 16.3007 138.703 16.7263 138.343C17.1636 138.009 17.5814 137.651 17.9777 137.27Z" fill="#263238"/>
<path d="M16.0892 142.762C16.2613 143.121 16.4814 143.455 16.7436 143.755C16.9776 144.079 17.2536 144.371 17.5644 144.622C17.5644 144.622 17.2258 144.209 16.8182 143.698C16.4107 143.187 16.0892 142.745 16.0892 142.762Z" fill="#263238"/>
<path d="M15.0789 141.52C15.0789 141.52 15.0215 141.629 14.9584 141.743C14.8952 141.858 14.8321 141.956 14.855 141.973C14.878 141.99 14.9813 141.927 15.0502 141.789C15.1191 141.652 15.1076 141.525 15.0789 141.52Z" fill="#263238"/>
<path d="M15.2799 140.586C15.2799 140.586 15.2225 140.678 15.211 140.798C15.1996 140.919 15.211 141.016 15.211 141.016C15.211 141.016 15.2684 140.925 15.2857 140.81C15.3029 140.695 15.3086 140.592 15.2799 140.586Z" fill="#263238"/>
<path d="M15.0043 139.707C15.0043 139.707 15.0559 139.811 15.1019 139.931C15.1478 140.052 15.1478 140.155 15.1765 140.161C15.2052 140.167 15.2454 140.04 15.1765 139.897C15.1076 139.753 15.0215 139.685 15.0043 139.707Z" fill="#263238"/>
<path d="M14.7461 139.125C14.7461 139.125 14.7461 139.2 14.7461 139.269C14.7461 139.338 14.8092 139.384 14.8322 139.378C14.8552 139.372 14.8322 139.303 14.8322 139.235C14.8322 139.166 14.7748 139.12 14.7461 139.125Z" fill="#263238"/>
<path d="M83.4481 130.946L83.5858 126.613L75.4695 126.297L75.1997 132.611L75.6991 132.663C77.9377 132.869 87.0815 133.575 88.5969 133.179C90.2844 132.766 83.4481 130.946 83.4481 130.946Z" fill="#FF725E"/>
<g opacity="0.5">
<path opacity="0.5" d="M78.1443 132.685C78.0506 131.996 77.705 131.366 77.1743 130.917C76.6553 130.47 75.9879 130.232 75.303 130.251L75.2112 132.518L78.1443 132.685Z" fill="white"/>
</g>
<g opacity="0.4">
<path opacity="0.4" d="M86.783 131.957C86.783 131.957 89.1709 132.749 88.8552 133.134C88.5395 133.518 79.2694 133.134 75.1997 132.64V132.456L86.0081 132.973C86.0081 132.973 86.3123 131.957 86.783 131.957Z" fill="white"/>
</g>
<path d="M75.0907 132.445H75.2285L75.6303 132.485L77.1054 132.606C78.3453 132.698 80.0673 132.807 81.973 132.882C83.8786 132.956 85.5949 132.991 86.8462 132.996H88.7232C88.7709 133.001 88.819 133.001 88.8667 132.996H88.7232H88.3214L86.8462 132.968C85.6006 132.968 83.8786 132.899 81.973 132.824C80.0673 132.75 78.351 132.652 77.1054 132.577L75.6303 132.485H75.2342L75.0907 132.445Z" fill="#263238"/>
<path d="M86.0196 133.099C86.0916 132.857 86.1918 132.624 86.3181 132.405C86.4756 132.206 86.6525 132.023 86.8462 131.859C86.5892 131.943 86.3724 132.119 86.2377 132.353C86.0723 132.565 85.9942 132.832 86.0196 133.099Z" fill="#263238"/>
<path d="M83.672 131.79C83.672 131.79 83.8098 131.67 83.936 131.486C84.0623 131.303 84.1484 131.148 84.1254 131.13C84.1025 131.113 83.982 131.251 83.8557 131.435C83.7294 131.618 83.649 131.773 83.672 131.79Z" fill="#263238"/>
<path d="M83.0291 131.421C83.0291 131.421 83.1783 131.357 83.3218 131.243C83.4653 131.128 83.5686 131.007 83.5514 130.984C83.5342 130.961 83.4022 131.042 83.2587 131.162C83.1152 131.283 83.0119 131.398 83.0291 131.421Z" fill="#263238"/>
<path d="M82.6388 130.639C82.7742 130.69 82.9188 130.714 83.0635 130.708C83.2054 130.732 83.351 130.722 83.4883 130.679C83.3557 130.624 83.2124 130.601 83.0693 130.61C82.9255 130.587 82.7782 130.597 82.6388 130.639Z" fill="#263238"/>
<path d="M82.5182 130.086C82.6549 130.187 82.8192 130.243 82.9889 130.247C83.1526 130.278 83.3218 130.262 83.4768 130.201C83.3202 130.167 83.1605 130.15 83.0004 130.149C82.8412 130.117 82.6801 130.096 82.5182 130.086Z" fill="#263238"/>
<path d="M83.9705 131.091C84.1431 131.123 84.3202 131.123 84.4928 131.091C84.687 131.079 84.8793 131.046 85.0668 130.994C85.178 130.965 85.2858 130.925 85.3882 130.873C85.4205 130.858 85.4493 130.836 85.473 130.81C85.4966 130.783 85.5147 130.752 85.526 130.718C85.5347 130.679 85.5323 130.639 85.5191 130.601C85.5059 130.564 85.4825 130.531 85.4514 130.506C85.257 130.4 85.0318 130.366 84.8148 130.409C84.5977 130.452 84.4026 130.569 84.2632 130.741C84.1782 130.84 84.1138 130.955 84.0738 131.08C84.0623 131.127 84.0623 131.176 84.0738 131.223C84.1334 131.064 84.2209 130.916 84.3321 130.787C84.4537 130.654 84.6111 130.558 84.7855 130.512C84.8882 130.481 84.996 130.472 85.1025 130.483C85.2089 130.495 85.3119 130.528 85.4055 130.58C85.4858 130.644 85.4514 130.741 85.3595 130.793C85.2635 130.839 85.1636 130.878 85.0611 130.908C84.8733 130.962 84.6813 131 84.4871 131.022C84.1714 131.085 83.9762 131.08 83.9705 131.091Z" fill="#263238"/>
<path d="M84.1082 131.125C84.1723 131.016 84.1985 130.889 84.1829 130.763C84.1699 130.628 84.1267 130.496 84.0566 130.379C84.0161 130.299 83.9557 130.232 83.8813 130.182C83.8068 130.133 83.7209 130.104 83.6318 130.098C83.6053 130.101 83.5798 130.11 83.5567 130.123C83.5336 130.137 83.5135 130.155 83.4975 130.176C83.4814 130.198 83.4698 130.222 83.4633 130.248C83.4568 130.274 83.4555 130.301 83.4596 130.327C83.4698 130.412 83.4971 130.494 83.54 130.568C83.6038 130.685 83.6829 130.794 83.7753 130.89C83.9303 131.056 84.0566 131.125 84.0623 131.114C84.068 131.102 83.9647 131.016 83.827 130.844C83.7458 130.745 83.6764 130.637 83.6203 130.522C83.5514 130.413 83.5113 130.212 83.6203 130.195C83.7294 130.178 83.8786 130.322 83.9532 130.425C84.0241 130.53 84.0711 130.65 84.091 130.775C84.106 130.891 84.1117 131.008 84.1082 131.125Z" fill="#263238"/>
<path d="M75.3433 130.236C75.3433 130.236 75.5786 130.236 75.9173 130.276C76.3914 130.348 76.8375 130.547 77.2088 130.85C77.5706 131.167 77.8369 131.579 77.9779 132.039C78.087 132.394 78.0927 132.613 78.11 132.613C78.1198 132.559 78.1198 132.505 78.11 132.452C78.1041 132.302 78.081 132.154 78.0411 132.01C77.912 131.527 77.6423 131.093 77.2662 130.764C76.8837 130.447 76.417 130.247 75.923 130.19C75.7741 130.176 75.6242 130.176 75.4753 130.19C75.4007 130.213 75.3433 130.225 75.3433 130.236Z" fill="#263238"/>
<path d="M76.319 126.891C76.2377 127.442 76.1916 127.998 76.1813 128.555C76.1363 129.111 76.1248 129.669 76.1469 130.226C76.2207 129.673 76.2647 129.118 76.2789 128.561C76.3273 128.006 76.3408 127.448 76.319 126.891Z" fill="#263238"/>
<path d="M79.1948 131.935C79.5792 132.045 79.9773 132.101 80.3773 132.101C80.7737 132.136 81.1729 132.121 81.5655 132.055C81.5655 132.026 81.0374 132.055 80.383 132.004C79.7286 131.952 79.2293 131.906 79.1948 131.935Z" fill="#263238"/>
<path d="M77.6047 131.874C77.6047 131.874 77.6449 131.988 77.6966 132.115C77.7482 132.241 77.7712 132.344 77.7942 132.344C77.8171 132.344 77.8458 132.218 77.7942 132.074C77.7425 131.931 77.622 131.856 77.6047 131.874Z" fill="#263238"/>
<path d="M77.0365 131.105C77.0365 131.105 77.0365 131.208 77.1456 131.3C77.2546 131.392 77.3063 131.444 77.3292 131.426C77.3522 131.409 77.3005 131.323 77.2202 131.231C77.1398 131.139 77.0537 131.088 77.0365 131.105Z" fill="#263238"/>
<path d="M76.1927 130.728C76.1927 130.757 76.3018 130.757 76.4223 130.803C76.5429 130.849 76.6232 130.918 76.6462 130.9C76.6691 130.883 76.6003 130.768 76.4568 130.711C76.3133 130.654 76.1812 130.7 76.1927 130.728Z" fill="#263238"/>
<path d="M75.5844 130.544C75.5844 130.544 75.6188 130.607 75.6877 130.636C75.7566 130.665 75.814 130.67 75.8254 130.636C75.8369 130.602 75.791 130.567 75.7279 130.538C75.6647 130.51 75.5958 130.515 75.5844 130.544Z" fill="#263238"/>
<path d="M87.1503 22.1518C86.4271 21.9452 85.1987 25.8598 84.9749 24.8668C84.751 23.8738 87.0355 20.2748 86.2664 20.0682C85.2676 19.8271 84.0565 23.9484 83.9302 24.2871C83.8039 24.6257 83.3045 24.4535 83.4365 24.1551C83.626 23.7188 85.5087 19.1153 84.5271 18.8685C83.9818 18.7308 83.8269 19.7295 83.8269 19.7295C83.8269 19.7295 82.3861 24.1665 81.9269 24.0345C81.4677 23.9025 82.2197 21.2678 82.5411 20.3954C82.8625 19.5229 82.5755 19.0407 82.0762 19.2129C81.7375 19.3335 80.6986 21.9796 80.4001 22.8463C80.1016 23.7131 79.3382 26.1067 78.7584 24.62C78.1787 23.1333 77.1685 22.2092 76.7207 22.1461C76.6163 22.1417 76.5131 22.1703 76.4257 22.2278C76.3383 22.2853 76.2712 22.3687 76.2338 22.4664C76.1964 22.564 76.1906 22.6709 76.2172 22.7721C76.2438 22.8732 76.3015 22.9634 76.3821 23.03C76.7324 23.4401 77.0224 23.8982 77.2431 24.3904C77.4397 24.7788 77.5678 25.1983 77.6219 25.6302C77.7433 26.4932 77.7798 27.3661 77.731 28.2362L69.8901 44.5435L55.4942 40.0663L54.042 48.2229C54.042 48.2229 72.984 55.2659 74.132 54.5369C76.6576 52.9641 83.4882 29.5105 83.4882 29.5105C84.6103 27.877 85.645 26.1851 86.5878 24.4421C87.6153 22.324 87.4258 22.2322 87.1503 22.1518Z" fill="#B78876"/>
<path d="M13.4488 77.2661C13.0445 76.9072 12.6946 76.4915 12.4099 76.032C12.1553 75.6843 11.9612 75.2962 11.8359 74.884C11.6694 74.2583 11.5372 73.6241 11.4398 72.984C11.4398 72.984 16.3934 58.2035 17.7021 55.919C19.0109 53.6345 37.0746 47.1311 37.0746 47.1311L34.7786 38.125C34.7786 38.125 18.3106 44.7432 12.0138 49.7255C7.99579 52.894 5.12579 72.5478 5.12579 72.565C4.37478 74.0854 3.70606 75.6451 3.12253 77.2374C2.39929 79.5334 2.60019 79.5736 2.87571 79.6137C3.62765 79.7171 4.30497 75.6761 4.66085 76.6289C5.01673 77.5818 3.26029 81.4792 4.04667 81.5539C5.06839 81.6572 5.69979 77.4096 5.76867 77.0537C5.83755 76.6978 6.34267 76.8011 6.27379 77.1168C6.14751 77.576 4.91341 82.3976 5.91791 82.5067C6.49191 82.5641 6.49191 81.5539 6.49191 81.5539C6.49191 81.5539 7.31273 76.9619 7.78341 77.0307C8.25409 77.0996 7.87525 79.8089 7.68009 80.7158C7.48493 81.6227 7.82933 82.0705 8.30001 81.8236C8.61571 81.6572 9.28729 78.8962 9.44801 78.0008C9.60873 77.1054 10.022 74.6199 10.8314 76.0148C11.6407 77.4096 12.783 78.2017 13.2192 78.2017C13.3286 78.1988 13.4341 78.16 13.5194 78.0913C13.6046 78.0226 13.6649 77.9278 13.691 77.8215C13.7171 77.7152 13.7076 77.6032 13.6638 77.5028C13.62 77.4025 13.5445 77.3193 13.4488 77.2661Z" fill="#B78876"/>
<path d="M14.2467 137.175L22.4032 146.296L48.1472 120.323C51.3024 117.132 53.1808 112.898 53.428 108.418L54.5243 88.0982L37.8094 77.8867L39.1411 106.328C39.2138 107.859 38.9723 109.388 38.4313 110.821C37.8903 112.255 37.0613 113.562 35.9956 114.663L14.2467 137.175Z" fill="#263238"/>
<path d="M34.4572 78.673C34.3022 78.8797 33.7282 91.8176 44.0774 93.4363C44.6974 93.5339 48.4398 93.9127 48.4398 93.9127C60.1839 93.8209 76.032 93.3387 76.032 93.3387L73.3974 129.455L85.8704 129.495L89.6645 90.9394C90.4968 80.263 81.485 78.4205 76.5199 78.3114L52.6358 78.0703L34.4572 78.673Z" fill="#263238"/>
<path d="M46.6031 78.6721C46.6024 79.0753 46.4954 79.4713 46.2931 79.8201C45.868 80.7193 45.1625 81.4562 44.2827 81.9199C43.4028 82.3836 42.3961 82.5492 41.4141 82.3916C41.0034 82.358 40.6081 82.2197 40.2661 81.9898C40.2661 81.9439 40.7138 82.1161 41.4141 82.1792C42.3468 82.2758 43.2872 82.0941 44.1167 81.6568C44.9462 81.2196 45.6276 80.5465 46.075 79.7225C46.4596 79.1141 46.5572 78.6606 46.6031 78.6721Z" fill="#455A64"/>
<path d="M79.2981 90.9688C78.8693 91.4641 78.3681 91.8917 77.8114 92.2373C77.3097 92.6577 76.7488 93.002 76.1469 93.259C76.5723 92.7603 77.0741 92.3321 77.6335 91.9905C78.1343 91.5687 78.6954 91.2244 79.2981 90.9688Z" fill="#455A64"/>
<path d="M79.8032 93.1245C78.5699 93.4605 77.2914 93.6 76.0148 93.5377C76.6185 93.3237 77.2516 93.2037 77.8918 93.1819C78.5218 93.0612 79.167 93.0418 79.8032 93.1245Z" fill="#455A64"/>
<path d="M40.289 41.1516C40.8753 41.155 41.4563 41.0401 41.9972 40.8136C42.538 40.5871 43.0276 40.2538 43.4365 39.8336C43.8454 39.4134 44.1653 38.915 44.3771 38.3682C44.5888 37.8214 44.688 37.2375 44.6686 36.6515C44.5883 34.2751 44.4964 31.8758 44.4964 31.8758C44.4964 31.8758 48.061 31.3018 48.0667 27.72C48.0725 24.1383 47.3722 15.9645 47.3722 15.9645C45.3325 15.1171 43.1036 14.8299 40.9158 15.1327C38.728 15.4354 36.6607 16.3171 34.9279 17.6865L34.4055 18.0998L35.9668 37.1795C36.0626 38.2612 36.559 39.2681 37.3585 40.0028C38.158 40.7376 39.2031 41.1473 40.289 41.1516Z" fill="#B78876"/>
<path d="M46.1266 22.3277C46.0239 22.2364 45.9616 22.108 45.9535 21.9707C45.9455 21.8335 45.9922 21.6986 46.0836 21.5959C46.1749 21.4931 46.3033 21.4308 46.4406 21.4228C46.5778 21.4147 46.7127 21.4615 46.8154 21.5528C46.8663 21.598 46.9078 21.6528 46.9375 21.7141C46.9672 21.7754 46.9845 21.8419 46.9885 21.9098C46.9925 21.9778 46.9831 22.0459 46.9608 22.1102C46.9385 22.1745 46.9037 22.2338 46.8585 22.2847C46.8132 22.3355 46.7584 22.377 46.6972 22.4067C46.6359 22.4364 46.5694 22.4538 46.5015 22.4578C46.4335 22.4618 46.3654 22.4523 46.3011 22.43C46.2368 22.4077 46.1775 22.3729 46.1266 22.3277Z" fill="#263238"/>
<path d="M47.4697 21.6363C47.4123 21.6937 47.0622 21.4296 46.5685 21.4354C46.0749 21.4411 45.7247 21.6937 45.6673 21.6305C45.6099 21.5674 45.6673 21.4928 45.851 21.3722C46.0586 21.2186 46.3103 21.1361 46.5685 21.1369C46.8274 21.1322 47.0803 21.2151 47.286 21.3722C47.441 21.4928 47.4984 21.6076 47.4697 21.6363Z" fill="#263238"/>
<path d="M41.4427 21.9925C41.5299 22.0453 41.5996 22.1228 41.6428 22.2151C41.6861 22.3075 41.7011 22.4106 41.6859 22.5114C41.6706 22.6123 41.6259 22.7064 41.5573 22.7818C41.4887 22.8573 41.3993 22.9108 41.3003 22.9355C41.2014 22.9602 41.0973 22.9551 41.0013 22.9208C40.9053 22.8865 40.8215 22.8246 40.7606 22.7427C40.6997 22.6609 40.6644 22.5629 40.6591 22.4611C40.6539 22.3592 40.6788 22.2581 40.7309 22.1704C40.8034 22.0543 40.9181 21.9708 41.0509 21.9376C41.1837 21.9044 41.3241 21.9241 41.4427 21.9925Z" fill="#263238"/>
<path d="M42.143 22.1283C42.0856 22.1915 41.7298 21.9217 41.2419 21.9274C40.754 21.9332 40.3981 22.1857 40.3407 22.1226C40.2833 22.0595 40.3407 21.9848 40.5244 21.8643C40.7323 21.7114 40.9837 21.6289 41.2419 21.6289C41.5 21.6289 41.7514 21.7114 41.9594 21.8643C42.1143 21.9848 42.166 22.0996 42.143 22.1283Z" fill="#263238"/>
<path d="M44.152 25.8018C44.4034 25.6959 44.6716 25.6357 44.9441 25.6239C45.0704 25.6239 45.1737 25.578 45.1795 25.5091C45.1818 25.3807 45.1501 25.2539 45.0876 25.1417L44.6858 24.1487C44.3078 23.3083 44.0173 22.4312 43.8191 21.5312C44.2826 22.33 44.6671 23.172 44.9671 24.0454C45.0991 24.3955 45.2254 24.7227 45.3459 25.0499C45.433 25.2134 45.4614 25.4018 45.4263 25.5837C45.4073 25.633 45.3773 25.6773 45.3385 25.7131C45.2996 25.7489 45.2531 25.7754 45.2024 25.7903C45.1303 25.8032 45.0564 25.8032 44.9843 25.7903C44.7098 25.8436 44.4279 25.8475 44.152 25.8018Z" fill="#263238"/>
<path d="M42.562 26.3594C43.3092 26.7568 44.1336 26.9879 44.9785 27.0367C44.8168 27.2989 44.5709 27.4985 44.2811 27.6028C43.9912 27.707 43.6745 27.7098 43.3828 27.6107C42.3094 27.2146 42.562 26.3594 42.562 26.3594Z" fill="white"/>
<path d="M44.5022 31.8232C42.8568 31.875 41.2335 31.4332 39.8413 30.5547C39.8413 30.5547 40.9893 33.109 44.5194 32.7531L44.5022 31.8232Z" fill="#A36957"/>
<path d="M33.9979 21.2909C34.1642 20.5931 34.1284 19.8625 33.8946 19.1843C33.6611 18.5116 33.5333 17.8068 33.5158 17.095C33.5095 16.7328 33.6094 16.3767 33.8032 16.0706C33.997 15.7646 34.2763 15.5221 34.6064 15.373C35.0885 15.2122 35.6281 15.3385 36.116 15.2008C36.6 15.0032 37.0306 14.6945 37.3731 14.2996C38.8052 12.9862 40.5807 12.1064 42.4931 11.7625C43.0467 11.6266 43.6282 11.6585 44.1635 11.8543C44.4252 11.9616 44.64 12.1586 44.7695 12.4101C44.8989 12.6615 44.9343 12.9509 44.8695 13.2262C45.5683 12.7697 46.3474 12.4503 47.1655 12.2848C47.5719 12.2076 47.9918 12.2452 48.378 12.3932C48.7643 12.5412 49.1017 12.7939 49.3524 13.1229C49.8002 13.8117 49.5132 14.9367 48.7153 15.1376C48.9432 15.1902 49.1583 15.2875 49.3481 15.424C49.538 15.5605 49.6987 15.7335 49.8211 15.9328C49.9434 16.132 50.0249 16.3536 50.0607 16.5847C50.0965 16.8158 50.086 17.0517 50.0298 17.2786C49.8883 17.7313 49.6249 18.1362 49.2685 18.4491C48.9121 18.7619 48.4764 18.9706 48.0093 19.0523C47.0706 19.2002 46.1093 19.0788 45.2369 18.7022C44.3586 18.3692 43.5149 17.91 42.6481 17.5542C42.3527 17.953 41.9589 18.2685 41.5052 18.4697C41.0515 18.6709 40.5533 18.751 40.0594 18.7022C39.078 18.5943 38.1236 18.3125 37.241 17.8699C37.406 18.8875 37.3193 19.93 36.9885 20.9063C36.7805 21.2743 36.602 21.6581 36.4547 22.0543C36.37 22.6145 36.3373 23.1814 36.3571 23.7476C36.3112 24.3216 36.0012 24.9415 35.4387 25.0276C35.1825 25.0378 34.9303 24.962 34.7222 24.8122C34.5142 24.6624 34.3623 24.4473 34.2907 24.2011C34.1607 23.7031 34.1275 23.1847 34.1931 22.6742C34.1931 22.1634 33.7626 21.7673 34.0152 21.3081" fill="#263238"/>
<path d="M34.9164 22.4459C34.9061 22.3037 34.8399 22.1714 34.7324 22.0778C34.6248 21.9842 34.4846 21.937 34.3424 21.9465C33.6823 21.9752 32.6204 22.3196 32.6204 24.1564C32.6663 26.7796 35.1287 25.9473 35.1345 25.8784C35.1402 25.8095 34.9967 23.4619 34.9164 22.4459Z" fill="#B78876"/>
<path d="M34.5318 24.8824C34.5318 24.8824 34.4858 24.9169 34.4112 24.9513C34.3008 24.996 34.1773 24.996 34.0668 24.9513C33.8972 24.8454 33.7582 24.697 33.6635 24.5208C33.5689 24.3446 33.5219 24.1468 33.5273 23.9468C33.5161 23.7229 33.5553 23.4992 33.6421 23.2925C33.6679 23.2107 33.7118 23.1358 33.7704 23.0732C33.829 23.0107 33.9009 22.962 33.9807 22.9308C34.0342 22.9172 34.0907 22.9223 34.1408 22.9453C34.191 22.9683 34.2317 23.0077 34.2562 23.0571C34.2907 23.126 34.2562 23.1777 34.2907 23.1834C34.3251 23.1891 34.3423 23.1375 34.3194 23.0284C34.3043 22.9646 34.2679 22.9079 34.2161 22.8677C34.1802 22.841 34.1394 22.8217 34.0961 22.8109C34.0528 22.8001 34.0077 22.7979 33.9635 22.8046C33.8559 22.8266 33.7559 22.8762 33.6733 22.9487C33.5908 23.0212 33.5286 23.114 33.4928 23.2178C33.3837 23.4468 33.3325 23.6991 33.3436 23.9526C33.3305 24.1908 33.3892 24.4276 33.5119 24.6322C33.6347 24.8368 33.816 25 34.0324 25.1006C34.1029 25.1193 34.1767 25.1218 34.2483 25.1079C34.3198 25.094 34.3873 25.064 34.4457 25.0202C34.526 24.9456 34.5375 24.8882 34.5318 24.8824Z" fill="#A36957"/>
<path d="M42.0397 20.2299C41.6382 20.3213 41.2319 20.3903 40.8228 20.4366C40.1685 20.5858 39.6748 20.8671 39.6404 20.7982C39.6059 20.7293 40.0307 20.316 40.7539 20.1496C40.9625 20.0753 41.184 20.0441 41.4051 20.0579C41.6261 20.0717 41.842 20.1302 42.0397 20.2299Z" fill="#263238"/>
<path d="M43.4861 30.246C43.4058 30.246 43.3484 29.8844 43.3599 29.4425C43.3713 29.0005 43.4517 28.6389 43.5378 28.6446C43.6239 28.6503 43.6756 29.0062 43.6583 29.4482C43.6411 29.8902 43.5665 30.2518 43.4861 30.246Z" fill="#263238"/>
<path d="M44.2152 29.9875C44.1348 29.9875 44.0659 29.6832 44.0659 29.3101C44.0659 28.937 44.1348 28.6328 44.2152 28.6328C44.2955 28.6328 44.3644 28.937 44.3644 29.3101C44.3644 29.6832 44.2783 29.9875 44.2152 29.9875Z" fill="#263238"/>
<path d="M44.9786 29.7976C44.8982 29.7976 44.8121 29.5393 44.7834 29.2236C44.7547 28.9079 44.7834 28.6152 44.881 28.6095C44.9786 28.6037 45.0532 28.8678 45.0819 29.1835C45.1106 29.4992 45.0647 29.7919 44.9786 29.7976Z" fill="#263238"/>
<path d="M64.2076 42.3294C60.1896 40.6074 57.3196 39.6259 55.1269 38.4205C48.2389 34.6608 46.5571 35.7227 44.9901 35.6423C42.1015 36.7928 38.9282 37.0234 35.9037 36.3024C31.8857 36.7616 29.5897 38.6443 25.101 40.4409L16.1638 45.2338L22.6098 54.2055L30.8812 51.4445C31.5642 54.8885 31.7307 57.638 32.1899 61.8224L33.0681 78.7095L58.1118 78.3249L55.5747 62.2529L54.0536 49.5905L61.418 52.6327L64.2076 42.3007" fill="#FF725E"/>
<g opacity="0.4">
<path opacity="0.4" d="M55.4656 38.5469C55.4656 38.5469 55.4656 38.5469 55.5345 38.6043C55.5957 38.6718 55.6478 38.7471 55.6894 38.8281C55.7549 38.994 55.7822 39.1725 55.7693 39.3504C55.7563 39.5282 55.7036 39.7009 55.6148 39.8556C55.3553 40.3571 54.92 40.7454 54.3922 40.9462C53.6961 41.1466 52.9755 41.249 52.2512 41.2504C51.8436 41.2762 51.4397 41.3436 51.0458 41.4513C50.6375 41.5864 50.2508 41.7797 49.8978 42.0253C49.1516 42.5649 48.4972 43.3168 47.6994 44.0228C47.2874 44.3967 46.816 44.6994 46.3045 44.9183C45.7583 45.1369 45.1619 45.1985 44.5825 45.0962C43.3886 44.8838 42.3956 44.1606 41.3107 43.6727C40.2447 43.2069 39.0699 43.0479 37.9184 43.2135C36.8346 43.3583 35.7611 43.5711 34.704 43.8506C33.7278 44.0914 32.7296 44.2318 31.7249 44.2697C30.8346 44.3036 29.9491 44.1245 29.1419 43.7473C28.4865 43.407 27.9471 42.8795 27.5921 42.232C27.3187 41.7463 27.1893 41.1928 27.219 40.6362C27.2502 40.2872 27.3686 39.9517 27.5634 39.6604C27.632 39.5607 27.713 39.47 27.8045 39.3907C27.5337 39.7551 27.3724 40.1891 27.3396 40.642C27.3271 41.1713 27.4666 41.6932 27.7414 42.1458C28.0885 42.7556 28.6103 43.2474 29.2395 43.5579C30.0187 43.9034 30.8677 44.0625 31.7192 44.0228C32.7056 43.9754 33.6846 43.8273 34.6409 43.5808C35.7094 43.2952 36.7944 43.0747 37.8897 42.9207C39.0921 42.7479 40.3189 42.9149 41.4313 43.4029C42.5793 43.908 43.5321 44.614 44.6285 44.8035C45.1582 44.9029 45.7052 44.8512 46.207 44.6542C46.6883 44.4492 47.1324 44.1661 47.5214 43.8162C48.3078 43.1389 48.9794 42.3754 49.76 41.8244C50.1409 41.5564 50.5611 41.3492 51.0056 41.2102C51.4167 41.1035 51.8382 41.0419 52.2627 41.0265C52.9692 41.0305 53.6733 40.9437 54.3578 40.7683C54.8535 40.5901 55.2703 40.2425 55.5345 39.7867C55.6222 39.646 55.6784 39.488 55.6992 39.3235C55.72 39.159 55.7049 38.992 55.655 38.8339C55.5459 38.6387 55.4484 38.5584 55.4656 38.5469Z" fill="black"/>
</g>
<g opacity="0.4">
<path opacity="0.4" d="M53.5542 50.313C53.4869 50.4332 53.4081 50.5466 53.3188 50.6516C53.0661 50.9561 52.7747 51.2262 52.4521 51.4552C51.9341 51.8221 51.349 52.0834 50.7301 52.2244C49.9101 52.4245 49.0512 52.3987 48.2447 52.1498C47.355 51.88 46.4882 51.3289 45.4665 51.0936C44.3536 50.9275 43.218 51.1636 42.2636 51.7594C41.1744 52.4247 40.0005 52.9402 38.7737 53.292C37.416 53.5878 36.0044 53.5205 34.681 53.0969C34.0132 52.8794 33.3779 52.5724 32.7926 52.1842C32.2186 51.7996 31.702 51.3634 31.1854 50.9731C30.6886 50.5783 30.1472 50.2431 29.5724 49.9743C29.0133 49.7388 28.4241 49.5823 27.8217 49.5094C26.6885 49.4017 25.5505 49.3519 24.4122 49.3601C23.4031 49.3532 22.4015 49.1866 21.4446 48.8665C20.6409 48.5957 19.941 48.0823 19.4413 47.397C19.0697 46.8796 18.8473 46.27 18.7985 45.6349C18.7714 45.2404 18.8445 44.8455 19.0108 44.4869C19.0647 44.3594 19.1383 44.2412 19.229 44.1367C19.229 44.1367 19.1601 44.263 19.0682 44.5098C18.9212 44.8735 18.8699 45.2687 18.919 45.6578C18.9799 46.2668 19.2084 46.8469 19.5791 47.3339C20.0689 47.9778 20.7439 48.4564 21.5135 48.7058C22.4535 49.0001 23.4329 49.1492 24.4179 49.1477C25.5672 49.1274 26.7168 49.1676 27.8619 49.2683C28.4893 49.3426 29.1035 49.5029 29.6872 49.7447C30.2841 50.0206 30.8466 50.3655 31.3633 50.7722C31.8914 51.1682 32.4023 51.5987 32.959 51.9661C33.5216 52.3401 34.1316 52.6374 34.7729 52.85C36.0466 53.2547 37.4038 53.32 38.7105 53.0395C39.9209 52.7006 41.0796 52.1985 42.1545 51.5471C42.6833 51.2662 43.2442 51.0504 43.8249 50.9042C44.3913 50.7726 44.9804 50.7726 45.5469 50.9042C46.6317 51.1682 47.4812 51.7307 48.3365 52.0005C49.1062 52.2498 49.9285 52.2894 50.7186 52.1153C51.3191 51.9893 51.8899 51.7496 52.4004 51.4093C52.83 51.0944 53.2177 50.726 53.5542 50.313Z" fill="black"/>
</g>
<g opacity="0.4">
<path opacity="0.4" d="M62.7095 46.5288C62.7095 46.5804 62.2331 46.6493 61.5615 47.0339C60.6992 47.5738 59.8918 48.1967 59.1507 48.8937C58.3797 49.6097 57.4364 50.1139 56.4127 50.3574C55.9844 50.4652 55.5325 50.4289 55.127 50.254C55.5426 50.2599 55.9578 50.2253 56.3668 50.1507C57.3317 49.8548 58.2181 49.3469 58.9613 48.664C59.7125 47.9509 60.5539 47.3392 61.4639 46.8445C61.8406 46.6228 62.2727 46.5133 62.7095 46.5288Z" fill="black"/>
</g>
<g opacity="0.4">
<path opacity="0.4" d="M54.3922 60.5298C54.3922 60.5298 54.3922 60.6216 54.3061 60.7651C54.1893 60.9783 54.0241 61.1611 53.8239 61.2989C53.4466 61.5392 53.0197 61.6909 52.5753 61.7426C52.1309 61.7943 51.6806 61.7447 51.2581 61.5974C50.179 61.3047 49.0482 60.5814 47.6132 60.4953C46.0532 60.4391 44.4962 60.6727 43.0212 61.1841C41.525 61.7087 39.9895 62.1136 38.4292 62.3953C37.1332 62.6121 35.8024 62.4671 34.5834 61.9763C33.76 61.6489 33.0458 61.0958 32.5228 60.3805C32.3824 60.1871 32.2667 59.977 32.1784 59.7549C32.1421 59.68 32.1151 59.601 32.098 59.5195C32.098 59.5195 32.2473 59.8295 32.6146 60.3059C33.1541 60.9713 33.8616 61.4806 34.6638 61.7811C35.8521 62.2285 37.1395 62.3456 38.3891 62.1198C39.9274 61.827 41.4413 61.4183 42.9179 60.8971C44.4255 60.3745 46.0196 60.1465 47.6132 60.2255C48.3112 60.2886 48.995 60.461 49.6395 60.7364C50.2135 60.9832 50.7875 61.2358 51.2983 61.3908C51.6938 61.5409 52.1175 61.6018 52.5393 61.5691C52.961 61.5363 53.3703 61.4108 53.7378 61.2014C54.0041 61.0301 54.2279 60.8004 54.3922 60.5298Z" fill="black"/>
</g>
<g opacity="0.4">
<path opacity="0.4" d="M56.8777 70.7404C56.8917 70.8297 56.8917 70.9208 56.8777 71.0101C56.829 71.2708 56.7166 71.5153 56.5505 71.7219C56.2226 72.0836 55.8108 72.3591 55.3514 72.5242C54.892 72.6894 54.399 72.7391 53.9159 72.669C53.2628 72.5712 52.6233 72.3978 52.0102 72.1524C51.323 71.8792 50.6065 71.6866 49.8749 71.5784C48.3309 71.3718 46.6433 71.9113 44.9385 72.5255C44.0775 72.8297 43.2165 73.1282 42.3842 73.3406C40.1746 73.891 37.8438 73.6765 35.7717 72.7321C34.8986 72.3481 34.0879 71.8353 33.3667 71.211C33.1622 71.0478 32.9703 70.8693 32.7927 70.6772C32.6721 70.5452 32.609 70.4763 32.6205 70.4648C33.5793 71.3179 34.6634 72.0186 35.8349 72.5427C37.1079 73.0757 38.4728 73.3545 39.8529 73.3636C40.6699 73.3594 41.4834 73.2553 42.2752 73.0536C43.1017 72.8412 43.9398 72.5485 44.795 72.2442C46.517 71.6358 48.239 71.0962 49.8692 71.3086C50.62 71.4233 51.353 71.6335 52.0504 71.9343C52.6474 72.1797 53.2689 72.3606 53.9044 72.4738C54.3581 72.5465 54.8225 72.5105 55.2595 72.3688C55.6966 72.2272 56.0938 71.9838 56.4185 71.6588C56.6468 71.3964 56.8048 71.0804 56.8777 70.7404Z" fill="black"/>
</g>
<g opacity="0.4">
<path opacity="0.4" d="M37.178 49.8757C36.7681 49.4971 36.4023 49.0735 36.0874 48.6129C35.6941 48.2135 35.3528 47.7661 35.0714 47.2812C36.014 47.9195 36.7469 48.8222 37.178 49.8757Z" fill="black"/>
</g>
<g opacity="0.4">
<path opacity="0.4" d="M51.6427 46.1406C51.358 46.6504 50.9915 47.11 50.5579 47.501C50.1926 47.9556 49.7519 48.344 49.2549 48.649C49.537 48.1375 49.9038 47.6775 50.3397 47.2886C50.705 46.834 51.1457 46.4457 51.6427 46.1406Z" fill="black"/>
</g>
<g opacity="0.4">
<path opacity="0.4" d="M59.7132 45.3475C59.6616 45.4164 59.1392 45.0892 58.4906 44.6185C57.842 44.1478 57.4058 43.7173 57.4517 43.6484C57.9038 43.8073 58.3195 44.0552 58.6743 44.3774C59.2885 44.8481 59.7534 45.2843 59.7132 45.3475Z" fill="black"/>
</g>
<g opacity="0.4">
<path opacity="0.4" d="M23.7292 43.5625C23.831 44.019 23.768 44.4969 23.5512 44.9114C23.3044 45.6174 22.8969 46.0594 22.8337 46.0594C22.9341 45.6372 23.0804 45.2272 23.27 44.8368C23.3744 44.396 23.5284 43.9685 23.7292 43.5625Z" fill="black"/>
</g>
<g opacity="0.4">
<path opacity="0.4" d="M37.6199 69.4992C37.5511 69.5508 37.0459 69.04 36.5236 68.3512C36.1559 67.9682 35.862 67.5207 35.6569 67.031C35.7257 66.9793 36.2309 67.4844 36.7532 68.179C37.1212 68.5617 37.415 69.0094 37.6199 69.4992Z" fill="black"/>
</g>
<g opacity="0.4">
<path opacity="0.4" d="M44.7892 66.2305C44.4824 66.7345 44.0945 67.1845 43.6412 67.5622C43.2501 68.0106 42.784 68.3874 42.2635 68.6757C42.5725 68.1732 42.9601 67.7236 43.4116 67.344C43.8065 66.8997 44.2719 66.5235 44.7892 66.2305Z" fill="black"/>
</g>
<g opacity="0.4">
<path opacity="0.4" d="M53.6804 68.6106C53.1685 68.4208 52.6957 68.1387 52.2856 67.7783C51.5566 67.2503 51.0113 66.7681 51.063 66.6992C51.5731 66.8954 52.0451 67.179 52.4578 67.5373C52.9275 67.8173 53.3419 68.1811 53.6804 68.6106Z" fill="black"/>
</g>
<g opacity="0.4">
<path opacity="0.4" d="M39.5772 56.2227C39.1045 56.6659 38.5662 57.0338 37.9815 57.3133C37.452 57.676 36.8717 57.9585 36.2595 58.1513C36.7341 57.706 37.2742 57.3362 37.861 57.055C38.3866 56.6904 38.9655 56.4096 39.5772 56.2227Z" fill="black"/>
</g>
<g opacity="0.4">
<path opacity="0.4" d="M47.4181 56.892C46.9079 56.882 46.4209 56.6765 46.0578 56.318C45.6343 56.0257 45.3435 55.578 45.2484 55.0724C45.323 55.0322 45.656 55.589 46.2529 56.0884C46.8499 56.5877 47.4411 56.8059 47.4181 56.892Z" fill="black"/>
</g>
<g opacity="0.4">
<path opacity="0.4" d="M36.6498 39.1719C36.6843 39.2465 36.1619 39.5622 35.5018 39.8664C35.1048 40.0992 34.6624 40.2441 34.2046 40.2912C34.1702 40.2165 34.6982 39.9066 35.3526 39.5966C35.7492 39.3628 36.1918 39.2179 36.6498 39.1719Z" fill="black"/>
</g>
<g opacity="0.4">
<path opacity="0.4" d="M44.7261 40.5154C44.2211 40.4167 43.7398 40.2218 43.3083 39.9414C42.8302 39.7474 42.3951 39.4607 42.0283 39.0977C42.5319 39.2013 43.0123 39.3958 43.4461 39.6717C43.9243 39.8657 44.3593 40.1524 44.7261 40.5154Z" fill="black"/>
</g>
<g opacity="0.4">
<path opacity="0.4" d="M51.5452 38.2217C51.124 38.4079 50.6684 38.5037 50.2078 38.503C49.7577 38.6007 49.2918 38.6007 48.8417 38.503C49.2629 38.3168 49.7185 38.221 50.1791 38.2217C50.6292 38.124 51.0951 38.124 51.5452 38.2217Z" fill="black"/>
</g>
<g opacity="0.4">
<path opacity="0.4" d="M38.171 77.0552C38.1194 77.1241 37.597 76.8027 36.9828 76.3435C36.3687 75.8843 35.9267 75.4538 35.9783 75.3906C36.4197 75.5424 36.8244 75.7849 37.1665 76.1024C37.7692 76.5616 38.2227 76.9863 38.171 77.0552Z" fill="black"/>
</g>
<g opacity="0.4">
<path opacity="0.4" d="M48.8416 75.2656C48.899 75.3173 48.48 75.8683 47.7855 76.3447C47.3877 76.6663 46.9052 76.8657 46.3964 76.9187C46.362 76.8384 46.9704 76.5399 47.6133 76.0807C47.9953 75.7697 48.4067 75.4967 48.8416 75.2656Z" fill="black"/>
</g>
<g opacity="0.4">
<path opacity="0.4" d="M55.8043 77.4227C55.3245 77.3431 54.8645 77.1716 54.4497 76.9176C53.9929 76.7459 53.5752 76.4843 53.2213 76.1484C53.7043 76.2197 54.1674 76.3897 54.5817 76.6478C55.0369 76.8219 55.4526 77.0854 55.8043 77.4227Z" fill="black"/>
</g>
<path d="M80.8996 90.3008C80.7544 90.334 80.6064 90.3532 80.4576 90.3582C80.1648 90.3582 79.7343 90.4156 79.1833 90.45C78.0755 90.5132 76.4683 90.582 74.4822 90.6509C70.5101 90.7829 65.0227 90.915 58.9842 90.9494C55.9535 90.9494 53.0663 90.9494 50.4374 90.8346C48.0766 90.7329 45.79 89.98 43.8306 88.6591C42.5235 87.7576 41.4524 86.5546 40.7081 85.152C40.4382 84.6395 40.2264 84.0985 40.0767 83.5391C40.1168 83.5391 40.2833 84.1131 40.8056 85.0946C41.579 86.4525 42.6555 87.6134 43.9512 88.4869C45.8889 89.7544 48.1351 90.4707 50.4488 90.5591C53.0663 90.6681 55.9592 90.6567 58.9842 90.6509C65.0457 90.6165 70.5274 90.5189 74.4822 90.4443L79.1833 90.3295L80.4633 90.295C80.6086 90.2836 80.7546 90.2855 80.8996 90.3008Z" fill="#455A64"/>
</svg>
