<svg width="305" height="245" viewBox="0 20 305 245" fill="none" xmlns="http://www.w3.org/2000/svg">
<path d="M55.7236 186.483L48.3548 190.698C48.3548 190.698 52.1856 178.822 50.2763 166.805C49.5565 162.266 47.9522 160.003 47.391 158.783C46.8298 157.563 42.511 150.042 46.4272 146.638C50.3434 143.234 59.3958 150.2 58.7736 168.665C58.5048 174.708 57.4801 180.694 55.7236 186.483Z" fill="#455A64"/>
<path d="M52.2956 188.734C52.2634 188.74 52.2303 188.74 52.198 188.734C52.125 188.706 52.0656 188.652 52.0326 188.581C51.9995 188.51 51.9954 188.429 52.0211 188.356C52.0211 188.283 54.8698 180.639 54.8698 168.299C54.8698 155.959 48.6051 149.438 48.5441 149.389C48.5168 149.362 48.4952 149.329 48.4804 149.294C48.4656 149.258 48.458 149.22 48.458 149.182C48.458 149.143 48.4656 149.105 48.4804 149.069C48.4952 149.034 48.5168 149.001 48.5441 148.974C48.5998 148.92 48.6742 148.891 48.7515 148.891C48.8289 148.891 48.9032 148.92 48.9589 148.974C49.026 149.041 55.4554 155.794 55.4554 168.311C55.4554 180.828 52.5945 188.502 52.564 188.575C52.54 188.625 52.5016 188.667 52.4539 188.695C52.4061 188.724 52.351 188.737 52.2956 188.734Z" fill="white"/>
<path d="M54.095 187.355L41.895 194.401C41.895 194.401 36.3684 193.51 36.8503 188.246C37.3322 182.982 39.5953 181.768 36.8503 179.419C34.1053 177.071 33.3489 176.906 33.5136 174.637C33.6783 172.368 35.1972 171.398 35.917 170.507C36.6368 169.617 38.6437 167.756 37.2773 165.017C35.9109 162.278 34.0565 159.6 36.8808 158.38C38.5583 157.648 41.3643 158.618 43.2126 160.644C45.0609 162.669 46.5737 164.127 48.3366 164.615C50.0995 165.103 53.79 165.182 53.6314 168.275C53.4728 171.367 52.6676 172.41 53.3874 173.765C54.7355 176.339 60.6708 177.797 54.095 187.355Z" fill="#37474F"/>
<path d="M49.1357 190.515C49.0972 190.512 49.0597 190.501 49.0253 190.484C48.991 190.466 48.9604 190.442 48.9355 190.412C48.9105 190.383 48.8917 190.349 48.88 190.312C48.8683 190.275 48.864 190.236 48.8673 190.198C48.8673 190.015 50.3862 172.093 38.2106 160.186C38.1785 160.16 38.1521 160.128 38.1331 160.092C38.1142 160.056 38.1031 160.016 38.1006 159.975C38.0982 159.934 38.1043 159.892 38.1187 159.854C38.1332 159.816 38.1555 159.781 38.1843 159.751C38.2131 159.722 38.2478 159.699 38.286 159.684C38.3243 159.669 38.3652 159.662 38.4062 159.664C38.4472 159.666 38.4874 159.677 38.5241 159.695C38.5608 159.714 38.5933 159.739 38.6193 159.771C50.9962 171.874 49.4712 190.07 49.4529 190.271C49.4423 190.345 49.4032 190.412 49.3439 190.458C49.2847 190.503 49.2099 190.524 49.1357 190.515Z" fill="white"/>
<path d="M47.147 174.869C47.0698 174.861 46.9987 174.824 46.9487 174.764C46.8986 174.705 46.8735 174.629 46.8786 174.552C46.9845 173.062 47.3967 171.611 48.0895 170.288C48.7823 168.966 49.7406 167.801 50.9046 166.866C50.9362 166.843 50.9719 166.828 51.0096 166.819C51.0472 166.811 51.0862 166.81 51.1242 166.817C51.1621 166.824 51.1984 166.838 51.2309 166.859C51.2633 166.88 51.2913 166.907 51.3133 166.939C51.3365 166.97 51.3533 167.005 51.3625 167.043C51.3717 167.08 51.3733 167.119 51.367 167.157C51.3607 167.196 51.3468 167.232 51.326 167.265C51.3053 167.297 51.2781 167.326 51.2462 167.347C50.1602 168.24 49.2654 169.342 48.6155 170.588C47.9657 171.835 47.5741 173.199 47.4642 174.6C47.4611 174.639 47.4505 174.676 47.4328 174.711C47.4152 174.745 47.3909 174.776 47.3614 174.801C47.332 174.826 47.2978 174.844 47.261 174.856C47.2242 174.868 47.1855 174.872 47.147 174.869Z" fill="white"/>
<path d="M48.0073 177.992C47.9654 177.991 47.9242 177.982 47.8863 177.964C47.8484 177.946 47.8148 177.92 47.7877 177.888C47.7877 177.858 44.7377 174.509 37.7837 175.393C37.7028 175.403 37.6214 175.38 37.5573 175.33C37.4933 175.28 37.4518 175.206 37.4421 175.125C37.4324 175.044 37.4552 174.963 37.5056 174.899C37.5559 174.834 37.6296 174.793 37.7105 174.783C44.9939 173.862 48.0805 177.333 48.2269 177.48C48.2542 177.507 48.2759 177.539 48.2907 177.575C48.3054 177.61 48.3131 177.648 48.3131 177.687C48.3131 177.725 48.3054 177.764 48.2907 177.799C48.2759 177.835 48.2542 177.867 48.2269 177.894C48.1996 177.926 48.1658 177.95 48.1279 177.967C48.0899 177.984 48.0488 177.993 48.0073 177.992Z" fill="white"/>
<path d="M75.585 213.994C96.1019 213.994 112.734 204.446 112.734 192.669C112.734 180.891 96.1019 171.343 75.585 171.343C55.0682 171.343 38.436 180.891 38.436 192.669C38.436 204.446 55.0682 213.994 75.585 213.994Z" fill="#37474F"/>
<path d="M112.734 192.669C112.734 204.448 96.1057 214.019 75.5853 214.019C55.0649 214.019 38.4302 204.448 38.4302 192.669V198.628C38.4302 210.401 55.0588 219.948 75.5731 219.948C96.0874 219.948 112.722 210.401 112.722 198.628V192.669H112.734Z" fill="#253239"/>
<path d="M75.5851 211.451C56.5348 211.451 41.0347 203.026 41.0347 192.669C41.0347 182.311 56.5348 173.887 75.5851 173.887C94.6354 173.887 110.142 182.311 110.142 192.669C110.142 203.026 94.6415 211.451 75.5851 211.451ZM75.5851 174.533C56.8886 174.533 41.6752 182.665 41.6752 192.669C41.6752 202.673 56.8886 210.804 75.5851 210.804C94.2816 210.804 109.495 202.667 109.495 192.669C109.495 182.671 94.2877 174.533 75.5851 174.533Z" fill="#FF725E"/>
<path d="M75.5851 98.4724C56.5348 98.4724 41.0347 90.0422 41.0347 79.6844C41.0347 69.3266 56.5348 60.9025 75.5851 60.9025C94.6354 60.9025 110.142 69.3266 110.142 79.6844C110.142 90.0422 94.6415 98.4724 75.5851 98.4724ZM75.5851 61.5491C56.8886 61.5491 41.6752 69.6865 41.6752 79.6844C41.6752 89.6823 56.8886 97.8258 75.5851 97.8258C94.2816 97.8258 109.495 89.6701 109.495 79.6844C109.495 69.6987 94.2877 61.5491 75.5851 61.5491Z" fill="#FF725E"/>
<path d="M109.495 192.675V192.669H110.142L109.495 192.675Z" fill="#FF725E"/>
<path d="M41.0347 192.675V192.669H41.6813L41.0347 192.675Z" fill="#FF725E"/>
<path d="M110.142 192.669H109.495C109.495 182.665 94.2877 174.533 75.5851 174.533C56.8825 174.533 41.6752 182.665 41.6752 192.669H41.0652V172.886C41.0481 167.483 42.4957 162.177 45.2541 157.532C48.0124 152.886 51.9783 149.075 56.73 146.504L66.1667 141.422C67.0072 140.966 67.709 140.292 68.198 139.47C68.687 138.648 68.9452 137.709 68.9452 136.753C68.9452 135.797 68.687 134.858 68.198 134.036C67.709 133.214 67.0072 132.54 66.1667 132.083L56.73 127.002C51.9772 124.437 48.0081 120.633 45.2445 115.993C42.4809 111.353 41.0261 106.051 41.0347 100.65V80.52H41.7179V80.8067C42.8098 90.3532 57.6694 97.8318 75.5546 97.8318C93.4398 97.8318 108.306 90.3532 109.397 80.8067L109.428 80.52H110.111V100.65C110.126 106.052 108.677 111.358 105.918 116.002C103.159 120.647 99.1921 124.456 94.4402 127.026L84.9974 132.108C84.1586 132.565 83.4585 133.24 82.9707 134.062C82.483 134.884 82.2256 135.822 82.2256 136.777C82.2256 137.733 82.483 138.671 82.9707 139.492C83.4585 140.314 84.1586 140.989 84.9974 141.447L94.4402 146.528C104.011 152.158 110.013 162.26 110.111 172.911L110.142 192.669ZM75.5851 173.887C92.3601 173.887 106.378 180.414 109.495 189.039V172.886C109.404 162.467 103.523 152.573 94.1535 147.071L84.7229 141.996C83.7808 141.483 82.9943 140.726 82.4463 139.804C81.8984 138.881 81.6092 137.829 81.6092 136.756C81.6092 135.683 81.8984 134.63 82.4463 133.708C82.9943 132.786 83.7808 132.029 84.7229 131.516L94.1657 126.435C98.8116 123.922 102.69 120.198 105.389 115.658C108.088 111.118 109.507 105.932 109.495 100.65V83.326C106.384 92.0063 92.2747 98.4967 75.5851 98.4967C58.8955 98.4967 44.7923 92.0063 41.6752 83.326V100.65C41.6599 105.936 43.0779 111.128 45.7782 115.673C48.4786 120.217 52.3604 123.945 57.0106 126.459L66.4534 131.54C67.3956 132.053 68.182 132.811 68.73 133.733C69.2779 134.655 69.5672 135.708 69.5672 136.78C69.5672 137.853 69.2779 138.906 68.73 139.828C68.182 140.75 67.3956 141.507 66.4534 142.02L57.0106 147.102C52.3599 149.615 48.4778 153.343 45.7774 157.887C43.0769 162.432 41.6592 167.624 41.6752 172.911V189.039C44.7923 180.414 58.8162 173.887 75.5851 173.887Z" fill="#FF725E"/>
<path d="M78.4949 158.74C77.61 158.234 76.608 157.967 75.5883 157.967C74.5686 157.967 73.5666 158.234 72.6816 158.74C64.9956 163.138 44.7192 175.43 44.7192 182.878C44.7192 192.071 58.5357 199.525 75.5852 199.525C92.6347 199.525 106.457 192.071 106.457 182.878C106.457 175.43 86.1809 163.138 78.4949 158.74Z" fill="#FF725E"/>
<path opacity="0.3" d="M78.4949 158.74C77.61 158.234 76.608 157.967 75.5883 157.967C74.5686 157.967 73.5666 158.234 72.6816 158.74C64.9956 163.138 44.7192 175.43 44.7192 182.878C44.7192 192.071 58.5357 199.525 75.5852 199.525C92.6347 199.525 106.457 192.071 106.457 182.878C106.457 175.43 86.1809 163.138 78.4949 158.74Z" fill="white"/>
<path d="M75.5852 199.525C58.5357 199.525 44.7192 192.071 44.7192 182.878V191.314C44.7192 200.507 58.5418 207.961 75.5852 207.961C92.6286 207.961 106.457 200.507 106.457 191.314V182.878C106.457 192.071 92.6347 199.525 75.5852 199.525Z" fill="#FF725E"/>
<path d="M44.7193 80.8373V99.1373C44.7088 103.957 46.003 108.689 48.4645 112.832C50.926 116.976 54.4631 120.375 58.7005 122.671L67.2405 127.252C67.3686 127.325 67.4967 127.399 67.6126 127.478C67.9176 127.673 68.2226 127.862 68.5398 128.039C70.2859 129.132 71.7252 130.651 72.7219 132.453C73.7187 134.256 74.2401 136.282 74.2372 138.342V146.272C74.2356 146.64 74.3797 146.993 74.6381 147.255C74.8964 147.517 75.248 147.666 75.6158 147.669C75.9842 147.666 76.3363 147.517 76.5957 147.255C76.855 146.994 77.0005 146.64 77.0005 146.272V138.342C76.9975 136.283 77.5183 134.257 78.5139 132.455C79.5095 130.652 80.9472 129.133 82.6918 128.039C83.009 127.862 83.3018 127.673 83.6251 127.478C83.741 127.399 83.8691 127.325 83.9972 127.252L92.5067 122.671C96.7441 120.375 100.281 116.976 102.743 112.832C105.204 108.689 106.498 103.957 106.488 99.1373V80.8373H44.7193Z" fill="#FF725E"/>
<path d="M76.9701 151.957C76.9689 151.684 76.8866 151.416 76.7337 151.19C76.5809 150.963 76.3642 150.786 76.1111 150.682C75.8579 150.578 75.5797 150.552 75.3115 150.606C75.0433 150.66 74.7971 150.792 74.6041 150.986C74.4111 151.18 74.2798 151.427 74.2268 151.695C74.1739 151.964 74.2017 152.242 74.3067 152.495C74.4116 152.747 74.5891 152.963 74.8167 153.115C75.0443 153.267 75.3118 153.348 75.5854 153.348C75.9527 153.345 76.3039 153.197 76.5631 152.937C76.8223 152.676 76.9685 152.325 76.9701 151.957Z" fill="#FF725E"/>
<path opacity="0.3" d="M44.7193 80.8373V99.1373C44.7088 103.957 46.003 108.689 48.4645 112.832C50.926 116.976 54.4631 120.375 58.7005 122.671L67.2405 127.252C67.3686 127.325 67.4967 127.399 67.6126 127.478C67.9176 127.673 68.2226 127.862 68.5398 128.039C70.2859 129.132 71.7252 130.651 72.7219 132.453C73.7187 134.256 74.2401 136.282 74.2372 138.342V146.272C74.2356 146.64 74.3797 146.993 74.6381 147.255C74.8964 147.517 75.248 147.666 75.6158 147.669C75.9842 147.666 76.3363 147.517 76.5957 147.255C76.855 146.994 77.0005 146.64 77.0005 146.272V138.342C76.9975 136.283 77.5183 134.257 78.5139 132.455C79.5095 130.652 80.9472 129.133 82.6918 128.039C83.009 127.862 83.3018 127.673 83.6251 127.478C83.741 127.399 83.8691 127.325 83.9972 127.252L92.5067 122.671C96.7441 120.375 100.281 116.976 102.743 112.832C105.204 108.689 106.498 103.957 106.488 99.1373V80.8373H44.7193Z" fill="white"/>
<g opacity="0.3">
<path opacity="0.3" d="M76.9701 151.957C76.9689 151.684 76.8866 151.416 76.7337 151.19C76.5809 150.963 76.3642 150.786 76.1111 150.682C75.8579 150.578 75.5797 150.552 75.3115 150.606C75.0433 150.66 74.7971 150.792 74.6041 150.986C74.4111 151.18 74.2798 151.427 74.2268 151.695C74.1739 151.964 74.2017 152.242 74.3067 152.495C74.4116 152.747 74.5891 152.963 74.8167 153.115C75.0443 153.267 75.3118 153.348 75.5854 153.348C75.9527 153.345 76.3039 153.197 76.5631 152.937C76.8223 152.676 76.9685 152.325 76.9701 151.957Z" fill="white"/>
</g>
<path d="M75.5855 97.4841C92.6357 97.4841 106.458 90.0311 106.458 80.8372C106.458 71.6434 92.6357 64.1903 75.5855 64.1903C58.5353 64.1903 44.7134 71.6434 44.7134 80.8372C44.7134 90.0311 58.5353 97.4841 75.5855 97.4841Z" fill="#FF725E"/>
<g style="mix-blend-mode:overlay" opacity="0.5">
<g style="mix-blend-mode:overlay" opacity="0.5">
<path d="M73.0478 141.709L67.0454 146.79C60.9454 151.927 57.1878 161.961 57.1878 172.886V207.693C55.3234 207.055 53.5087 206.281 51.7588 205.375V172.886C51.7588 161.961 56.0959 151.927 63.0499 146.79L69.9124 141.709C72.7733 139.592 72.7733 133.907 69.9124 131.803L63.0499 126.721C56.1203 121.585 51.7588 111.545 51.7588 100.65V80.8373H57.1878V100.65C57.1878 111.575 60.9759 121.616 67.0454 126.752L73.0478 131.833C75.5427 133.907 75.5427 139.592 73.0478 141.709Z" fill="white"/>
</g>
</g>
<path d="M75.586 101.01C96.1028 101.01 112.735 91.4622 112.735 79.6844C112.735 67.9066 96.1028 58.3588 75.586 58.3588C55.0692 58.3588 38.437 67.9066 38.437 79.6844C38.437 91.4622 55.0692 101.01 75.586 101.01Z" fill="#37474F"/>
<path d="M112.734 79.6843C112.734 91.4634 96.1057 101.034 75.5853 101.034C55.0649 101.034 38.4302 91.4634 38.4302 79.6843V85.644C38.4302 97.4231 55.0588 106.994 75.5731 106.994C96.0874 106.994 112.722 97.4475 112.722 85.644V79.6843H112.734Z" fill="#253239"/>
<path d="M197.146 139.056V115.522L164.243 96.3312V72.7974L131.345 53.6007V171.264L164.243 190.46L197.146 209.651L230.043 228.848V158.252L197.146 139.056Z" fill="#FF725E"/>
<path opacity="0.3" d="M197.146 139.056V162.589L230.043 181.786V158.252L197.146 139.056Z" fill="white"/>
<path d="M230.043 158.252V181.786L197.146 200.983V224.511L164.243 243.707V267.241L197.146 248.044L230.043 228.848L262.947 209.651V139.056L230.043 158.252Z" fill="#FF725E"/>
<path opacity="0.1" d="M230.043 158.252V181.786L197.146 200.983V224.511L164.243 243.707V267.241L197.146 248.044L230.043 228.848L262.947 209.651V139.056L230.043 158.252Z" fill="white"/>
<path d="M164.243 72.7974L131.345 53.6007L164.243 34.4041L197.146 53.6007L164.243 72.7974Z" fill="#FF725E"/>
<path opacity="0.7" d="M164.243 72.7974L131.345 53.6007L164.243 34.4041L197.146 53.6007L164.243 72.7974Z" fill="white"/>
<path d="M164.243 96.3312V72.7974L197.146 53.6007V77.1345L164.243 96.3312Z" fill="#FF725E"/>
<path opacity="0.1" d="M164.243 96.3312V72.7974L197.146 53.6007V77.1345L164.243 96.3312Z" fill="black"/>
<path d="M197.146 115.522L164.243 96.3312L197.146 77.1345L230.043 96.3312L197.146 115.522Z" fill="#FF725E"/>
<path d="M197.146 139.056V115.522L230.043 96.3312V119.859L197.146 139.056Z" fill="#FF725E"/>
<path opacity="0.7" d="M197.146 115.522L164.243 96.3312L197.146 77.1345L230.043 96.3312L197.146 115.522Z" fill="white"/>
<path opacity="0.1" d="M197.146 139.056V115.522L230.043 96.3312V119.859L197.146 139.056Z" fill="black"/>
<path d="M230.043 158.252L197.146 139.056L230.043 119.859L262.947 139.056L230.043 158.252Z" fill="#FF725E"/>
<g opacity="0.7">
<path opacity="0.7" d="M230.043 158.252L197.146 139.056L230.043 119.859L262.947 139.056L230.043 158.252Z" fill="white"/>
</g>
<path d="M197.146 200.983L230.043 181.786L197.146 162.589L164.243 181.786L197.146 200.983Z" fill="#FF725E"/>
<path opacity="0.7" d="M197.146 200.983L230.043 181.786L197.146 162.589L164.243 181.786L197.146 200.983Z" fill="white"/>
<path d="M197.146 224.511V200.983L164.243 181.786V205.32L197.146 224.511Z" fill="#FF725E"/>
<path opacity="0.3" d="M197.146 224.511V200.983L164.243 181.786V205.32L197.146 224.511Z" fill="white"/>
<path d="M164.243 243.707L197.146 224.511L164.243 205.32L131.345 224.511L164.243 243.707Z" fill="#FF725E"/>
<path d="M164.242 267.241V243.707L131.345 224.51V248.044L164.242 267.241Z" fill="#FF725E"/>
<path opacity="0.7" d="M164.243 243.707L197.146 224.511L164.243 205.32L131.345 224.511L164.243 243.707Z" fill="white"/>
<path opacity="0.3" d="M164.242 267.241V243.707L131.345 224.51V248.044L164.242 267.241Z" fill="white"/>
<path d="M190.784 220.802L157.886 239.998L137.708 228.225L170.611 209.029L190.784 220.802Z" fill="#FF725E"/>
<path opacity="0.4" d="M190.784 220.802L157.886 239.998L137.708 228.225L170.611 209.029L190.784 220.802Z" fill="white"/>
<path d="M157.886 239.998V263.526L137.701 251.759V228.225H137.707L157.886 239.998Z" fill="#FF725E"/>
<path d="M223.687 178.071L190.784 197.268L170.611 185.501L203.508 166.304L223.687 178.071Z" fill="#FF725E"/>
<path opacity="0.4" d="M223.687 178.071L190.784 197.268L170.611 185.501L203.508 166.304L223.687 178.071Z" fill="white"/>
<path d="M190.784 197.268V220.802L170.605 209.029V185.501H170.611L190.784 197.268Z" fill="#FF725E"/>
<path d="M223.687 154.544V178.071L203.502 166.304V142.771H203.508L223.687 154.544Z" fill="#FF725E"/>
<path d="M223.687 154.544V178.071L203.502 166.304V142.771H203.508L223.687 154.544Z" fill="#FF725E"/>
<path d="M170.605 92.6163L203.502 111.813L223.681 100.046L190.778 80.8433L170.605 92.6163Z" fill="#FF725E"/>
<g style="mix-blend-mode:overlay" opacity="0.5">
<path d="M170.605 92.6163L203.502 111.813L223.681 100.046L190.778 80.8433L170.605 92.6163Z" fill="white"/>
</g>
<path d="M203.502 111.813V135.347L223.687 123.574V100.046H223.681L203.502 111.813Z" fill="#FF725E"/>
<path opacity="0.3" d="M203.502 111.813V135.347L223.687 123.574V100.046H223.681L203.502 111.813Z" fill="black"/>
<path d="M137.701 49.8858L170.605 69.0886L190.777 57.3156L157.88 38.1189L137.701 49.8858Z" fill="#FF725E"/>
<g style="mix-blend-mode:overlay" opacity="0.5">
<path d="M137.701 49.8858L170.605 69.0886L190.777 57.3156L157.88 38.1189L137.701 49.8858Z" fill="white"/>
</g>
<path d="M170.605 69.0887V92.6164L190.784 80.8434V57.3157H190.778L170.605 69.0887Z" fill="#FF725E"/>
<path opacity="0.3" d="M170.605 69.0887V92.6164L190.784 80.8434V57.3157H190.778L170.605 69.0887Z" fill="black"/>
<path d="M230.043 127.289L223.681 123.568L203.502 135.341L209.87 139.056L203.508 142.771L223.687 154.537L230.043 150.829L250.222 139.056L230.043 127.289Z" fill="#FF725E"/>
<path opacity="0.4" d="M230.043 127.289L223.681 123.568L203.502 135.341L209.87 139.056L203.508 142.771L223.687 154.537L230.043 150.829L250.222 139.056L230.043 127.289Z" fill="white"/>
<path d="M151.14 46.2502C151.089 46.2497 151.039 46.2372 150.993 46.2136L149.773 45.4938C149.74 45.4743 149.711 45.4484 149.688 45.4176C149.664 45.3867 149.647 45.3516 149.638 45.3141C149.628 45.2767 149.626 45.2377 149.631 45.1995C149.637 45.1612 149.65 45.1244 149.67 45.0912C149.708 45.0245 149.771 44.9755 149.845 44.955C149.92 44.9344 149.999 44.9439 150.066 44.9814L151.286 45.7012C151.353 45.7408 151.402 45.805 151.423 45.8802C151.443 45.9554 151.434 46.0357 151.396 46.1038C151.371 46.1492 151.333 46.1867 151.288 46.2125C151.243 46.2383 151.192 46.2513 151.14 46.2502Z" fill="#FF725E"/>
<path d="M175.302 60.3534C175.25 60.3537 175.199 60.3388 175.155 60.3107L172.715 58.9016C172.682 58.8824 172.652 58.8567 172.628 58.8261C172.605 58.7955 172.587 58.7605 172.577 58.7231C172.567 58.6857 172.564 58.6467 172.569 58.6082C172.574 58.5698 172.586 58.5327 172.606 58.499C172.625 58.4654 172.65 58.4359 172.681 58.4121C172.712 58.3884 172.747 58.371 172.784 58.3608C172.821 58.3506 172.861 58.3478 172.899 58.3527C172.937 58.3576 172.975 58.37 173.008 58.3892L175.448 59.7983C175.482 59.8178 175.511 59.8438 175.534 59.8746C175.557 59.9055 175.574 59.9406 175.584 59.978C175.594 60.0155 175.596 60.0544 175.59 60.0927C175.585 60.1309 175.572 60.1677 175.552 60.2009C175.528 60.2469 175.492 60.2855 175.448 60.3124C175.404 60.3393 175.353 60.3535 175.302 60.3534ZM170.471 57.5291C170.42 57.5287 170.369 57.5161 170.324 57.4925L167.884 56.0834C167.851 56.0642 167.821 56.0385 167.797 56.0079C167.774 55.9773 167.756 55.9423 167.746 55.9049C167.736 55.8675 167.733 55.8285 167.738 55.79C167.743 55.7516 167.755 55.7145 167.774 55.6808C167.794 55.6472 167.819 55.6177 167.85 55.5939C167.881 55.5702 167.916 55.5527 167.953 55.5426C167.99 55.5324 168.029 55.5296 168.068 55.5345C168.106 55.5394 168.143 55.5518 168.177 55.571L170.617 56.9801C170.65 56.9997 170.679 57.0256 170.703 57.0564C170.726 57.0873 170.743 57.1224 170.753 57.1598C170.762 57.1973 170.764 57.2362 170.759 57.2745C170.753 57.3127 170.74 57.3495 170.721 57.3827C170.697 57.428 170.661 57.4658 170.616 57.4916C170.572 57.5175 170.522 57.5305 170.471 57.5291ZM165.639 54.7109C165.588 54.7112 165.538 54.6986 165.493 54.6743L163.053 53.2652C162.985 53.2246 162.936 53.1592 162.916 53.083C162.895 53.0068 162.905 52.9256 162.943 52.8565C162.963 52.8232 162.989 52.794 163.019 52.7707C163.05 52.7474 163.085 52.7305 163.123 52.7208C163.16 52.7112 163.199 52.7091 163.238 52.7146C163.276 52.72 163.313 52.7331 163.346 52.7528L165.786 54.1619C165.843 54.1935 165.888 54.2434 165.913 54.3035C165.939 54.3636 165.944 54.4305 165.927 54.4936C165.91 54.5567 165.873 54.6124 165.821 54.6518C165.768 54.6912 165.705 54.712 165.639 54.7109ZM160.808 51.8927C160.756 51.8945 160.705 51.8795 160.662 51.85L158.222 50.4409C158.155 50.4014 158.105 50.3372 158.085 50.262C158.064 50.1868 158.074 50.1065 158.112 50.0383C158.131 50.0052 158.156 49.9761 158.187 49.9529C158.217 49.9297 158.251 49.9128 158.288 49.9031C158.325 49.8934 158.364 49.8913 158.402 49.8967C158.439 49.9021 158.476 49.915 158.508 49.9346L160.948 51.3437C161.015 51.3843 161.062 51.4489 161.082 51.5241C161.101 51.5992 161.09 51.6789 161.052 51.7463C161.027 51.7891 160.991 51.8249 160.949 51.8504C160.906 51.876 160.858 51.8905 160.808 51.8927ZM155.971 49.0745C155.919 49.0748 155.868 49.0599 155.824 49.0318L153.384 47.6227C153.318 47.5822 153.27 47.5175 153.251 47.4424C153.232 47.3673 153.242 47.2876 153.281 47.2201C153.319 47.1534 153.382 47.1044 153.456 47.0839C153.531 47.0633 153.61 47.0728 153.677 47.1103L156.117 48.5194C156.184 48.559 156.234 48.6232 156.254 48.6984C156.275 48.7736 156.265 48.8539 156.227 48.922C156.202 48.9681 156.165 49.0065 156.12 49.0333C156.075 49.0602 156.023 49.0744 155.971 49.0745Z" fill="#FF725E"/>
<path d="M178.949 62.4824C178.897 62.4826 178.847 62.4678 178.803 62.4397L177.583 61.7199C177.55 61.7004 177.52 61.6744 177.497 61.6436C177.474 61.6128 177.457 61.5776 177.447 61.5402C177.438 61.5028 177.435 61.4638 177.441 61.4255C177.446 61.3873 177.459 61.3505 177.479 61.3173C177.498 61.2835 177.523 61.2538 177.553 61.2301C177.583 61.2064 177.618 61.1891 177.655 61.1794C177.692 61.1697 177.731 61.1677 177.769 61.1736C177.807 61.1795 177.843 61.1931 177.876 61.2136L179.096 61.9273C179.163 61.9668 179.212 62.031 179.233 62.1062C179.253 62.1814 179.243 62.2617 179.206 62.3299C179.18 62.3759 179.143 62.4143 179.098 62.4412C179.053 62.468 179.002 62.4822 178.949 62.4824Z" fill="#FF725E"/>
<g opacity="0.3">
<path opacity="0.3" d="M151.14 46.2502C151.089 46.2497 151.039 46.2372 150.993 46.2136L149.773 45.4938C149.74 45.4743 149.711 45.4484 149.688 45.4176C149.664 45.3867 149.647 45.3516 149.638 45.3141C149.628 45.2767 149.626 45.2377 149.631 45.1995C149.637 45.1612 149.65 45.1244 149.67 45.0912C149.708 45.0245 149.771 44.9755 149.845 44.955C149.92 44.9344 149.999 44.9439 150.066 44.9814L151.286 45.7012C151.353 45.7408 151.402 45.805 151.423 45.8802C151.443 45.9554 151.434 46.0357 151.396 46.1038C151.371 46.1492 151.333 46.1867 151.288 46.2125C151.243 46.2383 151.192 46.2513 151.14 46.2502Z" fill="black"/>
<path opacity="0.3" d="M175.302 60.3534C175.25 60.3537 175.199 60.3388 175.155 60.3107L172.715 58.9016C172.682 58.8824 172.652 58.8568 172.628 58.8261C172.605 58.7955 172.587 58.7605 172.577 58.7231C172.567 58.6857 172.564 58.6467 172.569 58.6082C172.574 58.5698 172.586 58.5327 172.606 58.499C172.625 58.4654 172.65 58.4359 172.681 58.4121C172.712 58.3884 172.747 58.371 172.784 58.3608C172.821 58.3506 172.861 58.3478 172.899 58.3527C172.937 58.3576 172.975 58.37 173.008 58.3892L175.448 59.7983C175.482 59.8179 175.511 59.8438 175.534 59.8746C175.557 59.9055 175.574 59.9406 175.584 59.978C175.594 60.0155 175.596 60.0544 175.59 60.0927C175.585 60.1309 175.572 60.1677 175.552 60.2009C175.528 60.2469 175.492 60.2855 175.448 60.3124C175.404 60.3393 175.353 60.3535 175.302 60.3534ZM170.471 57.5291C170.42 57.5287 170.369 57.5161 170.324 57.4925L167.884 56.0834C167.851 56.0642 167.821 56.0385 167.797 56.0079C167.774 55.9773 167.756 55.9423 167.746 55.9049C167.736 55.8675 167.733 55.8285 167.738 55.79C167.743 55.7516 167.755 55.7145 167.774 55.6808C167.794 55.6472 167.819 55.6177 167.85 55.5939C167.881 55.5702 167.916 55.5528 167.953 55.5426C167.99 55.5324 168.029 55.5296 168.068 55.5345C168.106 55.5394 168.143 55.5518 168.177 55.571L170.617 56.9801C170.65 56.9997 170.679 57.0256 170.703 57.0564C170.726 57.0873 170.743 57.1224 170.753 57.1598C170.762 57.1973 170.764 57.2362 170.759 57.2745C170.753 57.3127 170.74 57.3495 170.721 57.3827C170.697 57.428 170.661 57.4658 170.616 57.4916C170.572 57.5175 170.522 57.5305 170.471 57.5291ZM165.639 54.7109C165.588 54.7112 165.538 54.6986 165.493 54.6743L163.053 53.2652C162.985 53.2246 162.936 53.1592 162.916 53.083C162.895 53.0068 162.905 52.9256 162.943 52.8565C162.963 52.8232 162.989 52.794 163.019 52.7707C163.05 52.7474 163.085 52.7305 163.123 52.7208C163.16 52.7112 163.199 52.7091 163.238 52.7146C163.276 52.72 163.313 52.7331 163.346 52.7528L165.786 54.1619C165.843 54.1935 165.888 54.2434 165.913 54.3035C165.939 54.3636 165.944 54.4305 165.927 54.4936C165.91 54.5567 165.873 54.6124 165.821 54.6518C165.768 54.6912 165.705 54.712 165.639 54.7109ZM160.808 51.8927C160.756 51.8945 160.705 51.8795 160.662 51.85L158.222 50.4409C158.155 50.4014 158.105 50.3372 158.085 50.262C158.064 50.1868 158.074 50.1065 158.112 50.0383C158.131 50.0052 158.156 49.9761 158.187 49.9529C158.217 49.9297 158.251 49.9128 158.288 49.9031C158.325 49.8934 158.364 49.8913 158.402 49.8967C158.439 49.9021 158.476 49.915 158.508 49.9346L160.948 51.3437C161.015 51.3843 161.062 51.4489 161.082 51.5241C161.101 51.5992 161.09 51.6789 161.052 51.7463C161.027 51.7891 160.991 51.8249 160.949 51.8504C160.906 51.876 160.858 51.8905 160.808 51.8927ZM155.971 49.0745C155.919 49.0748 155.868 49.0599 155.824 49.0318L153.384 47.6227C153.318 47.5822 153.27 47.5175 153.251 47.4424C153.232 47.3673 153.242 47.2876 153.281 47.2201C153.319 47.1534 153.382 47.1044 153.456 47.0839C153.531 47.0633 153.61 47.0728 153.677 47.1103L156.117 48.5194C156.184 48.559 156.234 48.6232 156.254 48.6984C156.275 48.7736 156.265 48.8539 156.227 48.922C156.202 48.9681 156.165 49.0065 156.12 49.0333C156.075 49.0602 156.023 49.0744 155.971 49.0745Z" fill="black"/>
<path opacity="0.3" d="M178.95 62.4824C178.898 62.4826 178.847 62.4678 178.803 62.4397L177.583 61.7199C177.55 61.7004 177.521 61.6744 177.498 61.6436C177.474 61.6128 177.457 61.5776 177.448 61.5402C177.438 61.5028 177.436 61.4638 177.441 61.4255C177.447 61.3873 177.46 61.3505 177.48 61.3173C177.498 61.2835 177.523 61.2538 177.553 61.2301C177.584 61.2064 177.618 61.1891 177.655 61.1794C177.693 61.1697 177.731 61.1677 177.769 61.1736C177.807 61.1795 177.844 61.1931 177.876 61.2136L179.096 61.9273C179.163 61.9668 179.213 62.031 179.233 62.1062C179.254 62.1814 179.244 62.2617 179.206 62.3299C179.181 62.3759 179.144 62.4143 179.099 62.4412C179.054 62.468 179.002 62.4822 178.95 62.4824Z" fill="black"/>
</g>
<path d="M183.866 88.877C183.814 88.8773 183.764 88.8624 183.72 88.8343L182.5 88.1145C182.467 88.095 182.437 88.0691 182.414 88.0383C182.391 88.0074 182.374 87.9723 182.364 87.9348C182.355 87.8974 182.352 87.8584 182.358 87.8202C182.363 87.7819 182.376 87.7451 182.396 87.7119C182.415 87.6788 182.441 87.6498 182.471 87.6265C182.501 87.6033 182.536 87.5864 182.573 87.5767C182.61 87.5671 182.648 87.5649 182.686 87.5703C182.724 87.5757 182.76 87.5886 182.793 87.6082L184.013 88.328C184.07 88.3597 184.115 88.4095 184.14 88.4696C184.166 88.5297 184.171 88.5966 184.154 88.6597C184.137 88.7228 184.1 88.7785 184.048 88.8179C183.995 88.8573 183.932 88.8781 183.866 88.877Z" fill="#FF725E"/>
<path d="M208.053 102.992C208.002 102.993 207.953 102.978 207.912 102.95L205.472 101.541C205.439 101.521 205.409 101.496 205.385 101.465C205.362 101.434 205.344 101.399 205.334 101.362C205.324 101.325 205.321 101.286 205.326 101.247C205.331 101.209 205.343 101.172 205.362 101.138C205.382 101.104 205.407 101.075 205.438 101.051C205.469 101.027 205.504 101.01 205.541 101C205.578 100.99 205.617 100.987 205.656 100.992C205.694 100.997 205.731 101.009 205.765 101.028L208.205 102.443C208.272 102.483 208.321 102.547 208.342 102.622C208.362 102.698 208.353 102.778 208.315 102.846C208.288 102.891 208.249 102.929 208.203 102.955C208.157 102.98 208.105 102.993 208.053 102.992ZM203.215 100.168C203.164 100.168 203.114 100.155 203.069 100.132L200.629 98.7164C200.561 98.6775 200.511 98.6133 200.491 98.5378C200.47 98.4623 200.48 98.3817 200.519 98.3138C200.558 98.2458 200.622 98.1961 200.698 98.1755C200.773 98.1549 200.854 98.1651 200.922 98.204L203.362 99.6192C203.419 99.6508 203.464 99.7006 203.489 99.7607C203.515 99.8208 203.52 99.8877 203.503 99.9508C203.486 100.014 203.449 100.07 203.396 100.109C203.344 100.148 203.281 100.169 203.215 100.168ZM198.378 97.3439C198.327 97.3434 198.277 97.3308 198.232 97.3073L195.792 95.892C195.724 95.8525 195.675 95.7883 195.655 95.7131C195.634 95.6379 195.644 95.5576 195.682 95.4894C195.701 95.4561 195.727 95.4269 195.758 95.4036C195.789 95.3803 195.824 95.3634 195.861 95.3537C195.899 95.3441 195.938 95.342 195.976 95.3475C196.014 95.353 196.051 95.366 196.084 95.3857L198.524 96.7948C198.592 96.8344 198.641 96.8986 198.661 96.9738C198.682 97.049 198.672 97.1293 198.634 97.1975C198.609 97.2428 198.571 97.2804 198.526 97.3061C198.481 97.3319 198.43 97.345 198.378 97.3439ZM193.541 94.55C193.49 94.5496 193.439 94.537 193.394 94.5134L190.954 93.1043C190.887 93.0648 190.838 93.0006 190.817 92.9254C190.797 92.8502 190.807 92.7699 190.844 92.7017C190.863 92.6679 190.889 92.6381 190.92 92.6142C190.95 92.5903 190.985 92.5728 191.023 92.5625C191.06 92.5523 191.099 92.5497 191.138 92.5547C191.176 92.5598 191.213 92.5724 191.247 92.5919L193.687 94.001C193.754 94.0406 193.803 94.1048 193.824 94.18C193.844 94.2552 193.835 94.3355 193.797 94.4036C193.771 94.449 193.734 94.4866 193.689 94.5123C193.644 94.5381 193.593 94.5512 193.541 94.55ZM188.703 91.7318C188.651 91.7321 188.601 91.7172 188.557 91.6891L186.117 90.28C186.083 90.2608 186.054 90.2352 186.03 90.2045C186.006 90.1739 185.989 90.1389 185.979 90.1015C185.968 90.0641 185.966 90.0251 185.971 89.9866C185.976 89.9482 185.988 89.9111 186.007 89.8774C186.026 89.8438 186.052 89.8143 186.083 89.7905C186.113 89.7668 186.148 89.7494 186.186 89.7392C186.223 89.729 186.262 89.7262 186.301 89.7311C186.339 89.736 186.376 89.7484 186.41 89.7676L188.85 91.1767C188.917 91.2174 188.967 91.2827 188.987 91.359C189.008 91.4352 188.998 91.5163 188.96 91.5854C188.93 91.6243 188.891 91.6552 188.846 91.6754C188.801 91.6956 188.752 91.7045 188.703 91.7013V91.7318Z" fill="#FF725E"/>
<path d="M211.707 105.121C211.656 105.121 211.606 105.108 211.56 105.085L210.34 104.365C210.307 104.345 210.278 104.32 210.254 104.289C210.231 104.258 210.214 104.223 210.205 104.185C210.195 104.148 210.193 104.109 210.198 104.071C210.204 104.032 210.217 103.996 210.237 103.962C210.255 103.929 210.28 103.899 210.31 103.875C210.34 103.851 210.375 103.834 210.412 103.824C210.449 103.813 210.487 103.811 210.525 103.816C210.563 103.821 210.6 103.833 210.633 103.853L211.853 104.572C211.886 104.592 211.916 104.618 211.939 104.649C211.962 104.679 211.979 104.715 211.989 104.752C211.998 104.789 212.001 104.828 211.995 104.867C211.99 104.905 211.977 104.942 211.957 104.975C211.931 105.019 211.894 105.055 211.851 105.081C211.807 105.106 211.757 105.12 211.707 105.121Z" fill="#FF725E"/>
<g opacity="0.3">
<path opacity="0.3" d="M183.866 88.877C183.814 88.8773 183.764 88.8624 183.72 88.8343L182.5 88.1145C182.467 88.095 182.437 88.0691 182.414 88.0383C182.391 88.0074 182.374 87.9723 182.364 87.9348C182.355 87.8974 182.352 87.8584 182.358 87.8202C182.363 87.7819 182.376 87.7451 182.396 87.7119C182.415 87.6788 182.441 87.6498 182.471 87.6265C182.501 87.6033 182.536 87.5864 182.573 87.5767C182.61 87.5671 182.648 87.5649 182.686 87.5703C182.724 87.5757 182.76 87.5886 182.793 87.6082L184.013 88.328C184.07 88.3597 184.115 88.4095 184.14 88.4696C184.166 88.5297 184.171 88.5966 184.154 88.6597C184.137 88.7228 184.1 88.7785 184.048 88.8179C183.995 88.8573 183.932 88.8781 183.866 88.877Z" fill="black"/>
<path opacity="0.3" d="M208.053 102.992C208.003 102.993 207.954 102.978 207.913 102.95L205.473 101.541C205.439 101.521 205.41 101.496 205.386 101.465C205.362 101.434 205.345 101.399 205.334 101.362C205.324 101.325 205.321 101.286 205.326 101.247C205.331 101.209 205.344 101.172 205.363 101.138C205.382 101.104 205.408 101.075 205.438 101.051C205.469 101.027 205.504 101.01 205.541 101C205.579 100.99 205.618 100.987 205.656 100.992C205.695 100.997 205.732 101.009 205.765 101.028L208.205 102.443C208.273 102.483 208.322 102.547 208.342 102.622C208.363 102.698 208.353 102.778 208.315 102.846C208.288 102.891 208.25 102.929 208.204 102.955C208.158 102.98 208.106 102.993 208.053 102.992ZM203.216 100.168C203.165 100.168 203.115 100.155 203.069 100.132L200.629 98.7163C200.561 98.6775 200.512 98.6133 200.491 98.5378C200.47 98.4623 200.481 98.3817 200.52 98.3137C200.558 98.2458 200.623 98.1961 200.698 98.1755C200.774 98.1549 200.854 98.1651 200.922 98.2039L203.362 99.6191C203.419 99.6507 203.464 99.7006 203.49 99.7607C203.515 99.8208 203.52 99.8877 203.503 99.9508C203.486 100.014 203.449 100.07 203.397 100.109C203.345 100.148 203.281 100.169 203.216 100.168ZM198.378 97.3438C198.327 97.3434 198.277 97.3308 198.232 97.3072L195.792 95.892C195.725 95.8525 195.676 95.7883 195.655 95.7131C195.635 95.6379 195.644 95.5576 195.682 95.4894C195.702 95.4561 195.728 95.4269 195.758 95.4036C195.789 95.3803 195.824 95.3634 195.862 95.3537C195.899 95.3441 195.938 95.342 195.977 95.3475C196.015 95.3529 196.052 95.366 196.085 95.3857L198.525 96.7948C198.592 96.8344 198.641 96.8986 198.662 96.9738C198.682 97.049 198.672 97.1293 198.635 97.1974C198.609 97.2428 198.572 97.2803 198.527 97.3061C198.482 97.3319 198.43 97.345 198.378 97.3438ZM193.541 94.55C193.49 94.5496 193.44 94.537 193.395 94.5134L190.955 93.1043C190.888 93.0648 190.838 93.0006 190.818 92.9254C190.797 92.8502 190.807 92.7699 190.845 92.7017C190.864 92.6679 190.889 92.6381 190.92 92.6142C190.951 92.5903 190.986 92.5727 191.023 92.5625C191.061 92.5523 191.1 92.5497 191.138 92.5547C191.177 92.5598 191.214 92.5724 191.248 92.5919L193.688 94.001C193.755 94.0406 193.804 94.1048 193.824 94.18C193.845 94.2552 193.835 94.3355 193.797 94.4036C193.772 94.449 193.735 94.4865 193.69 94.5123C193.644 94.5381 193.593 94.5512 193.541 94.55ZM188.704 91.7318C188.652 91.7321 188.601 91.7172 188.557 91.6891L186.117 90.28C186.084 90.2608 186.054 90.2352 186.031 90.2045C186.007 90.1739 185.989 90.1389 185.979 90.1015C185.969 90.0641 185.966 90.0251 185.971 89.9866C185.976 89.9482 185.988 89.9111 186.008 89.8774C186.027 89.8438 186.053 89.8143 186.083 89.7905C186.114 89.7668 186.149 89.7494 186.186 89.7392C186.224 89.729 186.263 89.7262 186.301 89.7311C186.339 89.736 186.377 89.7484 186.41 89.7676L188.85 91.1767C188.918 91.2174 188.967 91.2827 188.988 91.3589C189.008 91.4352 188.998 91.5163 188.96 91.5854C188.93 91.6243 188.891 91.6552 188.846 91.6754C188.802 91.6956 188.753 91.7045 188.704 91.7013V91.7318Z" fill="black"/>
<path opacity="0.3" d="M211.707 105.121C211.656 105.121 211.606 105.108 211.56 105.085L210.34 104.365C210.307 104.345 210.278 104.32 210.254 104.289C210.231 104.258 210.214 104.223 210.205 104.185C210.195 104.148 210.193 104.109 210.198 104.071C210.204 104.032 210.217 103.996 210.237 103.962C210.255 103.929 210.28 103.899 210.31 103.875C210.34 103.851 210.375 103.834 210.412 103.824C210.449 103.813 210.487 103.811 210.525 103.816C210.563 103.821 210.6 103.833 210.633 103.853L211.853 104.572C211.886 104.592 211.916 104.618 211.939 104.649C211.962 104.68 211.979 104.715 211.989 104.752C211.998 104.79 212.001 104.828 211.995 104.867C211.99 104.905 211.977 104.942 211.957 104.975C211.931 105.019 211.894 105.055 211.851 105.081C211.807 105.106 211.757 105.12 211.707 105.121Z" fill="black"/>
</g>
<path d="M213.598 148.944C213.547 148.943 213.498 148.928 213.454 148.903C213.41 148.877 213.374 148.841 213.348 148.797C213.309 148.73 213.299 148.65 213.318 148.575C213.337 148.5 213.385 148.435 213.451 148.395L214.671 147.675C214.739 147.637 214.818 147.628 214.892 147.648C214.966 147.669 215.029 147.718 215.068 147.785C215.106 147.853 215.115 147.933 215.095 148.008C215.074 148.084 215.025 148.148 214.958 148.187L213.738 148.907C213.695 148.931 213.647 148.943 213.598 148.944Z" fill="#FF725E"/>
<path d="M217.63 146.595C217.579 146.596 217.528 146.583 217.484 146.557C217.44 146.531 217.404 146.494 217.38 146.449C217.359 146.416 217.345 146.379 217.339 146.341C217.333 146.302 217.335 146.263 217.345 146.225C217.355 146.188 217.372 146.152 217.396 146.121C217.42 146.091 217.449 146.065 217.483 146.046L220.277 144.411C220.311 144.392 220.348 144.379 220.386 144.374C220.425 144.369 220.464 144.372 220.501 144.382C220.539 144.392 220.574 144.41 220.604 144.434C220.635 144.458 220.661 144.487 220.68 144.521C220.717 144.589 220.727 144.67 220.707 144.745C220.686 144.82 220.637 144.884 220.57 144.924L217.77 146.552C217.728 146.579 217.679 146.594 217.63 146.595ZM223.223 143.332C223.172 143.332 223.121 143.318 223.076 143.292C223.031 143.267 222.994 143.23 222.967 143.185C222.929 143.117 222.92 143.037 222.94 142.962C222.961 142.886 223.01 142.822 223.077 142.783L225.871 141.148C225.939 141.109 226.019 141.099 226.095 141.119C226.17 141.14 226.235 141.19 226.273 141.258C226.312 141.326 226.322 141.406 226.302 141.482C226.281 141.557 226.231 141.621 226.164 141.66L223.37 143.289C223.328 143.324 223.277 143.345 223.223 143.35V143.332Z" fill="#FF725E"/>
<path d="M228.817 140.068C228.765 140.068 228.715 140.055 228.67 140.029C228.625 140.003 228.587 139.966 228.561 139.922C228.523 139.854 228.513 139.773 228.534 139.698C228.554 139.623 228.603 139.559 228.671 139.519L229.458 139.056L228.671 138.592C228.637 138.573 228.607 138.547 228.584 138.517C228.56 138.486 228.543 138.451 228.532 138.413C228.522 138.376 228.519 138.337 228.524 138.299C228.529 138.26 228.542 138.223 228.561 138.189C228.58 138.156 228.606 138.126 228.636 138.103C228.667 138.079 228.702 138.061 228.739 138.051C228.777 138.041 228.816 138.038 228.854 138.043C228.893 138.048 228.93 138.06 228.963 138.08L230.183 138.799C230.239 138.834 230.281 138.885 230.306 138.945C230.33 139.006 230.334 139.072 230.318 139.135C230.305 139.181 230.282 139.223 230.25 139.258C230.219 139.293 230.179 139.32 230.135 139.336L228.915 140.026C228.886 140.047 228.852 140.062 228.817 140.068Z" fill="#FF725E"/>
<path d="M226.389 137.213C226.338 137.214 226.288 137.202 226.243 137.177L223.803 135.762C223.736 135.722 223.687 135.658 223.666 135.583C223.646 135.507 223.655 135.427 223.693 135.359C223.711 135.325 223.736 135.296 223.766 135.272C223.797 135.248 223.831 135.23 223.868 135.22C223.905 135.21 223.944 135.207 223.982 135.212C224.02 135.217 224.056 135.23 224.089 135.249L226.529 136.664C226.596 136.705 226.643 136.77 226.663 136.845C226.682 136.92 226.672 137 226.633 137.067C226.609 137.111 226.573 137.147 226.531 137.173C226.488 137.198 226.439 137.212 226.389 137.213ZM221.509 134.383C221.459 134.384 221.41 134.369 221.369 134.34L218.929 132.925C218.863 132.885 218.815 132.82 218.796 132.745C218.776 132.67 218.787 132.59 218.825 132.523C218.864 132.456 218.927 132.407 219.001 132.386C219.075 132.366 219.154 132.375 219.222 132.413L221.662 133.828C221.729 133.869 221.779 133.934 221.799 134.01C221.819 134.086 221.81 134.168 221.771 134.237C221.746 134.279 221.711 134.315 221.668 134.341C221.625 134.366 221.577 134.381 221.527 134.383H221.509Z" fill="#FF725E"/>
<path d="M216.672 131.547C216.621 131.546 216.571 131.533 216.526 131.51L215.306 130.79C215.24 130.75 215.192 130.685 215.173 130.61C215.153 130.535 215.164 130.455 215.202 130.387C215.241 130.321 215.304 130.272 215.378 130.251C215.452 130.231 215.531 130.24 215.599 130.278L216.819 130.998C216.876 131.029 216.921 131.079 216.946 131.139C216.972 131.199 216.977 131.266 216.96 131.329C216.943 131.392 216.906 131.448 216.853 131.487C216.801 131.527 216.738 131.548 216.672 131.547Z" fill="#FF725E"/>
<path d="M212.359 173.191C212.308 173.191 212.258 173.178 212.214 173.152C212.171 173.126 212.134 173.089 212.109 173.045C212.071 172.977 212.062 172.896 212.082 172.821C212.103 172.746 212.152 172.682 212.219 172.642L213.439 171.922C213.506 171.885 213.586 171.875 213.66 171.896C213.734 171.917 213.797 171.965 213.836 172.032C213.873 172.1 213.883 172.181 213.863 172.256C213.842 172.331 213.793 172.395 213.726 172.435L212.506 173.155C212.461 173.179 212.411 173.192 212.359 173.191Z" fill="#FF725E"/>
<path d="M184.275 189.582C184.224 189.582 184.174 189.568 184.13 189.543C184.086 189.517 184.05 189.48 184.025 189.436C184.005 189.402 183.992 189.366 183.986 189.327C183.981 189.289 183.983 189.25 183.993 189.213C184.002 189.175 184.019 189.14 184.043 189.109C184.066 189.078 184.095 189.052 184.128 189.033L186.471 187.667C186.538 187.629 186.617 187.62 186.692 187.64C186.766 187.661 186.829 187.71 186.867 187.776C186.887 187.81 186.9 187.846 186.906 187.885C186.911 187.923 186.909 187.962 186.899 187.999C186.89 188.037 186.873 188.072 186.849 188.103C186.826 188.134 186.797 188.159 186.764 188.179L184.421 189.545C184.376 189.57 184.326 189.582 184.275 189.582ZM188.96 186.849C188.908 186.85 188.856 186.837 188.811 186.811C188.766 186.786 188.729 186.748 188.703 186.703C188.666 186.635 188.656 186.554 188.676 186.479C188.697 186.404 188.746 186.34 188.813 186.3L191.149 184.934C191.183 184.915 191.22 184.902 191.259 184.897C191.297 184.892 191.336 184.895 191.373 184.905C191.411 184.915 191.446 184.933 191.477 184.957C191.507 184.98 191.533 185.01 191.552 185.044C191.571 185.077 191.584 185.114 191.589 185.153C191.593 185.191 191.591 185.23 191.581 185.268C191.57 185.305 191.553 185.34 191.529 185.371C191.505 185.401 191.476 185.427 191.442 185.446L189.1 186.813C189.057 186.837 189.009 186.849 188.96 186.849ZM193.638 184.122C193.587 184.123 193.537 184.11 193.493 184.084C193.449 184.058 193.413 184.021 193.388 183.976C193.348 183.908 193.336 183.827 193.356 183.75C193.375 183.674 193.424 183.608 193.492 183.567L195.81 182.207C195.843 182.187 195.879 182.174 195.917 182.169C195.954 182.164 195.993 182.166 196.03 182.176C196.067 182.185 196.101 182.202 196.132 182.225C196.162 182.249 196.187 182.278 196.206 182.311C196.245 182.378 196.255 182.458 196.236 182.533C196.217 182.608 196.169 182.673 196.103 182.713L193.76 184.08C193.724 184.104 193.682 184.118 193.638 184.122ZM198.317 181.39C198.266 181.388 198.217 181.374 198.173 181.349C198.129 181.323 198.093 181.287 198.067 181.243C198.029 181.176 198.018 181.096 198.037 181.021C198.057 180.946 198.104 180.881 198.171 180.841L200.513 179.474C200.545 179.454 200.582 179.44 200.62 179.434C200.658 179.428 200.697 179.43 200.734 179.44C200.771 179.45 200.806 179.467 200.836 179.491C200.866 179.515 200.891 179.544 200.909 179.578C200.93 179.611 200.944 179.648 200.95 179.686C200.956 179.725 200.954 179.764 200.944 179.802C200.934 179.839 200.917 179.874 200.893 179.905C200.87 179.936 200.84 179.962 200.806 179.981L198.463 181.347C198.42 181.376 198.369 181.391 198.317 181.39ZM203.002 178.657C202.936 178.658 202.873 178.637 202.821 178.598C202.768 178.558 202.731 178.503 202.714 178.44C202.697 178.376 202.702 178.309 202.728 178.249C202.753 178.189 202.798 178.139 202.855 178.108L205.198 176.741C205.231 176.722 205.267 176.71 205.306 176.705C205.344 176.7 205.382 176.702 205.419 176.713C205.456 176.723 205.491 176.74 205.521 176.764C205.551 176.788 205.576 176.818 205.594 176.851C205.632 176.919 205.642 177 205.621 177.075C205.601 177.15 205.552 177.214 205.484 177.254L203.13 178.62C203.09 178.641 203.047 178.654 203.002 178.657ZM207.68 175.924C207.629 175.925 207.579 175.912 207.534 175.887C207.49 175.861 207.454 175.823 207.43 175.778C207.411 175.744 207.398 175.708 207.392 175.669C207.387 175.631 207.389 175.592 207.398 175.555C207.408 175.517 207.425 175.482 207.448 175.451C207.472 175.421 207.501 175.395 207.534 175.375L209.876 174.009C209.944 173.971 210.023 173.962 210.097 173.982C210.171 174.003 210.235 174.052 210.273 174.118C210.293 174.152 210.306 174.188 210.311 174.227C210.317 174.265 210.315 174.304 210.305 174.341C210.295 174.379 210.278 174.414 210.255 174.445C210.232 174.476 210.203 174.502 210.169 174.521L207.827 175.887C207.782 175.911 207.731 175.924 207.68 175.924Z" fill="#FF725E"/>
<path d="M180.7 191.668C180.65 191.667 180.6 191.653 180.556 191.627C180.513 191.602 180.476 191.565 180.45 191.522C180.412 191.454 180.401 191.375 180.421 191.299C180.44 191.224 180.488 191.16 180.554 191.119L181.774 190.399C181.807 190.38 181.844 190.367 181.882 190.362C181.92 190.357 181.958 190.36 181.995 190.37C182.032 190.381 182.067 190.398 182.097 190.422C182.127 190.446 182.152 190.475 182.17 190.509C182.208 190.577 182.218 190.658 182.197 190.733C182.177 190.808 182.128 190.872 182.061 190.912L180.841 191.632C180.798 191.655 180.749 191.668 180.7 191.668Z" fill="#FF725E"/>
<path d="M179.462 215.94C179.411 215.94 179.361 215.927 179.317 215.901C179.273 215.875 179.237 215.838 179.212 215.794C179.175 215.726 179.165 215.647 179.184 215.572C179.204 215.497 179.251 215.433 179.316 215.391L180.536 214.671C180.603 214.634 180.682 214.624 180.756 214.645C180.831 214.665 180.894 214.714 180.932 214.781C180.97 214.849 180.98 214.929 180.959 215.005C180.938 215.08 180.889 215.144 180.822 215.184L179.602 215.903C179.559 215.927 179.511 215.94 179.462 215.94Z" fill="#FF725E"/>
<path d="M151.378 232.306C151.327 232.308 151.276 232.295 151.232 232.269C151.188 232.243 151.152 232.205 151.128 232.16C151.108 232.127 151.095 232.09 151.089 232.052C151.084 232.013 151.086 231.974 151.096 231.937C151.105 231.9 151.122 231.864 151.146 231.834C151.169 231.803 151.198 231.777 151.231 231.757L153.574 230.391C153.641 230.353 153.72 230.344 153.795 230.364C153.869 230.385 153.932 230.434 153.97 230.501C153.99 230.534 154.003 230.571 154.009 230.609C154.014 230.647 154.012 230.686 154.002 230.724C153.993 230.761 153.976 230.796 153.952 230.827C153.929 230.858 153.9 230.884 153.867 230.903L151.524 232.27C151.479 232.293 151.429 232.306 151.378 232.306ZM156.056 229.574C156.006 229.574 155.956 229.56 155.912 229.534C155.868 229.509 155.831 229.472 155.806 229.427C155.77 229.359 155.76 229.28 155.779 229.205C155.798 229.131 155.845 229.066 155.91 229.025L158.252 227.658C158.286 227.639 158.323 227.626 158.362 227.622C158.4 227.617 158.439 227.619 158.477 227.63C158.514 227.64 158.549 227.657 158.58 227.681C158.61 227.705 158.636 227.734 158.655 227.768C158.674 227.802 158.687 227.839 158.692 227.877C158.696 227.916 158.694 227.955 158.684 227.992C158.673 228.029 158.656 228.064 158.632 228.095C158.608 228.126 158.579 228.151 158.545 228.171L156.203 229.537C156.158 229.562 156.108 229.574 156.056 229.574ZM160.741 226.847C160.689 226.847 160.637 226.832 160.592 226.806C160.547 226.779 160.51 226.74 160.485 226.694C160.447 226.626 160.438 226.546 160.458 226.471C160.479 226.395 160.528 226.331 160.595 226.292L162.937 224.931C162.97 224.912 163.006 224.899 163.044 224.893C163.082 224.888 163.12 224.89 163.157 224.9C163.194 224.91 163.229 224.926 163.259 224.95C163.289 224.973 163.315 225.002 163.334 225.035C163.372 225.103 163.381 225.184 163.361 225.259C163.34 225.334 163.291 225.398 163.224 225.438L160.888 226.804C160.844 226.832 160.793 226.847 160.741 226.847ZM165.42 224.114C165.355 224.115 165.291 224.094 165.239 224.055C165.187 224.015 165.149 223.96 165.132 223.897C165.116 223.834 165.12 223.767 165.146 223.707C165.171 223.646 165.216 223.597 165.274 223.565L167.616 222.199C167.648 222.178 167.685 222.165 167.723 222.159C167.761 222.153 167.8 222.155 167.837 222.164C167.874 222.174 167.909 222.191 167.939 222.215C167.969 222.239 167.994 222.269 168.012 222.302C168.033 222.335 168.047 222.372 168.053 222.411C168.059 222.449 168.057 222.488 168.047 222.526C168.037 222.564 168.02 222.599 167.996 222.63C167.973 222.66 167.943 222.686 167.909 222.705L165.566 224.071C165.523 224.1 165.472 224.115 165.42 224.114ZM170.105 221.381C170.039 221.382 169.976 221.361 169.924 221.322C169.871 221.283 169.834 221.227 169.817 221.164C169.8 221.101 169.805 221.034 169.831 220.974C169.856 220.914 169.901 220.864 169.958 220.832L172.295 219.466C172.328 219.446 172.365 219.434 172.404 219.429C172.442 219.424 172.481 219.426 172.519 219.436C172.556 219.447 172.591 219.464 172.622 219.488C172.653 219.512 172.678 219.542 172.697 219.576C172.735 219.644 172.745 219.724 172.724 219.799C172.704 219.874 172.655 219.939 172.587 219.978L170.245 221.345C170.202 221.369 170.154 221.382 170.105 221.381ZM174.783 218.648C174.732 218.65 174.682 218.637 174.638 218.611C174.593 218.585 174.557 218.547 174.533 218.502C174.514 218.469 174.501 218.432 174.495 218.394C174.49 218.356 174.492 218.317 174.501 218.279C174.511 218.242 174.528 218.207 174.551 218.176C174.575 218.145 174.604 218.119 174.637 218.099L176.979 216.733C177.047 216.696 177.126 216.686 177.2 216.707C177.274 216.727 177.338 216.776 177.376 216.843C177.413 216.911 177.423 216.99 177.403 217.065C177.384 217.139 177.337 217.204 177.272 217.245L174.93 218.612C174.885 218.635 174.834 218.648 174.783 218.648Z" fill="#FF725E"/>
<path d="M147.803 234.393C147.752 234.391 147.703 234.377 147.659 234.352C147.615 234.326 147.579 234.29 147.553 234.246C147.514 234.179 147.504 234.099 147.523 234.024C147.542 233.949 147.59 233.884 147.656 233.844L148.876 233.124C148.91 233.104 148.947 233.092 148.986 233.086C149.024 233.081 149.063 233.084 149.101 233.094C149.138 233.105 149.173 233.122 149.204 233.146C149.234 233.17 149.26 233.2 149.279 233.234C149.317 233.302 149.327 233.382 149.306 233.457C149.285 233.532 149.236 233.597 149.169 233.636L147.949 234.356C147.904 234.38 147.854 234.393 147.803 234.393Z" fill="#FF725E"/>
<path d="M167.055 55.2417C166.184 55.6895 165.219 55.9232 164.239 55.9232C163.26 55.9232 162.295 55.6895 161.424 55.2417C159.875 54.3389 159.875 52.8688 161.424 51.9599C162.295 51.512 163.26 51.2783 164.239 51.2783C165.219 51.2783 166.184 51.512 167.055 51.9599C168.61 52.8688 168.61 54.3389 167.055 55.2417Z" fill="#455A64"/>
<path d="M164.243 37.7956V24.583L181.317 31.1893L164.243 37.7956Z" fill="#FF725E"/>
<path d="M164.242 54.1924C164.081 54.1924 163.925 54.1282 163.811 54.0138C163.697 53.8994 163.632 53.7442 163.632 53.5824V21.9905C163.606 21.8996 163.601 21.8038 163.618 21.7106C163.635 21.6174 163.673 21.5295 163.73 21.4537C163.787 21.378 163.86 21.3165 163.945 21.2741C164.03 21.2318 164.123 21.2097 164.218 21.2097C164.313 21.2097 164.406 21.2318 164.491 21.2741C164.575 21.3165 164.649 21.378 164.706 21.4537C164.763 21.5295 164.801 21.6174 164.818 21.7106C164.835 21.8038 164.83 21.8996 164.803 21.9905V53.6007C164.799 53.7512 164.74 53.8949 164.636 54.0041C164.533 54.1134 164.392 54.1804 164.242 54.1924Z" fill="#263238"/>
<path d="M179.024 79.157V80.8784L174.462 83.5308V82.1669L176.519 78.7695C176.698 78.4711 176.818 78.2356 176.877 78.063C176.937 77.8903 176.967 77.7382 176.967 77.6065C176.967 77.4434 176.918 77.3464 176.82 77.3153C176.728 77.2748 176.593 77.3066 176.414 77.4106C176.24 77.5115 176.078 77.6593 175.926 77.8542C175.774 78.0491 175.657 78.2673 175.576 78.509L174.129 78.5134C174.346 77.917 174.663 77.3626 175.08 76.8503C175.498 76.3316 176.002 75.9005 176.593 75.557C177.043 75.2953 177.441 75.1483 177.788 75.1159C178.135 75.0835 178.406 75.1674 178.601 75.3674C178.796 75.5675 178.894 75.8714 178.894 76.279C178.894 76.6427 178.826 77.0239 178.691 77.4225C178.561 77.8117 178.303 78.3189 177.918 78.944L177.105 80.2728L179.024 79.157ZM181.996 79.3014C181.491 79.5945 181.044 79.7197 180.654 79.677C180.269 79.6249 179.965 79.4063 179.743 79.0213C179.526 78.6269 179.418 78.0722 179.418 77.3573C179.418 76.6424 179.526 75.9648 179.743 75.3245C179.965 74.6748 180.269 74.1032 180.654 73.6097C181.044 73.1069 181.491 72.7089 181.996 72.4157C182.5 72.1226 182.944 72.0021 183.329 72.0542C183.72 72.0969 184.023 72.3155 184.24 72.7099C184.462 73.0949 184.574 73.6449 184.574 74.3598C184.574 75.0747 184.462 75.757 184.24 76.4067C184.023 77.047 183.72 77.6186 183.329 78.1215C182.944 78.615 182.5 79.0082 181.996 79.3014ZM181.996 77.5235C182.429 77.2714 182.646 76.5903 182.646 75.4803C182.646 74.3703 182.429 73.9414 181.996 74.1936C181.562 74.4457 181.345 75.1268 181.345 76.2368C181.345 77.3468 181.562 77.7757 181.996 77.5235ZM177.56 88.4683C177.907 88.2666 178.23 88.1668 178.528 88.169C178.826 88.1713 179.065 88.2803 179.244 88.4961C179.423 88.7119 179.512 89.0268 179.512 89.4407C179.512 89.8984 179.409 90.3628 179.203 90.8338C179.002 91.3016 178.726 91.732 178.374 92.125C178.021 92.518 177.631 92.839 177.203 93.088C176.655 93.4064 176.175 93.563 175.763 93.558C175.357 93.5498 175.039 93.3705 174.812 93.02C174.584 92.6695 174.47 92.1431 174.47 91.4407C174.47 90.6882 174.6 89.9604 174.861 89.2572C175.126 88.5509 175.495 87.9164 175.967 87.3537C176.444 86.7879 176.997 86.3221 177.625 85.9565C177.967 85.7579 178.292 85.6159 178.601 85.5303C178.91 85.4384 179.173 85.4109 179.39 85.4479L178.699 87.4019C178.417 87.3338 178.073 87.4179 177.666 87.6543C177.335 87.8466 177.062 88.1029 176.845 88.4234C176.633 88.7345 176.495 89.0908 176.43 89.4923C176.728 89.0744 177.105 88.733 177.56 88.4683ZM177.072 91.6304C177.246 91.5295 177.387 91.388 177.495 91.2058C177.604 91.0236 177.658 90.829 177.658 90.6221C177.658 90.4152 177.604 90.2836 177.495 90.2275C177.387 90.1651 177.246 90.1844 177.072 90.2852C176.899 90.3861 176.758 90.5308 176.65 90.7192C176.541 90.9014 176.487 91.096 176.487 91.3029C176.487 91.5099 176.541 91.6414 176.65 91.6975C176.758 91.7536 176.899 91.7312 177.072 91.6304ZM182.424 90.052C181.92 90.3452 181.473 90.4704 181.083 90.4277C180.698 90.3755 180.394 90.157 180.172 89.772C179.955 89.3775 179.847 88.8229 179.847 88.108C179.847 87.3931 179.955 86.7155 180.172 86.0752C180.394 85.4254 180.698 84.8538 181.083 84.3604C181.473 83.8575 181.92 83.4595 182.424 83.1664C182.929 82.8733 183.373 82.7528 183.758 82.8049C184.148 82.8476 184.452 83.0662 184.669 83.4606C184.891 83.8456 185.002 84.3956 185.002 85.1105C185.002 85.8254 184.891 86.5077 184.669 87.1574C184.452 87.7977 184.148 88.3693 183.758 88.8722C183.373 89.3656 182.929 89.7589 182.424 90.052ZM182.424 88.2742C182.858 88.022 183.075 87.341 183.075 86.231C183.075 85.121 182.858 84.6921 182.424 84.9443C181.991 85.1964 181.774 85.8775 181.774 86.9875C181.774 88.0974 181.991 88.5264 182.424 88.2742Z" fill="#F4F4F4"/>
<path d="M212.031 121.82V123.542L207.469 126.194V124.83L209.526 121.433C209.705 121.135 209.825 120.899 209.884 120.726C209.944 120.554 209.974 120.402 209.974 120.27C209.974 120.107 209.925 120.01 209.827 119.979C209.735 119.938 209.6 119.97 209.421 120.074C209.247 120.175 209.084 120.323 208.933 120.518C208.781 120.713 208.664 120.931 208.583 121.172L207.135 121.177C207.352 120.58 207.67 120.026 208.087 119.514C208.504 118.995 209.009 118.564 209.6 118.22C210.049 117.959 210.448 117.812 210.795 117.779C211.142 117.747 211.413 117.831 211.608 118.031C211.803 118.231 211.901 118.535 211.901 118.942C211.901 119.306 211.833 119.687 211.698 120.086C211.567 120.475 211.31 120.982 210.925 121.607L210.112 122.936L212.031 121.82ZM215.002 121.965C214.498 122.258 214.051 122.383 213.661 122.34C213.276 122.288 212.972 122.07 212.75 121.685C212.533 121.29 212.425 120.736 212.425 120.021C212.425 119.306 212.533 118.628 212.75 117.988C212.972 117.338 213.276 116.767 213.661 116.273C214.051 115.77 214.498 115.372 215.002 115.079C215.507 114.786 215.951 114.666 216.336 114.718C216.726 114.76 217.03 114.979 217.247 115.373C217.469 115.758 217.58 116.308 217.58 117.023C217.58 117.738 217.469 118.42 217.247 119.07C217.03 119.71 216.726 120.282 216.336 120.785C215.951 121.278 215.507 121.672 215.002 121.965ZM215.002 120.187C215.436 119.935 215.653 119.254 215.653 118.144C215.653 117.034 215.436 116.605 215.002 116.857C214.569 117.109 214.352 117.79 214.352 118.9C214.352 120.01 214.569 120.439 215.002 120.187ZM209.803 131.576C210.6 131.113 211.185 130.967 211.559 131.138C211.939 131.3 212.129 131.695 212.129 132.322C212.129 132.736 212.034 133.173 211.844 133.635C211.66 134.087 211.372 134.536 210.982 134.982C210.592 135.423 210.106 135.811 209.526 136.149C209.125 136.382 208.724 136.565 208.323 136.698C207.927 136.828 207.58 136.882 207.282 136.861L207.932 134.846C208.171 134.864 208.42 134.838 208.681 134.768C208.946 134.695 209.204 134.587 209.453 134.442C209.675 134.312 209.854 134.164 209.99 133.998C210.131 133.822 210.201 133.652 210.201 133.489C210.201 133.332 210.139 133.253 210.014 133.25C209.89 133.241 209.665 133.331 209.339 133.52L207.688 134.48L207.973 130.317L211.755 128.118V129.792L209.551 131.074L209.51 131.746L209.803 131.576ZM215.09 132.914C214.586 133.207 214.138 133.332 213.748 133.29C213.363 133.238 213.06 133.019 212.837 132.634C212.62 132.24 212.512 131.685 212.512 130.97C212.512 130.255 212.62 129.577 212.837 128.937C213.06 128.287 213.363 127.716 213.748 127.222C214.138 126.72 214.586 126.322 215.09 126.028C215.594 125.735 216.039 125.615 216.423 125.667C216.814 125.71 217.117 125.928 217.334 126.323C217.557 126.708 217.668 127.258 217.668 127.972C217.668 128.687 217.557 129.37 217.334 130.019C217.117 130.66 216.814 131.231 216.423 131.734C216.039 132.228 215.594 132.621 215.09 132.914ZM215.09 131.136C215.524 130.884 215.74 130.203 215.74 129.093C215.74 127.983 215.524 127.554 215.09 127.806C214.656 128.058 214.439 128.739 214.439 129.849C214.439 130.959 214.656 131.388 215.09 131.136Z" fill="#F4F4F4"/>
<path d="M211.781 162.544V164.266L207.219 161.613V160.249L209.276 159.244C209.455 159.154 209.574 159.057 209.634 158.954C209.694 158.851 209.724 158.733 209.724 158.601C209.724 158.438 209.675 158.285 209.577 158.14C209.485 157.992 209.35 157.867 209.171 157.763C208.997 157.662 208.834 157.62 208.683 157.639C208.531 157.657 208.414 157.74 208.333 157.887L206.885 156.208C207.102 155.864 207.419 155.678 207.837 155.651C208.254 155.618 208.759 155.773 209.35 156.117C209.799 156.379 210.198 156.695 210.545 157.066C210.892 157.437 211.163 157.836 211.358 158.263C211.553 158.69 211.651 159.107 211.651 159.515C211.651 159.879 211.583 160.181 211.448 160.422C211.317 160.66 211.06 160.868 210.675 161.045L209.862 161.429L211.781 162.544ZM214.752 166.144C214.248 165.851 213.801 165.456 213.411 164.959C213.026 164.459 212.722 163.888 212.5 163.244C212.283 162.598 212.175 161.917 212.175 161.202C212.175 160.487 212.283 159.936 212.5 159.548C212.722 159.156 213.026 158.938 213.411 158.892C213.801 158.843 214.248 158.965 214.752 159.258C215.257 159.551 215.701 159.948 216.086 160.447C216.476 160.944 216.78 161.516 216.997 162.162C217.219 162.806 217.33 163.485 217.33 164.2C217.33 164.915 217.219 165.468 216.997 165.859C216.78 166.247 216.476 166.466 216.086 166.515C215.701 166.561 215.257 166.437 214.752 166.144ZM214.752 164.366C215.186 164.618 215.403 164.189 215.403 163.079C215.403 161.969 215.186 161.288 214.752 161.036C214.319 160.784 214.102 161.213 214.102 162.323C214.102 163.433 214.319 164.114 214.752 164.366ZM212.749 174.7L211.992 174.26V175.389L210.13 174.306V173.177L207.178 171.461V170.05L209.593 167.409L211.561 168.553L209.415 171.04L210.187 171.489V170.482L211.992 171.532V172.538L212.749 172.978V174.7ZM215.594 177.633C215.09 177.34 214.643 176.945 214.252 176.449C213.868 175.949 213.564 175.377 213.342 174.734C213.125 174.087 213.016 173.407 213.016 172.692C213.016 171.977 213.125 171.425 213.342 171.037C213.564 170.646 213.868 170.427 214.252 170.381C214.643 170.332 215.09 170.454 215.594 170.748C216.098 171.041 216.543 171.437 216.928 171.937C217.318 172.433 217.622 173.005 217.839 173.652C218.061 174.295 218.172 174.974 218.172 175.689C218.172 176.404 218.061 176.957 217.839 177.348C217.622 177.737 217.318 177.955 216.928 178.004C216.543 178.05 216.098 177.926 215.594 177.633ZM215.594 175.855C216.028 176.108 216.245 175.679 216.245 174.569C216.245 173.459 216.028 172.778 215.594 172.525C215.161 172.273 214.944 172.702 214.944 173.812C214.944 174.922 215.161 175.603 215.594 175.855Z" fill="#F4F4F4"/>
<path d="M180.176 207.898C179.672 207.605 179.225 207.21 178.834 206.713C178.449 206.214 178.146 205.642 177.923 204.999C177.707 204.352 177.598 203.671 177.598 202.957C177.598 202.242 177.707 201.69 177.923 201.302C178.146 200.911 178.449 200.692 178.834 200.646C179.225 200.597 179.672 200.719 180.176 201.012C180.68 201.306 181.125 201.702 181.51 202.202C181.9 202.698 182.204 203.27 182.42 203.916C182.643 204.56 182.754 205.239 182.754 205.954C182.754 206.669 182.643 207.222 182.42 207.613C182.204 208.001 181.9 208.22 181.51 208.269C181.125 208.315 180.68 208.191 180.176 207.898ZM180.176 206.12C180.61 206.372 180.827 205.943 180.827 204.834C180.827 203.724 180.61 203.042 180.176 202.79C179.742 202.538 179.525 202.967 179.525 204.077C179.525 205.187 179.742 205.868 180.176 206.12ZM180.794 215.128C181.233 215.509 181.569 215.933 181.802 216.401C182.041 216.866 182.16 217.33 182.16 217.794C182.16 218.189 182.065 218.504 181.876 218.739C181.691 218.97 181.404 219.079 181.014 219.065C180.623 219.051 180.138 218.876 179.558 218.539C179.157 218.305 178.756 218.022 178.354 217.689C177.959 217.358 177.612 217.009 177.314 216.641L177.964 215.383C178.197 215.675 178.447 215.939 178.712 216.175C178.983 216.414 179.244 216.606 179.493 216.751C179.715 216.881 179.894 216.941 180.03 216.932C180.165 216.923 180.233 216.837 180.233 216.674C180.233 216.373 180.008 216.091 179.558 215.83L178.802 215.39V214.026L179.639 213.525L177.606 212.343V210.669L181.851 213.137V214.501L180.794 215.128ZM180.176 229.898C179.672 229.605 179.225 229.21 178.834 228.713C178.449 228.214 178.146 227.642 177.923 226.999C177.707 226.352 177.598 225.671 177.598 224.957C177.598 224.242 177.707 223.69 177.923 223.302C178.146 222.911 178.449 222.692 178.834 222.646C179.225 222.597 179.672 222.719 180.176 223.012C180.68 223.306 181.125 223.702 181.51 224.202C181.9 224.698 182.204 225.27 182.42 225.916C182.643 226.56 182.754 227.239 182.754 227.954C182.754 228.669 182.643 229.222 182.42 229.613C182.204 230.001 181.9 230.22 181.51 230.269C181.125 230.315 180.68 230.191 180.176 229.898ZM180.176 228.12C180.61 228.372 180.827 227.943 180.827 226.834C180.827 225.724 180.61 225.042 180.176 224.79C179.742 224.538 179.525 224.967 179.525 226.077C179.525 227.187 179.742 227.868 180.176 228.12Z" fill="#F4F4F4"/>
<path d="M147.291 252.227C146.787 251.934 146.339 251.539 145.949 251.042C145.564 250.542 145.26 249.971 145.038 249.327C144.821 248.681 144.713 248 144.713 247.285C144.713 246.57 144.821 246.019 145.038 245.631C145.26 245.239 145.564 245.021 145.949 244.975C146.339 244.926 146.787 245.048 147.291 245.341C147.795 245.634 148.239 246.031 148.624 246.53C149.015 247.027 149.318 247.599 149.535 248.245C149.757 248.889 149.869 249.568 149.869 250.283C149.869 250.998 149.757 251.551 149.535 251.942C149.318 252.33 149.015 252.549 148.624 252.598C148.239 252.643 147.795 252.52 147.291 252.227ZM147.291 250.449C147.724 250.701 147.941 250.272 147.941 249.162C147.941 248.052 147.724 247.371 147.291 247.119C146.857 246.867 146.64 247.296 146.64 248.406C146.64 249.516 146.857 250.197 147.291 250.449Z" fill="#F4F4F4"/>
<path d="M135.182 155.501H128.045V167.006H135.182V155.501Z" fill="#FFA8A7"/>
<path d="M139.446 152.866L141.142 155.306C141.216 155.411 141.249 155.539 141.237 155.666C141.225 155.794 141.167 155.913 141.075 156.001C140.65 156.465 140.071 156.757 139.446 156.825V152.866Z" fill="#F28F8F"/>
<path d="M132.297 143.844C132.297 143.844 137.854 139.904 139.617 153.604C141.069 164.993 133.999 162.382 131.37 160.808C128.741 159.234 123.714 154.489 127.02 147.815C128.515 144.784 132.297 143.844 132.297 143.844Z" fill="#FFA8A7"/>
<path d="M137.421 148.23C137.421 148.23 137.464 150.725 135.182 150.847C135.747 151.502 136.033 152.351 135.981 153.214C135.981 154.836 135.426 154.525 135.182 154.214C134.938 153.903 132.407 154.214 132.407 154.214L133.7 156.654C133.858 157.579 133.777 158.528 133.464 159.412C133.151 160.297 132.617 161.086 131.913 161.705C131.913 161.705 128.521 162.638 126.978 161.705C126.978 161.705 122.708 156.965 121.921 153.604C121.134 150.243 121.122 147.309 123.092 145.936C123.092 145.936 123.702 141.697 128.21 141.697C132.718 141.697 134.042 142.856 136.475 142.307C137.464 142.087 138.946 141.374 138.946 142.368C138.946 143.362 137.726 144.198 137.726 144.198C137.726 144.198 138.946 144.131 139.605 144.07C140.264 144.009 141.734 143.789 141.484 145.692C141.233 147.596 139.532 148.559 137.421 148.23Z" fill="#263238"/>
<path d="M123.69 146.089C123.69 146.089 122.507 143.698 121.03 145.076C121.019 145.087 121.009 145.099 121.003 145.113C120.996 145.128 120.993 145.143 120.993 145.159C120.993 145.174 120.996 145.19 121.003 145.204C121.009 145.218 121.019 145.231 121.03 145.241L123.672 146.833L123.69 146.089Z" fill="#263238"/>
<path d="M135.182 154.232V157.935C135.182 157.935 131.352 157.862 131.352 155.025C131.352 152.415 134.432 153 135.182 154.232Z" fill="#FFA8A7"/>
<path d="M107.189 250.326C107.189 250.326 107.012 255.248 113.844 257.268C113.844 257.268 114.863 250.326 107.189 250.326Z" fill="#253239"/>
<path d="M112.514 261.403V258.439C112.514 257.813 112.657 257.195 112.931 256.632C113.206 256.07 113.606 255.578 114.1 255.194C114.1 255.194 113.088 250.869 108.989 251.125C107.664 251.636 106.523 252.532 105.713 253.699C105.415 254.097 105.206 254.555 105.101 255.042C104.996 255.528 104.996 256.031 105.103 256.517C105.076 256.407 105.08 256.292 105.115 256.185C105.149 256.077 105.213 255.981 105.299 255.908C105.386 255.834 105.49 255.786 105.602 255.769C105.714 255.752 105.828 255.766 105.933 255.81L106.921 256.218C107.537 256.471 108.082 256.872 108.507 257.384C108.933 257.897 109.226 258.506 109.361 259.159L110.581 264.923C110.682 265.459 110.947 265.951 111.337 266.332C111.728 266.712 112.226 266.964 112.765 267.052H112.85C112.962 267.058 113.074 267.058 113.185 267.052H113.277C113.387 267.048 113.497 267.038 113.606 267.022H113.698C113.811 267.003 113.923 266.979 114.033 266.948H114.107C114.243 266.909 114.376 266.858 114.503 266.796C114.641 266.733 114.774 266.66 114.9 266.576L115.937 265.899C116.087 265.802 116.21 265.666 116.292 265.507C116.375 265.348 116.414 265.169 116.406 264.99C116.327 263.819 115.808 261.403 112.514 261.403Z" fill="#37474F"/>
<path d="M115.9 265.887L114.863 266.564C114.737 266.648 114.604 266.721 114.467 266.784C114.339 266.846 114.206 266.897 114.07 266.936H113.997C113.886 266.966 113.774 266.991 113.661 267.009H113.57H113.442H113.24H113.027H112.813H112.746C112.218 266.923 111.727 266.678 111.34 266.308C110.952 265.938 110.686 265.46 110.575 264.935C110.578 264.917 110.578 264.899 110.575 264.88L109.355 259.116C109.22 258.463 108.927 257.854 108.501 257.342C108.076 256.829 107.531 256.429 106.915 256.176L105.927 255.767C105.493 255.572 105.213 255.907 105.036 256.078C104.873 256.222 104.755 256.411 104.696 256.621C104.638 256.831 104.641 257.053 104.707 257.261L105.927 262.623C106.199 263.848 106.925 264.925 107.958 265.637L110.563 267.424C110.987 267.694 111.465 267.867 111.964 267.931C112.462 267.996 112.969 267.95 113.448 267.796H113.46H113.521C113.705 267.732 113.885 267.654 114.058 267.564L115.174 266.954C115.415 266.824 115.623 266.641 115.783 266.419C115.944 266.198 116.052 265.943 116.101 265.673C116.048 265.756 115.979 265.828 115.9 265.887Z" fill="#263238"/>
<path d="M108.141 251.515C108.141 251.515 112.826 251.967 112.808 256.92L115.717 252.375L110.941 247.385L108.141 251.515Z" fill="#FFA8A7"/>
<path d="M118.56 194.175V202.069C118.56 205.212 118.702 208.347 118.987 211.475L119.945 222.04C120.067 223.329 119.906 224.628 119.471 225.848C119.037 227.067 118.341 228.177 117.431 229.098C115.978 230.587 114.768 232.296 113.845 234.161C110.947 239.864 107.189 250.32 107.189 250.32C107.189 250.32 113.845 250.32 113.845 257.261L129.003 231.959C130.076 230.165 130.751 228.162 130.979 226.084L134.2 197.164L118.56 194.175Z" fill="#455A64"/>
<path d="M151.927 239.687C152.208 240.193 152.647 240.592 153.177 240.822H153.238C154.34 241.31 155.589 241.352 156.721 240.938L166.372 237.43C167.055 237.131 167.067 236.113 167.024 235.692H151.927V239.687Z" fill="#263238"/>
<path d="M152.5 233.972C152.5 233.972 151.14 235.387 151.64 238.065C151.722 238.487 151.905 238.883 152.174 239.219C152.442 239.555 152.789 239.82 153.183 239.992L153.244 240.023C154.347 240.509 155.596 240.548 156.727 240.133L166.377 236.625C166.613 236.534 166.806 236.359 166.919 236.133C167.031 235.908 167.056 235.648 166.987 235.405C166.542 233.837 164.968 232.257 161.32 233.215C160.399 233.518 159.448 233.722 158.484 233.825L157.99 233.02L152.5 233.972Z" fill="#37474F"/>
<path d="M158.484 233.795C157.978 235.149 156.044 235.625 153.812 234.874C153.302 234.701 152.827 234.438 152.409 234.1V228.75H158.509L158.484 233.795Z" fill="#FFA8A7"/>
<path d="M125.465 196.194V197.097C125.457 199.822 126.35 202.474 128.005 204.639C129.66 206.805 131.983 208.363 134.615 209.071L150.158 213.183C150.379 213.241 150.574 213.371 150.713 213.552C150.852 213.733 150.927 213.955 150.926 214.183V232.739C150.926 232.739 158.429 236.509 160.601 230.665V210.621C160.607 208.986 160.12 207.388 159.203 206.034C158.287 204.681 156.984 203.635 155.465 203.032L139.33 196.701L125.465 196.194Z" fill="#455A64"/>
<path d="M132.26 214.482L132.87 208.345C132.87 208.345 127.868 206.668 127.1 204.368C126.844 206.753 130.193 208.937 131.034 209.425C131.345 211.273 132.26 214.482 132.26 214.482Z" fill="#37474F"/>
<path d="M126.722 166.756C126.722 166.756 126.862 163.809 127.875 163.809C128.686 163.809 132.797 164.975 134.383 165.438C134.816 165.556 135.189 165.832 135.426 166.213C136.061 167.133 136.434 168.208 136.506 169.324L126.722 166.756Z" fill="#37474F"/>
<path d="M144.887 176.863C144.887 176.863 149.481 172.191 150.127 172.593C150.92 173.094 149.962 174.893 149.237 175.643L152.842 173.289C152.954 173.215 153.08 173.166 153.212 173.143C153.345 173.121 153.48 173.126 153.61 173.159C153.74 173.192 153.862 173.251 153.968 173.333C154.074 173.415 154.162 173.519 154.226 173.637C155.233 175.467 156.319 179.737 146.687 182.567L144.887 176.863Z" fill="#FFA8A7"/>
<path d="M148.047 183.122C148.047 183.122 145.656 184.22 142.557 185.562C137.36 187.831 130.168 190.826 128.851 190.613C125.395 190.057 121.982 189.258 118.639 188.222L119.304 178.974L129.259 181.902L144.18 176.052L144.79 175.808C148.999 177.358 148.047 183.122 148.047 183.122Z" fill="#263238"/>
<path d="M125.477 165.225L121.762 164.206C121.16 164.043 120.528 164.022 119.916 164.144C119.303 164.266 118.728 164.528 118.234 164.91C117.74 165.292 117.341 165.782 117.069 166.344C116.796 166.905 116.657 167.522 116.663 168.147V169.47C116.659 171.187 117.057 172.882 117.824 174.418C118.59 175.955 119.705 177.291 121.079 178.321L125.404 181.554L125.477 165.225Z" fill="#37474F"/>
<path d="M141.386 190.717L144.296 203.807C144.296 203.807 136.238 207.851 127.509 205.302C118.779 202.752 117.749 200.562 117.749 200.562L118.639 188.234L119.304 178.986L120.085 168.208C120.119 167.683 120.268 167.172 120.52 166.71C120.773 166.249 121.123 165.849 121.547 165.537C121.971 165.225 122.457 165.01 122.973 164.907C123.489 164.803 124.021 164.814 124.532 164.938L136.768 167.988C138.933 168.543 140.85 169.805 142.217 171.572C143.584 173.34 144.322 175.513 144.314 177.748L142.557 185.586L141.386 190.717Z" fill="#263238"/>
<path d="M147.211 206.241C147.211 206.241 152.012 210.596 151.707 211.298C151.402 211.999 149.42 211.249 148.657 210.566L151.176 214.073C151.256 214.183 151.311 214.307 151.34 214.439C151.37 214.571 151.371 214.708 151.346 214.84C151.32 214.973 151.267 215.099 151.191 215.21C151.115 215.322 151.016 215.417 150.902 215.489C149.157 216.605 144.979 217.929 141.679 208.358L147.211 206.241Z" fill="#FFA8A7"/>
<path d="M138.628 168.659C138.628 168.659 134.181 177.199 132.76 190.771C132.534 192.913 141.196 209.761 141.196 209.761C141.196 209.761 146.943 210.413 148.242 206.101L141.386 190.735L144.259 178.327C144.516 177.242 144.495 176.109 144.198 175.033C143.606 172.905 142.13 169.672 138.628 168.659Z" fill="#37474F"/>
<path d="M229.159 61.1037L235.314 64.6417V62.4396C235.314 62.281 235.314 62.1285 235.314 61.9699C235.314 61.8113 235.314 61.671 235.314 61.5307V61.4758C235.54 58.56 237.723 57.4376 240.395 58.9992C241.612 59.7477 242.653 60.7507 243.445 61.9394C244.055 57.9744 247.246 56.547 251.113 58.804C255.413 61.3111 258.896 67.405 258.896 72.4192V77.1406C258.901 77.5097 259 77.8717 259.183 78.1919C259.367 78.5122 259.629 78.7803 259.946 78.9706L263.569 81.1178C264.357 81.587 265.01 82.2533 265.462 83.0512C265.915 83.8491 266.151 84.7511 266.149 85.6684C266.153 86.0478 266.057 86.4215 265.869 86.7515C265.682 87.0815 265.411 87.3559 265.083 87.5468C264.755 87.7378 264.382 87.8384 264.003 87.8384C263.623 87.8385 263.25 87.738 262.922 87.5472L229.269 67.9052C228.372 67.3782 227.629 66.6257 227.113 65.7225C226.597 64.8193 226.327 63.7969 226.329 62.7568C226.33 62.4258 226.418 62.101 226.583 61.8144C226.749 61.5277 226.986 61.2892 227.272 61.1223C227.558 60.9554 227.882 60.8659 228.213 60.8626C228.544 60.8593 228.87 60.9424 229.159 61.1037Z" fill="#E6E6E6"/>
<path d="M224.767 32.4093L228.75 34.6968V33.2755C228.75 33.1718 228.75 33.0742 228.75 32.9766C228.75 32.879 228.75 32.7814 228.75 32.6838C228.896 30.7989 230.305 30.0791 232.032 31.0856C232.806 31.5587 233.472 32.1908 233.984 32.94C234.374 30.378 236.424 29.4569 238.937 30.9148C241.713 32.5313 243.963 36.4719 243.963 39.711V42.761C243.959 43.0058 244.02 43.2474 244.139 43.4616C244.258 43.6757 244.431 43.8548 244.641 43.981L246.983 45.3657C247.492 45.6693 247.913 46.1 248.205 46.6155C248.497 47.1309 248.649 47.7135 248.648 48.3059C248.651 48.5513 248.589 48.7931 248.468 49.0067C248.347 49.2203 248.171 49.3981 247.96 49.522C247.748 49.646 247.507 49.7116 247.261 49.7123C247.016 49.7129 246.775 49.6486 246.562 49.5259L224.828 36.8379C224.25 36.4979 223.771 36.0129 223.438 35.4308C223.105 34.8488 222.93 34.1899 222.931 33.5195C222.92 33.2999 222.969 33.0816 223.073 32.8876C223.176 32.6937 223.33 32.5312 223.518 32.4175C223.706 32.3038 223.921 32.243 224.141 32.2415C224.361 32.2401 224.577 32.298 224.767 32.4093Z" fill="#E6E6E6"/>
</svg>
