<svg width="349" height="249" viewBox="0 70 349 249" fill="none" xmlns="http://www.w3.org/2000/svg">
<path d="M174.5 298.437C249.244 298.437 309.835 294.899 309.835 290.535C309.835 286.172 249.244 282.634 174.5 282.634C99.7567 282.634 39.165 286.172 39.165 290.535C39.165 294.899 99.7567 298.437 174.5 298.437Z" fill="#F5F5F5"/>
<path d="M97.3782 128.418H110.103L98.7044 288.086H85.9868L97.3782 128.418Z" fill="#FF725E"/>
<path opacity="0.4" d="M97.3782 128.418H110.103L98.7044 288.086H85.9868L97.3782 128.418Z" fill="black"/>
<path d="M164.358 288.086H97.141L87.9204 73.3109H155.138L164.358 288.086Z" fill="#FF725E"/>
<path opacity="0.3" d="M164.358 288.086H97.141L87.9204 73.3109H155.138L164.358 288.086Z" fill="black"/>
<path d="M165.754 288.086H98.537L89.3164 73.3109H156.534L165.754 288.086Z" fill="#FF725E"/>
<path opacity="0.9" d="M102.55 283.898L93.6929 77.4989H152.52L161.378 283.898H102.55Z" fill="#FAFAFA"/>
<path opacity="0.3" d="M116.629 283.898H110.584L138.442 77.4989H144.486L116.629 283.898Z" fill="#FAFAFA"/>
<path opacity="0.3" d="M121.668 283.898H119.114L146.971 77.4989H149.519L121.668 283.898Z" fill="#FAFAFA"/>
<path d="M258.831 132.337L262.2 140.872L264.209 121.395C264.279 120.15 264.007 118.909 263.422 117.809C263.178 117.316 262.878 116.853 262.527 116.429C262.084 115.907 261.572 115.446 261.006 115.061C260.432 114.763 260.535 113.952 261.092 113.878C261.649 113.803 263.187 114.596 264.421 116.176C265.655 117.757 265.718 114.671 265.77 113.521C265.821 112.372 266.114 108.82 266.476 108.567C267.009 108.188 267.52 108.699 267.451 109.849C267.382 110.998 267.417 114.446 268.025 114.446C268.634 114.446 268.76 108.596 268.76 108.596C268.76 108.596 268.588 107.332 269.288 107.32C270.551 107.32 269.948 113.504 269.862 114.09C269.81 114.498 270.47 114.533 270.505 114.09C270.539 113.648 270.505 108.24 271.79 108.205C272.778 108.176 271.343 113.314 271.963 114.446C272.582 115.579 272.657 110.423 273.598 110.423C273.954 110.423 274.212 110.481 273.753 113.418C273.501 114.998 272.514 117.291 272.261 120.372L272.192 121.171C272.192 124.998 272.066 139.446 268.748 148.303C268.288 149.512 267.507 150.573 266.489 151.37C265.471 152.168 264.255 152.673 262.973 152.83C261.69 152.987 260.388 152.791 259.208 152.263C258.028 151.734 257.015 150.894 256.277 149.831C253.436 145.741 251.064 141.344 249.205 136.722L258.831 132.337Z" fill="#F9B491"/>
<path d="M270.356 118.837C270.356 118.866 270.161 118.866 269.857 118.981C269.452 119.133 269.114 119.424 268.904 119.803L268.789 120.021L268.714 119.786C268.611 119.451 268.447 119.137 268.232 118.86C267.811 118.323 267.24 117.923 266.591 117.711C266.092 117.544 265.753 117.561 265.753 117.521C266.045 117.448 266.352 117.462 266.637 117.561C267.339 117.733 267.962 118.138 268.405 118.711C268.636 119.009 268.809 119.348 268.915 119.711H268.726C268.844 119.505 269.002 119.324 269.19 119.179C269.378 119.034 269.593 118.928 269.822 118.866C269.992 118.799 270.18 118.789 270.356 118.837Z" fill="#EB996E"/>
<path d="M262.848 153.119C262.848 153.119 262.848 153.009 262.929 152.826C263.058 152.559 263.256 152.333 263.503 152.17C263.801 151.941 264.22 151.728 264.65 151.372C265.112 150.939 265.405 150.356 265.477 149.728C265.567 148.977 265.483 148.216 265.23 147.504C264.989 146.728 264.616 145.952 264.358 145.096C264.218 144.66 264.133 144.208 264.105 143.751C264.068 143.279 264.138 142.806 264.312 142.366C264.765 141.462 265.421 140.675 266.229 140.067C266.624 139.73 266.991 139.361 267.325 138.964C267.64 138.58 267.874 138.136 268.014 137.659C268.2 136.713 268.137 135.734 267.83 134.82C267.595 133.946 267.314 133.136 267.159 132.354C267.014 131.628 266.987 130.883 267.078 130.148C267.243 128.785 267.8 127.499 268.68 126.446L268.823 126.268C268.858 126.228 268.875 126.205 268.869 126.205C268.583 126.48 268.329 126.787 268.111 127.119C267.503 128.023 267.111 129.056 266.964 130.136C266.86 130.881 266.881 131.639 267.027 132.377C267.182 133.176 267.457 133.992 267.687 134.86C267.983 135.749 268.042 136.7 267.859 137.619C267.73 138.093 267.501 138.534 267.187 138.912C266.863 139.289 266.507 139.639 266.126 139.958C265.741 140.303 265.351 140.647 264.978 141.021C264.625 141.39 264.343 141.821 264.145 142.291C263.968 142.752 263.895 143.247 263.933 143.739C263.967 144.208 264.055 144.671 264.197 145.119C264.467 145.987 264.84 146.762 265.081 147.527C265.336 148.221 265.426 148.964 265.345 149.699C265.284 150.309 265.009 150.877 264.57 151.303C264.168 151.659 263.749 151.877 263.422 152.124C263.169 152.294 262.969 152.534 262.848 152.814C262.824 152.887 262.808 152.962 262.802 153.038C262.848 153.09 262.848 153.119 262.848 153.119Z" fill="#263238"/>
<path d="M267.25 128.768C266.841 128.619 266.454 128.412 266.103 128.153C265.733 127.868 265.422 127.515 265.184 127.113C264.893 126.623 264.727 126.068 264.702 125.498L264.599 125.573H264.656L264.76 125.607C264.828 125.607 264.897 125.671 264.966 125.699C265.097 125.759 265.224 125.828 265.345 125.906C265.578 126.052 265.794 126.223 265.988 126.418C266.322 126.749 266.595 127.139 266.791 127.567C266.964 127.964 267.087 128.381 267.159 128.808C267.18 128.693 267.18 128.574 267.159 128.458C267.121 128.135 267.036 127.819 266.906 127.521C266.715 127.076 266.443 126.67 266.103 126.326C265.9 126.123 265.677 125.942 265.437 125.785C265.309 125.705 265.177 125.632 265.041 125.567C264.972 125.567 264.903 125.498 264.828 125.475L264.719 125.435H264.662H264.61L264.507 125.51C264.531 126.108 264.709 126.69 265.024 127.199C265.274 127.614 265.606 127.974 265.999 128.257C266.26 128.447 266.549 128.596 266.854 128.699C266.982 128.742 267.116 128.765 267.25 128.768Z" fill="#263238"/>
<path d="M265.213 126.222C265.546 126.686 265.906 127.129 266.292 127.55C266.632 128.009 266.998 128.448 267.388 128.866C267.124 128.354 266.794 127.878 266.407 127.452C266.063 126.993 265.662 126.579 265.213 126.222Z" fill="#263238"/>
<path d="M265.827 140.205C265.447 139.996 265.095 139.737 264.783 139.435C264.457 139.104 264.198 138.714 264.019 138.285C263.8 137.757 263.715 137.182 263.772 136.613L263.663 136.676H263.715L263.813 136.734C263.879 136.767 263.942 136.805 264.002 136.849C264.125 136.926 264.242 137.013 264.352 137.107C264.563 137.278 264.755 137.471 264.926 137.682C265.212 138.054 265.428 138.474 265.563 138.923C265.673 139.342 265.736 139.772 265.753 140.205C265.779 140.09 265.793 139.972 265.793 139.854C265.797 139.53 265.755 139.207 265.666 138.895C265.546 138.45 265.346 138.031 265.075 137.659C264.909 137.429 264.716 137.219 264.501 137.033C264.386 136.934 264.265 136.842 264.14 136.757C264.075 136.713 264.008 136.673 263.939 136.636L263.836 136.579L263.784 136.55L263.675 136.607C263.617 137.196 263.71 137.789 263.945 138.331C264.137 138.777 264.416 139.179 264.765 139.515C264.997 139.746 265.262 139.94 265.552 140.09C265.639 140.139 265.731 140.177 265.827 140.205Z" fill="#263238"/>
<path d="M264.168 137.395C264.438 137.9 264.733 138.391 265.052 138.866C265.328 139.365 265.629 139.851 265.953 140.32C265.764 139.785 265.505 139.277 265.184 138.808C264.908 138.295 264.567 137.82 264.168 137.395Z" fill="#263238"/>
<path d="M264.862 146.854C264.431 146.826 264.005 146.743 263.594 146.607C263.155 146.447 262.752 146.203 262.406 145.889C261.981 145.507 261.657 145.025 261.465 144.487L261.39 144.59H261.614C261.688 144.59 261.757 144.59 261.832 144.59C261.977 144.61 262.121 144.639 262.262 144.676C262.983 144.872 263.633 145.271 264.133 145.826C264.414 146.157 264.657 146.52 264.857 146.906C264.835 146.79 264.796 146.678 264.742 146.573C264.608 146.276 264.43 146 264.214 145.757C263.901 145.387 263.521 145.081 263.095 144.854C262.833 144.725 262.557 144.625 262.274 144.555C262.128 144.517 261.981 144.489 261.832 144.469C261.756 144.454 261.679 144.444 261.602 144.441H261.367L261.292 144.544C261.492 145.107 261.834 145.608 262.285 145.998C262.648 146.319 263.072 146.563 263.531 146.716C263.84 146.82 264.163 146.876 264.489 146.883C264.614 146.893 264.74 146.883 264.862 146.854Z" fill="#263238"/>
<path d="M262.16 145.004C262.619 145.342 263.096 145.657 263.589 145.946C264.381 146.458 265.001 146.906 265.029 146.872C264.627 146.46 264.172 146.104 263.675 145.814C263.207 145.48 262.697 145.207 262.16 145.004Z" fill="#263238"/>
<path d="M267.721 134.59C267.289 134.561 266.863 134.476 266.453 134.337C266.016 134.181 265.613 133.943 265.265 133.636C264.84 133.255 264.519 132.772 264.329 132.234L264.255 132.337H264.478C264.553 132.337 264.628 132.337 264.696 132.337C264.842 132.357 264.985 132.385 265.127 132.423C265.391 132.496 265.647 132.596 265.89 132.722C266.306 132.939 266.681 133.227 266.998 133.573C267.276 133.905 267.517 134.268 267.715 134.653C267.69 134.536 267.651 134.423 267.601 134.314C267.464 134.02 267.289 133.745 267.078 133.498C266.757 133.126 266.368 132.82 265.93 132.596C265.679 132.461 265.414 132.355 265.138 132.28C264.992 132.237 264.842 132.206 264.691 132.188C264.615 132.172 264.538 132.163 264.461 132.159H264.226C264.226 132.205 264.3 132.056 264.151 132.263C264.336 132.77 264.633 133.229 265.02 133.606C265.406 133.983 265.872 134.268 266.384 134.441C266.69 134.548 267.012 134.606 267.337 134.613C267.465 134.621 267.594 134.613 267.721 134.59Z" fill="#263238"/>
<path d="M265.024 132.757C265.024 132.797 265.667 133.188 266.453 133.705C266.914 134.041 267.393 134.352 267.888 134.636C267.485 134.227 267.032 133.872 266.539 133.579C266.07 133.242 265.561 132.966 265.024 132.757Z" fill="#263238"/>
<path d="M267.016 131.745C267.157 131.339 267.35 130.953 267.59 130.596C267.869 130.22 268.22 129.903 268.623 129.665C269.108 129.366 269.661 129.194 270.23 129.165L270.155 129.067V129.096V129.148L270.121 129.251C270.121 129.326 270.058 129.389 270.035 129.458C269.973 129.59 269.904 129.718 269.828 129.843C269.685 130.078 269.515 130.296 269.323 130.492C268.991 130.83 268.603 131.106 268.175 131.308C267.778 131.484 267.362 131.611 266.935 131.688C267.053 131.705 267.173 131.705 267.291 131.688C267.611 131.642 267.924 131.553 268.221 131.423C268.926 131.104 269.524 130.587 269.943 129.935C270.022 129.805 270.092 129.671 270.155 129.533C270.184 129.464 270.224 129.395 270.247 129.32L270.287 129.211V129.153L270.207 129.05C269.611 129.08 269.034 129.264 268.531 129.584C268.119 129.839 267.762 130.173 267.48 130.567C267.293 130.833 267.146 131.125 267.044 131.435C267.024 131.537 267.014 131.641 267.016 131.745Z" fill="#263238"/>
<path d="M269.535 129.682C269.506 129.653 268.961 130.171 268.22 130.78C267.766 131.132 267.333 131.51 266.923 131.912C267.914 131.329 268.797 130.581 269.535 129.699V129.682Z" fill="#263238"/>
<path d="M264.116 143.728C264.39 143.389 264.706 143.088 265.058 142.831C265.448 142.574 265.881 142.391 266.338 142.291C266.896 142.173 267.475 142.193 268.025 142.349C267.945 142.107 268.025 142.285 267.985 142.234L267.945 142.28L267.876 142.366C267.83 142.423 267.778 142.475 267.727 142.533C267.628 142.638 267.523 142.736 267.411 142.826C267.198 142.999 266.967 143.15 266.722 143.274C266.304 143.487 265.851 143.623 265.385 143.676C264.954 143.712 264.52 143.694 264.093 143.624C264.199 143.68 264.314 143.715 264.432 143.728C264.749 143.793 265.074 143.813 265.396 143.785C265.879 143.747 266.35 143.618 266.785 143.406C267.042 143.278 267.284 143.124 267.508 142.946C267.625 142.849 267.736 142.745 267.841 142.636C267.896 142.583 267.948 142.528 267.996 142.469L268.014 142.429L268.048 142.383C268.048 142.326 268.094 142.504 268.014 142.257C267.44 142.09 266.833 142.075 266.252 142.211C265.779 142.312 265.333 142.508 264.937 142.785C264.696 142.961 264.482 143.17 264.3 143.406C264.223 143.503 264.161 143.612 264.116 143.728Z" fill="#263238"/>
<path d="M267.17 142.607C267.17 142.567 266.452 142.877 265.569 143.182C265.034 143.374 264.509 143.592 263.996 143.837C264.563 143.749 265.117 143.589 265.643 143.36C266.184 143.18 266.698 142.927 267.17 142.607Z" fill="#263238"/>
<path d="M265.391 149.682C265.498 149.263 265.662 148.861 265.879 148.487C266.123 148.086 266.442 147.736 266.82 147.458C267.278 147.117 267.812 146.895 268.375 146.809C268.203 146.625 268.324 146.763 268.289 146.717V146.745V146.797L268.26 146.906C268.26 146.981 268.215 147.05 268.197 147.119C268.149 147.256 268.093 147.39 268.031 147.521C267.908 147.768 267.76 148.001 267.589 148.217C267.299 148.584 266.945 148.895 266.544 149.136C266.166 149.349 265.763 149.515 265.345 149.63C265.463 149.633 265.581 149.618 265.695 149.584C266.011 149.512 266.314 149.393 266.596 149.234C267.018 148.997 267.391 148.683 267.698 148.309C267.882 148.089 268.038 147.848 268.163 147.59C268.233 147.455 268.292 147.315 268.341 147.171C268.341 147.096 268.392 147.027 268.41 146.946V146.837V146.78V146.734C268.375 146.694 268.502 146.826 268.324 146.636C267.734 146.725 267.177 146.962 266.705 147.326C266.32 147.62 265.998 147.99 265.758 148.412C265.592 148.692 265.472 148.996 265.402 149.314C265.38 149.436 265.376 149.56 265.391 149.682Z" fill="#263238"/>
<path d="M267.704 147.389C267.282 147.774 266.88 148.181 266.499 148.607C266.081 148.995 265.684 149.406 265.311 149.837C266.244 149.165 267.053 148.337 267.704 147.389Z" fill="#263238"/>
<path d="M267.681 138.4C267.818 137.993 268.011 137.606 268.255 137.251C268.538 136.879 268.889 136.563 269.288 136.32C269.776 136.022 270.33 135.85 270.901 135.82C270.746 135.619 270.855 135.768 270.82 135.722V135.751V135.803L270.78 135.912C270.78 135.981 270.723 136.044 270.694 136.113C270.635 136.245 270.568 136.374 270.493 136.498C270.348 136.732 270.179 136.949 269.988 137.148C269.659 137.488 269.27 137.765 268.84 137.964C268.447 138.142 268.032 138.269 267.606 138.343C267.722 138.364 267.841 138.364 267.956 138.343C268.277 138.298 268.59 138.209 268.886 138.079C269.328 137.88 269.731 137.604 270.074 137.262C270.276 137.06 270.453 136.834 270.602 136.59C270.685 136.462 270.758 136.327 270.82 136.188C270.82 136.119 270.883 136.05 270.912 135.975L270.947 135.866V135.808V135.78C270.912 135.734 271.027 135.877 270.872 135.676C270.275 135.705 269.695 135.889 269.19 136.211C268.78 136.467 268.424 136.803 268.146 137.199C267.956 137.462 267.809 137.753 267.71 138.061C267.68 138.172 267.671 138.287 267.681 138.4Z" fill="#263238"/>
<path d="M270.201 136.337C269.742 136.676 269.303 137.04 268.886 137.429C268.169 138.038 267.561 138.509 267.583 138.544C268.092 138.275 268.562 137.941 268.984 137.55C269.437 137.197 269.846 136.789 270.201 136.337Z" fill="#263238"/>
<path d="M269.116 132.607C268.913 132.618 268.722 132.707 268.584 132.857C268.445 133.007 268.371 133.204 268.376 133.408C268.381 133.612 268.466 133.805 268.612 133.948C268.757 134.09 268.953 134.17 269.156 134.17C269.36 134.17 269.555 134.09 269.701 133.948C269.847 133.805 269.932 133.612 269.937 133.408C269.942 133.204 269.868 133.007 269.729 132.857C269.591 132.707 269.4 132.618 269.197 132.607" fill="#FF725E"/>
<path d="M262.613 148.389C262.467 148.411 262.331 148.474 262.22 148.573C262.11 148.671 262.031 148.799 261.993 148.941C261.954 149.084 261.958 149.235 262.004 149.375C262.049 149.515 262.135 149.639 262.25 149.731C262.365 149.824 262.505 149.881 262.651 149.895C262.798 149.909 262.946 149.88 263.076 149.811C263.207 149.742 263.314 149.637 263.386 149.508C263.458 149.379 263.49 149.232 263.479 149.084C263.459 148.89 263.368 148.71 263.223 148.579C263.077 148.448 262.888 148.377 262.693 148.378" fill="#FF725E"/>
<path d="M199.553 153.751C198.17 152.226 197.388 150.25 197.352 148.19C197.317 146.131 198.029 144.128 199.358 142.556L212.593 126.872L218.734 138.308C218.493 138.481 207.284 149.803 207.284 149.803L215.21 159.303C215.9 160.127 216.37 161.113 216.576 162.168C216.783 163.223 216.72 164.313 216.393 165.337L214.992 171.567L207.594 168.429L208.07 167.665L212.915 167.544L213.179 166.395L199.553 153.751Z" fill="#F9B491"/>
<path d="M205.258 147.607C205.195 147.665 205.642 148.217 206.262 148.809C206.608 149.198 207.004 149.54 207.439 149.826C207.508 149.774 207.094 149.188 206.469 148.59C206.123 148.197 205.713 147.865 205.258 147.607Z" fill="#EB996E"/>
<path d="M219.148 282.974L219.062 276.888L230.449 276.653L230.667 285.555L229.961 285.618C226.827 285.859 213.988 286.618 211.876 286.02C209.523 285.359 219.148 282.974 219.148 282.974Z" fill="#FF725E"/>
<g opacity="0.4">
<path opacity="0.4" d="M226.54 285.555C226.683 284.589 227.183 283.711 227.94 283.095C228.681 282.479 229.625 282.163 230.586 282.21L230.655 285.394L226.54 285.555Z" fill="black"/>
</g>
<g opacity="0.4">
<path opacity="0.4" d="M214.447 284.308C214.447 284.308 211.078 285.36 211.514 285.911C211.95 286.463 224.945 286.181 230.667 285.555V285.302L215.509 285.756C215.509 285.756 215.113 284.325 214.447 284.308Z" fill="black"/>
</g>
<path d="M230.822 285.291C230.758 285.309 230.693 285.319 230.627 285.319L230.053 285.365L227.986 285.497C226.265 285.595 223.825 285.704 221.156 285.762C218.488 285.819 216.071 285.825 214.321 285.802L212.249 285.756H211.675H211.48C211.544 285.747 211.61 285.747 211.675 285.756H214.309C216.06 285.756 218.476 285.756 221.145 285.676C223.814 285.595 226.224 285.526 227.969 285.451L230.041 285.359H230.615L230.822 285.291Z" fill="#263238"/>
<path d="M215.491 285.934C215.393 285.592 215.257 285.262 215.084 284.952C214.872 284.667 214.63 284.407 214.361 284.176C214.717 284.297 215.016 284.547 215.199 284.877C215.422 285.181 215.527 285.558 215.491 285.934Z" fill="#263238"/>
<path d="M218.814 284.152C218.78 284.152 218.619 283.986 218.447 283.727C218.275 283.469 218.16 283.239 218.195 283.221C218.229 283.204 218.39 283.388 218.562 283.647C218.683 283.794 218.77 283.967 218.814 284.152Z" fill="#263238"/>
<path d="M219.727 283.635C219.698 283.664 219.52 283.549 219.319 283.377C219.119 283.204 218.975 283.043 219.004 283.015C219.033 282.986 219.21 283.101 219.411 283.273C219.612 283.446 219.75 283.635 219.727 283.635Z" fill="#263238"/>
<path d="M220.284 282.561C220.101 282.628 219.905 282.657 219.71 282.647C219.517 282.674 219.321 282.656 219.136 282.595C219.32 282.528 219.515 282.499 219.71 282.509C219.903 282.482 220.099 282.5 220.284 282.561Z" fill="#263238"/>
<path d="M220.468 281.796C220.277 281.933 220.048 282.006 219.813 282.003C219.582 282.05 219.341 282.024 219.125 281.929C219.346 281.887 219.571 281.866 219.796 281.865C220.017 281.82 220.242 281.797 220.468 281.796Z" fill="#263238"/>
<path d="M218.407 283.17C218.164 283.215 217.915 283.215 217.673 283.17C217.408 283.143 217.147 283.091 216.892 283.015C216.737 282.971 216.587 282.911 216.444 282.837C216.356 282.79 216.289 282.712 216.255 282.618C216.242 282.563 216.246 282.506 216.265 282.453C216.285 282.4 216.319 282.353 216.364 282.319C216.64 282.176 216.956 282.133 217.26 282.198C217.564 282.263 217.835 282.432 218.028 282.676C218.146 282.819 218.232 282.986 218.281 283.164C218.294 283.229 218.294 283.295 218.281 283.36C218.198 283.135 218.08 282.926 217.931 282.739C217.762 282.55 217.543 282.415 217.299 282.348C217.01 282.258 216.696 282.287 216.427 282.429C216.312 282.515 216.364 282.653 216.49 282.728C216.625 282.795 216.765 282.851 216.909 282.894C217.157 282.972 217.41 283.032 217.667 283.072C218.126 283.153 218.407 283.147 218.407 283.17Z" fill="#263238"/>
<path d="M218.218 283.21C218.126 283.059 218.091 282.879 218.12 282.704C218.143 282.512 218.207 282.328 218.31 282.164C218.366 282.057 218.448 281.966 218.548 281.898C218.648 281.831 218.764 281.79 218.884 281.779C218.959 281.793 219.025 281.836 219.069 281.898C219.113 281.96 219.131 282.037 219.119 282.112C219.103 282.229 219.062 282.341 218.999 282.44C218.908 282.603 218.796 282.754 218.666 282.888C218.552 283.02 218.411 283.126 218.252 283.199C218.252 283.199 218.396 283.061 218.591 282.825C218.706 282.687 218.806 282.536 218.889 282.377C218.987 282.222 219.05 281.946 218.861 281.911C218.671 281.877 218.499 282.084 218.39 282.233C218.289 282.378 218.221 282.542 218.189 282.716C218.185 282.881 218.194 283.046 218.218 283.21Z" fill="#263238"/>
<path d="M230.523 282.175C230.523 282.204 230.196 282.175 229.685 282.227C229.015 282.314 228.384 282.589 227.865 283.022C227.345 283.454 226.96 284.026 226.753 284.67C226.592 285.164 226.58 285.492 226.552 285.486C226.542 285.41 226.542 285.332 226.552 285.256C226.569 285.048 226.607 284.841 226.666 284.641C226.854 283.965 227.243 283.363 227.781 282.914C228.32 282.465 228.982 282.192 229.68 282.13C229.888 282.109 230.097 282.109 230.305 282.13C230.38 282.134 230.453 282.15 230.523 282.175Z" fill="#263238"/>
<path d="M229.243 277.457C229.339 278.233 229.389 279.014 229.392 279.796C229.434 280.577 229.434 281.36 229.392 282.141C229.293 281.365 229.243 280.584 229.243 279.802C229.195 279.021 229.195 278.238 229.243 277.457Z" fill="#263238"/>
<path d="M225.082 284.474C223.987 284.708 222.86 284.743 221.753 284.578C221.753 284.538 222.499 284.578 223.418 284.538C224.336 284.497 225.076 284.434 225.082 284.474Z" fill="#263238"/>
<path d="M227.314 284.423C227.314 284.451 227.257 284.584 227.182 284.756C227.108 284.928 227.073 285.078 227.033 285.078C226.993 285.078 226.97 284.9 227.033 284.699C227.096 284.497 227.263 284.394 227.314 284.423Z" fill="#263238"/>
<path d="M228.129 283.354C228.158 283.382 228.089 283.503 227.974 283.624C227.859 283.745 227.739 283.825 227.716 283.796C227.693 283.768 227.756 283.653 227.871 283.532C227.986 283.411 228.101 283.331 228.129 283.354Z" fill="#263238"/>
<path d="M229.324 282.854C229.324 282.888 229.163 282.894 229.002 282.957C228.842 283.021 228.715 283.107 228.687 283.084C228.658 283.061 228.744 282.9 228.951 282.825C229.157 282.75 229.335 282.814 229.324 282.854Z" fill="#263238"/>
<path d="M230.179 282.607C230.179 282.641 230.127 282.704 230.035 282.739C229.943 282.773 229.852 282.785 229.834 282.739C229.817 282.693 229.886 282.647 229.978 282.607C230.07 282.566 230.133 282.572 230.179 282.607Z" fill="#263238"/>
<path d="M234.897 281.285L236.045 285.825C236.045 285.825 243.701 295.359 245.991 294.842C247.495 294.497 245.59 292.009 242.599 284.704L241.939 281.676L234.897 281.285Z" fill="#FF725E"/>
<path d="M246.295 293.405C246.206 293.571 246.07 293.707 245.905 293.796C245.674 293.903 245.418 293.943 245.166 293.913C244.913 293.882 244.674 293.782 244.476 293.624C243.145 292.554 241.882 291.402 240.693 290.176C239.287 288.756 238.099 287.388 237.249 286.377L236.268 285.17L236.004 284.842C235.941 284.768 235.906 284.727 235.901 284.733C235.921 284.778 235.946 284.82 235.975 284.86L236.222 285.204C236.434 285.503 236.756 285.928 237.163 286.446C238.234 287.782 239.374 289.062 240.578 290.279C241.771 291.518 243.05 292.67 244.407 293.727C244.662 293.895 244.957 293.994 245.262 294.015C245.492 294.028 245.721 293.974 245.922 293.859C246.046 293.786 246.151 293.684 246.226 293.561C246.26 293.515 246.284 293.462 246.295 293.405Z" fill="#263238"/>
<path d="M245.177 290.308C244.979 290.234 244.765 290.214 244.557 290.25C244.057 290.308 243.579 290.485 243.162 290.767C242.726 291.027 242.379 291.411 242.164 291.871C242.064 292.056 242.014 292.264 242.02 292.474C242.02 292.474 242.089 292.244 242.255 291.9C242.49 291.477 242.83 291.123 243.243 290.871C243.647 290.606 244.099 290.424 244.574 290.336C244.936 290.29 245.171 290.336 245.177 290.308Z" fill="#263238"/>
<path d="M238.07 288.181C238.07 288.181 238.11 288.107 238.156 287.963C238.219 287.756 238.265 287.545 238.294 287.331C238.383 286.617 238.246 285.894 237.904 285.262C237.565 284.623 237.021 284.117 236.36 283.825C236.162 283.741 235.953 283.683 235.74 283.653C235.662 283.639 235.582 283.639 235.505 283.653C235.782 283.728 236.055 283.822 236.32 283.934C236.938 284.242 237.445 284.734 237.772 285.342C238.103 285.952 238.249 286.645 238.191 287.337C238.139 287.854 238.042 288.176 238.07 288.181Z" fill="#263238"/>
<path d="M235.385 282.049C235.35 282.049 235.528 282.699 235.683 283.503C235.752 283.997 235.895 284.478 236.108 284.928C236.143 284.928 235.982 284.279 235.833 283.469C235.76 282.975 235.609 282.495 235.385 282.049Z" fill="#263238"/>
<path d="M242.76 285.36C242.45 285.26 242.117 285.26 241.807 285.36C241.486 285.416 241.189 285.566 240.952 285.791C240.952 285.831 241.343 285.624 241.842 285.503C242.341 285.383 242.76 285.388 242.76 285.36Z" fill="#263238"/>
<path d="M242.943 286.124C242.683 286.025 242.395 286.025 242.134 286.124C241.86 286.168 241.612 286.313 241.44 286.532C241.44 286.566 241.761 286.371 242.174 286.268C242.588 286.164 242.938 286.17 242.943 286.124Z" fill="#263238"/>
<path d="M243.558 287.084C243.435 287.004 243.295 286.953 243.15 286.936C243.005 286.919 242.857 286.936 242.72 286.986C242.576 287.008 242.438 287.063 242.318 287.145C242.198 287.228 242.098 287.336 242.025 287.463C242.257 287.33 242.501 287.218 242.754 287.13C243.019 287.084 243.289 287.069 243.558 287.084Z" fill="#263238"/>
<path d="M242.255 285.026C242.255 285.026 241.911 284.94 241.371 284.744C241.06 284.625 240.757 284.485 240.465 284.325C240.293 284.233 240.126 284.131 239.965 284.02C239.81 283.911 239.644 283.75 239.65 283.578C239.655 283.405 239.862 283.308 240.028 283.348C240.205 283.407 240.364 283.507 240.493 283.641C240.775 283.894 241.016 284.135 241.211 284.348C241.601 284.762 241.819 285.043 241.836 285.032C241.854 285.02 241.802 284.946 241.71 284.813C241.618 284.681 241.475 284.497 241.285 284.273C241.068 284.015 240.834 283.772 240.585 283.543C240.443 283.387 240.263 283.27 240.063 283.204C240.001 283.184 239.935 283.178 239.871 283.187C239.806 283.195 239.744 283.218 239.689 283.253C239.635 283.288 239.588 283.335 239.554 283.39C239.519 283.445 239.497 283.507 239.489 283.572C239.502 283.692 239.544 283.807 239.611 283.907C239.678 284.007 239.768 284.089 239.873 284.147C240.046 284.262 240.218 284.365 240.39 284.457C240.69 284.615 241.003 284.746 241.326 284.848C241.544 284.917 241.766 284.973 241.991 285.015C242.078 285.035 242.167 285.039 242.255 285.026Z" fill="#263238"/>
<path d="M241.859 284.94C241.917 284.665 241.96 284.387 241.985 284.106C242.027 283.809 242.107 283.517 242.22 283.239C242.289 283.079 242.38 282.93 242.49 282.796C242.599 282.664 242.766 282.555 242.903 282.629C243.041 282.704 243.064 282.905 243.047 283.078C243.021 283.249 242.977 283.416 242.915 283.578C242.796 283.854 242.637 284.112 242.444 284.342C242.106 284.733 241.87 284.917 241.87 284.917C241.87 284.917 241.951 284.917 242.065 284.802C242.234 284.678 242.392 284.54 242.536 284.388C242.751 284.159 242.926 283.894 243.053 283.606C243.126 283.434 243.176 283.252 243.202 283.066C243.224 282.96 243.215 282.849 243.176 282.747C243.137 282.645 243.071 282.557 242.984 282.492C242.879 282.46 242.766 282.463 242.662 282.5C242.559 282.537 242.47 282.607 242.41 282.698C242.293 282.844 242.198 283.007 242.129 283.181C242.013 283.472 241.942 283.778 241.916 284.089C241.893 284.295 241.882 284.503 241.882 284.71C241.861 284.785 241.854 284.862 241.859 284.94Z" fill="#263238"/>
<g opacity="0.4">
<path opacity="0.4" d="M236.073 285.825L235.499 283.641C235.499 283.641 237.33 283.946 237.835 285.302C238.133 286.043 238.272 286.838 238.243 287.635L242.301 291.837C242.301 291.837 243.253 289.865 245.067 290.296C245.067 290.296 246.554 293.394 246.525 294.176C246.496 294.957 245.589 294.882 245.262 294.75C243.934 294.014 242.717 293.093 241.646 292.015C239.506 289.871 237.124 287.147 236.073 285.825Z" fill="black"/>
</g>
<path d="M243.948 97.9639C243.862 98.1809 243.841 98.4186 243.889 98.6472C243.937 98.8758 244.051 99.0853 244.217 99.2496C244.382 99.4138 244.593 99.5255 244.822 99.5708C245.051 99.6161 245.288 99.5929 245.504 99.5041C246.319 99.1708 246.508 98.1018 246.422 97.2053C246.336 96.3087 246.118 95.3834 246.542 94.6133C246.948 94.0746 247.443 93.61 248.006 93.2398C248.452 92.8554 248.803 92.3722 249.03 91.8285C249.257 91.2848 249.354 90.6956 249.315 90.1076C249.263 89.521 249.05 88.9601 248.7 88.4873C248.349 88.0145 247.875 87.6483 247.329 87.4294C246.209 87.0099 244.763 87.2513 243.971 86.349C243.397 85.6938 243.443 84.7053 243.024 83.9467C242.364 82.7973 240.809 82.4639 239.46 82.5387C238.111 82.6134 236.728 82.9295 235.442 82.4984C234.375 82.1421 233.542 81.3088 232.572 80.7743C231.498 80.1739 230.263 79.9248 229.041 80.0618C227.818 80.1988 226.669 80.715 225.754 81.5383C224.839 82.3616 224.203 83.4507 223.937 84.6533C223.67 85.856 223.786 87.1119 224.267 88.2455C224.612 89.0501 225.249 91.3547 227.745 91.5271" fill="#FF725E"/>
<path d="M245.102 88.6478L244.947 90.4409L242.76 117.263C242.508 120.377 239.632 122.636 236.303 122.337C232.946 122.038 230.386 119.245 230.564 116.09C230.782 112.786 230.943 109.303 230.943 109.303C230.943 109.303 226.741 108.303 226.236 102.688C225.99 99.8948 226.437 95.3776 226.919 91.688C227.022 90.9012 227.283 90.1435 227.686 89.4605C228.089 88.7774 228.626 88.1833 229.265 87.7139C229.904 87.2444 230.631 86.9095 231.403 86.7292C232.175 86.549 232.975 86.5271 233.755 86.665L245.102 88.6478Z" fill="#F9B491"/>
<path d="M228.589 94.7627C228.573 94.9485 228.631 95.1331 228.75 95.2763C228.87 95.4194 229.041 95.5096 229.226 95.5271C229.315 95.5417 229.405 95.5384 229.493 95.5172C229.58 95.4961 229.663 95.4576 229.735 95.4039C229.807 95.3503 229.868 95.2828 229.914 95.2052C229.959 95.1276 229.989 95.0416 230.001 94.9524C230.017 94.7675 229.96 94.5837 229.841 94.4407C229.723 94.2977 229.554 94.2069 229.369 94.188C229.19 94.1616 229.007 94.2071 228.861 94.3147C228.715 94.4223 228.617 94.5833 228.589 94.7627Z" fill="#263238"/>
<path d="M227.762 94.1132C227.848 94.2109 228.411 93.8488 229.18 93.9063C229.949 93.9638 230.477 94.3776 230.569 94.2914C230.661 94.2051 230.535 94.0787 230.299 93.8833C229.986 93.6325 229.603 93.4842 229.203 93.4585C228.802 93.4328 228.404 93.531 228.061 93.7396C227.837 93.9063 227.722 94.0672 227.762 94.1132Z" fill="#263238"/>
<path d="M236.246 95.372C236.231 95.5575 236.29 95.7413 236.409 95.8841C236.528 96.0269 236.698 96.1175 236.883 96.1364C237.062 96.1628 237.245 96.1173 237.391 96.0097C237.537 95.9021 237.635 95.7411 237.663 95.5617C237.676 95.3766 237.617 95.1936 237.498 95.0511C237.38 94.9086 237.21 94.8177 237.026 94.7973C236.937 94.7835 236.846 94.7873 236.759 94.8088C236.671 94.8302 236.589 94.8687 236.517 94.9221C236.444 94.9755 236.383 95.0428 236.336 95.12C236.29 95.1972 236.259 95.2829 236.246 95.372Z" fill="#263238"/>
<path d="M235.298 94.7685C235.379 94.8719 235.947 94.5099 236.71 94.5616C237.473 94.6133 238.013 95.0386 238.099 94.9467C238.185 94.8547 238.065 94.734 237.835 94.5444C237.518 94.2911 237.132 94.1408 236.727 94.1133C236.324 94.0814 235.921 94.1823 235.579 94.4007C235.333 94.5558 235.241 94.7283 235.298 94.7685Z" fill="#263238"/>
<path d="M232.113 100.268C231.719 100.112 231.306 100.007 230.885 99.9581C230.69 99.9236 230.512 99.8719 230.483 99.7339C230.481 99.5294 230.541 99.3291 230.655 99.1592L231.338 97.7052C231.963 96.4806 232.485 95.2061 232.899 93.8949C232.183 95.0704 231.559 96.3002 231.034 97.573L230.38 99.0328C230.241 99.2617 230.186 99.5321 230.225 99.7972C230.248 99.8677 230.286 99.9319 230.338 99.9847C230.39 100.038 230.453 100.078 230.523 100.102C230.63 100.141 230.742 100.164 230.856 100.171C231.27 100.255 231.692 100.287 232.113 100.268Z" fill="#263238"/>
<path d="M230.965 109.303C233.577 109.52 236.197 109.009 238.536 107.826C238.536 107.826 236.418 111.51 230.902 110.607L230.965 109.303Z" fill="#EB996E"/>
<path d="M235.299 91.7513C235.362 91.9639 236.131 91.9179 237.021 92.0904C237.91 92.2628 238.622 92.5559 238.742 92.3777C238.806 92.2915 238.691 92.0846 238.41 91.8605C238.037 91.5831 237.604 91.3979 237.147 91.3202C236.69 91.2366 236.221 91.2602 235.775 91.3892C235.436 91.4984 235.264 91.6823 235.299 91.7513Z" fill="#FF725E"/>
<path d="M228.199 91.9121C228.319 92.096 228.859 91.9523 229.496 91.9868C230.133 92.0213 230.644 92.1822 230.793 91.9868C230.856 91.9006 230.793 91.7224 230.558 91.5443C230.26 91.3172 229.898 91.1904 229.524 91.1822C229.15 91.1672 228.78 91.2654 228.463 91.4638C228.227 91.6822 228.141 91.8259 228.199 91.9121Z" fill="#FF725E"/>
<path d="M226.924 89.211C226.924 89.211 229.656 90.8949 233.582 89.4007C236.154 88.4179 239.075 88.1076 239.655 88.6651C240.234 89.2225 240.114 91.7628 242.473 92.7455C242.473 92.7455 241.824 97.5558 243.758 97.5731C245.693 97.5903 246.054 87.8777 246.054 87.8777L240.757 87.2283L235.723 85.7455L230.822 85.9467L226.976 86.5961L226.924 89.211Z" fill="#FF725E"/>
<path d="M246.295 86.5099C246.295 86.4409 245.882 86.2398 245.336 86.395C244.791 86.5501 244.516 86.9697 244.585 86.9697C244.653 86.9697 244.958 86.7743 245.417 86.6478C245.876 86.5214 246.272 86.5904 246.295 86.5099Z" fill="#FF725E"/>
<path d="M244.803 84.7856C244.682 85.1828 244.601 85.5909 244.562 86.004C244.418 86.6535 244.102 87.1132 244.166 87.1535C244.229 87.1937 244.682 86.7856 244.843 86.0615C244.979 85.6446 244.965 85.1931 244.803 84.7856Z" fill="#FF725E"/>
<path d="M243.788 95.5731C243.868 95.5443 247.065 94.6938 246.882 97.9351C246.698 101.176 243.478 100.32 243.478 100.234C243.478 100.148 243.788 95.5731 243.788 95.5731Z" fill="#FFBE9D"/>
<path d="M244.539 99.0557C244.539 99.0557 244.591 99.1017 244.689 99.1534C244.82 99.2156 244.969 99.2259 245.107 99.1821C245.325 99.0628 245.506 98.8873 245.632 98.674C245.758 98.4607 245.825 98.2174 245.825 97.9695C245.852 97.6908 245.815 97.4096 245.716 97.1477C245.691 97.045 245.641 96.9499 245.571 96.8708C245.501 96.7917 245.413 96.7309 245.314 96.6936C245.251 96.672 245.183 96.6734 245.121 96.6976C245.059 96.7218 245.007 96.7672 244.975 96.8258C244.924 96.912 244.941 96.981 244.924 96.9867C244.907 96.9925 244.861 96.9293 244.889 96.7971C244.913 96.7159 244.964 96.6451 245.033 96.5959C245.126 96.5359 245.239 96.5133 245.349 96.5327C245.483 96.5648 245.607 96.6316 245.707 96.7263C245.808 96.8211 245.882 96.9406 245.923 97.073C246.045 97.361 246.094 97.675 246.066 97.9867C246.066 98.2757 245.98 98.5582 245.819 98.7985C245.659 99.0388 245.431 99.2263 245.165 99.3373C245.077 99.357 244.985 99.357 244.897 99.3371C244.808 99.3172 244.726 99.278 244.654 99.2224C244.539 99.1534 244.528 99.0615 244.539 99.0557Z" fill="#EB996E"/>
<path d="M230.306 80.0041H230.237C230.166 79.9986 230.095 79.9986 230.024 80.0041C229.761 80.0537 229.509 80.149 229.278 80.2857C228.908 80.506 228.595 80.8113 228.366 81.1765C228.05 81.6605 227.922 82.2426 228.004 82.8145C228.117 83.5042 228.493 84.1227 229.054 84.5386C229.365 84.7729 229.727 84.9304 230.11 84.9984C230.524 85.0619 230.947 84.9956 231.321 84.8087C231.527 84.7198 231.707 84.5806 231.844 84.4038C231.981 84.227 232.072 84.0184 232.108 83.7972C232.132 83.5656 232.088 83.3318 231.981 83.1248C231.87 82.92 231.717 82.7402 231.534 82.5961C231.155 82.317 230.714 82.1354 230.248 82.0673C229.776 81.9982 229.297 81.9982 228.825 82.0673C227.881 82.1692 227.005 82.6077 226.357 83.303C226.053 83.623 225.817 84.0014 225.663 84.4152C225.509 84.8291 225.441 85.2699 225.461 85.711C225.526 86.5099 225.856 87.2642 226.397 87.8547C226.852 88.3722 227.416 88.7807 228.05 89.0501C228.963 89.4098 229.938 89.5856 230.92 89.5673C231.27 89.5673 231.54 89.5673 231.717 89.5673H231.93C231.976 89.5673 231.999 89.5673 231.999 89.5673H231.717C231.534 89.5673 231.264 89.5673 230.92 89.5673C229.935 89.5649 228.96 89.3697 228.05 88.9926C227.437 88.7343 226.89 88.3415 226.449 87.8432C225.933 87.2725 225.62 86.5471 225.559 85.78C225.543 85.3587 225.611 84.9385 225.758 84.5438C225.906 84.1491 226.131 83.7878 226.42 83.4811C227.048 82.8158 227.893 82.3962 228.802 82.2972C229.7 82.1374 230.625 82.3243 231.39 82.8202C231.567 82.9258 231.709 83.079 231.802 83.2623C231.895 83.4455 231.935 83.6513 231.916 83.8561C231.898 84.0608 231.822 84.2562 231.697 84.4196C231.573 84.583 231.405 84.708 231.212 84.78C230.858 84.9603 230.457 85.0246 230.064 84.9639C229.704 84.8958 229.363 84.7486 229.066 84.5329C228.525 84.1353 228.157 83.5448 228.038 82.8834C227.956 82.3355 228.074 81.7763 228.371 81.3087C228.587 80.9511 228.884 80.6497 229.238 80.4294C229.563 80.2194 229.925 80.0749 230.306 80.0041Z" fill="white"/>
<path d="M231.253 102.602C231.356 102.992 231.597 103.33 231.933 103.554C232.268 103.777 232.673 103.87 233.072 103.814C233.487 103.682 233.845 103.412 234.085 103.048C234.325 102.684 234.434 102.249 234.392 101.814L231.253 102.602Z" fill="white"/>
<path d="M235.103 101.125C235.138 101.096 235.023 100.918 234.856 100.722C234.69 100.527 234.529 100.395 234.495 100.423C234.46 100.452 234.575 100.63 234.742 100.826C234.908 101.021 235.069 101.153 235.103 101.125Z" fill="#FF725E"/>
<path d="M234.409 101.297C234.443 101.297 234.357 101.09 234.214 100.901C234.07 100.711 233.927 100.573 233.892 100.596C233.858 100.619 233.944 100.797 234.088 100.993C234.231 101.188 234.374 101.32 234.409 101.297Z" fill="#FF725E"/>
<path d="M233.789 101.63C233.829 101.63 233.789 101.389 233.669 101.142C233.548 100.895 233.382 100.722 233.347 100.751C233.313 100.78 233.41 100.97 233.525 101.211C233.64 101.452 233.749 101.642 233.789 101.63Z" fill="#FF725E"/>
<path d="M233.003 101.607C233.049 101.607 233.037 101.395 233.003 101.159C232.968 100.924 232.871 100.734 232.825 100.745C232.779 100.757 232.796 100.958 232.825 101.194C232.854 101.429 232.963 101.619 233.003 101.607Z" fill="#FF725E"/>
<path d="M232.366 101.906C232.412 101.906 232.4 101.671 232.366 101.401C232.331 101.13 232.234 100.912 232.194 100.918C232.153 100.924 232.159 101.159 232.194 101.429C232.228 101.699 232.326 101.918 232.366 101.906Z" fill="#FF725E"/>
<path d="M231.591 101.924C231.637 101.924 231.66 101.734 231.648 101.51C231.637 101.286 231.597 101.096 231.557 101.102C231.516 101.108 231.482 101.286 231.493 101.516C231.505 101.745 231.551 101.924 231.591 101.924Z" fill="#FF725E"/>
<path d="M230.948 102.194C230.994 102.194 231.022 101.935 231.062 101.619C231.103 101.303 231.131 101.044 231.062 101.044C230.994 101.044 230.919 101.28 230.879 101.619C230.844 101.813 230.868 102.013 230.948 102.194Z" fill="#FF725E"/>
<path d="M230.328 101.964C230.374 101.964 230.431 101.786 230.466 101.55C230.5 101.315 230.466 101.125 230.466 101.119C230.466 101.113 230.362 101.297 230.328 101.527C230.293 101.757 230.288 101.958 230.328 101.964Z" fill="#FF725E"/>
<path d="M229.651 101.883C229.691 101.883 229.749 101.763 229.777 101.602C229.806 101.441 229.777 101.297 229.777 101.291C229.777 101.286 229.674 101.412 229.645 101.573C229.617 101.734 229.605 101.878 229.651 101.883Z" fill="#FF725E"/>
<path d="M230.598 105.561C230.598 105.561 230.747 105.498 230.983 105.406C231.289 105.293 231.616 105.248 231.941 105.274C232.264 105.304 232.576 105.406 232.854 105.573C233.072 105.699 233.192 105.808 233.209 105.791C233.227 105.774 233.129 105.642 232.917 105.481C232.634 105.273 232.301 105.146 231.953 105.113C231.604 105.085 231.255 105.152 230.942 105.308C230.707 105.429 230.587 105.55 230.598 105.561Z" fill="#EB996E"/>
<path d="M214.034 170.418L227.47 169.13L246.778 167.188L245.372 283.854L230.133 285.141C230.133 285.141 230.133 281.624 230.093 279.319L219.096 281.463C219.096 281.463 207.221 248.187 203.186 233.141C199.852 220.596 214.034 170.418 214.034 170.418ZM229.99 263.164C229.754 235.912 229.186 189.567 228.675 183.906C228.675 183.906 218.775 224.912 218.735 228.159C218.712 230.084 225.031 248.797 229.99 263.159V263.164Z" fill="#263238"/>
<path d="M230.971 259.658C230.922 259.964 230.909 260.275 230.93 260.584C230.93 261.245 230.93 262.089 230.93 263.101C230.93 265.291 230.93 268.199 230.971 271.406C231.011 274.612 230.919 277.52 230.902 279.71C230.902 280.722 230.902 281.566 230.902 282.227C230.884 282.536 230.896 282.846 230.936 283.153C230.998 282.85 231.031 282.542 231.034 282.233C231.08 281.658 231.12 280.779 231.166 279.716C231.252 277.589 231.326 274.653 231.332 271.406C231.338 268.158 231.275 265.222 231.194 263.095C231.154 262.032 231.114 261.176 231.074 260.584C231.067 260.273 231.032 259.963 230.971 259.658Z" fill="#455A64"/>
<path d="M230.667 285.095C230.753 285.095 230.403 261.842 229.892 233.176C229.382 204.509 228.899 181.257 228.819 181.257C228.739 181.257 229.083 204.504 229.594 233.182C230.105 261.86 230.587 285.095 230.667 285.095Z" fill="#263238"/>
<path d="M214.636 232.032C215.598 231.795 216.482 231.31 217.2 230.625C217.917 229.941 218.444 229.081 218.728 228.13C218.24 228.957 217.662 229.728 217.006 230.429C216.276 231.047 215.481 231.585 214.636 232.032Z" fill="#263238"/>
<path d="M213.305 230.09C214.323 230.36 215.402 230.296 216.381 229.906C217.392 229.613 218.285 229.01 218.935 228.182C218.115 228.769 217.226 229.256 216.289 229.63C215.318 229.908 214.315 230.063 213.305 230.09Z" fill="#263238"/>
<path d="M206.676 132.096L216.433 121.24C218.492 118.989 221.047 117.25 223.894 116.159C225.335 115.584 228.824 115.447 230.604 115.332L230.73 115.303C234.587 116.412 239.127 115.878 242.932 114.59C244.04 115.125 251.731 114.303 257.47 124.084L261.769 135.515L251.22 140.987L251.007 149.176L248.953 174.101L211.766 172.872L216.014 151.607L218.568 139.056L215.291 142.044L206.676 132.096Z" fill="#FF725E"/>
<path d="M216.513 121.303H217.558C218.557 121.32 219.551 121.441 220.525 121.665C222.062 122.036 223.509 122.714 224.778 123.659C226.441 124.945 227.878 126.499 229.031 128.257C229.724 129.25 230.233 130.359 230.535 131.533C230.869 132.799 230.722 134.144 230.122 135.308C229.813 135.926 229.347 136.452 228.773 136.834C228.198 137.217 227.533 137.441 226.844 137.487C226.127 137.478 225.433 137.227 224.876 136.774C224.301 136.287 223.856 135.664 223.583 134.961C223.309 134.259 223.215 133.499 223.309 132.751C223.417 131.974 223.68 131.228 224.084 130.556C224.939 129.173 226.122 128.022 227.527 127.205C230.492 125.387 234.051 124.808 237.438 125.594C240.824 126.38 243.766 128.468 245.63 131.406C246.522 132.776 247.014 134.369 247.047 136.004C247.037 136.787 246.861 137.558 246.531 138.268C246.183 138.943 245.659 139.51 245.016 139.912C244.388 140.31 243.673 140.547 242.932 140.601C242.217 140.666 241.501 140.481 240.906 140.078C240.34 139.672 239.934 139.081 239.758 138.406C239.585 137.745 239.57 137.052 239.712 136.383C239.978 135.099 240.554 133.899 241.388 132.889C242.124 131.922 242.992 131.063 243.965 130.337C245.634 129.072 247.545 128.165 249.578 127.67C251.114 127.286 252.701 127.15 254.279 127.268C254.585 127.277 254.89 127.308 255.192 127.36C255.473 127.406 255.766 127.429 255.99 127.487C256.477 127.607 256.896 127.682 257.223 127.785L257.964 128.021L258.222 128.096C258.222 128.096 258.142 128.056 257.975 127.992L257.241 127.728C256.914 127.613 256.495 127.527 256.007 127.4C255.76 127.337 255.49 127.308 255.203 127.262C254.9 127.204 254.593 127.166 254.285 127.148C252.695 127.011 251.094 127.133 249.544 127.51C247.48 127.991 245.537 128.895 243.839 130.165C242.845 130.895 241.959 131.764 241.21 132.745C240.35 133.783 239.759 135.016 239.488 136.337C239.333 137.043 239.346 137.776 239.529 138.475C239.718 139.208 240.159 139.851 240.774 140.291C241.416 140.731 242.191 140.935 242.967 140.866C243.753 140.809 244.513 140.56 245.182 140.142C245.87 139.712 246.429 139.104 246.801 138.383C247.16 137.64 247.356 136.829 247.375 136.004C247.343 134.314 246.838 132.667 245.917 131.251C244.019 128.246 241.016 126.109 237.558 125.303C234.099 124.498 230.463 125.088 227.435 126.946C225.98 127.782 224.755 128.967 223.871 130.395C223.449 131.098 223.176 131.88 223.068 132.693C222.964 133.496 223.071 134.312 223.378 135.061C223.663 135.799 224.133 136.45 224.744 136.952C225.351 137.44 226.106 137.707 226.884 137.711C227.636 137.701 228.365 137.453 228.968 137.004C229.549 136.579 230.028 136.029 230.368 135.395C230.999 134.178 231.15 132.769 230.793 131.446C230.481 130.246 229.954 129.113 229.238 128.102C228.062 126.337 226.599 124.783 224.91 123.504C223.619 122.556 222.148 121.884 220.588 121.527C219.604 121.315 218.599 121.211 217.592 121.217L216.812 121.257C216.711 121.264 216.611 121.279 216.513 121.303Z" fill="#FAFAFA"/>
<path d="M216.065 151.74C216.098 151.787 216.134 151.831 216.174 151.872L216.519 152.251C216.969 152.73 217.451 153.179 217.959 153.596C218.775 154.253 219.651 154.831 220.577 155.32C221.796 155.97 223.094 156.459 224.439 156.774C226.068 157.171 227.747 157.328 229.421 157.24C231.35 157.144 233.244 156.696 235.012 155.918C237.003 155.098 238.701 153.696 239.884 151.895C240.489 150.92 240.831 149.805 240.877 148.659C240.946 147.473 240.651 146.294 240.034 145.28C239.715 144.769 239.298 144.327 238.805 143.981C238.313 143.652 237.761 143.422 237.181 143.303C236.041 143.051 234.848 143.257 233.858 143.878C233.392 144.199 233.011 144.628 232.745 145.128C232.48 145.628 232.338 146.185 232.331 146.751C232.313 147.822 232.632 148.872 233.244 149.751C233.831 150.57 234.591 151.249 235.471 151.74C236.286 152.201 237.15 152.569 238.048 152.837C239.642 153.361 241.306 153.642 242.984 153.671C244.373 153.691 245.751 153.429 247.036 152.9C248.002 152.493 248.884 151.908 249.636 151.176C250.106 150.712 250.508 150.184 250.83 149.607C250.942 149.407 251.036 149.198 251.111 148.981C250.711 149.764 250.186 150.477 249.555 151.09C248.803 151.795 247.928 152.354 246.973 152.74C245.695 153.246 244.328 153.488 242.955 153.452C241.301 153.412 239.662 153.124 238.094 152.596C237.216 152.326 236.371 151.96 235.574 151.504C234.734 151.029 234.007 150.376 233.445 149.59C232.869 148.757 232.57 147.764 232.589 146.751C232.596 146.233 232.727 145.725 232.972 145.268C233.217 144.812 233.568 144.422 233.996 144.13C234.93 143.55 236.055 143.36 237.128 143.601C238.201 143.841 239.137 144.494 239.735 145.418C240.32 146.383 240.598 147.503 240.533 148.63C240.491 149.728 240.165 150.795 239.586 151.728C238.435 153.481 236.785 154.848 234.851 155.653C233.116 156.422 231.257 156.869 229.364 156.975C227.712 157.07 226.056 156.927 224.445 156.55C223.111 156.249 221.821 155.779 220.605 155.153C219.684 154.689 218.808 154.141 217.988 153.515C217.472 153.116 216.981 152.684 216.519 152.222L216.152 151.866C216.117 151.774 216.071 151.734 216.065 151.74Z" fill="#FAFAFA"/>
<path d="M213.098 164.096C213.147 164.093 213.196 164.081 213.242 164.061L213.643 163.94C213.993 163.814 214.516 163.67 215.193 163.492C217.117 163.023 219.098 162.83 221.076 162.917C224.011 163.07 226.877 163.865 229.473 165.245C230.219 165.622 230.887 166.137 231.441 166.762C231.722 167.077 231.924 167.455 232.03 167.864C232.136 168.273 232.142 168.701 232.05 169.113C231.953 169.548 231.74 169.948 231.435 170.272C231.129 170.596 230.741 170.831 230.313 170.952C229.885 171.073 229.432 171.077 229.002 170.961C228.572 170.846 228.182 170.616 227.872 170.297C227.551 169.983 227.326 169.584 227.223 169.147C227.128 168.708 227.128 168.253 227.223 167.814C227.417 166.939 227.898 166.154 228.589 165.584C229.27 165.036 230.049 164.622 230.885 164.366C231.689 164.106 232.51 163.898 233.341 163.745C236.219 163.172 239.162 162.99 242.088 163.205C244.056 163.334 246.009 163.632 247.925 164.096C248.603 164.274 249.131 164.417 249.486 164.527L249.888 164.642L250.032 164.67C249.99 164.647 249.946 164.627 249.9 164.613L249.504 164.469C249.154 164.343 248.631 164.182 247.954 163.986C246.036 163.456 244.072 163.108 242.088 162.946C239.141 162.701 236.175 162.864 233.272 163.429C232.428 163.579 231.594 163.784 230.776 164.044C229.909 164.313 229.101 164.744 228.394 165.314C227.65 165.922 227.134 166.765 226.93 167.705C226.824 168.188 226.824 168.688 226.93 169.17C227.045 169.665 227.298 170.118 227.659 170.475C228.019 170.826 228.464 171.077 228.95 171.202C229.437 171.327 229.947 171.322 230.431 171.188C230.896 171.04 231.315 170.776 231.648 170.42C231.98 170.063 232.216 169.627 232.331 169.153C232.437 168.696 232.431 168.22 232.314 167.766C232.197 167.312 231.973 166.893 231.66 166.544C231.082 165.892 230.384 165.358 229.605 164.969C225.152 162.672 220.006 162.111 215.164 163.394C214.642 163.535 214.126 163.702 213.62 163.894L213.23 164.044L213.098 164.096Z" fill="#FAFAFA"/>
<path d="M209.115 129.573C209.121 129.663 209.14 129.753 209.173 129.837C209.252 130.079 209.351 130.314 209.471 130.538C209.914 131.378 210.585 132.075 211.405 132.55C212.022 132.896 212.702 133.112 213.405 133.184C214.108 133.256 214.818 133.183 215.492 132.969C215.892 132.848 216.265 132.653 216.594 132.395C216.96 132.127 217.217 131.735 217.317 131.291C217.354 131.052 217.326 130.807 217.237 130.582C217.149 130.357 217.002 130.159 216.812 130.01C216.626 129.855 216.409 129.741 216.175 129.675C215.942 129.61 215.697 129.595 215.457 129.63C215.005 129.724 214.583 129.925 214.225 130.218C213.867 130.51 213.585 130.884 213.403 131.309C213.054 132.08 212.941 132.938 213.076 133.774C213.185 134.523 213.445 135.243 213.839 135.889C214.189 136.437 214.605 136.939 215.079 137.383C215.767 138.016 216.512 138.584 217.306 139.079C217.581 139.257 217.799 139.389 217.948 139.475C218.023 139.526 218.104 139.566 218.189 139.596C217.931 139.372 217.656 139.166 217.369 138.981C216.61 138.464 215.894 137.888 215.228 137.257C214.226 136.337 213.563 135.106 213.345 133.763C213.231 132.981 213.342 132.184 213.667 131.464C213.83 131.085 214.081 130.75 214.4 130.488C214.718 130.226 215.095 130.044 215.498 129.958C215.7 129.922 215.908 129.931 216.106 129.985C216.304 130.039 216.489 130.135 216.646 130.268C216.797 130.384 216.915 130.538 216.986 130.715C217.056 130.893 217.078 131.086 217.047 131.274C216.962 131.647 216.747 131.978 216.439 132.205C216.138 132.438 215.798 132.616 215.434 132.728C214.795 132.938 214.119 133.016 213.448 132.958C212.778 132.9 212.126 132.706 211.532 132.389C210.73 131.943 210.061 131.292 209.592 130.504C209.242 129.918 209.144 129.567 209.115 129.573Z" fill="#FAFAFA"/>
<path d="M243.472 115.901C243.459 116.046 243.476 116.193 243.524 116.332C243.622 116.717 243.771 117.089 243.966 117.435C244.285 118.021 244.72 118.536 245.243 118.95C245.767 119.363 246.369 119.666 247.012 119.84C247.656 120.014 248.328 120.055 248.988 119.962C249.649 119.869 250.283 119.643 250.853 119.297C251.197 119.098 251.512 118.852 251.789 118.567C251.984 118.36 252.07 118.234 252.053 118.222C251.638 118.545 251.203 118.84 250.75 119.108C249.637 119.717 248.331 119.871 247.107 119.539C245.882 119.207 244.833 118.414 244.178 117.326C243.912 116.867 243.676 116.391 243.472 115.901Z" fill="#FAFAFA"/>
<path d="M109.5 133.5L107.775 137.872L106.281 118.395C106.229 117.15 106.431 115.909 106.866 114.809C107.048 114.316 107.271 113.853 107.532 113.429C107.861 112.907 108.242 112.446 108.663 112.061C109.09 111.763 109.013 110.952 108.599 110.878C108.185 110.803 107.041 111.596 106.124 113.176C105.206 114.757 105.159 111.671 105.12 110.521C105.082 109.372 104.864 105.82 104.596 105.567C104.199 105.188 103.819 105.699 103.87 106.849C103.921 107.998 103.896 111.446 103.443 111.446C102.991 111.446 102.897 105.596 102.897 105.596C102.897 105.596 103.025 104.332 102.504 104.32C101.565 104.32 102.013 110.504 102.077 111.09C102.116 111.498 101.625 111.533 101.599 111.09C101.574 110.648 101.599 105.24 100.643 105.205C99.909 105.176 100.976 110.314 100.515 111.446C100.054 112.579 99.9987 107.423 99.2987 107.423C99.0341 107.423 98.842 107.481 99.1834 110.418C99.3712 111.998 100.105 114.291 100.293 117.372L100.344 118.171C100.344 121.998 100.438 136.446 102.905 145.303C103.248 146.512 103.829 147.573 104.586 148.37C105.342 149.168 106.247 149.673 107.201 149.83C108.155 149.987 109.122 149.791 110 149.263C110.877 148.734 111.631 147.894 112.18 146.831C114.293 142.741 114.618 142.493 116 137.872L109.5 133.5Z" fill="#FF725E" fill-opacity="0.2"/>
<path d="M101.71 115.837C101.71 115.866 101.856 115.866 102.082 115.981C102.383 116.133 102.634 116.424 102.79 116.803L102.876 117.021L102.931 116.786C103.008 116.451 103.13 116.137 103.29 115.86C103.603 115.323 104.028 114.923 104.51 114.711C104.882 114.544 105.134 114.561 105.134 114.521C104.916 114.448 104.688 114.462 104.476 114.561C103.954 114.733 103.491 115.138 103.162 115.711C102.989 116.009 102.861 116.348 102.782 116.711H102.923C102.835 116.505 102.718 116.324 102.578 116.179C102.438 116.034 102.278 115.928 102.107 115.866C101.981 115.799 101.842 115.789 101.71 115.837Z" fill="#FF725E" fill-opacity="0.2"/>
<path d="M107.293 150.119C107.293 150.119 107.293 150.009 107.233 149.826C107.137 149.559 106.989 149.333 106.806 149.17C106.584 148.941 106.272 148.728 105.952 148.372C105.609 147.939 105.392 147.356 105.338 146.728C105.27 145.977 105.333 145.216 105.521 144.504C105.701 143.728 105.978 142.952 106.17 142.096C106.274 141.66 106.337 141.208 106.358 140.751C106.386 140.279 106.333 139.806 106.204 139.366C105.867 138.462 105.379 137.675 104.779 137.067C104.485 136.73 104.212 136.361 103.963 135.964C103.729 135.58 103.555 135.136 103.451 134.659C103.312 133.713 103.36 132.734 103.588 131.82C103.763 130.946 103.972 130.136 104.087 129.354C104.195 128.628 104.215 127.883 104.147 127.148C104.024 125.785 103.611 124.499 102.956 123.446L102.849 123.268C102.824 123.228 102.811 123.205 102.815 123.205C103.028 123.48 103.217 123.787 103.379 124.119C103.831 125.023 104.123 126.056 104.232 127.136C104.31 127.881 104.294 128.639 104.185 129.377C104.07 130.176 103.865 130.992 103.695 131.86C103.474 132.749 103.43 133.7 103.566 134.619C103.663 135.093 103.833 135.534 104.066 135.912C104.307 136.289 104.571 136.639 104.855 136.958C105.141 137.303 105.432 137.647 105.709 138.021C105.971 138.39 106.181 138.821 106.328 139.291C106.46 139.752 106.514 140.247 106.486 140.739C106.461 141.208 106.395 141.671 106.29 142.119C106.089 142.987 105.812 143.762 105.632 144.527C105.443 145.221 105.376 145.964 105.436 146.699C105.481 147.309 105.685 147.877 106.012 148.303C106.311 148.659 106.622 148.877 106.866 149.124C107.054 149.294 107.203 149.534 107.293 149.814C107.311 149.887 107.322 149.962 107.327 150.038C107.293 150.09 107.293 150.119 107.293 150.119Z" fill="#FF725E" fill-opacity="0.2"/>
<path d="M104.019 125.768C104.324 125.619 104.611 125.412 104.873 125.153C105.147 124.868 105.379 124.515 105.556 124.113C105.772 123.623 105.896 123.068 105.914 122.498L105.991 122.573H105.948L105.871 122.607C105.82 122.607 105.769 122.671 105.718 122.699C105.62 122.759 105.526 122.828 105.436 122.906C105.263 123.052 105.102 123.223 104.958 123.418C104.709 123.749 104.507 124.139 104.36 124.567C104.232 124.964 104.141 125.381 104.087 125.808C104.071 125.693 104.071 125.574 104.087 125.458C104.115 125.135 104.178 124.819 104.275 124.521C104.417 124.076 104.62 123.67 104.873 123.326C105.024 123.123 105.189 122.942 105.368 122.785C105.463 122.705 105.561 122.632 105.662 122.567C105.714 122.567 105.765 122.498 105.82 122.475L105.901 122.435H105.944H105.982L106.059 122.51C106.041 123.108 105.909 123.69 105.675 124.199C105.489 124.614 105.242 124.974 104.95 125.257C104.755 125.447 104.541 125.596 104.314 125.699C104.219 125.742 104.119 125.765 104.019 125.768Z" fill="#FF725E" fill-opacity="0.2"/>
<path d="M105.535 123.222C105.287 123.686 105.019 124.129 104.732 124.55C104.479 125.009 104.207 125.448 103.917 125.866C104.113 125.354 104.359 124.878 104.647 124.452C104.902 123.993 105.201 123.579 105.535 123.222Z" fill="#FF725E" fill-opacity="0.2"/>
<path d="M105.078 137.205C105.361 136.996 105.622 136.737 105.855 136.435C106.097 136.104 106.29 135.714 106.423 135.285C106.586 134.757 106.649 134.182 106.606 133.613L106.687 133.676H106.649L106.576 133.734C106.527 133.767 106.48 133.805 106.435 133.849C106.344 133.926 106.257 134.013 106.175 134.107C106.018 134.278 105.875 134.471 105.748 134.682C105.536 135.054 105.375 135.474 105.274 135.923C105.193 136.342 105.146 136.772 105.134 137.205C105.114 137.09 105.104 136.972 105.104 136.854C105.1 136.53 105.132 136.207 105.198 135.895C105.287 135.45 105.436 135.031 105.637 134.659C105.761 134.429 105.904 134.219 106.064 134.033C106.15 133.934 106.24 133.842 106.333 133.757C106.381 133.713 106.431 133.673 106.482 133.636L106.559 133.579L106.598 133.55L106.679 133.607C106.722 134.196 106.653 134.789 106.478 135.331C106.335 135.777 106.128 136.179 105.868 136.515C105.696 136.746 105.499 136.94 105.283 137.09C105.218 137.139 105.149 137.177 105.078 137.205Z" fill="#FF725E" fill-opacity="0.2"/>
<path d="M106.311 134.395C106.111 134.9 105.891 135.391 105.654 135.866C105.449 136.365 105.225 136.851 104.984 137.32C105.125 136.785 105.317 136.277 105.556 135.808C105.761 135.295 106.015 134.82 106.311 134.395Z" fill="#FF725E" fill-opacity="0.2"/>
<path d="M105.795 143.854C106.116 143.826 106.433 143.743 106.739 143.607C107.065 143.447 107.365 143.203 107.622 142.889C107.938 142.507 108.179 142.025 108.322 141.487L108.378 141.59H108.211C108.156 141.59 108.105 141.59 108.049 141.59C107.941 141.61 107.834 141.639 107.729 141.676C107.193 141.872 106.71 142.271 106.337 142.826C106.128 143.157 105.948 143.52 105.8 143.906C105.816 143.79 105.845 143.678 105.885 143.573C105.985 143.276 106.117 143 106.278 142.757C106.51 142.387 106.793 142.081 107.11 141.854C107.305 141.725 107.509 141.625 107.72 141.555C107.828 141.517 107.938 141.489 108.049 141.469C108.105 141.454 108.162 141.444 108.22 141.441H108.395L108.45 141.544C108.302 142.107 108.047 142.608 107.712 142.998C107.442 143.319 107.127 143.563 106.786 143.716C106.556 143.82 106.315 143.876 106.073 143.883C105.98 143.893 105.886 143.883 105.795 143.854Z" fill="#FF725E" fill-opacity="0.2"/>
<path d="M107.805 142.004C107.463 142.342 107.109 142.657 106.743 142.946C106.154 143.458 105.693 143.906 105.671 143.872C105.97 143.46 106.309 143.104 106.679 142.814C107.027 142.48 107.405 142.207 107.805 142.004Z" fill="#FF725E" fill-opacity="0.2"/>
<path d="M103.669 131.59C103.991 131.561 104.308 131.476 104.613 131.337C104.938 131.181 105.237 130.943 105.496 130.636C105.812 130.255 106.051 129.772 106.192 129.234L106.247 129.337H106.081C106.025 129.337 105.97 129.337 105.919 129.337C105.811 129.357 105.704 129.385 105.599 129.423C105.402 129.496 105.212 129.596 105.031 129.722C104.722 129.939 104.443 130.227 104.207 130.573C104 130.905 103.821 131.268 103.674 131.653C103.693 131.536 103.721 131.423 103.759 131.314C103.86 131.02 103.991 130.745 104.147 130.498C104.386 130.126 104.676 129.82 105.001 129.596C105.188 129.461 105.385 129.355 105.59 129.28C105.699 129.237 105.81 129.206 105.923 129.188C105.979 129.172 106.036 129.163 106.094 129.159H106.269C106.269 129.205 106.213 129.056 106.324 129.263C106.186 129.77 105.966 130.229 105.678 130.606C105.391 130.983 105.044 131.268 104.664 131.441C104.436 131.548 104.197 131.606 103.955 131.613C103.86 131.621 103.764 131.613 103.669 131.59Z" fill="#FF725E" fill-opacity="0.2"/>
<path d="M105.675 129.757C105.675 129.797 105.197 130.188 104.612 130.705C104.269 131.041 103.913 131.352 103.545 131.636C103.845 131.227 104.182 130.872 104.548 130.579C104.897 130.242 105.275 129.966 105.675 129.757Z" fill="#FF725E" fill-opacity="0.2"/>
<path d="M104.194 128.745C104.089 128.339 103.946 127.953 103.767 127.596C103.56 127.22 103.299 126.903 102.999 126.665C102.638 126.366 102.227 126.194 101.804 126.165L101.859 126.067V126.096V126.148L101.885 126.251C101.885 126.326 101.932 126.389 101.949 126.458C101.995 126.59 102.046 126.718 102.103 126.843C102.209 127.078 102.335 127.296 102.478 127.492C102.725 127.83 103.014 128.106 103.332 128.308C103.627 128.484 103.936 128.611 104.254 128.688C104.166 128.705 104.077 128.705 103.989 128.688C103.751 128.642 103.518 128.553 103.298 128.423C102.773 128.104 102.329 127.587 102.017 126.935C101.959 126.805 101.906 126.671 101.859 126.533C101.838 126.464 101.808 126.395 101.791 126.32L101.761 126.211V126.153L101.821 126.05C102.264 126.08 102.693 126.264 103.067 126.584C103.374 126.839 103.639 127.173 103.848 127.567C103.988 127.833 104.097 128.125 104.173 128.435C104.188 128.537 104.195 128.641 104.194 128.745Z" fill="#FF725E" fill-opacity="0.2"/>
<path d="M102.321 126.682C102.342 126.653 102.748 127.171 103.298 127.78C103.636 128.132 103.958 128.51 104.263 128.912C103.526 128.329 102.869 127.581 102.321 126.699V126.682Z" fill="#FF725E" fill-opacity="0.2"/>
<path d="M106.35 140.728C106.147 140.389 105.911 140.088 105.65 139.831C105.36 139.574 105.037 139.391 104.698 139.291C104.283 139.173 103.852 139.193 103.443 139.349C103.503 139.107 103.443 139.285 103.473 139.234L103.503 139.28L103.554 139.366C103.588 139.423 103.627 139.475 103.665 139.533C103.738 139.638 103.817 139.736 103.9 139.826C104.058 139.999 104.23 140.15 104.412 140.274C104.723 140.487 105.06 140.623 105.407 140.676C105.727 140.712 106.05 140.694 106.367 140.624C106.289 140.68 106.203 140.715 106.115 140.728C105.879 140.793 105.638 140.813 105.398 140.785C105.039 140.747 104.689 140.618 104.365 140.406C104.175 140.278 103.994 140.124 103.827 139.946C103.741 139.849 103.658 139.745 103.58 139.636C103.539 139.583 103.501 139.528 103.465 139.469L103.452 139.429L103.426 139.383C103.426 139.326 103.392 139.504 103.452 139.257C103.878 139.09 104.33 139.075 104.762 139.211C105.113 139.312 105.446 139.508 105.74 139.785C105.919 139.961 106.078 140.17 106.213 140.406C106.271 140.503 106.317 140.612 106.35 140.728Z" fill="#FF725E" fill-opacity="0.2"/>
<path d="M104.08 139.607C104.08 139.567 104.613 139.877 105.27 140.182C105.668 140.374 106.059 140.592 106.44 140.837C106.018 140.749 105.606 140.589 105.215 140.36C104.813 140.18 104.431 139.927 104.08 139.607Z" fill="#FF725E" fill-opacity="0.2"/>
<path d="M105.402 146.682C105.322 146.263 105.2 145.861 105.039 145.487C104.858 145.086 104.62 144.736 104.339 144.458C103.999 144.117 103.602 143.895 103.183 143.809C103.311 143.625 103.221 143.763 103.247 143.717V143.745V143.797L103.268 143.906C103.268 143.981 103.302 144.05 103.315 144.119C103.351 144.256 103.392 144.39 103.439 144.521C103.53 144.768 103.641 145.001 103.767 145.217C103.983 145.584 104.246 145.895 104.544 146.136C104.826 146.349 105.125 146.515 105.436 146.63C105.348 146.633 105.26 146.618 105.176 146.584C104.941 146.512 104.716 146.393 104.506 146.234C104.192 145.997 103.914 145.683 103.686 145.309C103.55 145.089 103.434 144.848 103.341 144.59C103.289 144.455 103.244 144.315 103.208 144.171C103.208 144.096 103.17 144.027 103.157 143.946V143.837V143.78V143.734C103.183 143.694 103.089 143.826 103.221 143.636C103.659 143.725 104.074 143.962 104.425 144.326C104.711 144.62 104.951 144.99 105.129 145.412C105.252 145.692 105.342 145.996 105.394 146.314C105.41 146.436 105.413 146.56 105.402 146.682Z" fill="#FF725E" fill-opacity="0.2"/>
<path d="M103.682 144.389C103.996 144.774 104.295 145.181 104.578 145.607C104.889 145.995 105.184 146.406 105.462 146.837C104.768 146.165 104.166 145.337 103.682 144.389Z" fill="#FF725E" fill-opacity="0.2"/>
<path d="M103.699 135.4C103.597 134.993 103.454 134.606 103.273 134.251C103.062 133.879 102.801 133.563 102.504 133.32C102.142 133.022 101.729 132.85 101.305 132.82C101.42 132.619 101.339 132.768 101.365 132.722V132.751V132.803L101.395 132.912C101.395 132.981 101.437 133.044 101.459 133.113C101.502 133.245 101.552 133.374 101.608 133.498C101.716 133.732 101.842 133.949 101.984 134.148C102.228 134.488 102.518 134.765 102.837 134.964C103.13 135.142 103.438 135.269 103.755 135.343C103.669 135.364 103.581 135.364 103.495 135.343C103.256 135.298 103.023 135.209 102.803 135.079C102.474 134.88 102.175 134.604 101.92 134.262C101.77 134.06 101.638 133.834 101.527 133.59C101.465 133.462 101.411 133.327 101.365 133.188C101.365 133.119 101.318 133.05 101.296 132.975L101.271 132.866V132.808V132.78C101.296 132.734 101.211 132.877 101.326 132.676C101.771 132.705 102.202 132.889 102.577 133.211C102.882 133.467 103.146 133.803 103.354 134.199C103.495 134.462 103.604 134.753 103.678 135.061C103.7 135.172 103.707 135.287 103.699 135.4Z" fill="#FF725E" fill-opacity="0.2"/>
<path d="M101.826 133.337C102.167 133.676 102.493 134.04 102.803 134.429C103.337 135.038 103.789 135.509 103.772 135.544C103.394 135.275 103.044 134.941 102.731 134.55C102.393 134.197 102.09 133.789 101.826 133.337Z" fill="#FF725E" fill-opacity="0.2"/>
<path d="M102.632 129.607C102.783 129.618 102.925 129.707 103.028 129.857C103.131 130.007 103.186 130.204 103.182 130.408C103.178 130.612 103.115 130.805 103.007 130.948C102.899 131.09 102.753 131.17 102.602 131.17C102.451 131.17 102.305 131.09 102.197 130.948C102.088 130.805 102.026 130.612 102.022 130.408C102.018 130.204 102.073 130.007 102.176 129.857C102.279 129.707 102.421 129.618 102.572 129.607" fill="#FF725E" fill-opacity="0.2"/>
<path d="M107.468 145.389C107.576 145.411 107.678 145.474 107.76 145.573C107.841 145.671 107.9 145.799 107.929 145.941C107.958 146.084 107.955 146.235 107.921 146.375C107.887 146.515 107.823 146.639 107.737 146.731C107.652 146.824 107.548 146.881 107.439 146.895C107.33 146.909 107.22 146.88 107.123 146.811C107.026 146.742 106.946 146.637 106.893 146.508C106.839 146.379 106.815 146.232 106.823 146.084C106.838 145.89 106.906 145.71 107.014 145.579C107.122 145.448 107.263 145.377 107.408 145.378" fill="#FF725E" fill-opacity="0.2"/>
<path d="M154.363 150.751C155.391 149.226 155.973 147.25 155.999 145.19C156.026 143.131 155.496 141.128 154.508 139.556L148.5 130L143 138.5C143.179 138.672 148.614 146.803 148.614 146.803L143.5 155.5C143 156.5 144.154 160.945 144 162C144.23 163.395 144.757 165.976 145 167V168L148.383 165.429L148.029 164.665L144.427 164.544L144.23 163.395L154.363 150.751Z" fill="#FF725E" fill-opacity="0.2"/>
<path d="M150.12 144.607C150.167 144.665 149.834 145.217 149.373 145.809C149.116 146.198 148.822 146.54 148.498 146.826C148.447 146.774 148.754 146.188 149.22 145.59C149.477 145.197 149.781 144.865 150.12 144.607Z" fill="#FF725E" fill-opacity="0.2"/>
<path d="M139.79 279.974L139.854 273.888L131.386 273.653L131.224 282.555L131.749 282.618C134.08 282.859 143.627 283.618 145.198 283.02C146.948 282.359 139.79 279.974 139.79 279.974Z" fill="#FF725E" fill-opacity="0.2"/>
<g opacity="0.4">
<path opacity="0.4" d="M134.294 282.555C134.187 281.589 133.816 280.711 133.252 280.095C132.702 279.479 132 279.163 131.285 279.21L131.233 282.394L134.294 282.555Z" fill="#FF725E" fill-opacity="0.2"/>
</g>
<g opacity="0.4">
<path opacity="0.4" d="M143.286 281.308C143.286 281.308 145.791 282.36 145.467 282.911C145.143 283.463 135.48 283.181 131.224 282.555V282.302L142.496 282.756C142.496 282.756 142.791 281.325 143.286 281.308Z" fill="#FF725E" fill-opacity="0.2"/>
</g>
<path d="M131.11 282.291C131.157 282.309 131.206 282.319 131.255 282.319L131.682 282.365L133.218 282.497C134.499 282.595 136.313 282.704 138.297 282.762C140.282 282.819 142.079 282.825 143.381 282.802L144.922 282.756H145.349H145.494C145.445 282.747 145.397 282.747 145.349 282.756H143.389C142.088 282.756 140.291 282.756 138.306 282.676C136.321 282.595 134.529 282.526 133.231 282.451L131.69 282.359H131.264L131.11 282.291Z" fill="#FF725E" fill-opacity="0.2"/>
<path d="M142.51 282.934C142.583 282.592 142.685 282.262 142.813 281.952C142.971 281.667 143.151 281.407 143.351 281.176C143.086 281.297 142.864 281.547 142.728 281.877C142.562 282.181 142.484 282.558 142.51 282.934Z" fill="#FF725E" fill-opacity="0.2"/>
<path d="M140.039 281.152C140.064 281.152 140.184 280.986 140.312 280.727C140.44 280.469 140.525 280.239 140.5 280.221C140.474 280.204 140.354 280.388 140.226 280.647C140.136 280.794 140.072 280.967 140.039 281.152Z" fill="#FF725E" fill-opacity="0.2"/>
<path d="M139.36 280.635C139.382 280.664 139.514 280.549 139.663 280.377C139.813 280.204 139.919 280.043 139.898 280.015C139.877 279.986 139.744 280.101 139.595 280.273C139.446 280.446 139.343 280.635 139.36 280.635Z" fill="#FF725E" fill-opacity="0.2"/>
<path d="M138.946 279.561C139.082 279.628 139.227 279.657 139.373 279.647C139.516 279.674 139.662 279.656 139.799 279.595C139.663 279.528 139.518 279.499 139.373 279.509C139.229 279.482 139.083 279.5 138.946 279.561Z" fill="#FF725E" fill-opacity="0.2"/>
<path d="M138.809 278.796C138.951 278.933 139.121 279.006 139.296 279.003C139.468 279.05 139.647 279.024 139.808 278.929C139.643 278.887 139.476 278.866 139.308 278.865C139.144 278.82 138.977 278.797 138.809 278.796Z" fill="#FF725E" fill-opacity="0.2"/>
<path d="M140.342 280.17C140.522 280.215 140.708 280.215 140.888 280.17C141.085 280.143 141.279 280.091 141.469 280.015C141.584 279.971 141.695 279.911 141.802 279.837C141.867 279.79 141.917 279.712 141.942 279.618C141.952 279.563 141.949 279.506 141.935 279.453C141.92 279.4 141.895 279.353 141.861 279.319C141.656 279.176 141.421 279.133 141.195 279.198C140.969 279.263 140.767 279.432 140.623 279.676C140.536 279.819 140.472 279.986 140.436 280.164C140.426 280.229 140.426 280.295 140.436 280.36C140.497 280.135 140.585 279.926 140.696 279.739C140.821 279.55 140.984 279.415 141.166 279.348C141.381 279.258 141.614 279.287 141.814 279.429C141.9 279.515 141.861 279.653 141.767 279.728C141.667 279.795 141.563 279.851 141.456 279.894C141.272 279.972 141.083 280.032 140.892 280.072C140.551 280.153 140.342 280.147 140.342 280.17Z" fill="#FF725E" fill-opacity="0.2"/>
<path d="M140.482 280.21C140.551 280.059 140.576 279.879 140.555 279.704C140.538 279.512 140.49 279.328 140.414 279.164C140.372 279.057 140.311 278.966 140.237 278.898C140.162 278.831 140.077 278.79 139.987 278.779C139.932 278.793 139.882 278.836 139.849 278.898C139.817 278.96 139.803 279.037 139.812 279.112C139.824 279.229 139.855 279.341 139.902 279.44C139.969 279.603 140.052 279.754 140.149 279.888C140.234 280.02 140.339 280.126 140.457 280.199C140.457 280.199 140.35 280.061 140.205 279.825C140.119 279.687 140.045 279.536 139.983 279.377C139.91 279.222 139.863 278.946 140.004 278.911C140.145 278.877 140.273 279.084 140.354 279.233C140.429 279.378 140.48 279.542 140.504 279.716C140.507 279.881 140.5 280.046 140.482 280.21Z" fill="#FF725E" fill-opacity="0.2"/>
<path d="M131.332 279.175C131.332 279.204 131.575 279.175 131.955 279.227C132.453 279.314 132.923 279.589 133.309 280.022C133.695 280.454 133.982 281.026 134.136 281.67C134.255 282.164 134.264 282.492 134.285 282.486C134.293 282.41 134.293 282.332 134.285 282.256C134.272 282.048 134.244 281.841 134.2 281.641C134.06 280.965 133.771 280.363 133.371 279.914C132.97 279.465 132.478 279.192 131.959 279.13C131.804 279.109 131.648 279.109 131.494 279.13C131.438 279.134 131.384 279.15 131.332 279.175Z" fill="#FF725E" fill-opacity="0.2"/>
<path d="M132.283 274.457C132.212 275.233 132.175 276.014 132.172 276.796C132.142 277.577 132.142 278.36 132.172 279.141C132.246 278.365 132.283 277.584 132.283 276.802C132.319 276.021 132.319 275.238 132.283 274.457Z" fill="#FF725E" fill-opacity="0.2"/>
<path d="M135.378 281.474C136.192 281.708 137.03 281.743 137.853 281.578C137.853 281.538 137.299 281.578 136.616 281.538C135.933 281.497 135.382 281.434 135.378 281.474Z" fill="#FF725E" fill-opacity="0.2"/>
<path d="M133.718 281.423C133.718 281.451 133.76 281.584 133.816 281.756C133.871 281.928 133.897 282.078 133.927 282.078C133.957 282.078 133.974 281.9 133.927 281.699C133.88 281.497 133.756 281.394 133.718 281.423Z" fill="#FF725E" fill-opacity="0.2"/>
<path d="M133.112 280.354C133.091 280.382 133.142 280.503 133.227 280.624C133.313 280.745 133.402 280.825 133.42 280.796C133.437 280.768 133.39 280.653 133.304 280.532C133.219 280.411 133.134 280.331 133.112 280.354Z" fill="#FF725E" fill-opacity="0.2"/>
<path d="M132.224 279.854C132.224 279.888 132.343 279.894 132.463 279.957C132.582 280.021 132.676 280.107 132.697 280.084C132.719 280.061 132.655 279.9 132.501 279.825C132.347 279.75 132.215 279.814 132.224 279.854Z" fill="#FF725E" fill-opacity="0.2"/>
<path d="M131.588 279.607C131.588 279.641 131.627 279.704 131.695 279.739C131.763 279.773 131.832 279.785 131.844 279.739C131.857 279.693 131.806 279.647 131.738 279.607C131.669 279.566 131.623 279.572 131.588 279.607Z" fill="#FF725E" fill-opacity="0.2"/>
<path d="M128.079 278.285L127.225 282.825C127.225 282.825 121.531 292.359 119.828 291.842C118.71 291.497 120.127 289.009 122.351 281.704L122.842 278.676L128.079 278.285Z" fill="#FF725E" fill-opacity="0.2"/>
<path d="M119.603 290.405C119.669 290.571 119.77 290.707 119.893 290.796C120.064 290.903 120.255 290.943 120.442 290.913C120.63 290.882 120.808 290.782 120.956 290.624C121.945 289.554 122.884 288.402 123.768 287.176C124.814 285.756 125.698 284.388 126.329 283.377L127.059 282.17L127.255 281.842C127.302 281.768 127.328 281.727 127.332 281.733C127.317 281.778 127.299 281.82 127.277 281.86L127.093 282.204C126.935 282.503 126.696 282.928 126.393 283.446C125.597 284.782 124.749 286.062 123.854 287.279C122.967 288.518 122.015 289.67 121.007 290.727C120.817 290.895 120.598 290.994 120.371 291.015C120.2 291.028 120.029 290.974 119.88 290.859C119.787 290.786 119.71 290.684 119.654 290.561C119.628 290.515 119.611 290.462 119.603 290.405Z" fill="#FF725E" fill-opacity="0.2"/>
<path d="M120.435 287.308C120.582 287.234 120.741 287.214 120.896 287.25C121.267 287.308 121.623 287.485 121.933 287.767C122.257 288.027 122.515 288.411 122.675 288.871C122.75 289.056 122.786 289.264 122.782 289.474C122.782 289.474 122.731 289.244 122.607 288.9C122.432 288.477 122.18 288.123 121.873 287.871C121.572 287.606 121.236 287.424 120.883 287.336C120.614 287.29 120.439 287.336 120.435 287.308Z" fill="#FF725E" fill-opacity="0.2"/>
<path d="M125.719 285.181C125.719 285.181 125.689 285.107 125.655 284.963C125.608 284.756 125.574 284.545 125.553 284.331C125.487 283.617 125.588 282.894 125.843 282.262C126.095 281.623 126.499 281.117 126.991 280.825C127.138 280.741 127.293 280.683 127.452 280.653C127.51 280.639 127.569 280.639 127.627 280.653C127.421 280.728 127.218 280.822 127.021 280.934C126.562 281.242 126.184 281.734 125.941 282.342C125.695 282.952 125.586 283.645 125.63 284.337C125.668 284.854 125.741 285.176 125.719 285.181Z" fill="#FF725E" fill-opacity="0.2"/>
<path d="M127.716 279.049C127.742 279.049 127.609 279.699 127.494 280.503C127.443 280.997 127.337 281.478 127.178 281.928C127.153 281.928 127.272 281.279 127.383 280.469C127.437 279.975 127.549 279.495 127.716 279.049Z" fill="#FF725E" fill-opacity="0.2"/>
<path d="M122.231 282.36C122.462 282.26 122.71 282.26 122.94 282.36C123.179 282.416 123.4 282.566 123.576 282.791C123.576 282.831 123.286 282.624 122.914 282.503C122.543 282.383 122.231 282.388 122.231 282.36Z" fill="#FF725E" fill-opacity="0.2"/>
<path d="M122.095 283.124C122.289 283.025 122.503 283.025 122.697 283.124C122.901 283.168 123.085 283.313 123.213 283.532C123.213 283.566 122.974 283.371 122.667 283.268C122.36 283.164 122.099 283.17 122.095 283.124Z" fill="#FF725E" fill-opacity="0.2"/>
<path d="M121.639 284.084C121.73 284.004 121.834 283.953 121.942 283.936C122.05 283.919 122.159 283.936 122.262 283.986C122.369 284.008 122.471 284.063 122.561 284.145C122.65 284.228 122.724 284.336 122.778 284.463C122.606 284.33 122.424 284.218 122.236 284.13C122.039 284.084 121.839 284.069 121.639 284.084Z" fill="#FF725E" fill-opacity="0.2"/>
<path d="M122.607 282.026C122.607 282.026 122.863 281.94 123.264 281.744C123.496 281.625 123.721 281.485 123.939 281.325C124.066 281.233 124.19 281.131 124.31 281.02C124.425 280.911 124.549 280.75 124.545 280.578C124.54 280.405 124.387 280.308 124.263 280.348C124.132 280.407 124.013 280.507 123.917 280.641C123.708 280.894 123.529 281.135 123.384 281.348C123.094 281.762 122.931 282.043 122.919 282.032C122.906 282.02 122.944 281.946 123.012 281.813C123.081 281.681 123.187 281.497 123.328 281.273C123.49 281.015 123.664 280.772 123.849 280.543C123.954 280.387 124.088 280.27 124.237 280.204C124.283 280.184 124.332 280.178 124.38 280.187C124.428 280.195 124.474 280.218 124.515 280.253C124.556 280.288 124.59 280.335 124.616 280.39C124.642 280.445 124.658 280.507 124.664 280.572C124.654 280.692 124.623 280.807 124.574 280.907C124.524 281.007 124.457 281.089 124.378 281.147C124.25 281.262 124.122 281.365 123.994 281.457C123.771 281.615 123.539 281.746 123.298 281.848C123.136 281.917 122.971 281.973 122.803 282.015C122.739 282.035 122.672 282.039 122.607 282.026Z" fill="#FF725E" fill-opacity="0.2"/>
<path d="M122.901 281.94C122.858 281.665 122.826 281.387 122.808 281.106C122.776 280.809 122.717 280.517 122.633 280.239C122.581 280.079 122.514 279.93 122.432 279.796C122.351 279.664 122.227 279.555 122.125 279.629C122.022 279.704 122.005 279.905 122.018 280.078C122.037 280.249 122.07 280.416 122.116 280.578C122.205 280.854 122.322 281.112 122.466 281.342C122.718 281.733 122.893 281.917 122.893 281.917C122.893 281.917 122.833 281.917 122.748 281.802C122.622 281.678 122.505 281.54 122.398 281.388C122.238 281.159 122.108 280.894 122.014 280.606C121.959 280.434 121.922 280.252 121.903 280.066C121.886 279.96 121.893 279.849 121.922 279.747C121.951 279.645 122 279.557 122.065 279.492C122.143 279.46 122.227 279.463 122.304 279.5C122.381 279.537 122.447 279.607 122.492 279.698C122.579 279.844 122.649 280.007 122.701 280.181C122.787 280.472 122.84 280.778 122.859 281.089C122.876 281.295 122.884 281.503 122.884 281.71C122.9 281.785 122.905 281.862 122.901 281.94Z" fill="#FF725E" fill-opacity="0.2"/>
<g opacity="0.4">
<path opacity="0.4" d="M127.204 282.825L127.631 280.641C127.631 280.641 126.27 280.946 125.894 282.302C125.673 283.043 125.57 283.838 125.591 284.635L122.573 288.837C122.573 288.837 121.865 286.865 120.516 287.296C120.516 287.296 119.411 290.394 119.432 291.176C119.453 291.957 120.128 291.882 120.371 291.75C121.359 291.014 122.264 290.093 123.06 289.015C124.652 286.871 126.423 284.147 127.204 282.825Z" fill="#FF725E" fill-opacity="0.2"/>
</g>
<path d="M121.348 94.9639C121.412 95.1809 121.427 95.4186 121.392 95.6472C121.356 95.8758 121.271 96.0853 121.148 96.2496C121.025 96.4138 120.868 96.5255 120.698 96.5708C120.528 96.6161 120.352 96.5929 120.191 96.5041C119.585 96.1708 119.444 95.1018 119.508 94.2053C119.572 93.3087 119.734 92.3834 119.419 91.6133C119.117 91.0746 118.749 90.61 118.33 90.2398C117.998 89.8554 117.738 89.3722 117.569 88.8285C117.4 88.2848 117.327 87.6956 117.357 87.1076C117.395 86.521 117.553 85.9601 117.814 85.4873C118.075 85.0145 118.428 84.6483 118.834 84.4294C119.666 84.0099 120.742 84.2513 121.331 83.349C121.758 82.6938 121.723 81.7053 122.035 80.9467C122.526 79.7973 123.683 79.4639 124.686 79.5387C125.689 79.6134 126.717 79.9295 127.673 79.4984C128.467 79.1421 129.086 78.3088 129.807 77.7743C130.606 77.1739 131.525 76.9248 132.434 77.0618C133.343 77.1988 134.198 77.715 134.878 78.5383C135.559 79.3616 136.031 80.4507 136.229 81.6533C136.427 82.856 136.342 84.1119 135.983 85.2455C135.727 86.0501 127.857 84.257 126 84.4294" fill="#FF725E" fill-opacity="0.2"/>
<path d="M120.49 85.6478L120.605 87.4409L122.232 114.263C122.419 117.377 124.558 119.636 127.033 119.337C129.53 119.038 131.434 116.245 131.302 113.09C131.139 109.786 131.02 106.303 131.02 106.303C131.02 106.303 134.144 105.303 134.52 99.6879C134.703 96.8948 134.37 92.3776 134.012 88.688C133.935 87.9012 133.742 87.1435 133.442 86.4605C133.142 85.7774 132.742 85.1833 132.267 84.7139C131.792 84.2444 131.251 83.9095 130.678 83.7292C130.104 83.549 129.509 83.5271 128.928 83.665L120.49 85.6478Z" fill="#FF725E" fill-opacity="0.2"/>
<path d="M132.77 91.7627C132.782 91.9485 132.738 92.1331 132.65 92.2763C132.561 92.4194 132.434 92.5096 132.296 92.5271C132.23 92.5417 132.162 92.5384 132.097 92.5172C132.032 92.4961 131.971 92.4576 131.918 92.4039C131.864 92.3503 131.819 92.2828 131.785 92.2052C131.751 92.1276 131.729 92.0416 131.72 91.9524C131.708 91.7675 131.75 91.5837 131.838 91.4407C131.926 91.2977 132.052 91.2069 132.189 91.188C132.323 91.1616 132.459 91.2071 132.567 91.3147C132.676 91.4223 132.749 91.5833 132.77 91.7627Z" fill="#FF725E" fill-opacity="0.2"/>
<path d="M133.385 91.1132C133.321 91.2109 132.903 90.8488 132.331 90.9063C131.759 90.9638 131.366 91.3776 131.298 91.2914C131.229 91.2051 131.323 91.0787 131.498 90.8833C131.731 90.6325 132.016 90.4842 132.314 90.4585C132.612 90.4328 132.908 90.531 133.163 90.7396C133.329 90.9063 133.415 91.0672 133.385 91.1132Z" fill="#FF725E" fill-opacity="0.2"/>
<path d="M127.076 92.372C127.086 92.5575 127.043 92.7413 126.954 92.8841C126.866 93.0269 126.739 93.1175 126.602 93.1364C126.468 93.1628 126.333 93.1173 126.224 93.0097C126.115 92.9021 126.042 92.7411 126.021 92.5617C126.012 92.3766 126.056 92.1936 126.144 92.0511C126.232 91.9086 126.358 91.8177 126.495 91.7973C126.561 91.7835 126.629 91.7873 126.694 91.8088C126.759 91.8302 126.82 91.8687 126.874 91.9221C126.928 91.9755 126.974 92.0428 127.008 92.12C127.043 92.1972 127.066 92.2829 127.076 92.372Z" fill="#FF725E" fill-opacity="0.2"/>
<path d="M127.781 91.7685C127.721 91.8719 127.299 91.5099 126.731 91.5616C126.163 91.6133 125.762 92.0386 125.698 91.9467C125.634 91.8547 125.724 91.734 125.894 91.5444C126.13 91.2911 126.417 91.1408 126.718 91.1133C127.018 91.0814 127.318 91.1823 127.572 91.4007C127.755 91.5558 127.824 91.7283 127.781 91.7685Z" fill="#FF725E" fill-opacity="0.2"/>
<path d="M130.149 97.2684C130.442 97.1115 130.749 97.0072 131.063 96.9581C131.208 96.9236 131.34 96.8719 131.361 96.7339C131.363 96.5294 131.318 96.3291 131.233 96.1592L130.725 94.7052C130.261 93.4806 129.872 92.2061 129.564 90.8949C130.097 92.0704 130.561 93.3002 130.952 94.573L131.438 96.0328C131.542 96.2617 131.582 96.5321 131.553 96.7972C131.537 96.8677 131.508 96.9319 131.469 96.9847C131.431 97.0376 131.384 97.0777 131.331 97.1018C131.252 97.1412 131.169 97.1644 131.084 97.1707C130.776 97.2546 130.463 97.2874 130.149 97.2684Z" fill="#FF725E" fill-opacity="0.2"/>
<path d="M131.003 106.303C129.061 106.52 127.112 106.009 125.373 104.826C125.373 104.826 126.948 108.51 131.05 107.607L131.003 106.303Z" fill="#FF725E" fill-opacity="0.2"/>
<path d="M127.78 88.7513C127.733 88.9639 127.161 88.9179 126.5 89.0904C125.838 89.2628 125.309 89.5559 125.219 89.3777C125.172 89.2915 125.258 89.0846 125.467 88.8605C125.744 88.5831 126.065 88.3979 126.406 88.3202C126.745 88.2366 127.094 88.2602 127.426 88.3892C127.678 88.4984 127.806 88.6823 127.78 88.7513Z" fill="#FF725E" fill-opacity="0.2"/>
<path d="M133.06 88.9121C132.97 89.096 132.569 88.9523 132.095 88.9868C131.622 89.0213 131.242 89.1822 131.131 88.9868C131.084 88.9006 131.131 88.7224 131.306 88.5443C131.527 88.3172 131.796 88.1904 132.074 88.1822C132.352 88.1672 132.628 88.2654 132.864 88.4638C133.039 88.6822 133.103 88.8259 133.06 88.9121Z" fill="#FF725E" fill-opacity="0.2"/>
<path d="M119.603 83.5099C119.603 83.4409 119.91 83.2398 120.315 83.395C120.721 83.5501 120.926 83.9697 120.874 83.9697C120.823 83.9697 120.597 83.7743 120.256 83.6478C119.914 83.5214 119.62 83.5904 119.603 83.5099Z" fill="#FF725E" fill-opacity="0.2"/>
<path d="M120.713 81.7856C120.802 82.1828 120.862 82.5909 120.892 83.004C120.999 83.6535 121.233 84.1132 121.186 84.1535C121.139 84.1937 120.802 83.7856 120.683 83.0615C120.581 82.6446 120.592 82.1931 120.713 81.7856Z" fill="#FF725E" fill-opacity="0.2"/>
<path d="M121.467 92.5731C121.408 92.5443 119.03 91.6938 119.167 94.9351C119.303 98.1765 121.698 97.3202 121.698 97.234C121.698 97.1478 121.467 92.5731 121.467 92.5731Z" fill="#FF725E" fill-opacity="0.2"/>
<path d="M120.909 96.0557C120.909 96.0557 120.87 96.1017 120.798 96.1534C120.7 96.2156 120.589 96.2259 120.486 96.1821C120.325 96.0628 120.19 95.8873 120.096 95.674C120.002 95.4607 119.953 95.2174 119.953 94.9695C119.932 94.6908 119.96 94.4096 120.034 94.1477C120.052 94.045 120.089 93.9499 120.141 93.8708C120.193 93.7917 120.259 93.7309 120.332 93.6936C120.379 93.672 120.43 93.6734 120.476 93.6976C120.522 93.7218 120.561 93.7672 120.584 93.8258C120.623 93.912 120.61 93.981 120.623 93.9867C120.636 93.9925 120.67 93.9293 120.648 93.7971C120.63 93.7159 120.593 93.6451 120.542 93.5959C120.472 93.5359 120.388 93.5133 120.307 93.5327C120.207 93.5648 120.115 93.6316 120.04 93.7263C119.965 93.8211 119.91 93.9406 119.88 94.073C119.789 94.361 119.752 94.675 119.773 94.9867C119.774 95.2757 119.837 95.5582 119.957 95.7985C120.076 96.0388 120.245 96.2263 120.443 96.3373C120.509 96.357 120.577 96.357 120.643 96.3371C120.709 96.3172 120.77 96.278 120.823 96.2224C120.909 96.1534 120.917 96.0615 120.909 96.0557Z" fill="#FF725E" fill-opacity="0.2"/>
<path d="M131.493 77.0041H131.545C131.597 76.9986 131.65 76.9986 131.703 77.0041C131.898 77.0537 132.086 77.149 132.257 77.2857C132.533 77.506 132.766 77.8113 132.936 78.1765C133.17 78.6605 133.266 79.2426 133.205 79.8145C133.121 80.5042 132.841 81.1227 132.424 81.5386C132.193 81.7729 131.924 81.9304 131.639 81.9984C131.331 82.0619 131.016 81.9956 130.738 81.8087C130.585 81.7198 130.452 81.5806 130.349 81.4038C130.247 81.227 130.18 81.0184 130.153 80.7972C130.135 80.5656 130.168 80.3318 130.247 80.1248C130.33 79.92 130.444 79.7402 130.58 79.5961C130.862 79.317 131.19 79.1354 131.536 79.0673C131.887 78.9982 132.244 78.9982 132.595 79.0673C133.297 79.1692 133.948 79.6077 134.43 80.303C134.656 80.623 134.831 81.0014 134.946 81.4152C135.06 81.8291 135.111 82.2699 135.096 82.711C135.047 83.5099 134.803 84.2642 134.4 84.8547C134.062 85.3722 133.642 85.7807 133.171 86.0501C132.492 86.4098 131.766 86.5856 131.037 86.5673C130.776 86.5673 130.576 86.5673 130.444 86.5673H130.286C130.251 86.5673 130.234 86.5673 130.234 86.5673H130.444C130.58 86.5673 130.781 86.5673 131.037 86.5673C131.769 86.5649 132.494 86.3697 133.171 85.9926C133.627 85.7343 134.034 85.3415 134.362 84.8432C134.745 84.2725 134.978 83.5471 135.023 82.78C135.035 82.3587 134.985 81.9385 134.875 81.5438C134.765 81.1491 134.598 80.7878 134.383 80.4811C133.916 79.8158 133.288 79.3962 132.612 79.2972C131.944 79.1374 131.256 79.3243 130.687 79.8202C130.556 79.9258 130.45 80.079 130.38 80.2623C130.311 80.4455 130.282 80.6513 130.296 80.8561C130.309 81.0608 130.366 81.2562 130.458 81.4196C130.551 81.583 130.676 81.708 130.819 81.78C131.082 81.9603 131.381 82.0246 131.673 81.9639C131.941 81.8958 132.195 81.7486 132.415 81.5329C132.818 81.1353 133.091 80.5448 133.179 79.8834C133.241 79.3355 133.153 78.7763 132.932 78.3087C132.772 77.9511 132.551 77.6497 132.287 77.4294C132.046 77.2194 131.776 77.0749 131.493 77.0041Z" fill="#FF725E" fill-opacity="0.2"/>
<path d="M130.789 99.6018C130.713 99.9917 130.533 100.33 130.284 100.554C130.034 100.777 129.733 100.87 129.436 100.814C129.128 100.682 128.862 100.412 128.683 100.048C128.504 99.684 128.424 99.2487 128.455 98.8145L130.789 99.6018Z" fill="#FF725E" fill-opacity="0.2"/>
<path d="M127.926 98.1246C127.9 98.0959 127.986 97.9177 128.109 97.7223C128.233 97.5269 128.353 97.3947 128.378 97.4235C128.404 97.4522 128.319 97.6304 128.195 97.8258C128.071 98.0212 127.952 98.1534 127.926 98.1246Z" fill="#FF725E" fill-opacity="0.2"/>
<path d="M128.441 98.2971C128.416 98.2971 128.48 98.0902 128.586 97.9005C128.693 97.7109 128.8 97.573 128.825 97.5959C128.851 97.6189 128.787 97.7971 128.68 97.9925C128.573 98.1879 128.467 98.3201 128.441 98.2971Z" fill="#FF725E" fill-opacity="0.2"/>
<path d="M128.903 98.6304C128.873 98.6304 128.903 98.389 128.992 98.1419C129.082 97.8948 129.206 97.7224 129.231 97.7511C129.257 97.7798 129.185 97.9695 129.099 98.2109C129.014 98.4523 128.933 98.6419 128.903 98.6304Z" fill="#FF725E" fill-opacity="0.2"/>
<path d="M129.487 98.6075C129.453 98.6075 129.462 98.3949 129.487 98.1592C129.513 97.9236 129.586 97.7339 129.62 97.7454C129.654 97.7569 129.641 97.9581 129.62 98.1937C129.598 98.4293 129.517 98.619 129.487 98.6075Z" fill="#FF725E" fill-opacity="0.2"/>
<path d="M129.961 98.9063C129.927 98.9063 129.935 98.6707 129.961 98.4006C129.987 98.1305 130.059 97.9121 130.089 97.9178C130.119 97.9236 130.115 98.1592 130.089 98.4293C130.063 98.6994 129.991 98.9178 129.961 98.9063Z" fill="#FF725E" fill-opacity="0.2"/>
<path d="M130.538 98.9237C130.503 98.9237 130.486 98.734 130.495 98.5099C130.503 98.2857 130.533 98.0961 130.563 98.1018C130.593 98.1076 130.619 98.2857 130.61 98.5156C130.602 98.7455 130.567 98.9237 130.538 98.9237Z" fill="#FF725E" fill-opacity="0.2"/>
<path d="M131.016 99.1937C130.982 99.1937 130.961 98.9351 130.931 98.619C130.901 98.3029 130.88 98.0443 130.931 98.0443C130.982 98.0443 131.038 98.2799 131.067 98.619C131.094 98.8132 131.076 99.0134 131.016 99.1937Z" fill="#FF725E" fill-opacity="0.2"/>
<path d="M131.477 98.964C131.442 98.964 131.4 98.7858 131.374 98.5502C131.349 98.3146 131.374 98.1249 131.374 98.1191C131.374 98.1134 131.451 98.2973 131.477 98.5272C131.502 98.7571 131.506 98.9582 131.477 98.964Z" fill="#FF725E" fill-opacity="0.2"/>
<path d="M131.98 98.8833C131.95 98.8833 131.908 98.7626 131.886 98.6017C131.865 98.4407 131.886 98.2971 131.886 98.2913C131.886 98.2856 131.963 98.412 131.985 98.5729C132.006 98.7339 132.014 98.8775 131.98 98.8833Z" fill="#FF725E" fill-opacity="0.2"/>
<path d="M131.276 102.561C131.276 102.561 131.165 102.498 130.99 102.406C130.762 102.293 130.519 102.248 130.277 102.274C130.037 102.304 129.805 102.406 129.599 102.573C129.436 102.699 129.347 102.808 129.334 102.791C129.321 102.774 129.394 102.642 129.552 102.481C129.762 102.273 130.009 102.146 130.269 102.113C130.528 102.085 130.787 102.152 131.02 102.308C131.195 102.429 131.285 102.55 131.276 102.561Z" fill="#FF725E" fill-opacity="0.2"/>
<path d="M144 170H134L119 171L120.289 280.854L131.621 282.141C131.621 282.141 131.621 278.624 131.651 276.319L139.829 278.463C139.829 278.463 148.66 245.187 151.661 230.141C154.14 217.596 144 170 144 170ZM131.728 260.164C131.903 232.912 132.326 186.567 132.706 180.906C132.706 180.906 140.068 221.912 140.098 225.159C140.115 227.084 135.416 245.797 131.728 260.159V260.164Z" fill="#FF725E" fill-opacity="0.2"/>
<path d="M130.999 256.658C131.035 256.964 131.045 257.275 131.029 257.584C131.029 258.245 131.029 259.089 131.029 260.101C131.029 262.291 131.029 265.199 130.999 268.406C130.969 271.612 131.038 274.52 131.05 276.71C131.05 277.722 131.05 278.566 131.05 279.227C131.064 279.536 131.055 279.846 131.025 280.153C130.979 279.85 130.955 279.542 130.952 279.233C130.918 278.658 130.888 277.779 130.854 276.716C130.79 274.589 130.735 271.653 130.73 268.406C130.726 265.158 130.773 262.222 130.833 260.095C130.863 259.032 130.892 258.176 130.922 257.584C130.928 257.273 130.953 256.963 130.999 256.658Z" fill="#FF725E" fill-opacity="0.2"/>
<path d="M131.225 282.095C131.161 282.095 131.421 258.842 131.801 230.176C132.181 201.509 132.539 178.257 132.599 178.257C132.659 178.257 132.403 201.504 132.023 230.182C131.643 258.86 131.284 282.095 131.225 282.095Z" fill="#FF725E" fill-opacity="0.2"/>
<path d="M143.146 229.032C142.431 228.795 141.773 228.31 141.24 227.625C140.706 226.941 140.314 226.081 140.103 225.13C140.466 225.957 140.896 226.728 141.383 227.429C141.927 228.047 142.518 228.585 143.146 229.032Z" fill="#FF725E" fill-opacity="0.2"/>
<path d="M144.136 227.09C143.379 227.36 142.577 227.296 141.849 226.906C141.097 226.613 140.433 226.01 139.949 225.182C140.559 225.769 141.22 226.256 141.917 226.63C142.639 226.908 143.385 227.063 144.136 227.09Z" fill="#FF725E" fill-opacity="0.2"/>
<path d="M149.066 129.096L141.81 118.24C140.278 115.989 138.378 114.25 136.261 113.159C135.19 112.584 132.595 112.447 131.271 112.332L131.178 112.303C128.309 113.412 124.933 112.878 122.103 111.59C121.28 112.125 115.56 111.303 111.292 121.084L108.095 132.515L115.94 137.987L116.098 146.176L117.626 171.101L145.28 169.872L142.121 148.607L140.222 136.056L142.659 139.044L149.066 129.096Z" fill="#FF725E" fill-opacity="0.2"/>
<path d="M141.75 118.303H140.973C140.23 118.32 139.491 118.441 138.766 118.665C137.623 119.036 136.547 119.714 135.604 120.659C134.367 121.945 133.299 123.499 132.441 125.257C131.926 126.25 131.547 127.359 131.323 128.533C131.074 129.799 131.184 131.144 131.63 132.308C131.86 132.926 132.206 133.452 132.633 133.834C133.061 134.217 133.555 134.441 134.067 134.487C134.601 134.478 135.117 134.227 135.531 133.774C135.959 133.287 136.289 132.664 136.493 131.961C136.696 131.259 136.766 130.499 136.696 129.751C136.616 128.974 136.42 128.228 136.12 127.556C135.484 126.173 134.604 125.022 133.559 124.205C131.355 122.387 128.708 121.808 126.189 122.594C123.671 123.38 121.483 125.468 120.097 128.406C119.433 129.776 119.068 131.369 119.043 133.004C119.051 133.787 119.182 134.558 119.427 135.268C119.686 135.943 120.075 136.51 120.554 136.912C121.02 137.31 121.553 137.547 122.103 137.601C122.635 137.666 123.168 137.481 123.61 137.078C124.031 136.672 124.333 136.081 124.464 135.406C124.592 134.745 124.604 134.052 124.498 133.383C124.3 132.099 123.872 130.899 123.252 129.889C122.704 128.922 122.059 128.063 121.335 127.337C120.094 126.072 118.673 125.165 117.161 124.67C116.019 124.286 114.839 124.15 113.665 124.268C113.438 124.277 113.211 124.308 112.987 124.36C112.777 124.406 112.56 124.429 112.393 124.487C112.03 124.607 111.719 124.682 111.476 124.785L110.925 125.021L110.733 125.096C110.733 125.096 110.793 125.056 110.916 124.992L111.463 124.728C111.706 124.613 112.018 124.527 112.38 124.4C112.564 124.337 112.765 124.308 112.978 124.262C113.204 124.204 113.432 124.166 113.661 124.148C114.843 124.011 116.034 124.133 117.186 124.51C118.722 124.991 120.166 125.895 121.429 127.165C122.168 127.895 122.827 128.764 123.384 129.745C124.023 130.783 124.463 132.016 124.664 133.337C124.78 134.043 124.77 134.776 124.634 135.475C124.494 136.208 124.166 136.851 123.708 137.291C123.231 137.731 122.654 137.935 122.078 137.866C121.493 137.809 120.927 137.56 120.43 137.142C119.919 136.712 119.503 136.104 119.227 135.383C118.959 134.64 118.814 133.829 118.8 133.004C118.823 131.314 119.199 129.667 119.884 128.251C121.295 125.246 123.528 123.109 126.1 122.303C128.672 121.498 131.376 122.088 133.627 123.946C134.71 124.782 135.62 125.967 136.278 127.395C136.592 128.098 136.795 128.88 136.876 129.693C136.953 130.496 136.873 131.312 136.645 132.061C136.433 132.799 136.083 133.45 135.629 133.952C135.178 134.44 134.616 134.707 134.037 134.711C133.478 134.701 132.936 134.453 132.488 134.004C132.056 133.579 131.7 133.029 131.446 132.395C130.978 131.178 130.865 129.769 131.131 128.446C131.362 127.246 131.754 126.113 132.287 125.102C133.162 123.337 134.249 121.783 135.505 120.504C136.465 119.556 137.559 118.884 138.719 118.527C139.452 118.315 140.199 118.211 140.947 118.217L141.528 118.257C141.603 118.264 141.677 118.279 141.75 118.303Z" fill="#FF725E" fill-opacity="0.2"/>
<path d="M142.083 148.74C142.059 148.787 142.032 148.831 142.002 148.872L141.746 149.251C141.411 149.73 141.053 150.179 140.675 150.596C140.068 151.253 139.417 151.831 138.728 152.32C137.822 152.97 136.856 153.459 135.856 153.774C134.644 154.171 133.396 154.328 132.151 154.24C130.717 154.144 129.308 153.696 127.994 152.918C126.513 152.098 125.25 150.696 124.37 148.895C123.921 147.92 123.666 146.805 123.632 145.659C123.581 144.473 123.8 143.294 124.259 142.28C124.496 141.769 124.806 141.327 125.172 140.981C125.539 140.652 125.949 140.422 126.38 140.303C127.228 140.051 128.116 140.257 128.852 140.878C129.198 141.199 129.482 141.628 129.679 142.128C129.877 142.628 129.982 143.185 129.987 143.751C130.001 144.822 129.763 145.872 129.308 146.751C128.872 147.57 128.306 148.249 127.652 148.74C127.046 149.201 126.403 149.569 125.736 149.837C124.55 150.361 123.313 150.642 122.065 150.671C121.032 150.691 120.007 150.429 119.052 149.9C118.333 149.493 117.677 148.908 117.118 148.176C116.769 147.712 116.47 147.184 116.231 146.607C116.147 146.407 116.077 146.198 116.021 145.981C116.319 146.764 116.71 147.477 117.178 148.09C117.737 148.795 118.389 149.354 119.099 149.74C120.049 150.246 121.065 150.488 122.087 150.452C123.317 150.412 124.535 150.124 125.702 149.596C126.354 149.326 126.983 148.96 127.575 148.504C128.2 148.029 128.741 147.376 129.159 146.59C129.587 145.757 129.81 144.764 129.795 143.751C129.79 143.233 129.693 142.725 129.51 142.268C129.328 141.812 129.067 141.422 128.749 141.13C128.054 140.55 127.218 140.36 126.42 140.601C125.622 140.841 124.926 141.494 124.481 142.418C124.046 143.383 123.839 144.503 123.888 145.63C123.919 146.728 124.161 147.795 124.592 148.728C125.448 150.481 126.675 151.848 128.113 152.653C129.403 153.422 130.785 153.869 132.194 153.975C133.422 154.07 134.654 153.927 135.851 153.55C136.843 153.249 137.803 152.779 138.707 152.153C139.392 151.689 140.043 151.141 140.653 150.515C141.037 150.116 141.402 149.684 141.746 149.222L142.019 148.866C142.045 148.774 142.079 148.734 142.083 148.74Z" fill="#FF725E" fill-opacity="0.2"/>
<path d="M144.29 161.096C144.253 161.093 144.217 161.081 144.183 161.061L143.885 160.94C143.624 160.814 143.236 160.67 142.732 160.492C141.301 160.023 139.828 159.83 138.357 159.917C136.175 160.07 134.043 160.865 132.113 162.245C131.558 162.622 131.062 163.137 130.649 163.762C130.44 164.077 130.29 164.455 130.211 164.864C130.133 165.273 130.128 165.701 130.196 166.113C130.269 166.548 130.427 166.948 130.654 167.272C130.881 167.596 131.17 167.831 131.488 167.952C131.806 168.073 132.143 168.077 132.463 167.961C132.783 167.846 133.073 167.616 133.304 167.297C133.542 166.983 133.709 166.584 133.786 166.147C133.856 165.708 133.856 165.253 133.786 164.814C133.641 163.939 133.284 163.154 132.77 162.584C132.264 162.036 131.684 161.622 131.063 161.366C130.465 161.106 129.854 160.898 129.236 160.745C127.096 160.172 124.908 159.99 122.731 160.205C121.268 160.334 119.816 160.632 118.391 161.096C117.887 161.274 117.494 161.417 117.23 161.527L116.931 161.642L116.824 161.67C116.855 161.647 116.888 161.627 116.922 161.613L117.217 161.469C117.477 161.343 117.866 161.182 118.369 160.986C119.796 160.456 121.256 160.108 122.731 159.946C124.923 159.701 127.129 159.864 129.287 160.429C129.916 160.579 130.536 160.784 131.144 161.044C131.789 161.313 132.39 161.744 132.915 162.314C133.469 162.922 133.852 163.765 134.004 164.705C134.083 165.188 134.083 165.688 134.004 166.17C133.918 166.665 133.73 167.118 133.462 167.475C133.194 167.826 132.863 168.077 132.502 168.202C132.14 168.327 131.76 168.322 131.4 168.188C131.055 168.04 130.743 167.776 130.496 167.42C130.248 167.063 130.073 166.627 129.987 166.153C129.909 165.696 129.913 165.22 130 164.766C130.087 164.312 130.254 163.893 130.487 163.544C130.916 162.892 131.435 162.358 132.015 161.969C135.326 159.672 139.153 159.111 142.753 160.394C143.142 160.535 143.525 160.702 143.902 160.894L144.192 161.044L144.29 161.096Z" fill="#FF725E" fill-opacity="0.2"/>
<path d="M147.252 126.573C147.248 126.663 147.233 126.753 147.209 126.837C147.151 127.079 147.076 127.314 146.987 127.538C146.658 128.378 146.159 129.075 145.549 129.55C145.091 129.896 144.584 130.112 144.062 130.184C143.539 130.256 143.011 130.183 142.51 129.969C142.213 129.848 141.935 129.653 141.69 129.395C141.418 129.127 141.227 128.735 141.153 128.291C141.125 128.052 141.146 127.807 141.212 127.582C141.278 127.357 141.387 127.159 141.528 127.01C141.667 126.855 141.828 126.741 142.002 126.675C142.175 126.61 142.357 126.595 142.536 126.63C142.872 126.724 143.186 126.925 143.452 127.218C143.718 127.51 143.928 127.884 144.064 128.309C144.323 129.08 144.407 129.938 144.307 130.774C144.225 131.523 144.032 132.243 143.739 132.889C143.479 133.437 143.169 133.939 142.817 134.383C142.305 135.016 141.751 135.584 141.161 136.079C140.956 136.257 140.794 136.389 140.683 136.475C140.627 136.526 140.567 136.566 140.504 136.596C140.696 136.372 140.9 136.166 141.114 135.981C141.678 135.464 142.211 134.888 142.706 134.257C143.451 133.337 143.945 132.106 144.106 130.763C144.191 129.981 144.108 129.184 143.867 128.464C143.746 128.085 143.559 127.75 143.322 127.488C143.085 127.226 142.805 127.044 142.506 126.958C142.355 126.922 142.201 126.931 142.053 126.985C141.906 127.039 141.769 127.135 141.652 127.268C141.539 127.384 141.452 127.538 141.399 127.715C141.346 127.893 141.331 128.086 141.353 128.274C141.416 128.647 141.577 128.978 141.806 129.205C142.029 129.438 142.282 129.616 142.553 129.728C143.028 129.938 143.531 130.016 144.03 129.958C144.528 129.9 145.013 129.706 145.455 129.389C146.051 128.943 146.548 128.292 146.898 127.504C147.158 126.918 147.231 126.567 147.252 126.573Z" fill="#FF725E" fill-opacity="0.2"/>
<path d="M121.702 112.901C121.712 113.046 121.699 113.193 121.663 113.332C121.591 113.717 121.48 114.089 121.335 114.435C121.097 115.021 120.774 115.536 120.385 115.95C119.995 116.363 119.548 116.666 119.069 116.84C118.591 117.014 118.091 117.055 117.6 116.962C117.109 116.869 116.637 116.643 116.213 116.297C115.957 116.098 115.723 115.852 115.517 115.567C115.372 115.36 115.308 115.234 115.321 115.222C115.63 115.545 115.953 115.84 116.29 116.108C117.118 116.717 118.089 116.871 118.999 116.539C119.91 116.207 120.69 115.414 121.177 114.326C121.375 113.867 121.55 113.391 121.702 112.901Z" fill="#FF725E" fill-opacity="0.2"/>
<rect x="118" y="288.1" width="8" height="5" fill="#F5F5F5"/>
</svg>
