<svg width="220" height="169" viewBox="0 0 220 169" fill="none" xmlns="http://www.w3.org/2000/svg">
<g filter="url(#filter0_d)">
<path d="M127.923 86.4518L125.367 110.215C125.367 110.215 120.387 102.69 117.018 106.043C113.807 109.243 108.136 132.579 108.136 132.579C108.136 132.579 108.062 140.188 112.107 142.2C125.082 148.664 139.54 136.518 139.54 136.518L137.475 68.5027C132.096 73.0305 128.674 79.461 127.923 86.4518V86.4518Z" fill="#FF725E"/>
<path d="M171.694 69.9338L149.246 68.1436C149.109 65.5032 149.293 55.3801 149.293 55.3801C149.293 55.3801 139.952 53.9279 139.841 44.5916C139.73 35.2554 141.341 13.8051 141.341 13.8051C146.65 11.5226 152.472 10.6995 158.206 11.4208C163.939 12.1422 169.376 14.3818 173.954 17.9082L175.338 18.9644L171.694 69.9338Z" fill="#FFC3BD"/>
<path d="M149.278 55.2482C153.59 55.3296 157.83 54.1255 161.455 51.7893C161.455 51.7893 158.577 58.5064 149.257 57.6667L149.278 55.2482Z" fill="#FFC3BD"/>
<path d="M174.192 28.6439C174.35 28.5753 180.608 26.7482 180.402 33.1326C180.196 39.5169 173.833 37.9961 173.828 37.8113C173.822 37.6264 174.192 28.6439 174.192 28.6439Z" fill="#FFC3BD"/>
<path d="M175.85 35.456C175.882 35.456 175.961 35.5352 176.146 35.6303C176.406 35.7523 176.704 35.7675 176.975 35.6725C177.662 35.4455 178.264 34.3946 178.332 33.2434C178.36 32.7024 178.27 32.1618 178.068 31.6592C178.016 31.4575 177.915 31.2716 177.774 31.1179C177.633 30.9642 177.457 30.8473 177.26 30.7773C177.134 30.7384 176.997 30.7457 176.875 30.7979C176.754 30.8501 176.654 30.9439 176.595 31.0625C176.505 31.2368 176.537 31.3635 176.505 31.3741C176.474 31.3846 176.373 31.2632 176.431 30.9991C176.475 30.8439 176.568 30.7068 176.695 30.6084C176.876 30.4839 177.097 30.433 177.313 30.4658C177.577 30.5298 177.82 30.6605 178.019 30.8454C178.218 31.0304 178.366 31.2633 178.448 31.5219C178.699 32.084 178.811 32.6978 178.776 33.3121C178.691 34.5953 177.994 35.7782 177.065 36.0158C176.892 36.0613 176.711 36.0668 176.535 36.0321C176.359 35.9973 176.194 35.9231 176.051 35.8151C175.861 35.6092 175.829 35.4666 175.85 35.456Z" fill="#FFC3BD"/>
<path d="M143.4 28.2637C143.397 28.6118 143.53 28.9473 143.771 29.1988C144.011 29.4503 144.341 29.5979 144.688 29.6103C144.858 29.6239 145.029 29.6034 145.191 29.5498C145.352 29.4963 145.501 29.4109 145.63 29.2986C145.758 29.1863 145.862 29.0495 145.936 28.8962C146.01 28.743 146.053 28.5764 146.061 28.4063C146.064 28.0591 145.932 27.7244 145.693 27.473C145.453 27.2216 145.125 27.0734 144.778 27.0597C144.608 27.0468 144.438 27.0678 144.276 27.1216C144.114 27.1753 143.965 27.2608 143.837 27.3728C143.708 27.4849 143.604 27.6214 143.529 27.7743C143.454 27.9273 143.41 28.0937 143.4 28.2637V28.2637Z" fill="#263238"/>
<path d="M143.11 26.9435C143.273 27.1178 144.287 26.3679 145.718 26.3732C147.149 26.3785 148.206 27.0967 148.359 26.9013C148.433 26.8221 148.264 26.5052 147.831 26.1726C147.21 25.7439 146.472 25.517 145.718 25.523C144.971 25.5203 144.243 25.7551 143.638 26.1937C143.178 26.5528 143.03 26.8643 143.11 26.9435Z" fill="#263238"/>
<path d="M157.458 28.7918C157.455 29.139 157.587 29.4737 157.826 29.725C158.066 29.9764 158.394 30.1246 158.741 30.1383C158.911 30.1513 159.081 30.1302 159.243 30.0765C159.405 30.0227 159.554 29.9373 159.682 29.8252C159.811 29.7132 159.915 29.5767 159.99 29.4237C160.065 29.2708 160.109 29.1044 160.119 28.9343C160.121 28.5867 159.987 28.2519 159.747 28.0007C159.506 27.7495 159.178 27.6014 158.831 27.5878C158.661 27.5749 158.491 27.5959 158.329 27.6497C158.168 27.7036 158.019 27.789 157.891 27.9012C157.763 28.0133 157.659 28.1498 157.584 28.3028C157.51 28.4557 157.467 28.6219 157.458 28.7918V28.7918Z" fill="#263238"/>
<path d="M157.215 27.2076C157.384 27.3818 158.392 26.632 159.829 26.6373C161.265 26.6426 162.316 27.3607 162.469 27.1653C162.548 27.0914 162.379 26.7746 161.941 26.4419C161.32 26.0132 160.583 25.7847 159.829 25.7871C159.082 25.7861 158.354 26.0208 157.748 26.4577C157.289 26.8221 157.136 27.1337 157.215 27.2076Z" fill="#263238"/>
<path d="M152.008 37.8535C152.008 37.7743 151.121 37.6211 149.679 37.4363C149.309 37.3993 148.966 37.3254 148.903 37.0719C148.873 36.6949 148.958 36.3178 149.146 35.9894C149.498 35.1022 149.858 34.1711 150.228 33.1959C151.738 29.2248 152.826 25.9561 152.662 25.898C152.499 25.8399 151.152 29.0136 149.647 32.9847C149.288 33.9616 148.94 34.8963 148.591 35.794C148.357 36.2344 148.29 36.7443 148.401 37.2304C148.454 37.359 148.535 37.4736 148.64 37.5652C148.744 37.6569 148.869 37.723 149.003 37.7584C149.206 37.816 149.415 37.8462 149.626 37.8482C151.099 37.9327 152.002 37.938 152.008 37.8535Z" fill="#263238"/>
<path d="M156.845 21.5889C156.987 21.9797 158.429 21.7948 160.103 21.9955C161.777 22.1962 163.15 22.6556 163.372 22.3071C163.472 22.1381 163.234 21.779 162.685 21.3935C161.951 20.9359 161.122 20.6506 160.261 20.5592C159.401 20.4677 158.53 20.5724 157.716 20.8654C157.098 21.0978 156.787 21.3988 156.845 21.5889Z" fill="#263238"/>
<path d="M143.638 22.7929C143.891 23.115 144.879 22.7929 146.067 22.7612C147.255 22.7295 148.264 22.983 148.496 22.6397C148.596 22.476 148.438 22.1486 148 21.8423C147.41 21.4704 146.722 21.2828 146.025 21.3035C145.328 21.3242 144.653 21.5523 144.087 21.9585C143.664 22.2965 143.527 22.6292 143.638 22.7929Z" fill="#263238"/>
<path d="M136.794 7.91187C136.728 7.33214 136.81 6.74511 137.033 6.20574C137.255 5.66638 137.611 5.19231 138.067 4.82793C138.537 4.48568 139.114 4.3217 139.695 4.36522C140.275 4.40875 140.821 4.65695 141.235 5.06557C141.147 4.67565 141.143 4.27163 141.221 3.87971C141.299 3.48778 141.459 3.11671 141.69 2.79057C141.921 2.46443 142.218 2.19049 142.562 1.98654C142.906 1.78259 143.289 1.65319 143.686 1.6067C145.212 1.51165 146.511 2.66284 147.979 3.06418C149.447 3.46551 150.957 3.11698 152.341 2.56251C153.724 2.00804 155.013 1.23705 156.412 0.724826C159.369 -0.354979 162.632 -0.224061 165.493 1.08912C168.354 2.40231 170.58 4.7916 171.689 7.73761C173.733 7.09864 176.051 8.13894 177.313 9.84989C178.575 11.5608 178.897 13.8527 178.644 15.9755C178.447 17.4078 178.093 18.8139 177.588 20.1684C177.588 20.2898 177.588 20.406 177.588 20.5275C177.487 25.6603 176.906 31.6909 174.715 31.7279C170.897 31.7859 171.811 24.5883 171.811 24.5883C167.121 22.7823 168.869 15.759 167.697 14.6923C166.525 13.6256 164.074 11.1542 154.263 16.1656C150.45 18.1142 145.386 18.0561 142.619 17.4277L142.376 17.3749H142.318C142.291 17.3657 142.264 17.3551 142.239 17.3432C141.349 17.1244 140.499 16.768 139.72 16.2871C138.802 15.7577 138.077 14.9493 137.65 13.9794C137.444 13.494 137.384 12.9592 137.478 12.4405C137.572 11.9218 137.815 11.4418 138.178 11.0592C137.419 10.1677 136.938 9.07357 136.794 7.91187Z" fill="#263238"/>
<path d="M190.061 128.539L190.763 141.799L192.347 160.809H132.342L134.951 132.684L129.839 88.2472C130.283 72.5424 136.313 66.0155 148.649 64.5157L147.678 64.6372C149.378 64.4365 147.678 64.6372 148.649 64.5157C156.439 66.9765 164.797 66.9765 172.587 64.5157V64.5157C176.283 64.6742 179.351 65.8095 182.499 66.4168C192.41 68.3126 200.569 75.9696 202.565 82.6391C204.197 88.1258 215.999 135.716 215.999 135.716H192.506L190.061 128.539Z" fill="#FF725E"/>
<path d="M150.788 42.2682C150.988 42.8486 151.268 43.398 151.622 43.8999C151.801 44.1503 152.031 44.3598 152.296 44.5145C152.562 44.6693 152.858 44.7658 153.164 44.7976C153.491 44.7964 153.812 44.7137 154.099 44.5569C154.386 44.4002 154.629 44.1743 154.806 43.8999C155.155 43.3416 155.316 42.6867 155.266 42.0305C155.266 41.4391 154.97 40.7367 154.384 40.6681C154.137 40.6586 153.892 40.7113 153.671 40.8212L150.592 42.0728" fill="#FFC3BD"/>
<path d="M152.018 44.8029C152.575 44.8404 153.134 44.7723 153.666 44.6022C154.204 44.3903 154.645 43.9881 154.907 43.4721C155.054 43.1582 155.133 42.8168 155.14 42.4701C155.146 42.1234 155.079 41.7793 154.944 41.4602C154.875 41.2952 154.786 41.1391 154.68 40.9955C154.553 40.8687 154.579 40.874 154.447 40.8951C154.278 40.9505 154.112 41.0157 153.951 41.0905L153.423 41.2965C152.763 41.5605 152.166 41.7929 151.664 41.983C150.656 42.3579 150.017 42.5586 149.985 42.511C149.953 42.4635 150.54 42.115 151.511 41.645C151.997 41.4127 152.567 41.1169 153.227 40.8476L153.724 40.6258C153.908 40.5385 154.097 40.461 154.289 40.3935C154.436 40.344 154.596 40.344 154.743 40.3935C154.879 40.4497 154.996 40.543 155.081 40.6628C155.223 40.8397 155.34 41.0351 155.43 41.2437C155.597 41.6361 155.676 42.0609 155.659 42.4874C155.643 42.9139 155.532 43.3314 155.334 43.7098C155.168 44.0151 154.942 44.2841 154.67 44.5008C154.398 44.7176 154.085 44.8777 153.75 44.9719C153.318 45.1132 152.856 45.1315 152.414 45.0247C152.15 44.9402 152.008 44.8346 152.018 44.8029Z" fill="#263238"/>
<path d="M129.739 125.888L115.608 82.5018L114.33 75.2197C114.33 75.2197 110.486 58.9763 110.311 57.3709C110.116 55.5121 109.171 55.1636 108.495 55.2587C107.439 55.4488 106.821 56.8429 106.942 58.4271C106.984 58.9552 107.998 67.6683 107.998 67.6683C107.404 66.9021 106.756 66.1787 106.06 65.5032C104.598 64.0141 101.477 63.3909 98.3875 63.8398C95.2983 64.2887 94.4692 64.6689 94.5854 65.8782C94.6172 66.1054 94.6997 66.3225 94.8268 66.5135C94.9538 66.7045 95.1222 66.8646 95.3194 66.9818C95.9393 67.399 96.6917 67.5721 97.4317 67.4676C102.39 66.8392 104.011 69.3529 104.011 69.3529L104.18 70.3034C104.18 70.3034 100.928 68.4763 98.6251 69.6433C98.2838 69.8158 97.979 70.0524 97.7274 70.3404C97.0506 70.4166 96.4054 70.6683 95.8558 71.0708C95.3063 71.4732 94.8715 72.0122 94.5945 72.6345C94.3175 73.2567 94.208 73.9406 94.2768 74.6182C94.3456 75.2959 94.5903 75.9438 94.9867 76.4977C95.3669 77.0257 96.0429 77.501 96.6501 77.3056C96.9726 77.1678 97.2558 76.9518 97.4739 76.6772C97.5978 76.5401 97.7339 76.4146 97.8805 76.3023L98.7202 78.9057C98.7202 78.9057 100.928 84.6564 101.603 87.265L108.468 130.952C108.695 132.391 109.207 133.77 109.972 135.009C110.738 136.249 111.742 137.323 112.927 138.17C114.112 139.017 115.454 139.619 116.875 139.942C118.295 140.265 119.765 140.302 121.2 140.051V140.051C122.743 139.779 124.211 139.18 125.503 138.294C126.795 137.407 127.882 136.254 128.692 134.912C129.501 133.57 130.013 132.07 130.194 130.514C130.374 128.957 130.219 127.38 129.739 125.888V125.888Z" fill="#FFC3BD"/>
<path d="M114.114 82.0583C113.232 82.4068 112.223 81.8365 111.642 81.0866C111.061 80.3368 110.76 79.4021 110.238 78.61C108.653 76.2337 105.411 75.3729 103.964 72.9279C103.758 72.5847 103.616 72.1042 103.906 71.8349C104.196 71.5655 104.608 71.7134 104.962 71.8349L113.644 75.4838" fill="#FFC3BD"/>
<path d="M113.628 75.5049C113.35 75.3041 113.049 75.1391 112.73 75.0138C112.139 74.7286 111.272 74.3379 110.201 73.8573L106.43 72.2097L105.332 71.7398C104.918 71.4808 104.419 71.3954 103.943 71.5021C103.798 71.567 103.675 71.6745 103.592 71.8102C103.51 71.946 103.47 72.1037 103.478 72.2626C103.492 72.5224 103.566 72.7755 103.695 73.0018C103.931 73.4009 104.211 73.7728 104.529 74.1108C105.823 75.4627 107.386 76.2231 108.558 77.1894C109.125 77.6205 109.624 78.135 110.037 78.7156C110.412 79.2436 110.67 79.8509 110.966 80.3684C111.164 80.8098 111.455 81.2029 111.82 81.5203C112.184 81.8377 112.614 82.0717 113.078 82.2061C113.776 82.3381 114.135 82.0688 114.103 82.0582C113.779 82.101 113.449 82.0831 113.131 82.0054C112.716 81.8467 112.338 81.6033 112.021 81.2905C111.705 80.9778 111.457 80.6026 111.294 80.1889C111.024 79.6608 110.766 79.0747 110.396 78.4674C109.973 77.8382 109.454 77.2788 108.859 76.8092C107.655 75.7901 106.103 74.998 104.915 73.7411C104.625 73.438 104.369 73.1032 104.154 72.7431C103.959 72.4051 103.943 72.0408 104.154 71.9827C104.365 71.9246 104.767 72.0513 105.136 72.2097L106.235 72.6639L110.053 74.2111C111.146 74.6389 112.033 74.9821 112.645 75.2092C112.958 75.3529 113.288 75.4524 113.628 75.5049V75.5049Z" fill="#FFC3BD"/>
<path d="M104.297 70.3774C104.178 69.787 103.921 69.2333 103.547 68.7615C103.118 68.2822 102.545 67.9543 101.915 67.8268C101.129 67.6746 100.323 67.6461 99.5281 67.7423C98.7063 67.8418 97.8765 67.8577 97.0514 67.7898C96.3579 67.724 95.6935 67.4783 95.124 67.0769C94.9324 66.9321 94.7763 66.7456 94.6674 66.5315C94.5586 66.3174 94.4998 66.0814 94.4956 65.8413C94.484 65.6696 94.5245 65.4985 94.6118 65.3502C94.6434 65.3502 94.6118 65.5297 94.6118 65.836C94.6355 66.0484 94.7054 66.253 94.8167 66.4355C94.928 66.618 95.078 66.7738 95.256 66.8921C95.801 67.2373 96.4236 67.4406 97.0673 67.4836C97.8724 67.5316 98.6803 67.5051 99.4806 67.4043C100.313 67.3065 101.155 67.3493 101.973 67.5311C102.66 67.6878 103.273 68.071 103.716 68.6189C104.004 68.9866 104.197 69.4204 104.275 69.881C104.324 70.042 104.332 70.2128 104.297 70.3774V70.3774Z" fill="#FFC3BD"/>
<path d="M106.905 57.8356C107.025 58.4042 107.095 58.9819 107.117 59.5624C107.227 60.7506 107.365 62.1658 107.518 63.7289C107.671 65.292 107.851 66.7019 107.983 67.8901C108.084 68.4619 108.136 69.0414 108.136 69.6222C107.94 69.074 107.807 68.5053 107.74 67.9271C107.555 66.8709 107.344 65.3976 107.175 63.7659C107.006 62.1341 106.905 60.6502 106.868 59.5783C106.816 58.9978 106.828 58.4133 106.905 57.8356V57.8356Z" fill="#FFC3BD"/>
<path d="M102.544 72.5477C102.363 72.5209 102.186 72.4731 102.016 72.4051C101.8 72.3184 101.567 72.2806 101.334 72.2943C101.101 72.308 100.874 72.3729 100.669 72.4843C100.546 72.5691 100.446 72.685 100.381 72.8204C100.317 72.9557 100.288 73.1057 100.3 73.2553C100.319 73.6338 100.386 74.0083 100.5 74.3696C100.652 74.8222 100.631 75.3148 100.442 75.7531C100.314 75.981 100.134 76.1754 99.9167 76.3204C99.6992 76.4654 99.4505 76.5569 99.1909 76.5875C98.9356 76.6136 98.6776 76.5878 98.4326 76.5115C98.1876 76.4353 97.9605 76.3102 97.7651 76.1439C97.4021 75.8472 97.1341 75.4507 96.9941 75.0033C96.8168 74.2745 96.7475 73.5237 96.7882 72.7748C96.7972 72.2687 96.8955 71.7681 97.0786 71.2962C97.1373 71.1167 97.2431 70.9562 97.3849 70.8315C97.3849 70.8315 97.3004 71.011 97.2053 71.3596C97.0816 71.8298 97.0247 72.3151 97.0364 72.8012C97.0301 73.5139 97.1189 74.2243 97.3004 74.9135C97.4187 75.3084 97.6639 75.6533 97.998 75.8949C98.3321 76.1364 98.7365 76.261 99.1486 76.2495C99.3528 76.2246 99.5486 76.1531 99.7207 76.0405C99.8929 75.9278 100.037 75.7771 100.141 75.6C100.295 75.2344 100.312 74.8258 100.189 74.4488C100.079 74.0585 100.02 73.6555 100.015 73.2501C100.011 73.0569 100.058 72.8662 100.15 72.6967C100.243 72.5272 100.378 72.3848 100.543 72.2837C100.777 72.1636 101.037 72.1011 101.301 72.1011C101.564 72.1011 101.824 72.1636 102.058 72.2837C102.391 72.421 102.576 72.5266 102.544 72.5477Z" fill="#FFC3BD"/>
<path d="M97.8857 75.864C97.8857 75.864 97.9702 76.0382 97.8857 76.3604C97.8208 76.5866 97.7046 76.7947 97.5461 76.9687C97.3877 77.1427 97.1913 77.2779 96.9722 77.3637C96.6386 77.4759 96.2816 77.4993 95.9363 77.4317C95.5909 77.3642 95.2691 77.2079 95.0025 76.9782C94.3693 76.4136 93.9779 75.627 93.9094 74.7814C93.8187 73.9489 93.9904 73.1089 94.4005 72.3787C94.7381 71.7892 95.2289 71.302 95.821 70.9688C96.2104 70.7425 96.6383 70.5904 97.0831 70.5199C97.2445 70.4813 97.4127 70.4813 97.5742 70.5199C97.0043 70.6643 96.457 70.8864 95.9477 71.18C95.3563 71.5536 94.8831 72.0874 94.5831 72.7193C94.283 73.3512 94.1684 74.0553 94.2526 74.7498C94.3126 75.5091 94.6533 76.2189 95.2084 76.7406C95.4323 76.9427 95.7036 77.085 95.9972 77.1543C96.2908 77.2235 96.5971 77.2174 96.8877 77.1366C97.0823 77.0707 97.2607 76.9641 97.411 76.8239C97.5612 76.6837 97.6798 76.5131 97.759 76.3234C97.8699 76.0435 97.854 75.864 97.8857 75.864Z" fill="#FFC3BD"/>
<path d="M104.502 81.0338C104.764 80.9222 105.054 80.8946 105.332 80.9546C106.057 81.0302 106.736 81.3483 107.259 81.8576L106.979 81.9738C106.974 81.5784 106.997 81.1831 107.048 80.7909C107.307 78.4991 108.384 76.9096 108.447 76.9677C108.511 77.0258 107.639 78.6258 107.391 80.8332C107.345 81.2118 107.318 81.5925 107.312 81.9738V82.3699L107.037 82.09C106.564 81.6191 105.964 81.2962 105.31 81.1606C104.809 81.0708 104.502 81.0708 104.502 81.0338Z" fill="#FFC3BD"/>
<path d="M102.744 66.2478C102.829 66.2795 102.559 66.9396 101.831 67.3462C101.102 67.7528 100.405 67.6578 100.421 67.568C100.437 67.4782 101.033 67.4096 101.662 67.0399C102.29 66.6703 102.654 66.195 102.744 66.2478Z" fill="#FFC3BD"/>
<path d="M140.935 66.2426C140.935 66.2426 140.739 66.4538 140.407 66.8604C139.879 67.4331 139.464 68.0994 139.181 68.8248C139.097 69.0717 139.051 69.3298 139.044 69.5905C139.045 69.8687 139.114 70.1425 139.245 70.3879C139.605 70.9299 140.143 71.3296 140.766 71.518C142.328 72.0081 143.96 72.2383 145.597 72.1992C146.506 72.1992 147.488 72.252 148.491 72.3101L150.028 72.4896C150.556 72.5477 151.084 72.6903 151.612 72.7853C153.904 73.2533 156.067 74.2156 157.949 75.6052C158.975 76.3706 159.867 77.3002 160.589 78.3565C160.771 78.633 160.938 78.9185 161.091 79.212C161.244 79.5235 161.35 79.8245 161.477 80.1308C161.712 80.7555 161.889 81.4008 162.005 82.0583C162.536 84.826 162.098 87.6922 160.764 90.1747C159.385 92.6384 157.171 94.5282 154.522 95.5029C153.277 95.97 151.964 96.2305 150.635 96.2739C149.368 96.281 148.105 96.1284 146.875 95.8198C145.741 95.5279 144.587 95.3214 143.422 95.2019C142.345 95.0981 141.261 95.2898 140.285 95.7564C139.388 96.2378 138.591 96.8846 137.935 97.6628C137.275 98.4021 136.715 99.1783 136.161 99.9123C135.068 101.386 133.906 102.685 132.554 103.366C131.934 103.698 131.245 103.879 130.542 103.894C129.955 103.901 129.372 103.793 128.826 103.577C128.391 103.404 127.992 103.151 127.648 102.833C127.402 102.593 127.201 102.31 127.057 101.998C126.933 101.745 126.87 101.467 126.872 101.185C126.909 101.185 126.92 101.475 127.157 101.951C127.314 102.236 127.517 102.493 127.759 102.711C128.096 103 128.483 103.225 128.9 103.376C129.471 103.587 130.08 103.672 130.687 103.623C131.293 103.575 131.882 103.395 132.412 103.097C133.679 102.426 134.783 101.164 135.849 99.6853C136.377 98.946 136.948 98.1539 137.618 97.3829C138.296 96.5478 139.128 95.8505 140.069 95.3287C141.115 94.8148 142.282 94.5958 143.443 94.695C144.634 94.8104 145.815 95.0134 146.976 95.3023C148.164 95.5961 149.385 95.7398 150.609 95.73C151.873 95.6784 153.121 95.4252 154.305 94.9801C156.83 94.0428 158.94 92.2386 160.257 89.8896C161.53 87.5181 161.951 84.7819 161.45 82.1375C161.328 81.5089 161.152 80.8922 160.922 80.2945C160.795 79.9988 160.69 79.6925 160.558 79.4285C160.419 79.1517 160.264 78.8836 160.093 78.6258C159.411 77.616 158.569 76.7242 157.601 75.9854C155.779 74.6278 153.686 73.6803 151.464 73.2078C150.936 73.1075 150.408 72.9649 149.917 72.9068L148.407 72.7114C147.414 72.6428 146.464 72.6005 145.539 72.5688C143.863 72.5832 142.196 72.3173 140.607 71.782C139.946 71.5525 139.383 71.1034 139.012 70.5094C138.867 70.2236 138.796 69.9057 138.806 69.5852C138.821 69.3015 138.88 69.0217 138.981 68.7562C139.29 68.0141 139.748 67.3437 140.327 66.7865C140.503 66.5776 140.708 66.3945 140.935 66.2426Z" fill="#FAFAFA"/>
<path d="M181.104 101.454C180.959 101.074 180.874 100.673 180.851 100.266C180.733 99.1582 180.806 98.0383 181.067 96.9551C181.455 95.3415 182.152 93.8188 183.122 92.4718C184.301 90.8188 185.809 89.4273 187.552 88.3846C189.305 87.3785 191.21 86.665 193.192 86.2723C194.799 85.9405 196.436 85.7724 198.077 85.7706C199.177 85.7585 200.278 85.8131 201.372 85.9343C201.775 85.9507 202.175 86.0218 202.56 86.1455C202.56 86.2406 200.844 86.0505 198.082 86.1455C196.472 86.205 194.87 86.4101 193.297 86.7581C191.377 87.1755 189.534 87.8881 187.832 88.8704C186.151 89.8756 184.688 91.2059 183.528 92.7834C182.576 94.0681 181.87 95.5185 181.448 97.0607C181.162 98.1027 181.032 99.181 181.062 100.261C181.106 100.657 181.12 101.056 181.104 101.454V101.454Z" fill="#FAFAFA"/>
<path d="M209.958 110.643C209.797 110.981 209.587 111.295 209.335 111.572C208.706 112.369 207.998 113.099 207.223 113.753C206.066 114.733 204.786 115.557 203.415 116.203C200.033 117.83 196.209 118.292 192.537 117.518C191.05 117.216 189.61 116.719 188.254 116.04C187.341 115.591 186.476 115.051 185.672 114.429C185.36 114.221 185.082 113.966 184.848 113.674C184.912 113.589 186.116 114.64 188.423 115.691C191.417 117.081 194.74 117.608 198.017 117.212C201.295 116.817 204.397 115.515 206.974 113.452C208.955 111.873 209.873 110.564 209.958 110.643Z" fill="#FAFAFA"/>
<path d="M183.433 108.942C183.28 109.027 183.119 109.094 182.952 109.143C182.5 109.327 182.088 109.6 181.743 109.946C181.213 110.509 180.801 111.171 180.528 111.894C180.16 112.859 179.874 113.854 179.673 114.867C179.456 116.114 179.17 117.348 178.817 118.564C178.595 119.255 178.288 119.917 177.904 120.533C177.478 121.181 176.959 121.761 176.362 122.255C175.074 123.28 173.589 124.029 172 124.457C170.374 124.943 168.652 125.207 166.92 125.545C163.661 126.082 160.571 127.369 157.895 129.305C156.75 130.163 155.736 131.184 154.885 132.336C154.161 133.352 153.583 134.465 153.169 135.642C152.559 137.353 152.367 139.185 152.609 140.986C152.799 142.258 153.09 142.924 153.032 142.945C152.938 142.796 152.864 142.637 152.81 142.47C152.728 142.274 152.66 142.072 152.604 141.868C152.519 141.59 152.45 141.308 152.398 141.023C152.068 139.184 152.206 137.291 152.799 135.52C153.201 134.295 153.777 133.133 154.51 132.072C155.374 130.871 156.41 129.803 157.584 128.903C160.309 126.893 163.473 125.557 166.814 125.006C168.562 124.663 170.268 124.404 171.847 123.95C173.371 123.55 174.797 122.844 176.04 121.875C176.602 121.422 177.093 120.888 177.497 120.291C177.867 119.713 178.165 119.092 178.384 118.442C178.751 117.239 179.054 116.018 179.293 114.783C179.516 113.75 179.833 112.739 180.238 111.762C180.548 111.015 181.01 110.34 181.595 109.782C181.969 109.431 182.419 109.173 182.91 109.027C183.078 108.97 183.255 108.941 183.433 108.942Z" fill="#FAFAFA"/>
<path d="M169.286 106.74C169.469 107.072 169.563 107.444 169.561 107.823C169.614 108.863 169.316 109.891 168.716 110.743C168.312 111.344 167.768 111.839 167.132 112.185C166.773 112.381 166.387 112.521 165.986 112.602C165.561 112.681 165.127 112.698 164.698 112.655C163.774 112.554 162.897 112.2 162.163 111.63C161.357 111.021 160.78 110.158 160.526 109.18C160.364 108.543 160.355 107.877 160.499 107.237C160.655 106.628 160.944 106.062 161.344 105.579C161.686 105.12 162.074 104.697 162.501 104.316C162.707 104.127 162.931 103.959 163.171 103.815C163.419 103.65 163.704 103.55 164 103.524L164.069 103.994L163.81 104.058L163.678 103.604C164.639 103.331 165.663 103.387 166.588 103.762C167.294 104.033 167.924 104.469 168.426 105.035C168.747 105.391 169.001 105.802 169.176 106.249C169.286 106.561 169.313 106.735 169.292 106.74C169.005 106.193 168.65 105.683 168.236 105.225C167.735 104.731 167.131 104.356 166.467 104.126C165.617 103.818 164.69 103.794 163.826 104.058L163.694 103.604L163.953 103.53L164.027 104.005C163.574 104.113 163.163 104.352 162.844 104.691C162.455 105.06 162.101 105.465 161.788 105.901C161.421 106.331 161.165 106.845 161.042 107.397C160.919 107.949 160.932 108.523 161.08 109.069C161.308 109.926 161.81 110.685 162.511 111.229C163.167 111.74 163.947 112.067 164.771 112.174C165.153 112.218 165.538 112.21 165.917 112.148C166.273 112.082 166.618 111.967 166.942 111.804C167.529 111.504 168.037 111.07 168.426 110.537C169.013 109.762 169.344 108.822 169.371 107.849C169.355 107.136 169.234 106.756 169.286 106.74Z" fill="#FAFAFA"/>
<path d="M135.21 89.5199C135.219 89.567 135.219 89.6154 135.21 89.6625C135.21 89.7681 135.21 89.9054 135.21 90.0744C135.21 90.4599 135.162 90.9932 135.131 91.6586C135.046 93.0421 134.967 95.0435 134.856 97.5149C134.65 102.463 134.444 109.296 134.286 116.853C134.127 124.41 134.027 131.248 133.953 136.196C133.916 138.657 133.885 140.653 133.863 142.063C133.863 142.734 133.837 143.267 133.832 143.647C133.832 143.816 133.832 143.953 133.832 144.064C133.839 144.112 133.839 144.16 133.832 144.207C133.824 144.16 133.824 144.111 133.832 144.064C133.832 143.953 133.832 143.816 133.832 143.647C133.832 143.262 133.832 142.728 133.832 142.063V136.201C133.832 131.248 133.922 124.41 134.085 116.848C134.249 109.286 134.476 102.458 134.735 97.5096C134.872 95.0382 134.983 93.0368 135.099 91.6586C135.152 90.9826 135.194 90.4493 135.226 90.0744C135.226 89.9054 135.258 89.7681 135.268 89.6572C135.243 89.6141 135.223 89.5679 135.21 89.5199V89.5199Z" fill="#263238"/>
<g opacity="0.2">
<path opacity="0.2" d="M125.119 138.594C128.065 140.003 131.915 137.294 133.42 134.401C133.42 134.401 134.207 128.011 134.101 124.748C133.895 118.706 134.339 112.723 134.133 106.682C133.67 110.299 132.174 113.706 129.824 116.494C129.174 117.259 128.445 118.02 128.203 118.992C127.77 120.734 129.1 123.866 129.956 125.445C132.596 130.271 126.84 138.646 125.309 138.472" fill="black"/>
</g>
<g opacity="0.2">
<path opacity="0.2" d="M180.265 99.173C181.226 111.213 182.191 123.255 183.159 135.298C183.187 136.44 183.401 137.569 183.793 138.641C183.993 139.177 184.318 139.657 184.74 140.043C185.162 140.428 185.67 140.708 186.222 140.859C187.933 141.207 189.596 139.734 190.077 138.055C190.557 136.376 190.177 134.585 189.755 132.89C189.036 130.002 188.228 127.14 187.415 124.278C185.06 115.969 182.703 107.663 180.344 99.3579" fill="black"/>
</g>
<path d="M147.165 160.846C147.53 160.252 147.802 159.606 147.973 158.93C148.269 157.625 148.084 155.608 147.07 153.427C146.574 152.334 145.871 151.199 145.164 149.952C144.355 148.629 143.753 147.19 143.379 145.686C143.064 143.978 143.191 142.218 143.749 140.574C144.277 138.873 145.042 137.221 145.66 135.488C146.9 132.25 146.993 128.685 145.924 125.386C145.464 123.958 144.789 122.609 143.923 121.384C143.158 120.32 142.262 119.356 141.256 118.516C139.783 117.303 138.104 116.365 136.298 115.749C135.014 115.321 134.264 115.221 134.275 115.158C134.452 115.147 134.63 115.163 134.803 115.205C135.323 115.281 135.837 115.395 136.34 115.549C138.207 116.088 139.952 116.985 141.478 118.189C142.532 119.029 143.471 120.004 144.271 121.088C145.181 122.343 145.894 123.731 146.384 125.202C147.516 128.606 147.434 132.297 146.151 135.647C145.518 137.411 144.747 139.053 144.24 140.706C143.699 142.262 143.564 143.931 143.849 145.553C144.196 147.015 144.766 148.415 145.539 149.704C146.22 150.956 146.912 152.107 147.403 153.242C148.396 155.508 148.533 157.615 148.153 158.956C148.012 159.469 147.793 159.957 147.503 160.403C147.308 160.72 147.181 160.857 147.165 160.846Z" fill="#FAFAFA"/>
<path d="M196.741 73.9735C196.639 74.3578 196.459 74.7172 196.213 75.0297C195.613 75.9238 194.832 76.6828 193.921 77.2581C192.564 78.1145 191.017 78.6258 189.417 78.7473C187.47 78.8792 185.517 78.6299 183.666 78.0132C181.78 77.4647 180.056 76.4641 178.644 75.0983C178.038 74.4844 177.543 73.7696 177.181 72.986C176.875 72.2999 176.683 71.5687 176.611 70.8209C176.491 69.7381 176.697 68.6439 177.203 67.6789C177.28 67.53 177.368 67.387 177.467 67.2512C177.534 67.1466 177.612 67.0493 177.699 66.9607C177.831 66.8182 177.91 66.7442 177.926 66.7601C177.942 66.7759 177.688 67.1086 177.398 67.774C176.996 68.7212 176.861 69.7602 177.007 70.7787C177.097 71.4781 177.296 72.1589 177.599 72.7959C177.958 73.5199 178.437 74.1785 179.014 74.7445C180.38 76.0294 182.033 76.9707 183.835 77.4905C185.621 78.0881 187.504 78.3443 189.385 78.2456C190.914 78.1556 192.4 77.7051 193.721 76.9307C194.612 76.4055 195.399 75.7219 196.044 74.9135C196.26 74.5883 196.493 74.2746 196.741 73.9735Z" fill="#FAFAFA"/>
<path d="M189.511 130.778C189.511 130.778 189.485 130.731 189.453 130.63C189.421 130.53 189.374 130.371 189.316 130.187C189.2 129.78 189.031 129.21 188.814 128.481L187.019 122.181C185.519 116.842 183.46 109.507 181.21 101.375C180.08 97.3089 179.008 93.454 178.042 89.9107C177.554 88.2443 177.178 86.5472 176.917 84.8306C176.695 83.3267 176.695 81.7984 176.917 80.2945C177.232 78.0955 178.286 76.0692 179.906 74.5491C180.356 74.1549 180.855 73.8195 181.39 73.551L181.817 73.3715C181.863 73.346 181.913 73.3282 181.965 73.3187C181.242 73.6579 180.572 74.0989 179.974 74.6283C178.409 76.1533 177.401 78.1599 177.112 80.3262C176.91 81.8114 176.926 83.3183 177.16 84.7989C177.428 86.5034 177.809 88.1881 178.3 89.842C179.283 93.3695 180.365 97.235 181.5 101.301C183.745 109.428 185.778 116.784 187.251 122.128C187.975 124.769 188.555 126.939 188.967 128.465C189.157 129.199 189.311 129.78 189.416 130.192C189.464 130.377 189.501 130.525 189.527 130.641C189.527 130.687 189.522 130.733 189.511 130.778Z" fill="#263238"/>
<path d="M168.003 13.8368C168.047 13.4614 168.047 13.0822 168.003 12.7068C167.843 11.6827 167.327 10.7479 166.546 10.0664C165.371 9.0735 163.856 8.57558 162.321 8.67758C160.594 8.67758 158.757 9.25846 156.856 9.89743C155.905 10.209 154.96 10.51 154.03 10.7159C153.133 10.9142 152.219 11.0256 151.3 11.0486C149.743 11.0892 148.19 10.8861 146.696 10.4466C145.694 10.145 144.729 9.73418 143.818 9.2215C143.568 9.08752 143.327 8.93942 143.094 8.77792C143.008 8.72796 142.928 8.66766 142.856 8.59837C142.856 8.59837 143.216 8.79904 143.87 9.12644C144.791 9.59686 145.757 9.97368 146.754 10.2512C148.23 10.6579 149.76 10.836 151.29 10.7793C152.192 10.7491 153.09 10.636 153.972 10.4413C154.886 10.2354 155.815 9.91327 156.771 9.62283C158.667 8.98386 160.542 8.40826 162.316 8.40826C163.903 8.32127 165.461 8.85965 166.657 9.90799C167.452 10.6213 167.962 11.5987 168.093 12.6592C168.156 13.0534 168.125 13.4567 168.003 13.8368V13.8368Z" fill="#455A64"/>
<path d="M175.269 29.6209C175.269 29.6209 175.216 29.5575 175.142 29.4255C175.068 29.2934 174.973 29.0928 174.852 28.8287C174.527 28.0832 174.279 27.3064 174.113 26.5105C173.859 25.3243 173.777 24.1079 173.87 22.8985C174.046 21.4339 174.325 19.9835 174.704 18.5578C175.072 17.1521 175.072 15.6755 174.704 14.2698C174.529 13.6676 174.224 13.1108 173.812 12.6381C173.444 12.2397 172.983 11.9385 172.47 11.7615C171.723 11.478 170.895 11.4989 170.163 11.8196C169.908 11.9611 169.669 12.1293 169.45 12.3213C169.616 12.0682 169.845 11.8626 170.115 11.7245C170.488 11.5393 170.894 11.4308 171.309 11.4054C171.725 11.38 172.141 11.4382 172.534 11.5767C173.084 11.7541 173.581 12.0663 173.981 12.485C174.422 12.9772 174.752 13.559 174.947 14.1906C175.331 15.6408 175.331 17.1657 174.947 18.6159C174.57 20.0305 174.286 21.4681 174.097 22.9196C173.997 24.1052 174.057 25.2988 174.276 26.4683C174.425 27.2584 174.642 28.0341 174.926 28.7865C175.153 29.3198 175.29 29.6103 175.269 29.6209Z" fill="#455A64"/>
<path d="M168.901 13.0817C168.89 12.957 168.89 12.8315 168.901 12.7068C168.901 12.4375 168.901 12.0836 168.944 11.6506C169.002 10.3422 168.856 9.03266 168.511 7.76932C168.251 6.91106 167.828 6.11122 167.264 5.41412C166.626 4.61185 165.75 4.03307 164.761 3.76126C163.655 3.50467 162.5 3.55211 161.419 3.89856C160.248 4.26791 159.125 4.77675 158.076 5.41412C157.011 6.05669 155.903 6.62484 154.76 7.1145C153.669 7.54015 152.513 7.77246 151.343 7.801C150.288 7.8277 149.235 7.6996 148.217 7.42079C147.335 7.16471 146.485 6.81045 145.682 6.36465C144.524 5.71084 143.504 4.83937 142.677 3.79822C142.45 3.51941 142.245 3.22273 142.065 2.91107C141.994 2.80827 141.934 2.69857 141.885 2.58366C141.972 2.67364 142.048 2.7728 142.112 2.87937C142.307 3.17743 142.522 3.46152 142.757 3.72957C143.604 4.72619 144.626 5.56008 145.772 6.19038C146.567 6.61456 147.406 6.94929 148.275 7.18843C149.274 7.45055 150.305 7.56792 151.338 7.53696C152.476 7.50268 153.6 7.27223 154.659 6.85576C155.789 6.36532 156.885 5.79899 157.939 5.16064C159.009 4.51617 160.152 4.00205 161.345 3.62924C162.472 3.27497 163.674 3.23119 164.825 3.5025C165.862 3.79346 166.778 4.4099 167.439 5.26098C168.017 5.98384 168.444 6.81519 168.695 7.70595C169.034 8.98798 169.154 10.3181 169.049 11.6401C169.023 12.1101 168.986 12.4691 168.954 12.6962C168.953 12.8264 168.935 12.956 168.901 13.0817V13.0817Z" fill="#455A64"/>
<path d="M154.955 145.126L194.46 139.238L193.826 135.721H215.054L215.672 141.128C216.125 143.478 216.056 145.899 215.469 148.22C214.883 150.54 213.794 152.703 212.279 154.556C210.764 156.409 208.861 157.907 206.703 158.943C204.545 159.978 202.186 160.527 199.793 160.551L153.735 160.023L154.955 145.126Z" fill="#FFC3BD"/>
<path d="M157.806 145.807C157.595 145.876 154.933 144.682 152.552 143.579C150.023 142.403 147.247 141.86 144.462 141.994L133.483 142.554C133.483 142.554 134.159 144.365 135.326 145.01C136.493 145.654 143.316 145.791 143.316 145.791L142.962 146.15C141.525 147.631 139.565 148.49 137.502 148.542L136.446 148.569C135.667 148.507 134.898 148.356 134.154 148.12L131.445 147.027C130.626 146.657 129.76 146.715 129.401 147.555C129.079 148.299 129.317 149.329 131.556 150.454C132.802 151.082 137.438 152.688 137.438 152.688C137.468 153.346 137.559 154 137.708 154.642C137.908 155.318 139.73 155.988 139.73 155.988C140.203 156.992 140.743 157.962 141.346 158.893C141.557 159.13 143.21 159.642 144.963 160.139C147.795 160.935 150.795 160.911 153.613 160.07L157.801 158.824V146.082" fill="#FFC3BD"/>
<path d="M142.783 154.129C140.849 154.079 138.952 153.58 137.244 152.672C137.275 152.598 138.474 153.063 140 153.459C141.526 153.855 142.794 154.05 142.783 154.129Z" fill="#FFC3BD"/>
<path d="M142.397 156.701C141.883 156.812 141.348 156.774 140.855 156.59C140.337 156.496 139.856 156.258 139.466 155.904C139.963 156.009 140.452 156.15 140.929 156.326C141.427 156.416 141.917 156.541 142.397 156.701V156.701Z" fill="#FFC3BD"/>
<path d="M204.878 148.447C204.825 148.447 204.567 147.682 203.933 146.525C203.562 145.849 203.138 145.203 202.666 144.592C202.088 143.847 201.446 143.152 200.749 142.517C200.041 141.893 199.281 141.329 198.478 140.832C197.821 140.429 197.134 140.076 196.424 139.776C195.204 139.275 194.396 139.095 194.412 139.042C194.608 139.058 194.801 139.097 194.987 139.159C195.209 139.202 195.428 139.26 195.642 139.333C195.896 139.412 196.17 139.491 196.498 139.618C197.23 139.894 197.937 140.233 198.61 140.632C199.435 141.124 200.213 141.692 200.934 142.327C201.641 142.972 202.289 143.679 202.872 144.439C203.339 145.068 203.75 145.736 204.102 146.435C204.266 146.726 204.371 147.011 204.482 147.254C204.575 147.46 204.654 147.671 204.72 147.888C204.796 148.067 204.849 148.255 204.878 148.447V148.447Z" fill="#FFC3BD"/>
<path d="M144.403 144.82C144.16 145.155 143.876 145.458 143.558 145.722C142.829 146.411 142.027 147.018 141.166 147.534C140.295 148.041 139.348 148.406 138.362 148.616C137.96 148.726 137.543 148.77 137.126 148.748C137.1 148.648 139.027 148.474 141.023 147.296C141.87 146.788 142.673 146.213 143.426 145.575C143.727 145.292 144.054 145.039 144.403 144.82V144.82Z" fill="#FFC3BD"/>
<path d="M30.8011 132.294C31.7411 132.294 23.6088 154.145 21.5124 159.727C21.28 160.345 21.1216 160.889 21.1216 160.889L78.0582 160.984L77.3875 108.002C77.3899 107.967 77.3899 107.932 77.3875 107.897L72.6349 70.0024C72.6114 69.8187 72.5343 69.6461 72.4131 69.5061C72.2919 69.3661 72.1321 69.265 71.9537 69.2156C69.6988 68.6083 61.5718 66.5118 55.3564 66.2795C48.0743 66.0102 37.534 67.4571 37.534 67.4571C37.534 67.4571 28.0657 68.3971 22.8378 70.2981C22.6357 70.3703 22.4648 70.5102 22.3541 70.694C22.2434 70.8779 22.1997 71.0943 22.2305 71.3067L30.8011 132.294Z" fill="#FF725E"/>
<path d="M57.0928 108.794C57.0203 109.034 56.9248 109.265 56.8077 109.486C56.6914 109.754 56.5573 110.013 56.4063 110.262C56.2238 110.602 56.0228 110.932 55.8043 111.25C55.548 111.644 55.2695 112.023 54.97 112.385C54.6407 112.808 54.2881 113.212 53.9138 113.595C53.0439 114.471 52.0887 115.258 51.0622 115.945C50.0209 116.61 48.9173 117.172 47.7671 117.624C47.239 117.809 46.7109 117.999 46.2304 118.12C45.7789 118.248 45.3205 118.35 44.8574 118.426C44.4785 118.499 44.096 118.552 43.7115 118.585C43.421 118.625 43.1281 118.644 42.8349 118.643C42.5875 118.67 42.3378 118.67 42.0903 118.643C42.0903 118.585 43.1465 118.59 44.8205 118.252C45.2748 118.163 45.7242 118.05 46.167 117.914C46.6529 117.787 47.1492 117.592 47.672 117.386C48.8009 116.93 49.8846 116.37 50.9091 115.712C51.9215 115.038 52.8675 114.269 53.7343 113.415C54.1198 113.008 54.5 112.634 54.7904 112.237C55.0937 111.887 55.3775 111.52 55.6406 111.139C56.6334 109.75 57.04 108.768 57.0928 108.794Z" fill="#263238"/>
<g opacity="0.2">
<path opacity="0.2" d="M23.0537 155.582C25.7219 156.675 28.6272 157.062 31.4886 156.704C34.3499 156.346 37.0704 155.255 39.3869 153.538C41.4411 152.049 43.1626 150.1 45.3805 148.859C48.4539 147.148 52.1134 146.985 55.6251 146.747C60.3196 146.409 65.0564 145.833 69.4711 144.196C70.3922 143.927 71.2275 143.423 71.895 142.734C72.5022 142 72.7082 140.843 72.1115 140.093C71.5147 139.343 70.3794 139.291 69.4025 139.322C54.6799 139.755 41.2246 140.933 26.8928 144.339" fill="black"/>
</g>
<path d="M38.9219 11.7668C43.4738 7.1303 50.6556 4.37377 56.6017 7.01412C60.6045 8.76732 63.3187 12.5219 66.8304 15.1147C69.3863 17.0052 72.5441 18.468 73.8854 21.3512C75.0683 23.8913 74.498 26.8537 74.2128 29.6419C73.9277 32.4302 74.1283 35.6461 76.2882 37.4363C77.4182 38.3709 78.9285 38.7459 80.1906 39.4746C82.7623 40.9479 84.2884 43.8154 84.8376 46.725C85.3868 49.6347 85.0911 52.6341 84.7954 55.586L72.5389 57.9201L70.5269 54.5352L69.8351 59.8423L54.1937 61.2522L38.9219 11.7668Z" fill="#263238"/>
<path d="M36.8999 16.8257V20.2317L35.9335 71.3542C35.8491 77.2792 41.5205 82.3223 47.8679 82.3645C54.2734 82.4068 56.8874 77.6119 57.0722 71.6077C57.2623 65.3289 57.6003 58.7175 57.6003 58.7175C57.6003 58.7175 65.7273 57.598 67.697 47.1C68.6739 41.8721 68.6475 33.2592 68.3993 26.2095C68.3468 24.7052 67.9905 23.2271 67.3519 21.8641C66.7132 20.5011 65.8054 19.2815 64.683 18.2785C63.5607 17.2755 62.247 16.51 60.8211 16.028C59.3951 15.546 57.8864 15.3575 56.3857 15.4738L36.8999 16.8257Z" fill="#FFBE9D"/>
<path d="M65.568 32.9846C65.5625 33.3372 65.4189 33.6735 65.1681 33.9213C64.9173 34.1692 64.5793 34.3088 64.2267 34.3101C64.0542 34.3193 63.8815 34.2939 63.719 34.2354C63.5565 34.1768 63.4073 34.0863 63.2803 33.9691C63.1533 33.852 63.0511 33.7106 62.9796 33.5533C62.9082 33.396 62.8689 33.226 62.8643 33.0533C62.8711 32.7007 63.0149 32.3646 63.2653 32.1162C63.5157 31.8678 63.8529 31.7266 64.2056 31.7226C64.3785 31.7133 64.5516 31.7389 64.7144 31.7978C64.8773 31.8567 65.0267 31.9477 65.1538 32.0654C65.2808 32.1831 65.383 32.3251 65.4541 32.483C65.5253 32.6409 65.564 32.8115 65.568 32.9846Z" fill="#263238"/>
<path d="M66.366 30.6189C66.1918 30.7931 65.1885 30.001 63.7257 29.9693C62.2629 29.9376 61.1804 30.6294 61.0273 30.4446C60.9533 30.3654 61.1329 30.0538 61.6081 29.7264C62.249 29.304 63.0063 29.0934 63.7732 29.1244C64.5386 29.137 65.2794 29.3962 65.8855 29.8637C66.308 30.2175 66.4505 30.5396 66.366 30.6189Z" fill="#263238"/>
<path d="M51.2154 32.9846C51.2086 33.3368 51.0646 33.6723 50.8141 33.9198C50.5635 34.1674 50.2263 34.3074 49.8741 34.3101C49.7016 34.3193 49.529 34.2939 49.3665 34.2354C49.2039 34.1768 49.0548 34.0863 48.9278 33.9691C48.8008 33.852 48.6986 33.7106 48.6271 33.5533C48.5556 33.396 48.5164 33.226 48.5117 33.0533C48.5186 32.7007 48.6624 32.3646 48.9128 32.1162C49.1631 31.8678 49.5004 31.7266 49.853 31.7226C50.026 31.7133 50.199 31.7389 50.3619 31.7978C50.5248 31.8567 50.6742 31.9477 50.8012 32.0654C50.9283 32.1831 51.0304 32.3251 51.1016 32.483C51.1727 32.6409 51.2115 32.8115 51.2154 32.9846Z" fill="#263238"/>
<path d="M52.0335 30.4974C51.8593 30.6664 50.8559 29.8796 49.3932 29.8426C47.9304 29.8056 46.8479 30.508 46.6948 30.3231C46.6208 30.2439 46.8004 29.9271 47.2756 29.605C47.9168 29.1826 48.6735 28.9704 49.4407 28.9977C50.2058 29.0117 50.9462 29.2708 51.553 29.737C51.9755 30.0961 52.118 30.4182 52.0335 30.4974Z" fill="#263238"/>
<path d="M57.0239 41.4654C57.0239 41.3809 57.9321 41.2489 59.4002 41.101C59.7751 41.0746 60.1289 41.0113 60.1976 40.7578C60.2408 40.3747 60.1652 39.9875 59.981 39.6488C59.6589 38.7353 59.3157 37.7848 58.9566 36.7814C57.5414 32.71 56.5275 29.3885 56.6912 29.304C56.8549 29.2195 58.1381 32.5093 59.5533 36.586C59.8966 37.5894 60.224 38.5452 60.5302 39.464C60.7549 39.9175 60.8092 40.4366 60.6834 40.9268C60.6261 41.057 60.5396 41.1724 60.4306 41.2639C60.3217 41.3555 60.1932 41.4208 60.055 41.4548C59.8478 41.5063 59.6347 41.5294 59.4213 41.5235C57.9427 41.5499 57.0291 41.5288 57.0239 41.4654Z" fill="#263238"/>
<path d="M57.5581 58.7175C52.5842 58.6575 47.7248 57.2169 43.522 54.5563C43.522 54.5563 46.7485 61.9018 57.3469 61.2047L57.5581 58.7175Z" fill="#EB996E"/>
<path d="M56.311 44.9401C56.0441 44.5813 55.6904 44.2961 55.283 44.1114C54.8757 43.9266 54.4281 43.8484 53.9822 43.884C53.6599 43.9047 53.3451 43.9902 53.0565 44.1354C52.768 44.2806 52.5117 44.4824 52.303 44.7289C52.1025 44.9666 51.9794 45.2598 51.9501 45.5693C51.9209 45.8789 51.9869 46.19 52.1393 46.461C52.3683 46.7273 52.6712 46.9196 53.0096 47.0136C53.348 47.1076 53.7068 47.0991 54.0403 46.9891C54.7332 46.7634 55.3754 46.4047 55.9308 45.9329C56.0996 45.8213 56.2449 45.6778 56.3585 45.5105C56.4101 45.4321 56.4376 45.3403 56.4376 45.2464C56.4376 45.1526 56.4101 45.0608 56.3585 44.9824" fill="#EB996E"/>
<path d="M52.7102 42.3367C52.9478 42.3367 52.9056 43.921 54.2257 45.0722C55.5459 46.2234 57.241 46.1019 57.2463 46.3237C57.2463 46.424 56.8608 46.6247 56.1479 46.6194C55.2215 46.6095 54.3288 46.2707 53.629 45.6636C52.9556 45.083 52.5351 44.2627 52.4567 43.377C52.4092 42.7117 52.5993 42.3262 52.7102 42.3367Z" fill="#263238"/>
<path d="M52.4988 26.257C52.3404 26.6477 50.9146 26.4207 49.1772 26.5791C47.4399 26.7375 46.0669 27.1653 45.8504 26.8062C45.7553 26.6319 46.0035 26.2781 46.5738 25.8979C47.3312 25.4492 48.1806 25.1785 49.0579 25.1062C49.9352 25.0339 50.8175 25.162 51.638 25.4807C52.2559 25.75 52.5622 26.0721 52.4988 26.257Z" fill="#263238"/>
<path d="M66.4183 27.6775C66.0962 27.9996 64.8869 27.6194 63.4136 27.5613C61.9402 27.5032 60.6993 27.7092 60.4194 27.3554C60.2979 27.1864 60.5039 26.859 61.0584 26.5633C61.8206 26.1909 62.6678 26.0269 63.5139 26.088C64.3566 26.1158 65.1768 26.3673 65.8902 26.8167C66.3972 27.1706 66.5609 27.5191 66.4183 27.6775Z" fill="#263238"/>
<path d="M26.0055 69.3317C26.0055 69.3317 9.02272 73.3134 5.72756 89.3984C4.212 96.7914 2.09443 139.285 11.9905 145.902C24.7645 154.425 41.0344 146.673 41.0344 146.673L38.9221 126.12H28.3607L26.9402 103.604C27.3521 105.362 26.0055 69.3317 26.0055 69.3317Z" fill="#FF725E"/>
<path d="M86.4163 140.061C89.7475 139.72 92.8224 138.119 95.0123 135.585C97.2022 133.052 98.3416 129.778 98.1975 126.432L91.2587 96.9498C91.2587 96.9498 86.7595 71.6552 72.5386 69.374L77.3863 107.923L76.9216 116.05C76.9216 116.05 77.1433 121.426 77.6873 131.501L86.4163 140.061Z" fill="#FF725E"/>
<path d="M88.2548 121.616C87.3972 121.648 86.543 121.741 85.6989 121.896C83.6612 122.31 81.7942 123.325 80.339 124.81C78.8838 126.296 77.9071 128.183 77.5349 130.229C77.3969 131.078 77.321 131.935 77.3079 132.795C77.2523 132.567 77.2257 132.333 77.2287 132.098C77.2004 131.46 77.2393 130.821 77.3448 130.192C77.6824 128.091 78.6663 126.147 80.1598 124.631C81.6532 123.115 83.5819 122.101 85.6778 121.732C86.3064 121.616 86.945 121.563 87.5841 121.574C87.8086 121.56 88.0338 121.575 88.2548 121.616Z" fill="#263238"/>
<path d="M44.4403 10.5891C46.352 13.1556 47.2602 15.1253 48.4062 19.6931C48.9712 21.9268 47.1493 23.5058 45.3433 24.8735C45.1492 25.021 44.921 25.1173 44.6798 25.1534C44.4386 25.1896 44.1922 25.1644 43.9634 25.0802C43.7345 24.996 43.5305 24.8555 43.3702 24.6717C43.2099 24.4879 43.0985 24.2667 43.0462 24.0285V24.0285C43.0462 24.0285 43.6694 31.0255 41.1399 34.1622C39.957 35.6355 39.9042 37.5207 40.1841 39.1102C40.5015 40.7269 41.2875 42.2144 42.4442 43.3876C45.3803 46.4715 46.1935 51.5041 44.171 55.285C43.5851 56.2143 43.0475 57.1731 42.5604 58.1577C42.3141 58.7453 42.2005 59.38 42.2277 60.0166C42.2588 60.3901 42.1468 60.7614 41.9144 61.0555C41.6821 61.3496 41.3468 61.5445 40.9762 61.6008C32.286 62.8577 23.481 63.1216 14.7311 62.3876C14.4303 62.3634 14.1446 62.2454 13.9144 62.0503C13.6841 61.8551 13.521 61.5926 13.4479 61.2998C12.7614 58.3637 13.9073 55.1953 15.3701 52.5549C17.0071 49.5713 19.0666 46.7092 19.6527 43.3559C20.1808 40.1875 19.32 36.7973 20.5874 33.8507C22.1716 30.2439 26.3962 28.5383 28.5085 25.2273C30.5098 22.1064 30.3461 18.0138 32.1363 14.7715C34.4387 10.5997 40.0943 8.67753 44.4562 10.5839" fill="#263238"/>
<path d="M44.9261 14.4599C48.2477 16.1709 49.7844 20.2317 53.0109 22.1117C55.947 23.8226 59.6118 23.3737 62.9756 22.8668C62.8541 22.1222 62.7274 21.3724 62.6007 20.6278C62.9034 21.3018 63.3256 21.9155 63.8469 22.4391C64.1117 22.6974 64.4416 22.8791 64.8015 22.9646C65.1614 23.0502 65.5378 23.0365 65.8906 22.9249C67.0206 22.4707 67.1685 20.9182 66.8833 19.7565C66.3669 17.8657 65.353 16.1479 63.9473 14.782C61.4355 12.2328 58.0899 10.673 54.5225 10.3879C50.9551 10.1028 47.4043 11.1115 44.5195 13.2295" fill="#263238"/>
<path d="M76.0669 89.6307C76.0913 89.7684 76.1019 89.9082 76.0986 90.0479C76.0986 90.3436 76.0986 90.7397 76.1356 91.2361C76.1356 92.2922 76.2095 93.7655 76.2887 95.6085C76.4419 99.305 76.7851 104.396 77.2023 110.02C77.6195 115.644 77.931 120.745 78.0314 124.441C78.0842 126.289 78.1106 127.784 78.0947 128.819C78.0947 129.315 78.0947 129.711 78.0947 130.007C78.1073 130.146 78.1073 130.285 78.0947 130.424C78.0704 130.287 78.0598 130.147 78.063 130.007C78.063 129.711 78.063 129.315 78.0261 128.819C78.0261 127.763 77.9521 126.295 77.8729 124.446C77.7251 120.75 77.3765 115.665 76.9647 110.035C76.5528 104.406 76.2306 99.3156 76.1303 95.6191C76.0775 93.7708 76.0564 92.2711 76.0669 91.2361C76.0669 90.7397 76.0669 90.3436 76.0669 90.0479C76.0578 89.909 76.0578 89.7696 76.0669 89.6307V89.6307Z" fill="#263238"/>
<path d="M28.3766 126.126C28.3525 126.029 28.3401 125.93 28.3396 125.83C28.3396 125.603 28.3079 125.302 28.2815 124.98C28.2393 124.204 28.1812 123.153 28.1125 121.864C27.9594 119.224 27.7271 115.596 27.4525 111.577C27.1779 107.559 26.9244 103.963 26.7396 101.296C26.6551 100.013 26.5864 98.9565 26.5336 98.1802C26.5336 97.837 26.5019 97.5571 26.4914 97.3353C26.4788 97.2354 26.4788 97.1343 26.4914 97.0343C26.5172 97.1311 26.5331 97.2301 26.5389 97.3301C26.5389 97.5518 26.597 97.8317 26.634 98.175C26.7079 98.9459 26.8082 99.9968 26.9297 101.285C27.162 103.926 27.4577 107.543 27.7218 111.562C27.9858 115.58 28.197 119.219 28.2974 121.854C28.3449 123.174 28.3819 124.241 28.3871 124.975V125.825C28.3972 125.925 28.3936 126.026 28.3766 126.126V126.126Z" fill="#263238"/>
<path d="M28.3771 126.126C28.3771 126.173 27.849 126.2 26.9935 126.48C25.9111 126.838 24.9494 127.49 24.2156 128.362C23.4818 129.235 23.0048 130.294 22.8376 131.422C22.7056 132.288 22.7742 132.838 22.7267 132.843C22.6792 132.848 22.6739 132.711 22.6422 132.463C22.603 132.112 22.603 131.757 22.6422 131.406C22.7658 130.223 23.2402 129.103 24.0046 128.19C24.778 127.287 25.7986 126.63 26.9407 126.3C27.2856 126.204 27.6395 126.143 27.9969 126.12C28.2398 126.094 28.3771 126.105 28.3771 126.126Z" fill="#263238"/>
<path d="M41.0082 146.678C40.9748 146.572 40.9535 146.462 40.9448 146.351C40.9131 146.108 40.8761 145.796 40.8233 145.411C40.7283 144.561 40.5963 143.394 40.4326 141.957C40.121 139.011 39.6985 134.992 39.2338 130.556C39.0807 129.014 38.9276 127.52 38.7903 126.136L38.9223 126.258L30.4731 126.205L28.0176 126.168H27.3628C27.2874 126.177 27.2112 126.177 27.1357 126.168C27.2097 126.148 27.2862 126.139 27.3628 126.142H28.0176L30.4731 126.105L38.9223 126.057H39.0385V126.179L39.4926 130.593C39.9256 135.034 40.3164 139.042 40.6068 142.01C40.7336 143.446 40.8392 144.619 40.9131 145.469C40.9448 145.854 40.9659 146.171 40.987 146.414C41.0014 146.501 41.0085 146.59 41.0082 146.678V146.678Z" fill="#263238"/>
<path d="M41.0077 146.678C40.877 146.734 40.743 146.782 40.6063 146.821L39.4499 147.19C38.4412 147.507 36.9785 147.951 35.1514 148.437C33.0127 149.021 30.8399 149.473 28.6455 149.789C25.9409 150.154 23.1922 150.024 20.5344 149.403C19.1571 149.106 17.7992 148.725 16.4682 148.262C15.8293 148.03 15.2008 147.798 14.5936 147.544C14.2926 147.418 13.9916 147.296 13.7064 147.143L13.2734 146.926L12.8668 146.668C11.874 145.996 11.0116 145.15 10.3215 144.17C9.71438 143.327 9.18419 142.431 8.73727 141.493C8.10976 140.136 7.58033 138.737 7.15305 137.305C6.99463 136.777 6.87846 136.407 6.80981 136.138C6.76675 136.001 6.73322 135.862 6.70947 135.721C6.77261 135.85 6.82387 135.984 6.86261 136.122L7.25338 137.273C7.7219 138.684 8.27926 140.063 8.92209 141.403C9.37237 142.327 9.90245 143.211 10.5063 144.043C11.1878 144.994 12.0359 145.813 13.0094 146.462L13.4001 146.71L13.8173 146.921C14.0919 147.069 14.3929 147.185 14.6939 147.312C15.2959 147.56 15.919 147.792 16.558 148.014C17.8786 148.472 19.2259 148.85 20.5924 149.144C23.2205 149.758 25.9372 149.896 28.6138 149.551C30.8001 149.246 32.967 148.816 35.1038 148.262C36.931 147.798 38.399 147.381 39.4182 147.101L40.5905 146.779C40.7258 146.731 40.8656 146.697 41.0077 146.678Z" fill="#263238"/>
<path d="M32.0469 23.0992C32.5542 21.8528 32.6779 20.4835 32.4022 19.1664C32.1266 17.8493 31.4641 16.6445 30.4996 15.7062C29.5083 14.8001 28.2944 14.1732 26.9817 13.8893C25.669 13.6054 24.3046 13.6748 23.0274 14.0903C21.8641 14.4405 20.8417 15.1504 20.1072 16.1181C18.8134 17.9029 19.0511 20.5327 20.4029 22.2912C21.1102 23.1423 21.9909 23.8326 22.9862 24.3162C23.9815 24.7997 25.0686 25.0653 26.1747 25.0953C28.3914 25.1395 30.5896 24.6847 32.6066 23.7645" fill="#263238"/>
<path d="M49.6048 106.851C53.3013 109.898 61.9933 117.112 61.9933 117.112L66.8569 116.245L52.1132 103.841C51.7311 103.521 51.2415 103.359 50.7442 103.388C50.2468 103.416 49.779 103.633 49.4358 103.994V103.994C49.2496 104.188 49.1054 104.418 49.0124 104.67C48.9194 104.923 48.8796 105.191 48.8955 105.46C48.9114 105.728 48.9826 105.99 49.1046 106.23C49.2267 106.469 49.397 106.681 49.6048 106.851V106.851Z" fill="#455A64"/>
<path d="M49.2406 105.267L47.329 103.54C47.1492 103.377 47.0395 103.151 47.0227 102.909C47.006 102.667 47.0836 102.427 47.2392 102.241V102.241C47.321 102.145 47.4212 102.067 47.5338 102.011C47.6464 101.955 47.7691 101.922 47.8947 101.914C48.0202 101.906 48.1461 101.924 48.2648 101.965C48.3836 102.007 48.4927 102.072 48.5858 102.157L50.4288 103.846L49.2406 105.267Z" fill="#455A64"/>
<path d="M54.912 106.196C54.5883 106.735 54.1881 107.224 53.7239 107.649C53.324 108.133 52.8583 108.56 52.3403 108.916C52.6647 108.376 53.0648 107.885 53.5285 107.458C53.9258 106.973 54.3919 106.547 54.912 106.196V106.196Z" fill="#263238"/>
<path d="M55.0492 112.269C54.529 111.996 54.0357 111.674 53.5759 111.308C52.6993 110.674 51.5111 109.756 50.2596 108.668C49.6187 108.19 49.089 107.58 48.707 106.878C48.4368 106.263 48.4197 105.567 48.6595 104.94C48.8197 104.523 49.0898 104.158 49.4411 103.883C49.6893 103.699 49.853 103.64 49.8582 103.656C49.8635 103.672 49.7262 103.762 49.5097 103.968C49.2028 104.259 48.974 104.622 48.8443 105.024C48.6485 105.604 48.6825 106.237 48.9394 106.793C49.3205 107.452 49.8328 108.025 50.4444 108.478C51.6854 109.56 52.8471 110.5 53.6973 111.171C54.1703 111.508 54.6218 111.875 55.0492 112.269V112.269Z" fill="#263238"/>
<path d="M39.0859 127.768C42.5923 126.596 46.3099 127.388 49.8111 126.21C51.0131 125.894 52.1392 125.339 53.1221 124.578C54.2363 123.591 54.8013 122.139 55.6885 120.945C58.3288 117.376 63.2874 116.636 67.7127 116.193C68.7388 116.028 69.7859 116.042 70.8072 116.235C71.3177 116.338 71.793 116.571 72.187 116.911C72.5811 117.252 72.8807 117.688 73.0567 118.178C73.3419 119.176 72.6977 120.423 71.6626 120.528C72.6343 120.57 73.3102 121.553 73.4898 122.508C73.6693 123.464 73.4898 124.446 73.6376 125.408C73.8172 126.759 74.5565 128.021 74.5142 129.384C74.4561 131.248 72.93 132.785 71.1874 133.503C69.4447 134.221 67.5595 134.316 65.7166 134.559C56.6337 135.837 49.7688 140.986 41.0081 144.877" fill="#FFBE9D"/>
<path d="M73.5742 123.749C73.6635 123.895 73.7817 124.021 73.9216 124.119C74.0615 124.217 74.2201 124.285 74.3875 124.319C74.5549 124.353 74.7275 124.353 74.8946 124.317C75.0618 124.282 75.2198 124.213 75.3591 124.114C75.6302 123.898 75.8373 123.612 75.9583 123.288C76.0793 122.963 76.1094 122.611 76.0455 122.271C75.9073 121.59 75.6066 120.952 75.169 120.412C74.3975 119.413 73.5501 118.476 72.6342 117.608L69.8354 119.963L73.5742 123.749Z" fill="#FFBE9D"/>
<path d="M72.5387 120.676C72.5387 120.766 70.8172 120.623 68.7419 120.945C66.6666 121.267 65.0454 121.891 65.0454 121.811C65.3614 121.603 65.7067 121.443 66.0699 121.336C66.9272 121.032 67.8112 120.809 68.7102 120.671C69.6099 120.534 70.5208 120.487 71.4298 120.528C71.8046 120.524 72.1782 120.573 72.5387 120.676V120.676Z" fill="#EB996E"/>
<path d="M73.7742 126.179C73.7742 126.263 72.3326 125.967 70.553 126.02C68.7734 126.073 67.3581 126.422 67.3423 126.337C69.4151 125.603 71.6678 125.547 73.7742 126.179V126.179Z" fill="#EB996E"/>
<path d="M73.479 124.552C73.4315 124.552 73.479 124.14 73.3998 123.496C73.2983 122.66 73.0076 121.858 72.5496 121.151C72.4398 120.981 72.3199 120.817 72.1905 120.66L72.1113 120.56L72.1958 120.475C72.4368 120.231 72.6259 119.94 72.752 119.621C72.8782 119.301 72.9386 118.96 72.9298 118.617C72.9298 118.089 72.7714 117.793 72.8084 117.777C72.9971 118.012 73.1012 118.304 73.1041 118.606C73.1445 118.982 73.1011 119.362 72.9769 119.719C72.8527 120.076 72.6509 120.401 72.3859 120.671V120.486C72.5245 120.654 72.6532 120.831 72.7714 121.014C73.2537 121.757 73.534 122.612 73.5847 123.496C73.6265 123.851 73.5905 124.212 73.479 124.552V124.552Z" fill="#EB996E"/>
<path d="M73.5796 123.448L78.1844 127.768L78.7706 130.334L74.5143 129.373C73.9017 127.208 73.4529 125.143 73.5796 123.448Z" fill="#455A64"/>
<path d="M67.343 128.951C67.248 129.12 42.4814 141.329 42.4814 141.329V143.969L67.7549 130.82L99.1065 129.653V127.794L67.343 128.951Z" fill="#F5F5F5"/>
<path d="M42.4814 144.334C42.6557 144.217 69.8249 141.767 69.8249 141.767L99.1065 129.622L67.7549 130.804L42.4814 143.953V144.334Z" fill="#263238"/>
<path d="M68.4945 137.833C68.278 136.407 69.6404 135.193 71.0292 134.807C72.418 134.422 73.9019 134.58 75.3066 134.279C76.1979 134.034 77.0698 133.724 77.9153 133.35C82.2454 131.692 86.9981 131.602 91.6451 131.538C91.9151 132.168 91.9573 132.872 91.7646 133.529C91.5718 134.186 91.1561 134.756 90.589 135.14C90.9728 136.276 90.922 137.514 90.4464 138.615C89.9674 139.705 89.3127 140.709 88.5084 141.588C87.9012 142.392 87.1194 143.047 86.2218 143.505C85.2828 143.849 84.2848 144.003 83.2857 143.959C80.1701 144.022 76.8327 144.027 74.261 142.279C72.2596 140.917 70.8761 138.583 68.5578 137.896H69.0859" fill="#FFBE9D"/>
<path d="M89.2471 136.106C89.0532 136.15 88.8545 136.17 88.6557 136.164L87.0292 136.217C85.6563 136.249 83.7605 136.27 81.6693 136.281H78.7121C78.2696 136.287 77.829 136.221 77.4078 136.085C77.0317 135.952 76.7029 135.712 76.4626 135.393C76.3617 135.262 76.2882 135.111 76.2464 134.951C76.2047 134.79 76.1956 134.623 76.2196 134.459C76.2592 134.214 76.3736 133.987 76.547 133.809C76.6117 133.733 76.6929 133.673 76.7843 133.632C76.8758 133.592 76.9752 133.573 77.0751 133.577C76.8945 133.64 76.7316 133.745 76.5998 133.883C76.4305 134.076 76.3371 134.324 76.3371 134.58C76.3371 134.837 76.4305 135.084 76.5998 135.277C76.8235 135.553 77.1225 135.759 77.4606 135.869C77.8616 135.986 78.2786 136.039 78.6963 136.027H81.6482C83.7605 136.027 85.6351 136.027 87.0081 136.027L88.6346 136.059C88.84 136.048 89.0459 136.064 89.2471 136.106Z" fill="#EB996E"/>
<path d="M87.6519 138.715C87.4084 138.784 87.1592 138.832 86.9073 138.858C86.4215 138.937 85.7192 139.037 84.8478 139.122C83.8215 139.225 82.7886 139.247 81.7586 139.19C80.5006 139.088 79.2534 138.879 78.0305 138.567C75.8227 138.028 73.5595 137.75 71.287 137.738C70.4157 137.738 69.7028 137.77 69.2222 137.796C68.9675 137.818 68.7113 137.818 68.4565 137.796C68.7035 137.729 68.9564 137.687 69.2117 137.669C69.8987 137.585 70.5896 137.535 71.2817 137.522C73.5739 137.474 75.8625 137.728 78.0886 138.277C79.3024 138.586 80.5382 138.801 81.785 138.921C82.803 138.991 83.8246 138.991 84.8426 138.921C85.7139 138.863 86.4268 138.789 86.9021 138.747C87.1503 138.711 87.4015 138.7 87.6519 138.715V138.715Z" fill="#EB996E"/>
<path d="M85.0702 141.503C84.8797 141.561 84.6829 141.597 84.484 141.609C84.1091 141.662 83.5599 141.73 82.8998 141.788C81.1259 141.975 79.3348 141.916 77.5769 141.614C75.491 141.218 73.8804 140.151 72.6288 139.66C71.9538 139.386 71.2558 139.172 70.543 139.021C70.7404 138.997 70.9407 139.007 71.1344 139.053C71.6771 139.134 72.2087 139.278 72.7186 139.481C74.0124 139.94 75.623 140.959 77.6508 141.345C79.3947 141.639 81.1677 141.723 82.9315 141.593L84.5157 141.503C84.7 141.483 84.8859 141.483 85.0702 141.503V141.503Z" fill="#EB996E"/>
<g opacity="0.2">
<path opacity="0.2" d="M78.0469 127.324C78.2498 125.388 78.7708 123.499 79.5888 121.732C80.4164 119.966 81.8181 118.533 83.5652 117.666C84.4429 117.247 85.413 117.058 86.384 117.117C87.355 117.176 88.2949 117.481 89.1152 118.004C89.6106 118.323 89.9973 118.786 90.2242 119.329C90.335 119.601 90.3685 119.897 90.321 120.186C90.2734 120.475 90.1467 120.745 89.9549 120.966C89.374 121.59 88.3707 121.495 87.5363 121.452C85.589 121.399 83.6672 121.905 81.9985 122.91C80.3298 123.915 78.9841 125.377 78.1208 127.124" fill="black"/>
</g>
<g opacity="0.2">
<path opacity="0.2" d="M32.1888 125.719C34.3011 121.933 33.5407 117.185 31.9301 113.172C30.3195 109.159 27.9168 105.462 26.6863 101.312C26.4548 109.731 27.6785 118.128 30.3036 126.131" fill="black"/>
</g>
<path d="M35.9069 67.8056C35.9069 67.8056 38.468 73.8415 47.7092 73.456C56.9505 73.0705 57.2462 65.9046 57.2462 65.9046L63.4299 72.4791L57.5578 84.5772L49.6684 90.4651L38.9221 86.0505L30.0664 79.1855L35.9069 67.8056Z" fill="#FF725E"/>
<g opacity="0.5">
<path opacity="0.5" d="M14.2664 93.6071C14.3614 93.7233 13.1574 94.8533 11.5679 96.126C9.97845 97.3986 8.62131 98.3333 8.52626 98.2119C8.43121 98.0904 9.6352 96.9709 11.2194 95.6983C12.8036 94.4256 14.1713 93.4856 14.2664 93.6071Z" fill="#FAFAFA"/>
</g>
<path d="M18.6122 87.096C18.5647 87.2333 17.1072 86.8214 15.5283 85.8445C13.9493 84.8675 12.9196 83.7639 13.0199 83.6582C13.1202 83.5526 14.282 84.4451 15.8134 85.3798C17.3448 86.3145 18.6544 86.9482 18.6122 87.096Z" fill="#FAFAFA"/>
<path d="M26.5332 87.8036C26.6599 87.8987 25.477 89.5938 24.1621 91.7483C22.8472 93.9028 21.828 95.6983 21.6907 95.6296C21.5534 95.561 22.3403 93.6388 23.6974 91.4579C25.0546 89.277 26.4223 87.7086 26.5332 87.8036Z" fill="#FAFAFA"/>
<path d="M19.7535 106.154C19.6479 106.249 18.428 105.003 17.3613 103.16C16.2946 101.317 15.8088 99.643 15.9461 99.5955C16.0834 99.5479 16.7857 101.09 17.8366 102.88C18.8874 104.67 19.8749 106.048 19.7535 106.154Z" fill="#FAFAFA"/>
<path d="M12.6657 115.031C12.5178 115.031 12.2063 113.711 11.9792 112.032C11.7521 110.352 11.6888 108.974 11.8366 108.953C11.9845 108.932 12.2961 110.278 12.5231 111.958C12.7502 113.637 12.803 115.01 12.6657 115.031Z" fill="#FAFAFA"/>
<g opacity="0.5">
<path opacity="0.5" d="M19.3415 117.45C19.2095 117.376 19.8696 115.96 20.8571 114.281C21.8446 112.602 22.7159 111.319 22.8479 111.393C22.9799 111.466 22.3198 112.887 21.3323 114.561C20.3448 116.235 19.4735 117.508 19.3415 117.45Z" fill="#FAFAFA"/>
</g>
<path d="M11.5895 126.643C11.4786 126.744 10.301 125.587 9.15508 123.918C8.00917 122.25 7.35964 120.75 7.48638 120.671C7.61311 120.592 8.48443 121.97 9.59866 123.607C10.7129 125.244 11.7057 126.543 11.5895 126.643Z" fill="#FAFAFA"/>
<path d="M22.1239 125.128C22.2295 125.233 21.015 126.633 19.4149 128.249C17.8149 129.864 16.426 131.095 16.3151 130.989C16.2042 130.884 17.4188 129.484 19.0241 127.863C20.6295 126.242 22.013 125.022 22.1239 125.128Z" fill="#FAFAFA"/>
<g opacity="0.5">
<path opacity="0.5" d="M16.1359 144.101C16.0356 144.207 14.8633 143.235 13.7966 141.704C12.7299 140.172 12.2124 138.747 12.3391 138.689C12.4658 138.63 13.2104 139.914 14.2507 141.387C15.291 142.86 16.2468 143.99 16.1359 144.101Z" fill="#FAFAFA"/>
</g>
<path d="M29.7284 140.262C29.8023 140.394 28.5032 141.276 26.8292 142.232C25.1553 143.188 23.7295 143.858 23.6608 143.726C23.5922 143.594 24.8859 142.712 26.5599 141.757C28.2339 140.801 29.6544 140.13 29.7284 140.262Z" fill="#FAFAFA"/>
<path d="M35.0252 135.89C34.9301 136.001 33.6997 135.061 32.5802 133.524C31.4607 131.987 30.9379 130.53 31.0752 130.477C31.2125 130.424 31.9412 131.723 33.0238 133.202C34.1063 134.68 35.1361 135.774 35.0252 135.89Z" fill="#FAFAFA"/>
<path d="M44.3666 105.478C44.4617 105.6 43.0623 106.804 41.2457 108.161C39.4292 109.518 37.8872 110.521 37.7922 110.4C37.6971 110.278 39.1018 109.08 40.9183 107.722C42.7349 106.365 44.2769 105.362 44.3666 105.478Z" fill="#FAFAFA"/>
<path d="M34.523 104.834C34.3698 104.834 34.3962 103.371 34.5758 101.602C34.7553 99.8331 35.0246 98.4337 35.1778 98.4337C35.3309 98.4337 35.3045 99.8964 35.125 101.665C34.9454 103.435 34.6708 104.86 34.523 104.834Z" fill="#FAFAFA"/>
<g opacity="0.5">
<path opacity="0.5" d="M43.6011 92.4718C43.5166 92.5933 41.8796 91.5846 40.0842 90.048C38.2887 88.5113 37.0319 87.0591 37.1375 86.9587C37.2432 86.8584 38.6637 88.1152 40.4433 89.6308C42.2229 91.1463 43.6909 92.3451 43.6011 92.4718Z" fill="#FAFAFA"/>
</g>
<path d="M36.7836 77.0416C36.8998 77.1419 35.7275 78.6944 34.2066 80.511C32.6858 82.3275 31.3233 83.7164 31.2072 83.6213C31.091 83.5262 32.2633 81.9685 33.7842 80.1519C35.305 78.3353 36.6674 76.9465 36.7836 77.0416Z" fill="#FAFAFA"/>
<g opacity="0.5">
<path opacity="0.5" d="M28.9733 75.3887C28.8889 75.526 27.7113 74.9187 26.1746 74.4065C24.6379 73.8943 23.3652 73.6461 23.3652 73.4877C23.3652 73.3292 24.7593 73.3398 26.3647 73.8837C27.97 74.4276 29.0526 75.262 28.9733 75.3887Z" fill="#FAFAFA"/>
</g>
<path d="M48.8234 82.5018C48.6808 82.4595 48.929 81.1763 49.3832 79.6344C49.8373 78.0924 50.3231 76.8779 50.4393 76.9201C50.5555 76.9624 50.339 78.2456 49.9112 79.7875C49.4835 81.3295 48.9713 82.5493 48.8234 82.5018Z" fill="#FAFAFA"/>
<path d="M53.5706 94.658C53.4175 94.658 53.3647 93.3907 53.4545 91.8487C53.5442 90.3067 53.7396 89.0658 53.8875 89.071C54.0353 89.0763 54.0934 90.3384 54.0036 91.8804C53.9139 93.4223 53.7185 94.6686 53.5706 94.658Z" fill="#FAFAFA"/>
<path d="M61.3861 103.778C61.2911 103.899 60.1346 103.128 58.8039 102.056C57.4731 100.984 56.4698 100.023 56.5648 99.907C56.6599 99.7908 57.8164 100.557 59.1471 101.628C60.4778 102.7 61.4653 103.662 61.3861 103.778Z" fill="#FAFAFA"/>
<path d="M69.6819 91.046C69.7823 91.1569 68.7525 92.2341 67.3795 93.4434C66.0066 94.6527 64.8131 95.5557 64.7392 95.429C64.6653 95.3022 65.6686 94.2408 67.0416 93.0315C68.4146 91.8223 69.5816 90.9298 69.6819 91.046Z" fill="#FAFAFA"/>
<g opacity="0.5">
<path opacity="0.5" d="M65.8641 85.0313C65.7796 85.158 64.4752 84.4399 63.0706 83.2728C61.6659 82.1058 60.7154 80.9546 60.821 80.8543C60.9266 80.7539 62.0356 81.7044 63.4191 82.8451C64.8026 83.9857 65.9485 84.9046 65.8641 85.0313Z" fill="#FAFAFA"/>
</g>
<path d="M75.4643 74.3114C75.5858 74.3959 74.9362 75.489 73.8167 76.5452C72.6972 77.6013 71.5619 78.1822 71.4826 78.0555C71.4034 77.9287 72.354 77.1683 73.4365 76.1491C74.5191 75.1299 75.3376 74.2058 75.4643 74.3114Z" fill="#FAFAFA"/>
<g opacity="0.5">
<path opacity="0.5" d="M68.8635 73.3081C68.8635 73.456 67.1578 73.3345 65.167 72.8223C63.1761 72.3101 61.613 71.6236 61.6659 71.481C61.7187 71.3384 63.3187 71.7925 65.3043 72.2889C67.2898 72.7853 68.8846 73.1497 68.8635 73.3081Z" fill="#FAFAFA"/>
</g>
<g opacity="0.5">
<path opacity="0.5" d="M81.1254 90.3753C80.9828 90.3437 81.3102 88.2631 82.0653 85.8234C82.8205 83.3837 83.6918 81.472 83.8291 81.5249C83.9664 81.5777 83.3327 83.5474 82.5934 85.9818C81.8541 88.4162 81.2785 90.407 81.1254 90.3753Z" fill="#FAFAFA"/>
</g>
<path d="M83.8448 102.025C83.7339 102.125 82.4296 100.926 80.9299 99.3367C79.4301 97.7472 78.2895 96.3795 78.4215 96.2739C78.5536 96.1683 79.8315 97.3723 81.3312 98.9618C82.8309 100.551 83.9557 101.919 83.8448 102.025Z" fill="#FAFAFA"/>
<g opacity="0.5">
<path opacity="0.5" d="M88.0542 108.62C87.901 108.62 87.806 106.888 87.8429 104.755C87.8799 102.621 88.033 100.9 88.1862 100.9C88.3393 100.9 88.4291 102.632 88.3921 104.765C88.3552 106.899 88.202 108.625 88.0542 108.62Z" fill="#FAFAFA"/>
</g>
<path d="M83.7812 119.488C83.6597 119.572 82.5296 118.189 81.484 116.256C80.4385 114.323 79.8998 112.618 80.0319 112.56C80.1639 112.502 80.9349 114.091 81.9699 115.987C83.0049 117.883 83.9079 119.398 83.7812 119.488Z" fill="#FAFAFA"/>
<path d="M94.6859 121.473C94.7968 121.579 94.0627 122.466 93.0541 123.454C92.0455 124.441 91.1372 125.149 91.0316 125.038C90.926 124.927 91.66 124.04 92.6686 123.052C93.6772 122.065 94.5802 121.363 94.6859 121.473Z" fill="#FAFAFA"/>
<g opacity="0.5">
<path opacity="0.5" d="M68.1348 109.09C67.9975 109.048 68.4834 107.316 69.719 105.51C70.9547 103.704 72.4069 102.632 72.4967 102.748C72.5865 102.864 71.3666 104.079 70.1732 105.827C68.9797 107.575 68.2827 109.148 68.1348 109.09Z" fill="#FAFAFA"/>
</g>
<path d="M37.3434 123.575C37.1955 123.538 37.4543 121.991 37.919 120.069C38.3837 118.147 38.8906 116.652 39.0385 116.689C39.1863 116.726 38.9223 118.3 38.4576 120.201C37.9929 122.102 37.486 123.612 37.3434 123.575Z" fill="#FAFAFA"/>
<path d="M50.2965 124.869C50.212 124.996 48.8971 124.283 47.3604 123.285C45.8237 122.287 44.6409 121.368 44.7201 121.241C44.7993 121.114 46.1142 121.822 47.6561 122.825C49.1981 123.829 50.3968 124.742 50.2965 124.869Z" fill="#FAFAFA"/>
<path d="M49.6631 115.512C49.5364 115.596 48.9186 114.894 48.2796 113.927C47.6406 112.961 47.2234 112.137 47.3555 112.053C47.4875 111.968 48.1 112.671 48.739 113.637C49.378 114.603 49.7688 115.427 49.6631 115.512Z" fill="#FAFAFA"/>
<path d="M55.382 117.645C55.4665 117.766 54.912 118.305 54.141 118.849C53.37 119.393 52.673 119.731 52.5832 119.609C52.4934 119.488 53.0532 118.944 53.8241 118.4C54.5951 117.856 55.2922 117.508 55.382 117.645Z" fill="#FAFAFA"/>
<g opacity="0.5">
<path opacity="0.5" d="M40.4483 155.608C40.2952 155.56 40.5434 154.362 40.7599 152.883C40.9764 151.404 41.0978 150.185 41.2562 150.185C41.4147 150.185 41.5308 151.436 41.3038 152.962C41.0767 154.488 40.5856 155.655 40.4483 155.608Z" fill="#FAFAFA"/>
</g>
<g opacity="0.5">
<path opacity="0.5" d="M53.6075 151.304C53.4755 151.378 52.4721 149.862 51.3685 147.924C50.2648 145.986 49.4727 144.344 49.6047 144.27C49.7367 144.196 50.7401 145.707 51.8437 147.65C52.9474 149.593 53.7395 151.246 53.6075 151.304Z" fill="#FAFAFA"/>
</g>
<g opacity="0.5">
<path opacity="0.5" d="M67.5646 145.437C67.6861 145.527 66.3659 147.46 64.6127 149.752C62.8595 152.043 61.3387 153.823 61.2172 153.733C61.0957 153.644 62.4212 151.711 64.1744 149.419C65.9276 147.127 67.4484 145.342 67.5646 145.437Z" fill="#FAFAFA"/>
</g>
<g opacity="0.5">
<path opacity="0.5" d="M71.4985 156.648C71.4985 156.796 69.7717 157.176 67.5961 157.488C65.4204 157.799 63.6356 157.937 63.6144 157.789C63.5933 157.641 65.336 157.261 67.5169 156.944C69.6978 156.627 71.4774 156.495 71.4985 156.648Z" fill="#FAFAFA"/>
</g>
<path d="M72.1058 150.998C71.9527 150.961 72.1058 149.836 72.1428 148.453C72.1798 147.069 72.1428 145.934 72.3276 145.913C72.5124 145.891 72.7606 147.032 72.692 148.474C72.6233 149.915 72.2484 151.035 72.1058 150.998Z" fill="#FAFAFA"/>
<path d="M53.2594 157.578C53.2066 157.71 51.7756 157.24 50.2864 156.162C48.7972 155.085 47.8889 153.892 47.9998 153.802C48.1107 153.712 49.1669 154.689 50.6085 155.714C52.0502 156.738 53.3228 157.43 53.2594 157.578Z" fill="#FAFAFA"/>
<path d="M30.8639 156.743C30.7161 156.706 30.8639 155.497 31.2547 154.05C31.6455 152.603 32.0362 151.452 32.1841 151.489C32.332 151.526 32.1524 152.73 31.788 154.182C31.4237 155.634 31.0118 156.78 30.8639 156.743Z" fill="#FAFAFA"/>
<path d="M28.4299 23.1731C28.4616 23.1308 29.0636 23.6483 30.1672 24.2292C30.8157 24.5788 31.4923 24.8738 32.1897 25.1111C33.0496 25.3887 33.9336 25.5849 34.8301 25.6973C35.7266 25.7926 36.6303 25.8015 37.5285 25.7237C38.2644 25.6564 38.9927 25.522 39.7042 25.3223C40.9187 24.9844 41.6158 24.62 41.6422 24.6675C41.4937 24.7796 41.3324 24.8736 41.1617 24.9474C40.9706 25.0499 40.773 25.1399 40.5702 25.2167C40.3045 25.3295 40.0331 25.4282 39.757 25.5124C39.04 25.7393 38.3024 25.895 37.5549 25.9771C36.6385 26.0722 35.7148 26.0722 34.7984 25.9771C33.8849 25.8639 32.9857 25.6551 32.1158 25.354C31.4071 25.1041 30.7244 24.7858 30.0774 24.4035C29.7976 24.2503 29.5494 24.0761 29.354 23.9335C29.1692 23.8116 28.9928 23.6775 28.8259 23.5322C28.5619 23.3209 28.414 23.1889 28.4299 23.1731Z" fill="#455A64"/>
<path d="M42.0694 29.2512C41.8846 29.3305 41.6916 29.3889 41.4938 29.4254C41.1189 29.5205 40.575 29.6472 39.9096 29.7634C38.125 30.1123 36.2907 30.123 34.5022 29.7951C32.6988 29.4464 31.0581 28.5194 29.8287 27.1547C29.4686 26.7343 29.1699 26.2649 28.9416 25.7606C28.8486 25.5817 28.7844 25.3892 28.7515 25.1903C29.0858 25.8491 29.4971 26.466 29.9766 27.028C31.2073 28.3213 32.8087 29.2014 34.5602 29.5469C36.3192 29.8629 38.1189 29.8789 39.8832 29.5944C40.5644 29.4994 41.1136 29.4043 41.4674 29.3409C41.6639 29.2876 41.8659 29.2575 42.0694 29.2512V29.2512Z" fill="#455A64"/>
<path d="M23.2649 61.5691C23.2397 61.5467 23.2167 61.5219 23.1962 61.4952C23.1592 61.4424 23.0906 61.3684 23.0167 61.2575C22.812 60.9351 22.6704 60.5767 22.5995 60.2014C22.4936 59.5026 22.5422 58.7891 22.7421 58.1112C22.9419 57.4333 23.288 56.8074 23.756 56.2778C24.3996 55.5528 25.1449 54.9249 25.9686 54.4137C26.8346 53.8434 27.8063 53.3206 28.7621 52.6764C29.7747 52.0357 30.6403 51.1881 31.3021 50.1892C31.6329 49.659 31.8488 49.0653 31.9358 48.4465C32.018 47.805 31.984 47.1539 31.8354 46.5244C31.4887 45.2776 31.042 44.0608 30.4994 42.886C29.9857 41.7645 29.6831 40.5579 29.607 39.3268C29.5442 37.2294 30.1815 35.1708 31.4183 33.4757C32.2218 32.3259 33.2881 31.3845 34.5286 30.7298L35.12 30.4446L35.5742 30.2862C35.6973 30.2378 35.8246 30.2007 35.9544 30.1753C35.8395 30.2398 35.7194 30.2945 35.5953 30.339L35.157 30.5238L34.5814 30.8248C33.382 31.5038 32.3541 32.4485 31.5767 33.5866C30.3939 35.2576 29.7911 37.2701 29.8605 39.3162C29.9411 40.5156 30.2419 41.6898 30.7476 42.7803C31.3008 43.9731 31.7547 45.2095 32.1048 46.4768C32.2565 47.1381 32.2905 47.821 32.2051 48.4941C32.1147 49.1506 31.8861 49.7805 31.5344 50.3423C30.8459 51.3722 29.9458 52.2435 28.8941 52.8982C27.9224 53.5424 26.9455 54.0599 26.0848 54.6197C25.2732 55.1095 24.5368 55.7142 23.8985 56.4151C23.4406 56.9225 23.0963 57.5218 22.8887 58.1729C22.6811 58.8241 22.6149 59.512 22.6945 60.1908C22.7906 60.6838 22.9845 61.1524 23.2649 61.5691V61.5691Z" fill="#455A64"/>
<path d="M37.3322 61.7592C37.2237 61.7132 37.1209 61.6547 37.0259 61.5849C36.751 61.3873 36.5192 61.1358 36.3447 60.8456C36.0727 60.3814 35.9101 59.8613 35.8694 59.3248C35.8133 58.6123 35.8922 57.8957 36.1018 57.2125C36.5295 55.6653 37.8233 54.2553 38.7949 52.4599C39.3241 51.5455 39.5994 50.5063 39.5923 49.4499C39.5384 48.3165 39.2488 47.2068 38.7421 46.1917C37.7388 44.0794 36.1968 42.379 35.1301 40.6152C34.606 39.7906 34.1874 38.9036 33.8839 37.9749C33.6282 37.1523 33.5402 36.2868 33.6251 35.4296C33.7069 34.175 34.2573 32.9969 35.1671 32.1291C35.4217 31.9131 35.7063 31.7353 36.012 31.6011C36.1165 31.5505 36.2263 31.5115 36.3394 31.4849C35.9408 31.6822 35.5698 31.9307 35.2357 32.2242C34.3879 33.0965 33.8851 34.2466 33.8205 35.4613C33.7502 36.2924 33.8471 37.1291 34.1056 37.9221C34.4068 38.8358 34.8239 39.7072 35.3466 40.5149C35.8747 41.3757 36.5295 42.2364 37.179 43.1553C37.8722 44.0852 38.4785 45.0769 38.9903 46.1177C39.5184 47.1674 39.8155 48.318 39.8616 49.4921C39.8635 50.5918 39.5737 51.6723 39.022 52.6236C38.0081 54.4243 36.7143 55.792 36.2866 57.2917C36.0768 57.948 35.9874 58.6367 36.0225 59.3248C36.0515 59.8416 36.192 60.346 36.4344 60.8034C36.663 61.1817 36.9689 61.5074 37.3322 61.7592V61.7592Z" fill="#455A64"/>
<path d="M58.1699 22.1169C58.1699 22.1169 58.096 22.1169 57.9693 22.0324C57.7861 21.9332 57.6097 21.8221 57.4412 21.6998C56.837 21.2318 56.3233 20.6573 55.9256 20.0047C55.348 19.0403 54.8584 18.0258 54.4629 16.9735C54.22 16.3926 53.9348 15.7854 53.6391 15.1886C53.3082 14.5721 52.9192 13.9886 52.4773 13.446C50.9008 11.5321 48.7671 10.1569 46.3728 9.51188C45.3767 9.27191 44.36 9.12691 43.3364 9.07886C43.6102 9.033 43.8882 9.01707 44.1655 9.03133C44.9251 9.05064 45.6807 9.14797 46.4204 9.32177C48.8818 9.92621 51.0811 11.3121 52.6886 13.2717C53.1446 13.8287 53.546 14.4282 53.8873 15.0619C54.2094 15.6745 54.4629 16.2923 54.7005 16.8785C55.0839 17.9226 55.5501 18.9344 56.0946 19.9043C56.4727 20.5475 56.9524 21.1253 57.5151 21.6153C57.9217 21.9585 58.1858 22.0958 58.1699 22.1169Z" fill="#455A64"/>
<path d="M65.5369 22.0747C65.4408 22.0783 65.3447 22.0676 65.2518 22.043C64.9815 22.0011 64.7161 21.9321 64.4597 21.8371C63.51 21.4856 62.6498 20.9284 61.9408 20.2053C60.8991 19.1355 60.0201 17.9185 59.3321 16.5933C58.503 15.1411 57.7004 13.4724 56.4594 12.0202C55.2768 10.663 53.7156 9.6902 51.9761 9.22673C50.5543 8.84906 49.0905 8.65213 47.6195 8.64057C46.3574 8.61417 45.3382 8.64057 44.6306 8.69338L43.8174 8.72506C43.7228 8.73796 43.6268 8.73796 43.5322 8.72506C43.6228 8.69604 43.717 8.68004 43.8121 8.67754L44.6253 8.59305C45.3277 8.53496 46.3521 8.45047 47.6195 8.45575C49.1114 8.43564 50.5994 8.6132 52.0447 8.98382C53.8394 9.44761 55.4508 10.4457 56.6653 11.846C57.9433 13.3404 58.7407 15.0144 59.5486 16.4771C60.2182 17.7874 61.0698 18.9963 62.0781 20.068C62.7578 20.7896 63.5819 21.36 64.4966 21.742C65.1514 21.9955 65.5422 22.043 65.5369 22.0747Z" fill="#455A64"/>
<path d="M78.0044 56.3465C77.978 56.3465 78.1417 55.9715 78.316 55.2903C78.5693 54.3188 78.676 53.315 78.6328 52.312C78.5826 50.824 78.2001 49.3662 77.5133 48.0452C77.1039 47.2703 76.5963 46.5515 76.003 45.9065C75.3905 45.2253 74.6882 44.581 73.9858 43.9051C73.2767 43.2552 72.6215 42.5487 72.0267 41.7928C71.4802 41.0843 71.0078 40.3217 70.6167 39.5168C69.9589 38.1508 69.5375 36.6831 69.3705 35.1761C69.2542 34.1631 69.2648 33.1395 69.4022 32.1291C69.4323 31.8553 69.4799 31.5837 69.5448 31.3159C69.5586 31.2195 69.5853 31.1254 69.624 31.036C69.6504 31.036 69.5659 31.4321 69.5078 32.145C69.4119 33.1453 69.4296 34.1533 69.5606 35.1497C69.7582 36.6279 70.1914 38.0649 70.8438 39.406C71.2339 40.1913 71.7009 40.936 72.2379 41.6291C72.8286 42.3656 73.4748 43.0559 74.1707 43.6939C74.8783 44.3698 75.5806 45.0193 76.2037 45.7164C76.8089 46.3798 77.3238 47.1202 77.7351 47.9185C78.4282 49.2754 78.8021 50.7727 78.8282 52.2962C78.8536 53.3165 78.7163 54.3343 78.4216 55.3114C78.3447 55.5772 78.2477 55.8367 78.1312 56.0877C78.1023 56.1799 78.0595 56.2671 78.0044 56.3465Z" fill="#455A64"/>
<path d="M20.1539 21.6575C20.1526 21.4792 20.1757 21.3015 20.2225 21.1294C20.3293 20.6704 20.498 20.228 20.7242 19.8145C21.1016 19.1129 21.6232 18.499 22.2547 18.0132C22.8861 17.5273 23.6132 17.1805 24.3881 16.9955C25.1631 16.8105 25.9684 16.7914 26.7512 16.9396C27.5341 17.0878 28.2767 17.3999 28.9304 17.8554C29.326 18.1182 29.6817 18.4365 29.9865 18.8006C30.1085 18.9276 30.2084 19.0739 30.2823 19.2337C29.8357 18.7818 29.3458 18.375 28.8195 18.0191C28.1808 17.6035 27.4641 17.3223 26.7132 17.1927C25.9622 17.0631 25.1928 17.0877 24.4516 17.2651C23.7105 17.4424 23.0133 17.7688 22.4024 18.2244C21.7915 18.68 21.2798 19.2551 20.8984 19.9149C20.5946 20.4703 20.3452 21.054 20.1539 21.6575Z" fill="#455A64"/>
<path d="M25.2717 23.8807C25.2679 23.4763 25.3177 23.0733 25.4195 22.682C25.582 21.7022 26.0155 20.7876 26.6711 20.0416C27.0302 19.6819 27.4801 19.4263 27.9728 19.3017C28.4656 19.1771 28.9829 19.1882 29.4698 19.334C29.7625 19.4399 30.0214 19.6222 30.2197 19.8621C30.3517 20.0311 30.3887 20.1472 30.3781 20.1525C30.109 19.8735 29.778 19.6618 29.4118 19.5347C28.9615 19.4274 28.4912 19.4371 28.0457 19.5628C27.6002 19.6885 27.1943 19.926 26.8665 20.2528C26.248 20.9691 25.8163 21.8272 25.6096 22.7506C25.5317 23.1368 25.4185 23.5151 25.2717 23.8807V23.8807Z" fill="#455A64"/>
<path d="M31.983 16.1445C31.4534 17.0702 30.9893 18.0319 30.5942 19.0225C30.2887 20.0429 30.0488 21.0818 29.876 22.1328C29.7592 19.9357 30.5189 17.7821 31.9883 16.1445H31.983Z" fill="#FF725E"/>
<path d="M116.463 29.0188C116.463 29.3436 116.56 29.6612 116.74 29.9312C116.921 30.2013 117.177 30.4118 117.477 30.5361C117.777 30.6604 118.107 30.6929 118.426 30.6296C118.745 30.5662 119.037 30.4098 119.267 30.1801C119.497 29.9504 119.653 29.6578 119.716 29.3392C119.78 29.0207 119.747 28.6904 119.623 28.3904C119.499 28.0903 119.288 27.8338 119.018 27.6533C118.748 27.4729 118.43 27.3765 118.106 27.3765C117.89 27.3765 117.676 27.419 117.477 27.5015C117.278 27.5841 117.097 27.7051 116.944 27.8576C116.792 28.0101 116.671 28.1911 116.588 28.3904C116.506 28.5896 116.463 28.8032 116.463 29.0188V29.0188Z" fill="#C8C8C8"/>
<path d="M111.526 30.6611C112.433 30.6611 113.168 29.9259 113.168 29.0188C113.168 28.1118 112.433 27.3765 111.526 27.3765C110.619 27.3765 109.884 28.1118 109.884 29.0188C109.884 29.9259 110.619 30.6611 111.526 30.6611Z" fill="#C8C8C8"/>
<path d="M103.325 28.195C103.163 28.4764 103.088 28.7995 103.11 29.1235C103.131 29.4476 103.248 29.758 103.446 30.0155C103.644 30.2731 103.913 30.4662 104.221 30.5705C104.529 30.6747 104.86 30.6855 105.174 30.6014C105.487 30.5172 105.769 30.342 105.983 30.0978C106.197 29.8536 106.334 29.5514 106.377 29.2294C106.419 28.9075 106.365 28.5801 106.221 28.2889C106.078 27.9976 105.851 27.7554 105.57 27.593C105.383 27.4851 105.177 27.415 104.963 27.3869C104.749 27.3587 104.531 27.373 104.323 27.4289C104.114 27.4848 103.919 27.5812 103.748 27.7127C103.577 27.8441 103.433 28.008 103.325 28.195V28.195Z" fill="#C8C8C8"/>
<path d="M111.426 9.82346C111.315 9.81058 111.204 9.81058 111.093 9.82346L110.116 9.84987C109.905 9.84987 109.662 9.84987 109.398 9.88155L108.537 10.003L107.534 10.1456L106.409 10.4255C104.487 10.914 102.657 11.7131 100.991 12.7912C98.5164 14.3662 96.4346 16.4864 94.9052 18.9897C93.3757 21.493 92.4392 24.313 92.1673 27.234C92.0908 28.1119 92.0732 28.994 92.1145 29.8743C92.1462 30.3232 92.1145 30.772 92.199 31.2209L92.4049 32.578C92.7493 34.4442 93.3649 36.25 94.232 37.9379C95.1623 39.7012 96.3414 41.3213 97.7331 42.7487C99.2169 44.2095 100.918 45.4316 102.776 46.3712C104.695 47.3521 106.773 47.9867 108.912 48.2459C109.456 48.3279 110.005 48.3755 110.555 48.3885C111.105 48.4175 111.657 48.4175 112.208 48.3885C113.325 48.3439 114.436 48.2043 115.529 47.9713C117.875 47.4692 120.108 46.5363 122.114 45.22H121.913L128.641 47.9238L129.042 48.0822L128.926 47.6703C128.25 45.1989 127.585 42.7962 126.951 40.4727L126.914 40.6522C128.742 38.2327 129.973 35.4154 130.505 32.4302C130.764 31.0378 130.852 29.6193 130.769 28.2056C130.755 27.5275 130.69 26.8513 130.574 26.1831C130.526 25.8504 130.474 25.523 130.426 25.1956C130.378 24.8682 130.262 24.5619 130.188 24.2451C129.062 19.8213 126.401 15.9416 122.679 13.2982C121.306 12.3111 119.802 11.5185 118.212 10.943L117.208 10.5839L116.253 10.341L115.376 10.1245C115.096 10.0664 114.848 10.04 114.573 10.003C114.045 9.93436 113.618 9.84986 113.227 9.82874L112.234 9.79706H111.632C111.495 9.79706 111.426 9.79706 111.426 9.79706H111.632L112.234 9.84458L113.216 9.90796C113.602 9.93964 114.045 10.04 114.552 10.1139C118.205 10.7426 121.597 12.4187 124.316 14.9385C127.034 17.4584 128.963 20.7135 129.866 24.3084C129.94 24.62 130.035 24.9263 130.093 25.2431C130.151 25.56 130.188 25.8874 130.241 26.2095C130.348 26.868 130.406 27.5334 130.415 28.2003C130.493 29.5809 130.402 30.9658 130.146 32.3246C129.611 35.2616 128.392 38.0312 126.587 40.4093L126.529 40.4885L126.555 40.5889C127.189 42.9124 127.842 45.3116 128.514 47.7865L128.8 47.533L122.077 44.824L121.972 44.7817L121.871 44.8451C119.905 46.1421 117.715 47.0625 115.413 47.5594C114.346 47.788 113.261 47.9258 112.171 47.9713C111.63 47.9925 111.089 47.9819 110.549 47.9396C110.019 47.9293 109.49 47.8852 108.965 47.8076C106.87 47.5504 104.836 46.9284 102.956 45.9699C99.3545 44.1883 96.4191 41.2993 94.5806 37.7267C93.7186 36.0793 93.103 34.3144 92.7534 32.4883C92.6848 32.0394 92.6161 31.6011 92.5528 31.1575C92.4894 30.7139 92.4947 30.2756 92.4577 29.8373C92.4161 28.9766 92.4302 28.114 92.5 27.2551C92.7573 24.382 93.6651 21.6052 95.1546 19.1349C96.6441 16.6647 98.6762 14.5658 101.097 12.9972C102.74 11.9097 104.548 11.0948 106.452 10.5839L107.561 10.2882L108.559 10.1245L109.409 9.98189C109.673 9.98189 109.91 9.9502 110.122 9.92908L111.093 9.86042C111.205 9.85734 111.316 9.84498 111.426 9.82346V9.82346Z" fill="#C8C8C8"/>
</g>
<defs>
<filter id="filter0_d" x="0.427246" y="0" width="219.572" height="168.984" filterUnits="userSpaceOnUse" color-interpolation-filters="sRGB">
<feFlood flood-opacity="0" result="BackgroundImageFix"/>
<feColorMatrix in="SourceAlpha" type="matrix" values="0 0 0 0 0 0 0 0 0 0 0 0 0 0 0 0 0 0 127 0" result="hardAlpha"/>
<feOffset dy="4"/>
<feGaussianBlur stdDeviation="2"/>
<feComposite in2="hardAlpha" operator="out"/>
<feColorMatrix type="matrix" values="0 0 0 0 0 0 0 0 0 0 0 0 0 0 0 0 0 0 0.25 0"/>
<feBlend mode="normal" in2="BackgroundImageFix" result="effect1_dropShadow"/>
<feBlend mode="normal" in="SourceGraphic" in2="effect1_dropShadow" result="shape"/>
</filter>
</defs>
</svg>
