<svg width="264" height="236" viewBox="0 40 264 236" fill="none" xmlns="http://www.w3.org/2000/svg">
<g opacity="0.9">
<path d="M39.3149 148.985C39.3149 148.985 43.3447 146.936 44.6004 147.093C45.856 147.251 42.3727 148.67 44.6004 148.67C46.828 148.67 47.6581 147.882 47.6581 148.354C47.6581 148.827 47.8158 149.221 48.9191 148.985C50.0224 148.748 50.2956 149.048 50.8525 149.053C51.8317 149.025 52.8031 148.87 53.7422 148.591C54.7456 148.276 55.8437 147.882 56.553 148.433C57.2623 148.985 56.968 149.284 59.4689 149.053C60.9049 148.912 62.3525 148.938 63.7824 149.132" stroke="#FFC3BD" stroke-linecap="round" stroke-linejoin="round"/>
<path d="M39.2153 158.316C41.175 157.938 45.52 155.81 44.2538 156.046C42.9876 156.283 40.6181 157.701 43.6917 157.78C46.7652 157.859 47.4692 156.755 48.3098 156.44C49.1505 156.125 52.0874 156.44 52.513 156.44C52.9385 156.44 50.1329 157.034 52.513 157.17C54.893 157.307 55.1399 156.876 56.0541 157.17C56.8712 157.33 57.7115 157.33 58.5287 157.17C58.5287 157.17 58.9647 157.622 61.1924 157.696C63.42 157.769 65.1013 157.696 65.1013 157.696" stroke="#FFC3BD" stroke-linecap="round" stroke-linejoin="round"/>
<path d="M37.6812 153.382C37.6812 153.382 43.555 153.114 44.6741 152.799C45.7932 152.484 45.231 151.696 46.7757 152.011C48.3203 152.326 49.2923 151.706 50.6215 151.938C51.9507 152.169 55.4078 151.938 53.9104 151.381C52.4131 150.824 49.5917 152.72 52.8019 152.799C56.012 152.878 57.4095 152.568 57.688 152.332C57.9665 152.095 59.653 152.799 59.653 152.799C59.653 152.799 61.4656 152.174 62.2799 152.332C63.0943 152.489 66.6196 152.857 66.6196 152.857" stroke="#FFC3BD" stroke-linecap="round" stroke-linejoin="round"/>
<path d="M186.902 103.171C186.902 103.171 191.237 100.969 192.582 101.138C193.927 101.306 190.191 102.829 192.582 102.829C194.972 102.829 195.866 101.983 195.866 102.493C195.866 103.003 196.039 103.423 197.221 103.171C198.403 102.919 198.703 103.239 199.323 103.244C200.373 103.215 201.416 103.047 202.422 102.745C203.505 102.409 204.697 101.983 205.449 102.577C206.2 103.171 205.895 103.491 208.601 103.244C210.142 103.094 211.695 103.122 213.23 103.328" stroke="#FFC3BD" stroke-linecap="round" stroke-linejoin="round"/>
<path d="M187.575 124.927C187.575 124.927 191.91 122.726 193.255 122.899C194.6 123.073 190.864 124.591 193.255 124.591C195.645 124.591 196.538 123.745 196.538 124.255C196.538 124.764 196.712 125.185 197.894 124.927C199.076 124.67 199.375 124.996 199.995 125.006C201.047 124.965 202.089 124.789 203.095 124.481C204.178 124.139 205.37 123.719 206.121 124.313C206.873 124.906 206.568 125.227 209.274 124.98C210.815 124.826 212.368 124.854 213.902 125.064" stroke="#FFC3BD" stroke-linecap="round" stroke-linejoin="round"/>
<path d="M186.902 108.157C189.377 107.779 194.857 105.64 193.265 105.877C191.673 106.113 188.673 107.542 192.561 107.621C196.449 107.7 197.331 106.57 198.393 106.276C199.454 105.982 203.163 106.276 203.694 106.276C204.224 106.276 200.689 106.875 203.694 107.011C206.699 107.148 206.988 106.717 208.165 107.011C209.201 107.171 210.255 107.171 211.291 107.011C211.291 107.011 211.843 107.463 214.659 107.537C217.475 107.61 219.597 107.537 219.597 107.537" stroke="#FFC3BD" stroke-linecap="round" stroke-linejoin="round"/>
<path d="M187.47 134.957C189.571 134.552 194.231 132.267 192.881 132.519C191.531 132.771 188.972 134.3 192.277 134.384C195.582 134.468 196.338 133.281 197.242 132.945C198.146 132.608 201.298 132.945 201.75 132.945C202.202 132.945 199.196 133.586 201.75 133.728C204.303 133.869 204.555 133.412 205.559 133.728C206.435 133.899 207.336 133.899 208.212 133.728C208.212 133.728 208.685 134.211 211.081 134.3C213.477 134.39 215.284 134.3 215.284 134.3" stroke="#FFC3BD" stroke-linecap="round" stroke-linejoin="round"/>
<path d="M186.902 121.223C189.004 120.819 193.627 118.533 192.282 118.785C190.937 119.038 188.394 120.561 191.683 120.645C194.972 120.729 195.718 119.547 196.612 119.206C197.505 118.864 200.647 119.206 201.093 119.206C201.54 119.206 198.556 119.847 201.093 119.994C203.631 120.141 203.878 119.679 204.876 119.994C205.743 120.163 206.635 120.163 207.503 119.994C207.503 119.994 207.97 120.477 210.351 120.561C212.731 120.645 214.522 120.561 214.522 120.561" stroke="#FFC3BD" stroke-linecap="round" stroke-linejoin="round"/>
<path d="M186.156 112.649C188.221 112.123 188.636 110.547 190.013 111.031C191.389 111.514 193.044 111.241 193.459 110.936C194.177 110.508 194.974 110.231 195.802 110.122C196.328 110.122 195.802 110.731 195.802 111.388C195.802 112.045 197.594 111.64 198.004 111.388C198.414 111.136 199.107 110.831 199.58 111.388L200.063 111.94C200.063 111.94 201.025 111.94 201.303 111.388C201.511 110.927 201.87 110.55 202.321 110.32C202.772 110.09 203.287 110.02 203.783 110.122C205.16 110.426 203.368 110.773 204.309 111.356C205.249 111.94 205.548 110.122 206.515 110.931C207.482 111.74 206.515 112.145 207.34 112.145C208.165 112.145 212.489 111.446 214.506 111.94" stroke="#FFC3BD" stroke-linecap="round" stroke-linejoin="round"/>
<path d="M186.902 116.92C186.902 116.92 193.176 116.631 194.373 116.295C195.571 115.959 194.967 115.108 196.612 115.449C198.256 115.791 199.302 115.118 200.72 115.37C202.139 115.623 205.827 115.37 204.23 114.771C202.633 114.173 199.622 116.211 203.048 116.295C206.473 116.379 207.965 116.048 208.265 115.77C208.564 115.491 210.366 116.295 210.366 116.295C210.366 116.295 212.294 115.623 213.193 115.77C214.091 115.917 217.822 116.358 217.822 116.358" stroke="#FFC3BD" stroke-linecap="round" stroke-linejoin="round"/>
<path d="M185.815 129.656C185.815 129.656 192.12 129.367 193.333 129.031C194.547 128.694 193.932 127.843 195.587 128.185C197.242 128.526 198.293 127.859 199.722 128.106C201.151 128.353 204.86 128.106 203.253 127.507C201.645 126.908 198.613 128.946 202.06 129.031C205.507 129.115 207.009 128.784 207.314 128.505C207.619 128.227 209.415 129.031 209.415 129.031C209.415 129.031 211.359 128.358 212.263 128.505C213.167 128.652 216.923 129.094 216.923 129.094" stroke="#FFC3BD" stroke-linecap="round" stroke-linejoin="round"/>
<path d="M58.2817 82.2656C60.3465 81.8663 61.6285 79.9381 63.8771 80.2586L64.1976 80.5844L63.2362 81.5458C64.5181 82.5073 65.8053 81.5458 67.0873 81.5458C67.4078 81.5458 67.4078 82.1868 67.7283 82.1868C70.6179 82.5073 73.5075 81.8663 76.3972 81.5458C76.9673 82.0342 77.6578 82.361 78.397 82.4922C79.1361 82.6234 79.8969 82.5542 80.6003 82.2919" stroke="#FFC3BD" stroke-linecap="round" stroke-linejoin="round"/>
<path d="M58.1768 92.2953C60.3466 92.1377 61.9491 90.8557 63.8772 89.8943C62.9158 90.5352 61.9491 89.8942 61.3081 91.1762C63.2363 92.4582 65.8054 91.1762 67.7284 90.5352C69.336 89.8943 70.9385 90.2147 72.5041 90.2883C71.9052 90.5615 71.0961 90.178 72.5041 90.2883C71.9052 90.5615 70.7914 90.8662 72.1259 91.0396C73.4604 91.213 74.9998 90.6508 76.2607 91.0659" stroke="#FFC3BD" stroke-linecap="round" stroke-linejoin="round"/>
<path d="M57.6089 78.5563C59.7104 78.1518 64.3286 75.8663 62.9836 76.1185C61.6386 76.3707 59.101 77.8996 62.3899 77.9837C65.6789 78.0677 66.4197 76.8803 67.3181 76.5441C68.2165 76.2078 71.3478 76.5441 71.7997 76.5441C72.2515 76.5441 69.2568 77.1851 71.7997 77.3322C74.3426 77.4793 74.5842 77.0169 75.5825 77.3322C76.4502 77.4993 77.3418 77.4993 78.2094 77.3322C78.2094 77.3322 78.677 77.8155 81.057 77.8996C83.4371 77.9837 91.2549 78.3514 91.2549 78.3514" stroke="#FFC3BD" stroke-linecap="round" stroke-linejoin="round"/>
<path d="M57.6089 74.2587C57.6089 74.2587 63.882 73.9697 65.0747 73.6282C66.2673 73.2867 65.6736 72.4461 67.3181 72.7823C68.9626 73.1186 70.0081 72.4566 71.4266 72.7035C72.8452 72.9504 76.5334 72.7035 74.9363 72.1046C73.3391 71.5056 70.3233 73.5441 73.7489 73.6282C77.1744 73.7123 78.6718 73.3813 78.966 73.1028C79.2602 72.8243 81.0676 73.6282 81.0676 73.6282C81.0676 73.6282 83.001 72.9609 83.8994 73.1028C84.7978 73.2447 88.5281 73.6912 88.5281 73.6912" stroke="#FFC3BD" stroke-linecap="round" stroke-linejoin="round"/>
<path d="M56.5215 86.9941C56.5215 86.9941 62.8262 86.7051 64.0346 86.3636C65.243 86.0221 64.6388 85.1815 66.2937 85.5178C67.9487 85.854 68.9995 85.192 70.4233 85.4389C71.8471 85.6859 75.5669 85.4389 73.9592 84.84C72.3515 84.2411 69.32 86.2796 72.7665 86.3636C76.2131 86.4477 77.7157 86.1167 78.0204 85.8382C78.3252 85.5598 80.122 86.3636 80.122 86.3636C80.122 86.3636 82.066 85.6964 82.9644 85.8382C83.8628 85.9801 87.6246 86.4319 87.6246 86.4319" stroke="#FFC3BD" stroke-linecap="round" stroke-linejoin="round"/>
</g>
<g opacity="0.9">
<path d="M54.846 109.644C58.1769 108.283 60.4466 110.206 61.5027 111.477C62.3223 110.038 64.2137 107.742 67.739 108.488C71.5586 109.302 73.2767 113.92 70.5341 118.528C68.5587 121.843 65.1226 124.307 63.3468 125.405C63.1366 125.542 62.9422 125.658 62.7846 125.747C62.6165 125.684 62.4011 125.61 62.1699 125.516C60.2312 124.738 56.3906 122.936 53.8793 120.025C50.3591 115.98 51.2313 111.125 54.846 109.644Z" stroke="#FFC3BD" stroke-linecap="round" stroke-linejoin="round"/>
<path d="M70.8492 128.584C71.4202 128.495 72.0044 128.603 72.5064 128.889C73.0084 129.175 73.3984 129.623 73.6127 130.16C73.983 129.717 74.4931 129.412 75.0592 129.297C75.6253 129.181 76.2138 129.261 76.7283 129.524C78.3465 130.318 78.5882 132.577 76.8491 134.321C75.7054 135.36 74.3451 136.132 72.8667 136.58L72.5777 136.67L72.3255 136.496C71.0614 135.61 70.0098 134.455 69.2467 133.113C68.1276 130.906 69.0681 128.836 70.8492 128.584Z" stroke="#FFC3BD" stroke-linecap="round" stroke-linejoin="round"/>
</g>
<g opacity="0.9">
<path d="M209.116 154.916C208.86 156.56 209.041 158.241 209.642 159.792C209.925 160.548 210.306 161.264 210.776 161.92C212.067 163.743 213.952 165.059 216.107 165.644C218.262 166.229 220.554 166.046 222.589 165.127C224.624 164.207 226.276 162.608 227.261 160.603C228.246 158.599 228.503 156.314 227.988 154.141C227.472 151.968 226.217 150.042 224.437 148.693C222.657 147.344 220.464 146.657 218.232 146.749C216.001 146.84 213.871 147.705 212.208 149.196C210.544 150.686 209.451 152.709 209.116 154.916V154.916Z" stroke="#FFC3BD" stroke-linecap="round" stroke-linejoin="round"/>
<path d="M214.076 160.06C214.076 160.06 216.225 157.88 218.805 158.274C219.566 158.396 220.288 158.698 220.909 159.155C221.53 159.612 222.034 160.21 222.377 160.901" stroke="#FFC3BD" stroke-linecap="round" stroke-linejoin="round"/>
<path d="M221.6 152.452C221.896 152.998 222.319 153.464 222.832 153.812C223.346 154.161 223.936 154.381 224.552 154.454" stroke="#FFC3BD" stroke-linecap="round" stroke-linejoin="round"/>
<path d="M223.318 154.811C223.293 154.975 223.22 155.127 223.109 155.249C222.997 155.371 222.852 155.458 222.691 155.497C222.531 155.537 222.362 155.528 222.207 155.471C222.052 155.415 221.916 155.314 221.818 155.181C221.721 155.048 221.664 154.888 221.657 154.723C221.65 154.558 221.692 154.394 221.777 154.253C221.863 154.112 221.989 153.999 222.138 153.929C222.288 153.859 222.455 153.835 222.619 153.86C222.837 153.894 223.034 154.013 223.165 154.191C223.296 154.37 223.351 154.593 223.318 154.811Z" stroke="#FFC3BD" stroke-linecap="round" stroke-linejoin="round"/>
<path d="M223.265 155.174C223.265 155.174 224.085 155.384 223.691 156.309C223.297 157.233 224.92 157.444 225.157 157.764C225.393 158.085 224.6 159.288 225.482 159.666C226.365 160.044 226.297 160.817 226.039 161.437C225.976 161.738 226.031 162.052 226.192 162.314" stroke="#FFC3BD" stroke-linecap="round" stroke-linejoin="round"/>
<path d="M222.367 155.515C222.367 156.356 222.083 156.887 223.281 157.691C224.479 158.494 223.281 159.419 223.517 159.902C223.754 160.386 225.093 160.128 224.284 161.615C224.114 161.998 224.041 162.417 224.074 162.835C224.108 163.252 224.245 163.655 224.474 164.006" stroke="#FFC3BD" stroke-linecap="round" stroke-linejoin="round"/>
<path d="M216.96 151.748C216.514 152.18 215.972 152.498 215.377 152.676C214.783 152.854 214.155 152.887 213.545 152.773" stroke="#FFC3BD" stroke-linecap="round" stroke-linejoin="round"/>
<path d="M214.617 153.487C214.592 153.651 214.616 153.818 214.686 153.968C214.756 154.118 214.868 154.243 215.01 154.329C215.151 154.415 215.315 154.456 215.48 154.449C215.645 154.442 215.804 154.386 215.937 154.288C216.071 154.19 216.172 154.055 216.228 153.899C216.284 153.744 216.293 153.575 216.254 153.415C216.214 153.254 216.128 153.109 216.006 152.998C215.884 152.886 215.732 152.813 215.568 152.789C215.46 152.772 215.349 152.776 215.242 152.802C215.136 152.828 215.035 152.875 214.947 152.94C214.858 153.005 214.784 153.087 214.727 153.181C214.671 153.275 214.633 153.379 214.617 153.487V153.487Z" stroke="#FFC3BD" stroke-linecap="round" stroke-linejoin="round"/>
<path d="M209.642 159.792C209.871 159.59 210.015 159.308 210.046 159.004C209.983 158.332 210.141 157.575 211.097 157.475C212.053 157.375 211.654 155.994 211.974 155.757C212.295 155.521 213.903 155.804 213.808 154.801C213.713 153.797 214.559 153.85 214.559 153.85" stroke="#FFC3BD" stroke-linecap="round" stroke-linejoin="round"/>
<path d="M210.776 161.92C211.099 161.652 211.35 161.309 211.506 160.919C211.662 160.53 211.718 160.109 211.67 159.692C211.349 158.037 212.563 158.684 212.915 158.29C213.267 157.895 212.421 156.65 213.797 156.246C215.174 155.841 215.064 155.242 215.316 154.444" stroke="#FFC3BD" stroke-linecap="round" stroke-linejoin="round"/>
<path d="M165.183 85.6386C165.983 87.8784 167.354 89.8705 169.16 91.4179C170.033 92.181 171.001 92.8274 172.04 93.3408C174.914 94.7685 178.195 95.1513 181.32 94.4236C184.446 93.6959 187.22 91.9031 189.168 89.3527C191.116 86.8024 192.115 83.6537 191.995 80.4469C191.874 77.2401 190.642 74.1753 188.508 71.7784C186.374 69.3814 183.473 67.8019 180.301 67.3108C177.13 66.8197 173.887 67.4477 171.128 69.087C168.369 70.7264 166.267 73.2748 165.183 76.2949C164.098 79.3151 164.098 82.6186 165.183 85.6386V85.6386Z" stroke="#FFC3BD" stroke-linecap="round" stroke-linejoin="round"/>
<path d="M186.252 77.4057C186.252 77.4057 184.912 79.9276 179.08 81.7349C176.074 82.6967 172.924 83.1287 169.77 83.0116C169.77 83.0116 172.182 92.6946 181.491 90.2568C190.801 87.819 186.252 77.4057 186.252 77.4057Z" stroke="#FFC3BD" stroke-linecap="round" stroke-linejoin="round"/>
<path d="M179.316 74.0327C179.316 74.0327 179.216 70.0187 182.868 73.4022" stroke="#FFC3BD" stroke-linecap="round" stroke-linejoin="round"/>
<path d="M172.969 76.2866C172.969 76.2866 170.658 74.1378 170.411 77.8208" stroke="#FFC3BD" stroke-linecap="round" stroke-linejoin="round"/>
<path d="M180.567 86.3636C180.567 86.3636 182.763 83.826 184.349 84.1097C185.936 84.3934 185.6 87.4249 181.129 89.0116C176.658 90.5983 174.766 88.523 174.877 86.91C174.987 85.2971 180.567 86.3636 180.567 86.3636Z" stroke="#FFC3BD" stroke-linecap="round" stroke-linejoin="round"/>
<path d="M183.729 73.0975C183.729 73.0975 188.006 71.8891 187.344 73.8593C186.682 75.8295 183.729 73.0975 183.729 73.0975Z" stroke="#FFC3BD" stroke-linecap="round" stroke-linejoin="round"/>
<path d="M169.586 78.115C169.586 78.115 165.971 78.9241 166.843 80.3374C167.715 81.7507 169.586 78.115 169.586 78.115Z" stroke="#FFC3BD" stroke-linecap="round" stroke-linejoin="round"/>
</g>
<g opacity="0.9">
<path d="M135.935 62.926C136.663 60.2473 136.67 57.4239 135.956 54.7415C135.243 52.059 133.833 49.6126 131.871 47.6496C129.908 45.6867 127.462 44.2768 124.78 43.5627C122.097 42.8485 119.274 42.8554 116.595 43.5826C113.916 44.3099 111.477 45.7316 109.524 47.7041C107.571 49.6766 106.174 52.1299 105.473 54.8158C104.773 57.5018 104.794 60.325 105.535 63.0001C106.275 65.6753 107.709 68.1073 109.692 70.0503L109.66 72.1518L123.531 75.9136L124.581 74.1063C127.296 73.4194 129.78 72.0216 131.775 70.0565C133.771 68.0915 135.206 65.6302 135.935 62.926Z" stroke="#FFC3BD" stroke-linecap="round" stroke-linejoin="round"/>
<path d="M117.409 87.7402L108.951 85.4442C108.411 85.298 107.945 84.9559 107.644 84.4848C107.343 84.0137 107.228 83.4473 107.322 82.8961L109.166 71.9785L124.029 76.0082L120.094 86.3794C119.894 86.8979 119.509 87.3239 119.013 87.5752C118.517 87.8265 117.946 87.8853 117.409 87.7402Z" stroke="#FFC3BD" stroke-linecap="round" stroke-linejoin="round"/>
<path d="M117.515 87.9923C117.115 89.4739 114.825 90.1412 112.403 89.4844C109.981 88.8277 108.336 87.0887 108.725 85.6071" stroke="#FFC3BD" stroke-linecap="round" stroke-linejoin="round"/>
<path d="M112.297 60.4514L115.828 61.4076L119.28 57.3726L119.427 66.9662L124.26 59.7631L124.66 63.6037L127.208 64.2972" stroke="#FFC3BD" stroke-linecap="round" stroke-linejoin="round"/>
<path d="M127.686 37.66L132.535 28.1662" stroke="#FFC3BD" stroke-linecap="round" stroke-linejoin="round"/>
<path d="M141.625 47.5425L149.364 44.8841" stroke="#FFC3BD" stroke-linecap="round" stroke-linejoin="round"/>
<path d="M141.346 65.4951L148.539 66.5827" stroke="#FFC3BD" stroke-linecap="round" stroke-linejoin="round"/>
<path d="M109.839 40.5601L105.935 29.259" stroke="#FFC3BD" stroke-linecap="round" stroke-linejoin="round"/>
<path d="M99.478 59.1589L94.1138 58.3498" stroke="#FFC3BD" stroke-linecap="round" stroke-linejoin="round"/>
</g>
<path d="M129.842 112.227C129.842 112.227 132.13 93.9803 144.837 98.0459C157.544 102.111 160.751 116.489 158.766 129.448C156.781 142.408 159.03 144.808 159.03 144.808C159.03 144.808 155.368 140.591 156.658 131.349C156.658 131.349 154.706 141.729 156.478 145.867C156.478 145.867 155.553 147.948 152.811 147.297C152.811 147.297 148.19 136.357 148.224 126.202C148.258 116.046 129.842 112.227 129.842 112.227Z" fill="#263238"/>
<g opacity="0.2">
<path opacity="0.2" d="M135.148 107.422C135.148 107.422 137.021 98.8758 144.574 99.431" stroke="white" stroke-linecap="round" stroke-linejoin="round"/>
<path opacity="0.2" d="M140.626 110.562C140.626 110.562 142.964 104.91 147.321 105.218C151.679 105.526 156.193 113.73 155.823 120.555C155.452 127.379 152.172 137.226 155.144 144.779" stroke="white" stroke-linecap="round" stroke-linejoin="round"/>
<path opacity="0.2" d="M143.856 113.966C143.856 113.966 149.189 112.424 150.585 117.398C151.981 122.372 150.585 133.598 150.585 133.598" stroke="white" stroke-linecap="round" stroke-linejoin="round"/>
</g>
<path d="M128.609 110.741C128.609 110.741 129.058 108.302 132.938 109.059C136.819 109.816 144.322 113.495 140.626 116.708C136.931 119.921 128.609 110.741 128.609 110.741Z" fill="#FF725E" stroke="#263238" stroke-linecap="round" stroke-linejoin="round"/>
<path d="M77.8215 209.222C86.8778 214.073 96.3714 209.071 96.3714 209.071C103.83 214.073 107.66 213.175 107.66 213.175L126.406 244.213L208.327 242.604C208.327 242.604 209.185 220.942 208.327 213.792C203.869 176.732 185.515 169.201 166.27 164.445C147.025 159.69 127.18 160.458 111.372 164.675C89.8386 170.412 77.8271 181.975 77.8271 181.975C77.8271 181.975 66.668 184.218 64.2007 190.666C64.1951 190.678 72.7467 206.491 77.8215 209.222Z" fill="#FF725E"/>
<path opacity="0.3" d="M193.83 226.678L110.732 218.267L107.659 213.175C107.659 213.175 103.829 214.073 96.3705 209.071C96.3705 209.071 89.9891 212.435 82.6992 210.972C93.5331 199.482 84.718 188.547 84.718 188.547C85.8887 188.926 86.9585 189.566 87.847 190.418C88.7356 191.269 89.42 192.311 89.8489 193.465C89.8489 193.465 89.7648 187.722 91.3349 188.547C92.905 189.371 97.778 198.433 97.778 198.433C95.3331 176.732 103.829 174.219 103.829 174.219C98.5687 189.775 111.309 211.88 130.829 216.686C150.349 221.491 175.421 219.075 175.421 219.075C173.178 216.271 173.806 210.91 173.806 210.91C175.707 213.153 182.963 216.686 182.963 216.686C180.075 209.519 185.845 203.962 185.845 203.962L193.83 226.678Z" fill="black" fill-opacity="0.7"/>
<path opacity="0.3" d="M168.232 181.986C154.617 197.126 135.461 187.033 135.461 187.033C121.678 191.911 116.681 178.027 116.558 176.771C115.908 170.238 118.952 165.556 123.646 162.258C137.867 160.342 152.322 161.103 166.264 164.501C167.638 164.838 169.006 165.191 170.363 165.572C173.077 170.193 173.705 175.913 168.232 181.986Z" fill="black" fill-opacity="0.7"/>
<path d="M77.8215 209.222C86.8778 214.073 96.3714 209.071 96.3714 209.071C103.83 214.073 107.66 213.175 107.66 213.175L126.406 244.213L208.327 242.604C208.327 242.604 209.185 220.942 208.327 213.792C203.869 176.732 185.515 169.201 166.27 164.445C147.025 159.69 127.18 160.458 111.372 164.675C89.8386 170.412 77.8271 181.975 77.8271 181.975C77.8271 181.975 66.668 184.218 64.2007 190.666C64.1951 190.678 72.7467 206.491 77.8215 209.222Z" stroke="#263238" stroke-linecap="round" stroke-linejoin="round"/>
<path d="M129.338 188.76C129.338 188.76 121.779 186.663 125.94 174.388C130.1 162.113 134.194 153.78 146.402 153.959C158.609 154.139 167.385 164.58 168.148 168.673C168.911 172.767 163.471 186.977 152.2 191.39" fill="#FF725E"/>
<path d="M129.338 188.76C129.338 188.76 121.779 186.663 125.94 174.388C130.1 162.113 134.194 153.78 146.402 153.959C158.609 154.139 167.385 164.58 168.148 168.673C168.911 172.767 163.471 186.977 152.2 191.39" stroke="#263238" stroke-linecap="round" stroke-linejoin="round"/>
<path d="M103.829 202.33C103.829 202.33 99.3822 187.807 102.747 180.388" stroke="#263238" stroke-linecap="round" stroke-linejoin="round"/>
<g opacity="0.4">
<path opacity="0.4" d="M135.932 203.306C136.024 207.557 136.619 211.783 137.704 215.895" stroke="#263238" stroke-linecap="round" stroke-linejoin="round"/>
<path opacity="0.4" d="M136.453 197.407C136.224 198.412 136.078 199.434 136.016 200.463" stroke="#263238" stroke-linecap="round" stroke-linejoin="round"/>
<path opacity="0.4" d="M147.624 216.142C147.826 216.753 148.05 217.364 148.297 217.964" stroke="#263238" stroke-linecap="round" stroke-linejoin="round"/>
<path opacity="0.4" d="M143.856 198.455C145.28 203.687 145.28 209.295 147.002 214.084" stroke="#263238" stroke-linecap="round" stroke-linejoin="round"/>
<path opacity="0.4" d="M152.867 197.407C152.867 197.407 159.815 212.396 160.998 219.321" stroke="#263238" stroke-linecap="round" stroke-linejoin="round"/>
<path opacity="0.4" d="M164.346 199.168C167.435 205.97 170.273 213.024 171.899 220.331" stroke="#263238" stroke-linecap="round" stroke-linejoin="round"/>
<path opacity="0.4" d="M161.738 193.711C162.299 194.833 162.859 195.954 163.386 197.076" stroke="#263238" stroke-linecap="round" stroke-linejoin="round"/>
<path opacity="0.4" d="M129.842 194.895C127.831 201.59 126.906 208.565 127.1 215.553" stroke="#263238" stroke-linecap="round" stroke-linejoin="round"/>
<path opacity="0.4" d="M119.143 196.47C117.354 201.848 116.606 207.518 116.939 213.175" stroke="#263238" stroke-linecap="round" stroke-linejoin="round"/>
<path opacity="0.4" d="M122.721 189.422C121.667 190.832 120.792 192.367 120.113 193.992" stroke="#263238" stroke-linecap="round" stroke-linejoin="round"/>
<path opacity="0.4" d="M115.15 182.025C115.15 182.025 107.658 190.605 106.739 200.659" stroke="#263238" stroke-linecap="round" stroke-linejoin="round"/>
<path opacity="0.4" d="M175.729 197.637C176.25 198.617 176.715 199.626 177.12 200.659" stroke="#263238" stroke-linecap="round" stroke-linejoin="round"/>
<path opacity="0.4" d="M164.576 184.206C168.512 187.41 171.884 191.25 174.552 195.567" stroke="#263238" stroke-linecap="round" stroke-linejoin="round"/>
<path opacity="0.4" d="M169.724 176.485C169.724 176.485 178.135 177.887 181.853 182.765" stroke="#263238" stroke-linecap="round" stroke-linejoin="round"/>
<path opacity="0.4" d="M169.724 168.673C169.724 168.673 175.836 167.978 180.888 170.423" stroke="#263238" stroke-linecap="round" stroke-linejoin="round"/>
<path opacity="0.4" d="M110.67 174.848C111.647 174.557 112.658 174.403 113.676 174.388" stroke="#263238" stroke-linecap="round" stroke-linejoin="round"/>
<path opacity="0.4" d="M105.136 177.444C106.189 176.743 107.304 176.138 108.467 175.638" stroke="#263238" stroke-linecap="round" stroke-linejoin="round"/>
<path opacity="0.4" d="M103.066 174.242C99.4773 173.894 86.877 183.292 86.877 183.292C85.7641 183.178 84.6398 183.323 83.5927 183.717C82.5456 184.112 81.6044 184.744 80.8433 185.564" stroke="#263238" stroke-linecap="round" stroke-linejoin="round"/>
<path opacity="0.4" d="M99.6234 190.425L95.485 192.825C95.485 192.825 93.2419 196.582 89.8325 196.47" stroke="#263238" stroke-linecap="round" stroke-linejoin="round"/>
<path opacity="0.4" d="M101.541 203.985C101.541 203.985 99.6459 205.14 98.1767 204.82C98.1767 204.82 91.6999 209.385 88.083 207.758" stroke="#263238" stroke-linecap="round" stroke-linejoin="round"/>
</g>
<g opacity="0.4">
<path opacity="0.4" d="M136.454 186.612C136.454 186.612 134.816 188.681 137.704 191.345" stroke="#263238" stroke-linecap="round" stroke-linejoin="round"/>
<path opacity="0.4" d="M146.177 189.511C146.367 190.105 146.443 190.729 146.401 191.351" stroke="#263238" stroke-linecap="round" stroke-linejoin="round"/>
<path opacity="0.4" d="M143.771 185.564C144.349 186.193 144.862 186.878 145.302 187.61" stroke="#263238" stroke-linecap="round" stroke-linejoin="round"/>
<path opacity="0.4" d="M150.601 181.139C150.601 181.139 153.875 181.879 155.143 186.612" stroke="#263238" stroke-linecap="round" stroke-linejoin="round"/>
<path opacity="0.4" d="M161.542 177.567C162.005 178.45 162.343 179.394 162.545 180.371" stroke="#263238" stroke-linecap="round" stroke-linejoin="round"/>
<path opacity="0.4" d="M155.822 173.406C157.404 173.646 158.871 174.38 160.011 175.504" stroke="#263238" stroke-linecap="round" stroke-linejoin="round"/>
<path opacity="0.4" d="M156.932 164.434C156.932 164.434 161.889 161.597 165.904 167.799" stroke="#263238" stroke-linecap="round" stroke-linejoin="round"/>
<path opacity="0.4" d="M152.872 158.49C153.595 157.542 154.936 157.24 156.057 157.189" stroke="#263238" stroke-linecap="round" stroke-linejoin="round"/>
<path opacity="0.4" d="M129.842 186.612C129.842 186.612 129.068 184.15 130.963 182.765" stroke="#263238" stroke-linecap="round" stroke-linejoin="round"/>
</g>
<path d="M263 234.658V275.459H10.7373L10.8775 203.984L43.4912 207.955L106.369 215.603L203.263 227.391L253.019 233.441L263 234.658Z" fill="#FFC3BD"/>
<path opacity="0.4" d="M249.307 243.041C241.938 252.277 169.399 249.378 165.754 246.967C163.156 245.395 160.335 244.226 157.387 243.501C157.387 243.501 140.2 245.666 136.942 243.804C133.684 241.942 126.882 242.621 126.882 242.621L110.715 249.21L23.9097 237.675L44.6578 230.503C44.6578 230.503 31.8612 229.185 29.3827 224.761C26.9041 220.336 43.497 207.938 43.497 207.938L106.375 215.587L83.6698 217.544L71.6583 223.045L103.162 229.022L138.49 227.609L203.285 227.374L253.041 233.424C253.092 236.037 252.268 239.324 249.307 243.041Z" fill="#FF725E"/>
<path d="M10.8779 203.984L263.001 234.658" stroke="#263238" stroke-linecap="round" stroke-linejoin="round"/>
<path d="M116.227 246.793L33.7734 236.054L63.432 223.061L145.892 233.806L116.227 246.793Z" fill="#FF725E" stroke="#263238" stroke-linecap="round" stroke-linejoin="round"/>
<path d="M100.907 227.946L77.8208 239.851L38.4499 234.927L36.7676 233.15L38.4106 232.387L61.5756 221.632C68.1312 219.544 75.1172 219.198 81.847 220.628C87.6036 221.931 93.1782 223.937 98.4455 226.6C100.027 227.413 100.907 227.946 100.907 227.946Z" fill="white"/>
<path opacity="0.3" d="M100.907 227.946L77.8208 239.851L38.4499 234.927L36.7676 233.15L38.4106 232.387C42.9043 231.539 47.5011 231.38 52.0427 231.916C61.34 233.088 72.0449 236.699 72.0449 236.699C72.0449 236.699 74.8487 238.707 76.1665 236.284C77.4843 233.862 83.7648 233.862 86.8994 232.864C89.9163 231.905 94.7501 227.34 98.4679 226.611C100.027 227.413 100.907 227.946 100.907 227.946Z" fill="black" fill-opacity="0.7"/>
<path d="M100.907 227.946L77.8208 239.851L38.4499 234.927L36.7676 233.15L38.4106 232.387L61.5756 221.632C68.1312 219.544 75.1172 219.198 81.847 220.628C87.6036 221.931 93.1782 223.937 98.4455 226.6C100.027 227.413 100.907 227.946 100.907 227.946Z" stroke="#263238" stroke-linecap="round" stroke-linejoin="round"/>
<path d="M143.772 231.013L142.134 233.318L116.726 244.909L77.8208 239.862L80.1872 238.639L100.935 227.957C106.274 226.272 111.846 225.445 117.444 225.506C125.923 225.54 141.803 230.402 143.626 230.968L143.772 231.013Z" fill="white"/>
<path opacity="0.3" d="M143.772 231.013L142.134 233.318L116.726 244.909L77.8208 239.862L80.1872 238.639C85.234 237.439 92.1762 236.329 97.7726 237.288C104.033 238.398 110.207 239.947 116.25 241.925C116.25 241.925 136.998 233.099 143.598 230.968L143.772 231.013Z" fill="black" fill-opacity="0.7"/>
<path d="M143.772 231.013L142.134 233.318L116.726 244.909L77.8208 239.862L80.1872 238.639L100.935 227.957C106.274 226.272 111.846 225.445 117.444 225.506C125.923 225.54 141.803 230.402 143.626 230.968L143.772 231.013Z" stroke="#263238" stroke-linecap="round" stroke-linejoin="round"/>
<path d="M77.8208 239.851C77.8208 239.851 83.7032 237.484 94.4081 237.198C105.113 236.912 116.25 241.914 116.25 241.914L141.944 231.49" stroke="#263238" stroke-linecap="round" stroke-linejoin="round"/>
<path d="M84.7188 239.054C95.4104 239.154 106.042 240.663 116.34 243.54L127.101 239.015" stroke="#263238" stroke-linecap="round" stroke-linejoin="round"/>
<path d="M36.7397 233.15C36.7397 233.15 42.8744 230.492 57.5776 232.488C72.2807 234.484 77.1368 239.015 77.1368 239.015" stroke="#263238" stroke-linecap="round" stroke-linejoin="round"/>
<path d="M37.8223 234.277C37.8223 234.277 44.3046 232.639 56.2937 234.277C68.2827 235.914 75.7071 239.015 75.7071 239.015" stroke="#263238" stroke-linecap="round" stroke-linejoin="round"/>
<g opacity="0.4">
<path opacity="0.4" d="M80.6414 235.611C80.6414 235.611 78.1684 235.561 78.4881 234.658C78.8077 233.755 76.0656 233.862 75.2188 233.088C74.3721 232.314 73.1496 232.179 72.4879 231.748C71.8262 231.316 73.4861 231.249 71.1533 230.503C68.8206 229.757 68.2318 230.996 65.9046 230.166C63.5775 229.336 67.1888 229.28 63.8354 229.045C60.4821 228.809 62.2148 229.213 59.0858 229.045C55.9567 228.877 56.1811 229.768 55.2951 229.045C54.4091 228.321 46.4351 229.819 46.4351 229.819" stroke="#263238" stroke-linecap="round" stroke-linejoin="round"/>
<path opacity="0.4" d="M85.2785 233.329L83.4055 232.488C83.1588 232.376 82.8784 232.224 82.8448 231.961C82.8167 231.798 82.884 231.613 82.7999 231.473C82.7158 231.333 82.5139 231.305 82.3457 231.299L80.6634 231.215C80.5061 230.93 80.2859 230.685 80.0197 230.499C79.7534 230.312 79.4481 230.189 79.1269 230.138C78.4853 230.041 77.849 229.912 77.2203 229.751C76.805 229.588 76.4052 229.387 76.0259 229.151C73.2357 227.626 70.1104 226.817 66.9304 226.796L67.7155 226.235C65.5484 225.968 63.3488 226.206 61.2892 226.931C61.3918 226.837 61.4734 226.723 61.5285 226.595C61.5836 226.467 61.611 226.329 61.6088 226.191L54.3862 226.841" stroke="#263238" stroke-linecap="round" stroke-linejoin="round"/>
<path opacity="0.4" d="M90.0111 231.417C89.8621 231.423 89.7134 231.398 89.5745 231.344C89.4355 231.29 89.3093 231.208 89.2039 231.102C89.0985 230.997 89.0161 230.871 88.962 230.732C88.9079 230.593 88.8832 230.444 88.8895 230.295C88.9344 230.163 88.9344 230.019 88.8895 229.886C88.7774 229.69 88.4858 229.74 88.2671 229.684C87.7063 229.538 87.6559 228.697 87.2185 228.288C86.9499 228.088 86.6319 227.966 86.2988 227.934L81.7623 227.138C81.4603 227.115 81.1716 227.004 80.9324 226.819C80.7473 226.645 80.6576 226.387 80.4782 226.202C80.14 225.944 79.7187 225.82 79.295 225.854L74.9266 225.691C74.6056 225.703 74.2865 225.637 73.9958 225.501C73.8524 225.43 73.7385 225.31 73.6739 225.164C73.6094 225.017 73.5982 224.853 73.6425 224.699C71.9041 223.947 69.9583 223.886 68.0686 223.852C65.7283 223.818 63.3881 223.818 61.0479 223.852" stroke="#263238" stroke-linecap="round" stroke-linejoin="round"/>
<path opacity="0.4" d="M89.7651 235.213C91.5205 234.586 93.3553 234.208 95.2157 234.092C95.4048 234.064 95.5979 234.085 95.7765 234.153C95.93 234.254 96.0779 234.362 96.2195 234.479C96.4762 234.613 96.7661 234.672 97.055 234.647L101.861 234.703C101.894 234.849 101.922 234.994 101.956 235.14H107.093L107.199 235.594L111.685 235.544C111.81 235.527 111.936 235.553 112.044 235.617C112.162 235.701 112.196 235.852 112.268 235.981C112.526 236.469 113.182 236.542 113.732 236.587C115.151 236.734 116.518 237.202 117.73 237.955" stroke="#263238" stroke-linecap="round" stroke-linejoin="round"/>
<path opacity="0.4" d="M96.3984 231.978L99.292 231.254C99.4073 231.209 99.5355 231.209 99.6508 231.254C99.791 231.316 99.8471 231.49 99.9536 231.596C100.043 231.666 100.146 231.717 100.256 231.745C100.366 231.773 100.481 231.778 100.593 231.759C101.441 231.729 102.278 231.553 103.066 231.237C103.402 231.078 103.753 230.954 104.114 230.867C104.758 230.811 105.406 230.893 106.015 231.108C107.203 231.414 108.419 231.593 109.644 231.641C110.44 231.669 111.242 231.641 112.032 231.72C112.886 231.831 113.729 232.007 114.556 232.247L117.881 233.122C119.922 233.682 122.014 234.215 123.741 235.432" stroke="#263238" stroke-linecap="round" stroke-linejoin="round"/>
<path opacity="0.4" d="M100.661 229.443L103.425 229.28C104.375 228.675 105.463 228.32 106.588 228.248C107.303 228.217 108.02 228.247 108.73 228.338L111.461 228.596C112.898 228.783 114.35 228.83 115.796 228.736C115.796 229.112 116.295 229.23 116.67 229.213L118.964 229.123C118.955 229.286 118.987 229.448 119.055 229.595C119.123 229.743 119.227 229.872 119.356 229.97C119.549 230.101 119.764 230.195 119.99 230.25C121.714 230.756 123.515 230.946 125.306 230.811C125.541 230.768 125.784 230.791 126.007 230.878C126.158 230.981 126.3 231.096 126.433 231.221C126.731 231.405 127.063 231.527 127.409 231.579C128.565 231.851 129.646 232.374 130.577 233.11L130.465 232.37" stroke="#263238" stroke-linecap="round" stroke-linejoin="round"/>
<path opacity="0.4" d="M135.82 230.918C134.962 231.422 134.042 230.441 133.167 229.976C132.293 229.51 131.3 229.572 130.364 229.488C128.171 229.297 126.107 228.4 123.954 227.918C122.289 227.588 120.602 227.384 118.907 227.306L113.569 226.942" stroke="#263238" stroke-linecap="round" stroke-linejoin="round"/>
</g>
<path d="M88.0321 203.211C85.1779 213.125 71.9271 217.734 71.9271 217.734C71.9271 217.734 54.0277 224.536 52.8613 207.792C52.8613 207.792 53.7529 199.611 59.097 196.577C59.097 196.577 62.9774 188.872 68.8317 185.575" fill="#FF725E"/>
<path opacity="0.3" d="M84.3653 209.598C79.4362 215.121 71.9277 217.734 71.9277 217.734C71.9277 217.734 54.2974 224.435 52.8843 208.173L54.6675 204.809C54.6675 204.809 55.7273 197.85 61.3966 197.625C67.0659 197.401 71.8099 199.252 72.8473 206.261C73.6884 211.953 71.9837 213.871 71.322 214.392C72.4436 213.607 76.8623 209.85 73.8791 200.783C74.6092 200.53 75.4055 200.546 76.125 200.827C76.8445 201.109 77.4399 201.638 77.8044 202.319C79.1783 204.747 77.1932 213.534 77.1259 213.843C79.6384 212.604 82.0578 211.186 84.3653 209.598Z" fill="black" fill-opacity="0.7"/>
<path d="M88.0321 203.211C85.1779 213.125 71.9271 217.734 71.9271 217.734C71.9271 217.734 54.0277 224.536 52.8613 207.792C52.8613 207.792 53.7529 199.611 59.097 196.577C59.097 196.577 62.9774 188.872 68.8317 185.575" stroke="#263238" stroke-linecap="round" stroke-linejoin="round"/>
<path d="M79.1108 188.547C79.1108 188.547 89.3615 192.063 86.3446 203.799" stroke="#263238" stroke-linecap="round" stroke-linejoin="round"/>
<path d="M71.9051 208.7C71.8442 210.094 71.3635 211.437 70.5259 212.553C69.6883 213.669 68.533 214.505 67.2115 214.953L64.6096 216.708L58.1665 220.252L59.0861 222.428C63.9423 222.428 64.447 223.852 63.9423 225.361C63.4376 226.869 56.7421 227.604 55.5701 227.873C54.3982 228.142 48.8747 226.28 47.3662 225.691C45.8578 225.103 45.3924 222.114 45.3924 222.114L44.3438 209.856C44.8188 208.215 45.8702 206.801 47.3046 205.874C47.3046 205.874 48.6111 203.328 50.0355 202.74C51.4598 202.151 55.7664 203.194 55.7664 203.194C55.7664 203.194 59.4842 197.519 65.0358 198.59C70.4695 199.644 72.163 205.656 71.9051 208.7Z" fill="white" stroke="#263238" stroke-linecap="round" stroke-linejoin="round"/>
<path d="M55.7778 203.211C57.2371 203.537 58.6768 203.945 60.0901 204.433" stroke="#263238" stroke-linecap="round" stroke-linejoin="round"/>
<path d="M62.1984 224.503L65.2545 227.643L64.1723 223.398L42.2522 184.206L40.2783 185.311L62.1984 224.503Z" fill="#FF725E" stroke="#263238" stroke-linecap="round" stroke-linejoin="round"/>
<path d="M41.6524 188.631L38.8037 183.528C38.8037 183.528 38.9607 182.967 39.9252 182.406C40.3847 182.087 40.9448 181.945 41.501 182.008L47.002 191.838C46.449 191.813 45.9007 191.951 45.4263 192.237C44.9859 192.45 44.6388 192.817 44.4506 193.268L48.6619 200.794L47.9329 200.715L41.5795 189.326L41.6524 188.631Z" fill="#FF725E" stroke="#263238" stroke-linecap="round" stroke-linejoin="round"/>
<path d="M49.7944 209.452C49.7944 209.452 53.6468 211.695 54.8413 213.473C54.8413 213.473 60.533 216.708 60.533 219.164C60.533 221.301 59.1086 221.407 59.1086 221.407C59.1086 221.407 61.0376 222.568 61.3517 224.054C61.6657 225.54 60.5161 226.807 60.1797 226.673C59.8432 226.538 48.5439 223.611 45.8691 222.355C43.1943 221.099 41.3382 219.501 43.7831 212.216C43.8696 211.409 44.0581 210.616 44.3438 209.856C44.7644 208.936 46.9402 206.732 46.9402 206.732" fill="white"/>
<path d="M49.7944 209.452C49.7944 209.452 53.6468 211.695 54.8413 213.473C54.8413 213.473 60.533 216.708 60.533 219.164C60.533 221.301 59.1086 221.407 59.1086 221.407C59.1086 221.407 61.0376 222.568 61.3517 224.054C61.6657 225.54 60.5161 226.807 60.1797 226.673C59.8432 226.538 48.5439 223.611 45.8691 222.355C43.1943 221.099 41.3382 219.501 43.7831 212.216C43.8696 211.409 44.0581 210.616 44.3438 209.856C44.7644 208.936 46.9402 206.732 46.9402 206.732" stroke="#263238" stroke-linecap="round" stroke-linejoin="round"/>
<path d="M44.9385 214.073C45.359 215.396 50.232 216.568 52.0209 217.908C53.8097 219.248 59.0864 221.396 59.0864 221.396" stroke="#263238" stroke-linecap="round" stroke-linejoin="round"/>
<path d="M65.6189 206.749C65.6189 206.749 67.9629 207.641 68.8545 209.424C69.7461 211.207 69.8583 214.471 68.8545 215.34C67.8507 216.209 63.2469 220.476 62.602 221.256C61.9572 222.035 58.2506 219.473 62.602 214.005C62.602 214.005 62.4899 210.988 63.275 209.985" fill="white"/>
<path d="M65.6189 206.749C65.6189 206.749 67.9629 207.641 68.8545 209.424C69.7461 211.207 69.8583 214.471 68.8545 215.34C67.8507 216.209 63.2469 220.476 62.602 221.256C61.9572 222.035 58.2506 219.473 62.602 214.005C62.602 214.005 62.4899 210.988 63.275 209.985" stroke="#263238" stroke-linecap="round" stroke-linejoin="round"/>
<path d="M69.5783 197.082C69.5783 197.082 74.3448 198.203 75.085 204.82C75.8252 211.437 73.7504 215.514 68.8325 217.717" stroke="#263238" stroke-linecap="round" stroke-linejoin="round"/>
<g opacity="0.4">
<path opacity="0.4" d="M70.9849 190.706C72.2017 189.309 73.7887 187.829 75.7065 187.61" stroke="#263238" stroke-linecap="round" stroke-linejoin="round"/>
<path opacity="0.4" d="M67.7158 195.567C68.2199 194.609 68.7817 193.682 69.3981 192.792" stroke="#263238" stroke-linecap="round" stroke-linejoin="round"/>
<path opacity="0.4" d="M75.7065 201.444C75.7065 201.444 82.9123 200.463 85.5759 197.429" stroke="#263238" stroke-linecap="round" stroke-linejoin="round"/>
<path opacity="0.4" d="M81.5728 210.029C82.9027 209.424 84.0808 208.529 85.0214 207.411" stroke="#263238" stroke-linecap="round" stroke-linejoin="round"/>
<path opacity="0.4" d="M75.7065 211.762C76.8938 211.599 78.0646 211.332 79.2057 210.966" stroke="#263238" stroke-linecap="round" stroke-linejoin="round"/>
</g>
<path d="M184.472 172.672C196.248 173.345 219.873 197.295 225.2 203.211C230.527 209.127 239.219 217.97 242.023 224.968C246.329 235.651 235.563 245.475 224.908 244.909C214.254 244.342 192.076 221.396 192.076 221.396C192.076 221.396 175.158 205.633 179.812 191.39" fill="#FF725E"/>
<path opacity="0.3" d="M215.134 212.222C215.134 212.222 197.504 218.267 189.625 218.828C188.767 217.874 187.758 216.686 186.709 215.306C185.369 212.071 183.014 205.392 186.148 204.814C190.287 204.057 189.423 211.257 191.756 214.706C191.756 214.706 195.749 205.173 201.076 205.218C206.403 205.263 204.16 211.762 204.16 211.762C204.16 211.762 213.362 208.992 215.134 212.222Z" fill="black" fill-opacity="0.7"/>
<path opacity="0.3" d="M224.908 244.909C223.058 244.813 220.86 244.039 218.493 242.828C227.168 241.651 235.462 239.649 237.901 235.381C240.34 231.114 239.023 222.484 236.667 216.315C238.983 219.304 240.952 222.288 242.039 224.996C246.329 235.65 235.563 245.475 224.908 244.909Z" fill="black" fill-opacity="0.7"/>
<path d="M184.472 172.672C196.248 173.345 219.873 197.295 225.2 203.211C230.527 209.127 239.219 217.97 242.023 224.968C246.329 235.651 235.563 245.475 224.908 244.909C214.254 244.342 192.076 221.396 192.076 221.396C192.076 221.396 175.158 205.633 179.812 191.39" stroke="#263238" stroke-linecap="round" stroke-linejoin="round"/>
<path d="M171.905 208.734C171.905 208.734 177.367 216.921 189.849 219.125" stroke="#263238" stroke-linecap="round" stroke-linejoin="round"/>
<path d="M173.212 224.491L163.506 224.62C163.506 224.62 150.311 220.37 148.584 219.248C146.857 218.127 135.686 223.706 134.312 224.295C133.412 224.708 132.573 225.246 131.823 225.893C131.182 226.505 130.459 227.024 129.675 227.435C128.682 227.878 127.067 230.503 127.067 230.503C127.067 230.503 122.806 231.512 124.393 232.746C125.98 233.98 131.206 233.262 133.197 232.628C135.187 231.994 138.905 232.555 138.905 232.555C138.905 232.555 144.417 240.725 158.952 237.675L173.397 238.987" fill="white"/>
<path d="M173.212 224.491L163.506 224.62C163.506 224.62 150.311 220.37 148.584 219.248C146.857 218.127 135.686 223.706 134.312 224.295C133.412 224.708 132.573 225.246 131.823 225.893C131.182 226.505 130.459 227.024 129.675 227.435C128.682 227.878 127.067 230.503 127.067 230.503C127.067 230.503 122.806 231.512 124.393 232.746C125.98 233.98 131.206 233.262 133.197 232.628C135.187 231.994 138.905 232.555 138.905 232.555C138.905 232.555 144.417 240.725 158.952 237.675L173.397 238.987" stroke="#263238" stroke-linecap="round" stroke-linejoin="round"/>
<path d="M127.072 230.503C127.072 230.503 130.756 229.101 132.54 228.316C134.323 227.531 139.358 226.987 139.358 226.987C139.358 226.987 138.798 224.519 141.136 223.622C143.474 222.725 143.85 221.015 143.85 221.015" stroke="#263238" stroke-linecap="round" stroke-linejoin="round"/>
<path d="M131.822 225.893C131.822 225.893 136.555 224.262 137.699 224.25" stroke="#263238" stroke-linecap="round" stroke-linejoin="round"/>
<path opacity="0.3" d="M186.58 218.603C186.961 218.622 187.338 218.69 187.702 218.805C187.78 218.834 187.861 218.856 187.943 218.873C187.477 218.86 187.016 218.769 186.58 218.603Z" fill="black" fill-opacity="0.7"/>
<path opacity="0.3" d="M215.134 212.222C215.134 212.222 202.578 216.517 193.926 218.211C199.606 216.753 207.67 213.663 215.134 212.216V212.222Z" fill="black" fill-opacity="0.7"/>
<path d="M217.871 211.762C206.185 213.349 191.998 220.235 187.697 218.8C183.395 217.364 173.201 223.673 173.201 223.673L167.201 223.751C167.201 223.751 162.765 233.587 165.429 240.709L171.636 241.32C171.636 241.32 171.177 245.245 187.467 246.311C203.757 247.376 233.976 248.598 239.864 237.989" fill="#FF725E"/>
<path opacity="0.3" d="M239.886 237.989C233.998 248.598 203.778 247.359 187.488 246.311C171.198 245.262 171.658 241.32 171.658 241.32L167.021 240.866C166.892 237.176 167.301 230.25 171.905 227.895C171.905 227.895 171.131 238.258 171.905 239.722C172.679 241.185 193.987 245.329 205.517 244.208C216.962 243.114 233.942 241.864 237.816 235.522L239.886 237.989Z" fill="black" fill-opacity="0.7"/>
<path d="M217.871 211.762C206.185 213.349 191.998 220.235 187.697 218.8C183.395 217.364 173.201 223.673 173.201 223.673L167.201 223.751C167.201 223.751 162.765 233.587 165.429 240.709L171.636 241.32C171.636 241.32 171.177 245.245 187.467 246.311C203.757 247.376 233.976 248.598 239.864 237.989" stroke="#263238" stroke-linecap="round" stroke-linejoin="round"/>
<path d="M195.109 217.964C195.429 217.796 198.406 210.411 201.524 209.749" stroke="#263238" stroke-linecap="round" stroke-linejoin="round"/>
<path d="M171.637 241.32C171.637 240.591 169.601 231.103 171.883 227.895" stroke="#263238" stroke-linecap="round" stroke-linejoin="round"/>
<path d="M183.479 187.61C183.479 187.61 186.328 179.76 193.926 178.975" stroke="#263238" stroke-linecap="round" stroke-linejoin="round"/>
<g opacity="0.4">
<path opacity="0.4" d="M197.179 198.82C197.431 199.762 196.87 200.883 198.553 201.444C202.478 202.005 204.16 204.809 206.403 207.613C207.575 208.103 208.633 208.83 209.51 209.749" stroke="#263238" stroke-linecap="round" stroke-linejoin="round"/>
<path opacity="0.4" d="M187.938 186.612C191.103 189.548 193.821 192.932 196.007 196.655" stroke="#263238" stroke-linecap="round" stroke-linejoin="round"/>
<path opacity="0.4" d="M181.006 226.538C179.7 226.959 178.404 227.407 177.12 227.895" stroke="#263238" stroke-linecap="round" stroke-linejoin="round"/>
<path opacity="0.4" d="M223.276 216.803C211.45 222.753 198.552 222.192 185.655 224.996C185.094 224.996 183.972 225.557 183.215 225.848" stroke="#263238" stroke-linecap="round" stroke-linejoin="round"/>
<path opacity="0.4" d="M195.109 181.139C200.234 183.5 204.16 187.986 208.085 191.911C212.01 196.958 215.375 202.566 221.543 205.37C223.225 206.491 224.908 208.173 224.908 210.977C225.468 212.099 227.711 213.22 225.581 215.463" stroke="#263238" stroke-linecap="round" stroke-linejoin="round"/>
<path opacity="0.4" d="M210.261 231.686C199.113 233.407 187.897 236.772 176.424 235.202" stroke="#263238" stroke-linecap="round" stroke-linejoin="round"/>
<path opacity="0.4" d="M235.685 218.211C237.435 226.673 226.377 228.305 220.494 229.611C217.758 230.213 215.012 230.774 212.257 231.293" stroke="#263238" stroke-linecap="round" stroke-linejoin="round"/>
<path opacity="0.4" d="M181.993 243.041C179.841 242.734 177.736 242.155 175.729 241.32" stroke="#263238" stroke-linecap="round" stroke-linejoin="round"/>
<path opacity="0.4" d="M241.305 229.813C241.17 235.09 236.123 237.894 232.198 239.015C216.497 244.623 200.235 244.062 184.107 243.339" stroke="#263238" stroke-linecap="round" stroke-linejoin="round"/>
<path opacity="0.4" d="M186.776 203.188C188.8 205.302 191.436 206.362 192.411 209.323C193.006 211.134 193.572 213.349 195.742 213.859" stroke="#263238" stroke-linecap="round" stroke-linejoin="round"/>
<path opacity="0.4" d="M181.853 194.895C182.695 197.23 183.861 199.435 185.319 201.444" stroke="#263238" stroke-linecap="round" stroke-linejoin="round"/>
</g>
<path d="M136.454 184.206C136.387 184.117 136.308 184.027 136.23 183.937C133.88 181.184 128.177 179.193 126.445 178.638L125.94 178.481C125.94 178.481 129.905 148.98 148.752 158.49C167.599 168.001 139.045 187.616 136.454 184.206Z" fill="white" stroke="#263238" stroke-linecap="round" stroke-linejoin="round"/>
<path d="M136.23 183.937C133.88 181.184 128.178 179.193 126.445 178.638C126.776 177.747 127.073 177.147 127.073 177.147L143.851 167.053C143.851 167.053 144.311 178.722 136.23 183.937Z" fill="#263238"/>
<path d="M150.602 148.733C150.153 123.375 132.949 105.274 110.339 118.306C91.8624 128.961 93.8419 149.21 104.025 159.606C110.048 165.774 105.231 171.606 114.68 179.575C117.882 182.277 126.024 185.289 128.856 184.375C138.826 181.145 146.996 170.109 145.533 165.589" fill="white"/>
<path d="M150.602 148.733C150.153 123.375 132.949 105.274 110.339 118.306C91.8624 128.961 93.8419 149.21 104.025 159.606C110.048 165.774 105.231 171.606 114.68 179.575C117.882 182.277 126.024 185.289 128.856 184.375C138.826 181.145 146.996 170.109 145.533 165.589" stroke="#263238" stroke-linecap="round" stroke-linejoin="round"/>
<path d="M113.109 152.496C113.109 152.496 116.894 147.639 124.325 148.862" stroke="#263238" stroke-linecap="round" stroke-linejoin="round"/>
<path d="M105.135 155.075C105.135 155.075 101.345 153.74 100.997 155.226" stroke="#263238" stroke-linecap="round" stroke-linejoin="round"/>
<path d="M123.01 156.349C123.434 156.04 123.359 155.216 122.844 154.509C122.329 153.801 121.568 153.478 121.144 153.787C120.72 154.096 120.794 154.92 121.309 155.627C121.824 156.335 122.586 156.658 123.01 156.349Z" fill="#263238"/>
<path d="M108.645 159.645C109.155 160.352 109.206 161.176 108.802 161.485C108.398 161.793 107.613 161.485 107.12 160.756C106.626 160.027 106.559 159.225 106.963 158.916C107.367 158.608 108.135 158.939 108.645 159.645Z" fill="#263238"/>
<path d="M109.004 158.49C110.788 159.982 112.975 162.214 110.989 166.481C109.004 170.748 113.9 171.242 116.558 169.431" fill="white"/>
<path d="M109.004 158.49C110.788 159.982 112.975 162.214 110.989 166.481C109.004 170.748 113.9 171.242 116.558 169.431" stroke="#263238" stroke-linecap="round" stroke-linejoin="round"/>
<path d="M118.364 168.673C118.364 168.673 120.091 167.081 117.299 165.393L118.364 168.673Z" fill="white"/>
<path d="M118.364 168.673C118.364 168.673 120.091 167.081 117.299 165.393" stroke="#263238" stroke-linecap="round" stroke-linejoin="round"/>
<path d="M116.939 174.068C117.45 174.915 120.052 173.827 120.814 173.659C121.472 173.212 122.153 172.802 122.855 172.431C123.607 172.077 125.839 170.928 125.94 169.627" fill="white"/>
<path d="M116.939 174.068C117.45 174.915 120.052 173.827 120.814 173.659C121.472 173.212 122.153 172.802 122.855 172.431C123.607 172.077 125.839 170.928 125.94 169.627" stroke="#263238" stroke-linecap="round" stroke-linejoin="round"/>
<path d="M118.723 175.604C121.067 177.887 125.133 175.391 125.94 171.993L118.723 175.604Z" fill="white"/>
<path d="M118.723 175.604C121.067 177.887 125.133 175.391 125.94 171.993" stroke="#263238" stroke-linecap="round" stroke-linejoin="round"/>
<path d="M119.839 111.414C103.577 114.431 94.7226 125.355 94.5375 135.151C94.5375 135.151 88.3692 146.697 93.1524 155.081C93.1524 155.081 93.3879 154.789 93.7749 154.397C93.5573 152.997 93.4429 151.584 93.4328 150.168C93.4275 148.75 93.5665 147.336 93.8478 145.946C94.1535 144.564 94.6759 143.239 95.3955 142.021C94.7869 143.273 94.3764 144.612 94.1786 145.991C94.017 147.362 93.9926 148.747 94.1057 150.124C94.207 151.287 94.385 152.443 94.6384 153.583C95.53 152.843 96.7076 152.125 97.8067 152.243C98.3105 152.285 98.817 152.285 99.3208 152.243C99.0909 151.122 98.9002 149.938 98.76 148.778C98.6229 147.433 98.5724 146.08 98.6086 144.729C98.6659 143.389 98.8632 142.058 99.1974 140.759C99.0351 142.072 99.0069 143.399 99.1133 144.718C99.2453 146.026 99.4626 147.324 99.7638 148.604C100.044 149.759 100.379 150.897 100.768 152.019C102.067 151.7 103.285 151.109 104.34 150.286C104.629 150.055 104.95 149.866 105.293 149.725C105.209 149.165 105.13 148.604 105.069 148.043C104.886 146.458 104.831 144.86 104.906 143.265C104.98 141.684 105.284 140.122 105.809 138.628C105.563 140.153 105.544 141.707 105.753 143.237C105.952 144.757 106.279 146.258 106.728 147.723C106.913 148.374 107.127 149.013 107.356 149.647C108.024 149.841 108.726 149.889 109.414 149.787C110.643 149.524 111.893 149.613 113.059 149.137C112.919 148.738 112.768 148.34 112.644 147.937C112.213 146.542 111.883 145.117 111.657 143.675C111.456 142.234 111.405 140.775 111.506 139.323C111.516 140.767 111.679 142.205 111.994 143.613C112.323 145.009 112.752 146.379 113.278 147.712C113.424 148.071 113.586 148.419 113.744 148.772C114.021 148.593 114.275 148.38 114.501 148.138C116.037 146.518 118.302 145.413 119.648 146.097C119.932 146.242 120.224 146.37 120.523 146.479C120.478 146.316 120.422 146.165 120.372 146.002C119.95 144.526 119.607 143.028 119.345 141.516C119.102 139.997 118.99 138.461 119.009 136.923C119.158 138.439 119.435 139.94 119.839 141.409C120.26 142.865 120.757 144.297 121.331 145.699C121.488 146.08 121.661 146.451 121.83 146.821C122.901 146.961 123.927 146.72 124.247 145.553C124.311 145.263 124.474 145.004 124.706 144.819C124.622 144.611 124.538 144.398 124.46 144.179C124.057 143.077 123.713 141.954 123.428 140.815C123.137 139.688 122.918 138.543 122.772 137.389C122.62 136.244 122.543 135.09 122.542 133.934C122.708 135.071 122.95 136.195 123.265 137.299C123.571 138.391 123.945 139.462 124.387 140.507C124.816 141.548 125.301 142.567 125.839 143.557C126.063 143.972 126.305 144.381 126.551 144.791C126.919 144.926 127.274 145.095 127.611 145.295C127.611 145.295 124.723 138.106 125.29 131.181C125.29 131.181 128.772 145.974 139.309 151.368L141.518 155.294C141.518 155.294 145.281 152.21 148.247 154.997C151.213 157.784 152.262 155.888 152.262 155.888C152.262 155.888 156.928 146.781 151.331 129.493C145.735 112.205 132.809 109.009 119.839 111.414Z" fill="#263238"/>
<path d="M146.301 160.027C146.301 160.027 146.088 161.507 147.854 161.625C149.62 161.742 151.118 158.07 151.998 151.374C152.94 144.258 150.759 139.985 146.531 139.946C142.302 139.907 141.147 144.393 140.794 146.983C140.495 149.184 140.586 151.42 141.063 153.589" fill="white"/>
<path d="M146.301 160.027C146.301 160.027 146.088 161.507 147.854 161.625C149.62 161.742 151.118 158.07 151.998 151.374C152.94 144.258 150.759 139.985 146.531 139.946C142.302 139.907 141.147 144.393 140.794 146.983C140.495 149.184 140.586 151.42 141.063 153.589" stroke="#263238" stroke-linecap="round" stroke-linejoin="round"/>
<path d="M149.273 159.09C149.273 159.283 149.216 159.472 149.109 159.632C149.002 159.793 148.849 159.918 148.671 159.992C148.493 160.065 148.296 160.085 148.107 160.047C147.918 160.009 147.744 159.916 147.608 159.78C147.471 159.644 147.378 159.47 147.341 159.28C147.303 159.091 147.322 158.895 147.396 158.717C147.47 158.538 147.595 158.386 147.755 158.279C147.916 158.172 148.105 158.114 148.298 158.114C148.556 158.114 148.804 158.217 148.987 158.4C149.17 158.583 149.273 158.831 149.273 159.09Z" fill="#FF725E" stroke="#263238" stroke-linecap="round" stroke-linejoin="round"/>
<path d="M123.775 170.602C123.775 170.602 121.207 171.247 120.562 171.466C120.023 171.756 119.56 172.169 119.211 172.672C119.211 172.672 117.635 172.711 117.287 173.389" fill="white"/>
<path d="M123.775 170.602C123.775 170.602 121.207 171.247 120.562 171.466C120.023 171.756 119.56 172.169 119.211 172.672C119.211 172.672 117.635 172.711 117.287 173.389" stroke="#263238" stroke-linecap="round" stroke-linejoin="round"/>
<g opacity="0.2">
<path opacity="0.2" d="M117.288 126.302C117.288 126.302 114.137 132.847 115.494 142.273" stroke="white" stroke-linecap="round" stroke-linejoin="round"/>
<path opacity="0.2" d="M111.355 126.302C111.355 126.302 104.766 134.798 108.551 146.91" stroke="white" stroke-linecap="round" stroke-linejoin="round"/>
<path opacity="0.2" d="M100.981 148.666C101.087 148.105 97.7622 135.364 103.639 128.714" stroke="white" stroke-linecap="round" stroke-linejoin="round"/>
<path opacity="0.2" d="M92.4517 146.882C92.4517 146.882 94.1003 134.49 100.156 130.06" stroke="white" stroke-linecap="round" stroke-linejoin="round"/>
<path opacity="0.2" d="M126.445 126.302C126.445 126.302 133.617 138.364 143.038 137.697" stroke="white" stroke-linecap="round" stroke-linejoin="round"/>
<path opacity="0.2" d="M129.843 122.534C129.843 122.534 138.815 130.598 146.419 128.703" stroke="white" stroke-linecap="round" stroke-linejoin="round"/>
</g>
</svg>
