<svg width="254" height="255" viewBox="0 0 254 255" fill="none" xmlns="http://www.w3.org/2000/svg">
<path d="M127 254.002C56.8598 254.002 0 220.356 0 178.852C0 137.349 56.8598 103.703 127 103.703C197.14 103.703 254 137.349 254 178.852C254 220.356 197.14 254.002 127 254.002Z" fill="#FF725E"/>
<path d="M214.079 6.83051L219.425 9.99791C219.425 9.71678 219.382 9.43566 219.382 9.16077V7.3303C219.382 4.06919 221.315 2.56983 223.704 3.98173C224.758 4.65939 225.642 5.5818 226.283 6.67433C226.673 2.53859 229.392 0.764349 232.696 2.71352C236.262 4.83137 239.157 10.4977 239.157 15.3769V18.1195C239.177 19.2175 238.993 20.3094 238.615 21.3368L243.052 23.9607C244.375 24.7479 245.448 26.847 245.448 28.6587C245.448 30.4704 244.375 31.2951 243.052 30.5329L214.079 13.3902C212.756 12.6093 211.683 10.504 211.683 8.69222C211.683 6.8805 212.756 6.0496 214.079 6.83051Z" fill="#EBEBEB"/>
<path d="M179.747 16.4025L183.782 18.7889C183.758 18.5816 183.746 18.373 183.746 18.1642V16.7773C183.746 14.3158 185.209 13.1851 187.007 14.2784C187.803 14.788 188.469 15.4838 188.951 16.3087C189.25 13.1851 191.298 11.8481 193.791 13.3225C196.486 14.9156 198.668 19.195 198.668 22.8747V24.9488C198.682 25.7806 198.542 26.6075 198.254 27.3853L201.606 29.3657C202.16 29.7683 202.614 30.2986 202.932 30.9138C203.25 31.529 203.422 32.212 203.435 32.9079C203.435 34.2761 202.624 34.9008 201.606 34.3136L179.747 21.3379C179.192 20.9346 178.737 20.4034 178.42 19.787C178.102 19.1706 177.93 18.4863 177.918 17.7894C177.918 16.4399 178.729 15.809 179.747 16.4025Z" fill="#EBEBEB"/>
<path d="M30.2802 26.9634C28.4996 15.7211 35.9488 5.12802 46.9184 3.30314C57.888 1.47825 68.2242 9.11258 70.0048 20.3549C71.7854 31.5972 64.3362 42.1903 53.3666 44.0152C42.397 45.8401 32.0608 38.2057 30.2802 26.9634Z" fill="#F0997A"/>
<path d="M221.869 137.535L217.517 134.961C217.517 134.961 214.926 123.922 215.956 113.989C217.407 100.032 226.374 94.7785 229.787 95.9779C233.201 97.1774 234.182 101.244 228.568 109.56C225.209 114.451 221.125 124.672 221.869 137.535Z" fill="#FF725E" fill-opacity="0.8"/>
<path opacity="0.25" d="M221.869 137.535L217.517 134.961C217.517 134.961 214.926 123.922 215.956 113.989C217.407 100.032 226.374 94.7785 229.787 95.9779C233.201 97.1774 234.182 101.244 228.568 109.56C225.209 114.451 221.125 124.672 221.869 137.535Z" fill="black"/>
<path d="M220.065 132.101H220.107C220.146 132.093 220.184 132.078 220.217 132.056C220.25 132.033 220.278 132.004 220.3 131.971C220.323 131.937 220.338 131.899 220.346 131.859C220.353 131.819 220.353 131.778 220.345 131.738C217.962 118.856 222.351 104.388 227.788 98.3652C227.822 98.3367 227.849 98.3012 227.868 98.2611C227.887 98.221 227.897 98.1772 227.898 98.1326C227.899 98.0881 227.891 98.0438 227.874 98.0027C227.857 97.9617 227.832 97.9249 227.799 97.8947C227.767 97.8646 227.729 97.8418 227.688 97.828C227.647 97.8141 227.603 97.8095 227.56 97.8144C227.517 97.8193 227.475 97.8337 227.437 97.8565C227.4 97.8793 227.368 97.91 227.343 97.9466C221.808 104.069 217.334 118.794 219.754 131.845C219.767 131.919 219.806 131.985 219.863 132.032C219.92 132.079 219.992 132.104 220.065 132.101Z" fill="white"/>
<path d="M233.275 144.271C233.964 144.634 235.792 143.022 236.323 142.634C237.187 141.954 237.869 141.06 238.304 140.036C238.792 138.868 238.913 137.573 238.651 136.331C238.514 135.673 238.331 135.025 238.103 134.394C237.896 133.769 237.688 133.145 237.493 132.52C237.252 131.926 237.128 131.289 237.127 130.646C237.225 129.34 238.31 128.372 239.291 127.522C240.383 126.591 241.504 125.386 241.419 123.824C241.275 122.615 240.745 121.488 239.913 120.619C239.139 119.707 238.231 118.92 237.524 117.951C236.968 117.282 236.654 116.437 236.634 115.558C236.676 115.019 236.826 114.494 237.073 114.015C237.648 113.018 238.141 111.973 238.548 110.892C238.865 109.78 238.743 108.424 237.871 107.681C237.485 107.415 237.051 107.232 236.594 107.14C236.138 107.049 235.669 107.052 235.213 107.15C234.342 107.287 233.511 107.622 232.781 108.13C230.422 109.636 229.185 112.647 226.685 113.84C225.69 114.221 224.672 114.536 223.637 114.784C223.116 114.912 222.626 115.149 222.199 115.481C221.772 115.814 221.417 116.234 221.156 116.714C220.309 118.701 222.181 120.987 221.614 123.074C221.12 124.948 219.431 125.704 218.566 127.385C218.206 128.127 218.089 128.968 218.23 129.784C218.371 131.166 218.757 132.511 219.37 133.751C220.071 135.018 220.847 136.241 221.693 137.412L233.275 144.271Z" fill="#FF725E" fill-opacity="0.8"/>
<path opacity="0.1" d="M233.275 144.271C233.964 144.634 235.792 143.022 236.323 142.634C237.187 141.954 237.869 141.06 238.304 140.036C238.792 138.868 238.913 137.573 238.651 136.331C238.514 135.673 238.331 135.025 238.103 134.394C237.896 133.769 237.688 133.145 237.493 132.52C237.252 131.926 237.128 131.289 237.127 130.646C237.225 129.34 238.31 128.372 239.291 127.522C240.383 126.591 241.504 125.386 241.419 123.824C241.275 122.615 240.745 121.488 239.913 120.619C239.139 119.707 238.231 118.92 237.524 117.951C236.968 117.282 236.654 116.437 236.634 115.558C236.676 115.019 236.826 114.494 237.073 114.015C237.648 113.018 238.141 111.973 238.548 110.892C238.865 109.78 238.743 108.424 237.871 107.681C237.485 107.415 237.051 107.232 236.594 107.14C236.138 107.049 235.669 107.052 235.213 107.15C234.342 107.287 233.511 107.622 232.781 108.13C230.422 109.636 229.185 112.647 226.685 113.84C225.69 114.221 224.672 114.536 223.637 114.784C223.116 114.912 222.626 115.149 222.199 115.481C221.772 115.814 221.417 116.234 221.156 116.714C220.309 118.701 222.181 120.987 221.614 123.074C221.12 124.948 219.431 125.704 218.566 127.385C218.206 128.127 218.089 128.968 218.23 129.784C218.371 131.166 218.757 132.511 219.37 133.751C220.071 135.018 220.847 136.241 221.693 137.412L233.275 144.271Z" fill="black"/>
<path d="M226.611 140.711C226.651 140.707 226.69 140.696 226.726 140.678C226.762 140.659 226.794 140.633 226.82 140.602C226.846 140.57 226.866 140.534 226.878 140.495C226.89 140.456 226.895 140.414 226.892 140.373C225.788 128.129 230.763 114.284 234.676 110.136C234.725 110.075 234.75 109.998 234.745 109.919C234.741 109.84 234.707 109.766 234.652 109.712C234.596 109.657 234.523 109.626 234.446 109.625C234.369 109.624 234.294 109.652 234.237 109.705C230.25 113.935 225.173 128.01 226.313 140.43C226.32 140.506 226.355 140.577 226.41 140.628C226.465 140.68 226.537 140.709 226.611 140.711Z" fill="white"/>
<path d="M227.8 125.608H227.885C230.684 124.667 233.574 124.039 236.505 123.734C236.545 123.731 236.583 123.72 236.619 123.701C236.654 123.682 236.686 123.656 236.711 123.625C236.737 123.593 236.756 123.557 236.768 123.518C236.779 123.479 236.783 123.438 236.779 123.397C236.777 123.356 236.766 123.315 236.748 123.279C236.73 123.242 236.705 123.209 236.674 123.183C236.643 123.156 236.607 123.137 236.569 123.125C236.53 123.114 236.49 123.11 236.45 123.116C233.466 123.429 230.525 124.074 227.678 125.04C227.641 125.054 227.607 125.075 227.578 125.102C227.55 125.13 227.526 125.163 227.51 125.199C227.494 125.236 227.484 125.275 227.483 125.315C227.481 125.356 227.488 125.396 227.501 125.433C227.528 125.49 227.571 125.537 227.624 125.568C227.677 125.599 227.739 125.613 227.8 125.608Z" fill="white"/>
<path d="M27.499 139.341L32.9548 136.111C32.9548 136.111 34.2897 124.135 33.4058 114.87C32.1562 101.832 23.939 86.1325 14.1431 89.831C4.34713 93.5294 18.6357 106.792 21.8177 117.85C24.9997 128.908 27.499 139.341 27.499 139.341Z" fill="#FF725E" fill-opacity="0.8"/>
<path opacity="0.2" d="M27.499 139.341L32.9548 136.111C32.9548 136.111 34.2897 124.135 33.4058 114.87C32.1562 101.832 23.939 86.1325 14.1431 89.831C4.34713 93.5294 18.6357 106.792 21.8177 117.85C24.9997 128.908 27.499 139.341 27.499 139.341Z" fill="black"/>
<path d="M30.3691 137.979C30.3259 137.978 30.2834 137.967 30.2441 137.949C30.2047 137.93 30.1693 137.904 30.1399 137.872C30.1104 137.839 30.0875 137.801 30.0725 137.759C30.0574 137.718 30.0505 137.674 30.0521 137.629C31.0092 108.667 16.9401 94.098 16.7999 93.9543C16.7687 93.9229 16.744 93.8854 16.7271 93.8441C16.7102 93.8028 16.7015 93.7585 16.7015 93.7137C16.7015 93.669 16.7102 93.6246 16.7271 93.5833C16.744 93.5421 16.7687 93.5046 16.7999 93.4732C16.8625 93.4103 16.9468 93.375 17.0346 93.375C17.1223 93.375 17.2066 93.4103 17.2692 93.4732C17.4095 93.6169 31.6858 108.398 30.7166 137.654C30.715 137.699 30.7048 137.743 30.6864 137.784C30.668 137.825 30.6418 137.861 30.6095 137.892C30.5771 137.922 30.5392 137.945 30.4979 137.96C30.4567 137.975 30.4129 137.982 30.3691 137.979Z" fill="white"/>
<path d="M24.0666 141.352L27.9619 139.053C27.9619 139.053 28.6202 130.838 24.6884 120.849C21.2687 112.158 12.7772 104.949 8.50405 106.48C4.23089 108.01 4.33453 111.103 6.41929 114.358C8.50406 117.612 21.1589 125.359 24.0666 141.352Z" fill="#FF725E" fill-opacity="0.8"/>
<path opacity="0.1" d="M24.0666 141.352L27.9619 139.053C27.9619 139.053 28.6202 130.838 24.6884 120.849C21.2687 112.158 12.7772 104.949 8.50405 106.48C4.23089 108.01 4.33453 111.103 6.41929 114.358C8.50406 117.612 21.1589 125.359 24.0666 141.352Z" fill="black"/>
<path d="M26.1326 140.479C26.0453 140.479 25.9616 140.444 25.8998 140.38C25.8381 140.317 25.8034 140.231 25.8034 140.142C25.8826 121.831 9.1009 109.449 8.93022 109.33C8.87065 109.273 8.8332 109.196 8.82482 109.113C8.81643 109.031 8.83769 108.947 8.88464 108.879C8.9316 108.811 9.00104 108.763 9.08007 108.744C9.15909 108.724 9.24232 108.735 9.31426 108.774C9.48494 108.899 26.541 121.481 26.4618 140.142C26.4618 140.231 26.4271 140.317 26.3653 140.38C26.3036 140.444 26.2199 140.479 26.1326 140.479Z" fill="white"/>
<path d="M194.103 177.443C194.103 177.443 194.481 165.948 193.012 162.505C192.057 160.349 190.669 158.422 188.94 156.852C188.94 156.852 191.805 161.175 191.988 165.329C192.17 169.484 191.555 177.443 191.555 177.443C191.555 177.443 193.079 178.711 194.103 177.443Z" fill="#FF725E" fill-opacity="0.8"/>
<path opacity="0.1" d="M194.103 177.443C194.103 177.443 194.481 165.948 193.012 162.505C192.057 160.349 190.669 158.422 188.94 156.852C188.94 156.852 191.805 161.175 191.988 165.329C192.17 169.484 191.555 177.443 191.555 177.443C191.555 177.443 193.079 178.711 194.103 177.443Z" fill="black"/>
<path d="M194.443 180.26C194.443 180.26 193.834 180.297 193.261 179.317C193.188 178.936 193.998 167.447 197.388 163.217C200.777 158.988 207.342 157.926 207.342 157.926C207.342 157.926 200.771 160.362 198.052 166.016C195.931 170.427 195.547 179.76 195.547 179.76L194.443 180.26Z" fill="#FF725E" fill-opacity="0.8"/>
<path opacity="0.15" d="M194.443 180.26C194.443 180.26 193.834 180.297 193.261 179.317C193.188 178.936 193.998 167.447 197.388 163.217C200.777 158.988 207.342 157.926 207.342 157.926C207.342 157.926 200.771 160.362 198.052 166.016C195.931 170.427 195.547 179.76 195.547 179.76L194.443 180.26Z" fill="black"/>
<path d="M196.456 179.784C196.456 179.784 200.723 167.146 209.866 164.928C209.866 164.928 204.715 164.716 201.04 168.339C197.364 171.963 194.81 177.604 194.42 180.259C194.444 180.259 195.749 181.683 196.456 179.784Z" fill="#FF725E" fill-opacity="0.8"/>
<path opacity="0.1" d="M196.456 179.784C196.456 179.784 200.723 167.146 209.866 164.928C209.866 164.928 204.715 164.716 201.04 168.339C197.364 171.963 194.81 177.604 194.42 180.259C194.444 180.259 195.749 181.683 196.456 179.784Z" fill="black"/>
<path d="M51.3507 174.926C51.3507 174.926 52.515 162.481 54.5632 158.983C55.8881 156.795 57.6472 154.918 59.7263 153.473C59.7263 153.473 56.0688 157.727 55.3008 162.175C54.5327 166.623 54.0816 175.295 54.0816 175.295C54.0816 175.295 52.2833 176.444 51.3507 174.926Z" fill="#FF725E" fill-opacity="0.8"/>
<path opacity="0.15" d="M51.3507 174.926C51.3507 174.926 52.515 162.481 54.5632 158.983C55.8881 156.795 57.6472 154.918 59.7263 153.473C59.7263 153.473 56.0688 157.727 55.3008 162.175C54.5327 166.623 54.0816 175.295 54.0816 175.295C54.0816 175.295 52.2833 176.444 51.3507 174.926Z" fill="black"/>
<path d="M50.6011 177.914C50.6011 177.914 51.2106 178.039 52.0031 177.064C52.1372 176.671 52.8321 164.176 49.7537 159.128C46.6753 154.08 39.7444 152 39.7444 152C39.7444 152 46.4986 155.567 48.6565 162.046C50.3389 167.106 49.4794 177.245 49.4794 177.245L50.6011 177.914Z" fill="#FF725E" fill-opacity="0.8"/>
<path opacity="0.2" d="M50.6011 177.914C50.6011 177.914 51.2106 178.039 52.0031 177.064C52.1372 176.671 52.8321 164.176 49.7537 159.128C46.6753 154.08 39.7444 152 39.7444 152C39.7444 152 46.4986 155.567 48.6565 162.046C50.3389 167.106 49.4794 177.245 49.4794 177.245L50.6011 177.914Z" fill="black"/>
<path d="M48.4982 177.116C48.4982 177.116 45.6393 162.884 36.0445 159.18C36.0445 159.18 41.6221 159.686 45.0906 164.121C48.5592 168.557 50.5403 174.998 50.5769 177.915C50.6013 177.915 48.9981 179.265 48.4982 177.116Z" fill="#FF725E" fill-opacity="0.8"/>
<path opacity="0.15" d="M48.4982 177.116C48.4982 177.116 45.6393 162.884 36.0445 159.18C36.0445 159.18 41.6221 159.686 45.0906 164.121C48.5592 168.557 50.5403 174.998 50.5769 177.915C50.6013 177.915 48.9981 179.265 48.4982 177.116Z" fill="black"/>
<path d="M131.322 94.3256C136.326 94.3268 141.218 92.8071 145.379 89.9588C149.54 87.1104 152.783 83.0613 154.699 78.3236C156.614 73.5859 157.116 68.3725 156.14 63.3427C155.164 58.3128 152.754 53.6926 149.216 50.0664C145.678 46.4401 141.17 43.9707 136.262 42.9705C131.354 41.9704 126.267 42.4843 121.644 44.4474C117.021 46.4105 113.071 49.7345 110.291 53.9991C107.512 58.2636 106.029 63.2771 106.03 68.4054C106.038 75.2773 108.706 81.8654 113.447 86.7246C118.188 91.5838 124.617 94.3173 131.322 94.3256ZM131.322 43.0099C136.223 43.0099 141.014 44.4994 145.089 47.2898C149.164 50.0803 152.34 54.0465 154.215 58.687C156.091 63.3274 156.581 68.4335 155.625 73.3598C154.669 78.286 152.309 82.811 148.844 86.3626C145.378 89.9143 140.963 92.3329 136.156 93.3128C131.349 94.2927 126.367 93.7898 121.839 91.8677C117.311 89.9456 113.441 86.6906 110.719 82.5143C107.996 78.3381 106.542 73.4281 106.542 68.4054C106.549 61.6721 109.162 55.2165 113.807 50.4554C118.453 45.6943 124.752 43.0166 131.322 43.0099Z" fill="white"/>
<g opacity="0.15">
<path opacity="0.15" d="M131.322 107.657C138.899 107.658 146.306 105.357 152.606 101.044C158.906 96.7303 163.817 90.5991 166.717 83.4253C169.617 76.2515 170.376 68.3575 168.898 60.7415C167.42 53.1256 163.772 46.1299 158.414 40.6391C153.057 35.1484 146.231 31.4093 138.8 29.8947C131.368 28.3801 123.666 29.1581 116.666 32.1302C109.666 35.1023 103.684 40.1351 99.4751 46.5921C95.2665 53.049 93.0207 60.6401 93.0219 68.4052C93.0349 78.8114 97.0741 88.7876 104.254 96.1459C111.434 103.504 121.168 107.644 131.322 107.657ZM131.322 29.6717C138.797 29.6717 146.104 31.9433 152.319 36.1994C158.534 40.4555 163.378 46.5049 166.239 53.5825C169.1 60.6601 169.848 68.4481 168.39 75.9617C166.931 83.4752 163.332 90.3769 158.046 95.7939C152.761 101.211 146.026 104.9 138.695 106.394C131.364 107.889 123.765 107.122 116.859 104.19C109.953 101.259 104.05 96.294 99.8973 89.9243C95.7445 83.5546 93.5279 76.0659 93.5279 68.4052C93.5376 58.1354 97.5225 48.2892 104.608 41.0274C111.694 33.7656 121.301 29.6816 131.322 29.6717Z" fill="white"/>
</g>
<g opacity="0.3">
<path opacity="0.3" d="M131.323 102.889C137.979 102.889 144.486 100.866 150.021 97.0761C155.556 93.2858 159.869 87.8986 162.416 81.5957C164.963 75.2928 165.63 68.3574 164.331 61.6666C163.031 54.9757 159.826 48.8299 155.118 44.0064C150.411 39.1829 144.414 35.8984 137.885 34.5682C131.356 33.2381 124.589 33.922 118.439 36.5336C112.29 39.1451 107.034 43.567 103.337 49.2399C99.6394 54.9128 97.6666 61.582 97.6678 68.4041C97.6791 77.5477 101.229 86.3134 107.538 92.7783C113.847 99.2432 122.401 102.879 131.323 102.889ZM131.323 34.4373C137.878 34.4373 144.286 36.4294 149.736 40.1617C155.186 43.894 159.434 49.1989 161.943 55.4055C164.451 61.6122 165.108 68.4417 163.829 75.0307C162.55 81.6196 159.393 87.6719 154.758 92.4222C150.123 97.1725 144.218 100.408 137.789 101.718C131.359 103.029 124.696 102.356 118.639 99.7853C112.583 97.2144 107.407 92.8608 103.765 87.275C100.124 81.6892 98.1798 75.1221 98.1798 68.4041C98.1943 59.4018 101.691 50.7728 107.904 44.409C114.117 38.0452 122.539 34.4659 131.323 34.456V34.4373Z" fill="white"/>
</g>
<g opacity="0.6">
<path opacity="0.6" d="M131.322 98.7101C137.171 98.7052 142.888 96.923 147.748 93.589C152.609 90.255 156.396 85.5188 158.631 79.9792C160.866 74.4396 161.448 68.3453 160.303 62.4668C159.159 56.5883 156.339 51.1896 152.201 46.9531C148.063 42.7166 142.793 39.8327 137.055 38.6658C131.318 37.4989 125.373 38.1016 119.97 40.3975C114.567 42.6934 109.949 46.5796 106.701 51.5647C103.453 56.5498 101.72 62.4099 101.721 68.4043C101.731 76.4442 104.854 84.1516 110.404 89.8338C115.954 95.516 123.477 98.7085 131.322 98.7101ZM131.322 38.617C137.071 38.6157 142.691 40.3617 147.472 43.634C152.252 46.9063 155.978 51.558 158.179 57.0008C160.38 62.4436 160.956 68.4331 159.836 74.2117C158.715 79.9902 155.947 85.2984 151.883 89.4649C147.818 93.6313 142.639 96.4689 137.001 97.6188C131.363 98.7686 125.519 98.1791 120.207 95.9247C114.896 93.6704 110.356 89.8525 107.162 84.9539C103.968 80.0552 102.264 74.2959 102.264 68.4043C102.272 60.5078 105.336 52.937 110.783 47.3528C116.231 41.7686 123.617 38.6269 131.322 38.617Z" fill="white"/>
</g>
<path d="M110.926 67.1572C111.804 54.725 120.009 47.4219 131.322 47.4219C135.551 47.4225 139.677 48.7634 143.133 51.2609C146.589 53.7584 149.207 57.2901 150.628 61.3722V61.4284C150.695 61.6158 150.756 61.8095 150.817 62.0032C151.744 64.6687 153.337 67.0382 155.437 68.8752C158.534 71.4366 162.399 70.6432 166.136 70.2059C167.281 70.0474 168.436 69.9805 169.592 70.006C174.548 70.1997 179.455 73.542 178.413 79.2458C178.12 80.8514 177.273 82.4257 177.596 84.0188C177.919 85.6119 179.168 86.6239 180.491 87.3361C181.814 88.0483 183.277 88.5294 184.484 89.4415C185.289 90.063 185.957 90.8516 186.445 91.7559C186.932 92.6602 187.228 93.6598 187.312 94.6892C187.55 97.5193 186.063 100.643 184.136 102.592C180.22 106.447 175.267 109.013 169.915 109.958C164.014 111.101 157.815 110.807 151.835 110.233C149.563 110.015 147.306 109.663 145.075 109.177C134.919 106.953 122.697 100.562 118.015 94.2644C114.362 89.5506 111.994 83.9286 111.151 77.9714C110.664 74.3881 110.588 70.7586 110.926 67.1572Z" fill="#263238"/>
<path d="M153.365 147.746C156.663 154.574 164.801 175.109 168.032 189.316C171.049 202.616 168.141 208.964 165.593 211.032C161.582 214.262 151.817 216.311 144.197 199.686C141.813 194.489 132.84 178.446 132.84 178.446C132.84 178.446 126.196 175.99 123.91 174.154C123.91 174.154 101.752 174.816 90.9927 172.554C80.2337 170.293 73.6197 157.867 78.2525 155.78C85.7991 152.369 98.0639 149.345 115.925 148.158L153.365 147.746Z" fill="#37474F"/>
<path d="M103.622 161.095C108.469 162.245 113.522 165.412 117.606 168.105C117.363 166.642 117.409 165.145 117.74 163.7C117.896 164.826 118.238 165.916 118.752 166.924C119.24 168.13 120.179 168.755 121.306 169.348C121.306 169.348 130.584 173.596 133.303 171.71C135.473 169.93 138.145 168.913 140.923 168.811C138.606 170.41 131.889 175.339 134.272 181.056L132.815 178.432C132.815 178.432 126.171 175.977 123.885 174.14C123.885 174.14 111.498 174.508 100.751 173.752L92.8999 161.364C92.8999 161.364 96.8804 159.49 103.622 161.095Z" fill="#263238"/>
<path d="M122.447 181.743C118.71 180.681 115.644 179.619 114.418 177.333C113.193 175.046 110.334 172.585 105.659 174.834C100.349 177.333 94.4058 175.665 90.2058 175.509C86.0058 175.352 83.0798 179.163 81.6046 182.449C79.1237 187.991 83.5919 185.273 87.5115 184.555C91.4311 183.836 100.654 184.967 104.33 185.717C110.346 186.966 120.752 194.194 131.828 202.51C131.828 202.51 137.814 188.915 138.57 186.51C138.564 186.485 126.171 182.812 122.447 181.743Z" fill="#C58B8D"/>
<path d="M83.0497 179.828C84.6895 177.422 87.0973 175.367 90.2001 175.486C94.4001 175.642 100.344 177.36 105.653 174.811C110.328 172.587 113.193 175.048 114.413 177.31C115.632 179.571 118.68 180.658 122.441 181.721C126.202 182.783 138.564 186.462 138.564 186.462C138.326 187.212 138.083 187.843 137.101 190.179C131.115 187.918 116.845 183.207 105.257 181.033C92.2849 178.622 86.3354 176.554 83.0497 179.828Z" fill="#9A4A4D"/>
<path d="M165.568 211.031C163.74 213.611 156.358 215.935 149.219 213.611C141.295 211.031 133.072 204.009 129.243 200.561C129.243 200.561 129.573 195.051 136.558 187.16C140.715 188.783 144.784 190.631 148.75 192.695C153.901 202.516 161.112 199.961 163.075 203.441C166.336 209.244 165.568 211.031 165.568 211.031Z" fill="#37474F"/>
<path d="M146.831 196.619C145.657 195.186 144.297 193.925 142.789 192.871C140.309 191.306 137.647 190.067 134.864 189.185C135.381 188.523 135.943 187.844 136.553 187.148C139.398 188.26 142.216 189.485 145.008 190.822C146.422 191.497 147.775 191.89 148.976 192.946C150.059 193.897 150.976 195.029 151.689 196.295C152.031 196.813 152.215 197.424 152.219 198.05C152.164 198.515 151.99 198.957 151.713 199.331C151.552 199.631 151.31 199.877 151.016 200.04C150.722 200.203 150.389 200.276 150.055 200.249C149.612 200.079 149.237 199.763 148.988 199.349C148.294 198.444 147.574 197.513 146.831 196.619Z" fill="#263238"/>
<path d="M112.017 166.32C122.002 172.643 128.908 175.067 132.529 174.123C134.967 173.498 139.167 171.462 141.673 176.072C143.133 178.64 145.096 180.869 147.439 182.62C149.152 183.957 151.213 185.119 152.529 186.924C153.846 188.73 154.09 190.735 154.066 192.853C154.066 194.183 153.956 195.589 153.224 196.689C153.018 197.026 152.736 197.308 152.402 197.511C152.068 197.714 151.692 197.833 151.304 197.857C149.707 197.857 148.902 195.583 148.049 194.515C146.966 193.208 145.679 192.095 144.239 191.222C141.325 189.404 138.046 188.355 134.864 187.161C131.505 185.912 118.777 182.164 108.39 179.733L112.017 166.32Z" fill="#C58B8D"/>
<path d="M82.9709 154.305C69.298 157.091 71.0231 166.45 76.2655 170.779C81.0629 174.715 88.0487 175.97 95.9916 177.395C103.934 178.819 108.793 179.831 108.793 179.831C108.793 179.831 112.341 173.646 111.975 166.318C107.403 163.032 101.197 160.021 92.7547 161.289L82.9709 154.305Z" fill="#37474F"/>
<path d="M121.404 94.4297C114.443 95.2231 111.815 97.2223 109.603 104.575C107.164 112.584 99.953 137.967 99.953 137.967C97.5147 139.392 77.2705 150.693 75.515 149.569C74.7774 149.094 73.8569 146.745 73.5216 145.92C73.0322 144.701 72.6248 143.448 72.3025 142.172C72.0099 141.029 71.766 139.823 70.8882 138.973C70.6861 138.771 70.4468 138.611 70.1842 138.504C69.9216 138.397 69.6408 138.344 69.3582 138.348C68.0964 138.411 67.499 139.673 67.1759 140.81C66.7725 142.421 66.5174 144.067 66.4139 145.727C66.1518 148.413 65.9323 152.642 66.5175 154.036C67.0113 155.216 70.175 159.002 72.8267 159.777C75.4784 160.552 92.3333 153.723 102.916 150.5C108.67 148.744 109.56 147.376 110.84 144.39C112.516 140.435 120.856 118.901 120.856 118.901L121.404 94.4297Z" fill="#C58B8D"/>
<path d="M116.845 139.364L114.407 148.273C116.12 154.177 120.545 158.437 133.023 159.356C142.539 160.055 151.92 157.569 154.877 151.115C153.402 145.081 151.116 139.364 148.994 133.623C148.994 133.623 153.493 121.128 153.493 121.053C152.274 120.147 150.128 114.637 149.226 107.934C148.793 104.773 149.055 99.4937 150.616 96.2701L139.643 94.2897L126.678 93.9023C123.575 94.0773 121.368 94.3834 121.368 94.3834C119.6 96.7449 117.253 101.399 114.212 106.878C112.432 110.077 108.811 117.955 116.363 125.358C116.284 126.407 116.961 137.671 116.845 139.364Z" fill="white"/>
<g opacity="0.8">
<path opacity="0.8" d="M116.845 139.364L114.407 148.273C116.12 154.177 120.545 158.437 133.023 159.356C142.539 160.055 151.92 157.569 154.877 151.115C153.402 145.081 151.116 139.364 148.994 133.623C148.994 133.623 153.493 121.128 153.493 121.053C152.274 120.147 150.128 114.637 149.226 107.934C148.793 104.773 149.055 99.4937 150.616 96.2701L139.643 94.2897L126.678 93.9023C123.575 94.0773 121.368 94.3834 121.368 94.3834C119.6 96.7449 117.253 101.399 114.212 106.878C112.432 110.077 108.811 117.955 116.363 125.358C116.284 126.407 116.961 137.671 116.845 139.364Z" fill="white"/>
</g>
<g opacity="0.05">
<path opacity="0.05" d="M121.417 156.666C124.19 158.047 127.945 158.977 133.047 159.359C142.557 160.058 151.944 157.566 154.895 151.112C153.426 145.077 151.14 139.367 149.018 133.62C149.018 133.62 153.517 121.125 153.517 121.05C153.43 120.984 153.351 120.908 153.279 120.825L153.17 120.7C152.988 120.466 152.825 120.217 152.682 119.957C152.645 119.894 152.609 119.819 152.566 119.75C152.456 119.538 152.335 119.301 152.213 119.044C152.091 118.788 152.048 118.682 151.969 118.495C151.725 117.926 151.475 117.276 151.231 116.564C151.152 116.321 151.067 116.077 150.987 115.827V115.758C150.939 115.602 150.884 115.44 150.841 115.277C150.744 114.952 150.646 114.653 150.548 114.278C150.353 113.572 150.164 112.81 149.994 112.029C149.957 111.873 149.921 111.723 149.89 111.566L149.055 114.521C149.055 114.521 149.878 120.769 149.055 123.624C148.232 126.479 142.959 134.119 142.545 135.631C142.13 137.143 145.501 137.124 147.464 141.216C149.427 145.308 148.939 151.968 142.508 155.585C134.029 160.352 121.898 156.81 121.417 156.666Z" fill="black"/>
</g>
<path opacity="0.05" d="M141.521 120.309C141.521 120.309 140.692 123.713 135.9 125.831C133.98 126.741 131.833 127.021 129.752 126.632C127.671 126.243 125.758 125.204 124.276 123.657C124.276 123.657 127.89 131.079 136.559 127.718C142.295 125.481 141.521 120.309 141.521 120.309Z" fill="black"/>
<path d="M151.322 120.389C149.497 116.437 148.191 112.254 147.439 107.95C146.153 100.41 148.415 95.8867 148.415 95.8867C156.376 96.6926 159.448 99.0916 164.593 115.091C168.183 126.249 173.091 139.862 174.749 149.358C175.547 153.949 171.378 175.165 169.061 182.956C168.452 185.024 165.715 188.778 162.112 190.203C159.674 190.721 154.248 185.867 153.456 184.205C152.487 181.119 150.615 172.204 151.682 169.793C152.67 167.569 154.651 167.394 156.595 169.349C158.348 171.082 159.734 173.166 160.667 175.472C161.484 167.35 162.112 150.788 162.112 150.788L151.322 120.389Z" fill="#C58B8D"/>
<path d="M118.71 58.4531C116.546 59.7651 114.01 63.3948 114.272 75.0835C114.498 84.9981 117.631 87.447 119.204 88.153C120.776 88.8589 123.812 88.4279 126.763 87.9218V93.8755C126.763 93.8755 122.684 98.7297 122.94 101.454C123.197 104.177 128.829 104.827 132.651 102.166C136.473 99.5044 139.68 94.3066 139.68 94.3066L139.613 80.6249C139.613 80.6249 141.35 82.3554 144.294 79.7191C146.732 77.5387 147.543 73.8653 145.653 71.8974C143.764 69.9295 140.253 70.4605 138.911 73.2718L136.15 72.4909C136.161 71.2228 135.819 69.9777 135.165 68.9012C134.511 67.8248 133.571 66.9614 132.456 66.4122C131.913 66.162 131.353 65.9532 130.78 65.7875C124.355 63.8196 121.136 63.6884 118.71 58.4531Z" fill="#C58B8D"/>
<path d="M136.15 71.1172L138.905 71.8981V76.5461C138.173 76.5461 137.471 76.248 136.953 75.7172C136.435 75.1865 136.144 74.4667 136.144 73.7161L136.15 71.1172Z" fill="#263238"/>
<path d="M126.762 87.9229C129.871 87.5043 136.271 85.6239 137.271 83.0312C136.87 84.3434 136.087 85.4987 135.028 86.3423C133.114 88.0166 126.762 89.9096 126.762 89.9096V87.9229Z" fill="#9A4A4D"/>
<path d="M125.939 71.3555C126.003 71.8344 126.221 72.2775 126.56 72.6138C126.899 72.95 127.338 73.1598 127.807 73.2096C128.276 73.2593 128.748 73.146 129.146 72.888C129.545 72.6299 129.847 72.242 130.005 71.7865C129.396 72.2437 128.642 72.4527 127.891 72.3731C127.14 72.2934 126.444 71.9308 125.939 71.3555Z" fill="#263238"/>
<path d="M115.169 71.1593C115.3 71.6266 115.581 72.0349 115.966 72.3179C116.352 72.6008 116.82 72.7418 117.294 72.7179C117.767 72.694 118.219 72.5067 118.576 72.1863C118.933 71.8659 119.174 71.4313 119.259 70.9531C118.724 71.4958 118.012 71.8162 117.26 71.8527C116.504 71.8896 115.76 71.6431 115.169 71.1593Z" fill="#263238"/>
<path d="M128.378 67.3058L131.139 68.8676C131.335 68.4797 131.378 68.0291 131.257 67.6099C131.137 67.1908 130.863 66.8355 130.493 66.6186C130.311 66.5167 130.111 66.4536 129.904 66.4331C129.698 66.4126 129.49 66.4352 129.292 66.4994C129.095 66.5636 128.912 66.6681 128.754 66.8067C128.597 66.9453 128.469 67.1151 128.378 67.3058Z" fill="#263238"/>
<path d="M125.952 80.625L123.008 81.762C123.071 81.9647 123.174 82.1521 123.31 82.313C123.446 82.4739 123.613 82.605 123.799 82.6984C123.986 82.7917 124.189 82.8454 124.397 82.8563C124.604 82.8672 124.812 82.835 125.007 82.7616C125.404 82.6007 125.725 82.2879 125.901 81.8892C126.077 81.4905 126.096 81.0372 125.952 80.625Z" fill="#9A4A4D"/>
<path d="M115.015 67.643L118.014 66.556C117.953 66.3527 117.853 66.1642 117.72 66.0016C117.586 65.8391 117.422 65.7059 117.237 65.6102C117.052 65.5145 116.85 65.4582 116.643 65.4446C116.436 65.4311 116.228 65.4606 116.033 65.5314C115.633 65.6842 115.304 65.9879 115.115 66.3803C114.926 66.7727 114.89 67.2244 115.015 67.643Z" fill="#263238"/>
<path d="M123.007 69.8555L122.58 77.8146L118.527 76.3964L123.007 69.8555Z" fill="#9A4A4D"/>
</svg>
