<svg width="358" height="271" viewBox="0 0 358 271" fill="none" xmlns="http://www.w3.org/2000/svg">
<path d="M41.4623 104.519L44.2133 104.476C46.3995 104.443 48.335 102.493 48.368 100.29L48.4828 92.8468C48.4998 91.7458 48.0902 90.7175 47.3293 89.9507C46.5683 89.1838 45.5479 88.7711 44.4553 88.7882L44.4367 88.7885L44.4479 87.9926L44.4685 87.9923C46.6528 87.9571 48.5887 86.007 48.6227 83.805L48.7381 76.3626C48.7731 74.089 46.9664 72.2684 44.7101 72.3036L44.69 72.3045L44.7023 71.5037L44.7229 71.5034C46.909 71.4701 48.8445 69.5197 48.8775 67.3166L48.9917 59.8755C49.0088 58.7743 48.5988 57.7455 47.8383 56.979C47.0777 56.2126 46.0568 55.7996 44.9642 55.8167L42.2141 55.8587C41.121 55.8754 40.0875 56.3201 39.3025 57.1113C38.5174 57.9024 38.076 58.944 38.0595 60.0454L37.9443 67.4878C37.9268 68.5902 38.3367 69.6189 39.0973 70.3854C39.8578 71.1518 40.8787 71.5649 41.9731 71.5478L41.9885 71.548L41.9762 72.347L41.959 72.3466C40.8659 72.3634 39.8324 72.808 39.0473 73.5992C38.2623 74.3903 37.8209 75.432 37.8044 76.5334L37.6893 83.9756C37.6722 85.0767 38.0811 86.1063 38.8422 86.8733C39.6032 87.6402 40.625 88.0523 41.7171 88.0346L41.7353 88.034L41.723 88.8309L41.7047 88.8317C40.6117 88.8484 39.5781 89.293 38.7931 90.0842C38.0079 90.8754 37.5666 91.917 37.5502 93.0184L37.4349 100.461C37.4178 101.562 37.8277 102.59 38.5883 103.357C39.3493 104.124 40.3702 104.537 41.4623 104.519ZM42.0149 68.8127C41.6512 68.8184 41.2984 68.6758 41.0461 68.4215C40.7937 68.1672 40.6522 67.8117 40.6578 67.4452L40.7731 60.003C40.7853 59.2712 41.4457 58.6056 42.172 58.5933L44.9221 58.5512C45.6815 58.5398 46.2894 59.1524 46.2781 59.9177L46.1638 67.3591C46.1586 67.7298 46.0098 68.0803 45.7452 68.3469C45.4807 68.6135 45.1329 68.7634 44.7645 68.7682L44.7438 68.7686L44.7575 67.8885C44.769 67.133 44.1708 66.5302 43.4217 66.5425C43.0469 66.5483 42.7052 66.7066 42.456 66.9578C42.2066 67.2091 42.0497 67.5533 42.0438 67.931L42.0303 68.813L42.0149 68.8127ZM41.7587 85.2997C41.3913 85.3055 41.0469 85.1673 40.7909 84.9093C40.5345 84.6509 40.3973 84.3038 40.4026 83.9331L40.5179 76.4909C40.5301 75.7591 41.1905 75.0936 41.9167 75.0812L41.934 75.0815L41.921 75.9601C41.9094 76.7155 42.5076 77.3184 43.2567 77.3061C44.0063 77.2944 44.6229 76.673 44.6345 75.9177L44.6475 75.039L44.6678 75.0382C45.4273 75.0268 46.0356 75.6398 46.0243 76.4052L45.9087 83.847C45.9033 84.2178 45.7546 84.5682 45.49 84.8348C45.2254 85.1014 44.8775 85.2514 44.5103 85.2572L44.4909 85.257L44.5042 84.3746C44.5157 83.6191 43.918 83.0168 43.1684 83.0285C42.7938 83.0344 42.452 83.1926 42.2027 83.4439C41.9534 83.6952 41.7964 84.0395 41.7905 84.4171L41.7774 85.2994L41.7587 85.2997ZM40.1484 100.418L40.2637 92.976C40.2742 92.2348 40.927 91.5769 41.6626 91.5663L41.6808 91.5656L41.6668 92.447C41.6552 93.2025 42.2529 93.8048 43.0025 93.793C43.7521 93.7813 44.3687 93.1599 44.3804 92.4045L44.3944 91.5231L44.4132 91.5228C44.7805 91.517 45.124 91.6562 45.3804 91.9147C45.6369 92.1731 45.7749 92.5191 45.7693 92.8894L45.6544 100.332C45.6483 100.698 45.4957 101.058 45.2359 101.32C44.976 101.582 44.6186 101.736 44.2556 101.742L41.504 101.784C41.1367 101.79 40.7932 101.651 40.5371 101.393C40.2811 101.135 40.1432 100.789 40.1484 100.418Z" fill="#CCCCCC"/>
<path d="M312.584 105.162L315.386 105.118C317.612 105.084 319.583 103.098 319.617 100.854L319.734 93.2751C319.751 92.1539 319.334 91.1068 318.559 90.3259C317.784 89.545 316.745 89.1247 315.632 89.1421L315.613 89.1424L315.625 88.3319L315.646 88.3316C317.87 88.2958 319.842 86.3099 319.876 84.0675L319.994 76.4887C320.029 74.1733 318.189 72.3193 315.892 72.3552L315.871 72.3561L315.884 71.5406L315.905 71.5403C318.131 71.5064 320.102 69.5202 320.136 67.2767L320.252 59.6991C320.269 58.5778 319.852 57.5301 319.077 56.7496C318.303 55.969 317.263 55.5485 316.151 55.5659L313.35 55.6087C312.237 55.6257 311.184 56.0786 310.385 56.8842C309.585 57.6899 309.136 58.7505 309.119 59.8722L309.002 67.4511C308.984 68.5736 309.401 69.6212 310.176 70.4018C310.95 71.1823 311.99 71.6029 313.105 71.5855L313.12 71.5857L313.108 72.3993L313.09 72.399C311.977 72.416 310.925 72.8689 310.125 73.6745C309.326 74.4801 308.876 75.5409 308.859 76.6625L308.742 84.2413C308.725 85.3626 309.141 86.4111 309.916 87.1921C310.691 87.973 311.732 88.3927 312.844 88.3747L312.862 88.374L312.85 89.1856L312.831 89.1864C311.718 89.2034 310.666 89.6562 309.866 90.4618C309.067 91.2676 308.617 92.3283 308.6 93.4498L308.483 101.029C308.466 102.15 308.883 103.197 309.658 103.978C310.433 104.759 311.472 105.18 312.584 105.162ZM313.147 68.8003C312.777 68.8061 312.417 68.6608 312.16 68.4019C311.904 68.143 311.759 67.7809 311.765 67.4077L311.883 59.829C311.895 59.0837 312.567 58.406 313.307 58.3934L316.108 58.3506C316.881 58.339 317.5 58.9628 317.489 59.7422L317.372 67.32C317.367 67.6975 317.215 68.0544 316.946 68.3259C316.676 68.5974 316.322 68.7501 315.947 68.755L315.926 68.7553L315.94 67.8591C315.952 67.0898 315.343 66.4759 314.58 66.4884C314.198 66.4944 313.85 66.6555 313.596 66.9113C313.342 67.1672 313.183 67.5177 313.177 67.9024L313.163 68.8005L313.147 68.8003ZM312.886 85.5897C312.512 85.5955 312.161 85.4548 311.901 85.1921C311.64 84.9289 311.5 84.5755 311.505 84.198L311.623 76.6193C311.635 75.874 312.308 75.1963 313.047 75.1838L313.065 75.184L313.052 76.0788C313.04 76.848 313.649 77.4619 314.412 77.4495C315.175 77.4375 315.803 76.8048 315.815 76.0355L315.828 75.1408L315.849 75.1399C316.622 75.1283 317.242 75.7526 317.23 76.532L317.112 84.1103C317.107 84.4878 316.955 84.8447 316.686 85.1162C316.417 85.3877 316.062 85.5404 315.688 85.5464L315.669 85.5461L315.682 84.6476C315.694 83.8782 315.085 83.2648 314.322 83.2768C313.94 83.2828 313.592 83.4439 313.338 83.6998C313.084 83.9557 312.925 84.3063 312.919 84.6909L312.905 85.5893L312.886 85.5897ZM311.246 100.985L311.364 93.4067C311.374 92.6519 312.039 91.9819 312.788 91.9711L312.807 91.9704L312.793 92.868C312.781 93.6374 313.39 94.2507 314.153 94.2387C314.916 94.2268 315.544 93.594 315.556 92.8247L315.57 91.9271L315.589 91.9269C315.964 91.9209 316.313 92.0627 316.574 92.3259C316.836 92.5891 316.976 92.9414 316.97 93.3185L316.853 100.898C316.847 101.27 316.692 101.637 316.427 101.904C316.163 102.17 315.799 102.327 315.429 102.333L312.627 102.377C312.253 102.382 311.903 102.241 311.642 101.978C311.382 101.715 311.241 101.363 311.246 100.985Z" fill="#CCCCCC"/>
<rect y="103" width="358" height="168" rx="8" fill="url(#paint0_linear)"/>
<path d="M56.1138 248.712H59.4038V250H54.5178V240.27H56.1138V248.712ZM61.5505 241.264C61.2611 241.264 61.0185 241.166 60.8225 240.97C60.6265 240.774 60.5285 240.531 60.5285 240.242C60.5285 239.953 60.6265 239.71 60.8225 239.514C61.0185 239.318 61.2611 239.22 61.5505 239.22C61.8305 239.22 62.0685 239.318 62.2645 239.514C62.4605 239.71 62.5585 239.953 62.5585 240.242C62.5585 240.531 62.4605 240.774 62.2645 240.97C62.0685 241.166 61.8305 241.264 61.5505 241.264ZM62.3345 242.286V250H60.7385V242.286H62.3345ZM67.4119 248.572L69.5959 242.286H71.2899L68.3499 250H66.4459L63.5199 242.286H65.2279L67.4119 248.572ZM79.5663 245.954C79.5663 246.243 79.5476 246.505 79.5103 246.738H73.6163C73.663 247.354 73.8916 247.849 74.3023 248.222C74.713 248.595 75.217 248.782 75.8143 248.782C76.673 248.782 77.2796 248.423 77.6343 247.704H79.3563C79.123 248.413 78.6983 248.997 78.0823 249.454C77.4756 249.902 76.7196 250.126 75.8143 250.126C75.077 250.126 74.4143 249.963 73.8263 249.636C73.2476 249.3 72.7903 248.833 72.4543 248.236C72.1276 247.629 71.9643 246.929 71.9643 246.136C71.9643 245.343 72.123 244.647 72.4403 244.05C72.767 243.443 73.2196 242.977 73.7983 242.65C74.3863 242.323 75.0583 242.16 75.8143 242.16C76.5423 242.16 77.191 242.319 77.7603 242.636C78.3296 242.953 78.773 243.401 79.0903 243.98C79.4076 244.549 79.5663 245.207 79.5663 245.954ZM77.9003 245.45C77.891 244.862 77.681 244.391 77.2703 244.036C76.8596 243.681 76.351 243.504 75.7443 243.504C75.1936 243.504 74.7223 243.681 74.3303 244.036C73.9383 244.381 73.705 244.853 73.6303 245.45H77.9003ZM86.3696 240.27V250H84.7736V240.27H86.3696ZM92.357 242.16C92.9637 242.16 93.505 242.286 93.981 242.538C94.4664 242.79 94.8444 243.163 95.115 243.658C95.3857 244.153 95.521 244.75 95.521 245.45V250H93.939V245.688C93.939 244.997 93.7664 244.47 93.421 244.106C93.0757 243.733 92.6044 243.546 92.007 243.546C91.4097 243.546 90.9337 243.733 90.579 244.106C90.2337 244.47 90.061 244.997 90.061 245.688V250H88.465V242.286H90.061V243.168C90.3224 242.851 90.6537 242.603 91.055 242.426C91.4657 242.249 91.8997 242.16 92.357 242.16ZM99.4188 243.588V247.858C99.4188 248.147 99.4842 248.357 99.6148 248.488C99.7548 248.609 99.9882 248.67 100.315 248.67H101.295V250H100.035C99.3162 250 98.7655 249.832 98.3828 249.496C98.0002 249.16 97.8088 248.614 97.8088 247.858V243.588H96.8988V242.286H97.8088V240.368H99.4188V242.286H101.295V243.588H99.4188ZM109.836 245.954C109.836 246.243 109.817 246.505 109.78 246.738H103.886C103.932 247.354 104.161 247.849 104.572 248.222C104.982 248.595 105.486 248.782 106.084 248.782C106.942 248.782 107.549 248.423 107.904 247.704H109.626C109.392 248.413 108.968 248.997 108.352 249.454C107.745 249.902 106.989 250.126 106.084 250.126C105.346 250.126 104.684 249.963 104.096 249.636C103.517 249.3 103.06 248.833 102.724 248.236C102.397 247.629 102.234 246.929 102.234 246.136C102.234 245.343 102.392 244.647 102.71 244.05C103.036 243.443 103.489 242.977 104.068 242.65C104.656 242.323 105.328 242.16 106.084 242.16C106.812 242.16 107.46 242.319 108.03 242.636C108.599 242.953 109.042 243.401 109.36 243.98C109.677 244.549 109.836 245.207 109.836 245.954ZM108.17 245.45C108.16 244.862 107.95 244.391 107.54 244.036C107.129 243.681 106.62 243.504 106.014 243.504C105.463 243.504 104.992 243.681 104.6 244.036C104.208 244.381 103.974 244.853 103.9 245.45H108.17ZM113.002 243.406C113.236 243.014 113.544 242.711 113.926 242.496C114.318 242.272 114.78 242.16 115.312 242.16V243.812H114.906C114.281 243.812 113.805 243.971 113.478 244.288C113.161 244.605 113.002 245.156 113.002 245.94V250H111.406V242.286H113.002V243.406ZM116.247 246.108C116.247 245.333 116.406 244.647 116.723 244.05C117.05 243.453 117.489 242.991 118.039 242.664C118.599 242.328 119.215 242.16 119.887 242.16C120.494 242.16 121.021 242.281 121.469 242.524C121.927 242.757 122.291 243.051 122.561 243.406V242.286H124.171V250H122.561V248.852C122.291 249.216 121.922 249.519 121.455 249.762C120.989 250.005 120.457 250.126 119.859 250.126C119.197 250.126 118.59 249.958 118.039 249.622C117.489 249.277 117.05 248.801 116.723 248.194C116.406 247.578 116.247 246.883 116.247 246.108ZM122.561 246.136C122.561 245.604 122.449 245.142 122.225 244.75C122.011 244.358 121.726 244.059 121.371 243.854C121.017 243.649 120.634 243.546 120.223 243.546C119.813 243.546 119.43 243.649 119.075 243.854C118.721 244.05 118.431 244.344 118.207 244.736C117.993 245.119 117.885 245.576 117.885 246.108C117.885 246.64 117.993 247.107 118.207 247.508C118.431 247.909 118.721 248.217 119.075 248.432C119.439 248.637 119.822 248.74 120.223 248.74C120.634 248.74 121.017 248.637 121.371 248.432C121.726 248.227 122.011 247.928 122.225 247.536C122.449 247.135 122.561 246.668 122.561 246.136ZM125.736 246.136C125.736 245.343 125.894 244.647 126.212 244.05C126.538 243.443 126.986 242.977 127.556 242.65C128.125 242.323 128.778 242.16 129.516 242.16C130.449 242.16 131.219 242.384 131.826 242.832C132.442 243.271 132.857 243.901 133.072 244.722H131.35C131.21 244.339 130.986 244.041 130.678 243.826C130.37 243.611 129.982 243.504 129.516 243.504C128.862 243.504 128.34 243.737 127.948 244.204C127.565 244.661 127.374 245.305 127.374 246.136C127.374 246.967 127.565 247.615 127.948 248.082C128.34 248.549 128.862 248.782 129.516 248.782C130.44 248.782 131.051 248.376 131.35 247.564H133.072C132.848 248.348 132.428 248.973 131.812 249.44C131.196 249.897 130.43 250.126 129.516 250.126C128.778 250.126 128.125 249.963 127.556 249.636C126.986 249.3 126.538 248.833 126.212 248.236C125.894 247.629 125.736 246.929 125.736 246.136ZM136.524 243.588V247.858C136.524 248.147 136.59 248.357 136.72 248.488C136.86 248.609 137.094 248.67 137.42 248.67H138.4V250H137.14C136.422 250 135.871 249.832 135.488 249.496C135.106 249.16 134.914 248.614 134.914 247.858V243.588H134.004V242.286H134.914V240.368H136.524V242.286H138.4V243.588H136.524ZM140.683 241.264C140.394 241.264 140.151 241.166 139.955 240.97C139.759 240.774 139.661 240.531 139.661 240.242C139.661 239.953 139.759 239.71 139.955 239.514C140.151 239.318 140.394 239.22 140.683 239.22C140.963 239.22 141.201 239.318 141.397 239.514C141.593 239.71 141.691 239.953 141.691 240.242C141.691 240.531 141.593 240.774 141.397 240.97C141.201 241.166 140.963 241.264 140.683 241.264ZM141.467 242.286V250H139.871V242.286H141.467ZM146.909 250.126C146.181 250.126 145.523 249.963 144.935 249.636C144.347 249.3 143.885 248.833 143.549 248.236C143.213 247.629 143.045 246.929 143.045 246.136C143.045 245.352 143.217 244.657 143.563 244.05C143.908 243.443 144.379 242.977 144.977 242.65C145.574 242.323 146.241 242.16 146.979 242.16C147.716 242.16 148.383 242.323 148.981 242.65C149.578 242.977 150.049 243.443 150.395 244.05C150.74 244.657 150.913 245.352 150.913 246.136C150.913 246.92 150.735 247.615 150.381 248.222C150.026 248.829 149.541 249.3 148.925 249.636C148.318 249.963 147.646 250.126 146.909 250.126ZM146.909 248.74C147.319 248.74 147.702 248.642 148.057 248.446C148.421 248.25 148.715 247.956 148.939 247.564C149.163 247.172 149.275 246.696 149.275 246.136C149.275 245.576 149.167 245.105 148.953 244.722C148.738 244.33 148.453 244.036 148.099 243.84C147.744 243.644 147.361 243.546 146.951 243.546C146.54 243.546 146.157 243.644 145.803 243.84C145.457 244.036 145.182 244.33 144.977 244.722C144.771 245.105 144.669 245.576 144.669 246.136C144.669 246.967 144.879 247.611 145.299 248.068C145.728 248.516 146.265 248.74 146.909 248.74ZM156.382 242.16C156.989 242.16 157.53 242.286 158.006 242.538C158.492 242.79 158.87 243.163 159.14 243.658C159.411 244.153 159.546 244.75 159.546 245.45V250H157.964V245.688C157.964 244.997 157.792 244.47 157.446 244.106C157.101 243.733 156.63 243.546 156.032 243.546C155.435 243.546 154.959 243.733 154.604 244.106C154.259 244.47 154.086 244.997 154.086 245.688V250H152.49V242.286H154.086V243.168C154.348 242.851 154.679 242.603 155.08 242.426C155.491 242.249 155.925 242.16 156.382 242.16Z" fill="#464646"/>
<path d="M199.735 243.07C199.483 242.585 199.133 242.221 198.685 241.978C198.237 241.726 197.719 241.6 197.131 241.6C196.487 241.6 195.913 241.745 195.409 242.034C194.905 242.323 194.508 242.734 194.219 243.266C193.939 243.798 193.799 244.414 193.799 245.114C193.799 245.814 193.939 246.435 194.219 246.976C194.508 247.508 194.905 247.919 195.409 248.208C195.913 248.497 196.487 248.642 197.131 248.642C197.999 248.642 198.703 248.399 199.245 247.914C199.786 247.429 200.117 246.771 200.239 245.94H196.585V244.666H201.947V245.912C201.844 246.668 201.573 247.363 201.135 247.998C200.705 248.633 200.141 249.141 199.441 249.524C198.75 249.897 197.98 250.084 197.131 250.084C196.216 250.084 195.381 249.874 194.625 249.454C193.869 249.025 193.267 248.432 192.819 247.676C192.38 246.92 192.161 246.066 192.161 245.114C192.161 244.162 192.38 243.308 192.819 242.552C193.267 241.796 193.869 241.208 194.625 240.788C195.39 240.359 196.225 240.144 197.131 240.144C198.167 240.144 199.086 240.401 199.889 240.914C200.701 241.418 201.289 242.137 201.653 243.07H199.735ZM206.867 250.126C206.139 250.126 205.481 249.963 204.893 249.636C204.305 249.3 203.843 248.833 203.507 248.236C203.171 247.629 203.003 246.929 203.003 246.136C203.003 245.352 203.175 244.657 203.521 244.05C203.866 243.443 204.337 242.977 204.935 242.65C205.532 242.323 206.199 242.16 206.937 242.16C207.674 242.16 208.341 242.323 208.939 242.65C209.536 242.977 210.007 243.443 210.353 244.05C210.698 244.657 210.871 245.352 210.871 246.136C210.871 246.92 210.693 247.615 210.339 248.222C209.984 248.829 209.499 249.3 208.883 249.636C208.276 249.963 207.604 250.126 206.867 250.126ZM206.867 248.74C207.277 248.74 207.66 248.642 208.015 248.446C208.379 248.25 208.673 247.956 208.897 247.564C209.121 247.172 209.233 246.696 209.233 246.136C209.233 245.576 209.125 245.105 208.911 244.722C208.696 244.33 208.411 244.036 208.057 243.84C207.702 243.644 207.319 243.546 206.909 243.546C206.498 243.546 206.115 243.644 205.761 243.84C205.415 244.036 205.14 244.33 204.935 244.722C204.729 245.105 204.627 245.576 204.627 246.136C204.627 246.967 204.837 247.611 205.257 248.068C205.686 248.516 206.223 248.74 206.867 248.74ZM211.916 246.108C211.916 245.333 212.075 244.647 212.392 244.05C212.719 243.453 213.158 242.991 213.708 242.664C214.268 242.328 214.884 242.16 215.556 242.16C216.163 242.16 216.69 242.281 217.138 242.524C217.596 242.757 217.96 243.051 218.23 243.406V242.286H219.84V250H218.23V248.852C217.96 249.216 217.591 249.519 217.124 249.762C216.658 250.005 216.126 250.126 215.528 250.126C214.866 250.126 214.259 249.958 213.708 249.622C213.158 249.277 212.719 248.801 212.392 248.194C212.075 247.578 211.916 246.883 211.916 246.108ZM218.23 246.136C218.23 245.604 218.118 245.142 217.894 244.75C217.68 244.358 217.395 244.059 217.04 243.854C216.686 243.649 216.303 243.546 215.892 243.546C215.482 243.546 215.099 243.649 214.744 243.854C214.39 244.05 214.1 244.344 213.876 244.736C213.662 245.119 213.554 245.576 213.554 246.108C213.554 246.64 213.662 247.107 213.876 247.508C214.1 247.909 214.39 248.217 214.744 248.432C215.108 248.637 215.491 248.74 215.892 248.74C216.303 248.74 216.686 248.637 217.04 248.432C217.395 248.227 217.68 247.928 217.894 247.536C218.118 247.135 218.23 246.668 218.23 246.136ZM223.533 239.64V250H221.937V239.64H223.533ZM232.471 250.098C231.818 250.098 231.23 249.986 230.707 249.762C230.184 249.529 229.774 249.202 229.475 248.782C229.176 248.362 229.027 247.872 229.027 247.312H230.735C230.772 247.732 230.936 248.077 231.225 248.348C231.524 248.619 231.939 248.754 232.471 248.754C233.022 248.754 233.451 248.623 233.759 248.362C234.067 248.091 234.221 247.746 234.221 247.326C234.221 246.999 234.123 246.733 233.927 246.528C233.74 246.323 233.502 246.164 233.213 246.052C232.933 245.94 232.541 245.819 232.037 245.688C231.402 245.52 230.884 245.352 230.483 245.184C230.091 245.007 229.755 244.736 229.475 244.372C229.195 244.008 229.055 243.523 229.055 242.916C229.055 242.356 229.195 241.866 229.475 241.446C229.755 241.026 230.147 240.704 230.651 240.48C231.155 240.256 231.738 240.144 232.401 240.144C233.344 240.144 234.114 240.382 234.711 240.858C235.318 241.325 235.654 241.969 235.719 242.79H233.955C233.927 242.435 233.759 242.132 233.451 241.88C233.143 241.628 232.737 241.502 232.233 241.502C231.776 241.502 231.402 241.619 231.113 241.852C230.824 242.085 230.679 242.421 230.679 242.86C230.679 243.159 230.768 243.406 230.945 243.602C231.132 243.789 231.365 243.938 231.645 244.05C231.925 244.162 232.308 244.283 232.793 244.414C233.437 244.591 233.96 244.769 234.361 244.946C234.772 245.123 235.117 245.399 235.397 245.772C235.686 246.136 235.831 246.626 235.831 247.242C235.831 247.737 235.696 248.203 235.425 248.642C235.164 249.081 234.776 249.435 234.263 249.706C233.759 249.967 233.162 250.098 232.471 250.098ZM244.784 245.954C244.784 246.243 244.765 246.505 244.728 246.738H238.834C238.881 247.354 239.109 247.849 239.52 248.222C239.931 248.595 240.435 248.782 241.032 248.782C241.891 248.782 242.497 248.423 242.852 247.704H244.574C244.341 248.413 243.916 248.997 243.3 249.454C242.693 249.902 241.937 250.126 241.032 250.126C240.295 250.126 239.632 249.963 239.044 249.636C238.465 249.3 238.008 248.833 237.672 248.236C237.345 247.629 237.182 246.929 237.182 246.136C237.182 245.343 237.341 244.647 237.658 244.05C237.985 243.443 238.437 242.977 239.016 242.65C239.604 242.323 240.276 242.16 241.032 242.16C241.76 242.16 242.409 242.319 242.978 242.636C243.547 242.953 243.991 243.401 244.308 243.98C244.625 244.549 244.784 245.207 244.784 245.954ZM243.118 245.45C243.109 244.862 242.899 244.391 242.488 244.036C242.077 243.681 241.569 243.504 240.962 243.504C240.411 243.504 239.94 243.681 239.548 244.036C239.156 244.381 238.923 244.853 238.848 245.45H243.118ZM248.217 243.588V247.858C248.217 248.147 248.282 248.357 248.413 248.488C248.553 248.609 248.786 248.67 249.113 248.67H250.093V250H248.833C248.114 250 247.563 249.832 247.181 249.496C246.798 249.16 246.607 248.614 246.607 247.858V243.588H245.697V242.286H246.607V240.368H248.217V242.286H250.093V243.588H248.217ZM253.426 243.588V247.858C253.426 248.147 253.491 248.357 253.622 248.488C253.762 248.609 253.995 248.67 254.322 248.67H255.302V250H254.042C253.323 250 252.772 249.832 252.39 249.496C252.007 249.16 251.816 248.614 251.816 247.858V243.588H250.906V242.286H251.816V240.368H253.426V242.286H255.302V243.588H253.426ZM257.585 241.264C257.295 241.264 257.053 241.166 256.857 240.97C256.661 240.774 256.563 240.531 256.563 240.242C256.563 239.953 256.661 239.71 256.857 239.514C257.053 239.318 257.295 239.22 257.585 239.22C257.865 239.22 258.103 239.318 258.299 239.514C258.495 239.71 258.593 239.953 258.593 240.242C258.593 240.531 258.495 240.774 258.299 240.97C258.103 241.166 257.865 241.264 257.585 241.264ZM258.369 242.286V250H256.773V242.286H258.369ZM264.356 242.16C264.963 242.16 265.504 242.286 265.98 242.538C266.465 242.79 266.843 243.163 267.114 243.658C267.385 244.153 267.52 244.75 267.52 245.45V250H265.938V245.688C265.938 244.997 265.765 244.47 265.42 244.106C265.075 243.733 264.603 243.546 264.006 243.546C263.409 243.546 262.933 243.733 262.578 244.106C262.233 244.47 262.06 244.997 262.06 245.688V250H260.464V242.286H262.06V243.168C262.321 242.851 262.653 242.603 263.054 242.426C263.465 242.249 263.899 242.16 264.356 242.16ZM272.664 242.16C273.261 242.16 273.789 242.281 274.246 242.524C274.713 242.757 275.077 243.051 275.338 243.406V242.286H276.948V250.126C276.948 250.835 276.799 251.465 276.5 252.016C276.201 252.576 275.767 253.015 275.198 253.332C274.638 253.649 273.966 253.808 273.182 253.808C272.137 253.808 271.269 253.561 270.578 253.066C269.887 252.581 269.495 251.918 269.402 251.078H270.984C271.105 251.479 271.362 251.801 271.754 252.044C272.155 252.296 272.631 252.422 273.182 252.422C273.826 252.422 274.344 252.226 274.736 251.834C275.137 251.442 275.338 250.873 275.338 250.126V248.838C275.067 249.202 274.699 249.51 274.232 249.762C273.775 250.005 273.252 250.126 272.664 250.126C271.992 250.126 271.376 249.958 270.816 249.622C270.265 249.277 269.827 248.801 269.5 248.194C269.183 247.578 269.024 246.883 269.024 246.108C269.024 245.333 269.183 244.647 269.5 244.05C269.827 243.453 270.265 242.991 270.816 242.664C271.376 242.328 271.992 242.16 272.664 242.16ZM275.338 246.136C275.338 245.604 275.226 245.142 275.002 244.75C274.787 244.358 274.503 244.059 274.148 243.854C273.793 243.649 273.411 243.546 273 243.546C272.589 243.546 272.207 243.649 271.852 243.854C271.497 244.05 271.208 244.344 270.984 244.736C270.769 245.119 270.662 245.576 270.662 246.108C270.662 246.64 270.769 247.107 270.984 247.508C271.208 247.909 271.497 248.217 271.852 248.432C272.216 248.637 272.599 248.74 273 248.74C273.411 248.74 273.793 248.637 274.148 248.432C274.503 248.227 274.787 247.928 275.002 247.536C275.226 247.135 275.338 246.668 275.338 246.136Z" fill="#464646"/>
<circle cx="45" cy="245" r="4" fill="#464646"/>
<circle cx="182" cy="245" r="4" fill="#464646"/>
<path d="M75.136 142.824V145.704H79.216V150.696H74.848C74.336 153.544 73.088 155.72 71.104 157.224C69.12 158.696 66.224 159.432 62.416 159.432V161.352C62.416 162.6 62.656 163.576 63.136 164.28C63.616 164.952 64.448 165.288 65.632 165.288C66.752 165.288 67.552 164.952 68.032 164.28C68.512 163.608 68.752 162.6 68.752 161.256H76.336C76.208 164.488 75.248 167 73.456 168.792C71.696 170.584 69.152 171.48 65.824 171.48C62.24 171.48 59.488 170.552 57.568 168.696C55.68 166.808 54.736 163.992 54.736 160.248V154.056C58.064 154.056 60.512 153.992 62.08 153.864C63.68 153.704 64.864 153.4 65.632 152.952C66.432 152.472 66.96 151.72 67.216 150.696H53.824V145.704H67.456V142.824H53.824V137.304H79.216V142.824H75.136ZM93.0194 153C93.0194 147.496 94.0754 143.16 96.1874 139.992C98.3314 136.824 101.771 135.24 106.507 135.24C111.243 135.24 114.667 136.824 116.779 139.992C118.923 143.16 119.995 147.496 119.995 153C119.995 158.568 118.923 162.936 116.779 166.104C114.667 169.272 111.243 170.856 106.507 170.856C101.771 170.856 98.3314 169.272 96.1874 166.104C94.0754 162.936 93.0194 158.568 93.0194 153ZM111.931 153C111.931 149.768 111.579 147.288 110.875 145.56C110.171 143.8 108.715 142.92 106.507 142.92C104.299 142.92 102.843 143.8 102.139 145.56C101.435 147.288 101.083 149.768 101.083 153C101.083 155.176 101.211 156.984 101.467 158.424C101.723 159.832 102.235 160.984 103.003 161.88C103.803 162.744 104.971 163.176 106.507 163.176C108.043 163.176 109.195 162.744 109.963 161.88C110.763 160.984 111.291 159.832 111.547 158.424C111.803 156.984 111.931 155.176 111.931 153ZM162.345 155.88V156.356H165.957V158.204H162.205C162.037 159.492 161.664 160.5 161.085 161.228C160.525 161.956 159.704 162.479 158.621 162.796C157.557 163.113 156.138 163.272 154.365 163.272V165.484C154.365 168.004 155.466 169.264 157.669 169.264C159.834 169.264 160.917 168.051 160.917 165.624H163.269C163.25 167.491 162.756 168.9 161.785 169.852C160.814 170.804 159.433 171.28 157.641 171.28C155.793 171.28 154.384 170.767 153.413 169.74C152.461 168.713 151.985 167.276 151.985 165.428V161.48C154.113 161.48 155.681 161.415 156.689 161.284C157.716 161.135 158.462 160.836 158.929 160.388C159.396 159.921 159.694 159.193 159.825 158.204H150.725V156.356H159.937V155.852V153.332H150.725V151.456H165.957V153.332H162.345V155.88ZM189.179 152.968H179.351V159.352C179.78 158.755 180.415 158.269 181.255 157.896C182.095 157.504 183 157.308 183.971 157.308C185.52 157.308 186.78 157.635 187.751 158.288C188.722 158.923 189.412 159.753 189.823 160.78C190.252 161.788 190.467 162.861 190.467 164C190.467 165.344 190.215 166.548 189.711 167.612C189.207 168.676 188.432 169.516 187.387 170.132C186.36 170.748 185.082 171.056 183.551 171.056C181.591 171.056 180.004 170.552 178.791 169.544C177.578 168.536 176.84 167.192 176.579 165.512H179.071C179.314 166.576 179.827 167.407 180.611 168.004C181.395 168.601 182.384 168.9 183.579 168.9C185.054 168.9 186.164 168.461 186.911 167.584C187.658 166.688 188.031 165.512 188.031 164.056C188.031 162.6 187.658 161.48 186.911 160.696C186.164 159.893 185.063 159.492 183.607 159.492C182.618 159.492 181.75 159.735 181.003 160.22C180.275 160.687 179.743 161.331 179.407 162.152H176.999V150.728H189.179V152.968ZM196.905 167.472L193.769 175.004H192.061L194.105 167.472H196.905ZM199.404 160.668C199.404 157.457 199.927 154.956 200.972 153.164C202.017 151.353 203.847 150.448 206.46 150.448C209.055 150.448 210.875 151.353 211.92 153.164C212.965 154.956 213.488 157.457 213.488 160.668C213.488 163.935 212.965 166.473 211.92 168.284C210.875 170.095 209.055 171 206.46 171C203.847 171 202.017 170.095 200.972 168.284C199.927 166.473 199.404 163.935 199.404 160.668ZM210.968 160.668C210.968 159.044 210.856 157.672 210.632 156.552C210.427 155.413 209.988 154.499 209.316 153.808C208.663 153.117 207.711 152.772 206.46 152.772C205.191 152.772 204.22 153.117 203.548 153.808C202.895 154.499 202.456 155.413 202.232 156.552C202.027 157.672 201.924 159.044 201.924 160.668C201.924 162.348 202.027 163.757 202.232 164.896C202.456 166.035 202.895 166.949 203.548 167.64C204.22 168.331 205.191 168.676 206.46 168.676C207.711 168.676 208.663 168.331 209.316 167.64C209.988 166.949 210.427 166.035 210.632 164.896C210.856 163.757 210.968 162.348 210.968 160.668ZM216.986 160.668C216.986 157.457 217.509 154.956 218.554 153.164C219.599 151.353 221.429 150.448 224.042 150.448C226.637 150.448 228.457 151.353 229.502 153.164C230.547 154.956 231.07 157.457 231.07 160.668C231.07 163.935 230.547 166.473 229.502 168.284C228.457 170.095 226.637 171 224.042 171C221.429 171 219.599 170.095 218.554 168.284C217.509 166.473 216.986 163.935 216.986 160.668ZM228.55 160.668C228.55 159.044 228.438 157.672 228.214 156.552C228.009 155.413 227.57 154.499 226.898 153.808C226.245 153.117 225.293 152.772 224.042 152.772C222.773 152.772 221.802 153.117 221.13 153.808C220.477 154.499 220.038 155.413 219.814 156.552C219.609 157.672 219.506 159.044 219.506 160.668C219.506 162.348 219.609 163.757 219.814 164.896C220.038 166.035 220.477 166.949 221.13 167.64C221.802 168.331 222.773 168.676 224.042 168.676C225.293 168.676 226.245 168.331 226.898 167.64C227.57 166.949 228.009 166.035 228.214 164.896C228.438 163.757 228.55 162.348 228.55 160.668ZM234.568 160.668C234.568 157.457 235.091 154.956 236.136 153.164C237.181 151.353 239.011 150.448 241.624 150.448C244.219 150.448 246.039 151.353 247.084 153.164C248.129 154.956 248.652 157.457 248.652 160.668C248.652 163.935 248.129 166.473 247.084 168.284C246.039 170.095 244.219 171 241.624 171C239.011 171 237.181 170.095 236.136 168.284C235.091 166.473 234.568 163.935 234.568 160.668ZM246.132 160.668C246.132 159.044 246.02 157.672 245.796 156.552C245.591 155.413 245.152 154.499 244.48 153.808C243.827 153.117 242.875 152.772 241.624 152.772C240.355 152.772 239.384 153.117 238.712 153.808C238.059 154.499 237.62 155.413 237.396 156.552C237.191 157.672 237.088 159.044 237.088 160.668C237.088 162.348 237.191 163.757 237.396 164.896C237.62 166.035 238.059 166.949 238.712 167.64C239.384 168.331 240.355 168.676 241.624 168.676C242.875 168.676 243.827 168.331 244.48 167.64C245.152 166.949 245.591 166.035 245.796 164.896C246.02 163.757 246.132 162.348 246.132 160.668Z" fill="#464646"/>
<path d="M149.297 161.816H250.416V163.216H149.297V161.816Z" fill="#464646"/>
<rect x="346" y="55" width="334" height="55" rx="8" transform="rotate(-180 346 55)" fill="url(#paint1_linear)"/>
<path d="M102.58 18.9V33H98.66V25.22L96 33H92.72L90.04 25.16V33H86.12V18.9H90.86L94.4 28.06L97.86 18.9H102.58ZM115.531 27.26C115.531 27.5667 115.511 27.8733 115.471 28.18H108.051C108.091 28.7933 108.258 29.2533 108.551 29.56C108.858 29.8533 109.245 30 109.711 30C110.365 30 110.831 29.7067 111.111 29.12H115.291C115.118 29.8933 114.778 30.5867 114.271 31.2C113.778 31.8 113.151 32.2733 112.391 32.62C111.631 32.9667 110.791 33.14 109.871 33.14C108.765 33.14 107.778 32.9067 106.911 32.44C106.058 31.9733 105.385 31.3067 104.891 30.44C104.411 29.5733 104.171 28.5533 104.171 27.38C104.171 26.2067 104.411 25.1933 104.891 24.34C105.371 23.4733 106.038 22.8067 106.891 22.34C107.758 21.8733 108.751 21.64 109.871 21.64C110.978 21.64 111.958 21.8667 112.811 22.32C113.665 22.7733 114.331 23.4267 114.811 24.28C115.291 25.12 115.531 26.1133 115.531 27.26ZM111.531 26.28C111.531 25.8 111.371 25.4267 111.051 25.16C110.731 24.88 110.331 24.74 109.851 24.74C109.371 24.74 108.978 24.8733 108.671 25.14C108.365 25.3933 108.165 25.7733 108.071 26.28H111.531ZM121.056 23.76C121.496 23.12 122.029 22.6133 122.656 22.24C123.282 21.8667 123.956 21.68 124.676 21.68V25.86H123.576C122.722 25.86 122.089 26.0267 121.676 26.36C121.262 26.6933 121.056 27.2733 121.056 28.1V33H117.136V21.78H121.056V23.76ZM128.061 20.74C127.368 20.74 126.808 20.5533 126.381 20.18C125.968 19.7933 125.761 19.3133 125.761 18.74C125.761 18.1533 125.968 17.6667 126.381 17.28C126.808 16.8933 127.368 16.7 128.061 16.7C128.741 16.7 129.288 16.8933 129.701 17.28C130.128 17.6667 130.341 18.1533 130.341 18.74C130.341 19.3133 130.128 19.7933 129.701 20.18C129.288 20.5533 128.741 20.74 128.061 20.74ZM130.001 21.78V33H126.081V21.78H130.001ZM138.853 29.66V33H137.153C134.287 33 132.853 31.58 132.853 28.74V25.04H131.473V21.78H132.853V19.06H136.793V21.78H138.833V25.04H136.793V28.8C136.793 29.1067 136.86 29.3267 136.993 29.46C137.14 29.5933 137.38 29.66 137.713 29.66H138.853ZM149.311 24.44V27.7H140.251V24.44H149.311ZM161.214 25.76C162.04 25.9467 162.694 26.36 163.174 27C163.667 27.6267 163.914 28.3467 163.914 29.16C163.914 30.36 163.5 31.3 162.674 31.98C161.847 32.66 160.687 33 159.194 33H152.214V18.9H158.974C160.414 18.9 161.54 19.22 162.354 19.86C163.18 20.5 163.594 21.4 163.594 22.56C163.594 23.3867 163.374 24.08 162.934 24.64C162.507 25.1867 161.934 25.56 161.214 25.76ZM156.134 24.5H158.114C159.1 24.5 159.594 24.0933 159.594 23.28C159.594 22.44 159.1 22.02 158.114 22.02H156.134V24.5ZM158.414 29.84C159.4 29.84 159.894 29.4267 159.894 28.6C159.894 28.1733 159.76 27.8467 159.494 27.62C159.24 27.3933 158.874 27.28 158.394 27.28H156.134V29.84H158.414ZM164.992 27.38C164.992 26.22 165.198 25.2067 165.612 24.34C166.038 23.4733 166.612 22.8067 167.332 22.34C168.065 21.8733 168.878 21.64 169.772 21.64C170.545 21.64 171.212 21.7933 171.772 22.1C172.332 22.4067 172.765 22.82 173.072 23.34V21.78H176.992V33H173.072V31.44C172.765 31.96 172.325 32.3733 171.752 32.68C171.192 32.9867 170.532 33.14 169.772 33.14C168.878 33.14 168.065 32.9067 167.332 32.44C166.612 31.9733 166.038 31.3067 165.612 30.44C165.198 29.56 164.992 28.54 164.992 27.38ZM173.072 27.38C173.072 26.66 172.872 26.0933 172.472 25.68C172.085 25.2667 171.605 25.06 171.032 25.06C170.445 25.06 169.958 25.2667 169.572 25.68C169.185 26.08 168.992 26.6467 168.992 27.38C168.992 28.1 169.185 28.6733 169.572 29.1C169.958 29.5133 170.445 29.72 171.032 29.72C171.605 29.72 172.085 29.5133 172.472 29.1C172.872 28.6867 173.072 28.1133 173.072 27.38ZM184.005 33.14C182.992 33.14 182.085 32.9733 181.285 32.64C180.499 32.2933 179.872 31.8267 179.405 31.24C178.952 30.64 178.699 29.9667 178.645 29.22H182.445C182.499 29.58 182.665 29.86 182.945 30.06C183.225 30.26 183.572 30.36 183.985 30.36C184.305 30.36 184.559 30.2933 184.745 30.16C184.932 30.0267 185.025 29.8533 185.025 29.64C185.025 29.36 184.872 29.1533 184.565 29.02C184.259 28.8867 183.752 28.74 183.045 28.58C182.245 28.42 181.579 28.24 181.045 28.04C180.512 27.84 180.045 27.5133 179.645 27.06C179.259 26.6067 179.065 25.9933 179.065 25.22C179.065 24.5533 179.245 23.9533 179.605 23.42C179.965 22.8733 180.492 22.44 181.185 22.12C181.892 21.8 182.739 21.64 183.725 21.64C185.192 21.64 186.345 22 187.185 22.72C188.025 23.44 188.512 24.3867 188.645 25.56H185.105C185.039 25.2 184.879 24.9267 184.625 24.74C184.385 24.54 184.059 24.44 183.645 24.44C183.325 24.44 183.079 24.5 182.905 24.62C182.745 24.74 182.665 24.9067 182.665 25.12C182.665 25.3867 182.819 25.5933 183.125 25.74C183.432 25.8733 183.925 26.0133 184.605 26.16C185.419 26.3333 186.092 26.5267 186.625 26.74C187.172 26.9533 187.645 27.3 188.045 27.78C188.459 28.2467 188.665 28.8867 188.665 29.7C188.665 30.3533 188.472 30.94 188.085 31.46C187.712 31.98 187.172 32.3933 186.465 32.7C185.772 32.9933 184.952 33.14 184.005 33.14ZM201.313 27.26C201.313 27.5667 201.293 27.8733 201.253 28.18H193.833C193.873 28.7933 194.039 29.2533 194.333 29.56C194.639 29.8533 195.026 30 195.493 30C196.146 30 196.613 29.7067 196.893 29.12H201.073C200.899 29.8933 200.559 30.5867 200.053 31.2C199.559 31.8 198.933 32.2733 198.173 32.62C197.413 32.9667 196.573 33.14 195.653 33.14C194.546 33.14 193.559 32.9067 192.693 32.44C191.839 31.9733 191.166 31.3067 190.673 30.44C190.193 29.5733 189.953 28.5533 189.953 27.38C189.953 26.2067 190.193 25.1933 190.673 24.34C191.153 23.4733 191.819 22.8067 192.673 22.34C193.539 21.8733 194.533 21.64 195.653 21.64C196.759 21.64 197.739 21.8667 198.593 22.32C199.446 22.7733 200.113 23.4267 200.593 24.28C201.073 25.12 201.313 26.1133 201.313 27.26ZM197.313 26.28C197.313 25.8 197.153 25.4267 196.833 25.16C196.513 24.88 196.113 24.74 195.633 24.74C195.153 24.74 194.759 24.8733 194.453 25.14C194.146 25.3933 193.946 25.7733 193.853 26.28H197.313ZM202.277 27.38C202.277 26.22 202.484 25.2067 202.897 24.34C203.324 23.4733 203.904 22.8067 204.637 22.34C205.37 21.8733 206.184 21.64 207.077 21.64C207.797 21.64 208.437 21.7933 208.997 22.1C209.57 22.3933 210.017 22.8 210.337 23.32V18.2H214.277V33H210.337V31.44C210.03 31.96 209.597 32.3733 209.037 32.68C208.477 32.9867 207.817 33.14 207.057 33.14C206.164 33.14 205.35 32.9067 204.617 32.44C203.897 31.9733 203.324 31.3067 202.897 30.44C202.484 29.56 202.277 28.54 202.277 27.38ZM210.357 27.38C210.357 26.66 210.157 26.0933 209.757 25.68C209.37 25.2667 208.89 25.06 208.317 25.06C207.73 25.06 207.244 25.2667 206.857 25.68C206.47 26.08 206.277 26.6467 206.277 27.38C206.277 28.1 206.47 28.6733 206.857 29.1C207.244 29.5133 207.73 29.72 208.317 29.72C208.89 29.72 209.37 29.5133 209.757 29.1C210.157 28.6867 210.357 28.1133 210.357 27.38ZM224.259 22.04V24.34H228.759V27.32H224.259V29.86H229.359V33H220.339V18.9H229.359V22.04H224.259ZM238.636 21.68C239.929 21.68 240.956 22.1133 241.716 22.98C242.476 23.8333 242.856 24.9933 242.856 26.46V33H238.936V26.98C238.936 26.34 238.769 25.84 238.436 25.48C238.102 25.1067 237.656 24.92 237.096 24.92C236.509 24.92 236.049 25.1067 235.716 25.48C235.382 25.84 235.216 26.34 235.216 26.98V33H231.296V21.78H235.216V23.38C235.562 22.8733 236.029 22.4667 236.616 22.16C237.202 21.84 237.876 21.68 238.636 21.68ZM251.627 29.66V33H249.927C247.06 33 245.627 31.58 245.627 28.74V25.04H244.247V21.78H245.627V19.06H249.567V21.78H251.607V25.04H249.567V28.8C249.567 29.1067 249.633 29.3267 249.767 29.46C249.913 29.5933 250.153 29.66 250.487 29.66H251.627ZM257.345 23.76C257.785 23.12 258.318 22.6133 258.945 22.24C259.571 21.8667 260.245 21.68 260.965 21.68V25.86H259.865C259.011 25.86 258.378 26.0267 257.965 26.36C257.551 26.6933 257.345 27.2733 257.345 28.1V33H253.425V21.78H257.345V23.76ZM274.45 21.78L267.33 38.34H263.07L265.75 32.52L261.15 21.78H265.51L267.87 28.14L270.15 21.78H274.45Z" fill="#464646"/>
<path d="M315.5 18L317.408 23.5279H323.584L318.588 26.9443L320.496 32.4721L315.5 29.0557L310.504 32.4721L312.412 26.9443L307.416 23.5279H313.592L315.5 18Z" fill="url(#paint2_linear)"/>
<path d="M43.5 18L45.4084 23.5279H51.584L46.5878 26.9443L48.4962 32.4721L43.5 29.0557L38.5038 32.4721L40.4122 26.9443L35.416 23.5279H41.5916L43.5 18Z" fill="url(#paint3_linear)"/>
<path d="M41.5 133C41.5 128.858 44.8579 125.5 49 125.5H125C129.142 125.5 132.5 128.858 132.5 133V173C132.5 177.142 129.142 180.5 125 180.5H49C44.8579 180.5 41.5 177.142 41.5 173V133Z" stroke="#464646"/>
<path d="M41.54 205.58V202.4H47.08V217H43.52V205.58H41.54ZM49.4195 209.5C49.4195 207.207 49.8595 205.4 50.7395 204.08C51.6329 202.76 53.0662 202.1 55.0395 202.1C57.0129 202.1 58.4395 202.76 59.3195 204.08C60.2129 205.4 60.6595 207.207 60.6595 209.5C60.6595 211.82 60.2129 213.64 59.3195 214.96C58.4395 216.28 57.0129 216.94 55.0395 216.94C53.0662 216.94 51.6329 216.28 50.7395 214.96C49.8595 213.64 49.4195 211.82 49.4195 209.5ZM57.2995 209.5C57.2995 208.153 57.1529 207.12 56.8595 206.4C56.5662 205.667 55.9595 205.3 55.0395 205.3C54.1195 205.3 53.5129 205.667 53.2195 206.4C52.9262 207.12 52.7795 208.153 52.7795 209.5C52.7795 210.407 52.8329 211.16 52.9395 211.76C53.0462 212.347 53.2595 212.827 53.5795 213.2C53.9129 213.56 54.3995 213.74 55.0395 213.74C55.6795 213.74 56.1595 213.56 56.4795 213.2C56.8129 212.827 57.0329 212.347 57.1395 211.76C57.2462 211.16 57.2995 210.407 57.2995 209.5ZM62.4664 209.5C62.4664 207.207 62.9064 205.4 63.7864 204.08C64.6797 202.76 66.1131 202.1 68.0864 202.1C70.0597 202.1 71.4864 202.76 72.3664 204.08C73.2597 205.4 73.7064 207.207 73.7064 209.5C73.7064 211.82 73.2597 213.64 72.3664 214.96C71.4864 216.28 70.0597 216.94 68.0864 216.94C66.1131 216.94 64.6797 216.28 63.7864 214.96C62.9064 213.64 62.4664 211.82 62.4664 209.5ZM70.3464 209.5C70.3464 208.153 70.1997 207.12 69.9064 206.4C69.6131 205.667 69.0064 205.3 68.0864 205.3C67.1664 205.3 66.5597 205.667 66.2664 206.4C65.9731 207.12 65.8264 208.153 65.8264 209.5C65.8264 210.407 65.8797 211.16 65.9864 211.76C66.0931 212.347 66.3064 212.827 66.6264 213.2C66.9597 213.56 67.4464 213.74 68.0864 213.74C68.7264 213.74 69.2064 213.56 69.5264 213.2C69.8597 212.827 70.0797 212.347 70.1864 211.76C70.2931 211.16 70.3464 210.407 70.3464 209.5ZM75.2333 206.08C75.2333 205 75.5399 204.167 76.1533 203.58C76.7799 202.993 77.5866 202.7 78.5733 202.7C79.5599 202.7 80.3599 202.993 80.9733 203.58C81.5866 204.167 81.8933 205 81.8933 206.08C81.8933 207.16 81.5866 207.993 80.9733 208.58C80.3599 209.167 79.5599 209.46 78.5733 209.46C77.5866 209.46 76.7799 209.167 76.1533 208.58C75.5399 207.993 75.2333 207.16 75.2333 206.08ZM88.8133 202.92L81.1133 217H77.8133L85.5133 202.92H88.8133ZM78.5533 204.7C77.9133 204.7 77.5933 205.16 77.5933 206.08C77.5933 206.987 77.9133 207.44 78.5533 207.44C78.8599 207.44 79.0999 207.327 79.2733 207.1C79.4466 206.873 79.5333 206.533 79.5333 206.08C79.5333 205.16 79.2066 204.7 78.5533 204.7ZM84.7533 213.84C84.7533 212.76 85.0599 211.927 85.6733 211.34C86.2866 210.753 87.0866 210.46 88.0733 210.46C89.0599 210.46 89.8599 210.753 90.4733 211.34C91.0866 211.927 91.3933 212.76 91.3933 213.84C91.3933 214.92 91.0866 215.753 90.4733 216.34C89.8599 216.927 89.0599 217.22 88.0733 217.22C87.0866 217.22 86.2866 216.927 85.6733 216.34C85.0599 215.753 84.7533 214.92 84.7533 213.84ZM88.0533 212.46C87.7466 212.46 87.5066 212.573 87.3333 212.8C87.1733 213.027 87.0933 213.373 87.0933 213.84C87.0933 214.747 87.4133 215.2 88.0533 215.2C88.3599 215.2 88.5999 215.087 88.7733 214.86C88.9466 214.633 89.0333 214.293 89.0333 213.84C89.0333 213.387 88.9466 213.047 88.7733 212.82C88.5999 212.58 88.3599 212.46 88.0533 212.46ZM102.034 217.16C101.061 217.16 100.194 216.993 99.4339 216.66C98.6739 216.327 98.0739 215.873 97.6339 215.3C97.1939 214.713 96.9472 214.06 96.8939 213.34H100.274C100.314 213.727 100.494 214.04 100.814 214.28C101.134 214.52 101.527 214.64 101.994 214.64C102.421 214.64 102.747 214.56 102.974 214.4C103.214 214.227 103.334 214.007 103.334 213.74C103.334 213.42 103.167 213.187 102.834 213.04C102.501 212.88 101.961 212.707 101.214 212.52C100.414 212.333 99.7472 212.14 99.2139 211.94C98.6806 211.727 98.2206 211.4 97.8339 210.96C97.4472 210.507 97.2539 209.9 97.2539 209.14C97.2539 208.5 97.4272 207.92 97.7739 207.4C98.1339 206.867 98.6539 206.447 99.3339 206.14C100.027 205.833 100.847 205.68 101.794 205.68C103.194 205.68 104.294 206.027 105.094 206.72C105.907 207.413 106.374 208.333 106.494 209.48H103.334C103.281 209.093 103.107 208.787 102.814 208.56C102.534 208.333 102.161 208.22 101.694 208.22C101.294 208.22 100.987 208.3 100.774 208.46C100.561 208.607 100.454 208.813 100.454 209.08C100.454 209.4 100.621 209.64 100.954 209.8C101.301 209.96 101.834 210.12 102.554 210.28C103.381 210.493 104.054 210.707 104.574 210.92C105.094 211.12 105.547 211.453 105.934 211.92C106.334 212.373 106.541 212.987 106.554 213.76C106.554 214.413 106.367 215 105.994 215.52C105.634 216.027 105.107 216.427 104.414 216.72C103.734 217.013 102.941 217.16 102.034 217.16ZM114.866 214.1V217H113.126C111.886 217 110.92 216.7 110.226 216.1C109.533 215.487 109.186 214.493 109.186 213.12V208.68H107.826V205.84H109.186V203.12H112.606V205.84H114.846V208.68H112.606V213.16C112.606 213.493 112.686 213.733 112.846 213.88C113.006 214.027 113.273 214.1 113.646 214.1H114.866ZM127.791 205.84V217H124.371V215.48C124.025 215.973 123.551 216.373 122.951 216.68C122.365 216.973 121.711 217.12 120.991 217.12C120.138 217.12 119.385 216.933 118.731 216.56C118.078 216.173 117.571 215.62 117.211 214.9C116.851 214.18 116.671 213.333 116.671 212.36V205.84H120.071V211.9C120.071 212.647 120.265 213.227 120.651 213.64C121.038 214.053 121.558 214.26 122.211 214.26C122.878 214.26 123.405 214.053 123.791 213.64C124.178 213.227 124.371 212.647 124.371 211.9V205.84H127.791ZM129.568 211.4C129.568 210.253 129.781 209.247 130.208 208.38C130.648 207.513 131.241 206.847 131.988 206.38C132.734 205.913 133.568 205.68 134.488 205.68C135.221 205.68 135.888 205.833 136.488 206.14C137.101 206.447 137.581 206.86 137.928 207.38V202.2H141.348V217H137.928V215.4C137.608 215.933 137.148 216.36 136.548 216.68C135.961 217 135.274 217.16 134.488 217.16C133.568 217.16 132.734 216.927 131.988 216.46C131.241 215.98 130.648 215.307 130.208 214.44C129.781 213.56 129.568 212.547 129.568 211.4ZM137.928 211.42C137.928 210.567 137.688 209.893 137.208 209.4C136.741 208.907 136.168 208.66 135.488 208.66C134.808 208.66 134.228 208.907 133.748 209.4C133.281 209.88 133.048 210.547 133.048 211.4C133.048 212.253 133.281 212.933 133.748 213.44C134.228 213.933 134.808 214.18 135.488 214.18C136.168 214.18 136.741 213.933 137.208 213.44C137.688 212.947 137.928 212.273 137.928 211.42ZM154.342 211.24C154.342 211.56 154.322 211.893 154.282 212.24H146.542C146.595 212.933 146.815 213.467 147.202 213.84C147.602 214.2 148.089 214.38 148.662 214.38C149.515 214.38 150.109 214.02 150.442 213.3H154.082C153.895 214.033 153.555 214.693 153.062 215.28C152.582 215.867 151.975 216.327 151.242 216.66C150.509 216.993 149.689 217.16 148.782 217.16C147.689 217.16 146.715 216.927 145.862 216.46C145.009 215.993 144.342 215.327 143.862 214.46C143.382 213.593 143.142 212.58 143.142 211.42C143.142 210.26 143.375 209.247 143.842 208.38C144.322 207.513 144.989 206.847 145.842 206.38C146.695 205.913 147.675 205.68 148.782 205.68C149.862 205.68 150.822 205.907 151.662 206.36C152.502 206.813 153.155 207.46 153.622 208.3C154.102 209.14 154.342 210.12 154.342 211.24ZM150.842 210.34C150.842 209.753 150.642 209.287 150.242 208.94C149.842 208.593 149.342 208.42 148.742 208.42C148.169 208.42 147.682 208.587 147.282 208.92C146.895 209.253 146.655 209.727 146.562 210.34H150.842ZM162.946 205.72C164.253 205.72 165.293 206.147 166.066 207C166.853 207.84 167.246 209 167.246 210.48V217H163.846V210.94C163.846 210.193 163.653 209.613 163.266 209.2C162.88 208.787 162.36 208.58 161.706 208.58C161.053 208.58 160.533 208.787 160.146 209.2C159.76 209.613 159.566 210.193 159.566 210.94V217H156.146V205.84H159.566V207.32C159.913 206.827 160.38 206.44 160.966 206.16C161.553 205.867 162.213 205.72 162.946 205.72ZM175.843 214.1V217H174.103C172.863 217 171.896 216.7 171.203 216.1C170.509 215.487 170.163 214.493 170.163 213.12V208.68H168.803V205.84H170.163V203.12H173.583V205.84H175.823V208.68H173.583V213.16C173.583 213.493 173.663 213.733 173.823 213.88C173.983 214.027 174.249 214.1 174.623 214.1H175.843ZM181.306 211.4C181.306 210.253 181.519 209.247 181.946 208.38C182.386 207.513 182.979 206.847 183.726 206.38C184.473 205.913 185.306 205.68 186.226 205.68C186.959 205.68 187.626 205.833 188.226 206.14C188.839 206.447 189.319 206.86 189.666 207.38V202.2H193.086V217H189.666V215.4C189.346 215.933 188.886 216.36 188.286 216.68C187.699 217 187.013 217.16 186.226 217.16C185.306 217.16 184.473 216.927 183.726 216.46C182.979 215.98 182.386 215.307 181.946 214.44C181.519 213.56 181.306 212.547 181.306 211.4ZM189.666 211.42C189.666 210.567 189.426 209.893 188.946 209.4C188.479 208.907 187.906 208.66 187.226 208.66C186.546 208.66 185.966 208.907 185.486 209.4C185.019 209.88 184.786 210.547 184.786 211.4C184.786 212.253 185.019 212.933 185.486 213.44C185.966 213.933 186.546 214.18 187.226 214.18C187.906 214.18 188.479 213.933 188.946 213.44C189.426 212.947 189.666 212.273 189.666 211.42ZM197.28 204.68C196.68 204.68 196.187 204.507 195.8 204.16C195.427 203.8 195.24 203.36 195.24 202.84C195.24 202.307 195.427 201.867 195.8 201.52C196.187 201.16 196.68 200.98 197.28 200.98C197.867 200.98 198.347 201.16 198.72 201.52C199.107 201.867 199.3 202.307 199.3 202.84C199.3 203.36 199.107 203.8 198.72 204.16C198.347 204.507 197.867 204.68 197.28 204.68ZM198.98 205.84V217H195.56V205.84H198.98ZM205.999 217.16C205.025 217.16 204.159 216.993 203.399 216.66C202.639 216.327 202.039 215.873 201.599 215.3C201.159 214.713 200.912 214.06 200.859 213.34H204.239C204.279 213.727 204.459 214.04 204.779 214.28C205.099 214.52 205.492 214.64 205.959 214.64C206.385 214.64 206.712 214.56 206.939 214.4C207.179 214.227 207.299 214.007 207.299 213.74C207.299 213.42 207.132 213.187 206.799 213.04C206.465 212.88 205.925 212.707 205.179 212.52C204.379 212.333 203.712 212.14 203.179 211.94C202.645 211.727 202.185 211.4 201.799 210.96C201.412 210.507 201.219 209.9 201.219 209.14C201.219 208.5 201.392 207.92 201.739 207.4C202.099 206.867 202.619 206.447 203.299 206.14C203.992 205.833 204.812 205.68 205.759 205.68C207.159 205.68 208.259 206.027 209.059 206.72C209.872 207.413 210.339 208.333 210.459 209.48H207.299C207.245 209.093 207.072 208.787 206.779 208.56C206.499 208.333 206.125 208.22 205.659 208.22C205.259 208.22 204.952 208.3 204.739 208.46C204.525 208.607 204.419 208.813 204.419 209.08C204.419 209.4 204.585 209.64 204.919 209.8C205.265 209.96 205.799 210.12 206.519 210.28C207.345 210.493 208.019 210.707 208.539 210.92C209.059 211.12 209.512 211.453 209.899 211.92C210.299 212.373 210.505 212.987 210.519 213.76C210.519 214.413 210.332 215 209.959 215.52C209.599 216.027 209.072 216.427 208.379 216.72C207.699 217.013 206.905 217.16 205.999 217.16ZM211.931 211.42C211.931 210.26 212.164 209.247 212.631 208.38C213.111 207.513 213.771 206.847 214.611 206.38C215.464 205.913 216.438 205.68 217.531 205.68C218.931 205.68 220.098 206.047 221.031 206.78C221.978 207.513 222.598 208.547 222.891 209.88H219.251C218.944 209.027 218.351 208.6 217.471 208.6C216.844 208.6 216.344 208.847 215.971 209.34C215.598 209.82 215.411 210.513 215.411 211.42C215.411 212.327 215.598 213.027 215.971 213.52C216.344 214 216.844 214.24 217.471 214.24C218.351 214.24 218.944 213.813 219.251 212.96H222.891C222.598 214.267 221.978 215.293 221.031 216.04C220.084 216.787 218.918 217.16 217.531 217.16C216.438 217.16 215.464 216.927 214.611 216.46C213.771 215.993 213.111 215.327 212.631 214.46C212.164 213.593 211.931 212.58 211.931 211.42ZM229.8 217.16C228.707 217.16 227.72 216.927 226.84 216.46C225.974 215.993 225.287 215.327 224.78 214.46C224.287 213.593 224.04 212.58 224.04 211.42C224.04 210.273 224.294 209.267 224.8 208.4C225.307 207.52 226 206.847 226.88 206.38C227.76 205.913 228.747 205.68 229.84 205.68C230.934 205.68 231.92 205.913 232.8 206.38C233.68 206.847 234.374 207.52 234.88 208.4C235.387 209.267 235.64 210.273 235.64 211.42C235.64 212.567 235.38 213.58 234.86 214.46C234.354 215.327 233.654 215.993 232.76 216.46C231.88 216.927 230.894 217.16 229.8 217.16ZM229.8 214.2C230.454 214.2 231.007 213.96 231.46 213.48C231.927 213 232.16 212.313 232.16 211.42C232.16 210.527 231.934 209.84 231.48 209.36C231.04 208.88 230.494 208.64 229.84 208.64C229.174 208.64 228.62 208.88 228.18 209.36C227.74 209.827 227.52 210.513 227.52 211.42C227.52 212.313 227.734 213 228.16 213.48C228.6 213.96 229.147 214.2 229.8 214.2ZM248.475 205.84V217H245.055V215.48C244.708 215.973 244.235 216.373 243.635 216.68C243.048 216.973 242.395 217.12 241.675 217.12C240.822 217.12 240.068 216.933 239.415 216.56C238.762 216.173 238.255 215.62 237.895 214.9C237.535 214.18 237.355 213.333 237.355 212.36V205.84H240.755V211.9C240.755 212.647 240.948 213.227 241.335 213.64C241.722 214.053 242.242 214.26 242.895 214.26C243.562 214.26 244.088 214.053 244.475 213.64C244.862 213.227 245.055 212.647 245.055 211.9V205.84H248.475ZM257.731 205.72C259.038 205.72 260.078 206.147 260.851 207C261.638 207.84 262.031 209 262.031 210.48V217H258.631V210.94C258.631 210.193 258.438 209.613 258.051 209.2C257.665 208.787 257.145 208.58 256.491 208.58C255.838 208.58 255.318 208.787 254.931 209.2C254.545 209.613 254.351 210.193 254.351 210.94V217H250.931V205.84H254.351V207.32C254.698 206.827 255.165 206.44 255.751 206.16C256.338 205.867 256.998 205.72 257.731 205.72ZM270.628 214.1V217H268.888C267.648 217 266.681 216.7 265.988 216.1C265.295 215.487 264.948 214.493 264.948 213.12V208.68H263.588V205.84H264.948V203.12H268.368V205.84H270.608V208.68H268.368V213.16C268.368 213.493 268.448 213.733 268.608 213.88C268.768 214.027 269.035 214.1 269.408 214.1H270.628Z" fill="#464646"/>
<defs>
<linearGradient id="paint0_linear" x1="148" y1="208" x2="595" y2="3.49993" gradientUnits="userSpaceOnUse">
<stop stop-color="#E6E6E6"/>
<stop offset="1" stop-color="#BBBBBB"/>
</linearGradient>
<linearGradient id="paint1_linear" x1="649" y1="82.9999" x2="47.5" y2="83" gradientUnits="userSpaceOnUse">
<stop stop-color="#E6E6E6"/>
<stop offset="1" stop-color="#BBBBBB"/>
</linearGradient>
<linearGradient id="paint2_linear" x1="315.5" y1="18" x2="315" y2="36" gradientUnits="userSpaceOnUse">
<stop stop-color="#B8B8B8"/>
<stop offset="1"/>
</linearGradient>
<linearGradient id="paint3_linear" x1="43.5" y1="18" x2="43" y2="36" gradientUnits="userSpaceOnUse">
<stop stop-color="#B8B8B8"/>
<stop offset="1"/>
</linearGradient>
</defs>
</svg>
