<svg width="38" height="38" viewBox="0 0 38 38" fill="none" xmlns="http://www.w3.org/2000/svg">
<g clip-path="url(#clip0)">
<path d="M35.2695 15.1178C36.4603 14.2105 37.2342 12.7813 37.2342 11.1716C37.2342 8.43426 35.007 6.20703 32.2696 6.20703C29.5323 6.20703 27.3051 8.43426 27.3051 11.1716C27.3051 12.6547 27.9622 13.9846 28.9967 14.895H25.7003L21.5381 10.7328C21.2955 10.4902 20.9033 10.4902 20.6606 10.7328L18.1783 13.2151C17.9357 13.4578 17.9357 13.85 18.1783 14.0926L23.7635 19.6777C23.8795 19.7944 24.0371 19.8596 24.2022 19.8596H29.1668V24.2035H26.0639H18.5352L20.0754 21.8935L21.6157 19.5834L20.5831 18.8952L18.8135 21.5494L17.0439 24.2035H15.5142V21.1007C15.5142 20.7575 15.2368 20.4801 14.8937 20.4801H9.92911V17.9979C9.92911 16.6897 9.11244 15.5733 7.96439 15.1178C9.15526 14.2105 9.92911 12.7813 9.92911 11.1716C9.92911 8.43426 7.70189 6.20703 4.96456 6.20703C2.22722 6.20703 0 8.43426 0 11.1716C0 12.7813 0.77385 14.2105 1.96472 15.1178C0.816669 15.5733 0 16.6897 0 17.9979V26.6858C0 28.3967 1.39194 29.7887 3.10285 29.7887V37.2355H4.34399V29.7887H8.68797V36.6149C8.68797 36.9581 8.96537 37.2355 9.30854 37.2355H13.6525C13.9957 37.2355 14.2731 36.9581 14.2731 36.6149V27.3064C14.2731 26.6083 14.0416 25.9635 13.6513 25.4447H14.2731H14.8937H17.9965V35.9944H15.5142V37.2355H21.7199V35.9944H19.2377V25.4447H23.5978C23.2037 25.9647 22.9611 26.6052 22.9611 27.3064V36.6149C22.9611 36.9581 23.2385 37.2355 23.5816 37.2355H27.9256C28.2688 37.2355 28.5462 36.9581 28.5462 36.6149V29.7887H32.8902V37.2355H34.1313V29.7887C35.8422 29.7887 37.2342 28.3967 37.2342 26.6858V17.9979C37.2342 16.6897 36.4175 15.5733 35.2695 15.1178ZM1.24114 11.1716C1.24114 9.11812 2.91109 7.44817 4.96456 7.44817C7.01802 7.44817 8.68797 9.11812 8.68797 11.1716C8.68797 13.2251 7.01802 14.895 4.96456 14.895C2.91109 14.895 1.24114 13.2251 1.24114 11.1716ZM14.2731 24.2035H6.2057V19.239H4.96456V24.8241C4.96456 25.1673 5.24195 25.4447 5.58513 25.4447H11.1703C12.1967 25.4447 13.032 26.28 13.032 27.3064V35.9944H9.92911V29.1681C9.92911 28.8249 9.65172 28.5475 9.30854 28.5475H3.10285C2.07643 28.5475 1.24114 27.7122 1.24114 26.6858V17.9979C1.24114 16.9714 2.07643 16.1361 3.10285 16.1361H6.82627C7.85269 16.1361 8.68797 16.9714 8.68797 17.9979V21.1007C8.68797 21.4439 8.96537 21.7213 9.30854 21.7213H14.2731V24.2035ZM28.5462 11.1716C28.5462 9.11812 30.2162 7.44817 32.2696 7.44817C34.3231 7.44817 35.993 9.11812 35.993 11.1716C35.993 13.2251 34.3231 14.895 32.2696 14.895C30.2162 14.895 28.5462 13.2251 28.5462 11.1716ZM35.993 26.6858C35.993 27.7122 35.1577 28.5475 34.1313 28.5475H27.9256C27.5825 28.5475 27.3051 28.8249 27.3051 29.1681V35.9944H24.2022V27.3064C24.2022 26.28 25.0375 25.4447 26.0639 25.4447H29.7873C30.1305 25.4447 30.4079 25.1673 30.4079 24.8241V19.239C30.4079 18.8958 30.1305 18.6184 29.7873 18.6184H24.4591L19.4946 13.6539L21.0994 12.0491L25.0046 15.9543C25.1207 16.071 25.2783 16.1361 25.4434 16.1361H34.1313C35.1577 16.1361 35.993 16.9714 35.993 17.9979V26.6858Z" fill="#525B62"/>
<path d="M24.8229 0H12.4115C11.3851 0 10.5498 0.835287 10.5498 1.86171V6.82627C10.5498 7.85269 11.3851 8.68797 12.4115 8.68797H13.0321V12.4114C13.0321 12.6621 13.1829 12.8892 13.415 12.9848C13.4919 13.0171 13.5726 13.032 13.6527 13.032C13.814 13.032 13.9729 12.9687 14.0914 12.8501L18.2536 8.68797H24.8229C25.8493 8.68797 26.6846 7.85269 26.6846 6.82627V1.86171C26.6846 0.835287 25.8493 0 24.8229 0ZM25.4435 6.82627C25.4435 7.16882 25.1655 7.44684 24.8229 7.44684H17.9966C17.8316 7.44684 17.6739 7.51199 17.5579 7.62866L14.2732 10.9133V8.0674C14.2732 7.72423 13.9958 7.44684 13.6527 7.44684H12.4115C12.069 7.44684 11.7909 7.16882 11.7909 6.82627V1.86171C11.7909 1.51915 12.069 1.24114 12.4115 1.24114H24.8229C25.1655 1.24114 25.4435 1.51915 25.4435 1.86171V6.82627Z" fill="#525B62"/>
</g>
<defs>
<clipPath id="clip0">
<rect width="37.2342" height="37.2342" fill="white"/>
</clipPath>
</defs>
</svg>
