<svg width="38" height="35" viewBox="0 0 38 35" fill="none" xmlns="http://www.w3.org/2000/svg">
<path d="M32.1325 11.9208C31.9468 12.0079 31.7523 11.9218 31.6859 11.7969C31.6331 11.6961 31.6579 11.546 31.8207 11.4689L31.8207 11.4689L36.082 9.4486C36.0822 9.44851 36.0824 9.44842 36.0826 9.44833C36.2672 9.36169 36.4639 9.44873 36.5289 9.57197C36.5821 9.67271 36.5573 9.82309 36.3944 9.90033L36.3944 9.90033L32.1332 11.9205C32.133 11.9206 32.1328 11.9207 32.1325 11.9208Z" stroke="#525B62" stroke-width="1.5"/>
<path d="M31.0227 19.3281L31.6858 19.6785C31.7522 19.5529 31.9476 19.4674 32.1322 19.5542C32.1323 19.5543 32.1324 19.5544 32.1326 19.5544L36.3944 21.5746L36.3944 21.5746C36.5572 21.6518 36.5819 21.8018 36.5292 21.9023C36.463 22.0269 36.2684 22.1134 36.0824 22.0262C36.0822 22.0261 36.082 22.026 36.0818 22.0259L31.8206 20.0061L31.8206 20.0061C31.6577 19.9288 31.6331 19.7786 31.6861 19.678L31.0227 19.3281ZM31.0227 19.3281C30.7594 19.8274 30.9728 20.4342 31.4994 20.6838L35.7623 22.7045C36.2941 22.9549 36.9302 22.7482 37.1923 22.2526L32.4527 18.8762C31.9261 18.6276 31.2871 18.8278 31.0227 19.3281Z" stroke="#525B62" stroke-width="1.5"/>
<path d="M8.70367 16.8154V17.5654H9.45367H25.4397C26.8268 17.5654 27.8869 18.6264 27.8869 19.8463V31.9701C27.8869 33.1899 26.8268 34.251 25.4397 34.251H4.12492C2.73791 34.251 1.67773 33.1899 1.67773 31.9701V19.8463C1.67773 18.8893 2.33002 18.0397 3.29944 17.712L3.80924 17.5396V17.0015V11.6291C3.80924 5.95257 8.69419 1.26562 14.7824 1.26562C20.8705 1.26562 25.7555 5.95257 25.7555 11.6291V13.6497C25.7555 13.7567 25.6528 13.9101 25.4397 13.9101H21.1768C20.9637 13.9101 20.861 13.7567 20.861 13.6497V11.6291C20.861 8.39236 18.0964 5.82752 14.7824 5.82752C11.4683 5.82752 8.70367 8.39229 8.70367 11.6291V16.8154ZM16.5981 29.9494V27.2308C17.8434 26.61 18.7295 25.3665 18.7295 23.8876C18.7295 21.7648 16.9214 20.1066 14.7824 20.1066C12.6434 20.1066 10.8351 21.7648 10.8351 23.8876C10.8351 25.3665 11.7212 26.61 12.9666 27.2308V29.9494C12.9666 30.9593 13.8173 31.7097 14.7824 31.7097C15.7474 31.7097 16.5981 30.9593 16.5981 29.9494Z" stroke="#525B62" stroke-width="1.5"/>
<path d="M31.9757 15.4766H36.2386C36.4517 15.4766 36.5543 15.6299 36.5543 15.7368C36.5543 15.8437 36.4517 15.9971 36.2386 15.9971H31.9757C31.7625 15.9971 31.6599 15.8437 31.6599 15.7368C31.6599 15.6299 31.7625 15.4766 31.9757 15.4766Z" stroke="#525B62" stroke-width="1.5"/>
</svg>
