<svg width="82" height="78" viewBox="0 0 82 78" fill="none" xmlns="http://www.w3.org/2000/svg">
<path d="M15.9453 56.7115C24.3069 44.3683 31.0425 41.9461 33.3652 42.2779C29.7817 26.7492 34.8583 23.1991 37.8446 23.3651V16.8948C38.84 8.43386 42.324 15.8994 43.3194 20.3787C49.2919 15.4016 48.2965 21.8718 48.2965 25.3558C51.7805 28.3421 50.7851 38.794 50.7851 41.2826C73.6798 42.7757 73.1821 58.7024 73.1821 61.6887C73.1821 64.675 72.1866 69.1544 63.2278 73.1361C56.0608 76.3214 52.9418 75.1269 52.2782 74.1315L33.3652 73.1361L26.3972 56.7115H15.9453Z" fill="#525B62"/>
<path d="M1.01172 56.7119L2.50485 61.689L8.97509 75.1272L34.8561 77.1181L51.2805 75.6249L32.8652 73.6341L25.8973 57.2096L1.01172 56.7119Z" fill="#BCBCBC"/>
<path d="M35.853 35.8075C35.0567 35.0112 34.194 33.153 33.8622 32.3235C33.6965 31.494 33.4646 29.4368 33.8628 27.8441C34.3605 25.8533 41.8262 22.3693 43.817 29.835C45.4097 35.8075 41.8257 40.6187 39.8347 42.2778C38.6402 42.6759 37.3461 41.78 36.8484 41.2823C37.0143 40.7846 37.3461 39.5901 37.3461 38.7938C37.3461 37.7984 36.8484 36.8029 35.853 35.8075Z" fill="#EDEDED"/>
<path d="M32.8667 72.1404C31.6722 72.1404 33.0326 70.4814 33.8622 69.6519C34.0281 69.4859 35.1565 68.4573 38.3418 65.6702C43.2886 61.1908 50.2869 63.1816 52.7754 63.1816C55.264 64.6747 54.2686 68.6564 54.2686 70.1496C53.2731 70.6473 47.3006 71.145 46.3052 70.6473C45.3098 70.1496 43.3189 71.145 43.8166 72.1404C44.3144 73.1358 45.3098 71.6427 45.8075 72.1404C46.3052 72.6381 46.3052 73.6335 44.8121 74.1312C43.3189 74.629 37.8441 74.1312 37.3464 72.6381C36.9482 71.4436 37.1805 70.1496 37.3464 69.6519C36.3509 70.4814 34.0612 72.1404 32.8667 72.1404Z" fill="#EDEDED"/>
<path d="M1.0135 65.1725C-1.37551 62.7834 1.0135 61.8544 2.50664 61.6885C4.66351 63.5134 9.27589 67.3624 10.4704 68.1587C11.6649 68.9551 10.9681 69.8178 10.4704 70.1496C10.6363 70.3155 10.8686 70.8464 10.4704 71.6427C10.9681 72.1404 10.4704 72.6381 9.97269 73.1358C10.769 73.534 10.3045 73.9653 9.97269 74.1312C8.81136 74.1312 6.19008 73.8326 4.99558 72.6381C3.50245 71.145 3.00473 69.6519 2.50664 68.6564C2.00854 67.661 1.0135 67.1633 1.0135 65.1725Z" fill="#EDEDED"/>
<path d="M32.8663 48.2505C33.1981 48.2505 29.3823 51.3363 25.8983 52.7299C23.4098 53.7253 18.9304 50.2413 15.4464 49.2459C11.9624 48.2505 9.47387 49.2459 5.49219 53.7253" stroke="#BEC2C4" stroke-width="3" stroke-linecap="round"/>
<path d="M38.0716 50.1027C38.3836 50.2156 32.2829 51.8669 29.995 51.9429C27.3162 52.0318 24.2902 47.2312 21.3531 45.1093C18.4159 42.9875 15.7372 43.0764 10.4685 45.9331" stroke="#BEC2C4" stroke-width="3" stroke-linecap="round"/>
<ellipse cx="70.9104" cy="12.6038" rx="8.89618" ry="10.9053" transform="rotate(12.7869 70.9104 12.6038)" fill="#C2C2C2"/>
<ellipse cx="69.903" cy="12.7529" rx="6.96795" ry="8.46109" transform="rotate(12.7869 69.903 12.7529)" fill="white"/>
<ellipse cx="70.5617" cy="12.7029" rx="2.53433" ry="3.16791" transform="rotate(17.0317 70.5617 12.7029)" fill="#372617"/>
<path d="M71.0586 10.9224L73.1821 5.94531M69.4659 14.0897L65.2188 15.8995" stroke="#372617" stroke-dasharray="0.4 0.4"/>
</svg>
