<svg width="27" height="26" viewBox="0 0 27 26" fill="none" xmlns="http://www.w3.org/2000/svg">
<path d="M20.3209 18.9288V7.06936L12.5287 12.9991L20.3209 18.9288ZM1.12603 9.42035C0.937541 9.21766 0.830537 8.95184 0.825739 8.67437C0.82094 8.39689 0.918689 8.12749 1.10006 7.91833L2.65851 6.46855C2.91825 6.23345 3.55461 6.12896 4.02215 6.46855L8.46373 9.87749L18.7625 0.408208C19.1781 -0.00974664 19.8923 -0.179541 20.7105 0.251475L25.9054 2.74614C26.3729 3.02042 26.8145 3.45144 26.8145 4.24816V21.8806C26.8145 22.4031 26.4378 22.9647 26.0352 23.1867L20.3209 25.9296C19.9053 26.0993 19.1261 25.9426 18.8534 25.6683L8.43775 16.1337L4.02215 19.5296C3.52864 19.8692 2.91825 19.7778 2.65851 19.5296L1.10006 18.0929C0.684473 17.6619 0.736421 16.9566 1.16499 16.5256L5.06111 12.9991" fill="black"/>
</svg>
