<svg width="28" height="26" viewBox="0 0 28 26" fill="none" xmlns="http://www.w3.org/2000/svg">
<path d="M25.913 0.599609H1.68017C0.755417 0.599609 0 1.35623 0 2.27858V19.7019C0 20.6231 0.755417 21.3809 1.68017 21.3809H25.913C26.8366 21.3809 27.592 20.6231 27.592 19.7019V2.27858C27.592 1.35623 26.8366 0.599609 25.913 0.599609ZM25.4903 18.467H2.10169V2.95468H25.4903V18.467Z" fill="#010002"/>
<path d="M10.6885 22.1777L7.51758 25.3995H20.123L16.9521 22.1777H10.6885Z" fill="#010002"/>
<path d="M5.67326 15.3566C6.29255 15.3566 6.79694 14.8533 6.79694 14.2341C6.79694 14.1216 6.76379 14.0198 6.733 13.9168C8.16923 12.7588 10.7067 10.7175 11.8635 9.82586C12.0458 9.95491 12.2578 10.0473 12.4981 10.0473C12.6982 10.0473 12.8759 9.98098 13.0381 9.88981C13.7816 10.5221 15.0462 11.5972 15.9437 12.3609C15.9319 12.426 15.9059 12.484 15.9059 12.5527C15.9059 13.1731 16.4103 13.6764 17.0307 13.6764C17.6511 13.6764 18.1555 13.1731 18.1555 12.5527C18.1555 12.4426 18.1224 12.3419 18.0928 12.2413L20.9985 9.61744C21.1548 9.69911 21.3229 9.75713 21.5124 9.75713C22.1328 9.75713 22.6361 9.25389 22.6361 8.63345C22.6361 8.01301 22.1328 7.50977 21.5124 7.50977C20.8919 7.50977 20.3899 8.01301 20.3899 8.6346C20.3899 8.78259 20.4218 8.9235 20.4739 9.05255C19.6616 9.78546 18.409 10.9174 17.6275 11.6231C17.4534 11.5106 17.2569 11.4278 17.0319 11.4278C16.7667 11.4278 16.5346 11.5332 16.3428 11.6859C15.6004 11.0548 14.3997 10.0341 13.5461 9.30829C13.5911 9.18753 13.623 9.06084 13.623 8.9235C13.623 8.30306 13.1198 7.79981 12.4993 7.79981C11.8789 7.79981 11.3757 8.30306 11.3757 8.9235C11.3757 9.06084 11.4088 9.18873 11.4538 9.30949L6.29611 13.3222C6.11612 13.1991 5.90891 13.1091 5.67447 13.1091C5.05403 13.1091 4.55078 13.6123 4.55078 14.2328C4.54958 14.8533 5.05282 15.3566 5.67326 15.3566Z" fill="#010002"/>
</svg>
