<svg width="20" height="22" viewBox="0 0 20 22" fill="none" xmlns="http://www.w3.org/2000/svg">
<path d="M3.01797 4.9461C4.24573 4.9461 5.24102 3.95081 5.24102 2.72305C5.24102 1.49529 4.24573 0.5 3.01797 0.5C1.79021 0.5 0.794922 1.49529 0.794922 2.72305C0.794922 3.95081 1.79021 4.9461 3.01797 4.9461Z" fill="#010002"/>
<path d="M16.891 4.9461C18.1188 4.9461 19.1141 3.95081 19.1141 2.72305C19.1141 1.49529 18.1188 0.5 16.891 0.5C15.6633 0.5 14.668 1.49529 14.668 2.72305C14.668 3.95081 15.6633 4.9461 16.891 4.9461Z" fill="#010002"/>
<path d="M16.8906 16.7832C18.1138 16.7832 19.1054 15.7916 19.1054 14.5683C19.1054 13.3451 18.1138 12.3535 16.8906 12.3535C15.6674 12.3535 14.6758 13.3451 14.6758 14.5683C14.6758 15.7916 15.6674 16.7832 16.8906 16.7832Z" fill="#010002"/>
<path d="M3.01797 16.7918C4.24573 16.7918 5.24102 15.7965 5.24102 14.5688C5.24102 13.341 4.24573 12.3457 3.01797 12.3457C1.79021 12.3457 0.794922 13.341 0.794922 14.5688C0.794922 15.7965 1.79021 16.7918 3.01797 16.7918Z" fill="#010002"/>
<path d="M19.9008 8.05547C19.9008 6.45585 18.5555 5.16797 16.8984 5.16797C15.2332 5.16797 13.8879 6.46407 13.8879 8.05547V9.10547L12.1406 10.9676H7.81757L6.0211 9.05626V8.05547C6.0211 6.45585 4.67579 5.16797 3.01055 5.16797C1.34531 5.16797 0 6.46407 0 8.05547V9.66328H5.38123L6.85781 11.2383V14.7246L5.12695 17.8418C4.58555 17.325 3.83908 17.0051 3.01873 17.0051C1.35349 17.0051 0.0081844 18.3012 0.0081844 19.8926V21.5004H6.02106V19.8926C6.02106 19.425 5.89802 18.9985 5.69295 18.6047L7.77654 14.8887H12.1734L14.2324 18.5637C14.0191 18.9656 13.8797 19.4086 13.8797 19.8926V21.5004H19.8925V19.8926C19.8925 18.293 18.5472 17.0051 16.8902 17.0051C16.0863 17.0051 15.3562 17.3168 14.8148 17.809L12.9035 14.3883V11.4352L14.5605 9.66328H19.9008V8.05547Z" fill="#010002"/>
</svg>
