<svg width="30" height="22" viewBox="0 0 30 22" fill="none" xmlns="http://www.w3.org/2000/svg">
<path d="M20.3571 21.7147H2.14286C1.57454 21.7147 1.02949 21.4889 0.627628 21.0871C0.225765 20.6852 0 20.1402 0 19.5718V2.42899C0 1.86067 0.225765 1.31562 0.627628 0.913761C1.02949 0.511897 1.57454 0.286133 2.14286 0.286133H20.3571C20.9255 0.286133 21.4705 0.511897 21.8724 0.913761C22.2742 1.31562 22.5 1.86067 22.5 2.42899V6.77899L28.3071 2.63256C28.4671 2.5187 28.6552 2.45096 28.851 2.43674C29.0468 2.42252 29.2427 2.46236 29.4174 2.55192C29.5921 2.64147 29.7388 2.7773 29.8415 2.94457C29.9443 3.11183 29.9991 3.30412 30 3.50042V18.5004C29.9991 18.6967 29.9443 18.889 29.8415 19.0563C29.7388 19.2235 29.5921 19.3594 29.4174 19.4489C29.2427 19.5385 29.0468 19.5783 28.851 19.5641C28.6552 19.5499 28.4671 19.4821 28.3071 19.3683L22.5 15.2218V19.5718C22.5 20.1402 22.2742 20.6852 21.8724 21.0871C21.4705 21.4889 20.9255 21.7147 20.3571 21.7147Z" fill="black"/>
</svg>
