<svg width="602" height="356" viewBox="0 0 602 356" fill="none" xmlns="http://www.w3.org/2000/svg">
<path d="M335.379 43.3254C338.709 35.6824 344.916 29.6594 352.656 26.5617C360.396 23.464 369.045 23.5412 376.728 26.7766C384.411 30.012 390.51 36.1449 393.703 43.8461C396.895 51.5473 396.924 60.1964 393.784 67.9189C390.643 75.6415 384.585 81.8152 376.924 85.1021C369.262 88.389 360.614 88.5244 352.854 85.4788C345.093 82.4332 338.846 76.452 335.465 68.8315C332.084 61.2111 331.842 52.5653 334.792 44.7679" stroke="#F37021" stroke-miterlimit="10"/>
<path d="M335.02 43.1944C338.387 35.4598 344.666 29.3637 352.497 26.2276C360.328 23.0915 369.079 23.1681 376.854 26.4407C384.629 29.7134 390.801 35.9184 394.032 43.7107C397.263 51.503 397.293 60.2547 394.115 68.0688C390.937 75.8829 384.807 82.1296 377.055 85.455C369.302 88.7803 360.552 88.9163 352.699 85.8335C344.847 82.7507 338.527 76.6974 335.107 68.9858C331.688 61.2743 331.446 52.5259 334.433 44.6369" stroke="#F37021" stroke-width="0.5" stroke-miterlimit="10"/>
<path d="M343.399 46.3555C345.95 40.7181 350.615 36.3093 356.387 34.0796C362.159 31.8498 368.576 31.9778 374.255 34.436C379.933 36.8942 384.419 41.4855 386.743 47.2201C389.068 52.9548 389.045 59.3732 386.681 65.0915C384.317 70.8098 379.8 75.3699 374.104 77.7885C368.409 80.2072 361.991 80.2906 356.234 78.0208C350.478 75.751 345.844 71.3098 343.332 65.6548C340.82 59.9999 340.631 53.5842 342.805 47.7911" stroke="#F37021" stroke-miterlimit="10"/>
<path d="M343.04 46.218C345.463 40.8847 349.773 36.6358 355.14 34.2886C360.507 31.9414 366.552 31.6617 372.113 33.5033C377.674 35.3449 382.358 39.1778 385.263 44.2645C388.168 49.3512 389.089 55.3326 387.85 61.0579C386.611 66.7832 383.299 71.8481 378.55 75.2782C373.801 78.7083 367.952 80.2614 362.127 79.6387C356.303 79.0159 350.914 76.2614 346.998 71.9049C343.082 67.5484 340.915 61.8977 340.914 56.0398C340.909 53.1743 341.428 50.332 342.446 47.6536" stroke="#F37021" stroke-width="0.5" stroke-miterlimit="10"/>
<path d="M353.13 50.3725L353.275 50.0826C354.733 47.3045 357.157 45.1565 360.091 44.0441C363.024 42.9317 366.264 42.9319 369.197 44.0448C372.13 45.1577 374.554 47.3062 376.012 50.0844C377.469 52.8627 377.859 56.0785 377.107 59.1244C376.355 62.1703 374.514 64.8355 371.931 66.6166C369.349 68.3977 366.203 69.1715 363.089 68.7918C359.975 68.4121 357.107 66.9051 355.028 64.5556C352.949 62.206 351.803 59.1765 351.805 56.0392C351.802 54.4897 352.083 52.9529 352.633 51.5044" stroke="#F37021" stroke-width="0.5" stroke-miterlimit="10"/>
<path d="M353.835 50.2894H353.731L353.642 50.2549L353.283 50.1168L343.406 46.3897L343.047 46.2516L335.385 43.3596L335.026 43.2284L322.685 38.5695L323.293 34.014C323.304 33.9306 323.288 33.8457 323.247 33.7721C323.206 33.6986 323.142 33.6406 323.065 33.6068L313.298 29.1756C313.229 29.1451 313.152 29.1355 313.077 29.1478C313.002 29.1601 312.932 29.1938 312.876 29.2449C312.82 29.296 312.779 29.3622 312.76 29.4357C312.741 29.5091 312.743 29.5866 312.767 29.6587L314.748 35.5256L313.291 34.9734C313.194 34.9304 313.09 34.9076 312.984 34.9065C312.878 34.9053 312.772 34.9258 312.675 34.9666C312.577 35.0074 312.488 35.0678 312.414 35.144C312.341 35.2202 312.283 35.3107 312.246 35.4099C312.208 35.509 312.191 35.6148 312.196 35.7207C312.2 35.8267 312.227 35.9305 312.273 36.026C312.319 36.1215 312.384 36.2065 312.464 36.2759C312.545 36.3453 312.638 36.3977 312.739 36.4298L314.258 37.0027L309.702 40.5021C309.641 40.5487 309.596 40.6122 309.571 40.6847C309.547 40.7572 309.544 40.8354 309.564 40.9093C309.583 40.9828 309.623 41.049 309.679 41.0994C309.736 41.1499 309.806 41.1822 309.882 41.1923L320.822 42.8764H320.877C320.956 42.8764 321.033 42.8528 321.098 42.8085C321.163 42.7641 321.214 42.7013 321.243 42.628L322.271 40.0189L334.433 44.6089L334.792 44.74L342.446 47.6252L342.805 47.7632L352.641 51.4766L353 51.6077L353.29 51.7182" stroke="#F37021" stroke-miterlimit="10"/>
<path d="M353.628 50.2479H353.731H353.835L360.868 52.9053L361.641 50.5862C361.692 50.432 361.79 50.2977 361.921 50.2023C362.053 50.1069 362.211 50.0553 362.373 50.0547V50.0547C362.538 50.0577 362.697 50.1128 362.828 50.212C362.96 50.3111 363.057 50.4494 363.105 50.6069L364.485 55.1761C364.538 55.352 364.527 55.5407 364.455 55.7096C364.383 55.8785 364.255 56.0169 364.092 56.101L360.571 57.8542C360.464 57.9084 360.346 57.9368 360.226 57.937C360.039 57.9382 359.858 57.872 359.716 57.7506C359.601 57.6484 359.518 57.5151 359.478 57.3668C359.437 57.2186 359.441 57.0618 359.488 56.9155L360.344 54.4238L353.29 51.7457C353.19 51.7091 353.1 51.6501 353.027 51.5732" stroke="#F37021" stroke-miterlimit="10"/>
<path d="M210.15 82.6125L215.978 83.9075L217.324 78.002L211.736 76.7069C211.736 76.545 211.736 76.3766 211.736 76.2083C211.739 74.4146 211.378 72.6389 210.674 70.9891L215.207 67.3758L211.432 62.6423L207.119 66.126C205.599 64.8073 203.799 63.8508 201.855 63.3287V57.708H195.8V63.1344C193.802 63.5227 191.921 64.367 190.303 65.6015L185.919 62.1048L182.144 66.8383L186.424 70.2509C185.517 72.0455 185.029 74.0228 184.999 76.0334L179.424 77.3285L180.771 83.2341L186.268 81.9779C187.102 83.7505 188.313 85.3196 189.817 86.5754L187.227 91.8917L192.685 94.5207L195.204 89.2886C197.065 89.7471 199.003 89.7935 200.883 89.4246L203.474 94.8445L208.932 92.2155L206.394 86.9445C207.943 85.788 209.225 84.3102 210.15 82.6125V82.6125ZM192.42 76.2601C192.42 75.0844 192.769 73.9351 193.422 72.9575C194.075 71.98 195.003 71.2181 196.09 70.7681C197.176 70.3182 198.371 70.2005 199.524 70.4299C200.677 70.6592 201.736 71.2254 202.568 72.0567C203.399 72.8881 203.965 73.9473 204.195 75.1004C204.424 76.2535 204.306 77.4487 203.856 78.5349C203.406 79.6211 202.645 80.5495 201.667 81.2027C200.689 81.8559 199.54 82.2045 198.364 82.2045C197.584 82.2045 196.811 82.0507 196.09 81.752C195.368 81.4533 194.713 81.0154 194.161 80.4634C193.609 79.9114 193.171 79.2561 192.872 78.5349C192.574 77.8137 192.42 77.0407 192.42 76.2601V76.2601Z" stroke="#F37021" stroke-linecap="round" stroke-linejoin="round"/>
<path d="M546.522 106.94L550.466 107.84L551.379 103.838L547.591 102.971C547.591 102.86 547.591 102.744 547.591 102.634C547.593 101.417 547.351 100.213 546.878 99.0918L549.948 96.6441L547.358 93.4064L544.496 95.7764C543.466 94.8825 542.245 94.2358 540.928 93.8856V90.0586H536.79V93.7302C535.437 93.9972 534.163 94.571 533.066 95.4073L530.094 93.0373L527.504 96.275L530.405 98.5867C529.793 99.7921 529.464 101.121 529.44 102.472L525.717 103.314L526.63 107.316L530.36 106.467C530.925 107.668 531.745 108.73 532.762 109.582L531.027 113.182L534.724 114.963L536.434 111.415C537.128 111.589 537.841 111.678 538.558 111.68C539.136 111.677 539.712 111.621 540.28 111.512L542.048 115.183L545.752 113.402L544.029 109.835C545.054 109.055 545.903 108.069 546.522 106.94V106.94ZM534.504 102.666C534.504 101.87 534.74 101.091 535.183 100.429C535.625 99.7662 536.254 99.25 536.99 98.9451C537.726 98.6403 538.536 98.5605 539.317 98.7159C540.099 98.8713 540.816 99.2549 541.38 99.8182C541.943 100.381 542.327 101.099 542.482 101.88C542.637 102.662 542.558 103.472 542.253 104.208C541.948 104.944 541.432 105.573 540.769 106.015C540.107 106.458 539.328 106.694 538.532 106.694C537.463 106.694 536.439 106.27 535.684 105.514C534.928 104.759 534.504 103.734 534.504 102.666V102.666Z" stroke="#F37021" stroke-linecap="round" stroke-linejoin="round"/>
<path d="M221.307 53.5898L226.086 54.6777L227.187 49.8341L222.602 48.7915C222.602 48.6556 222.602 48.5196 222.602 48.3836C222.611 46.9163 222.322 45.4625 221.754 44.1098L225.477 41.1441L222.382 37.2588L218.82 40.0951C217.572 39.0152 216.095 38.2315 214.501 37.8028V33.1729H209.535V37.6344C207.888 37.952 206.337 38.6456 205.002 39.6612L201.402 36.7926L198.306 40.6779L201.816 43.4752C201.074 44.9468 200.676 46.5674 200.65 48.2152L196.072 49.2643L197.18 54.1079L201.712 53.0783C202.395 54.5315 203.387 55.8178 204.62 56.847L202.515 61.2049L206.996 63.3612L209.062 59.068C209.909 59.2773 210.779 59.3838 211.652 59.3853C212.352 59.3843 213.05 59.3171 213.737 59.1846L215.874 63.6267L220.355 61.4704L218.27 57.1513C219.529 56.1984 220.565 54.9832 221.307 53.5898V53.5898ZM206.77 48.4095C206.768 47.4448 207.053 46.5015 207.588 45.6988C208.123 44.8961 208.884 44.2701 209.775 43.9001C210.666 43.53 211.647 43.4325 212.593 43.6199C213.539 43.8074 214.409 44.2712 215.091 44.9529C215.774 45.6346 216.239 46.5034 216.427 47.4494C216.616 48.3954 216.52 49.3761 216.151 50.2675C215.782 51.1588 215.157 51.9207 214.355 52.4568C213.553 52.9929 212.61 53.279 211.646 53.279C211.004 53.279 210.368 53.1523 209.775 52.906C209.182 52.6597 208.644 52.2989 208.191 51.844C207.738 51.3892 207.379 50.8493 207.135 50.2555C206.891 49.6617 206.767 49.0256 206.77 48.3836V48.4095Z" stroke="#F37021" stroke-linecap="round" stroke-linejoin="round"/>
<path d="M463.956 318.29C463.956 318.29 458.76 321.636 457.723 322.473C456.685 323.31 451.908 324.347 452.535 325.82C453.163 327.292 459.178 328.104 460.844 328.104C462.509 328.104 468.934 324.757 470.599 324.372C472.264 323.988 472.273 322.088 471.637 320.632C470.951 319.355 470.107 318.169 469.127 317.102L464.768 318.348L463.956 318.29Z" fill="white" stroke="#263238" stroke-linecap="round" stroke-linejoin="round"/>
<path d="M522.926 317.721C522.926 317.721 518.976 322.498 518.357 323.536C517.738 324.573 514.174 326.23 514.174 327.895C514.174 329.56 520.198 328.731 522.064 328.514C523.187 328.339 524.255 327.913 525.19 327.267C526.125 326.621 526.901 325.771 527.461 324.782C528.506 322.699 529.335 318.34 528.088 316.683C526.841 315.026 522.926 317.721 522.926 317.721Z" fill="white" stroke="#263238" stroke-linecap="round" stroke-linejoin="round"/>
<path d="M473.093 225.734L472.926 226.989L471.638 236.946C471.638 236.946 460.091 253.253 455.866 261.746C453.707 266.08 450.695 271.226 451.114 272.673L463.957 318.29C464.93 318.768 465.987 319.052 467.069 319.126C468.066 319.092 469.049 318.882 469.973 318.507L469.387 276.288L487.208 256.684L489.493 259.587C489.493 259.587 495.408 280.571 497.901 283.893C500.395 287.215 521.898 318.34 521.898 318.34C523.005 318.857 524.207 319.142 525.429 319.177C527.303 319.177 528.131 316.666 528.131 316.666C528.131 316.666 512.661 278.471 512.234 277.225C511.807 275.978 512.125 245.43 512.125 245.43L509.615 230.688L506.712 221.342C506.712 221.342 501.315 222.798 492.178 222.379C483.042 221.961 474.323 221.342 474.323 221.342L473.093 225.734Z" fill="#263238" stroke="#263238" stroke-linecap="round" stroke-linejoin="round"/>
<path d="M448.586 125.658C448.586 125.658 445.682 130.017 445.239 132.719C445.066 134.517 445.587 136.313 446.695 137.739L445.021 141.27C445.021 141.27 450.627 152.691 453.949 157.879C457.271 163.066 462.667 171.793 465.989 173.458C469.311 175.123 475.745 181.967 475.745 181.967L479.485 173.868C479.485 173.868 468.524 160.121 461.655 150.574C457.502 144.779 453.689 138.747 450.234 132.51C450.227 130.703 450.367 128.898 450.652 127.113C450.924 125.535 451.062 123.937 451.062 122.336L448.586 125.658Z" fill="#263238" stroke="#263238" stroke-linecap="round" stroke-linejoin="round"/>
<path d="M482.23 170.714C482.23 170.714 473.712 180.888 472.055 187.531C470.399 194.174 472.465 214.732 472.465 217.652C472.465 220.572 470.792 223.676 473.093 225.751C475.394 227.826 482.23 226.789 484.715 226.588C487.2 226.387 499.047 226.588 502.578 225.542C506.109 224.496 507.765 223.032 507.765 220.564C507.765 218.096 503.406 198.35 502.745 195.028C502.084 191.706 504.419 180.285 501.298 174.88C498.177 169.475 488.245 168.639 482.23 170.714Z" fill="white" stroke="#263238" stroke-linecap="round" stroke-linejoin="round"/>
<path d="M480.773 172.169C480.773 172.169 470.389 182.753 468.933 188.359C467.478 193.965 462.29 204.767 460.633 209.544C459.19 213.312 457.514 216.987 455.613 220.547L457.479 228.018L462.257 222.831C462.257 222.831 467.034 206.423 469.527 199.571C472.021 192.718 472.431 186.284 472.874 184.418C473.318 182.552 480.773 172.169 480.773 172.169Z" fill="#263238" stroke="#263238" stroke-linecap="round" stroke-linejoin="round"/>
<path d="M482.229 171.541C482.229 171.541 475.995 188.568 476.204 189.815C476.414 191.061 479.317 237.155 479.317 237.155C479.317 237.155 482.229 244.217 495.306 243.179C508.384 242.142 518.549 240.267 518.549 240.267C518.549 240.267 514.609 224.696 511.078 217.635C507.547 210.573 505.681 206.423 505.681 203.101C505.681 199.78 504.225 177.565 503.397 174.035C503.036 172.221 502.404 170.473 501.523 168.847L500.284 167.81L482.229 171.541Z" fill="#F37021" stroke="#263238" stroke-linecap="round" stroke-linejoin="round"/>
<path d="M477.242 206.842L487.416 231.759C487.416 231.759 483.233 233.432 481.811 234.871C481.013 235.674 480.175 236.437 479.3 237.155L477.242 206.842Z" fill="#F37021" stroke="#263238" stroke-linecap="round" stroke-linejoin="round"/>
<path d="M490.739 138.115C490.739 138.115 484.305 143.303 484.305 144.759C484.305 146.215 482.632 148.29 482.632 148.29C482.632 148.29 479.285 148.708 479.101 149.963C478.917 151.218 480.138 153.703 480.138 153.703C480.138 153.703 478.063 160.765 478.9 162.421C479.737 164.078 485.744 164.296 485.744 164.296L485.953 168.864L500.286 166.58L500.077 163.049C500.077 163.049 507.758 154.741 511.498 151.21C515.238 147.679 510.46 141.454 505.892 136.676C501.323 131.899 490.522 131.899 489.693 134.392C489.437 135.042 489.4 135.758 489.589 136.43C489.778 137.102 490.182 137.694 490.739 138.115Z" fill="white" stroke="#263238" stroke-linecap="round" stroke-linejoin="round"/>
<path d="M485.342 145.588C485.8 145.36 486.311 145.259 486.822 145.295C487.333 145.332 487.824 145.505 488.245 145.797" stroke="#263238" stroke-linecap="round" stroke-linejoin="round"/>
<path d="M485.56 148.583C485.401 149.252 485.501 149.855 485.778 149.913C486.054 149.972 486.414 149.495 486.572 148.826C486.731 148.156 486.631 147.562 486.355 147.495C486.079 147.428 485.719 147.914 485.56 148.583Z" fill="#263238"/>
<path d="M505.899 136.66C501.331 131.882 490.529 131.882 489.701 134.376C489.44 135.026 489.4 135.745 489.587 136.421C489.774 137.097 490.179 137.692 490.738 138.116C490.738 138.116 497.8 138.952 496.763 140.818C495.725 142.684 492.194 142.684 493.023 143.931C493.851 145.177 496.763 147.871 495.725 148.499C494.688 149.126 494.052 150.365 494.688 150.783C495.324 151.202 496.361 150.156 498.871 150.574C501.381 150.992 500.737 156.799 498.453 157.636C496.169 158.472 495.106 157.427 499.289 161.167C499.781 161.597 500.348 161.932 500.963 162.154C503.038 159.92 508.568 154.03 511.564 151.193C515.203 147.662 510.468 141.437 505.899 136.66Z" fill="#263238" stroke="#263238" stroke-linecap="round" stroke-linejoin="round"/>
<path d="M496.763 158.255L493.023 157.427L490.529 159.293" stroke="#263238" stroke-linecap="round" stroke-linejoin="round"/>
<path d="M501.122 164.07L482.02 169.258L480.773 173.207L503.406 169.057L501.122 164.07Z" fill="#F37021" stroke="#263238" stroke-linecap="round" stroke-linejoin="round"/>
<path d="M452.953 131.882L452.326 127.523C452.326 127.523 454.191 121.507 454.191 120.051C454.191 118.596 452.744 115.274 452.744 114.446C452.744 113.617 451.497 112.371 451.07 114.027C450.644 115.684 449.824 121.917 449.824 121.917C449.824 121.917 447.13 126.486 447.314 128.77C447.498 131.054 449.59 135.832 449.59 135.832L453.33 133.547L452.953 131.882Z" fill="white" stroke="#263238" stroke-linecap="round" stroke-linejoin="round"/>
<path d="M455.648 135.212L452.953 131.882L447.967 135.831L450.87 140.818L455.648 135.212Z" fill="white" stroke="#263238" stroke-linecap="round" stroke-linejoin="round"/>
<path d="M500.913 177.984C499.535 174.502 496.956 171.629 493.642 169.885C490.111 168.154 486.428 166.753 482.639 165.702L454.401 133.522L448.795 139.128C448.795 139.128 460.634 163.836 462.918 167.986C465.203 172.136 491.567 200.617 491.567 200.617" fill="#F37021"/>
<path d="M500.913 177.984C499.535 174.502 496.956 171.629 493.642 169.885C490.111 168.154 486.428 166.753 482.639 165.702L454.401 133.522L448.795 139.128C448.795 139.128 460.634 163.836 462.918 167.986C465.203 172.136 491.567 200.617 491.567 200.617" stroke="#263238" stroke-linecap="round" stroke-linejoin="round"/>
<path d="M254.732 314.014C254.732 314.014 250.758 319.661 249.921 322.799C249.084 325.937 249.294 330.12 251.385 329.702C253.477 329.283 258.288 324.054 258.706 322.59C259.125 321.126 260.589 314.432 260.589 314.432L255.569 314.014H254.732Z" fill="white" stroke="#263238" stroke-linecap="round" stroke-linejoin="round"/>
<path d="M326.479 317.57C326.479 317.57 326.479 323.427 327.734 324.263C328.989 325.1 337.565 328.656 340.075 328.865C342.585 329.074 343.422 328.656 341.957 325.727C340.493 322.799 332.126 317.151 332.126 317.151L326.479 317.57Z" fill="white" stroke="#263238" stroke-linecap="round" stroke-linejoin="round"/>
<path d="M275.023 218.631L270.212 238.921L267.702 276.99C267.702 276.99 258.498 292.888 257.661 298.744C256.825 304.601 254.105 316.524 254.105 316.524C254.105 316.524 257.871 318.198 258.498 318.198C259.126 318.198 266.656 307.321 270.839 303.137C275.023 298.954 284.436 280.965 284.854 280.128C285.272 279.291 291.966 252.726 292.384 251.889C292.803 251.053 295.313 250.007 295.313 250.007C295.313 250.007 307.913 268.121 309.436 269.644C311.871 272.079 315.812 278.245 315.812 278.245C315.812 278.245 324.388 312.341 325.015 314.014C325.469 315.582 325.75 317.196 325.852 318.825L333.591 320.498C333.591 320.498 334.219 297.699 333.801 292.26C333.382 286.822 331.709 275.108 331.709 275.108C331.709 275.108 318.949 240.176 318.322 239.339C317.694 238.502 313.929 230.135 313.929 230.135L312.674 222.187C305.316 224.248 297.574 224.535 290.083 223.024C277.533 220.513 275.023 218.631 275.023 218.631Z" fill="#263238" stroke="#263238" stroke-linecap="round" stroke-linejoin="round"/>
<path d="M286.845 161.911C282.301 164.916 277.585 167.651 272.721 170.103C266.304 173.173 264.773 176.244 264.773 177.775C264.773 179.306 259.192 204.692 259.61 206.081C260.029 207.47 263.794 209.57 266.17 210.13C268.546 210.691 271.885 209.988 272.579 209.427C273.274 208.867 275.507 199.387 275.507 199.387C275.507 199.387 274.252 216.539 273.7 218.773C273.148 221.007 278.302 226.722 283.322 227.701C288.342 228.68 301.863 228.671 305.352 227.559C308.841 226.446 311.209 226.161 312.322 224.07C313.435 221.978 314.138 207.06 314.28 206.081C314.422 205.102 315.535 196.182 315.535 196.182L319.158 208.457L320.555 210.967C320.555 210.967 321.25 209.427 325.575 206.917C329.901 204.407 331.29 204.131 331.29 204.131C331.29 204.131 328.78 195.906 327.249 191.162C325.718 186.418 324.178 177.775 322.229 174.286C320.279 170.797 316.79 169.266 312.046 166.338C307.302 163.409 300.332 161.736 299.496 161.317C298.659 160.899 291.204 160.28 286.845 161.911Z" fill="white" stroke="#263238" stroke-linecap="round" stroke-linejoin="round"/>
<path d="M275.508 199.387L278.453 189.188" stroke="#263238" stroke-linecap="round" stroke-linejoin="round"/>
<path d="M317.576 186.66L318.078 184.351" stroke="#263238" stroke-linecap="round" stroke-linejoin="round"/>
<path d="M315.535 196.182L317.133 188.752" stroke="#263238" stroke-linecap="round" stroke-linejoin="round"/>
<path d="M290.5 178.051L293.428 182.234L295.102 185.999L290.918 220.722L296.775 226.161L301.377 220.095L297.194 186.418L299.704 181.607L303.042 176.143L296.984 172.612L290.5 178.051Z" fill="#F37021" stroke="#263238" stroke-linecap="round" stroke-linejoin="round"/>
<path d="M288.46 160.413C288.46 160.413 285.557 161.174 284.921 162.923C284.285 164.672 285.172 175.315 286.059 177.59C286.781 179.3 287.62 180.957 288.569 182.552C288.569 182.552 296.333 177.59 297.722 177.339C299.111 177.088 307.085 181.263 307.085 181.263C307.085 181.263 307.336 176.327 304.575 169.374C301.814 162.421 295.371 158.497 292.56 158.238C291.74 158.169 290.917 158.338 290.191 158.723C289.464 159.109 288.863 159.696 288.46 160.413Z" fill="white" stroke="#263238" stroke-linecap="round" stroke-linejoin="round"/>
<path d="M287.305 159.535C287.305 159.535 287.69 163.961 288.066 166.99C288.443 170.019 293.128 180.025 294.76 181.414C296.391 182.803 299.78 178.252 300.96 176.227C301.456 175.306 302.016 174.42 302.633 173.575C302.633 173.575 294.542 169.65 292.015 165.099C289.488 160.547 289.731 158.405 288.593 158.263C287.455 158.121 287.305 159.535 287.305 159.535Z" fill="white" stroke="#263238" stroke-linecap="round" stroke-linejoin="round"/>
<path d="M291.387 170.412L297.603 180.452C297.603 180.452 300.465 177.808 300.95 176.269C301.435 174.729 291.387 170.412 291.387 170.412Z" fill="#263238" stroke="#263238" stroke-linecap="round" stroke-linejoin="round"/>
<path d="M284.87 152.431C284.33 153.881 284.127 155.434 284.276 156.974C284.468 159.744 286.05 161.718 286.845 161.911C287.562 162.046 288.29 162.113 289.02 162.111C289.02 162.111 289.212 167.048 291.388 170.411C293.563 173.775 300.876 178.511 303.043 176.143C305.21 173.775 307.988 164.287 308.975 159.744C309.596 156.806 310.057 153.837 310.356 150.849L295.739 147.503L288.819 145.93L284.87 152.431Z" fill="white" stroke="#263238" stroke-linecap="round" stroke-linejoin="round"/>
<path d="M293.362 150.49C293.362 150.49 294.156 153.059 292.575 154.673C290.994 156.288 290.4 156.255 290.4 156.255C290.4 156.255 290.793 158.823 290.199 158.823C289.938 158.828 289.678 158.78 289.436 158.682C289.194 158.584 288.974 158.437 288.789 158.252C288.605 158.067 288.46 157.847 288.363 157.604C288.266 157.361 288.219 157.102 288.224 156.841C288.173 155.781 287.832 154.756 287.237 153.879L284.869 152.498C284.295 149.621 284.361 146.653 285.062 143.805C286.25 139.262 294.742 137.479 301.862 137.68C308.983 137.881 310.748 146.967 310.748 146.967C312.254 147.65 313.708 148.441 315.099 149.335C315.693 149.929 316.287 151.31 312.924 153.092C309.56 154.874 303.636 155.46 300.08 154.079C297.725 153.114 295.473 151.911 293.362 150.49Z" fill="#263238" stroke="#263238" stroke-linecap="round" stroke-linejoin="round"/>
<path d="M298.157 160.998C297.922 161.735 297.446 162.237 297.077 162.128C296.709 162.019 296.601 161.291 296.826 160.588C297.052 159.886 297.538 159.35 297.897 159.467C298.257 159.584 298.383 160.271 298.157 160.998Z" fill="#263238"/>
<path d="M306.373 161.634C306.147 162.371 305.662 162.873 305.302 162.756C304.942 162.639 304.817 161.919 305.043 161.224C305.269 160.53 305.754 159.986 306.122 160.095C306.49 160.204 306.599 160.898 306.373 161.634Z" fill="#263238"/>
<path d="M295.152 158.522C295.152 158.522 296.424 156.623 299.336 157.384" stroke="#263238" stroke-linecap="round" stroke-linejoin="round"/>
<path d="M304.131 158.263C304.39 158.016 304.697 157.827 305.033 157.706C305.369 157.584 305.727 157.534 306.083 157.559C306.439 157.583 306.787 157.681 307.103 157.847C307.42 158.013 307.698 158.243 307.921 158.522" stroke="#263238" stroke-linecap="round" stroke-linejoin="round"/>
<path d="M300.174 167.374C298.97 167.412 297.778 167.624 296.634 168.002C294.735 168.637 291.957 167.876 293.221 169.524C294.484 171.173 296.885 171.675 299.412 171.675C301.939 171.675 304.223 171.549 304.985 170.411C305.746 169.273 306.876 168.135 305.997 168.002C305.119 167.868 301.696 167.625 301.312 167.625C300.924 167.584 300.543 167.499 300.174 167.374Z" fill="#263238" stroke="#263238" stroke-linecap="round" stroke-linejoin="round"/>
<path d="M303.519 160.036C303.519 160.036 303.268 166.989 303.017 168.261C302.977 168.598 302.834 168.915 302.61 169.169C302.385 169.424 302.088 169.604 301.758 169.685C301.429 169.767 301.082 169.747 300.764 169.627C300.447 169.507 300.173 169.293 299.98 169.014C299.176 167.957 298.497 166.812 297.955 165.6" fill="white"/>
<path d="M303.519 160.036C303.519 160.036 303.268 166.989 303.017 168.261C302.977 168.598 302.834 168.915 302.61 169.169C302.385 169.424 302.088 169.604 301.758 169.685C301.429 169.767 301.082 169.747 300.764 169.627C300.447 169.507 300.173 169.293 299.98 169.014C299.176 167.957 298.497 166.812 297.955 165.6" stroke="#263238" stroke-linecap="round" stroke-linejoin="round"/>
<path d="M330.453 201.059C330.453 201.059 324.429 202.047 321.919 203.72C319.409 205.394 318.53 206.849 319.158 208.456C319.695 210.034 320.396 211.551 321.25 212.982C322.295 214.656 324.178 213.401 324.178 213.401C324.003 213.213 323.868 212.992 323.783 212.75C323.698 212.508 323.664 212.251 323.684 211.995C323.704 211.739 323.776 211.49 323.898 211.264C324.019 211.038 324.185 210.84 324.387 210.681C325.851 209.217 331.29 207.125 331.29 207.125H333.173C334.009 207.125 333.173 204.825 332.545 203.779C331.917 202.733 331.917 200.641 330.453 201.059Z" fill="white" stroke="#263238" stroke-linecap="round" stroke-linejoin="round"/>
<path d="M259.543 211.101C259.543 211.101 259.543 217.167 259.961 223.233C260.38 229.299 265.4 246.242 265.4 246.242L270.42 244.987C270.42 244.987 270.211 229.09 270.211 224.069C270.211 219.049 270.002 212.983 270.002 212.983L259.543 211.101Z" fill="white" stroke="#263238" stroke-linecap="round" stroke-linejoin="round"/>
<path d="M258.632 206.875C258.664 206.613 258.763 206.364 258.92 206.152C259.078 205.94 259.288 205.773 259.53 205.668C259.771 205.562 260.037 205.521 260.299 205.55C260.561 205.578 260.812 205.675 261.025 205.83C262.403 206.744 263.971 207.331 265.61 207.545C267.613 207.901 269.656 207.965 271.676 207.737C271.879 207.71 272.085 207.735 272.276 207.808C272.467 207.881 272.636 208.001 272.768 208.157C272.901 208.313 272.992 208.499 273.033 208.699C273.075 208.899 273.066 209.106 273.007 209.302C272.48 211.034 271.685 213.393 271.049 214.029C270.003 215.075 264.983 215.075 262.473 214.238C259.963 213.402 259.335 212.774 258.708 210.682C258.459 209.428 258.433 208.139 258.632 206.875Z" fill="white" stroke="#263238" stroke-linecap="round" stroke-linejoin="round"/>
<path d="M356.18 227.416C356.657 225.895 357.522 224.525 358.691 223.441C360.573 221.768 361.41 221.35 359.527 221.141C357.645 220.931 355.344 223.86 355.344 223.86L356.18 227.416Z" fill="white" stroke="#263238" stroke-linecap="round" stroke-linejoin="round"/>
<path d="M324.178 213.401C325.455 214.686 326.94 215.747 328.57 216.539C331.708 218.212 347.396 226.788 347.396 226.788L353.044 223.442C353.044 223.442 344.258 219.467 340.284 215.284C336.31 211.1 333.172 207.126 333.172 207.126C333.172 207.126 322.713 207.753 324.178 213.401Z" fill="white" stroke="#263238" stroke-linecap="round" stroke-linejoin="round"/>
<path d="M344.676 224.487C344.676 224.487 345.512 228.88 346.977 229.089C348.441 229.298 355.553 228.671 356.18 227.416C356.808 226.161 357.226 221.768 356.18 221.559C355.134 221.35 344.676 224.487 344.676 224.487Z" fill="white" stroke="#263238" stroke-linecap="round" stroke-linejoin="round"/>
<path d="M266.036 251.328C265.051 250.073 263.756 249.096 262.279 248.492C259.928 247.597 259 247.496 260.69 246.634C262.38 245.773 265.559 247.705 265.559 247.705L266.036 251.328Z" fill="white" stroke="#263238" stroke-linecap="round" stroke-linejoin="round"/>
<path d="M275.759 244.526C275.759 244.526 276.529 248.927 275.232 249.639C273.935 250.35 267.066 252.274 266.028 251.312C264.991 250.35 263.05 246.392 263.962 245.832C264.874 245.271 275.759 244.526 275.759 244.526Z" fill="white" stroke="#263238" stroke-linecap="round" stroke-linejoin="round"/>
<path d="M136.131 252.935C136.131 252.935 137.177 252.726 145.753 250.216C151.246 248.457 156.258 245.45 160.395 241.431L157.676 224.278L140.314 226.788L136.131 252.935Z" fill="#F37021" stroke="#263238" stroke-linecap="round" stroke-linejoin="round"/>
<path d="M93.4592 311.086C93.4592 311.086 90.5307 316.943 90.1124 322.381C89.694 327.82 92.8316 329.702 93.8775 328.238C94.9234 326.774 96.5968 321.545 96.8059 319.244L97.4335 312.341L93.4592 311.086Z" fill="white" stroke="#263238" stroke-linecap="round" stroke-linejoin="round"/>
<path d="M170.487 314.851C170.487 314.851 169.65 322.381 169.424 325.937C169.198 329.493 173.608 332.84 174.227 333.057C174.846 333.275 175.482 333.057 176.528 330.547C177.574 328.037 177.582 321.971 176.963 320.088C176.344 318.206 175.089 315.277 175.089 315.277L170.487 314.851Z" fill="white" stroke="#263238" stroke-linecap="round" stroke-linejoin="round"/>
<path d="M141.151 204.616C141.151 204.616 132.709 214.657 129.78 223.024C126.852 231.39 124.518 241.749 122.535 247.288C120.877 252.019 119.481 256.837 118.351 261.721C118.351 261.721 112.913 267.159 111.448 271.97C109.984 276.781 92.832 312.341 92.832 312.341C92.832 312.341 93.8779 313.805 94.7146 314.014C95.5513 314.223 97.4339 313.177 97.4339 313.177C97.4339 313.177 127.764 273.434 129.647 270.506C131.529 267.578 137.47 260.8 138.097 259.754C138.725 258.709 143.452 244.15 145.125 242.058C146.365 240.391 147.451 238.616 148.372 236.754L149.627 237.59L151.091 237.8C151.091 237.8 157.676 251.053 159.349 256.491C161.023 261.93 165.834 291.632 167.089 297.071C168.344 302.51 170.017 316.733 170.017 316.733C170.773 316.982 171.541 317.192 172.318 317.361C173.364 317.57 176.083 316.733 176.083 316.733C176.083 316.733 180.894 294.979 181.103 287.449C181.313 279.919 179.848 263.185 179.848 260.675C179.848 258.165 176.083 223.651 174.201 219.049C172.318 214.447 166.043 206.29 166.043 206.29L141.151 204.616Z" fill="#263238" stroke="#263238" stroke-linecap="round" stroke-linejoin="round"/>
<path d="M153.493 165.082L140.943 169.056C140.943 169.056 140.943 193.32 141.152 196.458C141.361 199.596 139.688 204.825 140.733 206.08C141.779 207.335 146.8 212.355 156.003 212.564C165.207 212.774 167.717 209.845 167.717 209.845L169.599 201.687C169.599 201.687 175.666 185.372 175.666 182.862C175.666 180.352 169.599 173.031 166.044 170.102C162.488 167.174 153.493 165.082 153.493 165.082Z" fill="white" stroke="#263238" stroke-linecap="round" stroke-linejoin="round"/>
<path d="M121.072 193.739C118.399 195.538 115.603 197.146 112.705 198.55L95.9707 206.917L97.8533 210.892C101.935 210.163 106.056 209.674 110.195 209.427C115.633 209.218 124.837 205.662 125.464 204.616C126.092 203.57 128.183 197.923 128.183 197.923L121.072 193.739Z" fill="white" stroke="#263238" stroke-linecap="round" stroke-linejoin="round"/>
<path d="M151.819 165.292C151.819 165.292 142.824 189.974 142.406 193.53C141.988 197.086 138.432 206.081 138.223 207.336C138.013 208.591 132.157 221.351 132.157 221.351C132.157 221.351 138.432 201.688 139.059 197.714C139.403 195.173 139.115 192.587 138.223 190.184C138.223 190.184 133.981 199.187 133.353 199.814C132.725 200.442 128.467 207.629 128.467 207.629L121.07 193.74C121.07 193.74 129.228 179.516 130.901 177.215C132.575 174.914 136.131 168.639 138.641 167.384C141.151 166.129 151.819 165.292 151.819 165.292Z" fill="#F37021" stroke="#263238" stroke-linecap="round" stroke-linejoin="round"/>
<path d="M164.161 168.429C164.161 168.429 157.677 195.621 157.677 200.014C157.677 204.407 157.049 218.003 156.422 225.533C155.794 233.063 154.539 257.118 154.539 257.118C158.553 257.733 162.625 257.874 166.671 257.537C172.528 256.909 182.568 252.935 182.568 252.935C182.568 252.935 177.339 226.579 175.247 220.304C173.488 214.878 172.022 209.362 170.855 203.779C170.855 203.152 176.502 184.744 176.502 182.234C176.502 179.724 166.462 169.056 164.161 168.429Z" fill="#F37021" stroke="#263238" stroke-linecap="round" stroke-linejoin="round"/>
<path d="M90.398 208.49C90.523 206.904 90.2347 205.313 89.5613 203.871C88.4234 201.629 87.8043 200.934 89.6283 201.428C91.4523 201.922 92.5232 205.494 92.5232 205.494L90.398 208.49Z" fill="white" stroke="#263238" stroke-linecap="round" stroke-linejoin="round"/>
<path d="M102.171 209.996C102.171 209.996 99.7778 213.778 98.3387 213.435C96.8996 213.092 90.5156 209.895 90.3985 208.49C90.2814 207.084 91.4946 202.859 92.5488 203.043C93.603 203.227 102.171 209.996 102.171 209.996Z" fill="white" stroke="#263238" stroke-linecap="round" stroke-linejoin="round"/>
<path d="M172.997 142.768C173.543 144.391 173.954 146.056 174.227 147.747C174.149 148.777 173.959 149.795 173.658 150.784C173.658 150.784 177.08 153.829 177.273 154.591C177.465 155.352 175.374 156.49 175.374 156.49C175.374 156.49 175.558 164.472 175.558 165.041C175.558 165.61 166.245 165.995 166.245 165.995L156.514 177.399L151.954 166.187L154.046 159.912C154.046 159.912 147.771 156.298 150.055 150.784C152.339 145.27 157.468 142.233 162.606 141.471C165.95 141.034 169.344 141.161 172.646 141.848L172.997 142.768Z" fill="white" stroke="#263238" stroke-linecap="round" stroke-linejoin="round"/>
<path d="M166.211 165.994L161.442 165.082L161.166 171.499L166.211 165.994Z" fill="#263238" stroke="#263238" stroke-linecap="round" stroke-linejoin="round"/>
<path d="M171.675 151.52C171.675 152.189 171.432 152.725 171.123 152.725C170.813 152.725 170.57 152.189 170.57 151.52C170.57 150.85 170.821 150.323 171.123 150.323C171.424 150.323 171.675 150.859 171.675 151.52Z" fill="#263238"/>
<path d="M169.834 149.587C169.834 149.587 170.386 148.482 172.411 149.035" stroke="#263238" stroke-linecap="round" stroke-linejoin="round"/>
<path d="M174.444 158.439C174.444 158.439 172.043 158.808 171.098 157.511" stroke="#263238" stroke-linecap="round" stroke-linejoin="round"/>
<path d="M173.432 145.086C173.432 145.086 167.165 143.563 166.019 145.847C164.872 148.131 165.835 149.269 164.881 151.361C163.927 153.453 160.321 156.113 160.321 156.113C160.321 156.113 156.899 152.306 155.752 154.206C154.606 156.105 154.991 158.958 156.137 159.912C157.284 160.866 160.505 160.288 160.505 160.288L155.568 162.573C155.568 162.573 155.752 165.426 151.192 166.564C146.632 167.701 141.152 164.664 141.88 160.866C142.608 157.067 148.908 154.783 148.908 154.783C148.908 154.783 142.215 146.608 147.77 140.559C153.326 134.51 164.119 137.329 164.119 137.329C164.119 137.329 165.642 135.656 169.976 135.238C174.31 134.819 176.251 139.229 176.251 141.705C176.251 144.182 173.432 145.086 173.432 145.086Z" fill="#263238" stroke="#263238" stroke-linecap="round" stroke-linejoin="round"/>
<path d="M489.149 81.8813L486.915 38.7246L449.816 58.8806L450.653 62.2274L464.684 69.3895L398.661 198.784L189.119 255.763L44.2616 156.899C42.9779 156.023 41.3986 155.692 39.8711 155.98C38.3435 156.268 36.9929 157.151 36.1164 158.435C35.2399 159.718 34.9092 161.298 35.1972 162.825C35.4851 164.353 36.368 165.703 37.6518 166.58L184.709 266.958C185.695 267.632 186.863 267.988 188.056 267.979C188.574 267.98 189.089 267.91 189.587 267.77L404.241 209.41C405.029 209.197 405.764 208.82 406.398 208.306C407.032 207.792 407.551 207.15 407.923 206.423L475.126 74.7443L489.149 81.8813Z" fill="#91481B" stroke="#263238" stroke-linecap="round" stroke-linejoin="round"/>
<path d="M488.313 78.5347L486.079 35.3779L449.817 58.8807L463.848 66.0428L397.825 195.438L188.283 252.417L43.4257 153.553C42.142 152.676 40.5626 152.346 39.0351 152.633C37.5076 152.921 36.157 153.804 35.2805 155.088C34.404 156.372 34.0733 157.951 34.3612 159.479C34.6491 161.006 35.5321 162.357 36.8158 163.233L183.873 263.612C184.859 264.285 186.027 264.641 187.22 264.632C187.738 264.633 188.253 264.563 188.751 264.423L403.405 206.064C404.193 205.85 404.928 205.474 405.562 204.959C406.196 204.445 406.715 203.804 407.087 203.077L474.29 71.3977L488.313 78.5347Z" fill="#F47221"/>
<path d="M482.281 42.8496L458.175 58.454L469.479 64.2188L400.711 199.019L187.513 256.96L41.0913 157.008C40.9095 156.885 40.7051 156.798 40.4898 156.753C40.2745 156.708 40.0524 156.707 39.8364 156.748C39.6204 156.789 39.4146 156.872 39.2308 156.993C39.047 157.114 38.8889 157.27 38.7653 157.452C38.5146 157.818 38.4196 158.269 38.5012 158.705C38.5828 159.141 38.8343 159.527 39.2004 159.778L186.291 260.181C186.57 260.372 186.899 260.474 187.237 260.474C187.384 260.471 187.53 260.451 187.672 260.415L402.326 202.048C402.55 201.989 402.759 201.884 402.941 201.74C403.122 201.596 403.272 201.416 403.38 201.211L472.483 65.8085L483.787 71.5734L482.281 42.8496Z" fill="white"/>
<path d="M168.662 213.853L167.516 218.263C166.215 220.765 164.709 223.155 163.014 225.408C160.253 229.064 150.338 239.264 150.338 239.264L147.535 242.719L147.209 245.748L149.485 246.627C149.485 246.627 150.623 247.07 151.551 247.547C152.48 248.024 154.898 248.459 155.643 247.898C156.388 247.338 158.153 242.795 158.153 242.795L158.822 239.289C158.822 239.289 170.603 230.043 173.297 227.24C175.991 224.438 178.317 221.919 179.104 220.296C179.89 218.673 179.246 213.694 179.246 213.694L168.662 213.853Z" fill="white" stroke="#263238" stroke-linecap="round" stroke-linejoin="round"/>
<path d="M168.369 192.468L166.303 214.69C168.27 215.398 170.283 215.974 172.327 216.414C175.632 217.117 182.535 215.293 182.535 215.293C182.535 215.293 181.472 196.793 180.091 190.025C178.711 183.256 174.862 178.194 172.386 177.349" fill="#F37021"/>
<path d="M168.369 192.468L166.303 214.69C168.27 215.398 170.283 215.974 172.327 216.414C175.632 217.117 182.535 215.293 182.535 215.293C182.535 215.293 181.472 196.793 180.091 190.025C178.711 183.256 174.862 178.194 172.386 177.349" stroke="#263238" stroke-linecap="round" stroke-linejoin="round"/>
<path d="M433.367 328.237H584.809" stroke="#263238" stroke-linecap="round" stroke-linejoin="round"/>
<path d="M414.959 328.237H425.836" stroke="#263238" stroke-linecap="round" stroke-linejoin="round"/>
<path d="M141.361 328.237H405.757" stroke="#263238" stroke-linecap="round" stroke-linejoin="round"/>
<path d="M15.0195 328.237H133.83" stroke="#263238" stroke-linecap="round" stroke-linejoin="round"/>
</svg>
