<svg xmlns="http://www.w3.org/2000/svg" xmlns:xlink="http://www.w3.org/1999/xlink" width="1466" height="794" fill="none" xmlns:v="https://vecta.io/nano"><style><![CDATA[.B{color-interpolation-filters:sRGB}.C{flood-opacity:0}]]></style><mask id="A" mask-type="alpha" maskUnits="userSpaceOnUse" x="0" y="0" width="1466" height="794"><path fill="#f5f7fe" d="M0 0h1466v794H0z"/></mask><g mask="url(#A)"><g filter="url(#B)"><use xlink:href="#E" fill="#fef5e5"/><use xlink:href="#E" stroke="#000"/></g><g opacity=".5" filter="url(#C)"><use xlink:href="#F" fill="#b9d6f0"/><use xlink:href="#F" stroke="#000"/></g><g opacity=".5" filter="url(#D)"><use xlink:href="#G" fill="#dee3fa"/><use xlink:href="#G" stroke="#000"/></g></g><path d="M769 70c3.881 22.304 22.194 65.722 64.396 60.959 52.753-5.953 12.356-60.959-17.822-33.813-22.861 20.564-16.981 51.911-3.326 71.437 21.148 30.241 112.871 54.53 172.752 0" stroke="#cdcdcd" stroke-dasharray="5 5"/><path d="M1038.38 145.712l3.14-2.656-1.94-19.359 5.34-4.181c3.41-2.751 1.14-5.602 1.14-5.602s-2.45-2.72-5.72.186l-4.94 4.514-18.93-5.183-3.15 2.668 15.35 8.701-14.69 13.588-6.57-2.586-3.35 1.675 5.86 4.671 1.14 1.357 1.15 1.357 3.64 6.556 2.21-3.044-1.47-6.906 15.8-12.205 5.99 16.449z" fill="#cdcdcd"/><defs><filter id="B" x="-779.5" y="-410.283" width="1390" height="1099.69" filterUnits="userSpaceOnUse" class="B"><feFlood class="C"/><feBlend in="SourceGraphic"/><feGaussianBlur stdDeviation="100"/></filter><filter id="C" x="-268.5" y="335.273" width="774" height="632.039" filterUnits="userSpaceOnUse" class="B"><feFlood class="C"/><feBlend in="SourceGraphic"/><feGaussianBlur stdDeviation="95"/></filter><filter id="D" x="982.499" y="286.12" width="842.213" height="687.621" filterUnits="userSpaceOnUse" class="B"><feFlood class="C"/><feBlend in="SourceGraphic"/><feGaussianBlur stdDeviation="95"/></filter><path id="E" d="M-2.443-201.827c95.863-45.26 183.68 116.012 259.087 146.125 54.875 19.154 119.829-72.088 137.747 0s23.518 277.406 0 401.508-133.658-74.827-249.008 0-60.084 116.802-207.91 139.615-396.444-71.176-433.401-139.615S-569.841 184.29-578.8 79.351s286.303 120.33 327.739 82.916S-122.272-145.251-2.443-201.827z"/><path id="F" d="M151.107 528.633c38.093-16.262 72.989 41.683 102.954 52.502 21.805 6.882 47.616-25.901 54.736.001s9.346 99.67 0 144.26-53.112-26.885-98.948 0-23.876 41.966-82.618 50.163-157.535-25.573-172.22-50.163-29.371-58.032-32.931-95.737 113.769 43.234 130.234 29.792 51.176-110.49 98.793-130.818z"/><path id="G" d="M1502.01 571.12c30.73-13.931 58.88 35.707 83.05 44.976 17.59 5.895 38.4-22.189 44.15 0 5.74 22.188 7.54 85.382 0 123.579s-42.84-23.031-79.82 0c-36.97 23.031-19.25 35.951-66.64 42.972-47.38 7.022-318.38-50.048-309.54-72.219 48.5-121.569 169.37-11.588 166.5-43.888s-59.78-177.64-46.5-189.155 170.39 111.148 208.8 93.735z"/></defs></svg>