<svg xmlns="http://www.w3.org/2000/svg" width="50" height="58" fill="none" xmlns:v="https://vecta.io/nano"><path d="M44.676 23.472c.159-9.626-7.515-17.556-17.131-17.719C17.91 5.591 9.981 13.264 9.818 22.88a17.35 17.35 0 0 0 .581 4.696l-.008-.003s1.425 10.526 16.244 27.28C40.829 40.829 43.932 28.21 43.932 28.21l-.021.009c.453-1.506.731-3.096.764-4.747zm-17.31-7.191c3.806.062 6.843 3.206 6.781 7.012s-3.206 6.843-7.012 6.781-6.843-3.205-6.781-7.012c.054-3.809 3.201-6.854 7.012-6.781z" fill="#f37021"/></svg>