<svg xmlns="http://www.w3.org/2000/svg" width="113" height="59" fill="none" xmlns:v="https://vecta.io/nano"><path d="M37.667 22.692H23.542V9.077h-9.417v13.615H0v9.077h14.125v13.615h9.417V31.769h14.125v-9.077zm47.083 4.538c7.816 0 14.078-6.082 14.078-13.615S92.566 0 84.75 0c-1.507 0-2.966.227-4.285.635a21.84 21.84 0 0 1 4.237 12.98c0 4.856-1.601 9.258-4.237 12.98 1.318.408 2.778.635 4.285.635zm-23.542 0c7.816 0 14.078-6.082 14.078-13.615S69.024 0 61.208 0 47.083 6.082 47.083 13.615s6.309 13.615 14.125 13.615zm31.169 9.803c3.908 3.313 6.498 7.534 6.498 12.889V59H113v-9.077c0-6.989-11.159-11.301-20.623-12.889zm-31.169-.726c-9.417 0-28.25 4.539-28.25 13.615V59h56.5v-9.077c0-9.077-18.833-13.615-28.25-13.615z" fill="url(#A)"/><defs><linearGradient id="A" x1="56.5" y1="0" x2="56.5" y2="59" gradientUnits="userSpaceOnUse"><stop stop-color="#f9861c"/><stop offset="1" stop-color="#fe9d16"/></linearGradient></defs></svg>