<svg width="73" height="83" viewBox="0 0 73 83" fill="none" xmlns="http://www.w3.org/2000/svg">
<path d="M36.5 0C46.5831 0 54.75 8.25389 54.75 18.4444C54.75 28.635 46.5831 36.8889 36.5 36.8889C26.4169 36.8889 18.25 28.635 18.25 18.4444C18.25 8.25389 26.4169 0 36.5 0ZM54.75 48.6011C54.75 53.4889 53.4725 64.8783 44.7581 77.605L41.0625 55.3333L45.3512 46.6644C42.5225 46.3417 39.5569 46.1111 36.5 46.1111C33.4431 46.1111 30.4775 46.3417 27.6488 46.6644L31.9375 55.3333L28.2419 77.605C19.5275 64.8783 18.25 53.4889 18.25 48.6011C7.34562 51.8289 0 57.6389 0 64.5556V83H73V64.5556C73 57.6389 65.7 51.8289 54.75 48.6011Z" fill="url(#paint0_linear)"/>
<defs>
<linearGradient id="paint0_linear" x1="36.5" y1="0" x2="36.5" y2="83" gradientUnits="userSpaceOnUse">
<stop stop-color="#F9861C"/>
<stop offset="1" stop-color="#FE9D16"/>
</linearGradient>
</defs>
</svg>
