<svg width="96" height="87" viewBox="0 0 96 87" fill="none" xmlns="http://www.w3.org/2000/svg">
<path d="M40.1072 63.4435C44.3503 61.423 48.5934 58.6953 52.2303 55.1594V51.2194C52.2303 46.1681 49.4016 41.622 44.8554 39.3994C43.239 38.6922 41.5216 37.9851 39.7031 37.3789C35.7631 40.0056 31.1159 41.521 26.1657 41.521C21.2154 41.521 16.5682 40.0056 12.6282 37.3789C10.8098 37.9851 9.09232 38.5912 7.4759 39.3994C2.82872 41.521 0 46.1681 0 51.2194V64.6559C0 67.1815 2.02051 69.202 4.44513 69.202H19.7C25.2564 68.4948 32.8334 66.9795 40.1072 63.4435Z" fill="url(#paint0_linear)"/>
<path d="M26.1637 33.9447C35.5373 33.9447 43.1361 26.3459 43.1361 16.9723C43.1361 7.59877 35.5373 0 26.1637 0C16.7902 0 9.19141 7.59877 9.19141 16.9723C9.19141 26.3459 16.7902 33.9447 26.1637 33.9447Z" fill="url(#paint1_linear)"/>
<path d="M94.5607 25.5596L79.3058 10.2037C77.4873 8.38523 74.4565 8.38523 72.6381 10.2037L57.2822 25.5596C55.4637 27.3781 55.4637 30.4088 57.2822 32.2273C59.1006 34.0458 62.1314 34.0458 63.9499 32.2273L71.1227 25.0545C70.9206 39.2991 66.4755 51.0181 57.8883 59.6053C40.7139 76.7797 12.4267 76.8807 12.0226 76.8807C9.39595 76.8807 7.27441 79.0022 7.27441 81.6289C7.27441 84.2556 9.39595 86.3771 12.0226 86.3771C12.0226 86.3771 12.0226 86.3771 12.1237 86.3771C14.1442 86.3771 44.755 86.074 64.556 66.374C75.0627 55.7663 80.4171 41.9258 80.6191 24.9535L87.893 32.2273C88.8022 33.1365 90.0145 33.6417 91.2268 33.6417C92.4391 33.6417 93.6514 33.1365 94.5607 32.2273C96.4802 30.4088 96.4802 27.3781 94.5607 25.5596Z" fill="url(#paint2_linear)"/>
<defs>
<linearGradient id="paint0_linear" x1="26.1152" y1="37.3789" x2="26.1152" y2="69.202" gradientUnits="userSpaceOnUse">
<stop stop-color="#F9861C"/>
<stop offset="1" stop-color="#FE9D16"/>
</linearGradient>
<linearGradient id="paint1_linear" x1="26.1637" y1="0" x2="26.1637" y2="33.9447" gradientUnits="userSpaceOnUse">
<stop stop-color="#F9861C"/>
<stop offset="1" stop-color="#FE9D16"/>
</linearGradient>
<linearGradient id="paint2_linear" x1="51.6373" y1="8.83984" x2="51.6373" y2="86.3771" gradientUnits="userSpaceOnUse">
<stop stop-color="#F9861C"/>
<stop offset="1" stop-color="#FE9D16"/>
</linearGradient>
</defs>
</svg>
